# Wavefront OBJ file automatically generated by Tiled2Unity

# Vertices (Count = 314)
v -80 -320 0
v -160 -320 0
v -160 -240 0
v -80 -240 0
v -240 -320 0
v -240 -240 0
v -320 -320 0
v -400 -320 0
v -400 -240 0
v -320 -240 0
v -480 -320 0
v -560 -320 0
v -560 -240 0
v -480 -240 0
v -8240 -320 0
v -8320 -320 0
v -8320 -240 0
v -8240 -240 0
v -8400 -320 0
v -8400 -240 0
v 0 -400 0
v -80 -400 0
v 0 -320 0
v -160 -400 0
v -240 -400 0
v -320 -400 0
v -400 -400 0
v -480 -400 0
v -560 -400 0
v -640 -400 0
v -640 -320 0
v -4800 -400 0
v -4880 -400 0
v -4880 -320 0
v -4800 -320 0
v -4960 -400 0
v -4960 -320 0
v -5280 -400 0
v -5360 -400 0
v -5360 -320 0
v -5280 -320 0
v -5600 -400 0
v -5680 -400 0
v -5680 -320 0
v -5600 -320 0
v -5760 -400 0
v -5760 -320 0
v -6000 -400 0
v -6080 -400 0
v -6080 -320 0
v -6000 -320 0
v -6400 -400 0
v -6480 -400 0
v -6480 -320 0
v -6400 -320 0
v -6560 -400 0
v -6640 -400 0
v -6640 -320 0
v -6560 -320 0
v -6720 -400 0
v -6720 -320 0
v -6800 -400 0
v -6800 -320 0
v -6880 -400 0
v -6960 -400 0
v -6960 -320 0
v -6880 -320 0
v -7040 -400 0
v -7040 -320 0
v -7120 -400 0
v -7200 -400 0
v -7200 -320 0
v -7120 -320 0
v -7280 -400 0
v -7280 -320 0
v -7360 -400 0
v -7360 -320 0
v -7440 -400 0
v -7520 -400 0
v -7520 -320 0
v -7440 -320 0
v -7600 -400 0
v -7600 -320 0
v -7680 -400 0
v -7760 -400 0
v -7760 -320 0
v -7680 -320 0
v -7840 -400 0
v -7920 -400 0
v -7920 -320 0
v -7840 -320 0
v -8000 -400 0
v -8000 -320 0
v -8080 -400 0
v -8080 -320 0
v -8160 -400 0
v -8240 -400 0
v -8160 -320 0
v -8320 -400 0
v -8400 -400 0
v -4480 -480 0
v -4560 -480 0
v -4560 -400 0
v -4480 -400 0
v -4640 -480 0
v -4720 -480 0
v -4720 -400 0
v -4640 -400 0
v -4800 -480 0
v -4880 -480 0
v -4960 -480 0
v -5040 -480 0
v -5040 -400 0
v -5280 -480 0
v -5360 -480 0
v -5600 -480 0
v -5680 -480 0
v -5760 -480 0
v -6000 -480 0
v -6080 -480 0
v -6320 -480 0
v -6400 -480 0
v -6320 -400 0
v -6480 -480 0
v -6560 -480 0
v -6640 -480 0
v -6720 -480 0
v -6800 -480 0
v -6880 -480 0
v -6960 -480 0
v -7040 -480 0
v -7120 -480 0
v -7200 -480 0
v -7280 -480 0
v -7360 -480 0
v -7440 -480 0
v -7520 -480 0
v -7600 -480 0
v -7680 -480 0
v -7760 -480 0
v -7840 -480 0
v -7920 -480 0
v -8000 -480 0
v -8080 -480 0
v -8160 -480 0
v -8240 -480 0
v -8320 -480 0
v -8400 -480 0
v -4160 -560 0
v -4240 -560 0
v -4240 -480 0
v -4160 -480 0
v -4320 -560 0
v -4320 -480 0
v -4400 -560 0
v -4480 -560 0
v -4400 -480 0
v -4560 -560 0
v -4640 -560 0
v -4720 -560 0
v -80 -640 0
v -160 -640 0
v -160 -560 0
v -80 -560 0
v -240 -640 0
v -240 -560 0
v -960 -640 0
v -1040 -640 0
v -1040 -560 0
v -960 -560 0
v -1120 -640 0
v -1120 -560 0
v -1520 -640 0
v -1600 -640 0
v -1600 -560 0
v -1520 -560 0
v -1680 -640 0
v -1760 -640 0
v -1760 -560 0
v -1680 -560 0
v -1840 -640 0
v -1840 -560 0
v -1920 -640 0
v -1920 -560 0
v -2000 -640 0
v -2080 -640 0
v -2080 -560 0
v -2000 -560 0
v -3840 -640 0
v -3920 -640 0
v -3920 -560 0
v -3840 -560 0
v -4000 -640 0
v -4080 -640 0
v -4080 -560 0
v -4000 -560 0
v -4160 -640 0
v -4240 -640 0
v -4320 -640 0
v -4400 -640 0
v 0 -720 0
v -80 -720 0
v 0 -640 0
v -160 -720 0
v -240 -720 0
v -320 -720 0
v -320 -640 0
v -400 -720 0
v -480 -720 0
v -480 -640 0
v -400 -640 0
v -560 -720 0
v -640 -720 0
v -640 -640 0
v -560 -640 0
v -880 -720 0
v -960 -720 0
v -880 -640 0
v -1040 -720 0
v -1120 -720 0
v -1200 -720 0
v -1200 -640 0
v -1280 -720 0
v -1280 -640 0
v -1360 -720 0
v -1360 -640 0
v -1440 -720 0
v -1440 -640 0
v -1520 -720 0
v -1600 -720 0
v -1680 -720 0
v -1760 -720 0
v -1840 -720 0
v -1920 -720 0
v -2000 -720 0
v -2080 -720 0
v -2160 -720 0
v -2160 -640 0
v -2480 -720 0
v -2560 -720 0
v -2560 -640 0
v -2480 -640 0
v -2640 -720 0
v -2720 -720 0
v -2720 -640 0
v -2640 -640 0
v -2800 -720 0
v -2880 -720 0
v -2880 -640 0
v -2800 -640 0
v -2960 -720 0
v -3040 -720 0
v -3040 -640 0
v -2960 -640 0
v -3120 -720 0
v -3200 -720 0
v -3200 -640 0
v -3120 -640 0
v -3280 -720 0
v -3360 -720 0
v -3360 -640 0
v -3280 -640 0
v -3440 -720 0
v -3440 -640 0
v -3520 -720 0
v -3600 -720 0
v -3600 -640 0
v -3520 -640 0
v -3680 -720 0
v -3680 -640 0
v -3760 -720 0
v -3840 -720 0
v -3760 -640 0
v -3920 -720 0
v -4000 -720 0
v -4080 -720 0
v 0 -800 0
v -80 -800 0
v -160 -800 0
v -240 -800 0
v -320 -800 0
v -400 -800 0
v -480 -800 0
v -560 -800 0
v -640 -800 0
v -720 -800 0
v -720 -720 0
v -800 -800 0
v -800 -720 0
v -880 -800 0
v -2160 -800 0
v -2240 -800 0
v -2240 -720 0
v -2320 -800 0
v -2320 -720 0
v -2400 -800 0
v -2400 -720 0
v -2480 -800 0
v -2560 -800 0
v -2640 -800 0
v -2720 -800 0
v -2800 -800 0
v -2880 -800 0
v -2960 -800 0
v -3040 -800 0
v -3120 -800 0
v -3200 -800 0
v -3280 -800 0
v -3360 -800 0
v -3440 -800 0
v -3520 -800 0
v -3600 -800 0
v -3680 -800 0
v -3760 -800 0

# Texture cooridinates (Count = 68)
vt 0.2501221 0.7501221
vt 0.3748779 0.7501221
vt 0.3748779 0.9998779
vt 0.2501221 0.9998779
vt 0.6251221 0.7501221
vt 0.7498779 0.7501221
vt 0.7498779 0.9998779
vt 0.6251221 0.9998779
vt 0.0001220703 0.2501221
vt 0.1248779 0.2501221
vt 0.1248779 0.4998779
vt 0.0001220703 0.4998779
vt 0.1251221 0.2501221
vt 0.2498779 0.2501221
vt 0.2498779 0.4998779
vt 0.1251221 0.4998779
vt 0.1251221 0.7501221
vt 0.2498779 0.7501221
vt 0.2498779 0.9998779
vt 0.1251221 0.9998779
vt 0.3751221 0.7501221
vt 0.4998779 0.7501221
vt 0.4998779 0.9998779
vt 0.3751221 0.9998779
vt 0.7501221 0.7501221
vt 0.8748779 0.7501221
vt 0.8748779 0.9998779
vt 0.7501221 0.9998779
vt 0.5001221 0.7501221
vt 0.6248779 0.7501221
vt 0.6248779 0.9998779
vt 0.5001221 0.9998779
vt 0.0001220703 0.0001220703
vt 0.1248779 0.0001220703
vt 0.1248779 0.2498779
vt 0.0001220703 0.2498779
vt 0.1251221 0.0001220703
vt 0.2498779 0.0001220703
vt 0.2498779 0.2498779
vt 0.1251221 0.2498779
vt 0.2501221 0.2501221
vt 0.3748779 0.2501221
vt 0.3748779 0.4998779
vt 0.2501221 0.4998779
vt 0.3751221 0.2501221
vt 0.4998779 0.2501221
vt 0.4998779 0.4998779
vt 0.3751221 0.4998779
vt 0.0001220703 0.7501221
vt 0.1248779 0.7501221
vt 0.1248779 0.9998779
vt 0.0001220703 0.9998779
vt 0.2501221 0.0001220703
vt 0.3748779 0.0001220703
vt 0.3748779 0.2498779
vt 0.2501221 0.2498779
vt 0.3751221 0.0001220703
vt 0.4998779 0.0001220703
vt 0.4998779 0.2498779
vt 0.3751221 0.2498779
vt 0.2501221 0.5001221
vt 0.3748779 0.5001221
vt 0.3748779 0.7498779
vt 0.2501221 0.7498779
vt 0.8751221 0.7501221
vt 0.9998779 0.7501221
vt 0.9998779 0.9998779
vt 0.8751221 0.9998779

# Normal
vn 0 0 -1

# Groups (Count = 1)

g mesh_0001
f 1/1/1 2/2/1 3/3/1 4/4/1
f 2/1/1 5/2/1 6/3/1 3/4/1
f 7/5/1 8/6/1 9/7/1 10/8/1
f 11/1/1 12/2/1 13/3/1 14/4/1
f 15/9/1 16/10/1 17/11/1 18/12/1
f 16/13/1 19/14/1 20/15/1 17/16/1
f 21/17/1 22/18/1 1/19/1 23/20/1
f 22/17/1 24/18/1 2/19/1 1/20/1
f 24/17/1 25/18/1 5/19/1 2/20/1
f 25/17/1 26/18/1 7/19/1 5/20/1
f 26/17/1 27/18/1 8/19/1 7/20/1
f 27/17/1 28/18/1 11/19/1 8/20/1
f 28/17/1 29/18/1 12/19/1 11/20/1
f 29/17/1 30/18/1 31/19/1 12/20/1
f 32/1/1 33/2/1 34/3/1 35/4/1
f 33/1/1 36/2/1 37/3/1 34/4/1
f 38/1/1 39/2/1 40/3/1 41/4/1
f 42/1/1 43/2/1 44/3/1 45/4/1
f 43/1/1 46/2/1 47/3/1 44/4/1
f 48/1/1 49/2/1 50/3/1 51/4/1
f 52/1/1 53/2/1 54/3/1 55/4/1
f 56/21/1 57/22/1 58/23/1 59/24/1
f 57/5/1 60/6/1 61/7/1 58/8/1
f 60/21/1 62/22/1 63/23/1 61/24/1
f 64/1/1 65/2/1 66/3/1 67/4/1
f 65/1/1 68/2/1 69/3/1 66/4/1
f 70/25/1 71/26/1 72/27/1 73/28/1
f 71/25/1 74/26/1 75/27/1 72/28/1
f 74/25/1 76/26/1 77/27/1 75/28/1
f 78/1/1 79/2/1 80/3/1 81/4/1
f 79/1/1 82/2/1 83/3/1 80/4/1
f 84/29/1 85/30/1 86/31/1 87/32/1
f 88/1/1 89/2/1 90/3/1 91/4/1
f 89/1/1 92/2/1 93/3/1 90/4/1
f 92/1/1 94/2/1 95/3/1 93/4/1
f 96/5/1 97/6/1 15/7/1 98/8/1
f 97/33/1 99/34/1 16/35/1 15/36/1
f 99/37/1 100/38/1 19/39/1 16/40/1
f 101/1/1 102/2/1 103/3/1 104/4/1
f 105/5/1 106/6/1 107/7/1 108/8/1
f 106/17/1 109/18/1 32/19/1 107/20/1
f 109/17/1 110/18/1 33/19/1 32/20/1
f 110/17/1 111/18/1 36/19/1 33/20/1
f 111/17/1 112/18/1 113/19/1 36/20/1
f 114/17/1 115/18/1 39/19/1 38/20/1
f 116/17/1 117/18/1 43/19/1 42/20/1
f 117/17/1 118/18/1 46/19/1 43/20/1
f 119/17/1 120/18/1 49/19/1 48/20/1
f 121/17/1 122/18/1 52/19/1 123/20/1
f 122/17/1 124/18/1 53/19/1 52/20/1
f 124/17/1 125/18/1 56/19/1 53/20/1
f 125/17/1 126/18/1 57/19/1 56/20/1
f 126/17/1 127/18/1 60/19/1 57/20/1
f 127/17/1 128/18/1 62/19/1 60/20/1
f 128/17/1 129/18/1 64/19/1 62/20/1
f 129/17/1 130/18/1 65/19/1 64/20/1
f 130/17/1 131/18/1 68/19/1 65/20/1
f 131/17/1 132/18/1 70/19/1 68/20/1
f 132/17/1 133/18/1 71/19/1 70/20/1
f 133/17/1 134/18/1 74/19/1 71/20/1
f 134/17/1 135/18/1 76/19/1 74/20/1
f 135/17/1 136/18/1 78/19/1 76/20/1
f 136/17/1 137/18/1 79/19/1 78/20/1
f 137/17/1 138/18/1 82/19/1 79/20/1
f 138/17/1 139/18/1 84/19/1 82/20/1
f 139/17/1 140/18/1 85/19/1 84/20/1
f 140/17/1 141/18/1 88/19/1 85/20/1
f 141/17/1 142/18/1 89/19/1 88/20/1
f 142/17/1 143/18/1 92/19/1 89/20/1
f 143/17/1 144/18/1 94/19/1 92/20/1
f 144/17/1 145/18/1 96/19/1 94/20/1
f 145/17/1 146/18/1 97/19/1 96/20/1
f 146/17/1 147/18/1 99/19/1 97/20/1
f 147/17/1 148/18/1 100/19/1 99/20/1
f 149/1/1 150/2/1 151/3/1 152/4/1
f 150/1/1 153/2/1 154/3/1 151/4/1
f 155/17/1 156/18/1 101/19/1 157/20/1
f 156/17/1 158/18/1 102/19/1 101/20/1
f 158/17/1 159/18/1 105/19/1 102/20/1
f 159/17/1 160/18/1 106/19/1 105/20/1
f 161/41/1 162/42/1 163/43/1 164/44/1
f 162/45/1 165/46/1 166/47/1 163/48/1
f 167/1/1 168/2/1 169/3/1 170/4/1
f 168/1/1 171/2/1 172/3/1 169/4/1
f 173/1/1 174/2/1 175/3/1 176/4/1
f 177/21/1 178/22/1 179/23/1 180/24/1
f 178/25/1 181/26/1 182/27/1 179/28/1
f 181/29/1 183/30/1 184/31/1 182/32/1
f 185/1/1 186/2/1 187/3/1 188/4/1
f 189/1/1 190/2/1 191/3/1 192/4/1
f 193/21/1 194/22/1 195/23/1 196/24/1
f 194/17/1 197/18/1 149/19/1 195/20/1
f 197/17/1 198/18/1 150/19/1 149/20/1
f 198/17/1 199/18/1 153/19/1 150/20/1
f 199/17/1 200/18/1 155/19/1 153/20/1
f 201/49/1 202/50/1 161/51/1 203/52/1
f 202/53/1 204/54/1 162/55/1 161/56/1
f 204/57/1 205/58/1 165/59/1 162/60/1
f 205/1/1 206/2/1 207/3/1 165/4/1
f 208/25/1 209/26/1 210/27/1 211/28/1
f 212/1/1 213/2/1 214/3/1 215/4/1
f 216/17/1 217/18/1 167/19/1 218/20/1
f 217/17/1 219/18/1 168/19/1 167/20/1
f 219/17/1 220/18/1 171/19/1 168/20/1
f 220/17/1 221/18/1 222/19/1 171/20/1
f 221/61/1 223/62/1 224/63/1 222/64/1
f 223/61/1 225/62/1 226/63/1 224/64/1
f 225/61/1 227/62/1 228/63/1 226/64/1
f 227/17/1 229/18/1 173/19/1 228/20/1
f 229/17/1 230/18/1 174/19/1 173/20/1
f 230/17/1 231/18/1 177/19/1 174/20/1
f 231/17/1 232/18/1 178/19/1 177/20/1
f 232/17/1 233/18/1 181/19/1 178/20/1
f 233/17/1 234/18/1 183/19/1 181/20/1
f 234/17/1 235/18/1 185/19/1 183/20/1
f 235/17/1 236/18/1 186/19/1 185/20/1
f 236/17/1 237/18/1 238/19/1 186/20/1
f 239/1/1 240/2/1 241/3/1 242/4/1
f 243/29/1 244/30/1 245/31/1 246/32/1
f 247/1/1 248/2/1 249/3/1 250/4/1
f 251/5/1 252/6/1 253/7/1 254/8/1
f 255/1/1 256/2/1 257/3/1 258/4/1
f 259/29/1 260/30/1 261/31/1 262/32/1
f 260/29/1 263/30/1 264/31/1 261/32/1
f 265/1/1 266/2/1 267/3/1 268/4/1
f 266/1/1 269/2/1 270/3/1 267/4/1
f 271/17/1 272/18/1 189/19/1 273/20/1
f 272/17/1 274/18/1 190/19/1 189/20/1
f 274/17/1 275/18/1 193/19/1 190/20/1
f 275/17/1 276/18/1 194/19/1 193/20/1
f 277/17/1 278/18/1 202/19/1 201/20/1
f 278/17/1 279/18/1 204/19/1 202/20/1
f 279/17/1 280/18/1 205/19/1 204/20/1
f 280/17/1 281/18/1 206/19/1 205/20/1
f 281/17/1 282/18/1 208/19/1 206/20/1
f 282/17/1 283/18/1 209/19/1 208/20/1
f 283/17/1 284/18/1 212/19/1 209/20/1
f 284/17/1 285/18/1 213/19/1 212/20/1
f 285/17/1 286/18/1 287/19/1 213/20/1
f 286/65/1 288/66/1 289/67/1 287/68/1
f 288/17/1 290/18/1 216/19/1 289/20/1
f 291/61/1 292/62/1 293/63/1 237/64/1
f 292/61/1 294/62/1 295/63/1 293/64/1
f 294/61/1 296/62/1 297/63/1 295/64/1
f 296/17/1 298/18/1 239/19/1 297/20/1
f 298/17/1 299/18/1 240/19/1 239/20/1
f 299/17/1 300/18/1 243/19/1 240/20/1
f 300/17/1 301/18/1 244/19/1 243/20/1
f 301/17/1 302/18/1 247/19/1 244/20/1
f 302/17/1 303/18/1 248/19/1 247/20/1
f 303/17/1 304/18/1 251/19/1 248/20/1
f 304/17/1 305/18/1 252/19/1 251/20/1
f 305/17/1 306/18/1 255/19/1 252/20/1
f 306/17/1 307/18/1 256/19/1 255/20/1
f 307/17/1 308/18/1 259/19/1 256/20/1
f 308/17/1 309/18/1 260/19/1 259/20/1
f 309/17/1 310/18/1 263/19/1 260/20/1
f 310/17/1 311/18/1 265/19/1 263/20/1
f 311/17/1 312/18/1 266/19/1 265/20/1
f 312/17/1 313/18/1 269/19/1 266/20/1
f 313/17/1 314/18/1 271/19/1 269/20/1

