# Wavefront OBJ file automatically generated by Tiled2Unity

# Vertices (Count = 595)
v -9360 -240 0
v -9440 -240 0
v -9440 -160 0
v -9360 -160 0
v -9520 -240 0
v -9520 -160 0
v -800 -320 0
v -880 -320 0
v -880 -240 0
v -800 -240 0
v -960 -320 0
v -960 -240 0
v -1040 -320 0
v -1120 -320 0
v -1120 -240 0
v -1040 -240 0
v -1200 -320 0
v -1200 -240 0
v -1280 -320 0
v -1360 -320 0
v -1360 -240 0
v -1280 -240 0
v -1440 -320 0
v -1440 -240 0
v -1760 -320 0
v -1840 -320 0
v -1840 -240 0
v -1760 -240 0
v -1920 -320 0
v -1920 -240 0
v -2160 -320 0
v -2240 -320 0
v -2240 -240 0
v -2160 -240 0
v -2320 -320 0
v -2320 -240 0
v -2640 -320 0
v -2720 -320 0
v -2720 -240 0
v -2640 -240 0
v -2800 -320 0
v -2800 -240 0
v -2880 -320 0
v -2880 -240 0
v -2960 -320 0
v -3040 -320 0
v -3040 -240 0
v -2960 -240 0
v -3120 -320 0
v -3120 -240 0
v -3200 -320 0
v -3280 -320 0
v -3280 -240 0
v -3200 -240 0
v -3360 -320 0
v -3360 -240 0
v -3680 -320 0
v -3760 -320 0
v -3760 -240 0
v -3680 -240 0
v -3840 -320 0
v -3840 -240 0
v -4000 -320 0
v -4080 -320 0
v -4080 -240 0
v -4000 -240 0
v -4160 -320 0
v -4160 -240 0
v -4480 -320 0
v -4560 -320 0
v -4560 -240 0
v -4480 -240 0
v -4640 -320 0
v -4720 -320 0
v -4720 -240 0
v -4640 -240 0
v -4800 -320 0
v -4800 -240 0
v -4880 -320 0
v -4960 -320 0
v -4960 -240 0
v -4880 -240 0
v -5040 -320 0
v -5040 -240 0
v -5120 -320 0
v -5120 -240 0
v -5200 -320 0
v -5280 -320 0
v -5280 -240 0
v -5200 -240 0
v -5360 -320 0
v -5360 -240 0
v -5440 -320 0
v -5520 -320 0
v -5520 -240 0
v -5440 -240 0
v -5600 -320 0
v -5600 -240 0
v -5680 -320 0
v -5760 -320 0
v -5760 -240 0
v -5680 -240 0
v -5840 -320 0
v -5840 -240 0
v -5920 -320 0
v -6000 -320 0
v -6000 -240 0
v -5920 -240 0
v -6080 -320 0
v -6080 -240 0
v -6480 -320 0
v -6560 -320 0
v -6560 -240 0
v -6480 -240 0
v -7040 -320 0
v -7120 -320 0
v -7120 -240 0
v -7040 -240 0
v -7520 -320 0
v -7600 -320 0
v -7600 -240 0
v -7520 -240 0
v -7680 -320 0
v -7760 -320 0
v -7760 -240 0
v -7680 -240 0
v -7840 -320 0
v -7920 -320 0
v -7920 -240 0
v -7840 -240 0
v -8000 -320 0
v -8080 -320 0
v -8080 -240 0
v -8000 -240 0
v -8160 -320 0
v -8240 -320 0
v -8240 -240 0
v -8160 -240 0
v -8320 -320 0
v -8320 -240 0
v -8400 -320 0
v -8480 -320 0
v -8480 -240 0
v -8400 -240 0
v -8560 -320 0
v -8640 -320 0
v -8640 -240 0
v -8560 -240 0
v -8720 -320 0
v -8720 -240 0
v -8800 -320 0
v -8880 -320 0
v -8880 -240 0
v -8800 -240 0
v -8960 -320 0
v -8960 -240 0
v -9040 -320 0
v -9120 -320 0
v -9120 -240 0
v -9040 -240 0
v -9200 -320 0
v -9200 -240 0
v -9280 -320 0
v -9280 -240 0
v -9360 -320 0
v -9440 -320 0
v -9520 -320 0
v -9600 -320 0
v -9600 -240 0
v -720 -400 0
v -800 -400 0
v -720 -320 0
v -880 -400 0
v -960 -400 0
v -1040 -400 0
v -1120 -400 0
v -1200 -400 0
v -1280 -400 0
v -1360 -400 0
v -1440 -400 0
v -1520 -400 0
v -1520 -320 0
v -1680 -400 0
v -1760 -400 0
v -1680 -320 0
v -1840 -400 0
v -1920 -400 0
v -2000 -400 0
v -2000 -320 0
v -2080 -400 0
v -2160 -400 0
v -2080 -320 0
v -2240 -400 0
v -2320 -400 0
v -2400 -400 0
v -2400 -320 0
v -2560 -400 0
v -2640 -400 0
v -2560 -320 0
v -2720 -400 0
v -2800 -400 0
v -2880 -400 0
v -2960 -400 0
v -3040 -400 0
v -3120 -400 0
v -3200 -400 0
v -3280 -400 0
v -3360 -400 0
v -3440 -400 0
v -3440 -320 0
v -3680 -400 0
v -3760 -400 0
v -3840 -400 0
v -4000 -400 0
v -4080 -400 0
v -4160 -400 0
v -4400 -400 0
v -4480 -400 0
v -4400 -320 0
v -4560 -400 0
v -4640 -400 0
v -4720 -400 0
v -4800 -400 0
v -4880 -400 0
v -4960 -400 0
v -5040 -400 0
v -5120 -400 0
v -5200 -400 0
v -5280 -400 0
v -5360 -400 0
v -5440 -400 0
v -5520 -400 0
v -5600 -400 0
v -5680 -400 0
v -5760 -400 0
v -5840 -400 0
v -5920 -400 0
v -6000 -400 0
v -6080 -400 0
v -6160 -400 0
v -6160 -320 0
v -6400 -400 0
v -6480 -400 0
v -6400 -320 0
v -6560 -400 0
v -6640 -400 0
v -6640 -320 0
v -6720 -400 0
v -6720 -320 0
v -6800 -400 0
v -6800 -320 0
v -6880 -400 0
v -6880 -320 0
v -6960 -400 0
v -6960 -320 0
v -7040 -400 0
v -7120 -400 0
v -7200 -400 0
v -7200 -320 0
v -7440 -400 0
v -7520 -400 0
v -7440 -320 0
v -7600 -400 0
v -7680 -400 0
v -7760 -400 0
v -7840 -400 0
v -7920 -400 0
v -8000 -400 0
v -8080 -400 0
v -8160 -400 0
v -8240 -400 0
v -8320 -400 0
v -8400 -400 0
v -8480 -400 0
v -8560 -400 0
v -8640 -400 0
v -8720 -400 0
v -8800 -400 0
v -8880 -400 0
v -8960 -400 0
v -9040 -400 0
v -9120 -400 0
v -9200 -400 0
v -9280 -400 0
v -9360 -400 0
v -9440 -400 0
v -9520 -400 0
v -9600 -400 0
v 0 -640 0
v -80 -640 0
v -80 -560 0
v 0 -560 0
v -160 -640 0
v -160 -560 0
v -1040 -640 0
v -1120 -640 0
v -1120 -560 0
v -1040 -560 0
v -8000 -640 0
v -8080 -640 0
v -8080 -560 0
v -8000 -560 0
v 0 -720 0
v -80 -720 0
v -160 -720 0
v -240 -720 0
v -320 -720 0
v -320 -640 0
v -240 -640 0
v -400 -720 0
v -400 -640 0
v -480 -720 0
v -480 -640 0
v -560 -720 0
v -560 -640 0
v -640 -720 0
v -720 -720 0
v -720 -640 0
v -640 -640 0
v -800 -720 0
v -800 -640 0
v -880 -720 0
v -960 -720 0
v -960 -640 0
v -880 -640 0
v -1040 -720 0
v -1120 -720 0
v -1280 -720 0
v -1360 -720 0
v -1360 -640 0
v -1280 -640 0
v -1440 -720 0
v -1440 -640 0
v -1520 -720 0
v -1520 -640 0
v -1600 -720 0
v -1600 -640 0
v -1680 -720 0
v -1680 -640 0
v -1760 -720 0
v -1760 -640 0
v -2000 -720 0
v -2080 -720 0
v -2080 -640 0
v -2000 -640 0
v -2160 -720 0
v -2160 -640 0
v -2240 -720 0
v -2240 -640 0
v -2320 -720 0
v -2320 -640 0
v -2400 -720 0
v -2400 -640 0
v -2560 -720 0
v -2640 -720 0
v -2640 -640 0
v -2560 -640 0
v -2720 -720 0
v -2720 -640 0
v -2800 -720 0
v -2800 -640 0
v -2880 -720 0
v -2880 -640 0
v -2960 -720 0
v -2960 -640 0
v -3040 -720 0
v -3040 -640 0
v -3840 -720 0
v -3920 -720 0
v -3920 -640 0
v -3840 -640 0
v -4000 -720 0
v -4000 -640 0
v -4080 -720 0
v -4080 -640 0
v -4160 -720 0
v -4160 -640 0
v -4240 -720 0
v -4240 -640 0
v -4320 -720 0
v -4320 -640 0
v -4960 -720 0
v -5040 -720 0
v -5040 -640 0
v -4960 -640 0
v -5120 -720 0
v -5120 -640 0
v -5200 -720 0
v -5200 -640 0
v -5280 -720 0
v -5280 -640 0
v -5840 -720 0
v -5920 -720 0
v -5920 -640 0
v -5840 -640 0
v -6000 -720 0
v -6000 -640 0
v -6080 -720 0
v -6080 -640 0
v -6160 -720 0
v -6160 -640 0
v -6800 -720 0
v -6880 -720 0
v -6880 -640 0
v -6800 -640 0
v -6960 -720 0
v -6960 -640 0
v -7040 -720 0
v -7040 -640 0
v -7200 -720 0
v -7280 -720 0
v -7280 -640 0
v -7200 -640 0
v -7360 -720 0
v -7360 -640 0
v -7440 -720 0
v -7440 -640 0
v -7520 -720 0
v -7520 -640 0
v -7600 -720 0
v -7600 -640 0
v -7680 -720 0
v -7760 -720 0
v -7760 -640 0
v -7680 -640 0
v -7840 -720 0
v -7840 -640 0
v -7920 -720 0
v -7920 -640 0
v -8000 -720 0
v -8080 -720 0
v -8160 -720 0
v -8240 -720 0
v -8240 -640 0
v -8160 -640 0
v -8320 -720 0
v -8400 -720 0
v -8400 -640 0
v -8320 -640 0
v -8480 -720 0
v -8480 -640 0
v -8560 -720 0
v -8640 -720 0
v -8640 -640 0
v -8560 -640 0
v -9040 -720 0
v -9120 -720 0
v -9120 -640 0
v -9040 -640 0
v -9200 -720 0
v -9200 -640 0
v -9280 -720 0
v -9280 -640 0
v -9360 -720 0
v -9360 -640 0
v -9440 -720 0
v -9440 -640 0
v -9520 -720 0
v -9520 -640 0
v 0 -800 0
v -80 -800 0
v -160 -800 0
v -240 -800 0
v -320 -800 0
v -400 -800 0
v -480 -800 0
v -560 -800 0
v -640 -800 0
v -720 -800 0
v -800 -800 0
v -880 -800 0
v -960 -800 0
v -1040 -800 0
v -1120 -800 0
v -1200 -800 0
v -1200 -720 0
v -1280 -800 0
v -1360 -800 0
v -1440 -800 0
v -1520 -800 0
v -1600 -800 0
v -1680 -800 0
v -1760 -800 0
v -1840 -800 0
v -1840 -720 0
v -1920 -800 0
v -1920 -720 0
v -2000 -800 0
v -2080 -800 0
v -2160 -800 0
v -2240 -800 0
v -2320 -800 0
v -2400 -800 0
v -2480 -800 0
v -2480 -720 0
v -2560 -800 0
v -2640 -800 0
v -2720 -800 0
v -2800 -800 0
v -2880 -800 0
v -2960 -800 0
v -3040 -800 0
v -3120 -800 0
v -3120 -720 0
v -3200 -800 0
v -3200 -720 0
v -3280 -800 0
v -3280 -720 0
v -3360 -800 0
v -3360 -720 0
v -3440 -800 0
v -3440 -720 0
v -3520 -800 0
v -3520 -720 0
v -3600 -800 0
v -3600 -720 0
v -3680 -800 0
v -3680 -720 0
v -3760 -800 0
v -3760 -720 0
v -3840 -800 0
v -3920 -800 0
v -4000 -800 0
v -4080 -800 0
v -4160 -800 0
v -4240 -800 0
v -4320 -800 0
v -4400 -800 0
v -4400 -720 0
v -4480 -800 0
v -4480 -720 0
v -4880 -800 0
v -4960 -800 0
v -4880 -720 0
v -5040 -800 0
v -5120 -800 0
v -5200 -800 0
v -5280 -800 0
v -5360 -800 0
v -5360 -720 0
v -5760 -800 0
v -5840 -800 0
v -5760 -720 0
v -5920 -800 0
v -6000 -800 0
v -6080 -800 0
v -6160 -800 0
v -6240 -800 0
v -6240 -720 0
v -6640 -800 0
v -6720 -800 0
v -6720 -720 0
v -6640 -720 0
v -6800 -800 0
v -6880 -800 0
v -6960 -800 0
v -7040 -800 0
v -7120 -800 0
v -7120 -720 0
v -7200 -800 0
v -7280 -800 0
v -7360 -800 0
v -7440 -800 0
v -7520 -800 0
v -7600 -800 0
v -7680 -800 0
v -7760 -800 0
v -7840 -800 0
v -7920 -800 0
v -8000 -800 0
v -8080 -800 0
v -8160 -800 0
v -8240 -800 0
v -8320 -800 0
v -8400 -800 0
v -8480 -800 0
v -8560 -800 0
v -8640 -800 0
v -8720 -800 0
v -8720 -720 0
v -8800 -800 0
v -8800 -720 0
v -8880 -800 0
v -8880 -720 0
v -8960 -800 0
v -8960 -720 0
v -9040 -800 0
v -9120 -800 0
v -9200 -800 0
v -9280 -800 0
v -9360 -800 0
v -9440 -800 0
v -9520 -800 0
v -9600 -800 0
v -9600 -720 0

# Texture cooridinates (Count = 80)
vt 0.0001220703 0.2501221
vt 0.1248779 0.2501221
vt 0.1248779 0.4998779
vt 0.0001220703 0.4998779
vt 0.1251221 0.2501221
vt 0.2498779 0.2501221
vt 0.2498779 0.4998779
vt 0.1251221 0.4998779
vt 0.2501221 0.7501221
vt 0.3748779 0.7501221
vt 0.3748779 0.9998779
vt 0.2501221 0.9998779
vt 0.6251221 0.7501221
vt 0.7498779 0.7501221
vt 0.7498779 0.9998779
vt 0.6251221 0.9998779
vt 0.3751221 0.7501221
vt 0.4998779 0.7501221
vt 0.4998779 0.9998779
vt 0.3751221 0.9998779
vt 0.7501221 0.7501221
vt 0.8748779 0.7501221
vt 0.8748779 0.9998779
vt 0.7501221 0.9998779
vt 0.5001221 0.7501221
vt 0.6248779 0.7501221
vt 0.6248779 0.9998779
vt 0.5001221 0.9998779
vt 0.0001220703 0.0001220703
vt 0.1248779 0.0001220703
vt 0.1248779 0.2498779
vt 0.0001220703 0.2498779
vt 0.1251221 0.0001220703
vt 0.2498779 0.0001220703
vt 0.2498779 0.2498779
vt 0.1251221 0.2498779
vt 0.0001220703 0.7501221
vt 0.1248779 0.7501221
vt 0.1248779 0.9998779
vt 0.0001220703 0.9998779
vt 0.1251221 0.7501221
vt 0.2498779 0.7501221
vt 0.2498779 0.9998779
vt 0.1251221 0.9998779
vt 0.2501221 0.5001221
vt 0.3748779 0.5001221
vt 0.3748779 0.7498779
vt 0.2501221 0.7498779
vt 0.2501221 0.2501221
vt 0.3748779 0.2501221
vt 0.3748779 0.4998779
vt 0.2501221 0.4998779
vt 0.3751221 0.2501221
vt 0.4998779 0.2501221
vt 0.4998779 0.4998779
vt 0.3751221 0.4998779
vt 0.6251221 0.2501221
vt 0.7498779 0.2501221
vt 0.7498779 0.4998779
vt 0.6251221 0.4998779
vt 0.5001221 0.2501221
vt 0.6248779 0.2501221
vt 0.6248779 0.4998779
vt 0.5001221 0.4998779
vt 0.2501221 0.0001220703
vt 0.3748779 0.0001220703
vt 0.3748779 0.2498779
vt 0.2501221 0.2498779
vt 0.3751221 0.0001220703
vt 0.4998779 0.0001220703
vt 0.4998779 0.2498779
vt 0.3751221 0.2498779
vt 0.6251221 0.0001220703
vt 0.7498779 0.0001220703
vt 0.7498779 0.2498779
vt 0.6251221 0.2498779
vt 0.5001221 0.0001220703
vt 0.6248779 0.0001220703
vt 0.6248779 0.2498779
vt 0.5001221 0.2498779

# Normal
vn 0 0 -1

# Groups (Count = 1)

g mesh_0001
f 1/1/1 2/2/1 3/3/1 4/4/1
f 2/5/1 5/6/1 6/7/1 3/8/1
f 7/9/1 8/10/1 9/11/1 10/12/1
f 8/9/1 11/10/1 12/11/1 9/12/1
f 13/13/1 14/14/1 15/15/1 16/16/1
f 14/13/1 17/14/1 18/15/1 15/16/1
f 19/9/1 20/10/1 21/11/1 22/12/1
f 20/9/1 23/10/1 24/11/1 21/12/1
f 25/9/1 26/10/1 27/11/1 28/12/1
f 26/9/1 29/10/1 30/11/1 27/12/1
f 31/9/1 32/10/1 33/11/1 34/12/1
f 32/9/1 35/10/1 36/11/1 33/12/1
f 37/9/1 38/10/1 39/11/1 40/12/1
f 38/9/1 41/10/1 42/11/1 39/12/1
f 41/9/1 43/10/1 44/11/1 42/12/1
f 45/17/1 46/18/1 47/19/1 48/20/1
f 46/17/1 49/18/1 50/19/1 47/20/1
f 51/9/1 52/10/1 53/11/1 54/12/1
f 52/9/1 55/10/1 56/11/1 53/12/1
f 57/9/1 58/10/1 59/11/1 60/12/1
f 58/9/1 61/10/1 62/11/1 59/12/1
f 63/9/1 64/10/1 65/11/1 66/12/1
f 64/9/1 67/10/1 68/11/1 65/12/1
f 69/9/1 70/10/1 71/11/1 72/12/1
f 73/21/1 74/22/1 75/23/1 76/24/1
f 74/21/1 77/22/1 78/23/1 75/24/1
f 79/9/1 80/10/1 81/11/1 82/12/1
f 80/9/1 83/10/1 84/11/1 81/12/1
f 83/9/1 85/10/1 86/11/1 84/12/1
f 87/13/1 88/14/1 89/15/1 90/16/1
f 88/13/1 91/14/1 92/15/1 89/16/1
f 93/9/1 94/10/1 95/11/1 96/12/1
f 94/9/1 97/10/1 98/11/1 95/12/1
f 99/17/1 100/18/1 101/19/1 102/20/1
f 100/25/1 103/26/1 104/27/1 101/28/1
f 105/9/1 106/10/1 107/11/1 108/12/1
f 106/9/1 109/10/1 110/11/1 107/12/1
f 111/9/1 112/10/1 113/11/1 114/12/1
f 115/9/1 116/10/1 117/11/1 118/12/1
f 119/9/1 120/10/1 121/11/1 122/12/1
f 123/13/1 124/14/1 125/15/1 126/16/1
f 127/9/1 128/10/1 129/11/1 130/12/1
f 131/13/1 132/14/1 133/15/1 134/16/1
f 135/9/1 136/10/1 137/11/1 138/12/1
f 136/9/1 139/10/1 140/11/1 137/12/1
f 141/21/1 142/22/1 143/23/1 144/24/1
f 145/9/1 146/10/1 147/11/1 148/12/1
f 146/9/1 149/10/1 150/11/1 147/12/1
f 151/13/1 152/14/1 153/15/1 154/16/1
f 152/13/1 155/14/1 156/15/1 153/16/1
f 157/9/1 158/10/1 159/11/1 160/12/1
f 158/9/1 161/10/1 162/11/1 159/12/1
f 161/9/1 163/10/1 164/11/1 162/12/1
f 163/9/1 165/10/1 1/11/1 164/12/1
f 165/29/1 166/30/1 2/31/1 1/32/1
f 166/33/1 167/34/1 5/35/1 2/36/1
f 167/37/1 168/38/1 169/39/1 5/40/1
f 170/41/1 171/42/1 7/43/1 172/44/1
f 171/41/1 173/42/1 8/43/1 7/44/1
f 173/41/1 174/42/1 11/43/1 8/44/1
f 174/41/1 175/42/1 13/43/1 11/44/1
f 175/41/1 176/42/1 14/43/1 13/44/1
f 176/41/1 177/42/1 17/43/1 14/44/1
f 177/41/1 178/42/1 19/43/1 17/44/1
f 178/41/1 179/42/1 20/43/1 19/44/1
f 179/41/1 180/42/1 23/43/1 20/44/1
f 180/41/1 181/42/1 182/43/1 23/44/1
f 183/45/1 184/46/1 25/47/1 185/48/1
f 184/41/1 186/42/1 26/43/1 25/44/1
f 186/41/1 187/42/1 29/43/1 26/44/1
f 187/45/1 188/46/1 189/47/1 29/48/1
f 190/45/1 191/46/1 31/47/1 192/48/1
f 191/41/1 193/42/1 32/43/1 31/44/1
f 193/41/1 194/42/1 35/43/1 32/44/1
f 194/45/1 195/46/1 196/47/1 35/48/1
f 197/41/1 198/42/1 37/43/1 199/44/1
f 198/41/1 200/42/1 38/43/1 37/44/1
f 200/41/1 201/42/1 41/43/1 38/44/1
f 201/41/1 202/42/1 43/43/1 41/44/1
f 202/41/1 203/42/1 45/43/1 43/44/1
f 203/41/1 204/42/1 46/43/1 45/44/1
f 204/41/1 205/42/1 49/43/1 46/44/1
f 205/41/1 206/42/1 51/43/1 49/44/1
f 206/41/1 207/42/1 52/43/1 51/44/1
f 207/41/1 208/42/1 55/43/1 52/44/1
f 208/41/1 209/42/1 210/43/1 55/44/1
f 211/41/1 212/42/1 58/43/1 57/44/1
f 212/41/1 213/42/1 61/43/1 58/44/1
f 214/41/1 215/42/1 64/43/1 63/44/1
f 215/41/1 216/42/1 67/43/1 64/44/1
f 217/41/1 218/42/1 69/43/1 219/44/1
f 218/41/1 220/42/1 70/43/1 69/44/1
f 220/41/1 221/42/1 73/43/1 70/44/1
f 221/41/1 222/42/1 74/43/1 73/44/1
f 222/41/1 223/42/1 77/43/1 74/44/1
f 223/41/1 224/42/1 79/43/1 77/44/1
f 224/41/1 225/42/1 80/43/1 79/44/1
f 225/41/1 226/42/1 83/43/1 80/44/1
f 226/41/1 227/42/1 85/43/1 83/44/1
f 227/41/1 228/42/1 87/43/1 85/44/1
f 228/41/1 229/42/1 88/43/1 87/44/1
f 229/41/1 230/42/1 91/43/1 88/44/1
f 230/41/1 231/42/1 93/43/1 91/44/1
f 231/41/1 232/42/1 94/43/1 93/44/1
f 232/41/1 233/42/1 97/43/1 94/44/1
f 233/41/1 234/42/1 99/43/1 97/44/1
f 234/41/1 235/42/1 100/43/1 99/44/1
f 235/41/1 236/42/1 103/43/1 100/44/1
f 236/41/1 237/42/1 105/43/1 103/44/1
f 237/41/1 238/42/1 106/43/1 105/44/1
f 238/41/1 239/42/1 109/43/1 106/44/1
f 239/41/1 240/42/1 241/43/1 109/44/1
f 242/41/1 243/42/1 111/43/1 244/44/1
f 243/41/1 245/42/1 112/43/1 111/44/1
f 245/41/1 246/42/1 247/43/1 112/44/1
f 246/45/1 248/46/1 249/47/1 247/48/1
f 248/45/1 250/46/1 251/47/1 249/48/1
f 250/45/1 252/46/1 253/47/1 251/48/1
f 252/45/1 254/46/1 255/47/1 253/48/1
f 254/41/1 256/42/1 115/43/1 255/44/1
f 256/41/1 257/42/1 116/43/1 115/44/1
f 257/41/1 258/42/1 259/43/1 116/44/1
f 260/41/1 261/42/1 119/43/1 262/44/1
f 261/41/1 263/42/1 120/43/1 119/44/1
f 263/41/1 264/42/1 123/43/1 120/44/1
f 264/41/1 265/42/1 124/43/1 123/44/1
f 265/41/1 266/42/1 127/43/1 124/44/1
f 266/41/1 267/42/1 128/43/1 127/44/1
f 267/41/1 268/42/1 131/43/1 128/44/1
f 268/41/1 269/42/1 132/43/1 131/44/1
f 269/41/1 270/42/1 135/43/1 132/44/1
f 270/41/1 271/42/1 136/43/1 135/44/1
f 271/41/1 272/42/1 139/43/1 136/44/1
f 272/41/1 273/42/1 141/43/1 139/44/1
f 273/41/1 274/42/1 142/43/1 141/44/1
f 274/41/1 275/42/1 145/43/1 142/44/1
f 275/41/1 276/42/1 146/43/1 145/44/1
f 276/41/1 277/42/1 149/43/1 146/44/1
f 277/41/1 278/42/1 151/43/1 149/44/1
f 278/41/1 279/42/1 152/43/1 151/44/1
f 279/41/1 280/42/1 155/43/1 152/44/1
f 280/41/1 281/42/1 157/43/1 155/44/1
f 281/41/1 282/42/1 158/43/1 157/44/1
f 282/41/1 283/42/1 161/43/1 158/44/1
f 283/41/1 284/42/1 163/43/1 161/44/1
f 284/41/1 285/42/1 165/43/1 163/44/1
f 285/41/1 286/42/1 166/43/1 165/44/1
f 286/41/1 287/42/1 167/43/1 166/44/1
f 287/41/1 288/42/1 168/43/1 167/44/1
f 289/49/1 290/50/1 291/51/1 292/52/1
f 290/53/1 293/54/1 294/55/1 291/56/1
f 295/57/1 296/58/1 297/59/1 298/60/1
f 299/61/1 300/62/1 301/63/1 302/64/1
f 303/65/1 304/66/1 290/67/1 289/68/1
f 304/69/1 305/70/1 293/71/1 290/72/1
f 306/9/1 307/10/1 308/11/1 309/12/1
f 307/9/1 310/10/1 311/11/1 308/12/1
f 310/9/1 312/10/1 313/11/1 311/12/1
f 312/9/1 314/10/1 315/11/1 313/12/1
f 316/17/1 317/18/1 318/19/1 319/20/1
f 317/17/1 320/18/1 321/19/1 318/20/1
f 322/9/1 323/10/1 324/11/1 325/12/1
f 323/9/1 326/10/1 295/11/1 324/12/1
f 326/73/1 327/74/1 296/75/1 295/76/1
f 328/9/1 329/10/1 330/11/1 331/12/1
f 329/9/1 332/10/1 333/11/1 330/12/1
f 332/9/1 334/10/1 335/11/1 333/12/1
f 334/9/1 336/10/1 337/11/1 335/12/1
f 336/9/1 338/10/1 339/11/1 337/12/1
f 338/9/1 340/10/1 341/11/1 339/12/1
f 342/25/1 343/26/1 344/27/1 345/28/1
f 343/13/1 346/14/1 347/15/1 344/16/1
f 346/25/1 348/26/1 349/27/1 347/28/1
f 348/13/1 350/14/1 351/15/1 349/16/1
f 350/25/1 352/26/1 353/27/1 351/28/1
f 354/9/1 355/10/1 356/11/1 357/12/1
f 355/9/1 358/10/1 359/11/1 356/12/1
f 358/9/1 360/10/1 361/11/1 359/12/1
f 360/9/1 362/10/1 363/11/1 361/12/1
f 362/9/1 364/10/1 365/11/1 363/12/1
f 364/9/1 366/10/1 367/11/1 365/12/1
f 368/9/1 369/10/1 370/11/1 371/12/1
f 369/9/1 372/10/1 373/11/1 370/12/1
f 372/9/1 374/10/1 375/11/1 373/12/1
f 374/9/1 376/10/1 377/11/1 375/12/1
f 376/9/1 378/10/1 379/11/1 377/12/1
f 378/9/1 380/10/1 381/11/1 379/12/1
f 382/9/1 383/10/1 384/11/1 385/12/1
f 383/9/1 386/10/1 387/11/1 384/12/1
f 386/9/1 388/10/1 389/11/1 387/12/1
f 388/9/1 390/10/1 391/11/1 389/12/1
f 392/9/1 393/10/1 394/11/1 395/12/1
f 393/9/1 396/10/1 397/11/1 394/12/1
f 396/9/1 398/10/1 399/11/1 397/12/1
f 398/9/1 400/10/1 401/11/1 399/12/1
f 402/9/1 403/10/1 404/11/1 405/12/1
f 403/9/1 406/10/1 407/11/1 404/12/1
f 406/9/1 408/10/1 409/11/1 407/12/1
f 410/21/1 411/22/1 412/23/1 413/24/1
f 411/21/1 414/22/1 415/23/1 412/24/1
f 414/21/1 416/22/1 417/23/1 415/24/1
f 416/21/1 418/22/1 419/23/1 417/24/1
f 418/21/1 420/22/1 421/23/1 419/24/1
f 422/9/1 423/10/1 424/11/1 425/12/1
f 423/9/1 426/10/1 427/11/1 424/12/1
f 426/9/1 428/10/1 429/11/1 427/12/1
f 428/9/1 430/10/1 299/11/1 429/12/1
f 430/77/1 431/78/1 300/79/1 299/80/1
f 432/9/1 433/10/1 434/11/1 435/12/1
f 436/17/1 437/18/1 438/19/1 439/20/1
f 437/25/1 440/26/1 441/27/1 438/28/1
f 442/9/1 443/10/1 444/11/1 445/12/1
f 446/9/1 447/10/1 448/11/1 449/12/1
f 447/9/1 450/10/1 451/11/1 448/12/1
f 450/9/1 452/10/1 453/11/1 451/12/1
f 452/9/1 454/10/1 455/11/1 453/12/1
f 454/9/1 456/10/1 457/11/1 455/12/1
f 456/9/1 458/10/1 459/11/1 457/12/1
f 460/41/1 461/42/1 304/43/1 303/44/1
f 461/41/1 462/42/1 305/43/1 304/44/1
f 462/41/1 463/42/1 306/43/1 305/44/1
f 463/41/1 464/42/1 307/43/1 306/44/1
f 464/41/1 465/42/1 310/43/1 307/44/1
f 465/41/1 466/42/1 312/43/1 310/44/1
f 466/41/1 467/42/1 314/43/1 312/44/1
f 467/41/1 468/42/1 316/43/1 314/44/1
f 468/41/1 469/42/1 317/43/1 316/44/1
f 469/41/1 470/42/1 320/43/1 317/44/1
f 470/41/1 471/42/1 322/43/1 320/44/1
f 471/41/1 472/42/1 323/43/1 322/44/1
f 472/41/1 473/42/1 326/43/1 323/44/1
f 473/41/1 474/42/1 327/43/1 326/44/1
f 474/41/1 475/42/1 476/43/1 327/44/1
f 475/41/1 477/42/1 328/43/1 476/44/1
f 477/41/1 478/42/1 329/43/1 328/44/1
f 478/41/1 479/42/1 332/43/1 329/44/1
f 479/41/1 480/42/1 334/43/1 332/44/1
f 480/41/1 481/42/1 336/43/1 334/44/1
f 481/41/1 482/42/1 338/43/1 336/44/1
f 482/41/1 483/42/1 340/43/1 338/44/1
f 483/41/1 484/42/1 485/43/1 340/44/1
f 484/41/1 486/42/1 487/43/1 485/44/1
f 486/41/1 488/42/1 342/43/1 487/44/1
f 488/41/1 489/42/1 343/43/1 342/44/1
f 489/41/1 490/42/1 346/43/1 343/44/1
f 490/41/1 491/42/1 348/43/1 346/44/1
f 491/41/1 492/42/1 350/43/1 348/44/1
f 492/41/1 493/42/1 352/43/1 350/44/1
f 493/41/1 494/42/1 495/43/1 352/44/1
f 494/41/1 496/42/1 354/43/1 495/44/1
f 496/41/1 497/42/1 355/43/1 354/44/1
f 497/41/1 498/42/1 358/43/1 355/44/1
f 498/41/1 499/42/1 360/43/1 358/44/1
f 499/41/1 500/42/1 362/43/1 360/44/1
f 500/41/1 501/42/1 364/43/1 362/44/1
f 501/41/1 502/42/1 366/43/1 364/44/1
f 502/41/1 503/42/1 504/43/1 366/44/1
f 503/41/1 505/42/1 506/43/1 504/44/1
f 505/45/1 507/46/1 508/47/1 506/48/1
f 507/45/1 509/46/1 510/47/1 508/48/1
f 509/45/1 511/46/1 512/47/1 510/48/1
f 511/45/1 513/46/1 514/47/1 512/48/1
f 513/45/1 515/46/1 516/47/1 514/48/1
f 515/45/1 517/46/1 518/47/1 516/48/1
f 517/41/1 519/42/1 520/43/1 518/44/1
f 519/41/1 521/42/1 368/43/1 520/44/1
f 521/41/1 522/42/1 369/43/1 368/44/1
f 522/41/1 523/42/1 372/43/1 369/44/1
f 523/41/1 524/42/1 374/43/1 372/44/1
f 524/41/1 525/42/1 376/43/1 374/44/1
f 525/41/1 526/42/1 378/43/1 376/44/1
f 526/41/1 527/42/1 380/43/1 378/44/1
f 527/41/1 528/42/1 529/43/1 380/44/1
f 528/41/1 530/42/1 531/43/1 529/44/1
f 532/41/1 533/42/1 382/43/1 534/44/1
f 533/41/1 535/42/1 383/43/1 382/44/1
f 535/41/1 536/42/1 386/43/1 383/44/1
f 536/41/1 537/42/1 388/43/1 386/44/1
f 537/41/1 538/42/1 390/43/1 388/44/1
f 538/41/1 539/42/1 540/43/1 390/44/1
f 541/41/1 542/42/1 392/43/1 543/44/1
f 542/41/1 544/42/1 393/43/1 392/44/1
f 544/41/1 545/42/1 396/43/1 393/44/1
f 545/41/1 546/42/1 398/43/1 396/44/1
f 546/41/1 547/42/1 400/43/1 398/44/1
f 547/41/1 548/42/1 549/43/1 400/44/1
f 550/41/1 551/42/1 552/43/1 553/44/1
f 551/41/1 554/42/1 402/43/1 552/44/1
f 554/41/1 555/42/1 403/43/1 402/44/1
f 555/41/1 556/42/1 406/43/1 403/44/1
f 556/41/1 557/42/1 408/43/1 406/44/1
f 557/41/1 558/42/1 559/43/1 408/44/1
f 558/41/1 560/42/1 410/43/1 559/44/1
f 560/41/1 561/42/1 411/43/1 410/44/1
f 561/41/1 562/42/1 414/43/1 411/44/1
f 562/41/1 563/42/1 416/43/1 414/44/1
f 563/41/1 564/42/1 418/43/1 416/44/1
f 564/41/1 565/42/1 420/43/1 418/44/1
f 565/41/1 566/42/1 422/43/1 420/44/1
f 566/41/1 567/42/1 423/43/1 422/44/1
f 567/41/1 568/42/1 426/43/1 423/44/1
f 568/41/1 569/42/1 428/43/1 426/44/1
f 569/41/1 570/42/1 430/43/1 428/44/1
f 570/41/1 571/42/1 431/43/1 430/44/1
f 571/41/1 572/42/1 432/43/1 431/44/1
f 572/41/1 573/42/1 433/43/1 432/44/1
f 573/41/1 574/42/1 436/43/1 433/44/1
f 574/41/1 575/42/1 437/43/1 436/44/1
f 575/41/1 576/42/1 440/43/1 437/44/1
f 576/41/1 577/42/1 442/43/1 440/44/1
f 577/41/1 578/42/1 443/43/1 442/44/1
f 578/41/1 579/42/1 580/43/1 443/44/1
f 579/45/1 581/46/1 582/47/1 580/48/1
f 581/45/1 583/46/1 584/47/1 582/48/1
f 583/45/1 585/46/1 586/47/1 584/48/1
f 585/41/1 587/42/1 446/43/1 586/44/1
f 587/41/1 588/42/1 447/43/1 446/44/1
f 588/41/1 589/42/1 450/43/1 447/44/1
f 589/41/1 590/42/1 452/43/1 450/44/1
f 590/41/1 591/42/1 454/43/1 452/44/1
f 591/41/1 592/42/1 456/43/1 454/44/1
f 592/41/1 593/42/1 458/43/1 456/44/1
f 593/41/1 594/42/1 595/43/1 458/44/1

