# Wavefront OBJ file automatically generated by Tiled2Unity

# Vertices (Count = 563)
v 0 -240 0
v -80 -240 0
v -80 -160 0
v 0 -160 0
v -160 -240 0
v -160 -160 0
v 0 -320 0
v -80 -320 0
v -160 -320 0
v -240 -320 0
v -320 -320 0
v -320 -240 0
v -240 -240 0
v -400 -320 0
v -400 -240 0
v -480 -320 0
v -480 -240 0
v -880 -320 0
v -960 -320 0
v -960 -240 0
v -880 -240 0
v -1040 -320 0
v -1120 -320 0
v -1120 -240 0
v -1040 -240 0
v -1200 -320 0
v -1200 -240 0
v -1280 -320 0
v -1360 -320 0
v -1360 -240 0
v -1280 -240 0
v -1440 -320 0
v -1440 -240 0
v -1520 -320 0
v -1600 -320 0
v -1600 -240 0
v -1520 -240 0
v -1680 -320 0
v -1760 -320 0
v -1760 -240 0
v -1680 -240 0
v -1840 -320 0
v -1840 -240 0
v -1920 -320 0
v -2000 -320 0
v -2000 -240 0
v -1920 -240 0
v -2080 -320 0
v -2160 -320 0
v -2160 -240 0
v -2080 -240 0
v -2560 -320 0
v -2640 -320 0
v -2640 -240 0
v -2560 -240 0
v -3040 -320 0
v -3120 -320 0
v -3120 -240 0
v -3040 -240 0
v -3520 -320 0
v -3600 -320 0
v -3600 -240 0
v -3520 -240 0
v -3920 -320 0
v -4000 -320 0
v -4000 -240 0
v -3920 -240 0
v -4080 -320 0
v -4080 -240 0
v -4400 -320 0
v -4480 -320 0
v -4480 -240 0
v -4400 -240 0
v -4880 -320 0
v -4960 -320 0
v -4960 -240 0
v -4880 -240 0
v -5040 -320 0
v -5040 -240 0
v -5120 -320 0
v -5200 -320 0
v -5200 -240 0
v -5120 -240 0
v -5280 -320 0
v -5280 -240 0
v -5360 -320 0
v -5440 -320 0
v -5440 -240 0
v -5360 -240 0
v -5520 -320 0
v -5520 -240 0
v -5600 -320 0
v -5680 -320 0
v -5680 -240 0
v -5600 -240 0
v -5760 -320 0
v -5760 -240 0
v -5840 -320 0
v -5920 -320 0
v -5920 -240 0
v -5840 -240 0
v 0 -400 0
v -80 -400 0
v -160 -400 0
v -240 -400 0
v -320 -400 0
v -400 -400 0
v -480 -400 0
v -560 -400 0
v -560 -320 0
v -800 -400 0
v -880 -400 0
v -800 -320 0
v -960 -400 0
v -1040 -400 0
v -1120 -400 0
v -1200 -400 0
v -1280 -400 0
v -1360 -400 0
v -1440 -400 0
v -1520 -400 0
v -1600 -400 0
v -1680 -400 0
v -1760 -400 0
v -1840 -400 0
v -1920 -400 0
v -2000 -400 0
v -2080 -400 0
v -2160 -400 0
v -2240 -400 0
v -2240 -320 0
v -2480 -400 0
v -2560 -400 0
v -2480 -320 0
v -2640 -400 0
v -2720 -400 0
v -2720 -320 0
v -2960 -400 0
v -3040 -400 0
v -2960 -320 0
v -3120 -400 0
v -3200 -400 0
v -3200 -320 0
v -3440 -400 0
v -3520 -400 0
v -3440 -320 0
v -3600 -400 0
v -3680 -400 0
v -3680 -320 0
v -3760 -400 0
v -3760 -320 0
v -3840 -400 0
v -3840 -320 0
v -3920 -400 0
v -4000 -400 0
v -4080 -400 0
v -4160 -400 0
v -4160 -320 0
v -4240 -400 0
v -4240 -320 0
v -4320 -400 0
v -4320 -320 0
v -4400 -400 0
v -4480 -400 0
v -4560 -400 0
v -4560 -320 0
v -4800 -400 0
v -4880 -400 0
v -4800 -320 0
v -4960 -400 0
v -5040 -400 0
v -5120 -400 0
v -5200 -400 0
v -5280 -400 0
v -5360 -400 0
v -5440 -400 0
v -5520 -400 0
v -5600 -400 0
v -5680 -400 0
v -5760 -400 0
v -5840 -400 0
v -5920 -400 0
v -6000 -400 0
v -6000 -320 0
v -5760 -640 0
v -5840 -640 0
v -5840 -560 0
v -5760 -560 0
v -5920 -640 0
v -5920 -560 0
v -720 -720 0
v -800 -720 0
v -800 -640 0
v -720 -640 0
v -880 -720 0
v -880 -640 0
v -1280 -720 0
v -1360 -720 0
v -1360 -640 0
v -1280 -640 0
v -1440 -720 0
v -1440 -640 0
v -1520 -720 0
v -1520 -640 0
v -1600 -720 0
v -1680 -720 0
v -1680 -640 0
v -1600 -640 0
v -1760 -720 0
v -1760 -640 0
v -1840 -720 0
v -1920 -720 0
v -1920 -640 0
v -1840 -640 0
v -2000 -720 0
v -2000 -640 0
v -2400 -720 0
v -2480 -720 0
v -2480 -640 0
v -2400 -640 0
v -2560 -720 0
v -2560 -640 0
v -2640 -720 0
v -2720 -720 0
v -2720 -640 0
v -2640 -640 0
v -2800 -720 0
v -2800 -640 0
v -2880 -720 0
v -2960 -720 0
v -2960 -640 0
v -2880 -640 0
v -3040 -720 0
v -3120 -720 0
v -3120 -640 0
v -3040 -640 0
v -3200 -720 0
v -3200 -640 0
v -3280 -720 0
v -3360 -720 0
v -3360 -640 0
v -3280 -640 0
v -3440 -720 0
v -3440 -640 0
v -3840 -720 0
v -3920 -720 0
v -3920 -640 0
v -3840 -640 0
v -4000 -720 0
v -4000 -640 0
v -4080 -720 0
v -4160 -720 0
v -4160 -640 0
v -4080 -640 0
v -4240 -720 0
v -4240 -640 0
v -4320 -720 0
v -4400 -720 0
v -4400 -640 0
v -4320 -640 0
v -4480 -720 0
v -4480 -640 0
v -4560 -720 0
v -4640 -720 0
v -4640 -640 0
v -4560 -640 0
v -4720 -720 0
v -4800 -720 0
v -4800 -640 0
v -4720 -640 0
v -4880 -720 0
v -4880 -640 0
v -4960 -720 0
v -5040 -720 0
v -5040 -640 0
v -4960 -640 0
v -5120 -720 0
v -5200 -720 0
v -5200 -640 0
v -5120 -640 0
v -5280 -720 0
v -5280 -640 0
v -5360 -720 0
v -5440 -720 0
v -5440 -640 0
v -5360 -640 0
v -5520 -720 0
v -5600 -720 0
v -5600 -640 0
v -5520 -640 0
v -5680 -720 0
v -5680 -640 0
v -5760 -720 0
v -5840 -720 0
v -5920 -720 0
v -6000 -720 0
v -6000 -640 0
v -640 -800 0
v -720 -800 0
v -640 -720 0
v -800 -800 0
v -880 -800 0
v -960 -800 0
v -960 -720 0
v -1040 -800 0
v -1040 -720 0
v -1120 -800 0
v -1120 -720 0
v -1200 -800 0
v -1200 -720 0
v -1280 -800 0
v -1360 -800 0
v -1440 -800 0
v -1520 -800 0
v -1600 -800 0
v -1680 -800 0
v -1760 -800 0
v -1840 -800 0
v -1920 -800 0
v -2000 -800 0
v -2080 -800 0
v -2080 -720 0
v -2320 -800 0
v -2400 -800 0
v -2320 -720 0
v -2480 -800 0
v -2560 -800 0
v -2640 -800 0
v -2720 -800 0
v -2800 -800 0
v -2880 -800 0
v -2960 -800 0
v -3040 -800 0
v -3120 -800 0
v -3200 -800 0
v -3280 -800 0
v -3360 -800 0
v -3440 -800 0
v -3520 -800 0
v -3520 -720 0
v -3760 -800 0
v -3840 -800 0
v -3760 -720 0
v -3920 -800 0
v -4000 -800 0
v -4080 -800 0
v -4160 -800 0
v -4240 -800 0
v -4320 -800 0
v -4400 -800 0
v -4480 -800 0
v -4560 -800 0
v -4640 -800 0
v -4720 -800 0
v -4800 -800 0
v -4880 -800 0
v -4960 -800 0
v -5040 -800 0
v -5120 -800 0
v -5200 -800 0
v -5280 -800 0
v -5360 -800 0
v -5440 -800 0
v -5520 -800 0
v -5600 -800 0
v -5680 -800 0
v -5760 -800 0
v -5840 -800 0
v -5920 -800 0
v -6000 -800 0
v 0 -1040 0
v -80 -1040 0
v -80 -960 0
v 0 -960 0
v -160 -1040 0
v -160 -960 0
v 0 -1120 0
v -80 -1120 0
v -160 -1120 0
v -240 -1120 0
v -320 -1120 0
v -320 -1040 0
v -240 -1040 0
v -400 -1120 0
v -400 -1040 0
v -480 -1120 0
v -480 -1040 0
v -880 -1120 0
v -960 -1120 0
v -960 -1040 0
v -880 -1040 0
v -1040 -1120 0
v -1040 -1040 0
v -1280 -1120 0
v -1360 -1120 0
v -1360 -1040 0
v -1280 -1040 0
v -1440 -1120 0
v -1440 -1040 0
v -1600 -1120 0
v -1680 -1120 0
v -1680 -1040 0
v -1600 -1040 0
v -1760 -1120 0
v -1760 -1040 0
v -2000 -1120 0
v -2080 -1120 0
v -2080 -1040 0
v -2000 -1040 0
v -2160 -1120 0
v -2160 -1040 0
v -2240 -1120 0
v -2240 -1040 0
v -2320 -1120 0
v -2320 -1040 0
v -2400 -1120 0
v -2400 -1040 0
v -2480 -1120 0
v -2560 -1120 0
v -2560 -1040 0
v -2480 -1040 0
v -2640 -1120 0
v -2640 -1040 0
v -2720 -1120 0
v -2720 -1040 0
v -2800 -1120 0
v -2880 -1120 0
v -2880 -1040 0
v -2800 -1040 0
v -3200 -1120 0
v -3280 -1120 0
v -3280 -1040 0
v -3200 -1040 0
v -3600 -1120 0
v -3680 -1120 0
v -3680 -1040 0
v -3600 -1040 0
v -3760 -1120 0
v -3760 -1040 0
v -4000 -1120 0
v -4080 -1120 0
v -4080 -1040 0
v -4000 -1040 0
v -4400 -1120 0
v -4480 -1120 0
v -4480 -1040 0
v -4400 -1040 0
v -4560 -1120 0
v -4640 -1120 0
v -4640 -1040 0
v -4560 -1040 0
v -4720 -1120 0
v -4800 -1120 0
v -4800 -1040 0
v -4720 -1040 0
v -4880 -1120 0
v -4880 -1040 0
v -4960 -1120 0
v -5040 -1120 0
v -5040 -1040 0
v -4960 -1040 0
v -5120 -1120 0
v -5200 -1120 0
v -5200 -1040 0
v -5120 -1040 0
v -5280 -1120 0
v -5280 -1040 0
v -5360 -1120 0
v -5440 -1120 0
v -5440 -1040 0
v -5360 -1040 0
v -5520 -1120 0
v -5600 -1120 0
v -5600 -1040 0
v -5520 -1040 0
v -5680 -1120 0
v -5680 -1040 0
v -5760 -1120 0
v -5840 -1120 0
v -5840 -1040 0
v -5760 -1040 0
v 0 -1200 0
v -80 -1200 0
v -160 -1200 0
v -240 -1200 0
v -320 -1200 0
v -400 -1200 0
v -480 -1200 0
v -560 -1200 0
v -560 -1120 0
v -640 -1200 0
v -640 -1120 0
v -720 -1200 0
v -720 -1120 0
v -800 -1200 0
v -800 -1120 0
v -880 -1200 0
v -960 -1200 0
v -1040 -1200 0
v -1120 -1200 0
v -1120 -1120 0
v -1200 -1200 0
v -1200 -1120 0
v -1280 -1200 0
v -1360 -1200 0
v -1440 -1200 0
v -1520 -1200 0
v -1520 -1120 0
v -1600 -1200 0
v -1680 -1200 0
v -1760 -1200 0
v -1840 -1200 0
v -1840 -1120 0
v -1920 -1200 0
v -1920 -1120 0
v -2000 -1200 0
v -2080 -1200 0
v -2160 -1200 0
v -2240 -1200 0
v -2320 -1200 0
v -2400 -1200 0
v -2480 -1200 0
v -2560 -1200 0
v -2640 -1200 0
v -2720 -1200 0
v -2800 -1200 0
v -2880 -1200 0
v -3120 -1200 0
v -3200 -1200 0
v -3120 -1120 0
v -3280 -1200 0
v -3360 -1200 0
v -3360 -1120 0
v -3600 -1200 0
v -3680 -1200 0
v -3760 -1200 0
v -4000 -1200 0
v -4080 -1200 0
v -4320 -1200 0
v -4400 -1200 0
v -4320 -1120 0
v -4480 -1200 0
v -4560 -1200 0
v -4640 -1200 0
v -4720 -1200 0
v -4800 -1200 0
v -4880 -1200 0
v -4960 -1200 0
v -5040 -1200 0
v -5120 -1200 0
v -5200 -1200 0
v -5280 -1200 0
v -5360 -1200 0
v -5440 -1200 0
v -5520 -1200 0
v -5600 -1200 0
v -5680 -1200 0
v -5760 -1200 0
v -5840 -1200 0
v -5920 -1200 0
v -5920 -1120 0
v -6000 -1200 0
v -6000 -1120 0

# Texture cooridinates (Count = 68)
vt 0.2501221 0.2501221
vt 0.3748779 0.2501221
vt 0.3748779 0.4998779
vt 0.2501221 0.4998779
vt 0.3751221 0.2501221
vt 0.4998779 0.2501221
vt 0.4998779 0.4998779
vt 0.3751221 0.4998779
vt 0.2501221 0.0001220703
vt 0.3748779 0.0001220703
vt 0.3748779 0.2498779
vt 0.2501221 0.2498779
vt 0.3751221 0.0001220703
vt 0.4998779 0.0001220703
vt 0.4998779 0.2498779
vt 0.3751221 0.2498779
vt 0.2501221 0.7501221
vt 0.3748779 0.7501221
vt 0.3748779 0.9998779
vt 0.2501221 0.9998779
vt 0.3751221 0.7501221
vt 0.4998779 0.7501221
vt 0.4998779 0.9998779
vt 0.3751221 0.9998779
vt 0.5001221 0.7501221
vt 0.6248779 0.7501221
vt 0.6248779 0.9998779
vt 0.5001221 0.9998779
vt 0.7501221 0.7501221
vt 0.8748779 0.7501221
vt 0.8748779 0.9998779
vt 0.7501221 0.9998779
vt 0.6251221 0.7501221
vt 0.7498779 0.7501221
vt 0.7498779 0.9998779
vt 0.6251221 0.9998779
vt 0.1251221 0.7501221
vt 0.2498779 0.7501221
vt 0.2498779 0.9998779
vt 0.1251221 0.9998779
vt 0.2501221 0.5001221
vt 0.3748779 0.5001221
vt 0.3748779 0.7498779
vt 0.2501221 0.7498779
vt 0.0001220703 0.2501221
vt 0.1248779 0.2501221
vt 0.1248779 0.4998779
vt 0.0001220703 0.4998779
vt 0.1251221 0.2501221
vt 0.2498779 0.2501221
vt 0.2498779 0.4998779
vt 0.1251221 0.4998779
vt 0.0001220703 0.0001220703
vt 0.1248779 0.0001220703
vt 0.1248779 0.2498779
vt 0.0001220703 0.2498779
vt 0.1251221 0.0001220703
vt 0.2498779 0.0001220703
vt 0.2498779 0.2498779
vt 0.1251221 0.2498779
vt 0.0001220703 0.7501221
vt 0.1248779 0.7501221
vt 0.1248779 0.9998779
vt 0.0001220703 0.9998779
vt 0.8751221 0.7501221
vt 0.9998779 0.7501221
vt 0.9998779 0.9998779
vt 0.8751221 0.9998779

# Normal
vn 0 0 -1

# Groups (Count = 1)

g mesh_0001
f 1/1/1 2/2/1 3/3/1 4/4/1
f 2/5/1 5/6/1 6/7/1 3/8/1
f 7/9/1 8/10/1 2/11/1 1/12/1
f 8/13/1 9/14/1 5/15/1 2/16/1
f 10/17/1 11/18/1 12/19/1 13/20/1
f 11/17/1 14/18/1 15/19/1 12/20/1
f 14/17/1 16/18/1 17/19/1 15/20/1
f 18/17/1 19/18/1 20/19/1 21/20/1
f 22/21/1 23/22/1 24/23/1 25/24/1
f 23/25/1 26/26/1 27/27/1 24/28/1
f 28/17/1 29/18/1 30/19/1 31/20/1
f 29/17/1 32/18/1 33/19/1 30/20/1
f 34/29/1 35/30/1 36/31/1 37/32/1
f 38/17/1 39/18/1 40/19/1 41/20/1
f 39/17/1 42/18/1 43/19/1 40/20/1
f 44/25/1 45/26/1 46/27/1 47/28/1
f 48/17/1 49/18/1 50/19/1 51/20/1
f 52/17/1 53/18/1 54/19/1 55/20/1
f 56/17/1 57/18/1 58/19/1 59/20/1
f 60/17/1 61/18/1 62/19/1 63/20/1
f 64/17/1 65/18/1 66/19/1 67/20/1
f 65/17/1 68/18/1 69/19/1 66/20/1
f 70/17/1 71/18/1 72/19/1 73/20/1
f 74/17/1 75/18/1 76/19/1 77/20/1
f 75/17/1 78/18/1 79/19/1 76/20/1
f 80/21/1 81/22/1 82/23/1 83/24/1
f 81/25/1 84/26/1 85/27/1 82/28/1
f 86/17/1 87/18/1 88/19/1 89/20/1
f 87/17/1 90/18/1 91/19/1 88/20/1
f 92/33/1 93/34/1 94/35/1 95/36/1
f 93/33/1 96/34/1 97/35/1 94/36/1
f 98/17/1 99/18/1 100/19/1 101/20/1
f 102/37/1 103/38/1 8/39/1 7/40/1
f 103/37/1 104/38/1 9/39/1 8/40/1
f 104/37/1 105/38/1 10/39/1 9/40/1
f 105/37/1 106/38/1 11/39/1 10/40/1
f 106/37/1 107/38/1 14/39/1 11/40/1
f 107/37/1 108/38/1 16/39/1 14/40/1
f 108/37/1 109/38/1 110/39/1 16/40/1
f 111/37/1 112/38/1 18/39/1 113/40/1
f 112/37/1 114/38/1 19/39/1 18/40/1
f 114/37/1 115/38/1 22/39/1 19/40/1
f 115/37/1 116/38/1 23/39/1 22/40/1
f 116/37/1 117/38/1 26/39/1 23/40/1
f 117/37/1 118/38/1 28/39/1 26/40/1
f 118/37/1 119/38/1 29/39/1 28/40/1
f 119/37/1 120/38/1 32/39/1 29/40/1
f 120/37/1 121/38/1 34/39/1 32/40/1
f 121/37/1 122/38/1 35/39/1 34/40/1
f 122/37/1 123/38/1 38/39/1 35/40/1
f 123/37/1 124/38/1 39/39/1 38/40/1
f 124/37/1 125/38/1 42/39/1 39/40/1
f 125/37/1 126/38/1 44/39/1 42/40/1
f 126/37/1 127/38/1 45/39/1 44/40/1
f 127/37/1 128/38/1 48/39/1 45/40/1
f 128/37/1 129/38/1 49/39/1 48/40/1
f 129/37/1 130/38/1 131/39/1 49/40/1
f 132/37/1 133/38/1 52/39/1 134/40/1
f 133/37/1 135/38/1 53/39/1 52/40/1
f 135/37/1 136/38/1 137/39/1 53/40/1
f 138/37/1 139/38/1 56/39/1 140/40/1
f 139/37/1 141/38/1 57/39/1 56/40/1
f 141/37/1 142/38/1 143/39/1 57/40/1
f 144/37/1 145/38/1 60/39/1 146/40/1
f 145/37/1 147/38/1 61/39/1 60/40/1
f 147/37/1 148/38/1 149/39/1 61/40/1
f 148/41/1 150/42/1 151/43/1 149/44/1
f 150/41/1 152/42/1 153/43/1 151/44/1
f 152/41/1 154/42/1 64/43/1 153/44/1
f 154/37/1 155/38/1 65/39/1 64/40/1
f 155/37/1 156/38/1 68/39/1 65/40/1
f 156/41/1 157/42/1 158/43/1 68/44/1
f 157/41/1 159/42/1 160/43/1 158/44/1
f 159/41/1 161/42/1 162/43/1 160/44/1
f 161/37/1 163/38/1 70/39/1 162/40/1
f 163/37/1 164/38/1 71/39/1 70/40/1
f 164/37/1 165/38/1 166/39/1 71/40/1
f 167/37/1 168/38/1 74/39/1 169/40/1
f 168/37/1 170/38/1 75/39/1 74/40/1
f 170/37/1 171/38/1 78/39/1 75/40/1
f 171/37/1 172/38/1 80/39/1 78/40/1
f 172/37/1 173/38/1 81/39/1 80/40/1
f 173/37/1 174/38/1 84/39/1 81/40/1
f 174/37/1 175/38/1 86/39/1 84/40/1
f 175/37/1 176/38/1 87/39/1 86/40/1
f 176/37/1 177/38/1 90/39/1 87/40/1
f 177/37/1 178/38/1 92/39/1 90/40/1
f 178/37/1 179/38/1 93/39/1 92/40/1
f 179/37/1 180/38/1 96/39/1 93/40/1
f 180/37/1 181/38/1 98/39/1 96/40/1
f 181/37/1 182/38/1 99/39/1 98/40/1
f 182/37/1 183/38/1 184/39/1 99/40/1
f 185/45/1 186/46/1 187/47/1 188/48/1
f 186/49/1 189/50/1 190/51/1 187/52/1
f 191/17/1 192/18/1 193/19/1 194/20/1
f 192/17/1 195/18/1 196/19/1 193/20/1
f 197/17/1 198/18/1 199/19/1 200/20/1
f 198/17/1 201/18/1 202/19/1 199/20/1
f 201/17/1 203/18/1 204/19/1 202/20/1
f 205/21/1 206/22/1 207/23/1 208/24/1
f 206/21/1 209/22/1 210/23/1 207/24/1
f 211/17/1 212/18/1 213/19/1 214/20/1
f 212/17/1 215/18/1 216/19/1 213/20/1
f 217/17/1 218/18/1 219/19/1 220/20/1
f 218/17/1 221/18/1 222/19/1 219/20/1
f 223/29/1 224/30/1 225/31/1 226/32/1
f 224/33/1 227/34/1 228/35/1 225/36/1
f 229/17/1 230/18/1 231/19/1 232/20/1
f 233/33/1 234/34/1 235/35/1 236/36/1
f 234/29/1 237/30/1 238/31/1 235/32/1
f 239/17/1 240/18/1 241/19/1 242/20/1
f 240/17/1 243/18/1 244/19/1 241/20/1
f 245/17/1 246/18/1 247/19/1 248/20/1
f 246/17/1 249/18/1 250/19/1 247/20/1
f 251/21/1 252/22/1 253/23/1 254/24/1
f 252/25/1 255/26/1 256/27/1 253/28/1
f 257/17/1 258/18/1 259/19/1 260/20/1
f 258/17/1 261/18/1 262/19/1 259/20/1
f 263/25/1 264/26/1 265/27/1 266/28/1
f 267/17/1 268/18/1 269/19/1 270/20/1
f 268/17/1 271/18/1 272/19/1 269/20/1
f 273/29/1 274/30/1 275/31/1 276/32/1
f 277/17/1 278/18/1 279/19/1 280/20/1
f 278/17/1 281/18/1 282/19/1 279/20/1
f 283/33/1 284/34/1 285/35/1 286/36/1
f 287/17/1 288/18/1 289/19/1 290/20/1
f 288/17/1 291/18/1 292/19/1 289/20/1
f 291/17/1 293/18/1 185/19/1 292/20/1
f 293/53/1 294/54/1 186/55/1 185/56/1
f 294/57/1 295/58/1 189/59/1 186/60/1
f 295/61/1 296/62/1 297/63/1 189/64/1
f 298/65/1 299/66/1 191/67/1 300/68/1
f 299/37/1 301/38/1 192/39/1 191/40/1
f 301/37/1 302/38/1 195/39/1 192/40/1
f 302/37/1 303/38/1 304/39/1 195/40/1
f 303/41/1 305/42/1 306/43/1 304/44/1
f 305/41/1 307/42/1 308/43/1 306/44/1
f 307/41/1 309/42/1 310/43/1 308/44/1
f 309/37/1 311/38/1 197/39/1 310/40/1
f 311/37/1 312/38/1 198/39/1 197/40/1
f 312/37/1 313/38/1 201/39/1 198/40/1
f 313/37/1 314/38/1 203/39/1 201/40/1
f 314/37/1 315/38/1 205/39/1 203/40/1
f 315/37/1 316/38/1 206/39/1 205/40/1
f 316/37/1 317/38/1 209/39/1 206/40/1
f 317/37/1 318/38/1 211/39/1 209/40/1
f 318/37/1 319/38/1 212/39/1 211/40/1
f 319/37/1 320/38/1 215/39/1 212/40/1
f 320/37/1 321/38/1 322/39/1 215/40/1
f 323/37/1 324/38/1 217/39/1 325/40/1
f 324/37/1 326/38/1 218/39/1 217/40/1
f 326/37/1 327/38/1 221/39/1 218/40/1
f 327/37/1 328/38/1 223/39/1 221/40/1
f 328/37/1 329/38/1 224/39/1 223/40/1
f 329/37/1 330/38/1 227/39/1 224/40/1
f 330/37/1 331/38/1 229/39/1 227/40/1
f 331/37/1 332/38/1 230/39/1 229/40/1
f 332/37/1 333/38/1 233/39/1 230/40/1
f 333/37/1 334/38/1 234/39/1 233/40/1
f 334/37/1 335/38/1 237/39/1 234/40/1
f 335/37/1 336/38/1 239/39/1 237/40/1
f 336/37/1 337/38/1 240/39/1 239/40/1
f 337/37/1 338/38/1 243/39/1 240/40/1
f 338/37/1 339/38/1 340/39/1 243/40/1
f 341/37/1 342/38/1 245/39/1 343/40/1
f 342/37/1 344/38/1 246/39/1 245/40/1
f 344/37/1 345/38/1 249/39/1 246/40/1
f 345/37/1 346/38/1 251/39/1 249/40/1
f 346/37/1 347/38/1 252/39/1 251/40/1
f 347/37/1 348/38/1 255/39/1 252/40/1
f 348/37/1 349/38/1 257/39/1 255/40/1
f 349/37/1 350/38/1 258/39/1 257/40/1
f 350/37/1 351/38/1 261/39/1 258/40/1
f 351/37/1 352/38/1 263/39/1 261/40/1
f 352/37/1 353/38/1 264/39/1 263/40/1
f 353/37/1 354/38/1 267/39/1 264/40/1
f 354/37/1 355/38/1 268/39/1 267/40/1
f 355/37/1 356/38/1 271/39/1 268/40/1
f 356/37/1 357/38/1 273/39/1 271/40/1
f 357/37/1 358/38/1 274/39/1 273/40/1
f 358/37/1 359/38/1 277/39/1 274/40/1
f 359/37/1 360/38/1 278/39/1 277/40/1
f 360/37/1 361/38/1 281/39/1 278/40/1
f 361/37/1 362/38/1 283/39/1 281/40/1
f 362/37/1 363/38/1 284/39/1 283/40/1
f 363/37/1 364/38/1 287/39/1 284/40/1
f 364/37/1 365/38/1 288/39/1 287/40/1
f 365/37/1 366/38/1 291/39/1 288/40/1
f 366/37/1 367/38/1 293/39/1 291/40/1
f 367/37/1 368/38/1 294/39/1 293/40/1
f 368/37/1 369/38/1 295/39/1 294/40/1
f 369/37/1 370/38/1 296/39/1 295/40/1
f 371/1/1 372/2/1 373/3/1 374/4/1
f 372/5/1 375/6/1 376/7/1 373/8/1
f 377/9/1 378/10/1 372/11/1 371/12/1
f 378/13/1 379/14/1 375/15/1 372/16/1
f 380/17/1 381/18/1 382/19/1 383/20/1
f 381/17/1 384/18/1 385/19/1 382/20/1
f 384/17/1 386/18/1 387/19/1 385/20/1
f 388/17/1 389/18/1 390/19/1 391/20/1
f 389/17/1 392/18/1 393/19/1 390/20/1
f 394/17/1 395/18/1 396/19/1 397/20/1
f 395/17/1 398/18/1 399/19/1 396/20/1
f 400/17/1 401/18/1 402/19/1 403/20/1
f 401/17/1 404/18/1 405/19/1 402/20/1
f 406/17/1 407/18/1 408/19/1 409/20/1
f 407/17/1 410/18/1 411/19/1 408/20/1
f 410/17/1 412/18/1 413/19/1 411/20/1
f 412/17/1 414/18/1 415/19/1 413/20/1
f 414/17/1 416/18/1 417/19/1 415/20/1
f 418/25/1 419/26/1 420/27/1 421/28/1
f 419/33/1 422/34/1 423/35/1 420/36/1
f 422/25/1 424/26/1 425/27/1 423/28/1
f 426/17/1 427/18/1 428/19/1 429/20/1
f 430/17/1 431/18/1 432/19/1 433/20/1
f 434/17/1 435/18/1 436/19/1 437/20/1
f 435/17/1 438/18/1 439/19/1 436/20/1
f 440/17/1 441/18/1 442/19/1 443/20/1
f 444/17/1 445/18/1 446/19/1 447/20/1
f 448/33/1 449/34/1 450/35/1 451/36/1
f 452/17/1 453/18/1 454/19/1 455/20/1
f 453/17/1 456/18/1 457/19/1 454/20/1
f 458/29/1 459/30/1 460/31/1 461/32/1
f 462/17/1 463/18/1 464/19/1 465/20/1
f 463/17/1 466/18/1 467/19/1 464/20/1
f 468/21/1 469/22/1 470/23/1 471/24/1
f 472/17/1 473/18/1 474/19/1 475/20/1
f 473/17/1 476/18/1 477/19/1 474/20/1
f 478/33/1 479/34/1 480/35/1 481/36/1
f 482/37/1 483/38/1 378/39/1 377/40/1
f 483/37/1 484/38/1 379/39/1 378/40/1
f 484/37/1 485/38/1 380/39/1 379/40/1
f 485/37/1 486/38/1 381/39/1 380/40/1
f 486/37/1 487/38/1 384/39/1 381/40/1
f 487/37/1 488/38/1 386/39/1 384/40/1
f 488/37/1 489/38/1 490/39/1 386/40/1
f 489/37/1 491/38/1 492/39/1 490/40/1
f 491/41/1 493/42/1 494/43/1 492/44/1
f 493/41/1 495/42/1 496/43/1 494/44/1
f 495/41/1 497/42/1 388/43/1 496/44/1
f 497/37/1 498/38/1 389/39/1 388/40/1
f 498/37/1 499/38/1 392/39/1 389/40/1
f 499/41/1 500/42/1 501/43/1 392/44/1
f 500/41/1 502/42/1 503/43/1 501/44/1
f 502/41/1 504/42/1 394/43/1 503/44/1
f 504/37/1 505/38/1 395/39/1 394/40/1
f 505/37/1 506/38/1 398/39/1 395/40/1
f 506/41/1 507/42/1 508/43/1 398/44/1
f 507/41/1 509/42/1 400/43/1 508/44/1
f 509/37/1 510/38/1 401/39/1 400/40/1
f 510/37/1 511/38/1 404/39/1 401/40/1
f 511/41/1 512/42/1 513/43/1 404/44/1
f 512/41/1 514/42/1 515/43/1 513/44/1
f 514/37/1 516/38/1 406/39/1 515/40/1
f 516/37/1 517/38/1 407/39/1 406/40/1
f 517/37/1 518/38/1 410/39/1 407/40/1
f 518/37/1 519/38/1 412/39/1 410/40/1
f 519/37/1 520/38/1 414/39/1 412/40/1
f 520/37/1 521/38/1 416/39/1 414/40/1
f 521/37/1 522/38/1 418/39/1 416/40/1
f 522/37/1 523/38/1 419/39/1 418/40/1
f 523/37/1 524/38/1 422/39/1 419/40/1
f 524/37/1 525/38/1 424/39/1 422/40/1
f 525/37/1 526/38/1 426/39/1 424/40/1
f 526/37/1 527/38/1 427/39/1 426/40/1
f 528/37/1 529/38/1 430/39/1 530/40/1
f 529/37/1 531/38/1 431/39/1 430/40/1
f 531/37/1 532/38/1 533/39/1 431/40/1
f 534/37/1 535/38/1 435/39/1 434/40/1
f 535/37/1 536/38/1 438/39/1 435/40/1
f 537/37/1 538/38/1 441/39/1 440/40/1
f 539/37/1 540/38/1 444/39/1 541/40/1
f 540/37/1 542/38/1 445/39/1 444/40/1
f 542/37/1 543/38/1 448/39/1 445/40/1
f 543/37/1 544/38/1 449/39/1 448/40/1
f 544/37/1 545/38/1 452/39/1 449/40/1
f 545/37/1 546/38/1 453/39/1 452/40/1
f 546/37/1 547/38/1 456/39/1 453/40/1
f 547/37/1 548/38/1 458/39/1 456/40/1
f 548/37/1 549/38/1 459/39/1 458/40/1
f 549/37/1 550/38/1 462/39/1 459/40/1
f 550/37/1 551/38/1 463/39/1 462/40/1
f 551/37/1 552/38/1 466/39/1 463/40/1
f 552/37/1 553/38/1 468/39/1 466/40/1
f 553/37/1 554/38/1 469/39/1 468/40/1
f 554/37/1 555/38/1 472/39/1 469/40/1
f 555/37/1 556/38/1 473/39/1 472/40/1
f 556/37/1 557/38/1 476/39/1 473/40/1
f 557/37/1 558/38/1 478/39/1 476/40/1
f 558/37/1 559/38/1 479/39/1 478/40/1
f 559/37/1 560/38/1 561/39/1 479/40/1
f 560/37/1 562/38/1 563/39/1 561/40/1

