# Wavefront OBJ file automatically generated by Tiled2Unity

# Vertices (Count = 385)
v -5200 -320 0
v -5280 -320 0
v -5280 -240 0
v -5200 -240 0
v -5360 -320 0
v -5360 -240 0
v -5680 -320 0
v -5760 -320 0
v -5760 -240 0
v -5680 -240 0
v -6080 -320 0
v -6160 -320 0
v -6160 -240 0
v -6080 -240 0
v -6240 -320 0
v -6240 -240 0
v -7680 -320 0
v -7760 -320 0
v -7760 -240 0
v -7680 -240 0
v -7840 -320 0
v -7840 -240 0
v -7920 -320 0
v -8000 -320 0
v -8000 -240 0
v -7920 -240 0
v -8080 -320 0
v -8160 -320 0
v -8160 -240 0
v -8080 -240 0
v -8240 -320 0
v -8240 -240 0
v -960 -400 0
v -1040 -400 0
v -1040 -320 0
v -960 -320 0
v -3120 -400 0
v -3200 -400 0
v -3200 -320 0
v -3120 -320 0
v -5120 -400 0
v -5200 -400 0
v -5120 -320 0
v -5280 -400 0
v -5360 -400 0
v -5440 -400 0
v -5440 -320 0
v -5520 -400 0
v -5520 -320 0
v -5600 -400 0
v -5600 -320 0
v -5680 -400 0
v -5760 -400 0
v -5840 -400 0
v -5840 -320 0
v -5920 -400 0
v -5920 -320 0
v -6000 -400 0
v -6000 -320 0
v -6080 -400 0
v -6160 -400 0
v -6240 -400 0
v -6320 -400 0
v -6320 -320 0
v -7280 -400 0
v -7360 -400 0
v -7360 -320 0
v -7280 -320 0
v -7600 -400 0
v -7680 -400 0
v -7600 -320 0
v -7760 -400 0
v -7840 -400 0
v -7920 -400 0
v -8000 -400 0
v -8080 -400 0
v -8160 -400 0
v -8240 -400 0
v -8320 -400 0
v -8320 -320 0
v -8400 -400 0
v -8480 -400 0
v -8480 -320 0
v -8400 -320 0
v -8880 -400 0
v -8960 -400 0
v -8960 -320 0
v -8880 -320 0
v -80 -480 0
v -160 -480 0
v -160 -400 0
v -80 -400 0
v -240 -480 0
v -240 -400 0
v -960 -480 0
v -1040 -480 0
v -1200 -480 0
v -1280 -480 0
v -1280 -400 0
v -1200 -400 0
v -1360 -480 0
v -1360 -400 0
v -1440 -480 0
v -1440 -400 0
v -1520 -480 0
v -1520 -400 0
v -1600 -480 0
v -1600 -400 0
v -1680 -480 0
v -1680 -400 0
v -2320 -480 0
v -2400 -480 0
v -2400 -400 0
v -2320 -400 0
v -2480 -480 0
v -2480 -400 0
v -2560 -480 0
v -2560 -400 0
v -2640 -480 0
v -2640 -400 0
v -2720 -480 0
v -2800 -480 0
v -2800 -400 0
v -2720 -400 0
v -2880 -480 0
v -2880 -400 0
v -2960 -480 0
v -2960 -400 0
v -3040 -480 0
v -3120 -480 0
v -3040 -400 0
v -3200 -480 0
v -3360 -480 0
v -3440 -480 0
v -3440 -400 0
v -3360 -400 0
v -3520 -480 0
v -3600 -480 0
v -3600 -400 0
v -3520 -400 0
v -3680 -480 0
v -3680 -400 0
v -3760 -480 0
v -3840 -480 0
v -3840 -400 0
v -3760 -400 0
v -3920 -480 0
v -3920 -400 0
v -4000 -480 0
v -4000 -400 0
v -4080 -480 0
v -4160 -480 0
v -4160 -400 0
v -4080 -400 0
v -4240 -480 0
v -4320 -480 0
v -4320 -400 0
v -4240 -400 0
v -4400 -480 0
v -4480 -480 0
v -4480 -400 0
v -4400 -400 0
v -4560 -480 0
v -4640 -480 0
v -4640 -400 0
v -4560 -400 0
v -4720 -480 0
v -4720 -400 0
v -4800 -480 0
v -4880 -480 0
v -4880 -400 0
v -4800 -400 0
v -6880 -480 0
v -6960 -480 0
v -6960 -400 0
v -6880 -400 0
v -7040 -480 0
v -7120 -480 0
v -7120 -400 0
v -7040 -400 0
v -7200 -480 0
v -7200 -400 0
v -7280 -480 0
v -7360 -480 0
v -7440 -480 0
v -7440 -400 0
v -7520 -480 0
v -7520 -400 0
v -7600 -480 0
v -8320 -480 0
v -8400 -480 0
v -8480 -480 0
v -8560 -480 0
v -8560 -400 0
v -8640 -480 0
v -8640 -400 0
v -8720 -480 0
v -8720 -400 0
v -8800 -480 0
v -8800 -400 0
v -8880 -480 0
v -8960 -480 0
v -9040 -480 0
v -9040 -400 0
v -9120 -480 0
v -9120 -400 0
v -9200 -480 0
v -9200 -400 0
v -9280 -480 0
v -9360 -480 0
v -9360 -400 0
v -9280 -400 0
v -9440 -480 0
v -9440 -400 0
v 0 -560 0
v -80 -560 0
v 0 -480 0
v -160 -560 0
v -240 -560 0
v -320 -560 0
v -400 -560 0
v -400 -480 0
v -320 -480 0
v -480 -560 0
v -480 -480 0
v -560 -560 0
v -640 -560 0
v -640 -480 0
v -560 -480 0
v -720 -560 0
v -720 -480 0
v -960 -560 0
v -1040 -560 0
v -1120 -560 0
v -1120 -480 0
v -1200 -560 0
v -1280 -560 0
v -1360 -560 0
v -1440 -560 0
v -1520 -560 0
v -1600 -560 0
v -1680 -560 0
v -1760 -560 0
v -1760 -480 0
v -1840 -560 0
v -1840 -480 0
v -1920 -560 0
v -1920 -480 0
v -2000 -560 0
v -2000 -480 0
v -2080 -560 0
v -2080 -480 0
v -2160 -560 0
v -2160 -480 0
v -2240 -560 0
v -2240 -480 0
v -2320 -560 0
v -2400 -560 0
v -2480 -560 0
v -2560 -560 0
v -2640 -560 0
v -2720 -560 0
v -2800 -560 0
v -2880 -560 0
v -2960 -560 0
v -3040 -560 0
v -3120 -560 0
v -3200 -560 0
v -3280 -560 0
v -3280 -480 0
v -3360 -560 0
v -3440 -560 0
v -3520 -560 0
v -3600 -560 0
v -3680 -560 0
v -3760 -560 0
v -3840 -560 0
v -3920 -560 0
v -4000 -560 0
v -4080 -560 0
v -4160 -560 0
v -4240 -560 0
v -4320 -560 0
v -4400 -560 0
v -4480 -560 0
v -4560 -560 0
v -4640 -560 0
v -4720 -560 0
v -4800 -560 0
v -4880 -560 0
v -4960 -560 0
v -4960 -480 0
v -5040 -560 0
v -5040 -480 0
v -5120 -560 0
v -5120 -480 0
v -6480 -560 0
v -6560 -560 0
v -6560 -480 0
v -6480 -480 0
v -6800 -560 0
v -6880 -560 0
v -6800 -480 0
v -6960 -560 0
v -7040 -560 0
v -7120 -560 0
v -7200 -560 0
v -9040 -560 0
v -9120 -560 0
v -9200 -560 0
v -9280 -560 0
v -9360 -560 0
v -9440 -560 0
v -9520 -560 0
v -9520 -480 0
v -9600 -560 0
v -9600 -480 0
v -9680 -560 0
v -9680 -480 0
v -9760 -560 0
v -9840 -560 0
v -9840 -480 0
v -9760 -480 0
v -9920 -560 0
v -9920 -480 0
v -10000 -560 0
v -10000 -480 0
v -10080 -560 0
v -10080 -480 0
v -10160 -560 0
v -10240 -560 0
v -10240 -480 0
v -10160 -480 0
v -10320 -560 0
v -10320 -480 0
v -10400 -560 0
v -10480 -560 0
v -10480 -480 0
v -10400 -480 0
v -10560 -560 0
v -10560 -480 0
v -10640 -560 0
v -10640 -480 0
v -10720 -560 0
v -10720 -480 0
v 0 -640 0
v -80 -640 0
v -160 -640 0
v -240 -640 0
v -320 -640 0
v -400 -640 0
v -480 -640 0
v -560 -640 0
v -640 -640 0
v -720 -640 0
v -800 -640 0
v -800 -560 0
v -880 -640 0
v -880 -560 0
v -960 -640 0
v -6400 -640 0
v -6480 -640 0
v -6400 -560 0
v -6560 -640 0
v -6640 -640 0
v -6640 -560 0
v -6720 -640 0
v -6720 -560 0
v -6800 -640 0
v -9680 -640 0
v -9760 -640 0
v -9840 -640 0
v -9920 -640 0
v -10000 -640 0
v -10080 -640 0
v -10160 -640 0
v -10240 -640 0
v -10320 -640 0
v -10400 -640 0
v -10480 -640 0
v -10560 -640 0
v -10640 -640 0
v -10720 -640 0
v -10800 -640 0
v -10800 -560 0

# Texture cooridinates (Count = 64)
vt 0.2501221 0.7501221
vt 0.3748779 0.7501221
vt 0.3748779 0.9998779
vt 0.2501221 0.9998779
vt 0.6251221 0.7501221
vt 0.7498779 0.7501221
vt 0.7498779 0.9998779
vt 0.6251221 0.9998779
vt 0.6251221 0.2501221
vt 0.7498779 0.2501221
vt 0.7498779 0.4998779
vt 0.6251221 0.4998779
vt 0.5001221 0.2501221
vt 0.6248779 0.2501221
vt 0.6248779 0.4998779
vt 0.5001221 0.4998779
vt 0.1251221 0.7501221
vt 0.2498779 0.7501221
vt 0.2498779 0.9998779
vt 0.1251221 0.9998779
vt 0.2501221 0.5001221
vt 0.3748779 0.5001221
vt 0.3748779 0.7498779
vt 0.2501221 0.7498779
vt 0.2501221 0.2501221
vt 0.3748779 0.2501221
vt 0.3748779 0.4998779
vt 0.2501221 0.4998779
vt 0.3751221 0.2501221
vt 0.4998779 0.2501221
vt 0.4998779 0.4998779
vt 0.3751221 0.4998779
vt 0.6251221 0.0001220703
vt 0.7498779 0.0001220703
vt 0.7498779 0.2498779
vt 0.6251221 0.2498779
vt 0.5001221 0.0001220703
vt 0.6248779 0.0001220703
vt 0.6248779 0.2498779
vt 0.5001221 0.2498779
vt 0.5001221 0.7501221
vt 0.6248779 0.7501221
vt 0.6248779 0.9998779
vt 0.5001221 0.9998779
vt 0.7501221 0.7501221
vt 0.8748779 0.7501221
vt 0.8748779 0.9998779
vt 0.7501221 0.9998779
vt 0.3751221 0.7501221
vt 0.4998779 0.7501221
vt 0.4998779 0.9998779
vt 0.3751221 0.9998779
vt 0.0001220703 0.7501221
vt 0.1248779 0.7501221
vt 0.1248779 0.9998779
vt 0.0001220703 0.9998779
vt 0.2501221 0.0001220703
vt 0.3748779 0.0001220703
vt 0.3748779 0.2498779
vt 0.2501221 0.2498779
vt 0.3751221 0.0001220703
vt 0.4998779 0.0001220703
vt 0.4998779 0.2498779
vt 0.3751221 0.2498779

# Normal
vn 0 0 -1

# Groups (Count = 1)

g mesh_0001
f 1/1/1 2/2/1 3/3/1 4/4/1
f 2/1/1 5/2/1 6/3/1 3/4/1
f 7/1/1 8/2/1 9/3/1 10/4/1
f 11/1/1 12/2/1 13/3/1 14/4/1
f 12/1/1 15/2/1 16/3/1 13/4/1
f 17/1/1 18/2/1 19/3/1 20/4/1
f 18/1/1 21/2/1 22/3/1 19/4/1
f 23/5/1 24/6/1 25/7/1 26/8/1
f 27/1/1 28/2/1 29/3/1 30/4/1
f 28/1/1 31/2/1 32/3/1 29/4/1
f 33/9/1 34/10/1 35/11/1 36/12/1
f 37/13/1 38/14/1 39/15/1 40/16/1
f 41/17/1 42/18/1 1/19/1 43/20/1
f 42/17/1 44/18/1 2/19/1 1/20/1
f 44/17/1 45/18/1 5/19/1 2/20/1
f 45/17/1 46/18/1 47/19/1 5/20/1
f 46/21/1 48/22/1 49/23/1 47/24/1
f 48/21/1 50/22/1 51/23/1 49/24/1
f 50/17/1 52/18/1 7/19/1 51/20/1
f 52/17/1 53/18/1 8/19/1 7/20/1
f 53/17/1 54/18/1 55/19/1 8/20/1
f 54/21/1 56/22/1 57/23/1 55/24/1
f 56/21/1 58/22/1 59/23/1 57/24/1
f 58/17/1 60/18/1 11/19/1 59/20/1
f 60/17/1 61/18/1 12/19/1 11/20/1
f 61/17/1 62/18/1 15/19/1 12/20/1
f 62/17/1 63/18/1 64/19/1 15/20/1
f 65/1/1 66/2/1 67/3/1 68/4/1
f 69/17/1 70/18/1 17/19/1 71/20/1
f 70/17/1 72/18/1 18/19/1 17/20/1
f 72/17/1 73/18/1 21/19/1 18/20/1
f 73/17/1 74/18/1 23/19/1 21/20/1
f 74/17/1 75/18/1 24/19/1 23/20/1
f 75/17/1 76/18/1 27/19/1 24/20/1
f 76/17/1 77/18/1 28/19/1 27/20/1
f 77/17/1 78/18/1 31/19/1 28/20/1
f 78/17/1 79/18/1 80/19/1 31/20/1
f 81/1/1 82/2/1 83/3/1 84/4/1
f 85/1/1 86/2/1 87/3/1 88/4/1
f 89/25/1 90/26/1 91/27/1 92/28/1
f 90/29/1 93/30/1 94/31/1 91/32/1
f 95/33/1 96/34/1 34/35/1 33/36/1
f 97/1/1 98/2/1 99/3/1 100/4/1
f 98/1/1 101/2/1 102/3/1 99/4/1
f 101/1/1 103/2/1 104/3/1 102/4/1
f 103/1/1 105/2/1 106/3/1 104/4/1
f 105/1/1 107/2/1 108/3/1 106/4/1
f 107/1/1 109/2/1 110/3/1 108/4/1
f 111/1/1 112/2/1 113/3/1 114/4/1
f 112/1/1 115/2/1 116/3/1 113/4/1
f 115/1/1 117/2/1 118/3/1 116/4/1
f 117/1/1 119/2/1 120/3/1 118/4/1
f 121/5/1 122/6/1 123/7/1 124/8/1
f 122/5/1 125/6/1 126/7/1 123/8/1
f 125/5/1 127/6/1 128/7/1 126/8/1
f 129/1/1 130/2/1 37/3/1 131/4/1
f 130/37/1 132/38/1 38/39/1 37/40/1
f 133/1/1 134/2/1 135/3/1 136/4/1
f 137/41/1 138/42/1 139/43/1 140/44/1
f 138/41/1 141/42/1 142/43/1 139/44/1
f 143/1/1 144/2/1 145/3/1 146/4/1
f 144/1/1 147/2/1 148/3/1 145/4/1
f 147/1/1 149/2/1 150/3/1 148/4/1
f 151/5/1 152/6/1 153/7/1 154/8/1
f 155/1/1 156/2/1 157/3/1 158/4/1
f 159/45/1 160/46/1 161/47/1 162/48/1
f 163/1/1 164/2/1 165/3/1 166/4/1
f 164/1/1 167/2/1 168/3/1 165/4/1
f 169/41/1 170/42/1 171/43/1 172/44/1
f 173/1/1 174/2/1 175/3/1 176/4/1
f 177/5/1 178/6/1 179/7/1 180/8/1
f 178/5/1 181/6/1 182/7/1 179/8/1
f 181/17/1 183/18/1 65/19/1 182/20/1
f 183/17/1 184/18/1 66/19/1 65/20/1
f 184/17/1 185/18/1 186/19/1 66/20/1
f 185/21/1 187/22/1 188/23/1 186/24/1
f 187/21/1 189/22/1 69/23/1 188/24/1
f 190/17/1 191/18/1 81/19/1 79/20/1
f 191/17/1 192/18/1 82/19/1 81/20/1
f 192/17/1 193/18/1 194/19/1 82/20/1
f 193/21/1 195/22/1 196/23/1 194/24/1
f 195/21/1 197/22/1 198/23/1 196/24/1
f 197/21/1 199/22/1 200/23/1 198/24/1
f 199/17/1 201/18/1 85/19/1 200/20/1
f 201/17/1 202/18/1 86/19/1 85/20/1
f 202/17/1 203/18/1 204/19/1 86/20/1
f 203/49/1 205/50/1 206/51/1 204/52/1
f 205/41/1 207/42/1 208/43/1 206/44/1
f 209/1/1 210/2/1 211/3/1 212/4/1
f 210/1/1 213/2/1 214/3/1 211/4/1
f 215/53/1 216/54/1 89/55/1 217/56/1
f 216/57/1 218/58/1 90/59/1 89/60/1
f 218/61/1 219/62/1 93/63/1 90/64/1
f 220/1/1 221/2/1 222/3/1 223/4/1
f 221/1/1 224/2/1 225/3/1 222/4/1
f 226/49/1 227/50/1 228/51/1 229/52/1
f 227/41/1 230/42/1 231/43/1 228/44/1
f 232/17/1 233/18/1 96/19/1 95/20/1
f 233/17/1 234/18/1 235/19/1 96/20/1
f 234/17/1 236/18/1 97/19/1 235/20/1
f 236/17/1 237/18/1 98/19/1 97/20/1
f 237/17/1 238/18/1 101/19/1 98/20/1
f 238/17/1 239/18/1 103/19/1 101/20/1
f 239/17/1 240/18/1 105/19/1 103/20/1
f 240/17/1 241/18/1 107/19/1 105/20/1
f 241/17/1 242/18/1 109/19/1 107/20/1
f 242/17/1 243/18/1 244/19/1 109/20/1
f 243/21/1 245/22/1 246/23/1 244/24/1
f 245/21/1 247/22/1 248/23/1 246/24/1
f 247/21/1 249/22/1 250/23/1 248/24/1
f 249/21/1 251/22/1 252/23/1 250/24/1
f 251/21/1 253/22/1 254/23/1 252/24/1
f 253/17/1 255/18/1 256/19/1 254/20/1
f 255/17/1 257/18/1 111/19/1 256/20/1
f 257/17/1 258/18/1 112/19/1 111/20/1
f 258/17/1 259/18/1 115/19/1 112/20/1
f 259/17/1 260/18/1 117/19/1 115/20/1
f 260/17/1 261/18/1 119/19/1 117/20/1
f 261/17/1 262/18/1 121/19/1 119/20/1
f 262/17/1 263/18/1 122/19/1 121/20/1
f 263/17/1 264/18/1 125/19/1 122/20/1
f 264/17/1 265/18/1 127/19/1 125/20/1
f 265/17/1 266/18/1 129/19/1 127/20/1
f 266/17/1 267/18/1 130/19/1 129/20/1
f 267/17/1 268/18/1 132/19/1 130/20/1
f 268/17/1 269/18/1 270/19/1 132/20/1
f 269/17/1 271/18/1 133/19/1 270/20/1
f 271/17/1 272/18/1 134/19/1 133/20/1
f 272/17/1 273/18/1 137/19/1 134/20/1
f 273/17/1 274/18/1 138/19/1 137/20/1
f 274/17/1 275/18/1 141/19/1 138/20/1
f 275/17/1 276/18/1 143/19/1 141/20/1
f 276/17/1 277/18/1 144/19/1 143/20/1
f 277/17/1 278/18/1 147/19/1 144/20/1
f 278/17/1 279/18/1 149/19/1 147/20/1
f 279/17/1 280/18/1 151/19/1 149/20/1
f 280/17/1 281/18/1 152/19/1 151/20/1
f 281/17/1 282/18/1 155/19/1 152/20/1
f 282/17/1 283/18/1 156/19/1 155/20/1
f 283/17/1 284/18/1 159/19/1 156/20/1
f 284/17/1 285/18/1 160/19/1 159/20/1
f 285/17/1 286/18/1 163/19/1 160/20/1
f 286/17/1 287/18/1 164/19/1 163/20/1
f 287/17/1 288/18/1 167/19/1 164/20/1
f 288/17/1 289/18/1 169/19/1 167/20/1
f 289/17/1 290/18/1 170/19/1 169/20/1
f 290/17/1 291/18/1 292/19/1 170/20/1
f 291/17/1 293/18/1 294/19/1 292/20/1
f 293/17/1 295/18/1 296/19/1 294/20/1
f 297/1/1 298/2/1 299/3/1 300/4/1
f 301/17/1 302/18/1 173/19/1 303/20/1
f 302/17/1 304/18/1 174/19/1 173/20/1
f 304/17/1 305/18/1 177/19/1 174/20/1
f 305/17/1 306/18/1 178/19/1 177/20/1
f 306/17/1 307/18/1 181/19/1 178/20/1
f 308/17/1 309/18/1 205/19/1 203/20/1
f 309/17/1 310/18/1 207/19/1 205/20/1
f 310/17/1 311/18/1 209/19/1 207/20/1
f 311/17/1 312/18/1 210/19/1 209/20/1
f 312/17/1 313/18/1 213/19/1 210/20/1
f 313/17/1 314/18/1 315/19/1 213/20/1
f 314/21/1 316/22/1 317/23/1 315/24/1
f 316/21/1 318/22/1 319/23/1 317/24/1
f 320/1/1 321/2/1 322/3/1 323/4/1
f 321/1/1 324/2/1 325/3/1 322/4/1
f 324/1/1 326/2/1 327/3/1 325/4/1
f 326/1/1 328/2/1 329/3/1 327/4/1
f 330/45/1 331/46/1 332/47/1 333/48/1
f 331/45/1 334/46/1 335/47/1 332/48/1
f 336/1/1 337/2/1 338/3/1 339/4/1
f 337/1/1 340/2/1 341/3/1 338/4/1
f 340/1/1 342/2/1 343/3/1 341/4/1
f 342/1/1 344/2/1 345/3/1 343/4/1
f 346/17/1 347/18/1 216/19/1 215/20/1
f 347/17/1 348/18/1 218/19/1 216/20/1
f 348/17/1 349/18/1 219/19/1 218/20/1
f 349/17/1 350/18/1 220/19/1 219/20/1
f 350/17/1 351/18/1 221/19/1 220/20/1
f 351/17/1 352/18/1 224/19/1 221/20/1
f 352/17/1 353/18/1 226/19/1 224/20/1
f 353/17/1 354/18/1 227/19/1 226/20/1
f 354/17/1 355/18/1 230/19/1 227/20/1
f 355/17/1 356/18/1 357/19/1 230/20/1
f 356/17/1 358/18/1 359/19/1 357/20/1
f 358/17/1 360/18/1 232/19/1 359/20/1
f 361/17/1 362/18/1 297/19/1 363/20/1
f 362/17/1 364/18/1 298/19/1 297/20/1
f 364/17/1 365/18/1 366/19/1 298/20/1
f 365/21/1 367/22/1 368/23/1 366/24/1
f 367/21/1 369/22/1 301/23/1 368/24/1
f 370/17/1 371/18/1 320/19/1 318/20/1
f 371/17/1 372/18/1 321/19/1 320/20/1
f 372/17/1 373/18/1 324/19/1 321/20/1
f 373/17/1 374/18/1 326/19/1 324/20/1
f 374/17/1 375/18/1 328/19/1 326/20/1
f 375/17/1 376/18/1 330/19/1 328/20/1
f 376/17/1 377/18/1 331/19/1 330/20/1
f 377/17/1 378/18/1 334/19/1 331/20/1
f 378/17/1 379/18/1 336/19/1 334/20/1
f 379/17/1 380/18/1 337/19/1 336/20/1
f 380/17/1 381/18/1 340/19/1 337/20/1
f 381/17/1 382/18/1 342/19/1 340/20/1
f 382/17/1 383/18/1 344/19/1 342/20/1
f 383/17/1 384/18/1 385/19/1 344/20/1

