# Wavefront OBJ file automatically generated by Tiled2Unity

# Vertices (Count = 401)
v 0 -400 0
v -80 -400 0
v -80 -320 0
v 0 -320 0
v -160 -400 0
v -160 -320 0
v -240 -400 0
v -240 -320 0
v -5760 -400 0
v -5840 -400 0
v -5840 -320 0
v -5760 -320 0
v -5920 -400 0
v -5920 -320 0
v -6000 -400 0
v -6000 -320 0
v -400 -480 0
v -480 -480 0
v -480 -400 0
v -400 -400 0
v -560 -480 0
v -560 -400 0
v -640 -480 0
v -640 -400 0
v -720 -480 0
v -720 -400 0
v -800 -480 0
v -800 -400 0
v -880 -480 0
v -960 -480 0
v -960 -400 0
v -880 -400 0
v -1040 -480 0
v -1040 -400 0
v -1120 -480 0
v -1120 -400 0
v -1200 -480 0
v -1200 -400 0
v -1280 -480 0
v -1280 -400 0
v -1360 -480 0
v -1440 -480 0
v -1440 -400 0
v -1360 -400 0
v -1520 -480 0
v -1520 -400 0
v -1680 -480 0
v -1760 -480 0
v -1760 -400 0
v -1680 -400 0
v -1840 -480 0
v -1840 -400 0
v -1920 -480 0
v -2000 -480 0
v -2000 -400 0
v -1920 -400 0
v -2080 -480 0
v -2080 -400 0
v -2240 -480 0
v -2320 -480 0
v -2320 -400 0
v -2240 -400 0
v -2400 -480 0
v -2400 -400 0
v -2560 -480 0
v -2640 -480 0
v -2640 -400 0
v -2560 -400 0
v -2720 -480 0
v -2720 -400 0
v -2800 -480 0
v -2800 -400 0
v -2880 -480 0
v -2880 -400 0
v -3040 -480 0
v -3120 -480 0
v -3120 -400 0
v -3040 -400 0
v -3200 -480 0
v -3280 -480 0
v -3280 -400 0
v -3200 -400 0
v -3360 -480 0
v -3360 -400 0
v -3440 -480 0
v -3520 -480 0
v -3520 -400 0
v -3440 -400 0
v -3600 -480 0
v -3680 -480 0
v -3680 -400 0
v -3600 -400 0
v -3760 -480 0
v -3760 -400 0
v -4000 -480 0
v -4080 -480 0
v -4080 -400 0
v -4000 -400 0
v -4160 -480 0
v -4160 -400 0
v -4240 -480 0
v -4320 -480 0
v -4320 -400 0
v -4240 -400 0
v -4400 -480 0
v -4400 -400 0
v -4560 -480 0
v -4640 -480 0
v -4640 -400 0
v -4560 -400 0
v -4720 -480 0
v -4720 -400 0
v -4880 -480 0
v -4960 -480 0
v -4960 -400 0
v -4880 -400 0
v -5040 -480 0
v -5120 -480 0
v -5120 -400 0
v -5040 -400 0
v -5360 -480 0
v -5440 -480 0
v -5440 -400 0
v -5360 -400 0
v -5520 -480 0
v -5520 -400 0
v -400 -560 0
v -480 -560 0
v -560 -560 0
v -640 -560 0
v -720 -560 0
v -800 -560 0
v -880 -560 0
v -960 -560 0
v -1040 -560 0
v -1120 -560 0
v -1200 -560 0
v -1280 -560 0
v -1360 -560 0
v -1440 -560 0
v -1520 -560 0
v -1680 -560 0
v -1760 -560 0
v -1840 -560 0
v -1920 -560 0
v -2000 -560 0
v -2080 -560 0
v -2240 -560 0
v -2320 -560 0
v -2400 -560 0
v -2560 -560 0
v -2640 -560 0
v -2720 -560 0
v -2800 -560 0
v -2880 -560 0
v -3040 -560 0
v -3120 -560 0
v -3200 -560 0
v -3280 -560 0
v -3360 -560 0
v -3440 -560 0
v -3520 -560 0
v -3600 -560 0
v -3680 -560 0
v -3760 -560 0
v -4000 -560 0
v -4080 -560 0
v -4160 -560 0
v -4240 -560 0
v -4320 -560 0
v -4400 -560 0
v -4560 -560 0
v -4640 -560 0
v -4720 -560 0
v -4880 -560 0
v -4960 -560 0
v -5040 -560 0
v -5120 -560 0
v -5360 -560 0
v -5440 -560 0
v -5520 -560 0
v -80 -640 0
v -160 -640 0
v -160 -560 0
v -80 -560 0
v -240 -640 0
v -240 -560 0
v -400 -640 0
v -480 -640 0
v -560 -640 0
v -640 -640 0
v -720 -640 0
v -800 -640 0
v -880 -640 0
v -960 -640 0
v -1040 -640 0
v -1120 -640 0
v -1200 -640 0
v -1280 -640 0
v -1360 -640 0
v -1440 -640 0
v -1520 -640 0
v -1680 -640 0
v -1760 -640 0
v -1840 -640 0
v -1920 -640 0
v -2000 -640 0
v -2080 -640 0
v -2240 -640 0
v -2320 -640 0
v -2400 -640 0
v -2560 -640 0
v -2640 -640 0
v -2720 -640 0
v -2800 -640 0
v -2880 -640 0
v -3040 -640 0
v -3120 -640 0
v -3200 -640 0
v -3280 -640 0
v -3360 -640 0
v -3440 -640 0
v -3520 -640 0
v -3600 -640 0
v -3680 -640 0
v -3760 -640 0
v -4000 -640 0
v -4080 -640 0
v -4160 -640 0
v -4240 -640 0
v -4320 -640 0
v -4400 -640 0
v -4560 -640 0
v -4640 -640 0
v -4720 -640 0
v -4880 -640 0
v -4960 -640 0
v -5040 -640 0
v -5120 -640 0
v -5360 -640 0
v -5440 -640 0
v -5520 -640 0
v -5840 -640 0
v -5920 -640 0
v -5920 -560 0
v -5840 -560 0
v -6000 -640 0
v -6000 -560 0
v 0 -720 0
v -80 -720 0
v 0 -640 0
v -160 -720 0
v -240 -720 0
v -400 -720 0
v -480 -720 0
v -560 -720 0
v -640 -720 0
v -720 -720 0
v -800 -720 0
v -880 -720 0
v -960 -720 0
v -1040 -720 0
v -1120 -720 0
v -1200 -720 0
v -1280 -720 0
v -1360 -720 0
v -1440 -720 0
v -1520 -720 0
v -1680 -720 0
v -1760 -720 0
v -1840 -720 0
v -1920 -720 0
v -2000 -720 0
v -2080 -720 0
v -2240 -720 0
v -2320 -720 0
v -2400 -720 0
v -2560 -720 0
v -2640 -720 0
v -2720 -720 0
v -2800 -720 0
v -2880 -720 0
v -3040 -720 0
v -3120 -720 0
v -3200 -720 0
v -3280 -720 0
v -3360 -720 0
v -3440 -720 0
v -3520 -720 0
v -3600 -720 0
v -3680 -720 0
v -3760 -720 0
v -4000 -720 0
v -4080 -720 0
v -4160 -720 0
v -4240 -720 0
v -4320 -720 0
v -4400 -720 0
v -4560 -720 0
v -4640 -720 0
v -4720 -720 0
v -4880 -720 0
v -4960 -720 0
v -5040 -720 0
v -5120 -720 0
v -5360 -720 0
v -5440 -720 0
v -5520 -720 0
v -5840 -720 0
v -5920 -720 0
v -6000 -720 0
v 0 -800 0
v -80 -800 0
v -160 -800 0
v -240 -800 0
v -320 -800 0
v -320 -720 0
v -400 -800 0
v -480 -800 0
v -560 -800 0
v -640 -800 0
v -720 -800 0
v -800 -800 0
v -880 -800 0
v -960 -800 0
v -1040 -800 0
v -1120 -800 0
v -1200 -800 0
v -1280 -800 0
v -1360 -800 0
v -1440 -800 0
v -1520 -800 0
v -1600 -800 0
v -1600 -720 0
v -1680 -800 0
v -1760 -800 0
v -1840 -800 0
v -1920 -800 0
v -2000 -800 0
v -2080 -800 0
v -2160 -800 0
v -2160 -720 0
v -2240 -800 0
v -2320 -800 0
v -2400 -800 0
v -2480 -800 0
v -2480 -720 0
v -2560 -800 0
v -2640 -800 0
v -2720 -800 0
v -2800 -800 0
v -2880 -800 0
v -2960 -800 0
v -2960 -720 0
v -3040 -800 0
v -3120 -800 0
v -3200 -800 0
v -3280 -800 0
v -3360 -800 0
v -3440 -800 0
v -3520 -800 0
v -3600 -800 0
v -3680 -800 0
v -3760 -800 0
v -3840 -800 0
v -3840 -720 0
v -3920 -800 0
v -3920 -720 0
v -4000 -800 0
v -4080 -800 0
v -4160 -800 0
v -4240 -800 0
v -4320 -800 0
v -4400 -800 0
v -4480 -800 0
v -4480 -720 0
v -4560 -800 0
v -4640 -800 0
v -4720 -800 0
v -4800 -800 0
v -4800 -720 0
v -4880 -800 0
v -4960 -800 0
v -5040 -800 0
v -5120 -800 0
v -5200 -800 0
v -5200 -720 0
v -5280 -800 0
v -5280 -720 0
v -5360 -800 0
v -5440 -800 0
v -5520 -800 0
v -5600 -800 0
v -5600 -720 0
v -5680 -800 0
v -5680 -720 0
v -5760 -800 0
v -5760 -720 0
v -5840 -800 0
v -5920 -800 0
v -6000 -800 0

# Texture cooridinates (Count = 48)
vt 0.1251221 0.7501221
vt 0.2498779 0.7501221
vt 0.2498779 0.9998779
vt 0.1251221 0.9998779
vt 0.2501221 0.7501221
vt 0.3748779 0.7501221
vt 0.3748779 0.9998779
vt 0.2501221 0.9998779
vt 0.2501221 0.2501221
vt 0.3748779 0.2501221
vt 0.3748779 0.4998779
vt 0.2501221 0.4998779
vt 0.3751221 0.2501221
vt 0.4998779 0.2501221
vt 0.4998779 0.4998779
vt 0.3751221 0.4998779
vt 0.0001220703 0.2501221
vt 0.1248779 0.2501221
vt 0.1248779 0.4998779
vt 0.0001220703 0.4998779
vt 0.1251221 0.2501221
vt 0.2498779 0.2501221
vt 0.2498779 0.4998779
vt 0.1251221 0.4998779
vt 0.0001220703 0.7501221
vt 0.1248779 0.7501221
vt 0.1248779 0.9998779
vt 0.0001220703 0.9998779
vt 0.2501221 0.0001220703
vt 0.3748779 0.0001220703
vt 0.3748779 0.2498779
vt 0.2501221 0.2498779
vt 0.3751221 0.0001220703
vt 0.4998779 0.0001220703
vt 0.4998779 0.2498779
vt 0.3751221 0.2498779
vt 0.0001220703 0.0001220703
vt 0.1248779 0.0001220703
vt 0.1248779 0.2498779
vt 0.0001220703 0.2498779
vt 0.1251221 0.0001220703
vt 0.2498779 0.0001220703
vt 0.2498779 0.2498779
vt 0.1251221 0.2498779
vt 0.8751221 0.7501221
vt 0.9998779 0.7501221
vt 0.9998779 0.9998779
vt 0.8751221 0.9998779

# Normal
vn 0 0 -1

# Groups (Count = 1)

g mesh_0001
f 1/1/1 2/2/1 3/3/1 4/4/1
f 2/1/1 5/2/1 6/3/1 3/4/1
f 5/1/1 7/2/1 8/3/1 6/4/1
f 9/1/1 10/2/1 11/3/1 12/4/1
f 10/1/1 13/2/1 14/3/1 11/4/1
f 13/1/1 15/2/1 16/3/1 14/4/1
f 17/5/1 18/6/1 19/7/1 20/8/1
f 18/5/1 21/6/1 22/7/1 19/8/1
f 21/5/1 23/6/1 24/7/1 22/8/1
f 23/5/1 25/6/1 26/7/1 24/8/1
f 25/5/1 27/6/1 28/7/1 26/8/1
f 29/5/1 30/6/1 31/7/1 32/8/1
f 30/5/1 33/6/1 34/7/1 31/8/1
f 33/5/1 35/6/1 36/7/1 34/8/1
f 35/5/1 37/6/1 38/7/1 36/8/1
f 37/5/1 39/6/1 40/7/1 38/8/1
f 41/5/1 42/6/1 43/7/1 44/8/1
f 42/5/1 45/6/1 46/7/1 43/8/1
f 47/5/1 48/6/1 49/7/1 50/8/1
f 48/5/1 51/6/1 52/7/1 49/8/1
f 53/5/1 54/6/1 55/7/1 56/8/1
f 54/5/1 57/6/1 58/7/1 55/8/1
f 59/5/1 60/6/1 61/7/1 62/8/1
f 60/5/1 63/6/1 64/7/1 61/8/1
f 65/5/1 66/6/1 67/7/1 68/8/1
f 66/5/1 69/6/1 70/7/1 67/8/1
f 69/5/1 71/6/1 72/7/1 70/8/1
f 71/5/1 73/6/1 74/7/1 72/8/1
f 75/5/1 76/6/1 77/7/1 78/8/1
f 79/5/1 80/6/1 81/7/1 82/8/1
f 80/5/1 83/6/1 84/7/1 81/8/1
f 85/5/1 86/6/1 87/7/1 88/8/1
f 89/5/1 90/6/1 91/7/1 92/8/1
f 90/5/1 93/6/1 94/7/1 91/8/1
f 95/5/1 96/6/1 97/7/1 98/8/1
f 96/5/1 99/6/1 100/7/1 97/8/1
f 101/5/1 102/6/1 103/7/1 104/8/1
f 102/5/1 105/6/1 106/7/1 103/8/1
f 107/5/1 108/6/1 109/7/1 110/8/1
f 108/5/1 111/6/1 112/7/1 109/8/1
f 113/5/1 114/6/1 115/7/1 116/8/1
f 117/5/1 118/6/1 119/7/1 120/8/1
f 121/5/1 122/6/1 123/7/1 124/8/1
f 122/5/1 125/6/1 126/7/1 123/8/1
f 127/5/1 128/6/1 18/7/1 17/8/1
f 128/5/1 129/6/1 21/7/1 18/8/1
f 129/5/1 130/6/1 23/7/1 21/8/1
f 130/5/1 131/6/1 25/7/1 23/8/1
f 131/5/1 132/6/1 27/7/1 25/8/1
f 133/5/1 134/6/1 30/7/1 29/8/1
f 134/5/1 135/6/1 33/7/1 30/8/1
f 135/5/1 136/6/1 35/7/1 33/8/1
f 136/5/1 137/6/1 37/7/1 35/8/1
f 137/5/1 138/6/1 39/7/1 37/8/1
f 139/5/1 140/6/1 42/7/1 41/8/1
f 140/5/1 141/6/1 45/7/1 42/8/1
f 142/5/1 143/6/1 48/7/1 47/8/1
f 143/5/1 144/6/1 51/7/1 48/8/1
f 145/5/1 146/6/1 54/7/1 53/8/1
f 146/5/1 147/6/1 57/7/1 54/8/1
f 148/5/1 149/6/1 60/7/1 59/8/1
f 149/5/1 150/6/1 63/7/1 60/8/1
f 151/5/1 152/6/1 66/7/1 65/8/1
f 152/5/1 153/6/1 69/7/1 66/8/1
f 153/5/1 154/6/1 71/7/1 69/8/1
f 154/5/1 155/6/1 73/7/1 71/8/1
f 156/5/1 157/6/1 76/7/1 75/8/1
f 158/5/1 159/6/1 80/7/1 79/8/1
f 159/5/1 160/6/1 83/7/1 80/8/1
f 161/5/1 162/6/1 86/7/1 85/8/1
f 163/5/1 164/6/1 90/7/1 89/8/1
f 164/5/1 165/6/1 93/7/1 90/8/1
f 166/5/1 167/6/1 96/7/1 95/8/1
f 167/5/1 168/6/1 99/7/1 96/8/1
f 169/5/1 170/6/1 102/7/1 101/8/1
f 170/5/1 171/6/1 105/7/1 102/8/1
f 172/5/1 173/6/1 108/7/1 107/8/1
f 173/5/1 174/6/1 111/7/1 108/8/1
f 175/5/1 176/6/1 114/7/1 113/8/1
f 177/5/1 178/6/1 118/7/1 117/8/1
f 179/5/1 180/6/1 122/7/1 121/8/1
f 180/5/1 181/6/1 125/7/1 122/8/1
f 182/9/1 183/10/1 184/11/1 185/12/1
f 183/13/1 186/14/1 187/15/1 184/16/1
f 188/5/1 189/6/1 128/7/1 127/8/1
f 189/5/1 190/6/1 129/7/1 128/8/1
f 190/5/1 191/6/1 130/7/1 129/8/1
f 191/5/1 192/6/1 131/7/1 130/8/1
f 192/5/1 193/6/1 132/7/1 131/8/1
f 194/5/1 195/6/1 134/7/1 133/8/1
f 195/5/1 196/6/1 135/7/1 134/8/1
f 196/5/1 197/6/1 136/7/1 135/8/1
f 197/5/1 198/6/1 137/7/1 136/8/1
f 198/5/1 199/6/1 138/7/1 137/8/1
f 200/5/1 201/6/1 140/7/1 139/8/1
f 201/5/1 202/6/1 141/7/1 140/8/1
f 203/5/1 204/6/1 143/7/1 142/8/1
f 204/5/1 205/6/1 144/7/1 143/8/1
f 206/5/1 207/6/1 146/7/1 145/8/1
f 207/5/1 208/6/1 147/7/1 146/8/1
f 209/5/1 210/6/1 149/7/1 148/8/1
f 210/5/1 211/6/1 150/7/1 149/8/1
f 212/5/1 213/6/1 152/7/1 151/8/1
f 213/5/1 214/6/1 153/7/1 152/8/1
f 214/5/1 215/6/1 154/7/1 153/8/1
f 215/5/1 216/6/1 155/7/1 154/8/1
f 217/5/1 218/6/1 157/7/1 156/8/1
f 219/5/1 220/6/1 159/7/1 158/8/1
f 220/5/1 221/6/1 160/7/1 159/8/1
f 222/5/1 223/6/1 162/7/1 161/8/1
f 224/5/1 225/6/1 164/7/1 163/8/1
f 225/5/1 226/6/1 165/7/1 164/8/1
f 227/5/1 228/6/1 167/7/1 166/8/1
f 228/5/1 229/6/1 168/7/1 167/8/1
f 230/5/1 231/6/1 170/7/1 169/8/1
f 231/5/1 232/6/1 171/7/1 170/8/1
f 233/5/1 234/6/1 173/7/1 172/8/1
f 234/5/1 235/6/1 174/7/1 173/8/1
f 236/5/1 237/6/1 176/7/1 175/8/1
f 238/5/1 239/6/1 178/7/1 177/8/1
f 240/5/1 241/6/1 180/7/1 179/8/1
f 241/5/1 242/6/1 181/7/1 180/8/1
f 243/17/1 244/18/1 245/19/1 246/20/1
f 244/21/1 247/22/1 248/23/1 245/24/1
f 249/25/1 250/26/1 182/27/1 251/28/1
f 250/29/1 252/30/1 183/31/1 182/32/1
f 252/33/1 253/34/1 186/35/1 183/36/1
f 254/5/1 255/6/1 189/7/1 188/8/1
f 255/5/1 256/6/1 190/7/1 189/8/1
f 256/5/1 257/6/1 191/7/1 190/8/1
f 257/5/1 258/6/1 192/7/1 191/8/1
f 258/5/1 259/6/1 193/7/1 192/8/1
f 260/5/1 261/6/1 195/7/1 194/8/1
f 261/5/1 262/6/1 196/7/1 195/8/1
f 262/5/1 263/6/1 197/7/1 196/8/1
f 263/5/1 264/6/1 198/7/1 197/8/1
f 264/5/1 265/6/1 199/7/1 198/8/1
f 266/5/1 267/6/1 201/7/1 200/8/1
f 267/5/1 268/6/1 202/7/1 201/8/1
f 269/5/1 270/6/1 204/7/1 203/8/1
f 270/5/1 271/6/1 205/7/1 204/8/1
f 272/5/1 273/6/1 207/7/1 206/8/1
f 273/5/1 274/6/1 208/7/1 207/8/1
f 275/5/1 276/6/1 210/7/1 209/8/1
f 276/5/1 277/6/1 211/7/1 210/8/1
f 278/5/1 279/6/1 213/7/1 212/8/1
f 279/5/1 280/6/1 214/7/1 213/8/1
f 280/5/1 281/6/1 215/7/1 214/8/1
f 281/5/1 282/6/1 216/7/1 215/8/1
f 283/5/1 284/6/1 218/7/1 217/8/1
f 285/5/1 286/6/1 220/7/1 219/8/1
f 286/5/1 287/6/1 221/7/1 220/8/1
f 288/5/1 289/6/1 223/7/1 222/8/1
f 290/5/1 291/6/1 225/7/1 224/8/1
f 291/5/1 292/6/1 226/7/1 225/8/1
f 293/5/1 294/6/1 228/7/1 227/8/1
f 294/5/1 295/6/1 229/7/1 228/8/1
f 296/5/1 297/6/1 231/7/1 230/8/1
f 297/5/1 298/6/1 232/7/1 231/8/1
f 299/5/1 300/6/1 234/7/1 233/8/1
f 300/5/1 301/6/1 235/7/1 234/8/1
f 302/5/1 303/6/1 237/7/1 236/8/1
f 304/5/1 305/6/1 239/7/1 238/8/1
f 306/5/1 307/6/1 241/7/1 240/8/1
f 307/5/1 308/6/1 242/7/1 241/8/1
f 309/37/1 310/38/1 244/39/1 243/40/1
f 310/41/1 311/42/1 247/43/1 244/44/1
f 312/1/1 313/2/1 250/3/1 249/4/1
f 313/1/1 314/2/1 252/3/1 250/4/1
f 314/1/1 315/2/1 253/3/1 252/4/1
f 315/1/1 316/2/1 317/3/1 253/4/1
f 316/45/1 318/46/1 254/47/1 317/48/1
f 318/1/1 319/2/1 255/3/1 254/4/1
f 319/1/1 320/2/1 256/3/1 255/4/1
f 320/1/1 321/2/1 257/3/1 256/4/1
f 321/1/1 322/2/1 258/3/1 257/4/1
f 322/1/1 323/2/1 259/3/1 258/4/1
f 323/45/1 324/46/1 260/47/1 259/48/1
f 324/1/1 325/2/1 261/3/1 260/4/1
f 325/1/1 326/2/1 262/3/1 261/4/1
f 326/1/1 327/2/1 263/3/1 262/4/1
f 327/1/1 328/2/1 264/3/1 263/4/1
f 328/1/1 329/2/1 265/3/1 264/4/1
f 329/45/1 330/46/1 266/47/1 265/48/1
f 330/1/1 331/2/1 267/3/1 266/4/1
f 331/1/1 332/2/1 268/3/1 267/4/1
f 332/1/1 333/2/1 334/3/1 268/4/1
f 333/1/1 335/2/1 269/3/1 334/4/1
f 335/1/1 336/2/1 270/3/1 269/4/1
f 336/1/1 337/2/1 271/3/1 270/4/1
f 337/45/1 338/46/1 272/47/1 271/48/1
f 338/1/1 339/2/1 273/3/1 272/4/1
f 339/1/1 340/2/1 274/3/1 273/4/1
f 340/1/1 341/2/1 342/3/1 274/4/1
f 341/1/1 343/2/1 275/3/1 342/4/1
f 343/1/1 344/2/1 276/3/1 275/4/1
f 344/1/1 345/2/1 277/3/1 276/4/1
f 345/45/1 346/46/1 347/47/1 277/48/1
f 346/1/1 348/2/1 278/3/1 347/4/1
f 348/1/1 349/2/1 279/3/1 278/4/1
f 349/1/1 350/2/1 280/3/1 279/4/1
f 350/1/1 351/2/1 281/3/1 280/4/1
f 351/1/1 352/2/1 282/3/1 281/4/1
f 352/1/1 353/2/1 354/3/1 282/4/1
f 353/45/1 355/46/1 283/47/1 354/48/1
f 355/1/1 356/2/1 284/3/1 283/4/1
f 356/1/1 357/2/1 285/3/1 284/4/1
f 357/1/1 358/2/1 286/3/1 285/4/1
f 358/1/1 359/2/1 287/3/1 286/4/1
f 359/1/1 360/2/1 288/3/1 287/4/1
f 360/1/1 361/2/1 289/3/1 288/4/1
f 361/45/1 362/46/1 290/47/1 289/48/1
f 362/1/1 363/2/1 291/3/1 290/4/1
f 363/1/1 364/2/1 292/3/1 291/4/1
f 364/1/1 365/2/1 366/3/1 292/4/1
f 365/1/1 367/2/1 368/3/1 366/4/1
f 367/1/1 369/2/1 293/3/1 368/4/1
f 369/1/1 370/2/1 294/3/1 293/4/1
f 370/1/1 371/2/1 295/3/1 294/4/1
f 371/45/1 372/46/1 296/47/1 295/48/1
f 372/1/1 373/2/1 297/3/1 296/4/1
f 373/1/1 374/2/1 298/3/1 297/4/1
f 374/1/1 375/2/1 376/3/1 298/4/1
f 375/1/1 377/2/1 299/3/1 376/4/1
f 377/1/1 378/2/1 300/3/1 299/4/1
f 378/1/1 379/2/1 301/3/1 300/4/1
f 379/45/1 380/46/1 381/47/1 301/48/1
f 380/1/1 382/2/1 302/3/1 381/4/1
f 382/1/1 383/2/1 303/3/1 302/4/1
f 383/1/1 384/2/1 304/3/1 303/4/1
f 384/1/1 385/2/1 305/3/1 304/4/1
f 385/1/1 386/2/1 387/3/1 305/4/1
f 386/45/1 388/46/1 389/47/1 387/48/1
f 388/1/1 390/2/1 306/3/1 389/4/1
f 390/1/1 391/2/1 307/3/1 306/4/1
f 391/1/1 392/2/1 308/3/1 307/4/1
f 392/1/1 393/2/1 394/3/1 308/4/1
f 393/45/1 395/46/1 396/47/1 394/48/1
f 395/1/1 397/2/1 398/3/1 396/4/1
f 397/1/1 399/2/1 309/3/1 398/4/1
f 399/1/1 400/2/1 310/3/1 309/4/1
f 400/1/1 401/2/1 311/3/1 310/4/1

