# Wavefront OBJ file automatically generated by Tiled2Unity

# Vertices (Count = 392)
v -80 -320 0
v -160 -320 0
v -160 -240 0
v -80 -240 0
v -240 -320 0
v -240 -240 0
v -4960 -320 0
v -5040 -320 0
v -5040 -240 0
v -4960 -240 0
v -5120 -320 0
v -5120 -240 0
v -6960 -320 0
v -7040 -320 0
v -7040 -240 0
v -6960 -240 0
v -7120 -320 0
v -7120 -240 0
v -10080 -320 0
v -10160 -320 0
v -10160 -240 0
v -10080 -240 0
v -10240 -320 0
v -10240 -240 0
v -10480 -320 0
v -10560 -320 0
v -10560 -240 0
v -10480 -240 0
v -10640 -320 0
v -10640 -240 0
v -10720 -320 0
v -10720 -240 0
v 0 -400 0
v -80 -400 0
v 0 -320 0
v -160 -400 0
v -240 -400 0
v -320 -400 0
v -400 -400 0
v -400 -320 0
v -320 -320 0
v -480 -400 0
v -480 -320 0
v -560 -400 0
v -560 -320 0
v -640 -400 0
v -640 -320 0
v -720 -400 0
v -720 -320 0
v -800 -400 0
v -880 -400 0
v -880 -320 0
v -800 -320 0
v -4880 -400 0
v -4960 -400 0
v -4880 -320 0
v -5040 -400 0
v -5120 -400 0
v -5200 -400 0
v -5200 -320 0
v -5280 -400 0
v -5280 -320 0
v -5360 -400 0
v -5360 -320 0
v -5440 -400 0
v -5440 -320 0
v -6880 -400 0
v -6960 -400 0
v -6880 -320 0
v -7040 -400 0
v -7120 -400 0
v -7200 -400 0
v -7200 -320 0
v -7280 -400 0
v -7280 -320 0
v -7360 -400 0
v -7360 -320 0
v -7440 -400 0
v -7440 -320 0
v -9760 -400 0
v -9840 -400 0
v -9840 -320 0
v -9760 -320 0
v -9920 -400 0
v -9920 -320 0
v -10000 -400 0
v -10080 -400 0
v -10000 -320 0
v -10160 -400 0
v -10240 -400 0
v -10320 -400 0
v -10320 -320 0
v -10400 -400 0
v -10400 -320 0
v -10480 -400 0
v -10560 -400 0
v -10640 -400 0
v -10720 -400 0
v -10800 -400 0
v -10800 -320 0
v 0 -480 0
v -80 -480 0
v -160 -480 0
v -240 -480 0
v -320 -480 0
v -400 -480 0
v -480 -480 0
v -560 -480 0
v -640 -480 0
v -720 -480 0
v -800 -480 0
v -880 -480 0
v -960 -480 0
v -960 -400 0
v -5200 -480 0
v -5280 -480 0
v -5360 -480 0
v -5440 -480 0
v -5520 -480 0
v -5600 -480 0
v -5600 -400 0
v -5520 -400 0
v -7200 -480 0
v -7280 -480 0
v -7360 -480 0
v -7440 -480 0
v -7520 -480 0
v -7600 -480 0
v -7600 -400 0
v -7520 -400 0
v -9440 -480 0
v -9520 -480 0
v -9520 -400 0
v -9440 -400 0
v -9600 -480 0
v -9600 -400 0
v -9680 -480 0
v -9760 -480 0
v -9680 -400 0
v -9840 -480 0
v -9920 -480 0
v -10000 -480 0
v -5440 -560 0
v -5520 -560 0
v -5600 -560 0
v -5680 -560 0
v -5680 -480 0
v -5760 -560 0
v -5760 -480 0
v -5840 -560 0
v -5840 -480 0
v -7440 -560 0
v -7520 -560 0
v -7600 -560 0
v -7680 -560 0
v -7680 -480 0
v -9200 -560 0
v -9280 -560 0
v -9280 -480 0
v -9200 -480 0
v -9360 -560 0
v -9440 -560 0
v -9360 -480 0
v -9520 -560 0
v -9600 -560 0
v -9680 -560 0
v -1200 -640 0
v -1280 -640 0
v -1280 -560 0
v -1200 -560 0
v -1360 -640 0
v -1360 -560 0
v -1440 -640 0
v -1440 -560 0
v -1760 -640 0
v -1840 -640 0
v -1840 -560 0
v -1760 -560 0
v -1920 -640 0
v -1920 -560 0
v -2240 -640 0
v -2320 -640 0
v -2320 -560 0
v -2240 -560 0
v -2400 -640 0
v -2480 -640 0
v -2480 -560 0
v -2400 -560 0
v -2560 -640 0
v -2560 -560 0
v -2640 -640 0
v -2720 -640 0
v -2720 -560 0
v -2640 -560 0
v -2800 -640 0
v -2800 -560 0
v -2880 -640 0
v -2880 -560 0
v -2960 -640 0
v -3040 -640 0
v -3040 -560 0
v -2960 -560 0
v -3120 -640 0
v -3120 -560 0
v -3200 -640 0
v -3280 -640 0
v -3280 -560 0
v -3200 -560 0
v -4000 -640 0
v -4080 -640 0
v -4080 -560 0
v -4000 -560 0
v -4160 -640 0
v -4160 -560 0
v -4240 -640 0
v -4320 -640 0
v -4320 -560 0
v -4240 -560 0
v -4400 -640 0
v -4400 -560 0
v -4480 -640 0
v -4560 -640 0
v -4560 -560 0
v -4480 -560 0
v -4640 -640 0
v -4640 -560 0
v -5680 -640 0
v -5760 -640 0
v -5840 -640 0
v -5920 -640 0
v -5920 -560 0
v -6000 -640 0
v -6080 -640 0
v -6080 -560 0
v -6000 -560 0
v -6160 -640 0
v -6160 -560 0
v -6240 -640 0
v -6320 -640 0
v -6320 -560 0
v -6240 -560 0
v -6400 -640 0
v -6400 -560 0
v -6480 -640 0
v -6560 -640 0
v -6560 -560 0
v -6480 -560 0
v -6640 -640 0
v -6640 -560 0
v -7680 -640 0
v -7760 -640 0
v -7760 -560 0
v -7840 -640 0
v -7840 -560 0
v -7920 -640 0
v -7920 -560 0
v -8000 -640 0
v -8080 -640 0
v -8080 -560 0
v -8000 -560 0
v -8880 -640 0
v -8960 -640 0
v -8960 -560 0
v -8880 -560 0
v -9040 -640 0
v -9040 -560 0
v -9120 -640 0
v -9200 -640 0
v -9120 -560 0
v -9280 -640 0
v -9360 -640 0
v -1120 -720 0
v -1200 -720 0
v -1120 -640 0
v -1280 -720 0
v -1360 -720 0
v -1440 -720 0
v -1520 -720 0
v -1520 -640 0
v -1600 -720 0
v -1600 -640 0
v -1680 -720 0
v -1680 -640 0
v -1760 -720 0
v -1840 -720 0
v -1920 -720 0
v -2000 -720 0
v -2000 -640 0
v -2080 -720 0
v -2080 -640 0
v -2160 -720 0
v -2160 -640 0
v -2240 -720 0
v -2320 -720 0
v -2400 -720 0
v -2480 -720 0
v -2560 -720 0
v -2640 -720 0
v -2720 -720 0
v -2800 -720 0
v -2880 -720 0
v -2960 -720 0
v -3040 -720 0
v -3120 -720 0
v -3200 -720 0
v -3280 -720 0
v -3360 -720 0
v -3440 -720 0
v -3440 -640 0
v -3360 -640 0
v -3520 -720 0
v -3600 -720 0
v -3600 -640 0
v -3520 -640 0
v -3680 -720 0
v -3680 -640 0
v -3760 -720 0
v -3840 -720 0
v -3840 -640 0
v -3760 -640 0
v -3920 -720 0
v -4000 -720 0
v -3920 -640 0
v -4080 -720 0
v -4160 -720 0
v -4240 -720 0
v -4320 -720 0
v -4400 -720 0
v -4480 -720 0
v -4560 -720 0
v -4640 -720 0
v -4720 -720 0
v -4720 -640 0
v -4800 -720 0
v -4800 -640 0
v -5920 -720 0
v -6000 -720 0
v -6080 -720 0
v -6160 -720 0
v -6240 -720 0
v -6320 -720 0
v -6400 -720 0
v -6480 -720 0
v -6560 -720 0
v -6640 -720 0
v -6720 -720 0
v -6720 -640 0
v -6800 -720 0
v -6800 -640 0
v -7920 -720 0
v -8000 -720 0
v -8080 -720 0
v -8160 -720 0
v -8160 -640 0
v -8240 -720 0
v -8320 -720 0
v -8320 -640 0
v -8240 -640 0
v -8400 -720 0
v -8480 -720 0
v -8480 -640 0
v -8400 -640 0
v -8560 -720 0
v -8560 -640 0
v -8640 -720 0
v -8720 -720 0
v -8720 -640 0
v -8640 -640 0
v -8800 -720 0
v -8880 -720 0
v -8800 -640 0
v -8960 -720 0
v -9040 -720 0
v -9120 -720 0
v -3280 -800 0
v -3360 -800 0
v -3440 -800 0
v -3520 -800 0
v -3600 -800 0
v -3680 -800 0
v -3760 -800 0
v -3840 -800 0
v -3920 -800 0
v -8160 -800 0
v -8240 -800 0
v -8320 -800 0
v -8400 -800 0
v -8480 -800 0
v -8560 -800 0
v -8640 -800 0
v -8720 -800 0
v -8800 -800 0

# Texture cooridinates (Count = 48)
vt 0.2501221 0.2501221
vt 0.3748779 0.2501221
vt 0.3748779 0.4998779
vt 0.2501221 0.4998779
vt 0.3751221 0.2501221
vt 0.4998779 0.2501221
vt 0.4998779 0.4998779
vt 0.3751221 0.4998779
vt 0.2501221 0.7501221
vt 0.3748779 0.7501221
vt 0.3748779 0.9998779
vt 0.2501221 0.9998779
vt 0.0001220703 0.7501221
vt 0.1248779 0.7501221
vt 0.1248779 0.9998779
vt 0.0001220703 0.9998779
vt 0.2501221 0.0001220703
vt 0.3748779 0.0001220703
vt 0.3748779 0.2498779
vt 0.2501221 0.2498779
vt 0.3751221 0.0001220703
vt 0.4998779 0.0001220703
vt 0.4998779 0.2498779
vt 0.3751221 0.2498779
vt 0.6251221 0.7501221
vt 0.7498779 0.7501221
vt 0.7498779 0.9998779
vt 0.6251221 0.9998779
vt 0.1251221 0.7501221
vt 0.2498779 0.7501221
vt 0.2498779 0.9998779
vt 0.1251221 0.9998779
vt 0.2501221 0.5001221
vt 0.3748779 0.5001221
vt 0.3748779 0.7498779
vt 0.2501221 0.7498779
vt 0.3751221 0.7501221
vt 0.4998779 0.7501221
vt 0.4998779 0.9998779
vt 0.3751221 0.9998779
vt 0.5001221 0.7501221
vt 0.6248779 0.7501221
vt 0.6248779 0.9998779
vt 0.5001221 0.9998779
vt 0.8751221 0.7501221
vt 0.9998779 0.7501221
vt 0.9998779 0.9998779
vt 0.8751221 0.9998779

# Normal
vn 0 0 -1

# Groups (Count = 1)

g mesh_0001
f 1/1/1 2/2/1 3/3/1 4/4/1
f 2/5/1 5/6/1 6/7/1 3/8/1
f 7/9/1 8/10/1 9/11/1 10/12/1
f 8/9/1 11/10/1 12/11/1 9/12/1
f 13/9/1 14/10/1 15/11/1 16/12/1
f 14/9/1 17/10/1 18/11/1 15/12/1
f 19/9/1 20/10/1 21/11/1 22/12/1
f 20/9/1 23/10/1 24/11/1 21/12/1
f 25/9/1 26/10/1 27/11/1 28/12/1
f 26/9/1 29/10/1 30/11/1 27/12/1
f 29/9/1 31/10/1 32/11/1 30/12/1
f 33/13/1 34/14/1 1/15/1 35/16/1
f 34/17/1 36/18/1 2/19/1 1/20/1
f 36/21/1 37/22/1 5/23/1 2/24/1
f 38/9/1 39/10/1 40/11/1 41/12/1
f 39/9/1 42/10/1 43/11/1 40/12/1
f 42/9/1 44/10/1 45/11/1 43/12/1
f 44/9/1 46/10/1 47/11/1 45/12/1
f 46/9/1 48/10/1 49/11/1 47/12/1
f 50/25/1 51/26/1 52/27/1 53/28/1
f 54/29/1 55/30/1 7/31/1 56/32/1
f 55/29/1 57/30/1 8/31/1 7/32/1
f 57/29/1 58/30/1 11/31/1 8/32/1
f 58/29/1 59/30/1 60/31/1 11/32/1
f 59/9/1 61/10/1 62/11/1 60/12/1
f 61/9/1 63/10/1 64/11/1 62/12/1
f 63/25/1 65/26/1 66/27/1 64/28/1
f 67/29/1 68/30/1 13/31/1 69/32/1
f 68/29/1 70/30/1 14/31/1 13/32/1
f 70/29/1 71/30/1 17/31/1 14/32/1
f 71/29/1 72/30/1 73/31/1 17/32/1
f 72/9/1 74/10/1 75/11/1 73/12/1
f 74/9/1 76/10/1 77/11/1 75/12/1
f 76/25/1 78/26/1 79/27/1 77/28/1
f 80/9/1 81/10/1 82/11/1 83/12/1
f 81/9/1 84/10/1 85/11/1 82/12/1
f 86/29/1 87/30/1 19/31/1 88/32/1
f 87/29/1 89/30/1 20/31/1 19/32/1
f 89/29/1 90/30/1 23/31/1 20/32/1
f 90/29/1 91/30/1 92/31/1 23/32/1
f 91/33/1 93/34/1 94/35/1 92/36/1
f 93/33/1 95/34/1 25/35/1 94/36/1
f 95/29/1 96/30/1 26/31/1 25/32/1
f 96/29/1 97/30/1 29/31/1 26/32/1
f 97/29/1 98/30/1 31/31/1 29/32/1
f 98/33/1 99/34/1 100/35/1 31/36/1
f 101/29/1 102/30/1 34/31/1 33/32/1
f 102/29/1 103/30/1 36/31/1 34/32/1
f 103/29/1 104/30/1 37/31/1 36/32/1
f 104/29/1 105/30/1 38/31/1 37/32/1
f 105/29/1 106/30/1 39/31/1 38/32/1
f 106/29/1 107/30/1 42/31/1 39/32/1
f 107/29/1 108/30/1 44/31/1 42/32/1
f 108/29/1 109/30/1 46/31/1 44/32/1
f 109/29/1 110/30/1 48/31/1 46/32/1
f 110/29/1 111/30/1 50/31/1 48/32/1
f 111/29/1 112/30/1 51/31/1 50/32/1
f 112/29/1 113/30/1 114/31/1 51/32/1
f 115/29/1 116/30/1 61/31/1 59/32/1
f 116/29/1 117/30/1 63/31/1 61/32/1
f 117/29/1 118/30/1 65/31/1 63/32/1
f 119/9/1 120/10/1 121/11/1 122/12/1
f 123/29/1 124/30/1 74/31/1 72/32/1
f 124/29/1 125/30/1 76/31/1 74/32/1
f 125/29/1 126/30/1 78/31/1 76/32/1
f 127/9/1 128/10/1 129/11/1 130/12/1
f 131/9/1 132/10/1 133/11/1 134/12/1
f 132/9/1 135/10/1 136/11/1 133/12/1
f 137/29/1 138/30/1 80/31/1 139/32/1
f 138/29/1 140/30/1 81/31/1 80/32/1
f 140/29/1 141/30/1 84/31/1 81/32/1
f 141/29/1 142/30/1 86/31/1 84/32/1
f 143/29/1 144/30/1 119/31/1 118/32/1
f 144/29/1 145/30/1 120/31/1 119/32/1
f 145/29/1 146/30/1 147/31/1 120/32/1
f 146/9/1 148/10/1 149/11/1 147/12/1
f 148/9/1 150/10/1 151/11/1 149/12/1
f 152/29/1 153/30/1 127/31/1 126/32/1
f 153/29/1 154/30/1 128/31/1 127/32/1
f 154/29/1 155/30/1 156/31/1 128/32/1
f 157/9/1 158/10/1 159/11/1 160/12/1
f 161/29/1 162/30/1 131/31/1 163/32/1
f 162/29/1 164/30/1 132/31/1 131/32/1
f 164/29/1 165/30/1 135/31/1 132/32/1
f 165/29/1 166/30/1 137/31/1 135/32/1
f 167/9/1 168/10/1 169/11/1 170/12/1
f 168/9/1 171/10/1 172/11/1 169/12/1
f 171/9/1 173/10/1 174/11/1 172/12/1
f 175/9/1 176/10/1 177/11/1 178/12/1
f 176/9/1 179/10/1 180/11/1 177/12/1
f 181/9/1 182/10/1 183/11/1 184/12/1
f 185/37/1 186/38/1 187/39/1 188/40/1
f 186/37/1 189/38/1 190/39/1 187/40/1
f 191/9/1 192/10/1 193/11/1 194/12/1
f 192/9/1 195/10/1 196/11/1 193/12/1
f 195/9/1 197/10/1 198/11/1 196/12/1
f 199/25/1 200/26/1 201/27/1 202/28/1
f 200/25/1 203/26/1 204/27/1 201/28/1
f 205/9/1 206/10/1 207/11/1 208/12/1
f 209/9/1 210/10/1 211/11/1 212/12/1
f 210/9/1 213/10/1 214/11/1 211/12/1
f 215/25/1 216/26/1 217/27/1 218/28/1
f 216/25/1 219/26/1 220/27/1 217/28/1
f 221/9/1 222/10/1 223/11/1 224/12/1
f 222/9/1 225/10/1 226/11/1 223/12/1
f 227/29/1 228/30/1 148/31/1 146/32/1
f 228/29/1 229/30/1 150/31/1 148/32/1
f 229/33/1 230/34/1 231/35/1 150/36/1
f 232/9/1 233/10/1 234/11/1 235/12/1
f 233/9/1 236/10/1 237/11/1 234/12/1
f 238/37/1 239/38/1 240/39/1 241/40/1
f 239/41/1 242/42/1 243/43/1 240/44/1
f 244/9/1 245/10/1 246/11/1 247/12/1
f 245/9/1 248/10/1 249/11/1 246/12/1
f 250/33/1 251/34/1 252/35/1 155/36/1
f 251/33/1 253/34/1 254/35/1 252/36/1
f 253/29/1 255/30/1 256/31/1 254/32/1
f 257/9/1 258/10/1 259/11/1 260/12/1
f 261/9/1 262/10/1 263/11/1 264/12/1
f 262/9/1 265/10/1 266/11/1 263/12/1
f 267/29/1 268/30/1 157/31/1 269/32/1
f 268/29/1 270/30/1 158/31/1 157/32/1
f 270/29/1 271/30/1 161/31/1 158/32/1
f 272/29/1 273/30/1 167/31/1 274/32/1
f 273/29/1 275/30/1 168/31/1 167/32/1
f 275/29/1 276/30/1 171/31/1 168/32/1
f 276/29/1 277/30/1 173/31/1 171/32/1
f 277/29/1 278/30/1 279/31/1 173/32/1
f 278/33/1 280/34/1 281/35/1 279/36/1
f 280/33/1 282/34/1 283/35/1 281/36/1
f 282/33/1 284/34/1 175/35/1 283/36/1
f 284/29/1 285/30/1 176/31/1 175/32/1
f 285/29/1 286/30/1 179/31/1 176/32/1
f 286/33/1 287/34/1 288/35/1 179/36/1
f 287/33/1 289/34/1 290/35/1 288/36/1
f 289/33/1 291/34/1 292/35/1 290/36/1
f 291/29/1 293/30/1 181/31/1 292/32/1
f 293/29/1 294/30/1 182/31/1 181/32/1
f 294/29/1 295/30/1 185/31/1 182/32/1
f 295/29/1 296/30/1 186/31/1 185/32/1
f 296/29/1 297/30/1 189/31/1 186/32/1
f 297/29/1 298/30/1 191/31/1 189/32/1
f 298/29/1 299/30/1 192/31/1 191/32/1
f 299/29/1 300/30/1 195/31/1 192/32/1
f 300/29/1 301/30/1 197/31/1 195/32/1
f 301/29/1 302/30/1 199/31/1 197/32/1
f 302/29/1 303/30/1 200/31/1 199/32/1
f 303/29/1 304/30/1 203/31/1 200/32/1
f 304/29/1 305/30/1 205/31/1 203/32/1
f 305/29/1 306/30/1 206/31/1 205/32/1
f 307/9/1 308/10/1 309/11/1 310/12/1
f 311/41/1 312/42/1 313/43/1 314/44/1
f 312/41/1 315/42/1 316/43/1 313/44/1
f 317/9/1 318/10/1 319/11/1 320/12/1
f 321/29/1 322/30/1 209/31/1 323/32/1
f 322/29/1 324/30/1 210/31/1 209/32/1
f 324/29/1 325/30/1 213/31/1 210/32/1
f 325/29/1 326/30/1 215/31/1 213/32/1
f 326/29/1 327/30/1 216/31/1 215/32/1
f 327/29/1 328/30/1 219/31/1 216/32/1
f 328/29/1 329/30/1 221/31/1 219/32/1
f 329/29/1 330/30/1 222/31/1 221/32/1
f 330/29/1 331/30/1 225/31/1 222/32/1
f 331/45/1 332/46/1 333/47/1 225/48/1
f 332/45/1 334/46/1 335/47/1 333/48/1
f 336/29/1 337/30/1 232/31/1 230/32/1
f 337/29/1 338/30/1 233/31/1 232/32/1
f 338/29/1 339/30/1 236/31/1 233/32/1
f 339/29/1 340/30/1 238/31/1 236/32/1
f 340/29/1 341/30/1 239/31/1 238/32/1
f 341/29/1 342/30/1 242/31/1 239/32/1
f 342/29/1 343/30/1 244/31/1 242/32/1
f 343/29/1 344/30/1 245/31/1 244/32/1
f 344/29/1 345/30/1 248/31/1 245/32/1
f 345/45/1 346/46/1 347/47/1 248/48/1
f 346/45/1 348/46/1 349/47/1 347/48/1
f 350/29/1 351/30/1 257/31/1 255/32/1
f 351/29/1 352/30/1 258/31/1 257/32/1
f 352/29/1 353/30/1 354/31/1 258/32/1
f 355/9/1 356/10/1 357/11/1 358/12/1
f 359/41/1 360/42/1 361/43/1 362/44/1
f 360/41/1 363/42/1 364/43/1 361/44/1
f 365/9/1 366/10/1 367/11/1 368/12/1
f 369/29/1 370/30/1 261/31/1 371/32/1
f 370/29/1 372/30/1 262/31/1 261/32/1
f 372/29/1 373/30/1 265/31/1 262/32/1
f 373/29/1 374/30/1 267/31/1 265/32/1
f 375/29/1 376/30/1 307/31/1 306/32/1
f 376/29/1 377/30/1 308/31/1 307/32/1
f 377/29/1 378/30/1 311/31/1 308/32/1
f 378/29/1 379/30/1 312/31/1 311/32/1
f 379/29/1 380/30/1 315/31/1 312/32/1
f 380/29/1 381/30/1 317/31/1 315/32/1
f 381/29/1 382/30/1 318/31/1 317/32/1
f 382/29/1 383/30/1 321/31/1 318/32/1
f 384/29/1 385/30/1 355/31/1 353/32/1
f 385/29/1 386/30/1 356/31/1 355/32/1
f 386/29/1 387/30/1 359/31/1 356/32/1
f 387/29/1 388/30/1 360/31/1 359/32/1
f 388/29/1 389/30/1 363/31/1 360/32/1
f 389/29/1 390/30/1 365/31/1 363/32/1
f 390/29/1 391/30/1 366/31/1 365/32/1
f 391/29/1 392/30/1 369/31/1 366/32/1

