# Wavefront OBJ file automatically generated by Tiled2Unity

# Vertices (Count = 379)
v -10560 -240 0
v -10640 -240 0
v -10640 -160 0
v -10560 -160 0
v -10720 -240 0
v -10720 -160 0
v -80 -320 0
v -160 -320 0
v -160 -240 0
v -80 -240 0
v -240 -320 0
v -240 -240 0
v -320 -320 0
v -400 -320 0
v -400 -240 0
v -320 -240 0
v -480 -320 0
v -560 -320 0
v -560 -240 0
v -480 -240 0
v -640 -320 0
v -640 -240 0
v -720 -320 0
v -720 -240 0
v -1120 -320 0
v -1200 -320 0
v -1200 -240 0
v -1120 -240 0
v -1280 -320 0
v -1280 -240 0
v -1360 -320 0
v -1360 -240 0
v -1440 -320 0
v -1520 -320 0
v -1520 -240 0
v -1440 -240 0
v -1600 -320 0
v -1600 -240 0
v -1680 -320 0
v -1760 -320 0
v -1760 -240 0
v -1680 -240 0
v -1840 -320 0
v -1840 -240 0
v -1920 -320 0
v -1920 -240 0
v -2000 -320 0
v -2000 -240 0
v -2080 -320 0
v -2160 -320 0
v -2160 -240 0
v -2080 -240 0
v -2240 -320 0
v -2240 -240 0
v -2320 -320 0
v -2400 -320 0
v -2400 -240 0
v -2320 -240 0
v -2480 -320 0
v -2480 -240 0
v -2560 -320 0
v -2560 -240 0
v -2880 -320 0
v -2960 -320 0
v -2960 -240 0
v -2880 -240 0
v -3040 -320 0
v -3040 -240 0
v -3360 -320 0
v -3440 -320 0
v -3440 -240 0
v -3360 -240 0
v -3520 -320 0
v -3520 -240 0
v -3600 -320 0
v -3600 -240 0
v -3680 -320 0
v -3760 -320 0
v -3760 -240 0
v -3680 -240 0
v -3840 -320 0
v -3920 -320 0
v -3920 -240 0
v -3840 -240 0
v -4000 -320 0
v -4080 -320 0
v -4080 -240 0
v -4000 -240 0
v -4160 -320 0
v -4240 -320 0
v -4240 -240 0
v -4160 -240 0
v -4320 -320 0
v -4320 -240 0
v -4400 -320 0
v -4480 -320 0
v -4480 -240 0
v -4400 -240 0
v -4560 -320 0
v -4640 -320 0
v -4640 -240 0
v -4560 -240 0
v -4720 -320 0
v -4800 -320 0
v -4800 -240 0
v -4720 -240 0
v -4880 -320 0
v -4960 -320 0
v -4960 -240 0
v -4880 -240 0
v -5040 -320 0
v -5040 -240 0
v -5120 -320 0
v -5200 -320 0
v -5200 -240 0
v -5120 -240 0
v -5280 -320 0
v -5360 -320 0
v -5360 -240 0
v -5280 -240 0
v -5440 -320 0
v -5520 -320 0
v -5520 -240 0
v -5440 -240 0
v -5600 -320 0
v -5680 -320 0
v -5680 -240 0
v -5600 -240 0
v -5760 -320 0
v -5760 -240 0
v -6080 -320 0
v -6160 -320 0
v -6160 -240 0
v -6080 -240 0
v -6240 -320 0
v -6240 -240 0
v -6560 -320 0
v -6640 -320 0
v -6640 -240 0
v -6560 -240 0
v -6960 -320 0
v -7040 -320 0
v -7040 -240 0
v -6960 -240 0
v -7120 -320 0
v -7120 -240 0
v -7440 -320 0
v -7520 -320 0
v -7520 -240 0
v -7440 -240 0
v -7600 -320 0
v -7600 -240 0
v -7680 -320 0
v -7680 -240 0
v -7760 -320 0
v -7840 -320 0
v -7840 -240 0
v -7760 -240 0
v -7920 -320 0
v -7920 -240 0
v -8000 -320 0
v -8080 -320 0
v -8080 -240 0
v -8000 -240 0
v -8160 -320 0
v -8160 -240 0
v -8240 -320 0
v -8240 -240 0
v -8640 -320 0
v -8720 -320 0
v -8720 -240 0
v -8640 -240 0
v -9040 -320 0
v -9120 -320 0
v -9120 -240 0
v -9040 -240 0
v -9360 -320 0
v -9440 -320 0
v -9440 -240 0
v -9360 -240 0
v -9520 -320 0
v -9520 -240 0
v -9600 -320 0
v -9680 -320 0
v -9680 -240 0
v -9600 -240 0
v -9760 -320 0
v -9760 -240 0
v -9840 -320 0
v -9920 -320 0
v -9920 -240 0
v -9840 -240 0
v -10000 -320 0
v -10000 -240 0
v -10080 -320 0
v -10080 -240 0
v -10160 -320 0
v -10240 -320 0
v -10240 -240 0
v -10160 -240 0
v -10320 -320 0
v -10400 -320 0
v -10400 -240 0
v -10320 -240 0
v -10480 -320 0
v -10480 -240 0
v -10560 -320 0
v -10640 -320 0
v -10720 -320 0
v -10800 -320 0
v -10800 -240 0
v 0 -400 0
v -80 -400 0
v 0 -320 0
v -160 -400 0
v -240 -400 0
v -320 -400 0
v -400 -400 0
v -480 -400 0
v -560 -400 0
v -640 -400 0
v -720 -400 0
v -800 -400 0
v -800 -320 0
v -880 -400 0
v -880 -320 0
v -960 -400 0
v -960 -320 0
v -1040 -400 0
v -1040 -320 0
v -1120 -400 0
v -1200 -400 0
v -1280 -400 0
v -1360 -400 0
v -1440 -400 0
v -1520 -400 0
v -1600 -400 0
v -1680 -400 0
v -1760 -400 0
v -1840 -400 0
v -1920 -400 0
v -2000 -400 0
v -2080 -400 0
v -2160 -400 0
v -2240 -400 0
v -2320 -400 0
v -2400 -400 0
v -2480 -400 0
v -2560 -400 0
v -2640 -400 0
v -2640 -320 0
v -2720 -400 0
v -2720 -320 0
v -2800 -400 0
v -2800 -320 0
v -2880 -400 0
v -2960 -400 0
v -3040 -400 0
v -3120 -400 0
v -3120 -320 0
v -3200 -400 0
v -3200 -320 0
v -3280 -400 0
v -3280 -320 0
v -3360 -400 0
v -3440 -400 0
v -3520 -400 0
v -3600 -400 0
v -3680 -400 0
v -3760 -400 0
v -3840 -400 0
v -3920 -400 0
v -4000 -400 0
v -4080 -400 0
v -4160 -400 0
v -4240 -400 0
v -4320 -400 0
v -4400 -400 0
v -4480 -400 0
v -4560 -400 0
v -4640 -400 0
v -4720 -400 0
v -4800 -400 0
v -4880 -400 0
v -4960 -400 0
v -5040 -400 0
v -5120 -400 0
v -5200 -400 0
v -5280 -400 0
v -5360 -400 0
v -5440 -400 0
v -5520 -400 0
v -5600 -400 0
v -5680 -400 0
v -5760 -400 0
v -5840 -400 0
v -5840 -320 0
v -5920 -400 0
v -5920 -320 0
v -6000 -400 0
v -6000 -320 0
v -6080 -400 0
v -6160 -400 0
v -6240 -400 0
v -6320 -400 0
v -6320 -320 0
v -6400 -400 0
v -6400 -320 0
v -6480 -400 0
v -6480 -320 0
v -6560 -400 0
v -6640 -400 0
v -6720 -400 0
v -6720 -320 0
v -6800 -400 0
v -6800 -320 0
v -6880 -400 0
v -6880 -320 0
v -6960 -400 0
v -7040 -400 0
v -7120 -400 0
v -7200 -400 0
v -7200 -320 0
v -7280 -400 0
v -7280 -320 0
v -7360 -400 0
v -7360 -320 0
v -7440 -400 0
v -7520 -400 0
v -7600 -400 0
v -7680 -400 0
v -7760 -400 0
v -7840 -400 0
v -7920 -400 0
v -8000 -400 0
v -8080 -400 0
v -8160 -400 0
v -8240 -400 0
v -8320 -400 0
v -8320 -320 0
v -8400 -400 0
v -8400 -320 0
v -8480 -400 0
v -8480 -320 0
v -8560 -400 0
v -8560 -320 0
v -8640 -400 0
v -8720 -400 0
v -8800 -400 0
v -8800 -320 0
v -8880 -400 0
v -8880 -320 0
v -8960 -400 0
v -8960 -320 0
v -9040 -400 0
v -9120 -400 0
v -9200 -400 0
v -9200 -320 0
v -9280 -400 0
v -9280 -320 0
v -9360 -400 0
v -9440 -400 0
v -9520 -400 0
v -9600 -400 0
v -9680 -400 0
v -9760 -400 0
v -9840 -400 0
v -9920 -400 0
v -10000 -400 0
v -10080 -400 0
v -10160 -400 0
v -10240 -400 0
v -10320 -400 0
v -10400 -400 0
v -10480 -400 0
v -10560 -400 0
v -10640 -400 0
v -10720 -400 0
v -10800 -400 0

# Texture cooridinates (Count = 48)
vt 0.0001220703 0.2501221
vt 0.1248779 0.2501221
vt 0.1248779 0.4998779
vt 0.0001220703 0.4998779
vt 0.1251221 0.2501221
vt 0.2498779 0.2501221
vt 0.2498779 0.4998779
vt 0.1251221 0.4998779
vt 0.2501221 0.7501221
vt 0.3748779 0.7501221
vt 0.3748779 0.9998779
vt 0.2501221 0.9998779
vt 0.6251221 0.7501221
vt 0.7498779 0.7501221
vt 0.7498779 0.9998779
vt 0.6251221 0.9998779
vt 0.7501221 0.7501221
vt 0.8748779 0.7501221
vt 0.8748779 0.9998779
vt 0.7501221 0.9998779
vt 0.3751221 0.7501221
vt 0.4998779 0.7501221
vt 0.4998779 0.9998779
vt 0.3751221 0.9998779
vt 0.5001221 0.7501221
vt 0.6248779 0.7501221
vt 0.6248779 0.9998779
vt 0.5001221 0.9998779
vt 0.0001220703 0.0001220703
vt 0.1248779 0.0001220703
vt 0.1248779 0.2498779
vt 0.0001220703 0.2498779
vt 0.1251221 0.0001220703
vt 0.2498779 0.0001220703
vt 0.2498779 0.2498779
vt 0.1251221 0.2498779
vt 0.0001220703 0.7501221
vt 0.1248779 0.7501221
vt 0.1248779 0.9998779
vt 0.0001220703 0.9998779
vt 0.1251221 0.7501221
vt 0.2498779 0.7501221
vt 0.2498779 0.9998779
vt 0.1251221 0.9998779
vt 0.2501221 0.5001221
vt 0.3748779 0.5001221
vt 0.3748779 0.7498779
vt 0.2501221 0.7498779

# Normal
vn 0 0 -1

# Groups (Count = 1)

g mesh_0001
f 1/1/1 2/2/1 3/3/1 4/4/1
f 2/5/1 5/6/1 6/7/1 3/8/1
f 7/9/1 8/10/1 9/11/1 10/12/1
f 8/9/1 11/10/1 12/11/1 9/12/1
f 13/13/1 14/14/1 15/15/1 16/16/1
f 17/9/1 18/10/1 19/11/1 20/12/1
f 18/9/1 21/10/1 22/11/1 19/12/1
f 21/9/1 23/10/1 24/11/1 22/12/1
f 25/9/1 26/10/1 27/11/1 28/12/1
f 26/9/1 29/10/1 30/11/1 27/12/1
f 29/9/1 31/10/1 32/11/1 30/12/1
f 33/17/1 34/18/1 35/19/1 36/20/1
f 34/17/1 37/18/1 38/19/1 35/20/1
f 39/9/1 40/10/1 41/11/1 42/12/1
f 40/9/1 43/10/1 44/11/1 41/12/1
f 43/9/1 45/10/1 46/11/1 44/12/1
f 45/9/1 47/10/1 48/11/1 46/12/1
f 49/21/1 50/22/1 51/23/1 52/24/1
f 50/25/1 53/26/1 54/27/1 51/28/1
f 55/9/1 56/10/1 57/11/1 58/12/1
f 56/9/1 59/10/1 60/11/1 57/12/1
f 59/9/1 61/10/1 62/11/1 60/12/1
f 63/9/1 64/10/1 65/11/1 66/12/1
f 64/9/1 67/10/1 68/11/1 65/12/1
f 69/9/1 70/10/1 71/11/1 72/12/1
f 70/9/1 73/10/1 74/11/1 71/12/1
f 73/9/1 75/10/1 76/11/1 74/12/1
f 77/13/1 78/14/1 79/15/1 80/16/1
f 81/9/1 82/10/1 83/11/1 84/12/1
f 85/25/1 86/26/1 87/27/1 88/28/1
f 89/9/1 90/10/1 91/11/1 92/12/1
f 90/9/1 93/10/1 94/11/1 91/12/1
f 95/25/1 96/26/1 97/27/1 98/28/1
f 99/9/1 100/10/1 101/11/1 102/12/1
f 103/13/1 104/14/1 105/15/1 106/16/1
f 107/9/1 108/10/1 109/11/1 110/12/1
f 108/9/1 111/10/1 112/11/1 109/12/1
f 113/17/1 114/18/1 115/19/1 116/20/1
f 117/9/1 118/10/1 119/11/1 120/12/1
f 121/13/1 122/14/1 123/15/1 124/16/1
f 125/9/1 126/10/1 127/11/1 128/12/1
f 126/9/1 129/10/1 130/11/1 127/12/1
f 131/9/1 132/10/1 133/11/1 134/12/1
f 132/9/1 135/10/1 136/11/1 133/12/1
f 137/9/1 138/10/1 139/11/1 140/12/1
f 141/9/1 142/10/1 143/11/1 144/12/1
f 142/9/1 145/10/1 146/11/1 143/12/1
f 147/9/1 148/10/1 149/11/1 150/12/1
f 148/9/1 151/10/1 152/11/1 149/12/1
f 151/9/1 153/10/1 154/11/1 152/12/1
f 155/13/1 156/14/1 157/15/1 158/16/1
f 156/13/1 159/14/1 160/15/1 157/16/1
f 161/9/1 162/10/1 163/11/1 164/12/1
f 162/9/1 165/10/1 166/11/1 163/12/1
f 165/9/1 167/10/1 168/11/1 166/12/1
f 169/9/1 170/10/1 171/11/1 172/12/1
f 173/9/1 174/10/1 175/11/1 176/12/1
f 177/9/1 178/10/1 179/11/1 180/12/1
f 178/9/1 181/10/1 182/11/1 179/12/1
f 183/21/1 184/22/1 185/23/1 186/24/1
f 184/25/1 187/26/1 188/27/1 185/28/1
f 189/9/1 190/10/1 191/11/1 192/12/1
f 190/9/1 193/10/1 194/11/1 191/12/1
f 193/9/1 195/10/1 196/11/1 194/12/1
f 197/17/1 198/18/1 199/19/1 200/20/1
f 201/9/1 202/10/1 203/11/1 204/12/1
f 202/9/1 205/10/1 206/11/1 203/12/1
f 205/9/1 207/10/1 1/11/1 206/12/1
f 207/29/1 208/30/1 2/31/1 1/32/1
f 208/33/1 209/34/1 5/35/1 2/36/1
f 209/37/1 210/38/1 211/39/1 5/40/1
f 212/41/1 213/42/1 7/43/1 214/44/1
f 213/41/1 215/42/1 8/43/1 7/44/1
f 215/41/1 216/42/1 11/43/1 8/44/1
f 216/41/1 217/42/1 13/43/1 11/44/1
f 217/41/1 218/42/1 14/43/1 13/44/1
f 218/41/1 219/42/1 17/43/1 14/44/1
f 219/41/1 220/42/1 18/43/1 17/44/1
f 220/41/1 221/42/1 21/43/1 18/44/1
f 221/41/1 222/42/1 23/43/1 21/44/1
f 222/41/1 223/42/1 224/43/1 23/44/1
f 223/45/1 225/46/1 226/47/1 224/48/1
f 225/45/1 227/46/1 228/47/1 226/48/1
f 227/45/1 229/46/1 230/47/1 228/48/1
f 229/41/1 231/42/1 25/43/1 230/44/1
f 231/41/1 232/42/1 26/43/1 25/44/1
f 232/41/1 233/42/1 29/43/1 26/44/1
f 233/41/1 234/42/1 31/43/1 29/44/1
f 234/41/1 235/42/1 33/43/1 31/44/1
f 235/41/1 236/42/1 34/43/1 33/44/1
f 236/41/1 237/42/1 37/43/1 34/44/1
f 237/41/1 238/42/1 39/43/1 37/44/1
f 238/41/1 239/42/1 40/43/1 39/44/1
f 239/41/1 240/42/1 43/43/1 40/44/1
f 240/41/1 241/42/1 45/43/1 43/44/1
f 241/41/1 242/42/1 47/43/1 45/44/1
f 242/41/1 243/42/1 49/43/1 47/44/1
f 243/41/1 244/42/1 50/43/1 49/44/1
f 244/41/1 245/42/1 53/43/1 50/44/1
f 245/41/1 246/42/1 55/43/1 53/44/1
f 246/41/1 247/42/1 56/43/1 55/44/1
f 247/41/1 248/42/1 59/43/1 56/44/1
f 248/41/1 249/42/1 61/43/1 59/44/1
f 249/41/1 250/42/1 251/43/1 61/44/1
f 250/45/1 252/46/1 253/47/1 251/48/1
f 252/45/1 254/46/1 255/47/1 253/48/1
f 254/45/1 256/46/1 63/47/1 255/48/1
f 256/41/1 257/42/1 64/43/1 63/44/1
f 257/41/1 258/42/1 67/43/1 64/44/1
f 258/45/1 259/46/1 260/47/1 67/48/1
f 259/45/1 261/46/1 262/47/1 260/48/1
f 261/45/1 263/46/1 264/47/1 262/48/1
f 263/41/1 265/42/1 69/43/1 264/44/1
f 265/41/1 266/42/1 70/43/1 69/44/1
f 266/41/1 267/42/1 73/43/1 70/44/1
f 267/41/1 268/42/1 75/43/1 73/44/1
f 268/41/1 269/42/1 77/43/1 75/44/1
f 269/41/1 270/42/1 78/43/1 77/44/1
f 270/41/1 271/42/1 81/43/1 78/44/1
f 271/41/1 272/42/1 82/43/1 81/44/1
f 272/41/1 273/42/1 85/43/1 82/44/1
f 273/41/1 274/42/1 86/43/1 85/44/1
f 274/41/1 275/42/1 89/43/1 86/44/1
f 275/41/1 276/42/1 90/43/1 89/44/1
f 276/41/1 277/42/1 93/43/1 90/44/1
f 277/41/1 278/42/1 95/43/1 93/44/1
f 278/41/1 279/42/1 96/43/1 95/44/1
f 279/41/1 280/42/1 99/43/1 96/44/1
f 280/41/1 281/42/1 100/43/1 99/44/1
f 281/41/1 282/42/1 103/43/1 100/44/1
f 282/41/1 283/42/1 104/43/1 103/44/1
f 283/41/1 284/42/1 107/43/1 104/44/1
f 284/41/1 285/42/1 108/43/1 107/44/1
f 285/41/1 286/42/1 111/43/1 108/44/1
f 286/41/1 287/42/1 113/43/1 111/44/1
f 287/41/1 288/42/1 114/43/1 113/44/1
f 288/41/1 289/42/1 117/43/1 114/44/1
f 289/41/1 290/42/1 118/43/1 117/44/1
f 290/41/1 291/42/1 121/43/1 118/44/1
f 291/41/1 292/42/1 122/43/1 121/44/1
f 292/41/1 293/42/1 125/43/1 122/44/1
f 293/41/1 294/42/1 126/43/1 125/44/1
f 294/41/1 295/42/1 129/43/1 126/44/1
f 295/41/1 296/42/1 297/43/1 129/44/1
f 296/45/1 298/46/1 299/47/1 297/48/1
f 298/45/1 300/46/1 301/47/1 299/48/1
f 300/45/1 302/46/1 131/47/1 301/48/1
f 302/41/1 303/42/1 132/43/1 131/44/1
f 303/41/1 304/42/1 135/43/1 132/44/1
f 304/45/1 305/46/1 306/47/1 135/48/1
f 305/45/1 307/46/1 308/47/1 306/48/1
f 307/45/1 309/46/1 310/47/1 308/48/1
f 309/41/1 311/42/1 137/43/1 310/44/1
f 311/41/1 312/42/1 138/43/1 137/44/1
f 312/41/1 313/42/1 314/43/1 138/44/1
f 313/45/1 315/46/1 316/47/1 314/48/1
f 315/45/1 317/46/1 318/47/1 316/48/1
f 317/45/1 319/46/1 141/47/1 318/48/1
f 319/41/1 320/42/1 142/43/1 141/44/1
f 320/41/1 321/42/1 145/43/1 142/44/1
f 321/45/1 322/46/1 323/47/1 145/48/1
f 322/45/1 324/46/1 325/47/1 323/48/1
f 324/45/1 326/46/1 327/47/1 325/48/1
f 326/41/1 328/42/1 147/43/1 327/44/1
f 328/41/1 329/42/1 148/43/1 147/44/1
f 329/41/1 330/42/1 151/43/1 148/44/1
f 330/41/1 331/42/1 153/43/1 151/44/1
f 331/41/1 332/42/1 155/43/1 153/44/1
f 332/41/1 333/42/1 156/43/1 155/44/1
f 333/41/1 334/42/1 159/43/1 156/44/1
f 334/41/1 335/42/1 161/43/1 159/44/1
f 335/41/1 336/42/1 162/43/1 161/44/1
f 336/41/1 337/42/1 165/43/1 162/44/1
f 337/41/1 338/42/1 167/43/1 165/44/1
f 338/41/1 339/42/1 340/43/1 167/44/1
f 339/45/1 341/46/1 342/47/1 340/48/1
f 341/45/1 343/46/1 344/47/1 342/48/1
f 343/45/1 345/46/1 346/47/1 344/48/1
f 345/41/1 347/42/1 169/43/1 346/44/1
f 347/41/1 348/42/1 170/43/1 169/44/1
f 348/41/1 349/42/1 350/43/1 170/44/1
f 349/45/1 351/46/1 352/47/1 350/48/1
f 351/45/1 353/46/1 354/47/1 352/48/1
f 353/41/1 355/42/1 173/43/1 354/44/1
f 355/41/1 356/42/1 174/43/1 173/44/1
f 356/41/1 357/42/1 358/43/1 174/44/1
f 357/45/1 359/46/1 360/47/1 358/48/1
f 359/41/1 361/42/1 177/43/1 360/44/1
f 361/41/1 362/42/1 178/43/1 177/44/1
f 362/41/1 363/42/1 181/43/1 178/44/1
f 363/41/1 364/42/1 183/43/1 181/44/1
f 364/41/1 365/42/1 184/43/1 183/44/1
f 365/41/1 366/42/1 187/43/1 184/44/1
f 366/41/1 367/42/1 189/43/1 187/44/1
f 367/41/1 368/42/1 190/43/1 189/44/1
f 368/41/1 369/42/1 193/43/1 190/44/1
f 369/41/1 370/42/1 195/43/1 193/44/1
f 370/41/1 371/42/1 197/43/1 195/44/1
f 371/41/1 372/42/1 198/43/1 197/44/1
f 372/41/1 373/42/1 201/43/1 198/44/1
f 373/41/1 374/42/1 202/43/1 201/44/1
f 374/41/1 375/42/1 205/43/1 202/44/1
f 375/41/1 376/42/1 207/43/1 205/44/1
f 376/41/1 377/42/1 208/43/1 207/44/1
f 377/41/1 378/42/1 209/43/1 208/44/1
f 378/41/1 379/42/1 210/43/1 209/44/1

