# Wavefront OBJ file automatically generated by Tiled2Unity

# Vertices (Count = 609)
v -560 -400 0
v -640 -400 0
v -640 -320 0
v -560 -320 0
v -720 -400 0
v -720 -320 0
v -800 -400 0
v -800 -320 0
v -880 -400 0
v -880 -320 0
v -960 -400 0
v -960 -320 0
v -1040 -400 0
v -1040 -320 0
v -1120 -400 0
v -1120 -320 0
v -1200 -400 0
v -1200 -320 0
v -1280 -400 0
v -1280 -320 0
v -1360 -400 0
v -1360 -320 0
v -1440 -400 0
v -1440 -320 0
v -1520 -400 0
v -1520 -320 0
v -1600 -400 0
v -1600 -320 0
v -1680 -400 0
v -1680 -320 0
v -1760 -400 0
v -1760 -320 0
v -1840 -400 0
v -1840 -320 0
v -1920 -400 0
v -1920 -320 0
v -2000 -400 0
v -2000 -320 0
v -2480 -400 0
v -2560 -400 0
v -2560 -320 0
v -2480 -320 0
v -2640 -400 0
v -2640 -320 0
v -2720 -400 0
v -2720 -320 0
v -2800 -400 0
v -2800 -320 0
v -2880 -400 0
v -2880 -320 0
v -2960 -400 0
v -2960 -320 0
v -3040 -400 0
v -3040 -320 0
v -3120 -400 0
v -3120 -320 0
v -3200 -400 0
v -3200 -320 0
v -3360 -400 0
v -3440 -400 0
v -3440 -320 0
v -3360 -320 0
v -3520 -400 0
v -3520 -320 0
v -3600 -400 0
v -3600 -320 0
v -3680 -400 0
v -3680 -320 0
v -3760 -400 0
v -3760 -320 0
v -3840 -400 0
v -3840 -320 0
v -3920 -400 0
v -3920 -320 0
v -4000 -400 0
v -4000 -320 0
v -4080 -400 0
v -4080 -320 0
v -4160 -400 0
v -4160 -320 0
v -4240 -400 0
v -4240 -320 0
v -4320 -400 0
v -4320 -320 0
v -4400 -400 0
v -4400 -320 0
v -4480 -400 0
v -4480 -320 0
v -4560 -400 0
v -4560 -320 0
v -4640 -400 0
v -4640 -320 0
v -4720 -400 0
v -4720 -320 0
v -4800 -400 0
v -4800 -320 0
v -4880 -400 0
v -4880 -320 0
v -4960 -400 0
v -4960 -320 0
v -5040 -400 0
v -5040 -320 0
v -5760 -400 0
v -5840 -400 0
v -5840 -320 0
v -5760 -320 0
v -5920 -400 0
v -5920 -320 0
v -6000 -400 0
v -6000 -320 0
v -6080 -400 0
v -6080 -320 0
v -6160 -400 0
v -6160 -320 0
v -6240 -400 0
v -6240 -320 0
v -6320 -400 0
v -6320 -320 0
v -6400 -400 0
v -6400 -320 0
v -6480 -400 0
v -6480 -320 0
v -6560 -400 0
v -6560 -320 0
v -6640 -400 0
v -6640 -320 0
v -6720 -400 0
v -6720 -320 0
v -6800 -400 0
v -6800 -320 0
v -6880 -400 0
v -6880 -320 0
v -6960 -400 0
v -6960 -320 0
v -7040 -400 0
v -7040 -320 0
v -7120 -400 0
v -7120 -320 0
v -7200 -400 0
v -7200 -320 0
v -7280 -400 0
v -7280 -320 0
v -7360 -400 0
v -7360 -320 0
v -7440 -400 0
v -7440 -320 0
v -7520 -400 0
v -7520 -320 0
v -7600 -400 0
v -7600 -320 0
v -7680 -400 0
v -7680 -320 0
v -7760 -400 0
v -7760 -320 0
v -7840 -400 0
v -7840 -320 0
v -7920 -400 0
v -7920 -320 0
v -8000 -400 0
v -8000 -320 0
v -8080 -400 0
v -8080 -320 0
v -8160 -400 0
v -8160 -320 0
v -8240 -400 0
v -8240 -320 0
v -8320 -400 0
v -8320 -320 0
v -8400 -400 0
v -8400 -320 0
v -9040 -400 0
v -9120 -400 0
v -9120 -320 0
v -9040 -320 0
v -9200 -400 0
v -9200 -320 0
v -9280 -400 0
v -9280 -320 0
v -9360 -400 0
v -9360 -320 0
v -9440 -400 0
v -9440 -320 0
v -9520 -400 0
v -9520 -320 0
v -9600 -400 0
v -9600 -320 0
v -560 -480 0
v -640 -480 0
v -1920 -480 0
v -2000 -480 0
v -2480 -480 0
v -2560 -480 0
v -3120 -480 0
v -3200 -480 0
v -3360 -480 0
v -3440 -480 0
v -4960 -480 0
v -5040 -480 0
v -5760 -480 0
v -5840 -480 0
v -8320 -480 0
v -8400 -480 0
v -9040 -480 0
v -9120 -480 0
v 0 -560 0
v -80 -560 0
v -80 -480 0
v 0 -480 0
v -160 -560 0
v -160 -480 0
v -240 -560 0
v -240 -480 0
v -320 -560 0
v -320 -480 0
v -400 -560 0
v -400 -480 0
v -480 -560 0
v -480 -480 0
v -560 -560 0
v -640 -560 0
v -1920 -560 0
v -2000 -560 0
v -2480 -560 0
v -2560 -560 0
v -3120 -560 0
v -3200 -560 0
v -3280 -560 0
v -3280 -480 0
v -3360 -560 0
v -3440 -560 0
v -4960 -560 0
v -5040 -560 0
v -5760 -560 0
v -5840 -560 0
v -8320 -560 0
v -8400 -560 0
v -9040 -560 0
v -9120 -560 0
v -80 -640 0
v -160 -640 0
v -240 -640 0
v -1920 -640 0
v -2000 -640 0
v -2080 -640 0
v -2080 -560 0
v -2160 -640 0
v -2160 -560 0
v -2240 -640 0
v -2240 -560 0
v -2320 -640 0
v -2320 -560 0
v -2400 -640 0
v -2400 -560 0
v -2480 -640 0
v -2560 -640 0
v -4960 -640 0
v -5040 -640 0
v -5120 -640 0
v -5120 -560 0
v -5200 -640 0
v -5200 -560 0
v -5280 -640 0
v -5280 -560 0
v -5360 -640 0
v -5360 -560 0
v -5440 -640 0
v -5440 -560 0
v -5520 -640 0
v -5520 -560 0
v -5600 -640 0
v -5600 -560 0
v -5680 -640 0
v -5680 -560 0
v -5760 -640 0
v -5840 -640 0
v -5920 -640 0
v -6000 -640 0
v -6000 -560 0
v -5920 -560 0
v -7600 -640 0
v -7680 -640 0
v -7680 -560 0
v -7600 -560 0
v -8320 -640 0
v -8400 -640 0
v -8480 -640 0
v -8480 -560 0
v -8560 -640 0
v -8560 -560 0
v -8640 -640 0
v -8640 -560 0
v -8720 -640 0
v -8720 -560 0
v -8800 -640 0
v -8800 -560 0
v -8880 -640 0
v -8880 -560 0
v -8960 -640 0
v -8960 -560 0
v -9040 -640 0
v -9120 -640 0
v 0 -720 0
v -80 -720 0
v 0 -640 0
v -160 -720 0
v -240 -720 0
v -320 -720 0
v -400 -720 0
v -400 -640 0
v -320 -640 0
v -480 -720 0
v -480 -640 0
v -560 -720 0
v -560 -640 0
v -640 -720 0
v -640 -640 0
v -720 -720 0
v -720 -640 0
v -800 -720 0
v -880 -720 0
v -880 -640 0
v -800 -640 0
v -960 -720 0
v -960 -640 0
v -1040 -720 0
v -1120 -720 0
v -1120 -640 0
v -1040 -640 0
v -1200 -720 0
v -1280 -720 0
v -1280 -640 0
v -1200 -640 0
v -1360 -720 0
v -1440 -720 0
v -1440 -640 0
v -1360 -640 0
v -1520 -720 0
v -1520 -640 0
v -1600 -720 0
v -1680 -720 0
v -1680 -640 0
v -1600 -640 0
v -1760 -720 0
v -1840 -720 0
v -1840 -640 0
v -1760 -640 0
v -2000 -720 0
v -2080 -720 0
v -2160 -720 0
v -2240 -720 0
v -2320 -720 0
v -2400 -720 0
v -2480 -720 0
v -2720 -720 0
v -2800 -720 0
v -2800 -640 0
v -2720 -640 0
v -2880 -720 0
v -2880 -640 0
v -2960 -720 0
v -2960 -640 0
v -3120 -720 0
v -3200 -720 0
v -3200 -640 0
v -3120 -640 0
v -3280 -720 0
v -3280 -640 0
v -3360 -720 0
v -3360 -640 0
v -3840 -720 0
v -3920 -720 0
v -3920 -640 0
v -3840 -640 0
v -4000 -720 0
v -4080 -720 0
v -4080 -640 0
v -4000 -640 0
v -4160 -720 0
v -4160 -640 0
v -4240 -720 0
v -4320 -720 0
v -4320 -640 0
v -4240 -640 0
v -4720 -720 0
v -4800 -720 0
v -4800 -640 0
v -4720 -640 0
v -4880 -720 0
v -4880 -640 0
v -5120 -720 0
v -5200 -720 0
v -5280 -720 0
v -5360 -720 0
v -5440 -720 0
v -5520 -720 0
v -5600 -720 0
v -5680 -720 0
v -5920 -720 0
v -6000 -720 0
v -6160 -720 0
v -6240 -720 0
v -6240 -640 0
v -6160 -640 0
v -6320 -720 0
v -6400 -720 0
v -6400 -640 0
v -6320 -640 0
v -6480 -720 0
v -6480 -640 0
v -6560 -720 0
v -6560 -640 0
v -6640 -720 0
v -6640 -640 0
v -6720 -720 0
v -6720 -640 0
v -6800 -720 0
v -6880 -720 0
v -6880 -640 0
v -6800 -640 0
v -6960 -720 0
v -6960 -640 0
v -7040 -720 0
v -7040 -640 0
v -7120 -720 0
v -7200 -720 0
v -7200 -640 0
v -7120 -640 0
v -7280 -720 0
v -7280 -640 0
v -7360 -720 0
v -7360 -640 0
v -7440 -720 0
v -7440 -640 0
v -7600 -720 0
v -7680 -720 0
v -7920 -720 0
v -8000 -720 0
v -8000 -640 0
v -7920 -640 0
v -8080 -720 0
v -8080 -640 0
v -8160 -720 0
v -8240 -720 0
v -8240 -640 0
v -8160 -640 0
v -8480 -720 0
v -8560 -720 0
v -8640 -720 0
v -8720 -720 0
v -8800 -720 0
v -8880 -720 0
v -8960 -720 0
v -9200 -720 0
v -9280 -720 0
v -9280 -640 0
v -9200 -640 0
v -9360 -720 0
v -9440 -720 0
v -9440 -640 0
v -9360 -640 0
v -9520 -720 0
v -9520 -640 0
v 0 -800 0
v -80 -800 0
v -160 -800 0
v -240 -800 0
v -320 -800 0
v -400 -800 0
v -480 -800 0
v -560 -800 0
v -640 -800 0
v -720 -800 0
v -800 -800 0
v -880 -800 0
v -960 -800 0
v -1040 -800 0
v -1120 -800 0
v -1200 -800 0
v -1280 -800 0
v -1360 -800 0
v -1440 -800 0
v -1520 -800 0
v -1600 -800 0
v -1680 -800 0
v -1760 -800 0
v -1840 -800 0
v -1920 -800 0
v -1920 -720 0
v -2000 -800 0
v -2080 -800 0
v -2160 -800 0
v -2240 -800 0
v -2320 -800 0
v -2400 -800 0
v -2480 -800 0
v -2560 -800 0
v -2560 -720 0
v -2640 -800 0
v -2640 -720 0
v -2720 -800 0
v -2800 -800 0
v -2880 -800 0
v -2960 -800 0
v -3040 -800 0
v -3040 -720 0
v -3120 -800 0
v -3200 -800 0
v -3280 -800 0
v -3360 -800 0
v -3440 -800 0
v -3440 -720 0
v -3520 -800 0
v -3520 -720 0
v -3600 -800 0
v -3600 -720 0
v -3680 -800 0
v -3680 -720 0
v -3760 -800 0
v -3760 -720 0
v -3840 -800 0
v -3920 -800 0
v -4000 -800 0
v -4080 -800 0
v -4160 -800 0
v -4240 -800 0
v -4320 -800 0
v -4400 -800 0
v -4400 -720 0
v -4480 -800 0
v -4480 -720 0
v -4560 -800 0
v -4560 -720 0
v -4640 -800 0
v -4640 -720 0
v -4720 -800 0
v -4800 -800 0
v -4880 -800 0
v -4960 -800 0
v -4960 -720 0
v -5040 -800 0
v -5040 -720 0
v -5120 -800 0
v -5200 -800 0
v -5280 -800 0
v -5360 -800 0
v -5440 -800 0
v -5520 -800 0
v -5600 -800 0
v -5680 -800 0
v -5760 -800 0
v -5760 -720 0
v -5840 -800 0
v -5840 -720 0
v -5920 -800 0
v -6000 -800 0
v -6080 -800 0
v -6080 -720 0
v -6160 -800 0
v -6240 -800 0
v -6320 -800 0
v -6400 -800 0
v -6480 -800 0
v -6560 -800 0
v -6640 -800 0
v -6720 -800 0
v -6800 -800 0
v -6880 -800 0
v -6960 -800 0
v -7040 -800 0
v -7120 -800 0
v -7200 -800 0
v -7280 -800 0
v -7360 -800 0
v -7440 -800 0
v -7520 -800 0
v -7520 -720 0
v -7600 -800 0
v -7680 -800 0
v -7760 -800 0
v -7760 -720 0
v -7840 -800 0
v -7840 -720 0
v -7920 -800 0
v -8000 -800 0
v -8080 -800 0
v -8160 -800 0
v -8240 -800 0
v -8320 -800 0
v -8320 -720 0
v -8400 -800 0
v -8400 -720 0
v -8480 -800 0
v -8560 -800 0
v -8640 -800 0
v -8720 -800 0
v -8800 -800 0
v -8880 -800 0
v -8960 -800 0
v -9040 -800 0
v -9040 -720 0
v -9120 -800 0
v -9120 -720 0
v -9200 -800 0
v -9280 -800 0
v -9360 -800 0
v -9440 -800 0
v -9520 -800 0
v -9600 -800 0
v -9600 -720 0

# Texture cooridinates (Count = 64)
vt 0.1251221 0.7501221
vt 0.2498779 0.7501221
vt 0.2498779 0.9998779
vt 0.1251221 0.9998779
vt 0.2501221 0.2501221
vt 0.3748779 0.2501221
vt 0.3748779 0.4998779
vt 0.2501221 0.4998779
vt 0.3751221 0.2501221
vt 0.4998779 0.2501221
vt 0.4998779 0.4998779
vt 0.3751221 0.4998779
vt 0.6251221 0.2501221
vt 0.7498779 0.2501221
vt 0.7498779 0.4998779
vt 0.6251221 0.4998779
vt 0.5001221 0.2501221
vt 0.6248779 0.2501221
vt 0.6248779 0.4998779
vt 0.5001221 0.4998779
vt 0.0001220703 0.7501221
vt 0.1248779 0.7501221
vt 0.1248779 0.9998779
vt 0.0001220703 0.9998779
vt 0.2501221 0.0001220703
vt 0.3748779 0.0001220703
vt 0.3748779 0.2498779
vt 0.2501221 0.2498779
vt 0.3751221 0.0001220703
vt 0.4998779 0.0001220703
vt 0.4998779 0.2498779
vt 0.3751221 0.2498779
vt 0.2501221 0.7501221
vt 0.3748779 0.7501221
vt 0.3748779 0.9998779
vt 0.2501221 0.9998779
vt 0.3751221 0.7501221
vt 0.4998779 0.7501221
vt 0.4998779 0.9998779
vt 0.3751221 0.9998779
vt 0.5001221 0.7501221
vt 0.6248779 0.7501221
vt 0.6248779 0.9998779
vt 0.5001221 0.9998779
vt 0.6251221 0.7501221
vt 0.7498779 0.7501221
vt 0.7498779 0.9998779
vt 0.6251221 0.9998779
vt 0.7501221 0.7501221
vt 0.8748779 0.7501221
vt 0.8748779 0.9998779
vt 0.7501221 0.9998779
vt 0.6251221 0.0001220703
vt 0.7498779 0.0001220703
vt 0.7498779 0.2498779
vt 0.6251221 0.2498779
vt 0.5001221 0.0001220703
vt 0.6248779 0.0001220703
vt 0.6248779 0.2498779
vt 0.5001221 0.2498779
vt 0.2501221 0.5001221
vt 0.3748779 0.5001221
vt 0.3748779 0.7498779
vt 0.2501221 0.7498779

# Normal
vn 0 0 -1

# Groups (Count = 1)

g mesh_0001
f 1/1/1 2/2/1 3/3/1 4/4/1
f 2/1/1 5/2/1 6/3/1 3/4/1
f 5/1/1 7/2/1 8/3/1 6/4/1
f 7/1/1 9/2/1 10/3/1 8/4/1
f 9/1/1 11/2/1 12/3/1 10/4/1
f 11/1/1 13/2/1 14/3/1 12/4/1
f 13/1/1 15/2/1 16/3/1 14/4/1
f 15/1/1 17/2/1 18/3/1 16/4/1
f 17/1/1 19/2/1 20/3/1 18/4/1
f 19/1/1 21/2/1 22/3/1 20/4/1
f 21/1/1 23/2/1 24/3/1 22/4/1
f 23/1/1 25/2/1 26/3/1 24/4/1
f 25/1/1 27/2/1 28/3/1 26/4/1
f 27/1/1 29/2/1 30/3/1 28/4/1
f 29/1/1 31/2/1 32/3/1 30/4/1
f 31/1/1 33/2/1 34/3/1 32/4/1
f 33/1/1 35/2/1 36/3/1 34/4/1
f 35/1/1 37/2/1 38/3/1 36/4/1
f 39/1/1 40/2/1 41/3/1 42/4/1
f 40/1/1 43/2/1 44/3/1 41/4/1
f 43/1/1 45/2/1 46/3/1 44/4/1
f 45/1/1 47/2/1 48/3/1 46/4/1
f 47/1/1 49/2/1 50/3/1 48/4/1
f 49/1/1 51/2/1 52/3/1 50/4/1
f 51/1/1 53/2/1 54/3/1 52/4/1
f 53/1/1 55/2/1 56/3/1 54/4/1
f 55/1/1 57/2/1 58/3/1 56/4/1
f 59/1/1 60/2/1 61/3/1 62/4/1
f 60/1/1 63/2/1 64/3/1 61/4/1
f 63/1/1 65/2/1 66/3/1 64/4/1
f 65/1/1 67/2/1 68/3/1 66/4/1
f 67/1/1 69/2/1 70/3/1 68/4/1
f 69/1/1 71/2/1 72/3/1 70/4/1
f 71/1/1 73/2/1 74/3/1 72/4/1
f 73/1/1 75/2/1 76/3/1 74/4/1
f 75/1/1 77/2/1 78/3/1 76/4/1
f 77/1/1 79/2/1 80/3/1 78/4/1
f 79/1/1 81/2/1 82/3/1 80/4/1
f 81/1/1 83/2/1 84/3/1 82/4/1
f 83/1/1 85/2/1 86/3/1 84/4/1
f 85/1/1 87/2/1 88/3/1 86/4/1
f 87/1/1 89/2/1 90/3/1 88/4/1
f 89/1/1 91/2/1 92/3/1 90/4/1
f 91/1/1 93/2/1 94/3/1 92/4/1
f 93/1/1 95/2/1 96/3/1 94/4/1
f 95/1/1 97/2/1 98/3/1 96/4/1
f 97/1/1 99/2/1 100/3/1 98/4/1
f 99/1/1 101/2/1 102/3/1 100/4/1
f 103/1/1 104/2/1 105/3/1 106/4/1
f 104/1/1 107/2/1 108/3/1 105/4/1
f 107/1/1 109/2/1 110/3/1 108/4/1
f 109/1/1 111/2/1 112/3/1 110/4/1
f 111/1/1 113/2/1 114/3/1 112/4/1
f 113/1/1 115/2/1 116/3/1 114/4/1
f 115/1/1 117/2/1 118/3/1 116/4/1
f 117/1/1 119/2/1 120/3/1 118/4/1
f 119/1/1 121/2/1 122/3/1 120/4/1
f 121/1/1 123/2/1 124/3/1 122/4/1
f 123/1/1 125/2/1 126/3/1 124/4/1
f 125/1/1 127/2/1 128/3/1 126/4/1
f 127/1/1 129/2/1 130/3/1 128/4/1
f 129/1/1 131/2/1 132/3/1 130/4/1
f 131/1/1 133/2/1 134/3/1 132/4/1
f 133/1/1 135/2/1 136/3/1 134/4/1
f 135/1/1 137/2/1 138/3/1 136/4/1
f 137/1/1 139/2/1 140/3/1 138/4/1
f 139/1/1 141/2/1 142/3/1 140/4/1
f 141/1/1 143/2/1 144/3/1 142/4/1
f 143/1/1 145/2/1 146/3/1 144/4/1
f 145/1/1 147/2/1 148/3/1 146/4/1
f 147/1/1 149/2/1 150/3/1 148/4/1
f 149/1/1 151/2/1 152/3/1 150/4/1
f 151/1/1 153/2/1 154/3/1 152/4/1
f 153/1/1 155/2/1 156/3/1 154/4/1
f 155/1/1 157/2/1 158/3/1 156/4/1
f 157/1/1 159/2/1 160/3/1 158/4/1
f 159/1/1 161/2/1 162/3/1 160/4/1
f 161/1/1 163/2/1 164/3/1 162/4/1
f 163/1/1 165/2/1 166/3/1 164/4/1
f 165/1/1 167/2/1 168/3/1 166/4/1
f 167/1/1 169/2/1 170/3/1 168/4/1
f 171/1/1 172/2/1 173/3/1 174/4/1
f 172/1/1 175/2/1 176/3/1 173/4/1
f 175/1/1 177/2/1 178/3/1 176/4/1
f 177/1/1 179/2/1 180/3/1 178/4/1
f 179/1/1 181/2/1 182/3/1 180/4/1
f 181/1/1 183/2/1 184/3/1 182/4/1
f 183/1/1 185/2/1 186/3/1 184/4/1
f 187/1/1 188/2/1 2/3/1 1/4/1
f 189/1/1 190/2/1 37/3/1 35/4/1
f 191/1/1 192/2/1 40/3/1 39/4/1
f 193/1/1 194/2/1 57/3/1 55/4/1
f 195/1/1 196/2/1 60/3/1 59/4/1
f 197/1/1 198/2/1 101/3/1 99/4/1
f 199/1/1 200/2/1 104/3/1 103/4/1
f 201/1/1 202/2/1 169/3/1 167/4/1
f 203/1/1 204/2/1 172/3/1 171/4/1
f 205/1/1 206/2/1 207/3/1 208/4/1
f 206/1/1 209/2/1 210/3/1 207/4/1
f 209/1/1 211/2/1 212/3/1 210/4/1
f 211/1/1 213/2/1 214/3/1 212/4/1
f 213/1/1 215/2/1 216/3/1 214/4/1
f 215/1/1 217/2/1 218/3/1 216/4/1
f 217/1/1 219/2/1 187/3/1 218/4/1
f 219/1/1 220/2/1 188/3/1 187/4/1
f 221/1/1 222/2/1 190/3/1 189/4/1
f 223/1/1 224/2/1 192/3/1 191/4/1
f 225/1/1 226/2/1 194/3/1 193/4/1
f 226/1/1 227/2/1 228/3/1 194/4/1
f 227/1/1 229/2/1 195/3/1 228/4/1
f 229/1/1 230/2/1 196/3/1 195/4/1
f 231/1/1 232/2/1 198/3/1 197/4/1
f 233/1/1 234/2/1 200/3/1 199/4/1
f 235/1/1 236/2/1 202/3/1 201/4/1
f 237/1/1 238/2/1 204/3/1 203/4/1
f 239/5/1 240/6/1 209/7/1 206/8/1
f 240/9/1 241/10/1 211/11/1 209/12/1
f 242/1/1 243/2/1 222/3/1 221/4/1
f 243/1/1 244/2/1 245/3/1 222/4/1
f 244/1/1 246/2/1 247/3/1 245/4/1
f 246/1/1 248/2/1 249/3/1 247/4/1
f 248/1/1 250/2/1 251/3/1 249/4/1
f 250/1/1 252/2/1 253/3/1 251/4/1
f 252/1/1 254/2/1 223/3/1 253/4/1
f 254/1/1 255/2/1 224/3/1 223/4/1
f 256/1/1 257/2/1 232/3/1 231/4/1
f 257/1/1 258/2/1 259/3/1 232/4/1
f 258/1/1 260/2/1 261/3/1 259/4/1
f 260/1/1 262/2/1 263/3/1 261/4/1
f 262/1/1 264/2/1 265/3/1 263/4/1
f 264/1/1 266/2/1 267/3/1 265/4/1
f 266/1/1 268/2/1 269/3/1 267/4/1
f 268/1/1 270/2/1 271/3/1 269/4/1
f 270/1/1 272/2/1 273/3/1 271/4/1
f 272/1/1 274/2/1 233/3/1 273/4/1
f 274/1/1 275/2/1 234/3/1 233/4/1
f 276/13/1 277/14/1 278/15/1 279/16/1
f 280/17/1 281/18/1 282/19/1 283/20/1
f 284/1/1 285/2/1 236/3/1 235/4/1
f 285/1/1 286/2/1 287/3/1 236/4/1
f 286/1/1 288/2/1 289/3/1 287/4/1
f 288/1/1 290/2/1 291/3/1 289/4/1
f 290/1/1 292/2/1 293/3/1 291/4/1
f 292/1/1 294/2/1 295/3/1 293/4/1
f 294/1/1 296/2/1 297/3/1 295/4/1
f 296/1/1 298/2/1 299/3/1 297/4/1
f 298/1/1 300/2/1 237/3/1 299/4/1
f 300/1/1 301/2/1 238/3/1 237/4/1
f 302/21/1 303/22/1 239/23/1 304/24/1
f 303/25/1 305/26/1 240/27/1 239/28/1
f 305/29/1 306/30/1 241/31/1 240/32/1
f 307/33/1 308/34/1 309/35/1 310/36/1
f 308/33/1 311/34/1 312/35/1 309/36/1
f 311/33/1 313/34/1 314/35/1 312/36/1
f 313/33/1 315/34/1 316/35/1 314/36/1
f 315/33/1 317/34/1 318/35/1 316/36/1
f 319/37/1 320/38/1 321/39/1 322/40/1
f 320/41/1 323/42/1 324/43/1 321/44/1
f 325/33/1 326/34/1 327/35/1 328/36/1
f 329/45/1 330/46/1 331/47/1 332/48/1
f 333/33/1 334/34/1 335/35/1 336/36/1
f 334/33/1 337/34/1 338/35/1 335/36/1
f 339/49/1 340/50/1 341/51/1 342/52/1
f 343/33/1 344/34/1 345/35/1 346/36/1
f 347/33/1 348/34/1 244/35/1 243/36/1
f 348/33/1 349/34/1 246/35/1 244/36/1
f 349/33/1 350/34/1 248/35/1 246/36/1
f 350/33/1 351/34/1 250/35/1 248/36/1
f 351/33/1 352/34/1 252/35/1 250/36/1
f 352/33/1 353/34/1 254/35/1 252/36/1
f 354/41/1 355/42/1 356/43/1 357/44/1
f 355/41/1 358/42/1 359/43/1 356/44/1
f 358/41/1 360/42/1 361/43/1 359/44/1
f 362/33/1 363/34/1 364/35/1 365/36/1
f 363/33/1 366/34/1 367/35/1 364/36/1
f 366/33/1 368/34/1 369/35/1 367/36/1
f 370/33/1 371/34/1 372/35/1 373/36/1
f 374/37/1 375/38/1 376/39/1 377/40/1
f 375/37/1 378/38/1 379/39/1 376/40/1
f 380/33/1 381/34/1 382/35/1 383/36/1
f 384/33/1 385/34/1 386/35/1 387/36/1
f 385/33/1 388/34/1 389/35/1 386/36/1
f 390/33/1 391/34/1 260/35/1 258/36/1
f 391/33/1 392/34/1 262/35/1 260/36/1
f 392/33/1 393/34/1 264/35/1 262/36/1
f 393/33/1 394/34/1 266/35/1 264/36/1
f 394/33/1 395/34/1 268/35/1 266/36/1
f 395/33/1 396/34/1 270/35/1 268/36/1
f 396/33/1 397/34/1 272/35/1 270/36/1
f 398/53/1 399/54/1 277/55/1 276/56/1
f 400/33/1 401/34/1 402/35/1 403/36/1
f 404/45/1 405/46/1 406/47/1 407/48/1
f 405/45/1 408/46/1 409/47/1 406/48/1
f 408/45/1 410/46/1 411/47/1 409/48/1
f 410/45/1 412/46/1 413/47/1 411/48/1
f 412/45/1 414/46/1 415/47/1 413/48/1
f 416/33/1 417/34/1 418/35/1 419/36/1
f 417/33/1 420/34/1 421/35/1 418/36/1
f 420/33/1 422/34/1 423/35/1 421/36/1
f 424/49/1 425/50/1 426/51/1 427/52/1
f 425/49/1 428/50/1 429/51/1 426/52/1
f 428/49/1 430/50/1 431/51/1 429/52/1
f 430/49/1 432/50/1 433/51/1 431/52/1
f 434/57/1 435/58/1 281/59/1 280/60/1
f 436/37/1 437/38/1 438/39/1 439/40/1
f 437/41/1 440/42/1 441/43/1 438/44/1
f 442/33/1 443/34/1 444/35/1 445/36/1
f 446/33/1 447/34/1 288/35/1 286/36/1
f 447/33/1 448/34/1 290/35/1 288/36/1
f 448/33/1 449/34/1 292/35/1 290/36/1
f 449/33/1 450/34/1 294/35/1 292/36/1
f 450/33/1 451/34/1 296/35/1 294/36/1
f 451/33/1 452/34/1 298/35/1 296/36/1
f 453/33/1 454/34/1 455/35/1 456/36/1
f 457/45/1 458/46/1 459/47/1 460/48/1
f 458/45/1 461/46/1 462/47/1 459/48/1
f 463/1/1 464/2/1 303/3/1 302/4/1
f 464/1/1 465/2/1 305/3/1 303/4/1
f 465/1/1 466/2/1 306/3/1 305/4/1
f 466/1/1 467/2/1 307/3/1 306/4/1
f 467/1/1 468/2/1 308/3/1 307/4/1
f 468/1/1 469/2/1 311/3/1 308/4/1
f 469/1/1 470/2/1 313/3/1 311/4/1
f 470/1/1 471/2/1 315/3/1 313/4/1
f 471/1/1 472/2/1 317/3/1 315/4/1
f 472/1/1 473/2/1 319/3/1 317/4/1
f 473/1/1 474/2/1 320/3/1 319/4/1
f 474/1/1 475/2/1 323/3/1 320/4/1
f 475/1/1 476/2/1 325/3/1 323/4/1
f 476/1/1 477/2/1 326/3/1 325/4/1
f 477/1/1 478/2/1 329/3/1 326/4/1
f 478/1/1 479/2/1 330/3/1 329/4/1
f 479/1/1 480/2/1 333/3/1 330/4/1
f 480/1/1 481/2/1 334/3/1 333/4/1
f 481/1/1 482/2/1 337/3/1 334/4/1
f 482/1/1 483/2/1 339/3/1 337/4/1
f 483/1/1 484/2/1 340/3/1 339/4/1
f 484/1/1 485/2/1 343/3/1 340/4/1
f 485/1/1 486/2/1 344/3/1 343/4/1
f 486/1/1 487/2/1 488/3/1 344/4/1
f 487/1/1 489/2/1 347/3/1 488/4/1
f 489/1/1 490/2/1 348/3/1 347/4/1
f 490/1/1 491/2/1 349/3/1 348/4/1
f 491/1/1 492/2/1 350/3/1 349/4/1
f 492/1/1 493/2/1 351/3/1 350/4/1
f 493/1/1 494/2/1 352/3/1 351/4/1
f 494/1/1 495/2/1 353/3/1 352/4/1
f 495/1/1 496/2/1 497/3/1 353/4/1
f 496/1/1 498/2/1 499/3/1 497/4/1
f 498/1/1 500/2/1 354/3/1 499/4/1
f 500/1/1 501/2/1 355/3/1 354/4/1
f 501/1/1 502/2/1 358/3/1 355/4/1
f 502/1/1 503/2/1 360/3/1 358/4/1
f 503/1/1 504/2/1 505/3/1 360/4/1
f 504/1/1 506/2/1 362/3/1 505/4/1
f 506/1/1 507/2/1 363/3/1 362/4/1
f 507/1/1 508/2/1 366/3/1 363/4/1
f 508/1/1 509/2/1 368/3/1 366/4/1
f 509/1/1 510/2/1 511/3/1 368/4/1
f 510/1/1 512/2/1 513/3/1 511/4/1
f 512/61/1 514/62/1 515/63/1 513/64/1
f 514/61/1 516/62/1 517/63/1 515/64/1
f 516/61/1 518/62/1 519/63/1 517/64/1
f 518/1/1 520/2/1 370/3/1 519/4/1
f 520/1/1 521/2/1 371/3/1 370/4/1
f 521/1/1 522/2/1 374/3/1 371/4/1
f 522/1/1 523/2/1 375/3/1 374/4/1
f 523/1/1 524/2/1 378/3/1 375/4/1
f 524/1/1 525/2/1 380/3/1 378/4/1
f 525/1/1 526/2/1 381/3/1 380/4/1
f 526/1/1 527/2/1 528/3/1 381/4/1
f 527/61/1 529/62/1 530/63/1 528/64/1
f 529/61/1 531/62/1 532/63/1 530/64/1
f 531/61/1 533/62/1 534/63/1 532/64/1
f 533/1/1 535/2/1 384/3/1 534/4/1
f 535/1/1 536/2/1 385/3/1 384/4/1
f 536/1/1 537/2/1 388/3/1 385/4/1
f 537/1/1 538/2/1 539/3/1 388/4/1
f 538/1/1 540/2/1 541/3/1 539/4/1
f 540/1/1 542/2/1 390/3/1 541/4/1
f 542/1/1 543/2/1 391/3/1 390/4/1
f 543/1/1 544/2/1 392/3/1 391/4/1
f 544/1/1 545/2/1 393/3/1 392/4/1
f 545/1/1 546/2/1 394/3/1 393/4/1
f 546/1/1 547/2/1 395/3/1 394/4/1
f 547/1/1 548/2/1 396/3/1 395/4/1
f 548/1/1 549/2/1 397/3/1 396/4/1
f 549/1/1 550/2/1 551/3/1 397/4/1
f 550/1/1 552/2/1 553/3/1 551/4/1
f 552/1/1 554/2/1 398/3/1 553/4/1
f 554/1/1 555/2/1 399/3/1 398/4/1
f 555/1/1 556/2/1 557/3/1 399/4/1
f 556/1/1 558/2/1 400/3/1 557/4/1
f 558/1/1 559/2/1 401/3/1 400/4/1
f 559/1/1 560/2/1 404/3/1 401/4/1
f 560/1/1 561/2/1 405/3/1 404/4/1
f 561/1/1 562/2/1 408/3/1 405/4/1
f 562/1/1 563/2/1 410/3/1 408/4/1
f 563/1/1 564/2/1 412/3/1 410/4/1
f 564/1/1 565/2/1 414/3/1 412/4/1
f 565/1/1 566/2/1 416/3/1 414/4/1
f 566/1/1 567/2/1 417/3/1 416/4/1
f 567/1/1 568/2/1 420/3/1 417/4/1
f 568/1/1 569/2/1 422/3/1 420/4/1
f 569/1/1 570/2/1 424/3/1 422/4/1
f 570/1/1 571/2/1 425/3/1 424/4/1
f 571/1/1 572/2/1 428/3/1 425/4/1
f 572/1/1 573/2/1 430/3/1 428/4/1
f 573/1/1 574/2/1 432/3/1 430/4/1
f 574/1/1 575/2/1 576/3/1 432/4/1
f 575/1/1 577/2/1 434/3/1 576/4/1
f 577/1/1 578/2/1 435/3/1 434/4/1
f 578/1/1 579/2/1 580/3/1 435/4/1
f 579/1/1 581/2/1 582/3/1 580/4/1
f 581/1/1 583/2/1 436/3/1 582/4/1
f 583/1/1 584/2/1 437/3/1 436/4/1
f 584/1/1 585/2/1 440/3/1 437/4/1
f 585/1/1 586/2/1 442/3/1 440/4/1
f 586/1/1 587/2/1 443/3/1 442/4/1
f 587/1/1 588/2/1 589/3/1 443/4/1
f 588/1/1 590/2/1 591/3/1 589/4/1
f 590/1/1 592/2/1 446/3/1 591/4/1
f 592/1/1 593/2/1 447/3/1 446/4/1
f 593/1/1 594/2/1 448/3/1 447/4/1
f 594/1/1 595/2/1 449/3/1 448/4/1
f 595/1/1 596/2/1 450/3/1 449/4/1
f 596/1/1 597/2/1 451/3/1 450/4/1
f 597/1/1 598/2/1 452/3/1 451/4/1
f 598/1/1 599/2/1 600/3/1 452/4/1
f 599/1/1 601/2/1 602/3/1 600/4/1
f 601/1/1 603/2/1 453/3/1 602/4/1
f 603/1/1 604/2/1 454/3/1 453/4/1
f 604/1/1 605/2/1 457/3/1 454/4/1
f 605/1/1 606/2/1 458/3/1 457/4/1
f 606/1/1 607/2/1 461/3/1 458/4/1
f 607/1/1 608/2/1 609/3/1 461/4/1

