# Wavefront OBJ file automatically generated by Tiled2Unity

# Vertices (Count = 410)
v -5200 -320 0
v -5280 -320 0
v -5280 -240 0
v -5200 -240 0
v -5360 -320 0
v -5360 -240 0
v -5440 -320 0
v -5520 -320 0
v -5520 -240 0
v -5440 -240 0
v -5600 -320 0
v -5600 -240 0
v -5680 -320 0
v -5680 -240 0
v -5760 -320 0
v -5840 -320 0
v -5840 -240 0
v -5760 -240 0
v -5920 -320 0
v -5920 -240 0
v -4880 -400 0
v -4960 -400 0
v -4960 -320 0
v -4880 -320 0
v -5040 -400 0
v -5120 -400 0
v -5120 -320 0
v -5040 -320 0
v -5200 -400 0
v -5280 -400 0
v -5360 -400 0
v -5440 -400 0
v -5520 -400 0
v -5600 -400 0
v -5680 -400 0
v -5760 -400 0
v -5840 -400 0
v -5920 -400 0
v -6000 -400 0
v -6000 -320 0
v -4560 -480 0
v -4640 -480 0
v -4640 -400 0
v -4560 -400 0
v -4720 -480 0
v -4720 -400 0
v -4800 -480 0
v -4880 -480 0
v -4800 -400 0
v -4960 -480 0
v -5040 -480 0
v -5120 -480 0
v -4160 -560 0
v -4240 -560 0
v -4240 -480 0
v -4160 -480 0
v -4320 -560 0
v -4400 -560 0
v -4400 -480 0
v -4320 -480 0
v -4480 -560 0
v -4480 -480 0
v -4560 -560 0
v -4640 -560 0
v -4720 -560 0
v -4800 -560 0
v -3920 -640 0
v -4000 -640 0
v -4000 -560 0
v -3920 -560 0
v -4080 -640 0
v -4080 -560 0
v -4160 -640 0
v -4240 -640 0
v -4320 -640 0
v -4400 -640 0
v -4480 -640 0
v -1920 -720 0
v -2000 -720 0
v -2000 -640 0
v -1920 -640 0
v -2400 -720 0
v -2480 -720 0
v -2480 -640 0
v -2400 -640 0
v -2560 -720 0
v -2560 -640 0
v -2800 -720 0
v -2880 -720 0
v -2880 -640 0
v -2800 -640 0
v -3120 -720 0
v -3200 -720 0
v -3200 -640 0
v -3120 -640 0
v -3280 -720 0
v -3280 -640 0
v -3600 -720 0
v -3680 -720 0
v -3680 -640 0
v -3600 -640 0
v -3760 -720 0
v -3760 -640 0
v -3840 -720 0
v -3920 -720 0
v -3840 -640 0
v -4000 -720 0
v -4080 -720 0
v -4160 -720 0
v -1600 -800 0
v -1680 -800 0
v -1680 -720 0
v -1600 -720 0
v -1760 -800 0
v -1840 -800 0
v -1840 -720 0
v -1760 -720 0
v -1920 -800 0
v -2000 -800 0
v -2080 -800 0
v -2080 -720 0
v -2160 -800 0
v -2160 -720 0
v -2240 -800 0
v -2240 -720 0
v -2320 -800 0
v -2320 -720 0
v -2400 -800 0
v -2480 -800 0
v -2560 -800 0
v -2800 -800 0
v -2880 -800 0
v -3120 -800 0
v -3200 -800 0
v -3280 -800 0
v -3520 -800 0
v -3600 -800 0
v -3520 -720 0
v -3680 -800 0
v -3760 -800 0
v -3840 -800 0
v -1280 -880 0
v -1360 -880 0
v -1360 -800 0
v -1280 -800 0
v -1440 -880 0
v -1440 -800 0
v -1520 -880 0
v -1600 -880 0
v -1520 -800 0
v -1680 -880 0
v -1760 -880 0
v -1840 -880 0
v -640 -960 0
v -720 -960 0
v -720 -880 0
v -640 -880 0
v -800 -960 0
v -800 -880 0
v -880 -960 0
v -880 -880 0
v -960 -960 0
v -960 -880 0
v -1040 -960 0
v -1120 -960 0
v -1120 -880 0
v -1040 -880 0
v -1200 -960 0
v -1200 -880 0
v -1280 -960 0
v -1360 -960 0
v -1440 -960 0
v -1520 -960 0
v -560 -1040 0
v -640 -1040 0
v -560 -960 0
v -720 -1040 0
v -800 -1040 0
v -880 -1040 0
v -960 -1040 0
v -1040 -1040 0
v -1120 -1040 0
v -1200 -1040 0
v 0 -1280 0
v -80 -1280 0
v -80 -1200 0
v 0 -1200 0
v -160 -1280 0
v -160 -1200 0
v 0 -1360 0
v -80 -1360 0
v -160 -1360 0
v -240 -1360 0
v -240 -1280 0
v -320 -1360 0
v -320 -1280 0
v -400 -1360 0
v -400 -1280 0
v -480 -1360 0
v -560 -1360 0
v -560 -1280 0
v -480 -1280 0
v -640 -1360 0
v -720 -1360 0
v -720 -1280 0
v -640 -1280 0
v -800 -1360 0
v -800 -1280 0
v -880 -1360 0
v -880 -1280 0
v -960 -1360 0
v -1040 -1360 0
v -1040 -1280 0
v -960 -1280 0
v -1120 -1360 0
v -1120 -1280 0
v -1200 -1360 0
v -1280 -1360 0
v -1280 -1280 0
v -1200 -1280 0
v -1360 -1360 0
v -1360 -1280 0
v -1440 -1360 0
v -1520 -1360 0
v -1520 -1280 0
v -1440 -1280 0
v -1600 -1360 0
v -1600 -1280 0
v -1680 -1360 0
v -1760 -1360 0
v -1760 -1280 0
v -1680 -1280 0
v -1840 -1360 0
v -1840 -1280 0
v -1920 -1360 0
v -2000 -1360 0
v -2000 -1280 0
v -1920 -1280 0
v -2080 -1360 0
v -2080 -1280 0
v -2160 -1360 0
v -2160 -1280 0
v -2720 -1360 0
v -2800 -1360 0
v -2800 -1280 0
v -2720 -1280 0
v -3360 -1360 0
v -3440 -1360 0
v -3440 -1280 0
v -3360 -1280 0
v 0 -1440 0
v -80 -1440 0
v -160 -1440 0
v -240 -1440 0
v -320 -1440 0
v -400 -1440 0
v -480 -1440 0
v -560 -1440 0
v -640 -1440 0
v -720 -1440 0
v -800 -1440 0
v -880 -1440 0
v -960 -1440 0
v -1040 -1440 0
v -1120 -1440 0
v -1200 -1440 0
v -1280 -1440 0
v -1360 -1440 0
v -1440 -1440 0
v -1520 -1440 0
v -1600 -1440 0
v -1680 -1440 0
v -1760 -1440 0
v -1840 -1440 0
v -1920 -1440 0
v -2000 -1440 0
v -2080 -1440 0
v -2160 -1440 0
v -2240 -1440 0
v -2240 -1360 0
v -2640 -1440 0
v -2720 -1440 0
v -2640 -1360 0
v -2800 -1440 0
v -2880 -1440 0
v -2880 -1360 0
v -3280 -1440 0
v -3360 -1440 0
v -3280 -1360 0
v -3440 -1440 0
v -3520 -1440 0
v -3520 -1360 0
v -2400 -1520 0
v -2480 -1520 0
v -2480 -1440 0
v -2400 -1440 0
v -2560 -1520 0
v -2560 -1440 0
v -3040 -1520 0
v -3120 -1520 0
v -3120 -1440 0
v -3040 -1440 0
v -3200 -1520 0
v -3200 -1440 0
v -3760 -1520 0
v -3840 -1520 0
v -3840 -1440 0
v -3760 -1440 0
v -3920 -1520 0
v -3920 -1440 0
v -2320 -1600 0
v -2400 -1600 0
v -2320 -1520 0
v -2480 -1600 0
v -2560 -1600 0
v -2640 -1600 0
v -2640 -1520 0
v -2960 -1600 0
v -3040 -1600 0
v -2960 -1520 0
v -3120 -1600 0
v -3200 -1600 0
v -3280 -1600 0
v -3280 -1520 0
v -3680 -1600 0
v -3760 -1600 0
v -3680 -1520 0
v -3840 -1600 0
v -3920 -1600 0
v -4000 -1600 0
v -4000 -1520 0
v -4080 -1600 0
v -4080 -1520 0
v -4160 -1600 0
v -4240 -1600 0
v -4240 -1520 0
v -4160 -1520 0
v -4000 -1680 0
v -4080 -1680 0
v -4160 -1680 0
v -4240 -1680 0
v -4320 -1680 0
v -4320 -1600 0
v -4400 -1680 0
v -4480 -1680 0
v -4480 -1600 0
v -4400 -1600 0
v -4560 -1680 0
v -4560 -1600 0
v -4320 -1760 0
v -4400 -1760 0
v -4480 -1760 0
v -4560 -1760 0
v -4640 -1760 0
v -4640 -1680 0
v -4720 -1760 0
v -4720 -1680 0
v -4800 -1760 0
v -4880 -1760 0
v -4880 -1680 0
v -4800 -1680 0
v -4640 -1840 0
v -4720 -1840 0
v -4800 -1840 0
v -4880 -1840 0
v -4960 -1840 0
v -4960 -1760 0
v -5040 -1840 0
v -5120 -1840 0
v -5120 -1760 0
v -5040 -1760 0
v -5200 -1840 0
v -5200 -1760 0
v -5760 -1840 0
v -5840 -1840 0
v -5840 -1760 0
v -5760 -1760 0
v -5920 -1840 0
v -5920 -1760 0
v -4960 -1920 0
v -5040 -1920 0
v -5120 -1920 0
v -5200 -1920 0
v -5280 -1920 0
v -5280 -1840 0
v -5360 -1920 0
v -5360 -1840 0
v -5440 -1920 0
v -5440 -1840 0
v -5520 -1920 0
v -5520 -1840 0
v -5600 -1920 0
v -5680 -1920 0
v -5680 -1840 0
v -5600 -1840 0
v -5760 -1920 0
v -5840 -1920 0
v -5920 -1920 0
v -6000 -1920 0
v -6000 -1840 0
v -5280 -2000 0
v -5360 -2000 0
v -5440 -2000 0
v -5520 -2000 0
v -5600 -2000 0
v -5680 -2000 0
v -5760 -2000 0
v -5840 -2000 0
v -5920 -2000 0
v -6000 -2000 0

# Texture cooridinates (Count = 68)
vt 0.2501221 0.7501221
vt 0.3748779 0.7501221
vt 0.3748779 0.9998779
vt 0.2501221 0.9998779
vt 0.3751221 0.7501221
vt 0.4998779 0.7501221
vt 0.4998779 0.9998779
vt 0.3751221 0.9998779
vt 0.5001221 0.7501221
vt 0.6248779 0.7501221
vt 0.6248779 0.9998779
vt 0.5001221 0.9998779
vt 0.7501221 0.7501221
vt 0.8748779 0.7501221
vt 0.8748779 0.9998779
vt 0.7501221 0.9998779
vt 0.1251221 0.7501221
vt 0.2498779 0.7501221
vt 0.2498779 0.9998779
vt 0.1251221 0.9998779
vt 0.6251221 0.7501221
vt 0.7498779 0.7501221
vt 0.7498779 0.9998779
vt 0.6251221 0.9998779
vt 0.2501221 0.5001221
vt 0.3748779 0.5001221
vt 0.3748779 0.7498779
vt 0.2501221 0.7498779
vt 0.2501221 0.2501221
vt 0.3748779 0.2501221
vt 0.3748779 0.4998779
vt 0.2501221 0.4998779
vt 0.3751221 0.2501221
vt 0.4998779 0.2501221
vt 0.4998779 0.4998779
vt 0.3751221 0.4998779
vt 0.2501221 0.0001220703
vt 0.3748779 0.0001220703
vt 0.3748779 0.2498779
vt 0.2501221 0.2498779
vt 0.3751221 0.0001220703
vt 0.4998779 0.0001220703
vt 0.4998779 0.2498779
vt 0.3751221 0.2498779
vt 0.8751221 0.7501221
vt 0.9998779 0.7501221
vt 0.9998779 0.9998779
vt 0.8751221 0.9998779
vt 0.0001220703 0.2501221
vt 0.1248779 0.2501221
vt 0.1248779 0.4998779
vt 0.0001220703 0.4998779
vt 0.1251221 0.2501221
vt 0.2498779 0.2501221
vt 0.2498779 0.4998779
vt 0.1251221 0.4998779
vt 0.0001220703 0.0001220703
vt 0.1248779 0.0001220703
vt 0.1248779 0.2498779
vt 0.0001220703 0.2498779
vt 0.1251221 0.0001220703
vt 0.2498779 0.0001220703
vt 0.2498779 0.2498779
vt 0.1251221 0.2498779
vt 0.0001220703 0.7501221
vt 0.1248779 0.7501221
vt 0.1248779 0.9998779
vt 0.0001220703 0.9998779

# Normal
vn 0 0 -1

# Groups (Count = 1)

g mesh_0001
f 1/1/1 2/2/1 3/3/1 4/4/1
f 2/1/1 5/2/1 6/3/1 3/4/1
f 7/5/1 8/6/1 9/7/1 10/8/1
f 8/9/1 11/10/1 12/11/1 9/12/1
f 11/5/1 13/6/1 14/7/1 12/8/1
f 15/1/1 16/2/1 17/3/1 18/4/1
f 16/1/1 19/2/1 20/3/1 17/4/1
f 21/1/1 22/2/1 23/3/1 24/4/1
f 25/13/1 26/14/1 27/15/1 28/16/1
f 26/17/1 29/18/1 1/19/1 27/20/1
f 29/17/1 30/18/1 2/19/1 1/20/1
f 30/17/1 31/18/1 5/19/1 2/20/1
f 31/17/1 32/18/1 7/19/1 5/20/1
f 32/17/1 33/18/1 8/19/1 7/20/1
f 33/17/1 34/18/1 11/19/1 8/20/1
f 34/17/1 35/18/1 13/19/1 11/20/1
f 35/17/1 36/18/1 15/19/1 13/20/1
f 36/17/1 37/18/1 16/19/1 15/20/1
f 37/17/1 38/18/1 19/19/1 16/20/1
f 38/17/1 39/18/1 40/19/1 19/20/1
f 41/1/1 42/2/1 43/3/1 44/4/1
f 42/1/1 45/2/1 46/3/1 43/4/1
f 47/17/1 48/18/1 21/19/1 49/20/1
f 48/17/1 50/18/1 22/19/1 21/20/1
f 50/17/1 51/18/1 25/19/1 22/20/1
f 51/17/1 52/18/1 26/19/1 25/20/1
f 53/1/1 54/2/1 55/3/1 56/4/1
f 57/5/1 58/6/1 59/7/1 60/8/1
f 58/13/1 61/14/1 62/15/1 59/16/1
f 61/17/1 63/18/1 41/19/1 62/20/1
f 63/17/1 64/18/1 42/19/1 41/20/1
f 64/17/1 65/18/1 45/19/1 42/20/1
f 65/17/1 66/18/1 47/19/1 45/20/1
f 67/1/1 68/2/1 69/3/1 70/4/1
f 68/1/1 71/2/1 72/3/1 69/4/1
f 73/17/1 74/18/1 54/19/1 53/20/1
f 74/17/1 75/18/1 57/19/1 54/20/1
f 75/17/1 76/18/1 58/19/1 57/20/1
f 76/17/1 77/18/1 61/19/1 58/20/1
f 78/1/1 79/2/1 80/3/1 81/4/1
f 82/1/1 83/2/1 84/3/1 85/4/1
f 83/1/1 86/2/1 87/3/1 84/4/1
f 88/1/1 89/2/1 90/3/1 91/4/1
f 92/1/1 93/2/1 94/3/1 95/4/1
f 93/1/1 96/2/1 97/3/1 94/4/1
f 98/1/1 99/2/1 100/3/1 101/4/1
f 99/1/1 102/2/1 103/3/1 100/4/1
f 104/17/1 105/18/1 67/19/1 106/20/1
f 105/17/1 107/18/1 68/19/1 67/20/1
f 107/17/1 108/18/1 71/19/1 68/20/1
f 108/17/1 109/18/1 73/19/1 71/20/1
f 110/1/1 111/2/1 112/3/1 113/4/1
f 114/21/1 115/22/1 116/23/1 117/24/1
f 115/17/1 118/18/1 78/19/1 116/20/1
f 118/17/1 119/18/1 79/19/1 78/20/1
f 119/17/1 120/18/1 121/19/1 79/20/1
f 120/25/1 122/26/1 123/27/1 121/28/1
f 122/25/1 124/26/1 125/27/1 123/28/1
f 124/25/1 126/26/1 127/27/1 125/28/1
f 126/25/1 128/26/1 82/27/1 127/28/1
f 128/17/1 129/18/1 83/19/1 82/20/1
f 129/17/1 130/18/1 86/19/1 83/20/1
f 131/17/1 132/18/1 89/19/1 88/20/1
f 133/17/1 134/18/1 93/19/1 92/20/1
f 134/17/1 135/18/1 96/19/1 93/20/1
f 136/17/1 137/18/1 98/19/1 138/20/1
f 137/17/1 139/18/1 99/19/1 98/20/1
f 139/17/1 140/18/1 102/19/1 99/20/1
f 140/17/1 141/18/1 104/19/1 102/20/1
f 142/1/1 143/2/1 144/3/1 145/4/1
f 143/1/1 146/2/1 147/3/1 144/4/1
f 148/17/1 149/18/1 110/19/1 150/20/1
f 149/17/1 151/18/1 111/19/1 110/20/1
f 151/17/1 152/18/1 114/19/1 111/20/1
f 152/17/1 153/18/1 115/19/1 114/20/1
f 154/1/1 155/2/1 156/3/1 157/4/1
f 155/1/1 158/2/1 159/3/1 156/4/1
f 158/1/1 160/2/1 161/3/1 159/4/1
f 160/1/1 162/2/1 163/3/1 161/4/1
f 164/13/1 165/14/1 166/15/1 167/16/1
f 165/9/1 168/10/1 169/11/1 166/12/1
f 168/17/1 170/18/1 142/19/1 169/20/1
f 170/17/1 171/18/1 143/19/1 142/20/1
f 171/17/1 172/18/1 146/19/1 143/20/1
f 172/17/1 173/18/1 148/19/1 146/20/1
f 174/17/1 175/18/1 154/19/1 176/20/1
f 175/17/1 177/18/1 155/19/1 154/20/1
f 177/17/1 178/18/1 158/19/1 155/20/1
f 178/17/1 179/18/1 160/19/1 158/20/1
f 179/17/1 180/18/1 162/19/1 160/20/1
f 180/17/1 181/18/1 164/19/1 162/20/1
f 181/17/1 182/18/1 165/19/1 164/20/1
f 182/17/1 183/18/1 168/19/1 165/20/1
f 184/29/1 185/30/1 186/31/1 187/32/1
f 185/33/1 188/34/1 189/35/1 186/36/1
f 190/37/1 191/38/1 185/39/1 184/40/1
f 191/41/1 192/42/1 188/43/1 185/44/1
f 192/1/1 193/2/1 194/3/1 188/4/1
f 193/1/1 195/2/1 196/3/1 194/4/1
f 195/1/1 197/2/1 198/3/1 196/4/1
f 199/1/1 200/2/1 201/3/1 202/4/1
f 203/9/1 204/10/1 205/11/1 206/12/1
f 204/21/1 207/22/1 208/23/1 205/24/1
f 207/9/1 209/10/1 210/11/1 208/12/1
f 211/1/1 212/2/1 213/3/1 214/4/1
f 212/1/1 215/2/1 216/3/1 213/4/1
f 217/13/1 218/14/1 219/15/1 220/16/1
f 218/5/1 221/6/1 222/7/1 219/8/1
f 223/1/1 224/2/1 225/3/1 226/4/1
f 224/1/1 227/2/1 228/3/1 225/4/1
f 229/5/1 230/6/1 231/7/1 232/8/1
f 230/13/1 233/14/1 234/15/1 231/16/1
f 235/1/1 236/2/1 237/3/1 238/4/1
f 236/1/1 239/2/1 240/3/1 237/4/1
f 239/1/1 241/2/1 242/3/1 240/4/1
f 243/1/1 244/2/1 245/3/1 246/4/1
f 247/1/1 248/2/1 249/3/1 250/4/1
f 251/17/1 252/18/1 191/19/1 190/20/1
f 252/17/1 253/18/1 192/19/1 191/20/1
f 253/17/1 254/18/1 193/19/1 192/20/1
f 254/17/1 255/18/1 195/19/1 193/20/1
f 255/17/1 256/18/1 197/19/1 195/20/1
f 256/45/1 257/46/1 199/47/1 197/48/1
f 257/17/1 258/18/1 200/19/1 199/20/1
f 258/17/1 259/18/1 203/19/1 200/20/1
f 259/17/1 260/18/1 204/19/1 203/20/1
f 260/17/1 261/18/1 207/19/1 204/20/1
f 261/17/1 262/18/1 209/19/1 207/20/1
f 262/17/1 263/18/1 211/19/1 209/20/1
f 263/17/1 264/18/1 212/19/1 211/20/1
f 264/17/1 265/18/1 215/19/1 212/20/1
f 265/17/1 266/18/1 217/19/1 215/20/1
f 266/17/1 267/18/1 218/19/1 217/20/1
f 267/17/1 268/18/1 221/19/1 218/20/1
f 268/17/1 269/18/1 223/19/1 221/20/1
f 269/17/1 270/18/1 224/19/1 223/20/1
f 270/17/1 271/18/1 227/19/1 224/20/1
f 271/17/1 272/18/1 229/19/1 227/20/1
f 272/17/1 273/18/1 230/19/1 229/20/1
f 273/17/1 274/18/1 233/19/1 230/20/1
f 274/17/1 275/18/1 235/19/1 233/20/1
f 275/17/1 276/18/1 236/19/1 235/20/1
f 276/17/1 277/18/1 239/19/1 236/20/1
f 277/17/1 278/18/1 241/19/1 239/20/1
f 278/17/1 279/18/1 280/19/1 241/20/1
f 281/17/1 282/18/1 243/19/1 283/20/1
f 282/17/1 284/18/1 244/19/1 243/20/1
f 284/17/1 285/18/1 286/19/1 244/20/1
f 287/17/1 288/18/1 247/19/1 289/20/1
f 288/17/1 290/18/1 248/19/1 247/20/1
f 290/17/1 291/18/1 292/19/1 248/20/1
f 293/1/1 294/2/1 295/3/1 296/4/1
f 294/1/1 297/2/1 298/3/1 295/4/1
f 299/1/1 300/2/1 301/3/1 302/4/1
f 300/1/1 303/2/1 304/3/1 301/4/1
f 305/1/1 306/2/1 307/3/1 308/4/1
f 306/1/1 309/2/1 310/3/1 307/4/1
f 311/17/1 312/18/1 293/19/1 313/20/1
f 312/17/1 314/18/1 294/19/1 293/20/1
f 314/17/1 315/18/1 297/19/1 294/20/1
f 315/17/1 316/18/1 317/19/1 297/20/1
f 318/17/1 319/18/1 299/19/1 320/20/1
f 319/17/1 321/18/1 300/19/1 299/20/1
f 321/17/1 322/18/1 303/19/1 300/20/1
f 322/17/1 323/18/1 324/19/1 303/20/1
f 325/17/1 326/18/1 305/19/1 327/20/1
f 326/17/1 328/18/1 306/19/1 305/20/1
f 328/17/1 329/18/1 309/19/1 306/20/1
f 329/17/1 330/18/1 331/19/1 309/20/1
f 330/21/1 332/22/1 333/23/1 331/24/1
f 334/1/1 335/2/1 336/3/1 337/4/1
f 338/17/1 339/18/1 332/19/1 330/20/1
f 339/17/1 340/18/1 334/19/1 332/20/1
f 340/17/1 341/18/1 335/19/1 334/20/1
f 341/17/1 342/18/1 343/19/1 335/20/1
f 344/1/1 345/2/1 346/3/1 347/4/1
f 345/1/1 348/2/1 349/3/1 346/4/1
f 350/17/1 351/18/1 344/19/1 342/20/1
f 351/17/1 352/18/1 345/19/1 344/20/1
f 352/17/1 353/18/1 348/19/1 345/20/1
f 353/17/1 354/18/1 355/19/1 348/20/1
f 354/9/1 356/10/1 357/11/1 355/12/1
f 358/1/1 359/2/1 360/3/1 361/4/1
f 362/17/1 363/18/1 356/19/1 354/20/1
f 363/17/1 364/18/1 358/19/1 356/20/1
f 364/17/1 365/18/1 359/19/1 358/20/1
f 365/17/1 366/18/1 367/19/1 359/20/1
f 368/1/1 369/2/1 370/3/1 371/4/1
f 369/1/1 372/2/1 373/3/1 370/4/1
f 374/49/1 375/50/1 376/51/1 377/52/1
f 375/53/1 378/54/1 379/55/1 376/56/1
f 380/17/1 381/18/1 368/19/1 366/20/1
f 381/17/1 382/18/1 369/19/1 368/20/1
f 382/17/1 383/18/1 372/19/1 369/20/1
f 383/17/1 384/18/1 385/19/1 372/20/1
f 384/5/1 386/6/1 387/7/1 385/8/1
f 386/13/1 388/14/1 389/15/1 387/16/1
f 388/9/1 390/10/1 391/11/1 389/12/1
f 392/1/1 393/2/1 394/3/1 395/4/1
f 393/1/1 396/2/1 374/3/1 394/4/1
f 396/57/1 397/58/1 375/59/1 374/60/1
f 397/61/1 398/62/1 378/63/1 375/64/1
f 398/65/1 399/66/1 400/67/1 378/68/1
f 401/17/1 402/18/1 386/19/1 384/20/1
f 402/17/1 403/18/1 388/19/1 386/20/1
f 403/17/1 404/18/1 390/19/1 388/20/1
f 404/17/1 405/18/1 392/19/1 390/20/1
f 405/17/1 406/18/1 393/19/1 392/20/1
f 406/17/1 407/18/1 396/19/1 393/20/1
f 407/17/1 408/18/1 397/19/1 396/20/1
f 408/17/1 409/18/1 398/19/1 397/20/1
f 409/17/1 410/18/1 399/19/1 398/20/1

