# Wavefront OBJ file automatically generated by Tiled2Unity

# Vertices (Count = 615)
v -80 -240 0
v -160 -240 0
v -160 -160 0
v -80 -160 0
v -240 -240 0
v -240 -160 0
v 0 -320 0
v -80 -320 0
v 0 -240 0
v -160 -320 0
v -240 -320 0
v -320 -320 0
v -400 -320 0
v -400 -240 0
v -320 -240 0
v 0 -400 0
v -80 -400 0
v -160 -400 0
v -240 -400 0
v -320 -400 0
v -400 -400 0
v -480 -400 0
v -480 -320 0
v -560 -400 0
v -640 -400 0
v -640 -320 0
v -560 -320 0
v -480 -480 0
v -560 -480 0
v -640 -480 0
v -720 -480 0
v -720 -400 0
v -800 -480 0
v -880 -480 0
v -880 -400 0
v -800 -400 0
v -960 -480 0
v -1040 -480 0
v -1040 -400 0
v -960 -400 0
v -720 -560 0
v -800 -560 0
v -880 -560 0
v -960 -560 0
v -1040 -560 0
v -1120 -560 0
v -1200 -560 0
v -1200 -480 0
v -1120 -480 0
v -1280 -560 0
v -1280 -480 0
v -1040 -640 0
v -1120 -640 0
v -1200 -640 0
v -1280 -640 0
v -1360 -640 0
v -1360 -560 0
v -1440 -640 0
v -1520 -640 0
v -1520 -560 0
v -1440 -560 0
v -1600 -640 0
v -1600 -560 0
v -2000 -640 0
v -2080 -640 0
v -2080 -560 0
v -2000 -560 0
v -2160 -640 0
v -2160 -560 0
v -2240 -640 0
v -2320 -640 0
v -2320 -560 0
v -2240 -560 0
v -2400 -640 0
v -2400 -560 0
v -2480 -640 0
v -2560 -640 0
v -2560 -560 0
v -2480 -560 0
v -3360 -640 0
v -3440 -640 0
v -3440 -560 0
v -3360 -560 0
v -3520 -640 0
v -3600 -640 0
v -3600 -560 0
v -3520 -560 0
v -3680 -640 0
v -3760 -640 0
v -3760 -560 0
v -3680 -560 0
v -3840 -640 0
v -3920 -640 0
v -3920 -560 0
v -3840 -560 0
v -4000 -640 0
v -4080 -640 0
v -4080 -560 0
v -4000 -560 0
v -4160 -640 0
v -4240 -640 0
v -4240 -560 0
v -4160 -560 0
v -1360 -720 0
v -1440 -720 0
v -1520 -720 0
v -1600 -720 0
v -1680 -720 0
v -1680 -640 0
v -1760 -720 0
v -1760 -640 0
v -1840 -720 0
v -1840 -640 0
v -1920 -720 0
v -1920 -640 0
v -2000 -720 0
v -2080 -720 0
v -2160 -720 0
v -2240 -720 0
v -2320 -720 0
v -2400 -720 0
v -2480 -720 0
v -2560 -720 0
v -2640 -720 0
v -2640 -640 0
v -2880 -720 0
v -2960 -720 0
v -2960 -640 0
v -2880 -640 0
v -3040 -720 0
v -3040 -640 0
v -3280 -720 0
v -3360 -720 0
v -3280 -640 0
v -3440 -720 0
v -3520 -720 0
v -3600 -720 0
v -3680 -720 0
v -3760 -720 0
v -3840 -720 0
v -3920 -720 0
v -4000 -720 0
v -4080 -720 0
v -4160 -720 0
v -4240 -720 0
v -2640 -800 0
v -2720 -800 0
v -2720 -720 0
v -2800 -800 0
v -2800 -720 0
v -2880 -800 0
v -2960 -800 0
v -3040 -800 0
v -3120 -800 0
v -3120 -720 0
v -3200 -800 0
v -3200 -720 0
v -3280 -800 0
v -4640 -1040 0
v -4720 -1040 0
v -4720 -960 0
v -4640 -960 0
v -4800 -1040 0
v -4800 -960 0
v -2160 -1120 0
v -2240 -1120 0
v -2240 -1040 0
v -2160 -1040 0
v -2320 -1120 0
v -2400 -1120 0
v -2400 -1040 0
v -2320 -1040 0
v -2480 -1120 0
v -2560 -1120 0
v -2560 -1040 0
v -2480 -1040 0
v -2640 -1120 0
v -2640 -1040 0
v -2960 -1120 0
v -3040 -1120 0
v -3040 -1040 0
v -2960 -1040 0
v -3120 -1120 0
v -3120 -1040 0
v -3360 -1120 0
v -3440 -1120 0
v -3440 -1040 0
v -3360 -1040 0
v -3520 -1120 0
v -3520 -1040 0
v -4000 -1120 0
v -4080 -1120 0
v -4080 -1040 0
v -4000 -1040 0
v -4160 -1120 0
v -4160 -1040 0
v -4240 -1120 0
v -4240 -1040 0
v -4320 -1120 0
v -4320 -1040 0
v -4400 -1120 0
v -4400 -1040 0
v -4640 -1120 0
v -4720 -1120 0
v -4800 -1120 0
v -1520 -1200 0
v -1600 -1200 0
v -1600 -1120 0
v -1520 -1120 0
v -1680 -1200 0
v -1680 -1120 0
v -1760 -1200 0
v -1760 -1120 0
v -1840 -1200 0
v -1920 -1200 0
v -1920 -1120 0
v -1840 -1120 0
v -2000 -1200 0
v -2000 -1120 0
v -2080 -1200 0
v -2160 -1200 0
v -2080 -1120 0
v -2240 -1200 0
v -2320 -1200 0
v -2400 -1200 0
v -2480 -1200 0
v -2560 -1200 0
v -2640 -1200 0
v -2720 -1200 0
v -2720 -1120 0
v -2800 -1200 0
v -2800 -1120 0
v -2880 -1200 0
v -2880 -1120 0
v -2960 -1200 0
v -3040 -1200 0
v -3120 -1200 0
v -3200 -1200 0
v -3280 -1200 0
v -3280 -1120 0
v -3200 -1120 0
v -3360 -1200 0
v -3440 -1200 0
v -3520 -1200 0
v -3600 -1200 0
v -3600 -1120 0
v -3680 -1200 0
v -3680 -1120 0
v -3760 -1200 0
v -3840 -1200 0
v -3840 -1120 0
v -3760 -1120 0
v -3920 -1200 0
v -3920 -1120 0
v -4000 -1200 0
v -4080 -1200 0
v -4160 -1200 0
v -4240 -1200 0
v -4320 -1200 0
v -4400 -1200 0
v -4480 -1200 0
v -4480 -1120 0
v -4560 -1200 0
v -4560 -1120 0
v -4640 -1200 0
v -4720 -1200 0
v -4800 -1200 0
v -1520 -1280 0
v -1600 -1280 0
v -1680 -1280 0
v -1760 -1280 0
v -1840 -1280 0
v -1920 -1280 0
v -2000 -1280 0
v -2080 -1280 0
v -2160 -1280 0
v -1120 -1360 0
v -1200 -1360 0
v -1200 -1280 0
v -1120 -1280 0
v -1280 -1360 0
v -1280 -1280 0
v -1360 -1360 0
v -1360 -1280 0
v -640 -1440 0
v -720 -1440 0
v -720 -1360 0
v -640 -1360 0
v -800 -1440 0
v -880 -1440 0
v -880 -1360 0
v -800 -1360 0
v -960 -1440 0
v -960 -1360 0
v -1040 -1440 0
v -1040 -1360 0
v -1120 -1440 0
v -1200 -1440 0
v -1280 -1440 0
v -1360 -1440 0
v -1440 -1440 0
v -1440 -1360 0
v -560 -1520 0
v -640 -1520 0
v -560 -1440 0
v -720 -1520 0
v -800 -1520 0
v 0 -1760 0
v -80 -1760 0
v -80 -1680 0
v 0 -1680 0
v -160 -1760 0
v -160 -1680 0
v 0 -1840 0
v -80 -1840 0
v -160 -1840 0
v -240 -1840 0
v -320 -1840 0
v -320 -1760 0
v -240 -1760 0
v -400 -1840 0
v -400 -1760 0
v -480 -1840 0
v -480 -1760 0
v 0 -1920 0
v -80 -1920 0
v -160 -1920 0
v -240 -1920 0
v -320 -1920 0
v -400 -1920 0
v -480 -1920 0
v -560 -1920 0
v -560 -1840 0
v -640 -1920 0
v -640 -1840 0
v -800 -2080 0
v -880 -2080 0
v -880 -2000 0
v -800 -2000 0
v -960 -2080 0
v -960 -2000 0
v -1040 -2080 0
v -1040 -2000 0
v -1120 -2080 0
v -1200 -2080 0
v -1200 -2000 0
v -1120 -2000 0
v -1280 -2080 0
v -1280 -2000 0
v -720 -2160 0
v -800 -2160 0
v -720 -2080 0
v -880 -2160 0
v -960 -2160 0
v -1040 -2160 0
v -1120 -2160 0
v -1200 -2160 0
v -1280 -2160 0
v -1360 -2160 0
v -1360 -2080 0
v -1520 -2320 0
v -1600 -2320 0
v -1600 -2240 0
v -1520 -2240 0
v -1680 -2320 0
v -1680 -2240 0
v -1760 -2320 0
v -1760 -2240 0
v -1840 -2320 0
v -1920 -2320 0
v -1920 -2240 0
v -1840 -2240 0
v -2000 -2320 0
v -2000 -2240 0
v -2080 -2320 0
v -2080 -2240 0
v -2160 -2320 0
v -2240 -2320 0
v -2240 -2240 0
v -2160 -2240 0
v -2320 -2320 0
v -2320 -2240 0
v -2400 -2320 0
v -2400 -2240 0
v -2720 -2320 0
v -2800 -2320 0
v -2800 -2240 0
v -2720 -2240 0
v -2880 -2320 0
v -2880 -2240 0
v -3200 -2320 0
v -3280 -2320 0
v -3280 -2240 0
v -3200 -2240 0
v -3360 -2320 0
v -3360 -2240 0
v -3440 -2320 0
v -3520 -2320 0
v -3520 -2240 0
v -3440 -2240 0
v -3600 -2320 0
v -3680 -2320 0
v -3680 -2240 0
v -3600 -2240 0
v -3760 -2320 0
v -3760 -2240 0
v -3840 -2320 0
v -3920 -2320 0
v -3920 -2240 0
v -3840 -2240 0
v -4000 -2320 0
v -4080 -2320 0
v -4080 -2240 0
v -4000 -2240 0
v -1440 -2400 0
v -1520 -2400 0
v -1440 -2320 0
v -1600 -2400 0
v -1680 -2400 0
v -1760 -2400 0
v -1840 -2400 0
v -1920 -2400 0
v -2000 -2400 0
v -2080 -2400 0
v -2160 -2400 0
v -2240 -2400 0
v -2320 -2400 0
v -2400 -2400 0
v -2480 -2400 0
v -2480 -2320 0
v -2560 -2400 0
v -2640 -2400 0
v -2640 -2320 0
v -2560 -2320 0
v -2720 -2400 0
v -2800 -2400 0
v -2880 -2400 0
v -2960 -2400 0
v -2960 -2320 0
v -3040 -2400 0
v -3040 -2320 0
v -3120 -2400 0
v -3200 -2400 0
v -3120 -2320 0
v -3280 -2400 0
v -3360 -2400 0
v -3440 -2400 0
v -3520 -2400 0
v -3600 -2400 0
v -3680 -2400 0
v -3760 -2400 0
v -3840 -2400 0
v -3920 -2400 0
v -4000 -2400 0
v -4080 -2400 0
v -4160 -2400 0
v -4160 -2320 0
v -4640 -2640 0
v -4720 -2640 0
v -4720 -2560 0
v -4640 -2560 0
v -4800 -2640 0
v -4800 -2560 0
v -1920 -2720 0
v -2000 -2720 0
v -2000 -2640 0
v -1920 -2640 0
v -2080 -2720 0
v -2160 -2720 0
v -2160 -2640 0
v -2080 -2640 0
v -2240 -2720 0
v -2240 -2640 0
v -2320 -2720 0
v -2400 -2720 0
v -2400 -2640 0
v -2320 -2640 0
v -2640 -2720 0
v -2720 -2720 0
v -2720 -2640 0
v -2640 -2640 0
v -2800 -2720 0
v -2800 -2640 0
v -3040 -2720 0
v -3120 -2720 0
v -3120 -2640 0
v -3040 -2640 0
v -3200 -2720 0
v -3200 -2640 0
v -3440 -2720 0
v -3520 -2720 0
v -3520 -2640 0
v -3440 -2640 0
v -3600 -2720 0
v -3600 -2640 0
v -4080 -2720 0
v -4160 -2720 0
v -4160 -2640 0
v -4080 -2640 0
v -4240 -2720 0
v -4320 -2720 0
v -4320 -2640 0
v -4240 -2640 0
v -4400 -2720 0
v -4400 -2640 0
v -4480 -2720 0
v -4480 -2640 0
v -4560 -2720 0
v -4560 -2640 0
v -4640 -2720 0
v -4720 -2720 0
v -4800 -2720 0
v -1680 -2800 0
v -1760 -2800 0
v -1760 -2720 0
v -1680 -2720 0
v -1840 -2800 0
v -1840 -2720 0
v -1920 -2800 0
v -2000 -2800 0
v -2080 -2800 0
v -2160 -2800 0
v -2240 -2800 0
v -2320 -2800 0
v -2400 -2800 0
v -2480 -2800 0
v -2480 -2720 0
v -2640 -2800 0
v -2720 -2800 0
v -2800 -2800 0
v -3040 -2800 0
v -3120 -2800 0
v -3200 -2800 0
v -3440 -2800 0
v -3520 -2800 0
v -3600 -2800 0
v -3840 -2800 0
v -3920 -2800 0
v -3920 -2720 0
v -3840 -2720 0
v -4000 -2800 0
v -4000 -2720 0
v -4080 -2800 0
v -4160 -2800 0
v -4240 -2800 0
v -4320 -2800 0
v -4400 -2800 0
v -4480 -2800 0
v -4560 -2800 0
v -4640 -2800 0
v -4720 -2800 0
v -4800 -2800 0
v -1280 -2880 0
v -1360 -2880 0
v -1360 -2800 0
v -1280 -2800 0
v -1600 -2880 0
v -1680 -2880 0
v -1600 -2800 0
v -1760 -2880 0
v -1840 -2880 0
v -1920 -2880 0
v -1120 -2960 0
v -1200 -2960 0
v -1200 -2880 0
v -1120 -2880 0
v -1280 -2960 0
v -1360 -2960 0
v -1440 -2960 0
v -1440 -2880 0
v -1520 -2960 0
v -1520 -2880 0
v -1600 -2960 0
v -640 -3040 0
v -720 -3040 0
v -720 -2960 0
v -640 -2960 0
v -800 -3040 0
v -800 -2960 0
v -880 -3040 0
v -960 -3040 0
v -960 -2960 0
v -880 -2960 0
v -1040 -3040 0
v -1040 -2960 0
v -1120 -3040 0
v -1200 -3040 0
v -1280 -3040 0
v -80 -3120 0
v -160 -3120 0
v -160 -3040 0
v -80 -3040 0
v -240 -3120 0
v -240 -3040 0
v -320 -3120 0
v -320 -3040 0
v -400 -3120 0
v -480 -3120 0
v -480 -3040 0
v -400 -3040 0
v -560 -3120 0
v -640 -3120 0
v -560 -3040 0
v -720 -3120 0
v -800 -3120 0
v -880 -3120 0
v 0 -3200 0
v -80 -3200 0
v 0 -3120 0
v -160 -3200 0
v -240 -3200 0
v -320 -3200 0
v -400 -3200 0
v -480 -3200 0
v -560 -3200 0

# Texture cooridinates (Count = 64)
vt 0.2501221 0.2501221
vt 0.3748779 0.2501221
vt 0.3748779 0.4998779
vt 0.2501221 0.4998779
vt 0.3751221 0.2501221
vt 0.4998779 0.2501221
vt 0.4998779 0.4998779
vt 0.3751221 0.4998779
vt 0.0001220703 0.7501221
vt 0.1248779 0.7501221
vt 0.1248779 0.9998779
vt 0.0001220703 0.9998779
vt 0.2501221 0.0001220703
vt 0.3748779 0.0001220703
vt 0.3748779 0.2498779
vt 0.2501221 0.2498779
vt 0.3751221 0.0001220703
vt 0.4998779 0.0001220703
vt 0.4998779 0.2498779
vt 0.3751221 0.2498779
vt 0.2501221 0.7501221
vt 0.3748779 0.7501221
vt 0.3748779 0.9998779
vt 0.2501221 0.9998779
vt 0.1251221 0.7501221
vt 0.2498779 0.7501221
vt 0.2498779 0.9998779
vt 0.1251221 0.9998779
vt 0.3751221 0.7501221
vt 0.4998779 0.7501221
vt 0.4998779 0.9998779
vt 0.3751221 0.9998779
vt 0.6251221 0.7501221
vt 0.7498779 0.7501221
vt 0.7498779 0.9998779
vt 0.6251221 0.9998779
vt 0.5001221 0.7501221
vt 0.6248779 0.7501221
vt 0.6248779 0.9998779
vt 0.5001221 0.9998779
vt 0.2501221 0.5001221
vt 0.3748779 0.5001221
vt 0.3748779 0.7498779
vt 0.2501221 0.7498779
vt 0.0001220703 0.2501221
vt 0.1248779 0.2501221
vt 0.1248779 0.4998779
vt 0.0001220703 0.4998779
vt 0.1251221 0.2501221
vt 0.2498779 0.2501221
vt 0.2498779 0.4998779
vt 0.1251221 0.4998779
vt 0.0001220703 0.0001220703
vt 0.1248779 0.0001220703
vt 0.1248779 0.2498779
vt 0.0001220703 0.2498779
vt 0.1251221 0.0001220703
vt 0.2498779 0.0001220703
vt 0.2498779 0.2498779
vt 0.1251221 0.2498779
vt 0.7501221 0.7501221
vt 0.8748779 0.7501221
vt 0.8748779 0.9998779
vt 0.7501221 0.9998779

# Normal
vn 0 0 -1

# Groups (Count = 1)

g mesh_0001
f 1/1/1 2/2/1 3/3/1 4/4/1
f 2/5/1 5/6/1 6/7/1 3/8/1
f 7/9/1 8/10/1 1/11/1 9/12/1
f 8/13/1 10/14/1 2/15/1 1/16/1
f 10/17/1 11/18/1 5/19/1 2/20/1
f 12/21/1 13/22/1 14/23/1 15/24/1
f 16/25/1 17/26/1 8/27/1 7/28/1
f 17/25/1 18/26/1 10/27/1 8/28/1
f 18/25/1 19/26/1 11/27/1 10/28/1
f 19/25/1 20/26/1 12/27/1 11/28/1
f 20/25/1 21/26/1 13/27/1 12/28/1
f 21/25/1 22/26/1 23/27/1 13/28/1
f 24/21/1 25/22/1 26/23/1 27/24/1
f 28/25/1 29/26/1 24/27/1 22/28/1
f 29/25/1 30/26/1 25/27/1 24/28/1
f 30/25/1 31/26/1 32/27/1 25/28/1
f 33/21/1 34/22/1 35/23/1 36/24/1
f 37/29/1 38/30/1 39/31/1 40/32/1
f 41/25/1 42/26/1 33/27/1 31/28/1
f 42/25/1 43/26/1 34/27/1 33/28/1
f 43/25/1 44/26/1 37/27/1 34/28/1
f 44/25/1 45/26/1 38/27/1 37/28/1
f 46/21/1 47/22/1 48/23/1 49/24/1
f 47/21/1 50/22/1 51/23/1 48/24/1
f 52/25/1 53/26/1 46/27/1 45/28/1
f 53/25/1 54/26/1 47/27/1 46/28/1
f 54/25/1 55/26/1 50/27/1 47/28/1
f 55/25/1 56/26/1 57/27/1 50/28/1
f 58/21/1 59/22/1 60/23/1 61/24/1
f 59/21/1 62/22/1 63/23/1 60/24/1
f 64/21/1 65/22/1 66/23/1 67/24/1
f 65/21/1 68/22/1 69/23/1 66/24/1
f 70/33/1 71/34/1 72/35/1 73/36/1
f 71/33/1 74/34/1 75/35/1 72/36/1
f 76/21/1 77/22/1 78/23/1 79/24/1
f 80/21/1 81/22/1 82/23/1 83/24/1
f 84/37/1 85/38/1 86/39/1 87/40/1
f 88/21/1 89/22/1 90/23/1 91/24/1
f 92/37/1 93/38/1 94/39/1 95/40/1
f 96/21/1 97/22/1 98/23/1 99/24/1
f 100/37/1 101/38/1 102/39/1 103/40/1
f 104/25/1 105/26/1 58/27/1 56/28/1
f 105/25/1 106/26/1 59/27/1 58/28/1
f 106/25/1 107/26/1 62/27/1 59/28/1
f 107/25/1 108/26/1 109/27/1 62/28/1
f 108/41/1 110/42/1 111/43/1 109/44/1
f 110/41/1 112/42/1 113/43/1 111/44/1
f 112/41/1 114/42/1 115/43/1 113/44/1
f 114/25/1 116/26/1 64/27/1 115/28/1
f 116/25/1 117/26/1 65/27/1 64/28/1
f 117/25/1 118/26/1 68/27/1 65/28/1
f 118/25/1 119/26/1 70/27/1 68/28/1
f 119/25/1 120/26/1 71/27/1 70/28/1
f 120/25/1 121/26/1 74/27/1 71/28/1
f 121/25/1 122/26/1 76/27/1 74/28/1
f 122/25/1 123/26/1 77/27/1 76/28/1
f 123/25/1 124/26/1 125/27/1 77/28/1
f 126/21/1 127/22/1 128/23/1 129/24/1
f 127/21/1 130/22/1 131/23/1 128/24/1
f 132/25/1 133/26/1 80/27/1 134/28/1
f 133/25/1 135/26/1 81/27/1 80/28/1
f 135/25/1 136/26/1 84/27/1 81/28/1
f 136/25/1 137/26/1 85/27/1 84/28/1
f 137/25/1 138/26/1 88/27/1 85/28/1
f 138/25/1 139/26/1 89/27/1 88/28/1
f 139/25/1 140/26/1 92/27/1 89/28/1
f 140/25/1 141/26/1 93/27/1 92/28/1
f 141/25/1 142/26/1 96/27/1 93/28/1
f 142/25/1 143/26/1 97/27/1 96/28/1
f 143/25/1 144/26/1 100/27/1 97/28/1
f 144/25/1 145/26/1 101/27/1 100/28/1
f 146/41/1 147/42/1 148/43/1 124/44/1
f 147/41/1 149/42/1 150/43/1 148/44/1
f 149/41/1 151/42/1 126/43/1 150/44/1
f 151/25/1 152/26/1 127/27/1 126/28/1
f 152/25/1 153/26/1 130/27/1 127/28/1
f 153/41/1 154/42/1 155/43/1 130/44/1
f 154/41/1 156/42/1 157/43/1 155/44/1
f 156/41/1 158/42/1 132/43/1 157/44/1
f 159/45/1 160/46/1 161/47/1 162/48/1
f 160/49/1 163/50/1 164/51/1 161/52/1
f 165/21/1 166/22/1 167/23/1 168/24/1
f 169/33/1 170/34/1 171/35/1 172/36/1
f 173/21/1 174/22/1 175/23/1 176/24/1
f 174/21/1 177/22/1 178/23/1 175/24/1
f 179/21/1 180/22/1 181/23/1 182/24/1
f 180/21/1 183/22/1 184/23/1 181/24/1
f 185/21/1 186/22/1 187/23/1 188/24/1
f 186/21/1 189/22/1 190/23/1 187/24/1
f 191/21/1 192/22/1 193/23/1 194/24/1
f 192/21/1 195/22/1 196/23/1 193/24/1
f 195/21/1 197/22/1 198/23/1 196/24/1
f 197/21/1 199/22/1 200/23/1 198/24/1
f 199/21/1 201/22/1 202/23/1 200/24/1
f 203/53/1 204/54/1 160/55/1 159/56/1
f 204/57/1 205/58/1 163/59/1 160/60/1
f 206/29/1 207/30/1 208/31/1 209/32/1
f 207/61/1 210/62/1 211/63/1 208/64/1
f 210/29/1 212/30/1 213/31/1 211/32/1
f 214/21/1 215/22/1 216/23/1 217/24/1
f 215/21/1 218/22/1 219/23/1 216/24/1
f 220/25/1 221/26/1 165/27/1 222/28/1
f 221/25/1 223/26/1 166/27/1 165/28/1
f 223/25/1 224/26/1 169/27/1 166/28/1
f 224/25/1 225/26/1 170/27/1 169/28/1
f 225/25/1 226/26/1 173/27/1 170/28/1
f 226/25/1 227/26/1 174/27/1 173/28/1
f 227/25/1 228/26/1 177/27/1 174/28/1
f 228/25/1 229/26/1 230/27/1 177/28/1
f 229/41/1 231/42/1 232/43/1 230/44/1
f 231/41/1 233/42/1 234/43/1 232/44/1
f 233/41/1 235/42/1 179/43/1 234/44/1
f 235/25/1 236/26/1 180/27/1 179/28/1
f 236/25/1 237/26/1 183/27/1 180/28/1
f 238/41/1 239/42/1 240/43/1 241/44/1
f 239/41/1 242/42/1 185/43/1 240/44/1
f 242/25/1 243/26/1 186/27/1 185/28/1
f 243/25/1 244/26/1 189/27/1 186/28/1
f 244/41/1 245/42/1 246/43/1 189/44/1
f 245/41/1 247/42/1 248/43/1 246/44/1
f 249/25/1 250/26/1 251/27/1 252/28/1
f 250/25/1 253/26/1 254/27/1 251/28/1
f 253/25/1 255/26/1 191/27/1 254/28/1
f 255/25/1 256/26/1 192/27/1 191/28/1
f 256/25/1 257/26/1 195/27/1 192/28/1
f 257/25/1 258/26/1 197/27/1 195/28/1
f 258/25/1 259/26/1 199/27/1 197/28/1
f 259/25/1 260/26/1 201/27/1 199/28/1
f 260/25/1 261/26/1 262/27/1 201/28/1
f 261/25/1 263/26/1 264/27/1 262/28/1
f 263/25/1 265/26/1 203/27/1 264/28/1
f 265/25/1 266/26/1 204/27/1 203/28/1
f 266/25/1 267/26/1 205/27/1 204/28/1
f 268/25/1 269/26/1 207/27/1 206/28/1
f 269/25/1 270/26/1 210/27/1 207/28/1
f 270/25/1 271/26/1 212/27/1 210/28/1
f 271/25/1 272/26/1 214/27/1 212/28/1
f 272/25/1 273/26/1 215/27/1 214/28/1
f 273/25/1 274/26/1 218/27/1 215/28/1
f 274/25/1 275/26/1 220/27/1 218/28/1
f 275/25/1 276/26/1 221/27/1 220/28/1
f 277/21/1 278/22/1 279/23/1 280/24/1
f 278/21/1 281/22/1 282/23/1 279/24/1
f 281/21/1 283/22/1 284/23/1 282/24/1
f 285/21/1 286/22/1 287/23/1 288/24/1
f 289/41/1 290/42/1 291/43/1 292/44/1
f 290/41/1 293/42/1 294/43/1 291/44/1
f 293/41/1 295/42/1 296/43/1 294/44/1
f 295/25/1 297/26/1 277/27/1 296/28/1
f 297/25/1 298/26/1 278/27/1 277/28/1
f 298/25/1 299/26/1 281/27/1 278/28/1
f 299/25/1 300/26/1 283/27/1 281/28/1
f 300/25/1 301/26/1 302/27/1 283/28/1
f 303/25/1 304/26/1 285/27/1 305/28/1
f 304/25/1 306/26/1 286/27/1 285/28/1
f 306/25/1 307/26/1 289/27/1 286/28/1
f 308/1/1 309/2/1 310/3/1 311/4/1
f 309/5/1 312/6/1 313/7/1 310/8/1
f 314/13/1 315/14/1 309/15/1 308/16/1
f 315/17/1 316/18/1 312/19/1 309/20/1
f 317/21/1 318/22/1 319/23/1 320/24/1
f 318/21/1 321/22/1 322/23/1 319/24/1
f 321/21/1 323/22/1 324/23/1 322/24/1
f 325/25/1 326/26/1 315/27/1 314/28/1
f 326/25/1 327/26/1 316/27/1 315/28/1
f 327/25/1 328/26/1 317/27/1 316/28/1
f 328/25/1 329/26/1 318/27/1 317/28/1
f 329/25/1 330/26/1 321/27/1 318/28/1
f 330/25/1 331/26/1 323/27/1 321/28/1
f 331/25/1 332/26/1 333/27/1 323/28/1
f 332/25/1 334/26/1 335/27/1 333/28/1
f 336/21/1 337/22/1 338/23/1 339/24/1
f 337/21/1 340/22/1 341/23/1 338/24/1
f 340/21/1 342/22/1 343/23/1 341/24/1
f 344/33/1 345/34/1 346/35/1 347/36/1
f 345/33/1 348/34/1 349/35/1 346/36/1
f 350/25/1 351/26/1 336/27/1 352/28/1
f 351/25/1 353/26/1 337/27/1 336/28/1
f 353/25/1 354/26/1 340/27/1 337/28/1
f 354/25/1 355/26/1 342/27/1 340/28/1
f 355/25/1 356/26/1 344/27/1 342/28/1
f 356/25/1 357/26/1 345/27/1 344/28/1
f 357/25/1 358/26/1 348/27/1 345/28/1
f 358/25/1 359/26/1 360/27/1 348/28/1
f 361/21/1 362/22/1 363/23/1 364/24/1
f 362/21/1 365/22/1 366/23/1 363/24/1
f 365/21/1 367/22/1 368/23/1 366/24/1
f 369/29/1 370/30/1 371/31/1 372/32/1
f 370/61/1 373/62/1 374/63/1 371/64/1
f 373/37/1 375/38/1 376/39/1 374/40/1
f 377/21/1 378/22/1 379/23/1 380/24/1
f 378/21/1 381/22/1 382/23/1 379/24/1
f 381/21/1 383/22/1 384/23/1 382/24/1
f 385/21/1 386/22/1 387/23/1 388/24/1
f 386/21/1 389/22/1 390/23/1 387/24/1
f 391/21/1 392/22/1 393/23/1 394/24/1
f 392/21/1 395/22/1 396/23/1 393/24/1
f 397/33/1 398/34/1 399/35/1 400/36/1
f 401/21/1 402/22/1 403/23/1 404/24/1
f 402/21/1 405/22/1 406/23/1 403/24/1
f 407/29/1 408/30/1 409/31/1 410/32/1
f 411/21/1 412/22/1 413/23/1 414/24/1
f 415/25/1 416/26/1 361/27/1 417/28/1
f 416/25/1 418/26/1 362/27/1 361/28/1
f 418/25/1 419/26/1 365/27/1 362/28/1
f 419/25/1 420/26/1 367/27/1 365/28/1
f 420/25/1 421/26/1 369/27/1 367/28/1
f 421/25/1 422/26/1 370/27/1 369/28/1
f 422/25/1 423/26/1 373/27/1 370/28/1
f 423/25/1 424/26/1 375/27/1 373/28/1
f 424/25/1 425/26/1 377/27/1 375/28/1
f 425/25/1 426/26/1 378/27/1 377/28/1
f 426/25/1 427/26/1 381/27/1 378/28/1
f 427/25/1 428/26/1 383/27/1 381/28/1
f 428/25/1 429/26/1 430/27/1 383/28/1
f 431/41/1 432/42/1 433/43/1 434/44/1
f 432/41/1 435/42/1 385/43/1 433/44/1
f 435/25/1 436/26/1 386/27/1 385/28/1
f 436/25/1 437/26/1 389/27/1 386/28/1
f 437/41/1 438/42/1 439/43/1 389/44/1
f 438/41/1 440/42/1 441/43/1 439/44/1
f 442/25/1 443/26/1 391/27/1 444/28/1
f 443/25/1 445/26/1 392/27/1 391/28/1
f 445/25/1 446/26/1 395/27/1 392/28/1
f 446/25/1 447/26/1 397/27/1 395/28/1
f 447/25/1 448/26/1 398/27/1 397/28/1
f 448/25/1 449/26/1 401/27/1 398/28/1
f 449/25/1 450/26/1 402/27/1 401/28/1
f 450/25/1 451/26/1 405/27/1 402/28/1
f 451/25/1 452/26/1 407/27/1 405/28/1
f 452/25/1 453/26/1 408/27/1 407/28/1
f 453/25/1 454/26/1 411/27/1 408/28/1
f 454/25/1 455/26/1 412/27/1 411/28/1
f 455/25/1 456/26/1 457/27/1 412/28/1
f 458/45/1 459/46/1 460/47/1 461/48/1
f 459/49/1 462/50/1 463/51/1 460/52/1
f 464/21/1 465/22/1 466/23/1 467/24/1
f 468/29/1 469/30/1 470/31/1 471/32/1
f 469/37/1 472/38/1 473/39/1 470/40/1
f 474/21/1 475/22/1 476/23/1 477/24/1
f 478/21/1 479/22/1 480/23/1 481/24/1
f 479/21/1 482/22/1 483/23/1 480/24/1
f 484/21/1 485/22/1 486/23/1 487/24/1
f 485/21/1 488/22/1 489/23/1 486/24/1
f 490/21/1 491/22/1 492/23/1 493/24/1
f 491/21/1 494/22/1 495/23/1 492/24/1
f 496/37/1 497/38/1 498/39/1 499/40/1
f 500/21/1 501/22/1 502/23/1 503/24/1
f 501/21/1 504/22/1 505/23/1 502/24/1
f 504/21/1 506/22/1 507/23/1 505/24/1
f 506/21/1 508/22/1 509/23/1 507/24/1
f 510/53/1 511/54/1 459/55/1 458/56/1
f 511/57/1 512/58/1 462/59/1 459/60/1
f 513/21/1 514/22/1 515/23/1 516/24/1
f 514/21/1 517/22/1 518/23/1 515/24/1
f 519/25/1 520/26/1 465/27/1 464/28/1
f 520/25/1 521/26/1 468/27/1 465/28/1
f 521/25/1 522/26/1 469/27/1 468/28/1
f 522/25/1 523/26/1 472/27/1 469/28/1
f 523/25/1 524/26/1 474/27/1 472/28/1
f 524/25/1 525/26/1 475/27/1 474/28/1
f 525/25/1 526/26/1 527/27/1 475/28/1
f 528/25/1 529/26/1 479/27/1 478/28/1
f 529/25/1 530/26/1 482/27/1 479/28/1
f 531/25/1 532/26/1 485/27/1 484/28/1
f 532/25/1 533/26/1 488/27/1 485/28/1
f 534/25/1 535/26/1 491/27/1 490/28/1
f 535/25/1 536/26/1 494/27/1 491/28/1
f 537/25/1 538/26/1 539/27/1 540/28/1
f 538/25/1 541/26/1 542/27/1 539/28/1
f 541/25/1 543/26/1 496/27/1 542/28/1
f 543/25/1 544/26/1 497/27/1 496/28/1
f 544/25/1 545/26/1 500/27/1 497/28/1
f 545/25/1 546/26/1 501/27/1 500/28/1
f 546/25/1 547/26/1 504/27/1 501/28/1
f 547/25/1 548/26/1 506/27/1 504/28/1
f 548/25/1 549/26/1 508/27/1 506/28/1
f 549/25/1 550/26/1 510/27/1 508/28/1
f 550/25/1 551/26/1 511/27/1 510/28/1
f 551/25/1 552/26/1 512/27/1 511/28/1
f 553/21/1 554/22/1 555/23/1 556/24/1
f 557/25/1 558/26/1 513/27/1 559/28/1
f 558/25/1 560/26/1 514/27/1 513/28/1
f 560/25/1 561/26/1 517/27/1 514/28/1
f 561/25/1 562/26/1 519/27/1 517/28/1
f 563/21/1 564/22/1 565/23/1 566/24/1
f 567/25/1 568/26/1 554/27/1 553/28/1
f 568/41/1 569/42/1 570/43/1 554/44/1
f 569/41/1 571/42/1 572/43/1 570/44/1
f 571/41/1 573/42/1 557/43/1 572/44/1
f 574/21/1 575/22/1 576/23/1 577/24/1
f 575/21/1 578/22/1 579/23/1 576/24/1
f 580/41/1 581/42/1 582/43/1 583/44/1
f 581/41/1 584/42/1 585/43/1 582/44/1
f 584/25/1 586/26/1 563/27/1 585/28/1
f 586/25/1 587/26/1 564/27/1 563/28/1
f 587/25/1 588/26/1 567/27/1 564/28/1
f 589/21/1 590/22/1 591/23/1 592/24/1
f 590/21/1 593/22/1 594/23/1 591/24/1
f 593/21/1 595/22/1 596/23/1 594/24/1
f 597/37/1 598/38/1 599/39/1 600/40/1
f 601/25/1 602/26/1 574/27/1 603/28/1
f 602/25/1 604/26/1 575/27/1 574/28/1
f 604/25/1 605/26/1 578/27/1 575/28/1
f 605/25/1 606/26/1 580/27/1 578/28/1
f 607/25/1 608/26/1 589/27/1 609/28/1
f 608/25/1 610/26/1 590/27/1 589/28/1
f 610/25/1 611/26/1 593/27/1 590/28/1
f 611/25/1 612/26/1 595/27/1 593/28/1
f 612/25/1 613/26/1 597/27/1 595/28/1
f 613/25/1 614/26/1 598/27/1 597/28/1
f 614/25/1 615/26/1 601/27/1 598/28/1

