# Wavefront OBJ file automatically generated by Tiled2Unity

# Vertices (Count = 339)
v -9360 -400 0
v -9440 -400 0
v -9440 -320 0
v -9360 -320 0
v -9520 -400 0
v -9520 -320 0
v -1840 -480 0
v -1920 -480 0
v -1920 -400 0
v -1840 -400 0
v -2000 -480 0
v -2000 -400 0
v -2080 -480 0
v -2160 -480 0
v -2160 -400 0
v -2080 -400 0
v -2240 -480 0
v -2320 -480 0
v -2320 -400 0
v -2240 -400 0
v -2400 -480 0
v -2480 -480 0
v -2480 -400 0
v -2400 -400 0
v -2560 -480 0
v -2640 -480 0
v -2640 -400 0
v -2560 -400 0
v -2720 -480 0
v -2720 -400 0
v -2800 -480 0
v -2880 -480 0
v -2880 -400 0
v -2800 -400 0
v -2960 -480 0
v -2960 -400 0
v -3040 -480 0
v -3120 -480 0
v -3120 -400 0
v -3040 -400 0
v -3200 -480 0
v -3200 -400 0
v -6640 -480 0
v -6720 -480 0
v -6720 -400 0
v -6640 -400 0
v -6800 -480 0
v -6800 -400 0
v -6880 -480 0
v -6880 -400 0
v -6960 -480 0
v -6960 -400 0
v -7040 -480 0
v -7040 -400 0
v -7440 -480 0
v -7520 -480 0
v -7520 -400 0
v -7440 -400 0
v -8960 -480 0
v -9040 -480 0
v -9040 -400 0
v -8960 -400 0
v -9280 -480 0
v -9360 -480 0
v -9280 -400 0
v -9440 -480 0
v -9520 -480 0
v -9600 -480 0
v -9600 -400 0
v -1440 -560 0
v -1520 -560 0
v -1520 -480 0
v -1440 -480 0
v -1760 -560 0
v -1840 -560 0
v -1760 -480 0
v -1920 -560 0
v -2000 -560 0
v -2080 -560 0
v -2160 -560 0
v -2240 -560 0
v -2320 -560 0
v -2400 -560 0
v -2480 -560 0
v -2560 -560 0
v -2640 -560 0
v -2720 -560 0
v -2800 -560 0
v -2880 -560 0
v -2960 -560 0
v -3040 -560 0
v -3120 -560 0
v -3200 -560 0
v -3280 -560 0
v -3280 -480 0
v -3520 -560 0
v -3600 -560 0
v -3600 -480 0
v -3520 -480 0
v -6320 -560 0
v -6400 -560 0
v -6400 -480 0
v -6320 -480 0
v -6480 -560 0
v -6480 -480 0
v -6560 -560 0
v -6640 -560 0
v -6560 -480 0
v -6720 -560 0
v -6800 -560 0
v -6880 -560 0
v -6960 -560 0
v -7040 -560 0
v -7120 -560 0
v -7120 -480 0
v -7200 -560 0
v -7200 -480 0
v -7280 -560 0
v -7280 -480 0
v -7360 -560 0
v -7360 -480 0
v -7440 -560 0
v -7520 -560 0
v -7600 -560 0
v -7600 -480 0
v -8560 -560 0
v -8640 -560 0
v -8640 -480 0
v -8560 -480 0
v -8880 -560 0
v -8960 -560 0
v -8880 -480 0
v -9040 -560 0
v -9120 -560 0
v -9120 -480 0
v -9200 -560 0
v -9200 -480 0
v -9280 -560 0
v -80 -640 0
v -160 -640 0
v -160 -560 0
v -80 -560 0
v -240 -640 0
v -240 -560 0
v -1040 -640 0
v -1120 -640 0
v -1120 -560 0
v -1040 -560 0
v -1360 -640 0
v -1440 -640 0
v -1360 -560 0
v -1520 -640 0
v -1600 -640 0
v -1600 -560 0
v -1680 -640 0
v -1680 -560 0
v -1760 -640 0
v -3280 -640 0
v -3360 -640 0
v -3360 -560 0
v -3440 -640 0
v -3440 -560 0
v -3520 -640 0
v -3600 -640 0
v -3680 -640 0
v -3680 -560 0
v -3760 -640 0
v -3760 -560 0
v -3840 -640 0
v -3840 -560 0
v -3920 -640 0
v -4000 -640 0
v -4000 -560 0
v -3920 -560 0
v -4320 -640 0
v -4400 -640 0
v -4400 -560 0
v -4320 -560 0
v -4480 -640 0
v -4480 -560 0
v -4560 -640 0
v -4560 -560 0
v -4640 -640 0
v -4720 -640 0
v -4720 -560 0
v -4640 -560 0
v -4800 -640 0
v -4800 -560 0
v -4880 -640 0
v -4960 -640 0
v -4960 -560 0
v -4880 -560 0
v -5040 -640 0
v -5040 -560 0
v -5120 -640 0
v -5120 -560 0
v -6000 -640 0
v -6080 -640 0
v -6080 -560 0
v -6000 -560 0
v -6160 -640 0
v -6160 -560 0
v -6240 -640 0
v -6320 -640 0
v -6240 -560 0
v -6400 -640 0
v -6480 -640 0
v -6560 -640 0
v -8160 -640 0
v -8240 -640 0
v -8240 -560 0
v -8160 -560 0
v -8480 -640 0
v -8560 -640 0
v -8480 -560 0
v -8640 -640 0
v -8720 -640 0
v -8720 -560 0
v -8800 -640 0
v -8800 -560 0
v -8880 -640 0
v 0 -720 0
v -80 -720 0
v 0 -640 0
v -160 -720 0
v -240 -720 0
v -400 -720 0
v -480 -720 0
v -480 -640 0
v -400 -640 0
v -560 -720 0
v -560 -640 0
v -640 -720 0
v -640 -640 0
v -720 -720 0
v -720 -640 0
v -800 -720 0
v -800 -640 0
v -960 -720 0
v -1040 -720 0
v -960 -640 0
v -1120 -720 0
v -1200 -720 0
v -1200 -640 0
v -1280 -720 0
v -1280 -640 0
v -1360 -720 0
v -3840 -720 0
v -3920 -720 0
v -4000 -720 0
v -4080 -720 0
v -4080 -640 0
v -4160 -720 0
v -4160 -640 0
v -4240 -720 0
v -4240 -640 0
v -4320 -720 0
v -4400 -720 0
v -4480 -720 0
v -4560 -720 0
v -4640 -720 0
v -4720 -720 0
v -4800 -720 0
v -4880 -720 0
v -4960 -720 0
v -5040 -720 0
v -5120 -720 0
v -5200 -720 0
v -5200 -640 0
v -5280 -720 0
v -5280 -640 0
v -5360 -720 0
v -5360 -640 0
v -5760 -720 0
v -5840 -720 0
v -5840 -640 0
v -5760 -640 0
v -5920 -720 0
v -6000 -720 0
v -5920 -640 0
v -6080 -720 0
v -6160 -720 0
v -6240 -720 0
v -7760 -720 0
v -7840 -720 0
v -7840 -640 0
v -7760 -640 0
v -8080 -720 0
v -8160 -720 0
v -8080 -640 0
v -8240 -720 0
v -8320 -720 0
v -8320 -640 0
v -8400 -720 0
v -8400 -640 0
v -8480 -720 0
v 0 -800 0
v -80 -800 0
v -160 -800 0
v -240 -800 0
v -320 -800 0
v -320 -720 0
v -400 -800 0
v -480 -800 0
v -560 -800 0
v -640 -800 0
v -720 -800 0
v -800 -800 0
v -880 -800 0
v -880 -720 0
v -960 -800 0
v -4000 -800 0
v -4080 -800 0
v -4160 -800 0
v -4240 -800 0
v -4320 -800 0
v -5520 -800 0
v -5600 -800 0
v -5600 -720 0
v -5520 -720 0
v -5680 -800 0
v -5760 -800 0
v -5680 -720 0
v -5840 -800 0
v -5920 -800 0
v -7680 -800 0
v -7760 -800 0
v -7680 -720 0
v -7840 -800 0
v -7920 -800 0
v -7920 -720 0
v -8000 -800 0
v -8000 -720 0
v -8080 -800 0
v -5440 -880 0
v -5520 -880 0
v -5440 -800 0
v -5600 -880 0
v -5680 -880 0

# Texture cooridinates (Count = 48)
vt 0.2501221 0.7501221
vt 0.3748779 0.7501221
vt 0.3748779 0.9998779
vt 0.2501221 0.9998779
vt 0.6251221 0.7501221
vt 0.7498779 0.7501221
vt 0.7498779 0.9998779
vt 0.6251221 0.9998779
vt 0.7501221 0.7501221
vt 0.8748779 0.7501221
vt 0.8748779 0.9998779
vt 0.7501221 0.9998779
vt 0.3751221 0.7501221
vt 0.4998779 0.7501221
vt 0.4998779 0.9998779
vt 0.3751221 0.9998779
vt 0.5001221 0.7501221
vt 0.6248779 0.7501221
vt 0.6248779 0.9998779
vt 0.5001221 0.9998779
vt 0.1251221 0.7501221
vt 0.2498779 0.7501221
vt 0.2498779 0.9998779
vt 0.1251221 0.9998779
vt 0.2501221 0.5001221
vt 0.3748779 0.5001221
vt 0.3748779 0.7498779
vt 0.2501221 0.7498779
vt 0.2501221 0.2501221
vt 0.3748779 0.2501221
vt 0.3748779 0.4998779
vt 0.2501221 0.4998779
vt 0.3751221 0.2501221
vt 0.4998779 0.2501221
vt 0.4998779 0.4998779
vt 0.3751221 0.4998779
vt 0.0001220703 0.7501221
vt 0.1248779 0.7501221
vt 0.1248779 0.9998779
vt 0.0001220703 0.9998779
vt 0.2501221 0.0001220703
vt 0.3748779 0.0001220703
vt 0.3748779 0.2498779
vt 0.2501221 0.2498779
vt 0.3751221 0.0001220703
vt 0.4998779 0.0001220703
vt 0.4998779 0.2498779
vt 0.3751221 0.2498779

# Normal
vn 0 0 -1

# Groups (Count = 1)

g mesh_0001
f 1/1/1 2/2/1 3/3/1 4/4/1
f 2/1/1 5/2/1 6/3/1 3/4/1
f 7/1/1 8/2/1 9/3/1 10/4/1
f 8/1/1 11/2/1 12/3/1 9/4/1
f 13/5/1 14/6/1 15/7/1 16/8/1
f 17/1/1 18/2/1 19/3/1 20/4/1
f 21/9/1 22/10/1 23/11/1 24/12/1
f 25/1/1 26/2/1 27/3/1 28/4/1
f 26/1/1 29/2/1 30/3/1 27/4/1
f 31/13/1 32/14/1 33/15/1 34/16/1
f 32/17/1 35/18/1 36/19/1 33/20/1
f 37/1/1 38/2/1 39/3/1 40/4/1
f 38/1/1 41/2/1 42/3/1 39/4/1
f 43/1/1 44/2/1 45/3/1 46/4/1
f 44/1/1 47/2/1 48/3/1 45/4/1
f 47/1/1 49/2/1 50/3/1 48/4/1
f 49/1/1 51/2/1 52/3/1 50/4/1
f 51/1/1 53/2/1 54/3/1 52/4/1
f 55/1/1 56/2/1 57/3/1 58/4/1
f 59/1/1 60/2/1 61/3/1 62/4/1
f 63/21/1 64/22/1 1/23/1 65/24/1
f 64/21/1 66/22/1 2/23/1 1/24/1
f 66/21/1 67/22/1 5/23/1 2/24/1
f 67/21/1 68/22/1 69/23/1 5/24/1
f 70/1/1 71/2/1 72/3/1 73/4/1
f 74/21/1 75/22/1 7/23/1 76/24/1
f 75/21/1 77/22/1 8/23/1 7/24/1
f 77/21/1 78/22/1 11/23/1 8/24/1
f 78/21/1 79/22/1 13/23/1 11/24/1
f 79/21/1 80/22/1 14/23/1 13/24/1
f 80/21/1 81/22/1 17/23/1 14/24/1
f 81/21/1 82/22/1 18/23/1 17/24/1
f 82/21/1 83/22/1 21/23/1 18/24/1
f 83/21/1 84/22/1 22/23/1 21/24/1
f 84/21/1 85/22/1 25/23/1 22/24/1
f 85/21/1 86/22/1 26/23/1 25/24/1
f 86/21/1 87/22/1 29/23/1 26/24/1
f 87/21/1 88/22/1 31/23/1 29/24/1
f 88/21/1 89/22/1 32/23/1 31/24/1
f 89/21/1 90/22/1 35/23/1 32/24/1
f 90/21/1 91/22/1 37/23/1 35/24/1
f 91/21/1 92/22/1 38/23/1 37/24/1
f 92/21/1 93/22/1 41/23/1 38/24/1
f 93/21/1 94/22/1 95/23/1 41/24/1
f 96/1/1 97/2/1 98/3/1 99/4/1
f 100/1/1 101/2/1 102/3/1 103/4/1
f 101/1/1 104/2/1 105/3/1 102/4/1
f 106/21/1 107/22/1 43/23/1 108/24/1
f 107/21/1 109/22/1 44/23/1 43/24/1
f 109/21/1 110/22/1 47/23/1 44/24/1
f 110/21/1 111/22/1 49/23/1 47/24/1
f 111/21/1 112/22/1 51/23/1 49/24/1
f 112/21/1 113/22/1 53/23/1 51/24/1
f 113/21/1 114/22/1 115/23/1 53/24/1
f 114/25/1 116/26/1 117/27/1 115/28/1
f 116/25/1 118/26/1 119/27/1 117/28/1
f 118/25/1 120/26/1 121/27/1 119/28/1
f 120/21/1 122/22/1 55/23/1 121/24/1
f 122/21/1 123/22/1 56/23/1 55/24/1
f 123/21/1 124/22/1 125/23/1 56/24/1
f 126/1/1 127/2/1 128/3/1 129/4/1
f 130/21/1 131/22/1 59/23/1 132/24/1
f 131/21/1 133/22/1 60/23/1 59/24/1
f 133/21/1 134/22/1 135/23/1 60/24/1
f 134/25/1 136/26/1 137/27/1 135/28/1
f 136/25/1 138/26/1 63/27/1 137/28/1
f 139/29/1 140/30/1 141/31/1 142/32/1
f 140/33/1 143/34/1 144/35/1 141/36/1
f 145/1/1 146/2/1 147/3/1 148/4/1
f 149/21/1 150/22/1 70/23/1 151/24/1
f 150/21/1 152/22/1 71/23/1 70/24/1
f 152/21/1 153/22/1 154/23/1 71/24/1
f 153/25/1 155/26/1 156/27/1 154/28/1
f 155/25/1 157/26/1 74/27/1 156/28/1
f 158/25/1 159/26/1 160/27/1 94/28/1
f 159/25/1 161/26/1 162/27/1 160/28/1
f 161/21/1 163/22/1 96/23/1 162/24/1
f 163/21/1 164/22/1 97/23/1 96/24/1
f 164/21/1 165/22/1 166/23/1 97/24/1
f 165/25/1 167/26/1 168/27/1 166/28/1
f 167/25/1 169/26/1 170/27/1 168/28/1
f 171/1/1 172/2/1 173/3/1 174/4/1
f 175/1/1 176/2/1 177/3/1 178/4/1
f 176/1/1 179/2/1 180/3/1 177/4/1
f 179/1/1 181/2/1 182/3/1 180/4/1
f 183/5/1 184/6/1 185/7/1 186/8/1
f 184/5/1 187/6/1 188/7/1 185/8/1
f 189/1/1 190/2/1 191/3/1 192/4/1
f 190/1/1 193/2/1 194/3/1 191/4/1
f 193/1/1 195/2/1 196/3/1 194/4/1
f 197/1/1 198/2/1 199/3/1 200/4/1
f 198/1/1 201/2/1 202/3/1 199/4/1
f 203/21/1 204/22/1 100/23/1 205/24/1
f 204/21/1 206/22/1 101/23/1 100/24/1
f 206/21/1 207/22/1 104/23/1 101/24/1
f 207/21/1 208/22/1 106/23/1 104/24/1
f 209/1/1 210/2/1 211/3/1 212/4/1
f 213/21/1 214/22/1 126/23/1 215/24/1
f 214/21/1 216/22/1 127/23/1 126/24/1
f 216/21/1 217/22/1 218/23/1 127/24/1
f 217/25/1 219/26/1 220/27/1 218/28/1
f 219/25/1 221/26/1 130/27/1 220/28/1
f 222/37/1 223/38/1 139/39/1 224/40/1
f 223/41/1 225/42/1 140/43/1 139/44/1
f 225/45/1 226/46/1 143/47/1 140/48/1
f 227/1/1 228/2/1 229/3/1 230/4/1
f 228/1/1 231/2/1 232/3/1 229/4/1
f 231/1/1 233/2/1 234/3/1 232/4/1
f 233/1/1 235/2/1 236/3/1 234/4/1
f 235/1/1 237/2/1 238/3/1 236/4/1
f 239/21/1 240/22/1 145/23/1 241/24/1
f 240/21/1 242/22/1 146/23/1 145/24/1
f 242/21/1 243/22/1 244/23/1 146/24/1
f 243/25/1 245/26/1 246/27/1 244/28/1
f 245/25/1 247/26/1 149/27/1 246/28/1
f 248/21/1 249/22/1 171/23/1 169/24/1
f 249/21/1 250/22/1 172/23/1 171/24/1
f 250/21/1 251/22/1 252/23/1 172/24/1
f 251/1/1 253/2/1 254/3/1 252/4/1
f 253/1/1 255/2/1 256/3/1 254/4/1
f 255/21/1 257/22/1 175/23/1 256/24/1
f 257/21/1 258/22/1 176/23/1 175/24/1
f 258/21/1 259/22/1 179/23/1 176/24/1
f 259/21/1 260/22/1 181/23/1 179/24/1
f 260/21/1 261/22/1 183/23/1 181/24/1
f 261/21/1 262/22/1 184/23/1 183/24/1
f 262/21/1 263/22/1 187/23/1 184/24/1
f 263/21/1 264/22/1 189/23/1 187/24/1
f 264/21/1 265/22/1 190/23/1 189/24/1
f 265/21/1 266/22/1 193/23/1 190/24/1
f 266/21/1 267/22/1 195/23/1 193/24/1
f 267/21/1 268/22/1 269/23/1 195/24/1
f 268/25/1 270/26/1 271/27/1 269/28/1
f 270/25/1 272/26/1 273/27/1 271/28/1
f 274/1/1 275/2/1 276/3/1 277/4/1
f 278/21/1 279/22/1 197/23/1 280/24/1
f 279/21/1 281/22/1 198/23/1 197/24/1
f 281/21/1 282/22/1 201/23/1 198/24/1
f 282/21/1 283/22/1 203/23/1 201/24/1
f 284/1/1 285/2/1 286/3/1 287/4/1
f 288/21/1 289/22/1 209/23/1 290/24/1
f 289/21/1 291/22/1 210/23/1 209/24/1
f 291/21/1 292/22/1 293/23/1 210/24/1
f 292/25/1 294/26/1 295/27/1 293/28/1
f 294/25/1 296/26/1 213/27/1 295/28/1
f 297/21/1 298/22/1 223/23/1 222/24/1
f 298/21/1 299/22/1 225/23/1 223/24/1
f 299/21/1 300/22/1 226/23/1 225/24/1
f 300/21/1 301/22/1 302/23/1 226/24/1
f 301/21/1 303/22/1 227/23/1 302/24/1
f 303/21/1 304/22/1 228/23/1 227/24/1
f 304/21/1 305/22/1 231/23/1 228/24/1
f 305/21/1 306/22/1 233/23/1 231/24/1
f 306/21/1 307/22/1 235/23/1 233/24/1
f 307/21/1 308/22/1 237/23/1 235/24/1
f 308/21/1 309/22/1 310/23/1 237/24/1
f 309/21/1 311/22/1 239/23/1 310/24/1
f 312/21/1 313/22/1 251/23/1 250/24/1
f 313/21/1 314/22/1 253/23/1 251/24/1
f 314/21/1 315/22/1 255/23/1 253/24/1
f 315/21/1 316/22/1 257/23/1 255/24/1
f 317/1/1 318/2/1 319/3/1 320/4/1
f 321/21/1 322/22/1 274/23/1 323/24/1
f 322/21/1 324/22/1 275/23/1 274/24/1
f 324/21/1 325/22/1 278/23/1 275/24/1
f 326/21/1 327/22/1 284/23/1 328/24/1
f 327/21/1 329/22/1 285/23/1 284/24/1
f 329/21/1 330/22/1 331/23/1 285/24/1
f 330/25/1 332/26/1 333/27/1 331/28/1
f 332/25/1 334/26/1 288/27/1 333/28/1
f 335/21/1 336/22/1 317/23/1 337/24/1
f 336/21/1 338/22/1 318/23/1 317/24/1
f 338/21/1 339/22/1 321/23/1 318/24/1

