# Wavefront OBJ file automatically generated by Tiled2Unity

# Vertices (Count = 392)
v -80 -240 0
v -160 -240 0
v -160 -160 0
v -80 -160 0
v -240 -240 0
v -240 -160 0
v 0 -320 0
v -80 -320 0
v 0 -240 0
v -160 -320 0
v -240 -320 0
v -320 -320 0
v -320 -240 0
v -400 -320 0
v -400 -240 0
v -480 -320 0
v -480 -240 0
v -5120 -320 0
v -5200 -320 0
v -5200 -240 0
v -5120 -240 0
v -5280 -320 0
v -5280 -240 0
v -5360 -320 0
v -5440 -320 0
v -5440 -240 0
v -5360 -240 0
v -5520 -320 0
v -5520 -240 0
v -5600 -320 0
v -5680 -320 0
v -5680 -240 0
v -5600 -240 0
v -5760 -320 0
v -5760 -240 0
v -5840 -320 0
v -5920 -320 0
v -5920 -240 0
v -5840 -240 0
v -6000 -320 0
v -6000 -240 0
v -6080 -320 0
v -6160 -320 0
v -6160 -240 0
v -6080 -240 0
v -6240 -320 0
v -6240 -240 0
v -6320 -320 0
v -6320 -240 0
v -6400 -320 0
v -6480 -320 0
v -6480 -240 0
v -6400 -240 0
v -6560 -320 0
v -6560 -240 0
v -6640 -320 0
v -6720 -320 0
v -6720 -240 0
v -6640 -240 0
v 0 -400 0
v -80 -400 0
v -160 -400 0
v -240 -400 0
v -320 -400 0
v -400 -400 0
v -480 -400 0
v -560 -400 0
v -560 -320 0
v -640 -400 0
v -640 -320 0
v -720 -400 0
v -720 -320 0
v -800 -400 0
v -800 -320 0
v -5040 -400 0
v -5120 -400 0
v -5040 -320 0
v -5200 -400 0
v -5280 -400 0
v -5360 -400 0
v -5440 -400 0
v -5520 -400 0
v -5600 -400 0
v -5680 -400 0
v -5760 -400 0
v -5840 -400 0
v -5920 -400 0
v -6000 -400 0
v -6080 -400 0
v -6160 -400 0
v -6240 -400 0
v -6320 -400 0
v -6400 -400 0
v -6480 -400 0
v -6560 -400 0
v -6640 -400 0
v -6720 -400 0
v -6800 -400 0
v -6800 -320 0
v -6880 -400 0
v -6960 -400 0
v -6960 -320 0
v -6880 -320 0
v -7040 -400 0
v -7120 -400 0
v -7120 -320 0
v -7040 -320 0
v -7200 -400 0
v -7200 -320 0
v -560 -480 0
v -640 -480 0
v -720 -480 0
v -800 -480 0
v -880 -480 0
v -960 -480 0
v -960 -400 0
v -880 -400 0
v -6800 -480 0
v -6880 -480 0
v -6960 -480 0
v -7040 -480 0
v -7120 -480 0
v -7200 -480 0
v -7280 -480 0
v -7360 -480 0
v -7360 -400 0
v -7280 -400 0
v -7440 -480 0
v -7440 -400 0
v -7840 -480 0
v -7920 -480 0
v -7920 -400 0
v -7840 -400 0
v -800 -560 0
v -880 -560 0
v -960 -560 0
v -1040 -560 0
v -1040 -480 0
v -1120 -560 0
v -1200 -560 0
v -1200 -480 0
v -1120 -480 0
v -3520 -560 0
v -3600 -560 0
v -3600 -480 0
v -3520 -480 0
v -3680 -560 0
v -3680 -480 0
v -3760 -560 0
v -3840 -560 0
v -3840 -480 0
v -3760 -480 0
v -3920 -560 0
v -3920 -480 0
v -4000 -560 0
v -4080 -560 0
v -4080 -480 0
v -4000 -480 0
v -4160 -560 0
v -4240 -560 0
v -4240 -480 0
v -4160 -480 0
v -4320 -560 0
v -4400 -560 0
v -4400 -480 0
v -4320 -480 0
v -4480 -560 0
v -4480 -480 0
v -4560 -560 0
v -4640 -560 0
v -4640 -480 0
v -4560 -480 0
v -4720 -560 0
v -4800 -560 0
v -4800 -480 0
v -4720 -480 0
v -7200 -560 0
v -7280 -560 0
v -7360 -560 0
v -7440 -560 0
v -7520 -560 0
v -7520 -480 0
v -7600 -560 0
v -7600 -480 0
v -7680 -560 0
v -7680 -480 0
v -7760 -560 0
v -7760 -480 0
v -7840 -560 0
v -7920 -560 0
v -8000 -560 0
v -8000 -480 0
v -8080 -560 0
v -8080 -480 0
v -8160 -560 0
v -8160 -480 0
v -8240 -560 0
v -8240 -480 0
v -1040 -640 0
v -1120 -640 0
v -1200 -640 0
v -1280 -640 0
v -1280 -560 0
v -1360 -640 0
v -1360 -560 0
v -1440 -640 0
v -1440 -560 0
v -3440 -640 0
v -3520 -640 0
v -3440 -560 0
v -3600 -640 0
v -3680 -640 0
v -3760 -640 0
v -3840 -640 0
v -3920 -640 0
v -4000 -640 0
v -4080 -640 0
v -4160 -640 0
v -4240 -640 0
v -4320 -640 0
v -4400 -640 0
v -4480 -640 0
v -4560 -640 0
v -4640 -640 0
v -4720 -640 0
v -4800 -640 0
v -4880 -640 0
v -4880 -560 0
v -4960 -640 0
v -4960 -560 0
v -8000 -640 0
v -8080 -640 0
v -8160 -640 0
v -8240 -640 0
v -8320 -640 0
v -8400 -640 0
v -8400 -560 0
v -8320 -560 0
v -1600 -720 0
v -1680 -720 0
v -1680 -640 0
v -1600 -640 0
v -2000 -720 0
v -2080 -720 0
v -2080 -640 0
v -2000 -640 0
v -2160 -720 0
v -2160 -640 0
v -8240 -720 0
v -8320 -720 0
v -8400 -720 0
v -8480 -720 0
v -8480 -640 0
v -8560 -720 0
v -8640 -720 0
v -8640 -640 0
v -8560 -640 0
v -1520 -800 0
v -1600 -800 0
v -1520 -720 0
v -1680 -800 0
v -1760 -800 0
v -1760 -720 0
v -1840 -800 0
v -1840 -720 0
v -1920 -800 0
v -1920 -720 0
v -2000 -800 0
v -2080 -800 0
v -2160 -800 0
v -2240 -800 0
v -2240 -720 0
v -2320 -800 0
v -2320 -720 0
v -2400 -800 0
v -2400 -720 0
v -8480 -800 0
v -8560 -800 0
v -8640 -800 0
v -8720 -800 0
v -8720 -720 0
v -8800 -800 0
v -8800 -720 0
v -8880 -800 0
v -8880 -720 0
v -2560 -880 0
v -2640 -880 0
v -2640 -800 0
v -2560 -800 0
v -2720 -880 0
v -2720 -800 0
v -2800 -880 0
v -2880 -880 0
v -2880 -800 0
v -2800 -800 0
v -2960 -880 0
v -2960 -800 0
v -3040 -880 0
v -3120 -880 0
v -3120 -800 0
v -3040 -800 0
v -3200 -880 0
v -3200 -800 0
v -8720 -880 0
v -8800 -880 0
v -8880 -880 0
v -8960 -880 0
v -8960 -800 0
v -9040 -880 0
v -9120 -880 0
v -9120 -800 0
v -9040 -800 0
v -9200 -880 0
v -9200 -800 0
v -9280 -880 0
v -9360 -880 0
v -9360 -800 0
v -9280 -800 0
v -9440 -880 0
v -9440 -800 0
v -9520 -880 0
v -9600 -880 0
v -9600 -800 0
v -9520 -800 0
v -9680 -880 0
v -9680 -800 0
v -9760 -880 0
v -9760 -800 0
v -9840 -880 0
v -9920 -880 0
v -9920 -800 0
v -9840 -800 0
v -10000 -880 0
v -10000 -800 0
v -10080 -880 0
v -10080 -800 0
v -10160 -880 0
v -10240 -880 0
v -10240 -800 0
v -10160 -800 0
v -10320 -880 0
v -10320 -800 0
v -10400 -880 0
v -10400 -800 0
v -10480 -880 0
v -10480 -800 0
v -10560 -880 0
v -10560 -800 0
v -10640 -880 0
v -10640 -800 0
v -10720 -880 0
v -10720 -800 0
v -2480 -960 0
v -2560 -960 0
v -2480 -880 0
v -2640 -960 0
v -2720 -960 0
v -2800 -960 0
v -2880 -960 0
v -2960 -960 0
v -3040 -960 0
v -3120 -960 0
v -3200 -960 0
v -3280 -960 0
v -3280 -880 0
v -3360 -960 0
v -3360 -880 0
v -8960 -960 0
v -9040 -960 0
v -9120 -960 0
v -9200 -960 0
v -9280 -960 0
v -9360 -960 0
v -9440 -960 0
v -9520 -960 0
v -9600 -960 0
v -9680 -960 0
v -9760 -960 0
v -9840 -960 0
v -9920 -960 0
v -10000 -960 0
v -10080 -960 0
v -10160 -960 0
v -10240 -960 0
v -10320 -960 0
v -10400 -960 0
v -10480 -960 0
v -10560 -960 0
v -10640 -960 0
v -10720 -960 0
v -10800 -960 0
v -10800 -880 0

# Texture cooridinates (Count = 52)
vt 0.2501221 0.2501221
vt 0.3748779 0.2501221
vt 0.3748779 0.4998779
vt 0.2501221 0.4998779
vt 0.3751221 0.2501221
vt 0.4998779 0.2501221
vt 0.4998779 0.4998779
vt 0.3751221 0.4998779
vt 0.0001220703 0.7501221
vt 0.1248779 0.7501221
vt 0.1248779 0.9998779
vt 0.0001220703 0.9998779
vt 0.2501221 0.0001220703
vt 0.3748779 0.0001220703
vt 0.3748779 0.2498779
vt 0.2501221 0.2498779
vt 0.3751221 0.0001220703
vt 0.4998779 0.0001220703
vt 0.4998779 0.2498779
vt 0.3751221 0.2498779
vt 0.2501221 0.7501221
vt 0.3748779 0.7501221
vt 0.3748779 0.9998779
vt 0.2501221 0.9998779
vt 0.6251221 0.7501221
vt 0.7498779 0.7501221
vt 0.7498779 0.9998779
vt 0.6251221 0.9998779
vt 0.5001221 0.7501221
vt 0.6248779 0.7501221
vt 0.6248779 0.9998779
vt 0.5001221 0.9998779
vt 0.1251221 0.7501221
vt 0.2498779 0.7501221
vt 0.2498779 0.9998779
vt 0.1251221 0.9998779
vt 0.3751221 0.7501221
vt 0.4998779 0.7501221
vt 0.4998779 0.9998779
vt 0.3751221 0.9998779
vt 0.7501221 0.7501221
vt 0.8748779 0.7501221
vt 0.8748779 0.9998779
vt 0.7501221 0.9998779
vt 0.2501221 0.5001221
vt 0.3748779 0.5001221
vt 0.3748779 0.7498779
vt 0.2501221 0.7498779
vt 0.8751221 0.7501221
vt 0.9998779 0.7501221
vt 0.9998779 0.9998779
vt 0.8751221 0.9998779

# Normal
vn 0 0 -1

# Groups (Count = 1)

g mesh_0001
f 1/1/1 2/2/1 3/3/1 4/4/1
f 2/5/1 5/6/1 6/7/1 3/8/1
f 7/9/1 8/10/1 1/11/1 9/12/1
f 8/13/1 10/14/1 2/15/1 1/16/1
f 10/17/1 11/18/1 5/19/1 2/20/1
f 11/21/1 12/22/1 13/23/1 5/24/1
f 12/21/1 14/22/1 15/23/1 13/24/1
f 14/21/1 16/22/1 17/23/1 15/24/1
f 18/21/1 19/22/1 20/23/1 21/24/1
f 19/21/1 22/22/1 23/23/1 20/24/1
f 24/25/1 25/26/1 26/27/1 27/28/1
f 25/25/1 28/26/1 29/27/1 26/28/1
f 30/21/1 31/22/1 32/23/1 33/24/1
f 31/21/1 34/22/1 35/23/1 32/24/1
f 36/29/1 37/30/1 38/31/1 39/32/1
f 37/29/1 40/30/1 41/31/1 38/32/1
f 42/21/1 43/22/1 44/23/1 45/24/1
f 43/21/1 46/22/1 47/23/1 44/24/1
f 46/21/1 48/22/1 49/23/1 47/24/1
f 50/25/1 51/26/1 52/27/1 53/28/1
f 51/25/1 54/26/1 55/27/1 52/28/1
f 56/21/1 57/22/1 58/23/1 59/24/1
f 60/33/1 61/34/1 8/35/1 7/36/1
f 61/33/1 62/34/1 10/35/1 8/36/1
f 62/33/1 63/34/1 11/35/1 10/36/1
f 63/33/1 64/34/1 12/35/1 11/36/1
f 64/33/1 65/34/1 14/35/1 12/36/1
f 65/33/1 66/34/1 16/35/1 14/36/1
f 66/33/1 67/34/1 68/35/1 16/36/1
f 67/21/1 69/22/1 70/23/1 68/24/1
f 69/21/1 71/22/1 72/23/1 70/24/1
f 71/37/1 73/38/1 74/39/1 72/40/1
f 75/33/1 76/34/1 18/35/1 77/36/1
f 76/33/1 78/34/1 19/35/1 18/36/1
f 78/33/1 79/34/1 22/35/1 19/36/1
f 79/33/1 80/34/1 24/35/1 22/36/1
f 80/33/1 81/34/1 25/35/1 24/36/1
f 81/33/1 82/34/1 28/35/1 25/36/1
f 82/33/1 83/34/1 30/35/1 28/36/1
f 83/33/1 84/34/1 31/35/1 30/36/1
f 84/33/1 85/34/1 34/35/1 31/36/1
f 85/33/1 86/34/1 36/35/1 34/36/1
f 86/33/1 87/34/1 37/35/1 36/36/1
f 87/33/1 88/34/1 40/35/1 37/36/1
f 88/33/1 89/34/1 42/35/1 40/36/1
f 89/33/1 90/34/1 43/35/1 42/36/1
f 90/33/1 91/34/1 46/35/1 43/36/1
f 91/33/1 92/34/1 48/35/1 46/36/1
f 92/33/1 93/34/1 50/35/1 48/36/1
f 93/33/1 94/34/1 51/35/1 50/36/1
f 94/33/1 95/34/1 54/35/1 51/36/1
f 95/33/1 96/34/1 56/35/1 54/36/1
f 96/33/1 97/34/1 57/35/1 56/36/1
f 97/33/1 98/34/1 99/35/1 57/36/1
f 100/21/1 101/22/1 102/23/1 103/24/1
f 104/37/1 105/38/1 106/39/1 107/40/1
f 105/29/1 108/30/1 109/31/1 106/32/1
f 110/33/1 111/34/1 69/35/1 67/36/1
f 111/33/1 112/34/1 71/35/1 69/36/1
f 112/33/1 113/34/1 73/35/1 71/36/1
f 114/21/1 115/22/1 116/23/1 117/24/1
f 118/33/1 119/34/1 100/35/1 98/36/1
f 119/33/1 120/34/1 101/35/1 100/36/1
f 120/33/1 121/34/1 104/35/1 101/36/1
f 121/33/1 122/34/1 105/35/1 104/36/1
f 122/33/1 123/34/1 108/35/1 105/36/1
f 124/21/1 125/22/1 126/23/1 127/24/1
f 125/21/1 128/22/1 129/23/1 126/24/1
f 130/21/1 131/22/1 132/23/1 133/24/1
f 134/33/1 135/34/1 114/35/1 113/36/1
f 135/33/1 136/34/1 115/35/1 114/36/1
f 136/33/1 137/34/1 138/35/1 115/36/1
f 139/21/1 140/22/1 141/23/1 142/24/1
f 143/21/1 144/22/1 145/23/1 146/24/1
f 144/21/1 147/22/1 148/23/1 145/24/1
f 149/37/1 150/38/1 151/39/1 152/40/1
f 150/29/1 153/30/1 154/31/1 151/32/1
f 155/21/1 156/22/1 157/23/1 158/24/1
f 159/41/1 160/42/1 161/43/1 162/44/1
f 163/21/1 164/22/1 165/23/1 166/24/1
f 164/21/1 167/22/1 168/23/1 165/24/1
f 169/25/1 170/26/1 171/27/1 172/28/1
f 173/21/1 174/22/1 175/23/1 176/24/1
f 177/33/1 178/34/1 124/35/1 123/36/1
f 178/33/1 179/34/1 125/35/1 124/36/1
f 179/33/1 180/34/1 128/35/1 125/36/1
f 180/33/1 181/34/1 182/35/1 128/36/1
f 181/45/1 183/46/1 184/47/1 182/48/1
f 183/45/1 185/46/1 186/47/1 184/48/1
f 185/45/1 187/46/1 188/47/1 186/48/1
f 187/33/1 189/34/1 130/35/1 188/36/1
f 189/33/1 190/34/1 131/35/1 130/36/1
f 190/33/1 191/34/1 192/35/1 131/36/1
f 191/21/1 193/22/1 194/23/1 192/24/1
f 193/21/1 195/22/1 196/23/1 194/24/1
f 195/37/1 197/38/1 198/39/1 196/40/1
f 199/33/1 200/34/1 139/35/1 137/36/1
f 200/33/1 201/34/1 140/35/1 139/36/1
f 201/33/1 202/34/1 203/35/1 140/36/1
f 202/45/1 204/46/1 205/47/1 203/48/1
f 204/45/1 206/46/1 207/47/1 205/48/1
f 208/33/1 209/34/1 143/35/1 210/36/1
f 209/33/1 211/34/1 144/35/1 143/36/1
f 211/33/1 212/34/1 147/35/1 144/36/1
f 212/33/1 213/34/1 149/35/1 147/36/1
f 213/33/1 214/34/1 150/35/1 149/36/1
f 214/33/1 215/34/1 153/35/1 150/36/1
f 215/33/1 216/34/1 155/35/1 153/36/1
f 216/33/1 217/34/1 156/35/1 155/36/1
f 217/33/1 218/34/1 159/35/1 156/36/1
f 218/33/1 219/34/1 160/35/1 159/36/1
f 219/33/1 220/34/1 163/35/1 160/36/1
f 220/33/1 221/34/1 164/35/1 163/36/1
f 221/33/1 222/34/1 167/35/1 164/36/1
f 222/33/1 223/34/1 169/35/1 167/36/1
f 223/33/1 224/34/1 170/35/1 169/36/1
f 224/33/1 225/34/1 173/35/1 170/36/1
f 225/33/1 226/34/1 174/35/1 173/36/1
f 226/49/1 227/50/1 228/51/1 174/52/1
f 227/49/1 229/50/1 230/51/1 228/52/1
f 231/33/1 232/34/1 193/35/1 191/36/1
f 232/33/1 233/34/1 195/35/1 193/36/1
f 233/33/1 234/34/1 197/35/1 195/36/1
f 235/21/1 236/22/1 237/23/1 238/24/1
f 239/21/1 240/22/1 241/23/1 242/24/1
f 243/21/1 244/22/1 245/23/1 246/24/1
f 244/21/1 247/22/1 248/23/1 245/24/1
f 249/33/1 250/34/1 235/35/1 234/36/1
f 250/33/1 251/34/1 236/35/1 235/36/1
f 251/33/1 252/34/1 253/35/1 236/36/1
f 254/21/1 255/22/1 256/23/1 257/24/1
f 258/33/1 259/34/1 239/35/1 260/36/1
f 259/33/1 261/34/1 240/35/1 239/36/1
f 261/33/1 262/34/1 263/35/1 240/36/1
f 262/45/1 264/46/1 265/47/1 263/48/1
f 264/45/1 266/46/1 267/47/1 265/48/1
f 266/45/1 268/46/1 243/47/1 267/48/1
f 268/33/1 269/34/1 244/35/1 243/36/1
f 269/33/1 270/34/1 247/35/1 244/36/1
f 270/45/1 271/46/1 272/47/1 247/48/1
f 271/45/1 273/46/1 274/47/1 272/48/1
f 273/45/1 275/46/1 276/47/1 274/48/1
f 277/33/1 278/34/1 254/35/1 252/36/1
f 278/33/1 279/34/1 255/35/1 254/36/1
f 279/33/1 280/34/1 281/35/1 255/36/1
f 280/29/1 282/30/1 283/31/1 281/32/1
f 282/29/1 284/30/1 285/31/1 283/32/1
f 286/21/1 287/22/1 288/23/1 289/24/1
f 287/21/1 290/22/1 291/23/1 288/24/1
f 292/25/1 293/26/1 294/27/1 295/28/1
f 293/25/1 296/26/1 297/27/1 294/28/1
f 298/21/1 299/22/1 300/23/1 301/24/1
f 299/21/1 302/22/1 303/23/1 300/24/1
f 304/33/1 305/34/1 282/35/1 280/36/1
f 305/33/1 306/34/1 284/35/1 282/36/1
f 306/33/1 307/34/1 308/35/1 284/36/1
f 309/21/1 310/22/1 311/23/1 312/24/1
f 310/21/1 313/22/1 314/23/1 311/24/1
f 315/25/1 316/26/1 317/27/1 318/28/1
f 316/25/1 319/26/1 320/27/1 317/28/1
f 321/21/1 322/22/1 323/23/1 324/24/1
f 322/21/1 325/22/1 326/23/1 323/24/1
f 325/21/1 327/22/1 328/23/1 326/24/1
f 329/37/1 330/38/1 331/39/1 332/40/1
f 330/25/1 333/26/1 334/27/1 331/28/1
f 333/29/1 335/30/1 336/31/1 334/32/1
f 337/21/1 338/22/1 339/23/1 340/24/1
f 338/21/1 341/22/1 342/23/1 339/24/1
f 341/21/1 343/22/1 344/23/1 342/24/1
f 343/21/1 345/22/1 346/23/1 344/24/1
f 345/21/1 347/22/1 348/23/1 346/24/1
f 347/21/1 349/22/1 350/23/1 348/24/1
f 349/21/1 351/22/1 352/23/1 350/24/1
f 353/33/1 354/34/1 286/35/1 355/36/1
f 354/33/1 356/34/1 287/35/1 286/36/1
f 356/33/1 357/34/1 290/35/1 287/36/1
f 357/33/1 358/34/1 292/35/1 290/36/1
f 358/33/1 359/34/1 293/35/1 292/36/1
f 359/33/1 360/34/1 296/35/1 293/36/1
f 360/33/1 361/34/1 298/35/1 296/36/1
f 361/33/1 362/34/1 299/35/1 298/36/1
f 362/33/1 363/34/1 302/35/1 299/36/1
f 363/49/1 364/50/1 365/51/1 302/52/1
f 364/49/1 366/50/1 367/51/1 365/52/1
f 368/33/1 369/34/1 309/35/1 307/36/1
f 369/33/1 370/34/1 310/35/1 309/36/1
f 370/33/1 371/34/1 313/35/1 310/36/1
f 371/33/1 372/34/1 315/35/1 313/36/1
f 372/33/1 373/34/1 316/35/1 315/36/1
f 373/33/1 374/34/1 319/35/1 316/36/1
f 374/33/1 375/34/1 321/35/1 319/36/1
f 375/33/1 376/34/1 322/35/1 321/36/1
f 376/33/1 377/34/1 325/35/1 322/36/1
f 377/33/1 378/34/1 327/35/1 325/36/1
f 378/33/1 379/34/1 329/35/1 327/36/1
f 379/33/1 380/34/1 330/35/1 329/36/1
f 380/33/1 381/34/1 333/35/1 330/36/1
f 381/33/1 382/34/1 335/35/1 333/36/1
f 382/33/1 383/34/1 337/35/1 335/36/1
f 383/33/1 384/34/1 338/35/1 337/36/1
f 384/33/1 385/34/1 341/35/1 338/36/1
f 385/33/1 386/34/1 343/35/1 341/36/1
f 386/33/1 387/34/1 345/35/1 343/36/1
f 387/33/1 388/34/1 347/35/1 345/36/1
f 388/33/1 389/34/1 349/35/1 347/36/1
f 389/33/1 390/34/1 351/35/1 349/36/1
f 390/33/1 391/34/1 392/35/1 351/36/1

