# Wavefront OBJ file automatically generated by Tiled2Unity

# Vertices (Count = 137)
v -1600 -400 0
v -1680 -400 0
v -1680 -320 0
v -1600 -320 0
v -1760 -400 0
v -1760 -320 0
v -1840 -400 0
v -1840 -320 0
v -2160 -400 0
v -2240 -400 0
v -2240 -320 0
v -2160 -320 0
v -2320 -400 0
v -2320 -320 0
v -2400 -400 0
v -2400 -320 0
v -80 -480 0
v -160 -480 0
v -160 -400 0
v -80 -400 0
v -240 -480 0
v -240 -400 0
v -720 -480 0
v -800 -480 0
v -800 -400 0
v -720 -400 0
v -880 -480 0
v -880 -400 0
v -960 -480 0
v -960 -400 0
v -1040 -480 0
v -1120 -480 0
v -1120 -400 0
v -1040 -400 0
v -1200 -480 0
v -1280 -480 0
v -1280 -400 0
v -1200 -400 0
v -1360 -480 0
v -1360 -400 0
v -1440 -480 0
v -1440 -400 0
v -1520 -480 0
v -1600 -480 0
v -1520 -400 0
v -1680 -480 0
v -1760 -480 0
v -1840 -480 0
v -1920 -480 0
v -1920 -400 0
v -2000 -480 0
v -2000 -400 0
v -2080 -480 0
v -2080 -400 0
v -2160 -480 0
v -2240 -480 0
v -2320 -480 0
v -2400 -480 0
v -2480 -480 0
v -2480 -400 0
v -2560 -480 0
v -2640 -480 0
v -2640 -400 0
v -2560 -400 0
v -2720 -480 0
v -2720 -400 0
v -2800 -480 0
v -2880 -480 0
v -2880 -400 0
v -2800 -400 0
v -2960 -480 0
v -3040 -480 0
v -3040 -400 0
v -2960 -400 0
v -3120 -480 0
v -3120 -400 0
v -3200 -480 0
v -3200 -400 0
v -3280 -480 0
v -3280 -400 0
v -3360 -480 0
v -3360 -400 0
v -3440 -480 0
v -3440 -400 0
v -3520 -480 0
v -3520 -400 0
v 0 -560 0
v -80 -560 0
v 0 -480 0
v -160 -560 0
v -240 -560 0
v -320 -560 0
v -400 -560 0
v -400 -480 0
v -320 -480 0
v -480 -560 0
v -480 -480 0
v -560 -560 0
v -560 -480 0
v -640 -560 0
v -720 -560 0
v -640 -480 0
v -800 -560 0
v -880 -560 0
v -960 -560 0
v -1040 -560 0
v -1120 -560 0
v -1200 -560 0
v -1280 -560 0
v -1360 -560 0
v -1440 -560 0
v -1520 -560 0
v -2480 -560 0
v -2560 -560 0
v -2640 -560 0
v -2720 -560 0
v -2800 -560 0
v -2880 -560 0
v -2960 -560 0
v -3040 -560 0
v -3120 -560 0
v -3200 -560 0
v -3280 -560 0
v -3360 -560 0
v -3440 -560 0
v -3520 -560 0
v -3600 -560 0
v -3600 -480 0
v 0 -640 0
v -80 -640 0
v -160 -640 0
v -240 -640 0
v -320 -640 0
v -400 -640 0
v -480 -640 0
v -560 -640 0
v -640 -640 0

# Texture cooridinates (Count = 40)
vt 0.2501221 0.7501221
vt 0.3748779 0.7501221
vt 0.3748779 0.9998779
vt 0.2501221 0.9998779
vt 0.2501221 0.2501221
vt 0.3748779 0.2501221
vt 0.3748779 0.4998779
vt 0.2501221 0.4998779
vt 0.3751221 0.2501221
vt 0.4998779 0.2501221
vt 0.4998779 0.4998779
vt 0.3751221 0.4998779
vt 0.6251221 0.7501221
vt 0.7498779 0.7501221
vt 0.7498779 0.9998779
vt 0.6251221 0.9998779
vt 0.1251221 0.7501221
vt 0.2498779 0.7501221
vt 0.2498779 0.9998779
vt 0.1251221 0.9998779
vt 0.2501221 0.5001221
vt 0.3748779 0.5001221
vt 0.3748779 0.7498779
vt 0.2501221 0.7498779
vt 0.3751221 0.7501221
vt 0.4998779 0.7501221
vt 0.4998779 0.9998779
vt 0.3751221 0.9998779
vt 0.0001220703 0.7501221
vt 0.1248779 0.7501221
vt 0.1248779 0.9998779
vt 0.0001220703 0.9998779
vt 0.2501221 0.0001220703
vt 0.3748779 0.0001220703
vt 0.3748779 0.2498779
vt 0.2501221 0.2498779
vt 0.3751221 0.0001220703
vt 0.4998779 0.0001220703
vt 0.4998779 0.2498779
vt 0.3751221 0.2498779

# Normal
vn 0 0 -1

# Groups (Count = 1)

g mesh_0001
f 1/1/1 2/2/1 3/3/1 4/4/1
f 2/1/1 5/2/1 6/3/1 3/4/1
f 5/1/1 7/2/1 8/3/1 6/4/1
f 9/1/1 10/2/1 11/3/1 12/4/1
f 10/1/1 13/2/1 14/3/1 11/4/1
f 13/1/1 15/2/1 16/3/1 14/4/1
f 17/5/1 18/6/1 19/7/1 20/8/1
f 18/9/1 21/10/1 22/11/1 19/12/1
f 23/1/1 24/2/1 25/3/1 26/4/1
f 24/1/1 27/2/1 28/3/1 25/4/1
f 27/1/1 29/2/1 30/3/1 28/4/1
f 31/13/1 32/14/1 33/15/1 34/16/1
f 35/1/1 36/2/1 37/3/1 38/4/1
f 36/1/1 39/2/1 40/3/1 37/4/1
f 39/1/1 41/2/1 42/3/1 40/4/1
f 43/17/1 44/18/1 1/19/1 45/20/1
f 44/17/1 46/18/1 2/19/1 1/20/1
f 46/17/1 47/18/1 5/19/1 2/20/1
f 47/17/1 48/18/1 7/19/1 5/20/1
f 48/17/1 49/18/1 50/19/1 7/20/1
f 49/21/1 51/22/1 52/23/1 50/24/1
f 51/21/1 53/22/1 54/23/1 52/24/1
f 53/17/1 55/18/1 9/19/1 54/20/1
f 55/17/1 56/18/1 10/19/1 9/20/1
f 56/17/1 57/18/1 13/19/1 10/20/1
f 57/17/1 58/18/1 15/19/1 13/20/1
f 58/17/1 59/18/1 60/19/1 15/20/1
f 61/1/1 62/2/1 63/3/1 64/4/1
f 62/1/1 65/2/1 66/3/1 63/4/1
f 67/25/1 68/26/1 69/27/1 70/28/1
f 71/1/1 72/2/1 73/3/1 74/4/1
f 72/1/1 75/2/1 76/3/1 73/4/1
f 75/1/1 77/2/1 78/3/1 76/4/1
f 77/1/1 79/2/1 80/3/1 78/4/1
f 79/1/1 81/2/1 82/3/1 80/4/1
f 81/1/1 83/2/1 84/3/1 82/4/1
f 83/1/1 85/2/1 86/3/1 84/4/1
f 87/29/1 88/30/1 17/31/1 89/32/1
f 88/33/1 90/34/1 18/35/1 17/36/1
f 90/37/1 91/38/1 21/39/1 18/40/1
f 92/1/1 93/2/1 94/3/1 95/4/1
f 93/1/1 96/2/1 97/3/1 94/4/1
f 96/1/1 98/2/1 99/3/1 97/4/1
f 100/17/1 101/18/1 23/19/1 102/20/1
f 101/17/1 103/18/1 24/19/1 23/20/1
f 103/17/1 104/18/1 27/19/1 24/20/1
f 104/17/1 105/18/1 29/19/1 27/20/1
f 105/17/1 106/18/1 31/19/1 29/20/1
f 106/17/1 107/18/1 32/19/1 31/20/1
f 107/17/1 108/18/1 35/19/1 32/20/1
f 108/17/1 109/18/1 36/19/1 35/20/1
f 109/17/1 110/18/1 39/19/1 36/20/1
f 110/17/1 111/18/1 41/19/1 39/20/1
f 111/17/1 112/18/1 43/19/1 41/20/1
f 113/17/1 114/18/1 61/19/1 59/20/1
f 114/17/1 115/18/1 62/19/1 61/20/1
f 115/17/1 116/18/1 65/19/1 62/20/1
f 116/17/1 117/18/1 67/19/1 65/20/1
f 117/17/1 118/18/1 68/19/1 67/20/1
f 118/17/1 119/18/1 71/19/1 68/20/1
f 119/17/1 120/18/1 72/19/1 71/20/1
f 120/17/1 121/18/1 75/19/1 72/20/1
f 121/17/1 122/18/1 77/19/1 75/20/1
f 122/17/1 123/18/1 79/19/1 77/20/1
f 123/17/1 124/18/1 81/19/1 79/20/1
f 124/17/1 125/18/1 83/19/1 81/20/1
f 125/17/1 126/18/1 85/19/1 83/20/1
f 126/17/1 127/18/1 128/19/1 85/20/1
f 129/17/1 130/18/1 88/19/1 87/20/1
f 130/17/1 131/18/1 90/19/1 88/20/1
f 131/17/1 132/18/1 91/19/1 90/20/1
f 132/17/1 133/18/1 92/19/1 91/20/1
f 133/17/1 134/18/1 93/19/1 92/20/1
f 134/17/1 135/18/1 96/19/1 93/20/1
f 135/17/1 136/18/1 98/19/1 96/20/1
f 136/17/1 137/18/1 100/19/1 98/20/1

