# Wavefront OBJ file automatically generated by Tiled2Unity

# Vertices (Count = 404)
v -1120 -320 0
v -1200 -320 0
v -1200 -240 0
v -1120 -240 0
v -1280 -320 0
v -1280 -240 0
v -1360 -320 0
v -1360 -240 0
v -1440 -320 0
v -1520 -320 0
v -1520 -240 0
v -1440 -240 0
v -1600 -320 0
v -1600 -240 0
v -1680 -320 0
v -1760 -320 0
v -1760 -240 0
v -1680 -240 0
v -1840 -320 0
v -1840 -240 0
v -1920 -320 0
v -2000 -320 0
v -2000 -240 0
v -1920 -240 0
v -2080 -320 0
v -2080 -240 0
v -2160 -320 0
v -2160 -240 0
v -2240 -320 0
v -2320 -320 0
v -2320 -240 0
v -2240 -240 0
v -2720 -320 0
v -2800 -320 0
v -2800 -240 0
v -2720 -240 0
v -2880 -320 0
v -2960 -320 0
v -2960 -240 0
v -2880 -240 0
v -3040 -320 0
v -3040 -240 0
v -3120 -320 0
v -3200 -320 0
v -3200 -240 0
v -3120 -240 0
v -3600 -320 0
v -3680 -320 0
v -3680 -240 0
v -3600 -240 0
v -3760 -320 0
v -3840 -320 0
v -3840 -240 0
v -3760 -240 0
v -3920 -320 0
v -3920 -240 0
v -4000 -320 0
v -4080 -320 0
v -4080 -240 0
v -4000 -240 0
v -4480 -320 0
v -4560 -320 0
v -4560 -240 0
v -4480 -240 0
v -4640 -320 0
v -4720 -320 0
v -4720 -240 0
v -4640 -240 0
v -4800 -320 0
v -4880 -320 0
v -4880 -240 0
v -4800 -240 0
v -5360 -320 0
v -5440 -320 0
v -5440 -240 0
v -5360 -240 0
v -5520 -320 0
v -5600 -320 0
v -5600 -240 0
v -5520 -240 0
v -5680 -320 0
v -5760 -320 0
v -5760 -240 0
v -5680 -240 0
v -5840 -320 0
v -5840 -240 0
v -5920 -320 0
v -5920 -240 0
v -1040 -400 0
v -1120 -400 0
v -1040 -320 0
v -1200 -400 0
v -1280 -400 0
v -1360 -400 0
v -1440 -400 0
v -1520 -400 0
v -1600 -400 0
v -1680 -400 0
v -1760 -400 0
v -1840 -400 0
v -1920 -400 0
v -2000 -400 0
v -2080 -400 0
v -2160 -400 0
v -2240 -400 0
v -2320 -400 0
v -2400 -400 0
v -2400 -320 0
v -2640 -400 0
v -2720 -400 0
v -2640 -320 0
v -2800 -400 0
v -2880 -400 0
v -2960 -400 0
v -3040 -400 0
v -3120 -400 0
v -3200 -400 0
v -3280 -400 0
v -3280 -320 0
v -3520 -400 0
v -3600 -400 0
v -3520 -320 0
v -3680 -400 0
v -3760 -400 0
v -3840 -400 0
v -3920 -400 0
v -4000 -400 0
v -4080 -400 0
v -4160 -400 0
v -4160 -320 0
v -4400 -400 0
v -4480 -400 0
v -4400 -320 0
v -4560 -400 0
v -4640 -400 0
v -4720 -400 0
v -4800 -400 0
v -4880 -400 0
v -4960 -400 0
v -4960 -320 0
v -5040 -400 0
v -5040 -320 0
v -5120 -400 0
v -5120 -320 0
v -5200 -400 0
v -5200 -320 0
v -5280 -400 0
v -5280 -320 0
v -5360 -400 0
v -5440 -400 0
v -5520 -400 0
v -5600 -400 0
v -5680 -400 0
v -5760 -400 0
v -5840 -400 0
v -5920 -400 0
v -6000 -400 0
v -6000 -320 0
v -480 -560 0
v -560 -560 0
v -560 -480 0
v -480 -480 0
v -640 -560 0
v -720 -560 0
v -720 -480 0
v -640 -480 0
v -800 -560 0
v -800 -480 0
v -880 -560 0
v -960 -560 0
v -960 -480 0
v -880 -480 0
v 0 -640 0
v -80 -640 0
v -80 -560 0
v 0 -560 0
v -160 -640 0
v -160 -560 0
v -400 -640 0
v -480 -640 0
v -400 -560 0
v -560 -640 0
v -640 -640 0
v -720 -640 0
v -800 -640 0
v -880 -640 0
v -960 -640 0
v -1760 -640 0
v -1840 -640 0
v -1840 -560 0
v -1760 -560 0
v -3760 -640 0
v -3840 -640 0
v -3840 -560 0
v -3760 -560 0
v -5760 -640 0
v -5840 -640 0
v -5840 -560 0
v -5760 -560 0
v -5920 -640 0
v -5920 -560 0
v 0 -720 0
v -80 -720 0
v -160 -720 0
v -320 -720 0
v -400 -720 0
v -320 -640 0
v -480 -720 0
v -560 -720 0
v -640 -720 0
v -720 -720 0
v -800 -720 0
v -880 -720 0
v -960 -720 0
v -1040 -720 0
v -1040 -640 0
v -1120 -720 0
v -1120 -640 0
v -1200 -720 0
v -1280 -720 0
v -1280 -640 0
v -1200 -640 0
v -1360 -720 0
v -1440 -720 0
v -1440 -640 0
v -1360 -640 0
v -1520 -720 0
v -1600 -720 0
v -1600 -640 0
v -1520 -640 0
v -1680 -720 0
v -1680 -640 0
v -1760 -720 0
v -1840 -720 0
v -1920 -720 0
v -2000 -720 0
v -2000 -640 0
v -1920 -640 0
v -2080 -720 0
v -2080 -640 0
v -2160 -720 0
v -2160 -640 0
v -2240 -720 0
v -2320 -720 0
v -2320 -640 0
v -2240 -640 0
v -2400 -720 0
v -2400 -640 0
v -2480 -720 0
v -2480 -640 0
v -2560 -720 0
v -2560 -640 0
v -2640 -720 0
v -2640 -640 0
v -2720 -720 0
v -2800 -720 0
v -2800 -640 0
v -2720 -640 0
v -2880 -720 0
v -2880 -640 0
v -2960 -720 0
v -2960 -640 0
v -3040 -720 0
v -3040 -640 0
v -3120 -720 0
v -3120 -640 0
v -3200 -720 0
v -3280 -720 0
v -3280 -640 0
v -3200 -640 0
v -3360 -720 0
v -3360 -640 0
v -3440 -720 0
v -3440 -640 0
v -3520 -720 0
v -3520 -640 0
v -3600 -720 0
v -3680 -720 0
v -3680 -640 0
v -3600 -640 0
v -3760 -720 0
v -3840 -720 0
v -4160 -720 0
v -4240 -720 0
v -4240 -640 0
v -4160 -640 0
v -4320 -720 0
v -4320 -640 0
v -4640 -720 0
v -4720 -720 0
v -4720 -640 0
v -4640 -640 0
v -4800 -720 0
v -4880 -720 0
v -4880 -640 0
v -4800 -640 0
v -4960 -720 0
v -5040 -720 0
v -5040 -640 0
v -4960 -640 0
v -5120 -720 0
v -5200 -720 0
v -5200 -640 0
v -5120 -640 0
v -5280 -720 0
v -5360 -720 0
v -5360 -640 0
v -5280 -640 0
v -5440 -720 0
v -5520 -720 0
v -5520 -640 0
v -5440 -640 0
v -5600 -720 0
v -5680 -720 0
v -5680 -640 0
v -5600 -640 0
v -5760 -720 0
v -5840 -720 0
v -5920 -720 0
v -6000 -720 0
v -6000 -640 0
v 0 -800 0
v -80 -800 0
v -160 -800 0
v -240 -800 0
v -240 -720 0
v -320 -800 0
v -400 -800 0
v -480 -800 0
v -560 -800 0
v -640 -800 0
v -720 -800 0
v -800 -800 0
v -880 -800 0
v -960 -800 0
v -1040 -800 0
v -1120 -800 0
v -1200 -800 0
v -1280 -800 0
v -1360 -800 0
v -1440 -800 0
v -1520 -800 0
v -1600 -800 0
v -1680 -800 0
v -1760 -800 0
v -1840 -800 0
v -1920 -800 0
v -2000 -800 0
v -2080 -800 0
v -2160 -800 0
v -2240 -800 0
v -2320 -800 0
v -2400 -800 0
v -2480 -800 0
v -2560 -800 0
v -2640 -800 0
v -2720 -800 0
v -2800 -800 0
v -2880 -800 0
v -2960 -800 0
v -3040 -800 0
v -3120 -800 0
v -3200 -800 0
v -3280 -800 0
v -3360 -800 0
v -3440 -800 0
v -3520 -800 0
v -3600 -800 0
v -3680 -800 0
v -3760 -800 0
v -3840 -800 0
v -3920 -800 0
v -3920 -720 0
v -4000 -800 0
v -4000 -720 0
v -4080 -800 0
v -4080 -720 0
v -4160 -800 0
v -4240 -800 0
v -4320 -800 0
v -4400 -800 0
v -4400 -720 0
v -4480 -800 0
v -4480 -720 0
v -4560 -800 0
v -4560 -720 0
v -4640 -800 0
v -4720 -800 0
v -4800 -800 0
v -4880 -800 0
v -4960 -800 0
v -5040 -800 0
v -5120 -800 0
v -5200 -800 0
v -5280 -800 0
v -5360 -800 0
v -5440 -800 0
v -5520 -800 0
v -5600 -800 0
v -5680 -800 0
v -5760 -800 0
v -5840 -800 0
v -5920 -800 0
v -6000 -800 0

# Texture cooridinates (Count = 84)
vt 0.2501221 0.7501221
vt 0.3748779 0.7501221
vt 0.3748779 0.9998779
vt 0.2501221 0.9998779
vt 0.6251221 0.7501221
vt 0.7498779 0.7501221
vt 0.7498779 0.9998779
vt 0.6251221 0.9998779
vt 0.5001221 0.7501221
vt 0.6248779 0.7501221
vt 0.6248779 0.9998779
vt 0.5001221 0.9998779
vt 0.3751221 0.7501221
vt 0.4998779 0.7501221
vt 0.4998779 0.9998779
vt 0.3751221 0.9998779
vt 0.7501221 0.7501221
vt 0.8748779 0.7501221
vt 0.8748779 0.9998779
vt 0.7501221 0.9998779
vt 0.1251221 0.7501221
vt 0.2498779 0.7501221
vt 0.2498779 0.9998779
vt 0.1251221 0.9998779
vt 0.2501221 0.5001221
vt 0.3748779 0.5001221
vt 0.3748779 0.7498779
vt 0.2501221 0.7498779
vt 0.2501221 0.2501221
vt 0.3748779 0.2501221
vt 0.3748779 0.4998779
vt 0.2501221 0.4998779
vt 0.3751221 0.2501221
vt 0.4998779 0.2501221
vt 0.4998779 0.4998779
vt 0.3751221 0.4998779
vt 0.8751221 0.7501221
vt 0.9998779 0.7501221
vt 0.9998779 0.9998779
vt 0.8751221 0.9998779
vt 0.7501221 0.2501221
vt 0.8748779 0.2501221
vt 0.8748779 0.4998779
vt 0.7501221 0.4998779
vt 0.8751221 0.2501221
vt 0.9998779 0.2501221
vt 0.9998779 0.4998779
vt 0.8751221 0.4998779
vt 0.0001220703 0.2501221
vt 0.1248779 0.2501221
vt 0.1248779 0.4998779
vt 0.0001220703 0.4998779
vt 0.1251221 0.2501221
vt 0.2498779 0.2501221
vt 0.2498779 0.4998779
vt 0.1251221 0.4998779
vt 0.2501221 0.0001220703
vt 0.3748779 0.0001220703
vt 0.3748779 0.2498779
vt 0.2501221 0.2498779
vt 0.3751221 0.0001220703
vt 0.4998779 0.0001220703
vt 0.4998779 0.2498779
vt 0.3751221 0.2498779
vt 0.7501221 0.0001220703
vt 0.8748779 0.0001220703
vt 0.8748779 0.2498779
vt 0.7501221 0.2498779
vt 0.8751221 0.0001220703
vt 0.9998779 0.0001220703
vt 0.9998779 0.2498779
vt 0.8751221 0.2498779
vt 0.0001220703 0.0001220703
vt 0.1248779 0.0001220703
vt 0.1248779 0.2498779
vt 0.0001220703 0.2498779
vt 0.1251221 0.0001220703
vt 0.2498779 0.0001220703
vt 0.2498779 0.2498779
vt 0.1251221 0.2498779
vt 0.0001220703 0.7501221
vt 0.1248779 0.7501221
vt 0.1248779 0.9998779
vt 0.0001220703 0.9998779

# Normal
vn 0 0 -1

# Groups (Count = 1)

g mesh_0001
f 1/1/1 2/2/1 3/3/1 4/4/1
f 2/1/1 5/2/1 6/3/1 3/4/1
f 5/1/1 7/2/1 8/3/1 6/4/1
f 9/5/1 10/6/1 11/7/1 12/8/1
f 10/5/1 13/6/1 14/7/1 11/8/1
f 15/1/1 16/2/1 17/3/1 18/4/1
f 16/1/1 19/2/1 20/3/1 17/4/1
f 21/9/1 22/10/1 23/11/1 24/12/1
f 22/13/1 25/14/1 26/15/1 23/16/1
f 25/9/1 27/10/1 28/11/1 26/12/1
f 29/1/1 30/2/1 31/3/1 32/4/1
f 33/1/1 34/2/1 35/3/1 36/4/1
f 37/17/1 38/18/1 39/19/1 40/20/1
f 38/17/1 41/18/1 42/19/1 39/20/1
f 43/1/1 44/2/1 45/3/1 46/4/1
f 47/1/1 48/2/1 49/3/1 50/4/1
f 51/9/1 52/10/1 53/11/1 54/12/1
f 52/9/1 55/10/1 56/11/1 53/12/1
f 57/1/1 58/2/1 59/3/1 60/4/1
f 61/1/1 62/2/1 63/3/1 64/4/1
f 65/5/1 66/6/1 67/7/1 68/8/1
f 69/1/1 70/2/1 71/3/1 72/4/1
f 73/1/1 74/2/1 75/3/1 76/4/1
f 77/17/1 78/18/1 79/19/1 80/20/1
f 81/1/1 82/2/1 83/3/1 84/4/1
f 82/1/1 85/2/1 86/3/1 83/4/1
f 85/1/1 87/2/1 88/3/1 86/4/1
f 89/21/1 90/22/1 1/23/1 91/24/1
f 90/21/1 92/22/1 2/23/1 1/24/1
f 92/21/1 93/22/1 5/23/1 2/24/1
f 93/21/1 94/22/1 7/23/1 5/24/1
f 94/21/1 95/22/1 9/23/1 7/24/1
f 95/21/1 96/22/1 10/23/1 9/24/1
f 96/21/1 97/22/1 13/23/1 10/24/1
f 97/21/1 98/22/1 15/23/1 13/24/1
f 98/21/1 99/22/1 16/23/1 15/24/1
f 99/21/1 100/22/1 19/23/1 16/24/1
f 100/21/1 101/22/1 21/23/1 19/24/1
f 101/21/1 102/22/1 22/23/1 21/24/1
f 102/21/1 103/22/1 25/23/1 22/24/1
f 103/21/1 104/22/1 27/23/1 25/24/1
f 104/21/1 105/22/1 29/23/1 27/24/1
f 105/21/1 106/22/1 30/23/1 29/24/1
f 106/21/1 107/22/1 108/23/1 30/24/1
f 109/21/1 110/22/1 33/23/1 111/24/1
f 110/21/1 112/22/1 34/23/1 33/24/1
f 112/21/1 113/22/1 37/23/1 34/24/1
f 113/21/1 114/22/1 38/23/1 37/24/1
f 114/21/1 115/22/1 41/23/1 38/24/1
f 115/21/1 116/22/1 43/23/1 41/24/1
f 116/21/1 117/22/1 44/23/1 43/24/1
f 117/21/1 118/22/1 119/23/1 44/24/1
f 120/21/1 121/22/1 47/23/1 122/24/1
f 121/21/1 123/22/1 48/23/1 47/24/1
f 123/21/1 124/22/1 51/23/1 48/24/1
f 124/21/1 125/22/1 52/23/1 51/24/1
f 125/21/1 126/22/1 55/23/1 52/24/1
f 126/21/1 127/22/1 57/23/1 55/24/1
f 127/21/1 128/22/1 58/23/1 57/24/1
f 128/21/1 129/22/1 130/23/1 58/24/1
f 131/21/1 132/22/1 61/23/1 133/24/1
f 132/21/1 134/22/1 62/23/1 61/24/1
f 134/21/1 135/22/1 65/23/1 62/24/1
f 135/21/1 136/22/1 66/23/1 65/24/1
f 136/21/1 137/22/1 69/23/1 66/24/1
f 137/21/1 138/22/1 70/23/1 69/24/1
f 138/21/1 139/22/1 140/23/1 70/24/1
f 139/25/1 141/26/1 142/27/1 140/28/1
f 141/25/1 143/26/1 144/27/1 142/28/1
f 143/25/1 145/26/1 146/27/1 144/28/1
f 145/25/1 147/26/1 148/27/1 146/28/1
f 147/21/1 149/22/1 73/23/1 148/24/1
f 149/21/1 150/22/1 74/23/1 73/24/1
f 150/21/1 151/22/1 77/23/1 74/24/1
f 151/21/1 152/22/1 78/23/1 77/24/1
f 152/21/1 153/22/1 81/23/1 78/24/1
f 153/21/1 154/22/1 82/23/1 81/24/1
f 154/21/1 155/22/1 85/23/1 82/24/1
f 155/21/1 156/22/1 87/23/1 85/24/1
f 156/21/1 157/22/1 158/23/1 87/24/1
f 159/1/1 160/2/1 161/3/1 162/4/1
f 163/13/1 164/14/1 165/15/1 166/16/1
f 164/9/1 167/10/1 168/11/1 165/12/1
f 169/1/1 170/2/1 171/3/1 172/4/1
f 173/29/1 174/30/1 175/31/1 176/32/1
f 174/33/1 177/34/1 178/35/1 175/36/1
f 179/21/1 180/22/1 159/23/1 181/24/1
f 180/21/1 182/22/1 160/23/1 159/24/1
f 182/21/1 183/22/1 163/23/1 160/24/1
f 183/21/1 184/22/1 164/23/1 163/24/1
f 184/21/1 185/22/1 167/23/1 164/24/1
f 185/21/1 186/22/1 169/23/1 167/24/1
f 186/37/1 187/38/1 170/39/1 169/40/1
f 188/41/1 189/42/1 190/43/1 191/44/1
f 192/45/1 193/46/1 194/47/1 195/48/1
f 196/49/1 197/50/1 198/51/1 199/52/1
f 197/53/1 200/54/1 201/55/1 198/56/1
f 202/57/1 203/58/1 174/59/1 173/60/1
f 203/61/1 204/62/1 177/63/1 174/64/1
f 205/1/1 206/2/1 179/3/1 207/4/1
f 206/1/1 208/2/1 180/3/1 179/4/1
f 208/1/1 209/2/1 182/3/1 180/4/1
f 209/1/1 210/2/1 183/3/1 182/4/1
f 210/1/1 211/2/1 184/3/1 183/4/1
f 211/1/1 212/2/1 185/3/1 184/4/1
f 212/1/1 213/2/1 186/3/1 185/4/1
f 213/1/1 214/2/1 187/3/1 186/4/1
f 214/1/1 215/2/1 216/3/1 187/4/1
f 215/1/1 217/2/1 218/3/1 216/4/1
f 219/5/1 220/6/1 221/7/1 222/8/1
f 223/1/1 224/2/1 225/3/1 226/4/1
f 227/9/1 228/10/1 229/11/1 230/12/1
f 228/9/1 231/10/1 232/11/1 229/12/1
f 233/65/1 234/66/1 189/67/1 188/68/1
f 235/1/1 236/2/1 237/3/1 238/4/1
f 236/1/1 239/2/1 240/3/1 237/4/1
f 239/1/1 241/2/1 242/3/1 240/4/1
f 243/5/1 244/6/1 245/7/1 246/8/1
f 244/5/1 247/6/1 248/7/1 245/8/1
f 247/5/1 249/6/1 250/7/1 248/8/1
f 249/5/1 251/6/1 252/7/1 250/8/1
f 251/5/1 253/6/1 254/7/1 252/8/1
f 255/1/1 256/2/1 257/3/1 258/4/1
f 256/1/1 259/2/1 260/3/1 257/4/1
f 259/1/1 261/2/1 262/3/1 260/4/1
f 261/1/1 263/2/1 264/3/1 262/4/1
f 263/1/1 265/2/1 266/3/1 264/4/1
f 267/17/1 268/18/1 269/19/1 270/20/1
f 268/17/1 271/18/1 272/19/1 269/20/1
f 271/17/1 273/18/1 274/19/1 272/20/1
f 273/17/1 275/18/1 276/19/1 274/20/1
f 277/1/1 278/2/1 279/3/1 280/4/1
f 281/69/1 282/70/1 193/71/1 192/72/1
f 283/1/1 284/2/1 285/3/1 286/4/1
f 284/1/1 287/2/1 288/3/1 285/4/1
f 289/1/1 290/2/1 291/3/1 292/4/1
f 293/9/1 294/10/1 295/11/1 296/12/1
f 297/1/1 298/2/1 299/3/1 300/4/1
f 301/5/1 302/6/1 303/7/1 304/8/1
f 305/1/1 306/2/1 307/3/1 308/4/1
f 309/17/1 310/18/1 311/19/1 312/20/1
f 313/1/1 314/2/1 315/3/1 316/4/1
f 314/1/1 317/2/1 196/3/1 315/4/1
f 317/73/1 318/74/1 197/75/1 196/76/1
f 318/77/1 319/78/1 200/79/1 197/80/1
f 319/81/1 320/82/1 321/83/1 200/84/1
f 322/21/1 323/22/1 203/23/1 202/24/1
f 323/21/1 324/22/1 204/23/1 203/24/1
f 324/21/1 325/22/1 326/23/1 204/24/1
f 325/21/1 327/22/1 205/23/1 326/24/1
f 327/21/1 328/22/1 206/23/1 205/24/1
f 328/21/1 329/22/1 208/23/1 206/24/1
f 329/21/1 330/22/1 209/23/1 208/24/1
f 330/21/1 331/22/1 210/23/1 209/24/1
f 331/21/1 332/22/1 211/23/1 210/24/1
f 332/21/1 333/22/1 212/23/1 211/24/1
f 333/21/1 334/22/1 213/23/1 212/24/1
f 334/21/1 335/22/1 214/23/1 213/24/1
f 335/21/1 336/22/1 215/23/1 214/24/1
f 336/21/1 337/22/1 217/23/1 215/24/1
f 337/21/1 338/22/1 219/23/1 217/24/1
f 338/21/1 339/22/1 220/23/1 219/24/1
f 339/21/1 340/22/1 223/23/1 220/24/1
f 340/21/1 341/22/1 224/23/1 223/24/1
f 341/21/1 342/22/1 227/23/1 224/24/1
f 342/21/1 343/22/1 228/23/1 227/24/1
f 343/21/1 344/22/1 231/23/1 228/24/1
f 344/21/1 345/22/1 233/23/1 231/24/1
f 345/21/1 346/22/1 234/23/1 233/24/1
f 346/21/1 347/22/1 235/23/1 234/24/1
f 347/21/1 348/22/1 236/23/1 235/24/1
f 348/21/1 349/22/1 239/23/1 236/24/1
f 349/21/1 350/22/1 241/23/1 239/24/1
f 350/21/1 351/22/1 243/23/1 241/24/1
f 351/21/1 352/22/1 244/23/1 243/24/1
f 352/21/1 353/22/1 247/23/1 244/24/1
f 353/21/1 354/22/1 249/23/1 247/24/1
f 354/21/1 355/22/1 251/23/1 249/24/1
f 355/21/1 356/22/1 253/23/1 251/24/1
f 356/21/1 357/22/1 255/23/1 253/24/1
f 357/21/1 358/22/1 256/23/1 255/24/1
f 358/21/1 359/22/1 259/23/1 256/24/1
f 359/21/1 360/22/1 261/23/1 259/24/1
f 360/21/1 361/22/1 263/23/1 261/24/1
f 361/21/1 362/22/1 265/23/1 263/24/1
f 362/21/1 363/22/1 267/23/1 265/24/1
f 363/21/1 364/22/1 268/23/1 267/24/1
f 364/21/1 365/22/1 271/23/1 268/24/1
f 365/21/1 366/22/1 273/23/1 271/24/1
f 366/21/1 367/22/1 275/23/1 273/24/1
f 367/21/1 368/22/1 277/23/1 275/24/1
f 368/21/1 369/22/1 278/23/1 277/24/1
f 369/21/1 370/22/1 281/23/1 278/24/1
f 370/21/1 371/22/1 282/23/1 281/24/1
f 371/21/1 372/22/1 373/23/1 282/24/1
f 372/25/1 374/26/1 375/27/1 373/28/1
f 374/25/1 376/26/1 377/27/1 375/28/1
f 376/25/1 378/26/1 283/27/1 377/28/1
f 378/21/1 379/22/1 284/23/1 283/24/1
f 379/21/1 380/22/1 287/23/1 284/24/1
f 380/25/1 381/26/1 382/27/1 287/28/1
f 381/25/1 383/26/1 384/27/1 382/28/1
f 383/25/1 385/26/1 386/27/1 384/28/1
f 385/21/1 387/22/1 289/23/1 386/24/1
f 387/21/1 388/22/1 290/23/1 289/24/1
f 388/21/1 389/22/1 293/23/1 290/24/1
f 389/21/1 390/22/1 294/23/1 293/24/1
f 390/21/1 391/22/1 297/23/1 294/24/1
f 391/21/1 392/22/1 298/23/1 297/24/1
f 392/21/1 393/22/1 301/23/1 298/24/1
f 393/21/1 394/22/1 302/23/1 301/24/1
f 394/21/1 395/22/1 305/23/1 302/24/1
f 395/21/1 396/22/1 306/23/1 305/24/1
f 396/21/1 397/22/1 309/23/1 306/24/1
f 397/21/1 398/22/1 310/23/1 309/24/1
f 398/21/1 399/22/1 313/23/1 310/24/1
f 399/21/1 400/22/1 314/23/1 313/24/1
f 400/21/1 401/22/1 317/23/1 314/24/1
f 401/21/1 402/22/1 318/23/1 317/24/1
f 402/21/1 403/22/1 319/23/1 318/24/1
f 403/21/1 404/22/1 320/23/1 319/24/1

