# Wavefront OBJ file automatically generated by Tiled2Unity

# Vertices (Count = 219)
v -1680 -240 0
v -1760 -240 0
v -1760 -160 0
v -1680 -160 0
v -5840 -240 0
v -5920 -240 0
v -5920 -160 0
v -5840 -160 0
v -1680 -320 0
v -1760 -320 0
v -1920 -320 0
v -2000 -320 0
v -2000 -240 0
v -1920 -240 0
v -2080 -320 0
v -2080 -240 0
v -2160 -320 0
v -2160 -240 0
v -2240 -320 0
v -2240 -240 0
v -2400 -320 0
v -2480 -320 0
v -2480 -240 0
v -2400 -240 0
v -2560 -320 0
v -2560 -240 0
v -2800 -320 0
v -2880 -320 0
v -2880 -240 0
v -2800 -240 0
v -2960 -320 0
v -2960 -240 0
v -3040 -320 0
v -3040 -240 0
v -3120 -320 0
v -3120 -240 0
v -3200 -320 0
v -3200 -240 0
v -3280 -320 0
v -3280 -240 0
v -3600 -320 0
v -3680 -320 0
v -3680 -240 0
v -3600 -240 0
v -3760 -320 0
v -3760 -240 0
v -4000 -320 0
v -4080 -320 0
v -4080 -240 0
v -4000 -240 0
v -4160 -320 0
v -4160 -240 0
v -4240 -320 0
v -4240 -240 0
v -4320 -320 0
v -4320 -240 0
v -4400 -320 0
v -4400 -240 0
v -4480 -320 0
v -4480 -240 0
v -4800 -320 0
v -4880 -320 0
v -4880 -240 0
v -4800 -240 0
v -4960 -320 0
v -4960 -240 0
v -5200 -320 0
v -5280 -320 0
v -5280 -240 0
v -5200 -240 0
v -5360 -320 0
v -5360 -240 0
v -5440 -320 0
v -5440 -240 0
v -5520 -320 0
v -5520 -240 0
v -5600 -320 0
v -5600 -240 0
v -5680 -320 0
v -5680 -240 0
v -5840 -320 0
v -5920 -320 0
v -1440 -400 0
v -1520 -400 0
v -1520 -320 0
v -1440 -320 0
v -1600 -400 0
v -1600 -320 0
v -1680 -400 0
v -1760 -400 0
v -1840 -400 0
v -1840 -320 0
v -1920 -400 0
v -2000 -400 0
v -2080 -400 0
v -2160 -400 0
v -2240 -400 0
v -2320 -400 0
v -2320 -320 0
v -2400 -400 0
v -2480 -400 0
v -2560 -400 0
v -2640 -400 0
v -2640 -320 0
v -2720 -400 0
v -2720 -320 0
v -2800 -400 0
v -2880 -400 0
v -2960 -400 0
v -3040 -400 0
v -3120 -400 0
v -3200 -400 0
v -3280 -400 0
v -3360 -400 0
v -3360 -320 0
v -3440 -400 0
v -3440 -320 0
v -3520 -400 0
v -3520 -320 0
v -3600 -400 0
v -3680 -400 0
v -3760 -400 0
v -3840 -400 0
v -3840 -320 0
v -3920 -400 0
v -3920 -320 0
v -4000 -400 0
v -4080 -400 0
v -4160 -400 0
v -4240 -400 0
v -4320 -400 0
v -4400 -400 0
v -4480 -400 0
v -4560 -400 0
v -4560 -320 0
v -4640 -400 0
v -4640 -320 0
v -4720 -400 0
v -4720 -320 0
v -4800 -400 0
v -4880 -400 0
v -4960 -400 0
v -5040 -400 0
v -5040 -320 0
v -5120 -400 0
v -5120 -320 0
v -5200 -400 0
v -5280 -400 0
v -5360 -400 0
v -5440 -400 0
v -5520 -400 0
v -5600 -400 0
v -5680 -400 0
v -5760 -400 0
v -5760 -320 0
v -5840 -400 0
v -5920 -400 0
v -6000 -400 0
v -6000 -320 0
v -1120 -480 0
v -1200 -480 0
v -1200 -400 0
v -1120 -400 0
v -1280 -480 0
v -1280 -400 0
v -1360 -480 0
v -1440 -480 0
v -1360 -400 0
v -1520 -480 0
v -1600 -480 0
v -1680 -480 0
v -80 -560 0
v -160 -560 0
v -160 -480 0
v -80 -480 0
v -240 -560 0
v -240 -480 0
v -800 -560 0
v -880 -560 0
v -880 -480 0
v -800 -480 0
v -960 -560 0
v -960 -480 0
v -1040 -560 0
v -1120 -560 0
v -1040 -480 0
v -1200 -560 0
v -1280 -560 0
v -1360 -560 0
v 0 -640 0
v -80 -640 0
v 0 -560 0
v -160 -640 0
v -240 -640 0
v -320 -640 0
v -400 -640 0
v -400 -560 0
v -320 -560 0
v -480 -640 0
v -480 -560 0
v -560 -640 0
v -560 -560 0
v -720 -640 0
v -800 -640 0
v -720 -560 0
v -880 -640 0
v -960 -640 0
v -1040 -640 0
v 0 -720 0
v -80 -720 0
v -160 -720 0
v -240 -720 0
v -320 -720 0
v -400 -720 0
v -480 -720 0
v -560 -720 0
v -640 -720 0
v -640 -640 0
v -720 -720 0

# Texture cooridinates (Count = 56)
vt 0.6251221 0.2501221
vt 0.7498779 0.2501221
vt 0.7498779 0.4998779
vt 0.6251221 0.4998779
vt 0.5001221 0.2501221
vt 0.6248779 0.2501221
vt 0.6248779 0.4998779
vt 0.5001221 0.4998779
vt 0.6251221 0.0001220703
vt 0.7498779 0.0001220703
vt 0.7498779 0.2498779
vt 0.6251221 0.2498779
vt 0.2501221 0.7501221
vt 0.3748779 0.7501221
vt 0.3748779 0.9998779
vt 0.2501221 0.9998779
vt 0.3751221 0.7501221
vt 0.4998779 0.7501221
vt 0.4998779 0.9998779
vt 0.3751221 0.9998779
vt 0.5001221 0.7501221
vt 0.6248779 0.7501221
vt 0.6248779 0.9998779
vt 0.5001221 0.9998779
vt 0.6251221 0.7501221
vt 0.7498779 0.7501221
vt 0.7498779 0.9998779
vt 0.6251221 0.9998779
vt 0.5001221 0.0001220703
vt 0.6248779 0.0001220703
vt 0.6248779 0.2498779
vt 0.5001221 0.2498779
vt 0.1251221 0.7501221
vt 0.2498779 0.7501221
vt 0.2498779 0.9998779
vt 0.1251221 0.9998779
vt 0.2501221 0.2501221
vt 0.3748779 0.2501221
vt 0.3748779 0.4998779
vt 0.2501221 0.4998779
vt 0.3751221 0.2501221
vt 0.4998779 0.2501221
vt 0.4998779 0.4998779
vt 0.3751221 0.4998779
vt 0.0001220703 0.7501221
vt 0.1248779 0.7501221
vt 0.1248779 0.9998779
vt 0.0001220703 0.9998779
vt 0.2501221 0.0001220703
vt 0.3748779 0.0001220703
vt 0.3748779 0.2498779
vt 0.2501221 0.2498779
vt 0.3751221 0.0001220703
vt 0.4998779 0.0001220703
vt 0.4998779 0.2498779
vt 0.3751221 0.2498779

# Normal
vn 0 0 -1

# Groups (Count = 1)

g mesh_0001
f 1/1/1 2/2/1 3/3/1 4/4/1
f 5/5/1 6/6/1 7/7/1 8/8/1
f 9/9/1 10/10/1 2/11/1 1/12/1
f 11/13/1 12/14/1 13/15/1 14/16/1
f 12/13/1 15/14/1 16/15/1 13/16/1
f 15/13/1 17/14/1 18/15/1 16/16/1
f 17/13/1 19/14/1 20/15/1 18/16/1
f 21/17/1 22/18/1 23/19/1 24/20/1
f 22/17/1 25/18/1 26/19/1 23/20/1
f 27/13/1 28/14/1 29/15/1 30/16/1
f 28/13/1 31/14/1 32/15/1 29/16/1
f 31/13/1 33/14/1 34/15/1 32/16/1
f 33/13/1 35/14/1 36/15/1 34/16/1
f 35/13/1 37/14/1 38/15/1 36/16/1
f 37/13/1 39/14/1 40/15/1 38/16/1
f 41/21/1 42/22/1 43/23/1 44/24/1
f 42/21/1 45/22/1 46/23/1 43/24/1
f 47/13/1 48/14/1 49/15/1 50/16/1
f 48/13/1 51/14/1 52/15/1 49/16/1
f 51/13/1 53/14/1 54/15/1 52/16/1
f 53/13/1 55/14/1 56/15/1 54/16/1
f 55/13/1 57/14/1 58/15/1 56/16/1
f 57/13/1 59/14/1 60/15/1 58/16/1
f 61/25/1 62/26/1 63/27/1 64/28/1
f 62/25/1 65/26/1 66/27/1 63/28/1
f 67/13/1 68/14/1 69/15/1 70/16/1
f 68/13/1 71/14/1 72/15/1 69/16/1
f 71/13/1 73/14/1 74/15/1 72/16/1
f 73/13/1 75/14/1 76/15/1 74/16/1
f 75/13/1 77/14/1 78/15/1 76/16/1
f 77/13/1 79/14/1 80/15/1 78/16/1
f 81/29/1 82/30/1 6/31/1 5/32/1
f 83/13/1 84/14/1 85/15/1 86/16/1
f 84/13/1 87/14/1 88/15/1 85/16/1
f 89/33/1 90/34/1 10/35/1 9/36/1
f 90/33/1 91/34/1 92/35/1 10/36/1
f 91/33/1 93/34/1 11/35/1 92/36/1
f 93/33/1 94/34/1 12/35/1 11/36/1
f 94/33/1 95/34/1 15/35/1 12/36/1
f 95/33/1 96/34/1 17/35/1 15/36/1
f 96/33/1 97/34/1 19/35/1 17/36/1
f 97/33/1 98/34/1 99/35/1 19/36/1
f 98/33/1 100/34/1 21/35/1 99/36/1
f 100/33/1 101/34/1 22/35/1 21/36/1
f 101/33/1 102/34/1 25/35/1 22/36/1
f 102/33/1 103/34/1 104/35/1 25/36/1
f 103/33/1 105/34/1 106/35/1 104/36/1
f 105/33/1 107/34/1 27/35/1 106/36/1
f 107/33/1 108/34/1 28/35/1 27/36/1
f 108/33/1 109/34/1 31/35/1 28/36/1
f 109/33/1 110/34/1 33/35/1 31/36/1
f 110/33/1 111/34/1 35/35/1 33/36/1
f 111/33/1 112/34/1 37/35/1 35/36/1
f 112/33/1 113/34/1 39/35/1 37/36/1
f 113/33/1 114/34/1 115/35/1 39/36/1
f 114/33/1 116/34/1 117/35/1 115/36/1
f 116/33/1 118/34/1 119/35/1 117/36/1
f 118/33/1 120/34/1 41/35/1 119/36/1
f 120/33/1 121/34/1 42/35/1 41/36/1
f 121/33/1 122/34/1 45/35/1 42/36/1
f 122/33/1 123/34/1 124/35/1 45/36/1
f 123/33/1 125/34/1 126/35/1 124/36/1
f 125/33/1 127/34/1 47/35/1 126/36/1
f 127/33/1 128/34/1 48/35/1 47/36/1
f 128/33/1 129/34/1 51/35/1 48/36/1
f 129/33/1 130/34/1 53/35/1 51/36/1
f 130/33/1 131/34/1 55/35/1 53/36/1
f 131/33/1 132/34/1 57/35/1 55/36/1
f 132/33/1 133/34/1 59/35/1 57/36/1
f 133/33/1 134/34/1 135/35/1 59/36/1
f 134/33/1 136/34/1 137/35/1 135/36/1
f 136/33/1 138/34/1 139/35/1 137/36/1
f 138/33/1 140/34/1 61/35/1 139/36/1
f 140/33/1 141/34/1 62/35/1 61/36/1
f 141/33/1 142/34/1 65/35/1 62/36/1
f 142/33/1 143/34/1 144/35/1 65/36/1
f 143/33/1 145/34/1 146/35/1 144/36/1
f 145/33/1 147/34/1 67/35/1 146/36/1
f 147/33/1 148/34/1 68/35/1 67/36/1
f 148/33/1 149/34/1 71/35/1 68/36/1
f 149/33/1 150/34/1 73/35/1 71/36/1
f 150/33/1 151/34/1 75/35/1 73/36/1
f 151/33/1 152/34/1 77/35/1 75/36/1
f 152/33/1 153/34/1 79/35/1 77/36/1
f 153/33/1 154/34/1 155/35/1 79/36/1
f 154/33/1 156/34/1 81/35/1 155/36/1
f 156/33/1 157/34/1 82/35/1 81/36/1
f 157/33/1 158/34/1 159/35/1 82/36/1
f 160/13/1 161/14/1 162/15/1 163/16/1
f 161/13/1 164/14/1 165/15/1 162/16/1
f 166/33/1 167/34/1 83/35/1 168/36/1
f 167/33/1 169/34/1 84/35/1 83/36/1
f 169/33/1 170/34/1 87/35/1 84/36/1
f 170/33/1 171/34/1 89/35/1 87/36/1
f 172/37/1 173/38/1 174/39/1 175/40/1
f 173/41/1 176/42/1 177/43/1 174/44/1
f 178/13/1 179/14/1 180/15/1 181/16/1
f 179/13/1 182/14/1 183/15/1 180/16/1
f 184/33/1 185/34/1 160/35/1 186/36/1
f 185/33/1 187/34/1 161/35/1 160/36/1
f 187/33/1 188/34/1 164/35/1 161/36/1
f 188/33/1 189/34/1 166/35/1 164/36/1
f 190/45/1 191/46/1 172/47/1 192/48/1
f 191/49/1 193/50/1 173/51/1 172/52/1
f 193/53/1 194/54/1 176/55/1 173/56/1
f 195/13/1 196/14/1 197/15/1 198/16/1
f 196/13/1 199/14/1 200/15/1 197/16/1
f 199/13/1 201/14/1 202/15/1 200/16/1
f 203/33/1 204/34/1 178/35/1 205/36/1
f 204/33/1 206/34/1 179/35/1 178/36/1
f 206/33/1 207/34/1 182/35/1 179/36/1
f 207/33/1 208/34/1 184/35/1 182/36/1
f 209/33/1 210/34/1 191/35/1 190/36/1
f 210/33/1 211/34/1 193/35/1 191/36/1
f 211/33/1 212/34/1 194/35/1 193/36/1
f 212/33/1 213/34/1 195/35/1 194/36/1
f 213/33/1 214/34/1 196/35/1 195/36/1
f 214/33/1 215/34/1 199/35/1 196/36/1
f 215/33/1 216/34/1 201/35/1 199/36/1
f 216/33/1 217/34/1 218/35/1 201/36/1
f 217/33/1 219/34/1 203/35/1 218/36/1

