# Wavefront OBJ file automatically generated by Tiled2Unity

# Vertices (Count = 474)
v -4560 -240 0
v -4640 -240 0
v -4640 -160 0
v -4560 -160 0
v -4720 -240 0
v -4720 -160 0
v -4400 -320 0
v -4480 -320 0
v -4480 -240 0
v -4400 -240 0
v -4560 -320 0
v -4640 -320 0
v -4720 -320 0
v -4800 -320 0
v -4800 -240 0
v -4080 -400 0
v -4160 -400 0
v -4160 -320 0
v -4080 -320 0
v -4240 -400 0
v -4320 -400 0
v -4320 -320 0
v -4240 -320 0
v -4400 -400 0
v -4480 -400 0
v -4560 -400 0
v -4640 -400 0
v -4720 -400 0
v -4800 -400 0
v -3840 -480 0
v -3920 -480 0
v -3920 -400 0
v -3840 -400 0
v -4000 -480 0
v -4000 -400 0
v -4080 -480 0
v -4160 -480 0
v -4240 -480 0
v -4320 -480 0
v -4400 -480 0
v -3760 -560 0
v -3840 -560 0
v -3760 -480 0
v -3920 -560 0
v -4000 -560 0
v -4080 -560 0
v -560 -640 0
v -640 -640 0
v -640 -560 0
v -560 -560 0
v -720 -640 0
v -800 -640 0
v -800 -560 0
v -720 -560 0
v -880 -640 0
v -880 -560 0
v -960 -640 0
v -960 -560 0
v -1040 -640 0
v -1120 -640 0
v -1120 -560 0
v -1040 -560 0
v -1200 -640 0
v -1280 -640 0
v -1280 -560 0
v -1200 -560 0
v -1360 -640 0
v -1440 -640 0
v -1440 -560 0
v -1360 -560 0
v -1520 -640 0
v -1520 -560 0
v -1600 -640 0
v -1680 -640 0
v -1680 -560 0
v -1600 -560 0
v -1760 -640 0
v -1840 -640 0
v -1840 -560 0
v -1760 -560 0
v -2080 -640 0
v -2160 -640 0
v -2160 -560 0
v -2080 -560 0
v -2400 -640 0
v -2480 -640 0
v -2480 -560 0
v -2400 -560 0
v -2560 -640 0
v -2560 -560 0
v -2800 -640 0
v -2880 -640 0
v -2880 -560 0
v -2800 -560 0
v -3200 -640 0
v -3280 -640 0
v -3280 -560 0
v -3200 -560 0
v -3360 -640 0
v -3360 -560 0
v -3440 -640 0
v -3520 -640 0
v -3520 -560 0
v -3440 -560 0
v -3600 -640 0
v -3600 -560 0
v -3680 -640 0
v -3680 -560 0
v -3760 -640 0
v -480 -720 0
v -560 -720 0
v -480 -640 0
v -640 -720 0
v -720 -720 0
v -800 -720 0
v -880 -720 0
v -960 -720 0
v -1040 -720 0
v -1120 -720 0
v -1200 -720 0
v -1280 -720 0
v -1360 -720 0
v -1440 -720 0
v -1520 -720 0
v -1600 -720 0
v -1680 -720 0
v -1760 -720 0
v -1840 -720 0
v -1920 -720 0
v -1920 -640 0
v -2080 -720 0
v -2160 -720 0
v -2400 -720 0
v -2480 -720 0
v -2560 -720 0
v -2800 -720 0
v -2880 -720 0
v -3120 -720 0
v -3200 -720 0
v -3120 -640 0
v -3280 -720 0
v -3360 -720 0
v -3440 -720 0
v 0 -960 0
v -80 -960 0
v -80 -880 0
v 0 -880 0
v -160 -960 0
v -160 -880 0
v 0 -1040 0
v -80 -1040 0
v -160 -1040 0
v -240 -1040 0
v -320 -1040 0
v -320 -960 0
v -240 -960 0
v -400 -1040 0
v -400 -960 0
v -480 -1040 0
v -480 -960 0
v -560 -1040 0
v -640 -1040 0
v -640 -960 0
v -560 -960 0
v -720 -1040 0
v -800 -1040 0
v -800 -960 0
v -720 -960 0
v -880 -1040 0
v -960 -1040 0
v -960 -960 0
v -880 -960 0
v -1040 -1040 0
v -1040 -960 0
v -1120 -1040 0
v -1200 -1040 0
v -1200 -960 0
v -1120 -960 0
v 0 -1120 0
v -80 -1120 0
v -160 -1120 0
v -240 -1120 0
v -320 -1120 0
v -400 -1120 0
v -480 -1120 0
v -560 -1120 0
v -640 -1120 0
v -720 -1120 0
v -800 -1120 0
v -880 -1120 0
v -960 -1120 0
v -1040 -1120 0
v -1120 -1120 0
v -1200 -1120 0
v -1280 -1120 0
v -1360 -1120 0
v -1360 -1040 0
v -1280 -1040 0
v -1440 -1120 0
v -1520 -1120 0
v -1520 -1040 0
v -1440 -1040 0
v -1200 -1200 0
v -1280 -1200 0
v -1360 -1200 0
v -1440 -1200 0
v -1520 -1200 0
v -1600 -1200 0
v -1680 -1200 0
v -1680 -1120 0
v -1600 -1120 0
v -1760 -1200 0
v -1840 -1200 0
v -1840 -1120 0
v -1760 -1120 0
v -1920 -1200 0
v -1920 -1120 0
v -1520 -1280 0
v -1600 -1280 0
v -1680 -1280 0
v -1760 -1280 0
v -1840 -1280 0
v -1920 -1280 0
v -2000 -1280 0
v -2080 -1280 0
v -2080 -1200 0
v -2000 -1200 0
v -2160 -1280 0
v -2160 -1200 0
v -1920 -1360 0
v -2000 -1360 0
v -2080 -1360 0
v -2160 -1360 0
v -2240 -1360 0
v -2240 -1280 0
v -2320 -1360 0
v -2320 -1280 0
v -2400 -1360 0
v -2400 -1280 0
v -2480 -1360 0
v -2480 -1280 0
v -2240 -1440 0
v -2320 -1440 0
v -2400 -1440 0
v -2480 -1440 0
v -2560 -1440 0
v -2560 -1360 0
v -2640 -1440 0
v -2720 -1440 0
v -2720 -1360 0
v -2640 -1360 0
v -2800 -1440 0
v -2800 -1360 0
v -2880 -1440 0
v -2960 -1440 0
v -2960 -1360 0
v -2880 -1360 0
v -3040 -1440 0
v -3120 -1440 0
v -3120 -1360 0
v -3040 -1360 0
v -3200 -1440 0
v -3280 -1440 0
v -3280 -1360 0
v -3200 -1360 0
v -3360 -1440 0
v -3440 -1440 0
v -3440 -1360 0
v -3360 -1360 0
v -3520 -1440 0
v -3520 -1360 0
v -3600 -1440 0
v -3680 -1440 0
v -3680 -1360 0
v -3600 -1360 0
v -3760 -1440 0
v -3760 -1360 0
v -3840 -1440 0
v -3920 -1440 0
v -3920 -1360 0
v -3840 -1360 0
v -4000 -1440 0
v -4080 -1440 0
v -4080 -1360 0
v -4000 -1360 0
v -4160 -1440 0
v -4160 -1360 0
v -2560 -1520 0
v -2640 -1520 0
v -2720 -1520 0
v -2800 -1520 0
v -2880 -1520 0
v -2960 -1520 0
v -3040 -1520 0
v -3120 -1520 0
v -3200 -1520 0
v -3280 -1520 0
v -3360 -1520 0
v -3440 -1520 0
v -3520 -1520 0
v -3600 -1520 0
v -3680 -1520 0
v -3760 -1520 0
v -3840 -1520 0
v -3920 -1520 0
v -4000 -1520 0
v -4080 -1520 0
v -4160 -1520 0
v -4240 -1520 0
v -4240 -1440 0
v -4640 -1760 0
v -4720 -1760 0
v -4720 -1680 0
v -4640 -1680 0
v -4800 -1760 0
v -4800 -1680 0
v -4160 -1840 0
v -4240 -1840 0
v -4240 -1760 0
v -4160 -1760 0
v -4320 -1840 0
v -4400 -1840 0
v -4400 -1760 0
v -4320 -1760 0
v -4480 -1840 0
v -4480 -1760 0
v -4560 -1840 0
v -4560 -1760 0
v -4640 -1840 0
v -4720 -1840 0
v -4800 -1840 0
v -3920 -1920 0
v -4000 -1920 0
v -4000 -1840 0
v -3920 -1840 0
v -4080 -1920 0
v -4080 -1840 0
v -4160 -1920 0
v -4240 -1920 0
v -4320 -1920 0
v -4400 -1920 0
v -4480 -1920 0
v -4560 -1920 0
v -4640 -1920 0
v -4720 -1920 0
v -4800 -1920 0
v -3840 -2000 0
v -3920 -2000 0
v -3840 -1920 0
v -4000 -2000 0
v -4080 -2000 0
v -4160 -2000 0
v -3280 -2080 0
v -3360 -2080 0
v -3360 -2000 0
v -3280 -2000 0
v -3440 -2080 0
v -3440 -2000 0
v -3520 -2080 0
v -3600 -2080 0
v -3600 -2000 0
v -3520 -2000 0
v -3680 -2080 0
v -3680 -2000 0
v -3760 -2080 0
v -3760 -2000 0
v -3840 -2080 0
v -2880 -2160 0
v -2960 -2160 0
v -2960 -2080 0
v -2880 -2080 0
v -3040 -2160 0
v -3040 -2080 0
v -3120 -2160 0
v -3120 -2080 0
v -3200 -2160 0
v -3200 -2080 0
v -3280 -2160 0
v -3360 -2160 0
v -3440 -2160 0
v -3520 -2160 0
v -2640 -2240 0
v -2720 -2240 0
v -2720 -2160 0
v -2640 -2160 0
v -2800 -2240 0
v -2800 -2160 0
v -2880 -2240 0
v -2960 -2240 0
v -3040 -2240 0
v -3120 -2240 0
v -3200 -2240 0
v -80 -2320 0
v -160 -2320 0
v -160 -2240 0
v -80 -2240 0
v -240 -2320 0
v -320 -2320 0
v -320 -2240 0
v -240 -2240 0
v -400 -2320 0
v -480 -2320 0
v -480 -2240 0
v -400 -2240 0
v -560 -2320 0
v -640 -2320 0
v -640 -2240 0
v -560 -2240 0
v -720 -2320 0
v -720 -2240 0
v -800 -2320 0
v -880 -2320 0
v -880 -2240 0
v -800 -2240 0
v -960 -2320 0
v -1040 -2320 0
v -1040 -2240 0
v -960 -2240 0
v -1360 -2320 0
v -1440 -2320 0
v -1440 -2240 0
v -1360 -2240 0
v -1520 -2320 0
v -1520 -2240 0
v -1760 -2320 0
v -1840 -2320 0
v -1840 -2240 0
v -1760 -2240 0
v -2160 -2320 0
v -2240 -2320 0
v -2240 -2240 0
v -2160 -2240 0
v -2320 -2320 0
v -2400 -2320 0
v -2400 -2240 0
v -2320 -2240 0
v -2480 -2320 0
v -2480 -2240 0
v -2560 -2320 0
v -2560 -2240 0
v -2640 -2320 0
v -2720 -2320 0
v -2800 -2320 0
v -2880 -2320 0
v 0 -2400 0
v -80 -2400 0
v 0 -2320 0
v -160 -2400 0
v -240 -2400 0
v -320 -2400 0
v -400 -2400 0
v -480 -2400 0
v -560 -2400 0
v -640 -2400 0
v -720 -2400 0
v -800 -2400 0
v -880 -2400 0
v -960 -2400 0
v -1040 -2400 0
v -1120 -2400 0
v -1120 -2320 0
v -1360 -2400 0
v -1440 -2400 0
v -1520 -2400 0
v -1760 -2400 0
v -1840 -2400 0
v -2080 -2400 0
v -2160 -2400 0
v -2080 -2320 0
v -2240 -2400 0
v -2320 -2400 0
v -2400 -2400 0
v -2480 -2400 0
v -2560 -2400 0

# Texture cooridinates (Count = 64)
vt 0.0001220703 0.2501221
vt 0.1248779 0.2501221
vt 0.1248779 0.4998779
vt 0.0001220703 0.4998779
vt 0.1251221 0.2501221
vt 0.2498779 0.2501221
vt 0.2498779 0.4998779
vt 0.1251221 0.4998779
vt 0.2501221 0.7501221
vt 0.3748779 0.7501221
vt 0.3748779 0.9998779
vt 0.2501221 0.9998779
vt 0.0001220703 0.0001220703
vt 0.1248779 0.0001220703
vt 0.1248779 0.2498779
vt 0.0001220703 0.2498779
vt 0.1251221 0.0001220703
vt 0.2498779 0.0001220703
vt 0.2498779 0.2498779
vt 0.1251221 0.2498779
vt 0.0001220703 0.7501221
vt 0.1248779 0.7501221
vt 0.1248779 0.9998779
vt 0.0001220703 0.9998779
vt 0.6251221 0.7501221
vt 0.7498779 0.7501221
vt 0.7498779 0.9998779
vt 0.6251221 0.9998779
vt 0.1251221 0.7501221
vt 0.2498779 0.7501221
vt 0.2498779 0.9998779
vt 0.1251221 0.9998779
vt 0.3751221 0.7501221
vt 0.4998779 0.7501221
vt 0.4998779 0.9998779
vt 0.3751221 0.9998779
vt 0.5001221 0.7501221
vt 0.6248779 0.7501221
vt 0.6248779 0.9998779
vt 0.5001221 0.9998779
vt 0.7501221 0.7501221
vt 0.8748779 0.7501221
vt 0.8748779 0.9998779
vt 0.7501221 0.9998779
vt 0.2501221 0.5001221
vt 0.3748779 0.5001221
vt 0.3748779 0.7498779
vt 0.2501221 0.7498779
vt 0.2501221 0.2501221
vt 0.3748779 0.2501221
vt 0.3748779 0.4998779
vt 0.2501221 0.4998779
vt 0.3751221 0.2501221
vt 0.4998779 0.2501221
vt 0.4998779 0.4998779
vt 0.3751221 0.4998779
vt 0.2501221 0.0001220703
vt 0.3748779 0.0001220703
vt 0.3748779 0.2498779
vt 0.2501221 0.2498779
vt 0.3751221 0.0001220703
vt 0.4998779 0.0001220703
vt 0.4998779 0.2498779
vt 0.3751221 0.2498779

# Normal
vn 0 0 -1

# Groups (Count = 1)

g mesh_0001
f 1/1/1 2/2/1 3/3/1 4/4/1
f 2/5/1 5/6/1 6/7/1 3/8/1
f 7/9/1 8/10/1 9/11/1 10/12/1
f 11/13/1 12/14/1 2/15/1 1/16/1
f 12/17/1 13/18/1 5/19/1 2/20/1
f 13/21/1 14/22/1 15/23/1 5/24/1
f 16/25/1 17/26/1 18/27/1 19/28/1
f 20/9/1 21/10/1 22/11/1 23/12/1
f 24/29/1 25/30/1 8/31/1 7/32/1
f 25/29/1 26/30/1 11/31/1 8/32/1
f 26/29/1 27/30/1 12/31/1 11/32/1
f 27/29/1 28/30/1 13/31/1 12/32/1
f 28/29/1 29/30/1 14/31/1 13/32/1
f 30/9/1 31/10/1 32/11/1 33/12/1
f 31/9/1 34/10/1 35/11/1 32/12/1
f 36/29/1 37/30/1 17/31/1 16/32/1
f 37/29/1 38/30/1 20/31/1 17/32/1
f 38/29/1 39/30/1 21/31/1 20/32/1
f 39/29/1 40/30/1 24/31/1 21/32/1
f 41/29/1 42/30/1 30/31/1 43/32/1
f 42/29/1 44/30/1 31/31/1 30/32/1
f 44/29/1 45/30/1 34/31/1 31/32/1
f 45/29/1 46/30/1 36/31/1 34/32/1
f 47/9/1 48/10/1 49/11/1 50/12/1
f 51/33/1 52/34/1 53/35/1 54/36/1
f 52/25/1 55/26/1 56/27/1 53/28/1
f 55/33/1 57/34/1 58/35/1 56/36/1
f 59/9/1 60/10/1 61/11/1 62/12/1
f 63/37/1 64/38/1 65/39/1 66/40/1
f 67/9/1 68/10/1 69/11/1 70/12/1
f 68/9/1 71/10/1 72/11/1 69/12/1
f 73/41/1 74/42/1 75/43/1 76/44/1
f 77/9/1 78/10/1 79/11/1 80/12/1
f 81/9/1 82/10/1 83/11/1 84/12/1
f 85/9/1 86/10/1 87/11/1 88/12/1
f 86/9/1 89/10/1 90/11/1 87/12/1
f 91/9/1 92/10/1 93/11/1 94/12/1
f 95/9/1 96/10/1 97/11/1 98/12/1
f 96/9/1 99/10/1 100/11/1 97/12/1
f 101/45/1 102/46/1 103/47/1 104/48/1
f 102/45/1 105/46/1 106/47/1 103/48/1
f 105/45/1 107/46/1 108/47/1 106/48/1
f 107/45/1 109/46/1 41/47/1 108/48/1
f 110/29/1 111/30/1 47/31/1 112/32/1
f 111/29/1 113/30/1 48/31/1 47/32/1
f 113/29/1 114/30/1 51/31/1 48/32/1
f 114/29/1 115/30/1 52/31/1 51/32/1
f 115/29/1 116/30/1 55/31/1 52/32/1
f 116/29/1 117/30/1 57/31/1 55/32/1
f 117/29/1 118/30/1 59/31/1 57/32/1
f 118/29/1 119/30/1 60/31/1 59/32/1
f 119/29/1 120/30/1 63/31/1 60/32/1
f 120/29/1 121/30/1 64/31/1 63/32/1
f 121/29/1 122/30/1 67/31/1 64/32/1
f 122/29/1 123/30/1 68/31/1 67/32/1
f 123/29/1 124/30/1 71/31/1 68/32/1
f 124/29/1 125/30/1 73/31/1 71/32/1
f 125/29/1 126/30/1 74/31/1 73/32/1
f 126/29/1 127/30/1 77/31/1 74/32/1
f 127/29/1 128/30/1 78/31/1 77/32/1
f 128/29/1 129/30/1 130/31/1 78/32/1
f 131/29/1 132/30/1 82/31/1 81/32/1
f 133/29/1 134/30/1 86/31/1 85/32/1
f 134/29/1 135/30/1 89/31/1 86/32/1
f 136/29/1 137/30/1 92/31/1 91/32/1
f 138/29/1 139/30/1 95/31/1 140/32/1
f 139/29/1 141/30/1 96/31/1 95/32/1
f 141/29/1 142/30/1 99/31/1 96/32/1
f 142/29/1 143/30/1 101/31/1 99/32/1
f 144/49/1 145/50/1 146/51/1 147/52/1
f 145/53/1 148/54/1 149/55/1 146/56/1
f 150/57/1 151/58/1 145/59/1 144/60/1
f 151/61/1 152/62/1 148/63/1 145/64/1
f 153/9/1 154/10/1 155/11/1 156/12/1
f 154/9/1 157/10/1 158/11/1 155/12/1
f 157/9/1 159/10/1 160/11/1 158/12/1
f 161/33/1 162/34/1 163/35/1 164/36/1
f 165/9/1 166/10/1 167/11/1 168/12/1
f 169/37/1 170/38/1 171/39/1 172/40/1
f 170/37/1 173/38/1 174/39/1 171/40/1
f 175/9/1 176/10/1 177/11/1 178/12/1
f 179/29/1 180/30/1 151/31/1 150/32/1
f 180/29/1 181/30/1 152/31/1 151/32/1
f 181/29/1 182/30/1 153/31/1 152/32/1
f 182/29/1 183/30/1 154/31/1 153/32/1
f 183/29/1 184/30/1 157/31/1 154/32/1
f 184/29/1 185/30/1 159/31/1 157/32/1
f 185/29/1 186/30/1 161/31/1 159/32/1
f 186/29/1 187/30/1 162/31/1 161/32/1
f 187/29/1 188/30/1 165/31/1 162/32/1
f 188/29/1 189/30/1 166/31/1 165/32/1
f 189/29/1 190/30/1 169/31/1 166/32/1
f 190/29/1 191/30/1 170/31/1 169/32/1
f 191/29/1 192/30/1 173/31/1 170/32/1
f 192/29/1 193/30/1 175/31/1 173/32/1
f 193/29/1 194/30/1 176/31/1 175/32/1
f 195/9/1 196/10/1 197/11/1 198/12/1
f 199/33/1 200/34/1 201/35/1 202/36/1
f 203/29/1 204/30/1 195/31/1 194/32/1
f 204/29/1 205/30/1 196/31/1 195/32/1
f 205/29/1 206/30/1 199/31/1 196/32/1
f 206/29/1 207/30/1 200/31/1 199/32/1
f 208/9/1 209/10/1 210/11/1 211/12/1
f 212/25/1 213/26/1 214/27/1 215/28/1
f 213/25/1 216/26/1 217/27/1 214/28/1
f 218/29/1 219/30/1 208/31/1 207/32/1
f 219/29/1 220/30/1 209/31/1 208/32/1
f 220/29/1 221/30/1 212/31/1 209/32/1
f 221/29/1 222/30/1 213/31/1 212/32/1
f 222/29/1 223/30/1 216/31/1 213/32/1
f 224/9/1 225/10/1 226/11/1 227/12/1
f 225/9/1 228/10/1 229/11/1 226/12/1
f 230/29/1 231/30/1 224/31/1 223/32/1
f 231/29/1 232/30/1 225/31/1 224/32/1
f 232/29/1 233/30/1 228/31/1 225/32/1
f 233/29/1 234/30/1 235/31/1 228/32/1
f 234/33/1 236/34/1 237/35/1 235/36/1
f 236/41/1 238/42/1 239/43/1 237/44/1
f 238/37/1 240/38/1 241/39/1 239/40/1
f 242/29/1 243/30/1 236/31/1 234/32/1
f 243/29/1 244/30/1 238/31/1 236/32/1
f 244/29/1 245/30/1 240/31/1 238/32/1
f 245/29/1 246/30/1 247/31/1 240/32/1
f 248/9/1 249/10/1 250/11/1 251/12/1
f 249/9/1 252/10/1 253/11/1 250/12/1
f 254/25/1 255/26/1 256/27/1 257/28/1
f 258/9/1 259/10/1 260/11/1 261/12/1
f 262/37/1 263/38/1 264/39/1 265/40/1
f 266/9/1 267/10/1 268/11/1 269/12/1
f 267/9/1 270/10/1 271/11/1 268/12/1
f 272/25/1 273/26/1 274/27/1 275/28/1
f 273/25/1 276/26/1 277/27/1 274/28/1
f 278/9/1 279/10/1 280/11/1 281/12/1
f 282/37/1 283/38/1 284/39/1 285/40/1
f 283/37/1 286/38/1 287/39/1 284/40/1
f 288/29/1 289/30/1 248/31/1 246/32/1
f 289/29/1 290/30/1 249/31/1 248/32/1
f 290/29/1 291/30/1 252/31/1 249/32/1
f 291/29/1 292/30/1 254/31/1 252/32/1
f 292/29/1 293/30/1 255/31/1 254/32/1
f 293/29/1 294/30/1 258/31/1 255/32/1
f 294/29/1 295/30/1 259/31/1 258/32/1
f 295/29/1 296/30/1 262/31/1 259/32/1
f 296/29/1 297/30/1 263/31/1 262/32/1
f 297/29/1 298/30/1 266/31/1 263/32/1
f 298/29/1 299/30/1 267/31/1 266/32/1
f 299/29/1 300/30/1 270/31/1 267/32/1
f 300/29/1 301/30/1 272/31/1 270/32/1
f 301/29/1 302/30/1 273/31/1 272/32/1
f 302/29/1 303/30/1 276/31/1 273/32/1
f 303/29/1 304/30/1 278/31/1 276/32/1
f 304/29/1 305/30/1 279/31/1 278/32/1
f 305/29/1 306/30/1 282/31/1 279/32/1
f 306/29/1 307/30/1 283/31/1 282/32/1
f 307/29/1 308/30/1 286/31/1 283/32/1
f 308/29/1 309/30/1 310/31/1 286/32/1
f 311/1/1 312/2/1 313/3/1 314/4/1
f 312/5/1 315/6/1 316/7/1 313/8/1
f 317/25/1 318/26/1 319/27/1 320/28/1
f 321/9/1 322/10/1 323/11/1 324/12/1
f 322/9/1 325/10/1 326/11/1 323/12/1
f 325/9/1 327/10/1 328/11/1 326/12/1
f 329/13/1 330/14/1 312/15/1 311/16/1
f 330/17/1 331/18/1 315/19/1 312/20/1
f 332/9/1 333/10/1 334/11/1 335/12/1
f 333/9/1 336/10/1 337/11/1 334/12/1
f 338/29/1 339/30/1 318/31/1 317/32/1
f 339/29/1 340/30/1 321/31/1 318/32/1
f 340/29/1 341/30/1 322/31/1 321/32/1
f 341/29/1 342/30/1 325/31/1 322/32/1
f 342/29/1 343/30/1 327/31/1 325/32/1
f 343/29/1 344/30/1 329/31/1 327/32/1
f 344/29/1 345/30/1 330/31/1 329/32/1
f 345/29/1 346/30/1 331/31/1 330/32/1
f 347/29/1 348/30/1 332/31/1 349/32/1
f 348/29/1 350/30/1 333/31/1 332/32/1
f 350/29/1 351/30/1 336/31/1 333/32/1
f 351/29/1 352/30/1 338/31/1 336/32/1
f 353/9/1 354/10/1 355/11/1 356/12/1
f 354/9/1 357/10/1 358/11/1 355/12/1
f 359/45/1 360/46/1 361/47/1 362/48/1
f 360/45/1 363/46/1 364/47/1 361/48/1
f 363/45/1 365/46/1 366/47/1 364/48/1
f 365/45/1 367/46/1 347/47/1 366/48/1
f 368/41/1 369/42/1 370/43/1 371/44/1
f 369/41/1 372/42/1 373/43/1 370/44/1
f 372/9/1 374/10/1 375/11/1 373/12/1
f 374/9/1 376/10/1 377/11/1 375/12/1
f 376/29/1 378/30/1 353/31/1 377/32/1
f 378/29/1 379/30/1 354/31/1 353/32/1
f 379/29/1 380/30/1 357/31/1 354/32/1
f 380/29/1 381/30/1 359/31/1 357/32/1
f 382/9/1 383/10/1 384/11/1 385/12/1
f 383/9/1 386/10/1 387/11/1 384/12/1
f 388/29/1 389/30/1 369/31/1 368/32/1
f 389/29/1 390/30/1 372/31/1 369/32/1
f 390/29/1 391/30/1 374/31/1 372/32/1
f 391/29/1 392/30/1 376/31/1 374/32/1
f 393/25/1 394/26/1 395/27/1 396/28/1
f 397/9/1 398/10/1 399/11/1 400/12/1
f 401/41/1 402/42/1 403/43/1 404/44/1
f 405/9/1 406/10/1 407/11/1 408/12/1
f 406/9/1 409/10/1 410/11/1 407/12/1
f 411/25/1 412/26/1 413/27/1 414/28/1
f 415/9/1 416/10/1 417/11/1 418/12/1
f 419/9/1 420/10/1 421/11/1 422/12/1
f 420/9/1 423/10/1 424/11/1 421/12/1
f 425/9/1 426/10/1 427/11/1 428/12/1
f 429/9/1 430/10/1 431/11/1 432/12/1
f 433/25/1 434/26/1 435/27/1 436/28/1
f 434/25/1 437/26/1 438/27/1 435/28/1
f 437/25/1 439/26/1 440/27/1 438/28/1
f 439/29/1 441/30/1 382/31/1 440/32/1
f 441/29/1 442/30/1 383/31/1 382/32/1
f 442/29/1 443/30/1 386/31/1 383/32/1
f 443/29/1 444/30/1 388/31/1 386/32/1
f 445/29/1 446/30/1 393/31/1 447/32/1
f 446/29/1 448/30/1 394/31/1 393/32/1
f 448/29/1 449/30/1 397/31/1 394/32/1
f 449/29/1 450/30/1 398/31/1 397/32/1
f 450/29/1 451/30/1 401/31/1 398/32/1
f 451/29/1 452/30/1 402/31/1 401/32/1
f 452/29/1 453/30/1 405/31/1 402/32/1
f 453/29/1 454/30/1 406/31/1 405/32/1
f 454/29/1 455/30/1 409/31/1 406/32/1
f 455/29/1 456/30/1 411/31/1 409/32/1
f 456/29/1 457/30/1 412/31/1 411/32/1
f 457/29/1 458/30/1 415/31/1 412/32/1
f 458/29/1 459/30/1 416/31/1 415/32/1
f 459/29/1 460/30/1 461/31/1 416/32/1
f 462/29/1 463/30/1 420/31/1 419/32/1
f 463/29/1 464/30/1 423/31/1 420/32/1
f 465/29/1 466/30/1 426/31/1 425/32/1
f 467/29/1 468/30/1 429/31/1 469/32/1
f 468/29/1 470/30/1 430/31/1 429/32/1
f 470/29/1 471/30/1 433/31/1 430/32/1
f 471/29/1 472/30/1 434/31/1 433/32/1
f 472/29/1 473/30/1 437/31/1 434/32/1
f 473/29/1 474/30/1 439/31/1 437/32/1

