# Wavefront OBJ file automatically generated by Tiled2Unity

# Vertices (Count = 227)
v -80 -240 0
v -160 -240 0
v -160 -160 0
v -80 -160 0
v -240 -240 0
v -240 -160 0
v 0 -320 0
v -80 -320 0
v 0 -240 0
v -160 -320 0
v -240 -320 0
v -320 -320 0
v -400 -320 0
v -400 -240 0
v -320 -240 0
v -480 -320 0
v -480 -240 0
v -560 -320 0
v -560 -240 0
v -640 -320 0
v -720 -320 0
v -720 -240 0
v -640 -240 0
v -4000 -320 0
v -4080 -320 0
v -4080 -240 0
v -4000 -240 0
v -4160 -320 0
v -4240 -320 0
v -4240 -240 0
v -4160 -240 0
v -4320 -320 0
v -4320 -240 0
v -4400 -320 0
v -4400 -240 0
v -4480 -320 0
v -4560 -320 0
v -4560 -240 0
v -4480 -240 0
v 0 -400 0
v -80 -400 0
v -160 -400 0
v -240 -400 0
v -320 -400 0
v -400 -400 0
v -480 -400 0
v -560 -400 0
v -640 -400 0
v -720 -400 0
v -800 -400 0
v -880 -400 0
v -880 -320 0
v -800 -320 0
v -960 -400 0
v -960 -320 0
v -3680 -400 0
v -3760 -400 0
v -3760 -320 0
v -3680 -320 0
v -3840 -400 0
v -3840 -320 0
v -3920 -400 0
v -4000 -400 0
v -3920 -320 0
v -4080 -400 0
v -4160 -400 0
v -4240 -400 0
v -4320 -400 0
v -4400 -400 0
v -4480 -400 0
v -4560 -400 0
v -4640 -400 0
v -4640 -320 0
v -720 -480 0
v -800 -480 0
v -880 -480 0
v -960 -480 0
v -1040 -480 0
v -1040 -400 0
v -1120 -480 0
v -1120 -400 0
v -1200 -480 0
v -1200 -400 0
v -1280 -480 0
v -1360 -480 0
v -1360 -400 0
v -1280 -400 0
v -3360 -480 0
v -3440 -480 0
v -3440 -400 0
v -3360 -400 0
v -3520 -480 0
v -3600 -480 0
v -3600 -400 0
v -3520 -400 0
v -3680 -480 0
v -3760 -480 0
v -3840 -480 0
v -3920 -480 0
v -4720 -480 0
v -4800 -480 0
v -4800 -400 0
v -4720 -400 0
v -4880 -480 0
v -4880 -400 0
v -4960 -480 0
v -5040 -480 0
v -5040 -400 0
v -4960 -400 0
v -1040 -560 0
v -1120 -560 0
v -1200 -560 0
v -1280 -560 0
v -1360 -560 0
v -1440 -560 0
v -1520 -560 0
v -1520 -480 0
v -1440 -480 0
v -1600 -560 0
v -1680 -560 0
v -1680 -480 0
v -1600 -480 0
v -3040 -560 0
v -3120 -560 0
v -3120 -480 0
v -3040 -480 0
v -3200 -560 0
v -3200 -480 0
v -3280 -560 0
v -3360 -560 0
v -3280 -480 0
v -3440 -560 0
v -3520 -560 0
v -3600 -560 0
v -4640 -560 0
v -4720 -560 0
v -4640 -480 0
v -4800 -560 0
v -4880 -560 0
v -4960 -560 0
v -5040 -560 0
v -5120 -560 0
v -5200 -560 0
v -5200 -480 0
v -5120 -480 0
v -5280 -560 0
v -5280 -480 0
v -1360 -640 0
v -1440 -640 0
v -1520 -640 0
v -1600 -640 0
v -1680 -640 0
v -1760 -640 0
v -1840 -640 0
v -1840 -560 0
v -1760 -560 0
v -1920 -640 0
v -1920 -560 0
v -2720 -640 0
v -2800 -640 0
v -2800 -560 0
v -2720 -560 0
v -2880 -640 0
v -2960 -640 0
v -2960 -560 0
v -2880 -560 0
v -3040 -640 0
v -3120 -640 0
v -3200 -640 0
v -3280 -640 0
v -5040 -640 0
v -5120 -640 0
v -5200 -640 0
v -5280 -640 0
v -5360 -640 0
v -5360 -560 0
v -1680 -720 0
v -1760 -720 0
v -1840 -720 0
v -1920 -720 0
v -2000 -720 0
v -2000 -640 0
v -2480 -720 0
v -2560 -720 0
v -2560 -640 0
v -2480 -640 0
v -2640 -720 0
v -2720 -720 0
v -2640 -640 0
v -2800 -720 0
v -2880 -720 0
v -2960 -720 0
v -5360 -720 0
v -5440 -720 0
v -5440 -640 0
v -5520 -720 0
v -5520 -640 0
v -5600 -720 0
v -5600 -640 0
v -5680 -720 0
v -5680 -640 0
v -5760 -720 0
v -5840 -720 0
v -5840 -640 0
v -5760 -640 0
v -5920 -720 0
v -5920 -640 0
v -2000 -800 0
v -2080 -800 0
v -2080 -720 0
v -2160 -800 0
v -2160 -720 0
v -2240 -800 0
v -2240 -720 0
v -2320 -800 0
v -2320 -720 0
v -2400 -800 0
v -2400 -720 0
v -2480 -800 0
v -2560 -800 0
v -2640 -800 0
v -5680 -800 0
v -5760 -800 0
v -5840 -800 0
v -5920 -800 0
v -6000 -800 0
v -6000 -720 0

# Texture cooridinates (Count = 48)
vt 0.2501221 0.2501221
vt 0.3748779 0.2501221
vt 0.3748779 0.4998779
vt 0.2501221 0.4998779
vt 0.3751221 0.2501221
vt 0.4998779 0.2501221
vt 0.4998779 0.4998779
vt 0.3751221 0.4998779
vt 0.0001220703 0.7501221
vt 0.1248779 0.7501221
vt 0.1248779 0.9998779
vt 0.0001220703 0.9998779
vt 0.2501221 0.0001220703
vt 0.3748779 0.0001220703
vt 0.3748779 0.2498779
vt 0.2501221 0.2498779
vt 0.3751221 0.0001220703
vt 0.4998779 0.0001220703
vt 0.4998779 0.2498779
vt 0.3751221 0.2498779
vt 0.2501221 0.7501221
vt 0.3748779 0.7501221
vt 0.3748779 0.9998779
vt 0.2501221 0.9998779
vt 0.3751221 0.7501221
vt 0.4998779 0.7501221
vt 0.4998779 0.9998779
vt 0.3751221 0.9998779
vt 0.7501221 0.7501221
vt 0.8748779 0.7501221
vt 0.8748779 0.9998779
vt 0.7501221 0.9998779
vt 0.5001221 0.7501221
vt 0.6248779 0.7501221
vt 0.6248779 0.9998779
vt 0.5001221 0.9998779
vt 0.1251221 0.7501221
vt 0.2498779 0.7501221
vt 0.2498779 0.9998779
vt 0.1251221 0.9998779
vt 0.6251221 0.7501221
vt 0.7498779 0.7501221
vt 0.7498779 0.9998779
vt 0.6251221 0.9998779
vt 0.2501221 0.5001221
vt 0.3748779 0.5001221
vt 0.3748779 0.7498779
vt 0.2501221 0.7498779

# Normal
vn 0 0 -1

# Groups (Count = 1)

g mesh_0001
f 1/1/1 2/2/1 3/3/1 4/4/1
f 2/5/1 5/6/1 6/7/1 3/8/1
f 7/9/1 8/10/1 1/11/1 9/12/1
f 8/13/1 10/14/1 2/15/1 1/16/1
f 10/17/1 11/18/1 5/19/1 2/20/1
f 12/21/1 13/22/1 14/23/1 15/24/1
f 13/21/1 16/22/1 17/23/1 14/24/1
f 16/21/1 18/22/1 19/23/1 17/24/1
f 20/25/1 21/26/1 22/27/1 23/28/1
f 24/21/1 25/22/1 26/23/1 27/24/1
f 28/25/1 29/26/1 30/27/1 31/28/1
f 29/29/1 32/30/1 33/31/1 30/32/1
f 32/33/1 34/34/1 35/35/1 33/36/1
f 36/21/1 37/22/1 38/23/1 39/24/1
f 40/37/1 41/38/1 8/39/1 7/40/1
f 41/37/1 42/38/1 10/39/1 8/40/1
f 42/37/1 43/38/1 11/39/1 10/40/1
f 43/37/1 44/38/1 12/39/1 11/40/1
f 44/37/1 45/38/1 13/39/1 12/40/1
f 45/37/1 46/38/1 16/39/1 13/40/1
f 46/37/1 47/38/1 18/39/1 16/40/1
f 47/37/1 48/38/1 20/39/1 18/40/1
f 48/37/1 49/38/1 21/39/1 20/40/1
f 50/21/1 51/22/1 52/23/1 53/24/1
f 51/21/1 54/22/1 55/23/1 52/24/1
f 56/21/1 57/22/1 58/23/1 59/24/1
f 57/21/1 60/22/1 61/23/1 58/24/1
f 62/37/1 63/38/1 24/39/1 64/40/1
f 63/37/1 65/38/1 25/39/1 24/40/1
f 65/37/1 66/38/1 28/39/1 25/40/1
f 66/37/1 67/38/1 29/39/1 28/40/1
f 67/37/1 68/38/1 32/39/1 29/40/1
f 68/37/1 69/38/1 34/39/1 32/40/1
f 69/37/1 70/38/1 36/39/1 34/40/1
f 70/37/1 71/38/1 37/39/1 36/40/1
f 71/37/1 72/38/1 73/39/1 37/40/1
f 74/37/1 75/38/1 50/39/1 49/40/1
f 75/37/1 76/38/1 51/39/1 50/40/1
f 76/37/1 77/38/1 54/39/1 51/40/1
f 77/37/1 78/38/1 79/39/1 54/40/1
f 78/41/1 80/42/1 81/43/1 79/44/1
f 80/41/1 82/42/1 83/43/1 81/44/1
f 84/21/1 85/22/1 86/23/1 87/24/1
f 88/21/1 89/22/1 90/23/1 91/24/1
f 92/25/1 93/26/1 94/27/1 95/28/1
f 93/37/1 96/38/1 56/39/1 94/40/1
f 96/37/1 97/38/1 57/39/1 56/40/1
f 97/37/1 98/38/1 60/39/1 57/40/1
f 98/37/1 99/38/1 62/39/1 60/40/1
f 100/41/1 101/42/1 102/43/1 103/44/1
f 101/41/1 104/42/1 105/43/1 102/44/1
f 106/21/1 107/22/1 108/23/1 109/24/1
f 110/37/1 111/38/1 80/39/1 78/40/1
f 111/37/1 112/38/1 82/39/1 80/40/1
f 112/37/1 113/38/1 84/39/1 82/40/1
f 113/37/1 114/38/1 85/39/1 84/40/1
f 115/21/1 116/22/1 117/23/1 118/24/1
f 119/29/1 120/30/1 121/31/1 122/32/1
f 123/21/1 124/22/1 125/23/1 126/24/1
f 124/21/1 127/22/1 128/23/1 125/24/1
f 129/37/1 130/38/1 88/39/1 131/40/1
f 130/37/1 132/38/1 89/39/1 88/40/1
f 132/37/1 133/38/1 92/39/1 89/40/1
f 133/37/1 134/38/1 93/39/1 92/40/1
f 135/37/1 136/38/1 100/39/1 137/40/1
f 136/37/1 138/38/1 101/39/1 100/40/1
f 138/37/1 139/38/1 104/39/1 101/40/1
f 139/37/1 140/38/1 106/39/1 104/40/1
f 140/37/1 141/38/1 107/39/1 106/40/1
f 142/21/1 143/22/1 144/23/1 145/24/1
f 143/21/1 146/22/1 147/23/1 144/24/1
f 148/37/1 149/38/1 115/39/1 114/40/1
f 149/37/1 150/38/1 116/39/1 115/40/1
f 150/37/1 151/38/1 119/39/1 116/40/1
f 151/37/1 152/38/1 120/39/1 119/40/1
f 153/21/1 154/22/1 155/23/1 156/24/1
f 154/21/1 157/22/1 158/23/1 155/24/1
f 159/21/1 160/22/1 161/23/1 162/24/1
f 163/25/1 164/26/1 165/27/1 166/28/1
f 164/37/1 167/38/1 123/39/1 165/40/1
f 167/37/1 168/38/1 124/39/1 123/40/1
f 168/37/1 169/38/1 127/39/1 124/40/1
f 169/37/1 170/38/1 129/39/1 127/40/1
f 171/37/1 172/38/1 142/39/1 141/40/1
f 172/37/1 173/38/1 143/39/1 142/40/1
f 173/37/1 174/38/1 146/39/1 143/40/1
f 174/37/1 175/38/1 176/39/1 146/40/1
f 177/37/1 178/38/1 153/39/1 152/40/1
f 178/37/1 179/38/1 154/39/1 153/40/1
f 179/37/1 180/38/1 157/39/1 154/40/1
f 180/37/1 181/38/1 182/39/1 157/40/1
f 183/21/1 184/22/1 185/23/1 186/24/1
f 187/37/1 188/38/1 159/39/1 189/40/1
f 188/37/1 190/38/1 160/39/1 159/40/1
f 190/37/1 191/38/1 163/39/1 160/40/1
f 191/37/1 192/38/1 164/39/1 163/40/1
f 193/45/1 194/46/1 195/47/1 175/48/1
f 194/45/1 196/46/1 197/47/1 195/48/1
f 196/45/1 198/46/1 199/47/1 197/48/1
f 198/45/1 200/46/1 201/47/1 199/48/1
f 202/21/1 203/22/1 204/23/1 205/24/1
f 203/21/1 206/22/1 207/23/1 204/24/1
f 208/37/1 209/38/1 210/39/1 181/40/1
f 209/45/1 211/46/1 212/47/1 210/48/1
f 211/45/1 213/46/1 214/47/1 212/48/1
f 213/45/1 215/46/1 216/47/1 214/48/1
f 215/45/1 217/46/1 218/47/1 216/48/1
f 217/37/1 219/38/1 183/39/1 218/40/1
f 219/37/1 220/38/1 184/39/1 183/40/1
f 220/37/1 221/38/1 187/39/1 184/40/1
f 222/37/1 223/38/1 202/39/1 200/40/1
f 223/37/1 224/38/1 203/39/1 202/40/1
f 224/37/1 225/38/1 206/39/1 203/40/1
f 225/37/1 226/38/1 227/39/1 206/40/1

