# Wavefront OBJ file automatically generated by Tiled2Unity

# Vertices (Count = 611)
v -80 -240 0
v -160 -240 0
v -160 -160 0
v -80 -160 0
v -240 -240 0
v -240 -160 0
v -880 -240 0
v -960 -240 0
v -960 -160 0
v -880 -160 0
v 0 -320 0
v -80 -320 0
v 0 -240 0
v -160 -320 0
v -240 -320 0
v -320 -320 0
v -400 -320 0
v -400 -240 0
v -320 -240 0
v -480 -320 0
v -560 -320 0
v -560 -240 0
v -480 -240 0
v -640 -320 0
v -640 -240 0
v -720 -320 0
v -720 -240 0
v -800 -320 0
v -880 -320 0
v -800 -240 0
v -960 -320 0
v -1120 -320 0
v -1200 -320 0
v -1200 -240 0
v -1120 -240 0
v -1280 -320 0
v -1280 -240 0
v -1360 -320 0
v -1360 -240 0
v -1520 -320 0
v -1600 -320 0
v -1600 -240 0
v -1520 -240 0
v -1680 -320 0
v -1680 -240 0
v -1760 -320 0
v -1760 -240 0
v -1840 -320 0
v -1840 -240 0
v -2000 -320 0
v -2080 -320 0
v -2080 -240 0
v -2000 -240 0
v -2160 -320 0
v -2160 -240 0
v -2240 -320 0
v -2240 -240 0
v -2400 -320 0
v -2480 -320 0
v -2480 -240 0
v -2400 -240 0
v -2560 -320 0
v -2560 -240 0
v -2640 -320 0
v -2640 -240 0
v -2720 -320 0
v -2720 -240 0
v -2800 -320 0
v -2800 -240 0
v -3040 -320 0
v -3120 -320 0
v -3120 -240 0
v -3040 -240 0
v -3200 -320 0
v -3200 -240 0
v -3280 -320 0
v -3280 -240 0
v -3520 -320 0
v -3600 -320 0
v -3600 -240 0
v -3520 -240 0
v -3680 -320 0
v -3680 -240 0
v -3760 -320 0
v -3760 -240 0
v -3840 -320 0
v -3840 -240 0
v 0 -400 0
v -80 -400 0
v -160 -400 0
v -240 -400 0
v -320 -400 0
v -400 -400 0
v -480 -400 0
v -560 -400 0
v -640 -400 0
v -720 -400 0
v -800 -400 0
v -880 -400 0
v -960 -400 0
v -1040 -400 0
v -1040 -320 0
v -1120 -400 0
v -1200 -400 0
v -1280 -400 0
v -1360 -400 0
v -1440 -400 0
v -1440 -320 0
v -1520 -400 0
v -1600 -400 0
v -1680 -400 0
v -1760 -400 0
v -1840 -400 0
v -1920 -400 0
v -1920 -320 0
v -2000 -400 0
v -2080 -400 0
v -2160 -400 0
v -2240 -400 0
v -2320 -400 0
v -2320 -320 0
v -2400 -400 0
v -2480 -400 0
v -2560 -400 0
v -2640 -400 0
v -2720 -400 0
v -2800 -400 0
v -2880 -400 0
v -2880 -320 0
v -2960 -400 0
v -2960 -320 0
v -3040 -400 0
v -3120 -400 0
v -3200 -400 0
v -3280 -400 0
v -3360 -400 0
v -3360 -320 0
v -3440 -400 0
v -3440 -320 0
v -3520 -400 0
v -3600 -400 0
v -3680 -400 0
v -3760 -400 0
v -3840 -400 0
v -720 -640 0
v -800 -640 0
v -800 -560 0
v -720 -560 0
v -4640 -640 0
v -4720 -640 0
v -4720 -560 0
v -4640 -560 0
v -4800 -640 0
v -4800 -560 0
v -480 -720 0
v -560 -720 0
v -560 -640 0
v -480 -640 0
v -720 -720 0
v -800 -720 0
v -880 -720 0
v -960 -720 0
v -960 -640 0
v -880 -640 0
v -1440 -720 0
v -1520 -720 0
v -1520 -640 0
v -1440 -640 0
v -1600 -720 0
v -1600 -640 0
v -1680 -720 0
v -1680 -640 0
v -1760 -720 0
v -1840 -720 0
v -1840 -640 0
v -1760 -640 0
v -1920 -720 0
v -1920 -640 0
v -2000 -720 0
v -2000 -640 0
v -2080 -720 0
v -2080 -640 0
v -2160 -720 0
v -2160 -640 0
v -2240 -720 0
v -2320 -720 0
v -2320 -640 0
v -2240 -640 0
v -2400 -720 0
v -2400 -640 0
v -2480 -720 0
v -2480 -640 0
v -3040 -720 0
v -3120 -720 0
v -3120 -640 0
v -3040 -640 0
v -3200 -720 0
v -3200 -640 0
v -3280 -720 0
v -3280 -640 0
v -3360 -720 0
v -3440 -720 0
v -3440 -640 0
v -3360 -640 0
v -3520 -720 0
v -3520 -640 0
v -3600 -720 0
v -3600 -640 0
v -3680 -720 0
v -3680 -640 0
v -3760 -720 0
v -3760 -640 0
v -4000 -720 0
v -4080 -720 0
v -4080 -640 0
v -4000 -640 0
v -4160 -720 0
v -4160 -640 0
v -4240 -720 0
v -4240 -640 0
v -4320 -720 0
v -4320 -640 0
v -4400 -720 0
v -4400 -640 0
v -4640 -720 0
v -4720 -720 0
v -4800 -720 0
v -480 -800 0
v -560 -800 0
v -640 -800 0
v -640 -720 0
v -720 -800 0
v -800 -800 0
v -880 -800 0
v -960 -800 0
v -1360 -800 0
v -1440 -800 0
v -1360 -720 0
v -1520 -800 0
v -1600 -800 0
v -1680 -800 0
v -1760 -800 0
v -1840 -800 0
v -1920 -800 0
v -2000 -800 0
v -2080 -800 0
v -2160 -800 0
v -2240 -800 0
v -2320 -800 0
v -2400 -800 0
v -2480 -800 0
v -2560 -800 0
v -2560 -720 0
v -2960 -800 0
v -3040 -800 0
v -2960 -720 0
v -3120 -800 0
v -3200 -800 0
v -3280 -800 0
v -3360 -800 0
v -3440 -800 0
v -3520 -800 0
v -3600 -800 0
v -3680 -800 0
v -3760 -800 0
v -3840 -800 0
v -3840 -720 0
v -3920 -800 0
v -3920 -720 0
v -4000 -800 0
v -4080 -800 0
v -4160 -800 0
v -4240 -800 0
v -4320 -800 0
v -4400 -800 0
v -4480 -800 0
v -4480 -720 0
v -4560 -800 0
v -4560 -720 0
v -4640 -800 0
v -4720 -800 0
v -4800 -800 0
v 0 -1120 0
v -80 -1120 0
v -80 -1040 0
v 0 -1040 0
v -160 -1120 0
v -160 -1040 0
v 0 -1200 0
v -80 -1200 0
v -160 -1200 0
v -240 -1200 0
v -320 -1200 0
v -320 -1120 0
v -240 -1120 0
v -400 -1200 0
v -400 -1120 0
v -480 -1200 0
v -480 -1120 0
v -640 -1200 0
v -720 -1200 0
v -720 -1120 0
v -640 -1120 0
v -800 -1200 0
v -800 -1120 0
v -880 -1200 0
v -960 -1200 0
v -960 -1120 0
v -880 -1120 0
v -1360 -1200 0
v -1440 -1200 0
v -1440 -1120 0
v -1360 -1120 0
v -1520 -1200 0
v -1600 -1200 0
v -1600 -1120 0
v -1520 -1120 0
v -1680 -1200 0
v -1760 -1200 0
v -1760 -1120 0
v -1680 -1120 0
v -2640 -1200 0
v -2720 -1200 0
v -2720 -1120 0
v -2640 -1120 0
v -2800 -1200 0
v -2800 -1120 0
v -2880 -1200 0
v -2880 -1120 0
v -2960 -1200 0
v -3040 -1200 0
v -3040 -1120 0
v -2960 -1120 0
v -3120 -1200 0
v -3120 -1120 0
v -3200 -1200 0
v -3200 -1120 0
v -3280 -1200 0
v -3360 -1200 0
v -3360 -1120 0
v -3280 -1120 0
v -3440 -1200 0
v -3440 -1120 0
v -3520 -1200 0
v -3600 -1200 0
v -3600 -1120 0
v -3520 -1120 0
v -3680 -1200 0
v -3680 -1120 0
v -3760 -1200 0
v -3840 -1200 0
v -3840 -1120 0
v -3760 -1120 0
v -3920 -1200 0
v -3920 -1120 0
v -4000 -1200 0
v -4080 -1200 0
v -4080 -1120 0
v -4000 -1120 0
v 0 -1280 0
v -80 -1280 0
v -160 -1280 0
v -240 -1280 0
v -320 -1280 0
v -400 -1280 0
v -480 -1280 0
v -560 -1280 0
v -560 -1200 0
v -640 -1280 0
v -720 -1280 0
v -800 -1280 0
v -880 -1280 0
v -960 -1280 0
v -1040 -1280 0
v -1040 -1200 0
v -1280 -1280 0
v -1360 -1280 0
v -1280 -1200 0
v -1440 -1280 0
v -1520 -1280 0
v -1600 -1280 0
v -1680 -1280 0
v -1760 -1280 0
v -1840 -1280 0
v -1840 -1200 0
v -2160 -1280 0
v -2240 -1280 0
v -2240 -1200 0
v -2160 -1200 0
v -2320 -1280 0
v -2320 -1200 0
v -2560 -1280 0
v -2640 -1280 0
v -2560 -1200 0
v -2720 -1280 0
v -2800 -1280 0
v -2880 -1280 0
v -2960 -1280 0
v -3040 -1280 0
v -3120 -1280 0
v -3200 -1280 0
v -3280 -1280 0
v -3360 -1280 0
v -3440 -1280 0
v -3520 -1280 0
v -3600 -1280 0
v -3680 -1280 0
v -3760 -1280 0
v -3840 -1280 0
v -3920 -1280 0
v -4000 -1280 0
v -4080 -1280 0
v -1840 -1360 0
v -1920 -1360 0
v -1920 -1280 0
v -2000 -1360 0
v -2000 -1280 0
v -2080 -1360 0
v -2080 -1280 0
v -2160 -1360 0
v -2240 -1360 0
v -2320 -1360 0
v -2400 -1360 0
v -2400 -1280 0
v -2480 -1360 0
v -2480 -1280 0
v -2560 -1360 0
v -4640 -1520 0
v -4720 -1520 0
v -4720 -1440 0
v -4640 -1440 0
v -4800 -1520 0
v -4800 -1440 0
v -4160 -1600 0
v -4240 -1600 0
v -4240 -1520 0
v -4160 -1520 0
v -4320 -1600 0
v -4320 -1520 0
v -4400 -1600 0
v -4400 -1520 0
v -4480 -1600 0
v -4480 -1520 0
v -4560 -1600 0
v -4560 -1520 0
v -4640 -1600 0
v -4720 -1600 0
v -4800 -1600 0
v -3680 -1680 0
v -3760 -1680 0
v -3760 -1600 0
v -3680 -1600 0
v -3840 -1680 0
v -3840 -1600 0
v -3920 -1680 0
v -4000 -1680 0
v -4000 -1600 0
v -3920 -1600 0
v -4080 -1680 0
v -4080 -1600 0
v -4160 -1680 0
v -4240 -1680 0
v -4320 -1680 0
v -4400 -1680 0
v -4480 -1680 0
v -4560 -1680 0
v -4640 -1680 0
v -4720 -1680 0
v -4800 -1680 0
v -3120 -1760 0
v -3200 -1760 0
v -3200 -1680 0
v -3120 -1680 0
v -3360 -1760 0
v -3440 -1760 0
v -3440 -1680 0
v -3360 -1680 0
v -3520 -1760 0
v -3600 -1760 0
v -3600 -1680 0
v -3520 -1680 0
v -3680 -1760 0
v -3760 -1760 0
v -3840 -1760 0
v -3920 -1760 0
v -3120 -1840 0
v -3200 -1840 0
v -3280 -1840 0
v -3360 -1840 0
v -3280 -1760 0
v -3440 -1840 0
v -3520 -1840 0
v -3600 -1840 0
v -1520 -1920 0
v -1600 -1920 0
v -1600 -1840 0
v -1520 -1840 0
v -1840 -1920 0
v -1920 -1920 0
v -1920 -1840 0
v -1840 -1840 0
v -2000 -1920 0
v -2000 -1840 0
v -2080 -1920 0
v -2080 -1840 0
v -2160 -1920 0
v -2240 -1920 0
v -2240 -1840 0
v -2160 -1840 0
v -2320 -1920 0
v -2320 -1840 0
v -2400 -1920 0
v -2400 -1840 0
v -2480 -1920 0
v -2480 -1840 0
v -2560 -1920 0
v -2560 -1840 0
v -2640 -1920 0
v -2640 -1840 0
v -2720 -1920 0
v -2800 -1920 0
v -2800 -1840 0
v -2720 -1840 0
v -2880 -1920 0
v -2880 -1840 0
v -2960 -1920 0
v -3040 -1920 0
v -3040 -1840 0
v -2960 -1840 0
v -3120 -1920 0
v -3200 -1920 0
v -3280 -1920 0
v -1520 -2000 0
v -1600 -2000 0
v -1760 -2000 0
v -1840 -2000 0
v -1760 -1920 0
v -1920 -2000 0
v -2000 -2000 0
v -2080 -2000 0
v -2160 -2000 0
v -2240 -2000 0
v -2320 -2000 0
v -2400 -2000 0
v -2480 -2000 0
v -2560 -2000 0
v -2640 -2000 0
v -2720 -2000 0
v -2800 -2000 0
v -2880 -2000 0
v -2960 -2000 0
v -1440 -2080 0
v -1520 -2080 0
v -1440 -2000 0
v -1600 -2080 0
v -1680 -2080 0
v -1680 -2000 0
v -1760 -2080 0
v -800 -2240 0
v -880 -2240 0
v -880 -2160 0
v -800 -2160 0
v -960 -2240 0
v -960 -2160 0
v -1040 -2240 0
v -1120 -2240 0
v -1120 -2160 0
v -1040 -2160 0
v -1200 -2240 0
v -1200 -2160 0
v -1280 -2240 0
v -1280 -2160 0
v -80 -2320 0
v -160 -2320 0
v -160 -2240 0
v -80 -2240 0
v -240 -2320 0
v -320 -2320 0
v -320 -2240 0
v -240 -2240 0
v -400 -2320 0
v -400 -2240 0
v -480 -2320 0
v -560 -2320 0
v -560 -2240 0
v -480 -2240 0
v -640 -2320 0
v -640 -2240 0
v -720 -2320 0
v -800 -2320 0
v -720 -2240 0
v -880 -2320 0
v -960 -2320 0
v -1040 -2320 0
v -1120 -2320 0
v -1200 -2320 0
v -1280 -2320 0
v -1360 -2320 0
v -1360 -2240 0
v 0 -2400 0
v -80 -2400 0
v 0 -2320 0
v -160 -2400 0
v -240 -2400 0
v -320 -2400 0
v -400 -2400 0
v -480 -2400 0
v -560 -2400 0
v -640 -2400 0
v -720 -2400 0
v -800 -2400 0

# Texture cooridinates (Count = 88)
vt 0.2501221 0.2501221
vt 0.3748779 0.2501221
vt 0.3748779 0.4998779
vt 0.2501221 0.4998779
vt 0.3751221 0.2501221
vt 0.4998779 0.2501221
vt 0.4998779 0.4998779
vt 0.3751221 0.4998779
vt 0.6251221 0.2501221
vt 0.7498779 0.2501221
vt 0.7498779 0.4998779
vt 0.6251221 0.4998779
vt 0.0001220703 0.7501221
vt 0.1248779 0.7501221
vt 0.1248779 0.9998779
vt 0.0001220703 0.9998779
vt 0.2501221 0.0001220703
vt 0.3748779 0.0001220703
vt 0.3748779 0.2498779
vt 0.2501221 0.2498779
vt 0.3751221 0.0001220703
vt 0.4998779 0.0001220703
vt 0.4998779 0.2498779
vt 0.3751221 0.2498779
vt 0.2501221 0.7501221
vt 0.3748779 0.7501221
vt 0.3748779 0.9998779
vt 0.2501221 0.9998779
vt 0.3751221 0.7501221
vt 0.4998779 0.7501221
vt 0.4998779 0.9998779
vt 0.3751221 0.9998779
vt 0.6251221 0.7501221
vt 0.7498779 0.7501221
vt 0.7498779 0.9998779
vt 0.6251221 0.9998779
vt 0.5001221 0.7501221
vt 0.6248779 0.7501221
vt 0.6248779 0.9998779
vt 0.5001221 0.9998779
vt 0.6251221 0.0001220703
vt 0.7498779 0.0001220703
vt 0.7498779 0.2498779
vt 0.6251221 0.2498779
vt 0.7501221 0.7501221
vt 0.8748779 0.7501221
vt 0.8748779 0.9998779
vt 0.7501221 0.9998779
vt 0.1251221 0.7501221
vt 0.2498779 0.7501221
vt 0.2498779 0.9998779
vt 0.1251221 0.9998779
vt 0.7501221 0.2501221
vt 0.8748779 0.2501221
vt 0.8748779 0.4998779
vt 0.7501221 0.4998779
vt 0.0001220703 0.2501221
vt 0.1248779 0.2501221
vt 0.1248779 0.4998779
vt 0.0001220703 0.4998779
vt 0.1251221 0.2501221
vt 0.2498779 0.2501221
vt 0.2498779 0.4998779
vt 0.1251221 0.4998779
vt 0.7501221 0.0001220703
vt 0.8748779 0.0001220703
vt 0.8748779 0.2498779
vt 0.7501221 0.2498779
vt 0.0001220703 0.0001220703
vt 0.1248779 0.0001220703
vt 0.1248779 0.2498779
vt 0.0001220703 0.2498779
vt 0.1251221 0.0001220703
vt 0.2498779 0.0001220703
vt 0.2498779 0.2498779
vt 0.1251221 0.2498779
vt 0.2501221 0.5001221
vt 0.3748779 0.5001221
vt 0.3748779 0.7498779
vt 0.2501221 0.7498779
vt 0.8751221 0.2501221
vt 0.9998779 0.2501221
vt 0.9998779 0.4998779
vt 0.8751221 0.4998779
vt 0.8751221 0.0001220703
vt 0.9998779 0.0001220703
vt 0.9998779 0.2498779
vt 0.8751221 0.2498779

# Normal
vn 0 0 -1

# Groups (Count = 1)

g mesh_0001
f 1/1/1 2/2/1 3/3/1 4/4/1
f 2/5/1 5/6/1 6/7/1 3/8/1
f 7/9/1 8/10/1 9/11/1 10/12/1
f 11/13/1 12/14/1 1/15/1 13/16/1
f 12/17/1 14/18/1 2/19/1 1/20/1
f 14/21/1 15/22/1 5/23/1 2/24/1
f 16/25/1 17/26/1 18/27/1 19/28/1
f 20/29/1 21/30/1 22/31/1 23/32/1
f 21/33/1 24/34/1 25/35/1 22/36/1
f 24/37/1 26/38/1 27/39/1 25/40/1
f 28/25/1 29/26/1 7/27/1 30/28/1
f 29/41/1 31/42/1 8/43/1 7/44/1
f 32/25/1 33/26/1 34/27/1 35/28/1
f 33/25/1 36/26/1 37/27/1 34/28/1
f 36/25/1 38/26/1 39/27/1 37/28/1
f 40/45/1 41/46/1 42/47/1 43/48/1
f 41/45/1 44/46/1 45/47/1 42/48/1
f 44/45/1 46/46/1 47/47/1 45/48/1
f 46/45/1 48/46/1 49/47/1 47/48/1
f 50/25/1 51/26/1 52/27/1 53/28/1
f 51/25/1 54/26/1 55/27/1 52/28/1
f 54/25/1 56/26/1 57/27/1 55/28/1
f 58/37/1 59/38/1 60/39/1 61/40/1
f 59/37/1 62/38/1 63/39/1 60/40/1
f 62/37/1 64/38/1 65/39/1 63/40/1
f 64/37/1 66/38/1 67/39/1 65/40/1
f 66/37/1 68/38/1 69/39/1 67/40/1
f 70/25/1 71/26/1 72/27/1 73/28/1
f 71/25/1 74/26/1 75/27/1 72/28/1
f 74/25/1 76/26/1 77/27/1 75/28/1
f 78/29/1 79/30/1 80/31/1 81/32/1
f 79/29/1 82/30/1 83/31/1 80/32/1
f 82/29/1 84/30/1 85/31/1 83/32/1
f 84/29/1 86/30/1 87/31/1 85/32/1
f 88/49/1 89/50/1 12/51/1 11/52/1
f 89/49/1 90/50/1 14/51/1 12/52/1
f 90/49/1 91/50/1 15/51/1 14/52/1
f 91/49/1 92/50/1 16/51/1 15/52/1
f 92/49/1 93/50/1 17/51/1 16/52/1
f 93/49/1 94/50/1 20/51/1 17/52/1
f 94/49/1 95/50/1 21/51/1 20/52/1
f 95/49/1 96/50/1 24/51/1 21/52/1
f 96/49/1 97/50/1 26/51/1 24/52/1
f 97/49/1 98/50/1 28/51/1 26/52/1
f 98/49/1 99/50/1 29/51/1 28/52/1
f 99/49/1 100/50/1 31/51/1 29/52/1
f 100/49/1 101/50/1 102/51/1 31/52/1
f 101/49/1 103/50/1 32/51/1 102/52/1
f 103/49/1 104/50/1 33/51/1 32/52/1
f 104/49/1 105/50/1 36/51/1 33/52/1
f 105/49/1 106/50/1 38/51/1 36/52/1
f 106/49/1 107/50/1 108/51/1 38/52/1
f 107/49/1 109/50/1 40/51/1 108/52/1
f 109/49/1 110/50/1 41/51/1 40/52/1
f 110/49/1 111/50/1 44/51/1 41/52/1
f 111/49/1 112/50/1 46/51/1 44/52/1
f 112/49/1 113/50/1 48/51/1 46/52/1
f 113/49/1 114/50/1 115/51/1 48/52/1
f 114/49/1 116/50/1 50/51/1 115/52/1
f 116/49/1 117/50/1 51/51/1 50/52/1
f 117/49/1 118/50/1 54/51/1 51/52/1
f 118/49/1 119/50/1 56/51/1 54/52/1
f 119/49/1 120/50/1 121/51/1 56/52/1
f 120/49/1 122/50/1 58/51/1 121/52/1
f 122/49/1 123/50/1 59/51/1 58/52/1
f 123/49/1 124/50/1 62/51/1 59/52/1
f 124/49/1 125/50/1 64/51/1 62/52/1
f 125/49/1 126/50/1 66/51/1 64/52/1
f 126/49/1 127/50/1 68/51/1 66/52/1
f 127/49/1 128/50/1 129/51/1 68/52/1
f 128/49/1 130/50/1 131/51/1 129/52/1
f 130/49/1 132/50/1 70/51/1 131/52/1
f 132/49/1 133/50/1 71/51/1 70/52/1
f 133/49/1 134/50/1 74/51/1 71/52/1
f 134/49/1 135/50/1 76/51/1 74/52/1
f 135/49/1 136/50/1 137/51/1 76/52/1
f 136/49/1 138/50/1 139/51/1 137/52/1
f 138/49/1 140/50/1 78/51/1 139/52/1
f 140/49/1 141/50/1 79/51/1 78/52/1
f 141/49/1 142/50/1 82/51/1 79/52/1
f 142/49/1 143/50/1 84/51/1 82/52/1
f 143/49/1 144/50/1 86/51/1 84/52/1
f 145/53/1 146/54/1 147/55/1 148/56/1
f 149/57/1 150/58/1 151/59/1 152/60/1
f 150/61/1 153/62/1 154/63/1 151/64/1
f 155/25/1 156/26/1 157/27/1 158/28/1
f 159/65/1 160/66/1 146/67/1 145/68/1
f 161/25/1 162/26/1 163/27/1 164/28/1
f 165/25/1 166/26/1 167/27/1 168/28/1
f 166/25/1 169/26/1 170/27/1 167/28/1
f 169/25/1 171/26/1 172/27/1 170/28/1
f 173/33/1 174/34/1 175/35/1 176/36/1
f 174/33/1 177/34/1 178/35/1 175/36/1
f 177/33/1 179/34/1 180/35/1 178/36/1
f 179/33/1 181/34/1 182/35/1 180/36/1
f 181/33/1 183/34/1 184/35/1 182/36/1
f 185/25/1 186/26/1 187/27/1 188/28/1
f 186/25/1 189/26/1 190/27/1 187/28/1
f 189/25/1 191/26/1 192/27/1 190/28/1
f 193/25/1 194/26/1 195/27/1 196/28/1
f 194/25/1 197/26/1 198/27/1 195/28/1
f 197/25/1 199/26/1 200/27/1 198/28/1
f 201/29/1 202/30/1 203/31/1 204/32/1
f 202/29/1 205/30/1 206/31/1 203/32/1
f 205/29/1 207/30/1 208/31/1 206/32/1
f 207/29/1 209/30/1 210/31/1 208/32/1
f 209/29/1 211/30/1 212/31/1 210/32/1
f 213/25/1 214/26/1 215/27/1 216/28/1
f 214/25/1 217/26/1 218/27/1 215/28/1
f 217/25/1 219/26/1 220/27/1 218/28/1
f 219/25/1 221/26/1 222/27/1 220/28/1
f 221/25/1 223/26/1 224/27/1 222/28/1
f 225/69/1 226/70/1 150/71/1 149/72/1
f 226/73/1 227/74/1 153/75/1 150/76/1
f 228/49/1 229/50/1 156/51/1 155/52/1
f 229/49/1 230/50/1 231/51/1 156/52/1
f 230/49/1 232/50/1 159/51/1 231/52/1
f 232/49/1 233/50/1 160/51/1 159/52/1
f 233/49/1 234/50/1 161/51/1 160/52/1
f 234/49/1 235/50/1 162/51/1 161/52/1
f 236/49/1 237/50/1 165/51/1 238/52/1
f 237/49/1 239/50/1 166/51/1 165/52/1
f 239/49/1 240/50/1 169/51/1 166/52/1
f 240/49/1 241/50/1 171/51/1 169/52/1
f 241/49/1 242/50/1 173/51/1 171/52/1
f 242/49/1 243/50/1 174/51/1 173/52/1
f 243/49/1 244/50/1 177/51/1 174/52/1
f 244/49/1 245/50/1 179/51/1 177/52/1
f 245/49/1 246/50/1 181/51/1 179/52/1
f 246/49/1 247/50/1 183/51/1 181/52/1
f 247/49/1 248/50/1 185/51/1 183/52/1
f 248/49/1 249/50/1 186/51/1 185/52/1
f 249/49/1 250/50/1 189/51/1 186/52/1
f 250/49/1 251/50/1 191/51/1 189/52/1
f 251/49/1 252/50/1 253/51/1 191/52/1
f 254/49/1 255/50/1 193/51/1 256/52/1
f 255/49/1 257/50/1 194/51/1 193/52/1
f 257/49/1 258/50/1 197/51/1 194/52/1
f 258/49/1 259/50/1 199/51/1 197/52/1
f 259/49/1 260/50/1 201/51/1 199/52/1
f 260/49/1 261/50/1 202/51/1 201/52/1
f 261/49/1 262/50/1 205/51/1 202/52/1
f 262/49/1 263/50/1 207/51/1 205/52/1
f 263/49/1 264/50/1 209/51/1 207/52/1
f 264/49/1 265/50/1 211/51/1 209/52/1
f 265/49/1 266/50/1 267/51/1 211/52/1
f 266/49/1 268/50/1 269/51/1 267/52/1
f 268/49/1 270/50/1 213/51/1 269/52/1
f 270/49/1 271/50/1 214/51/1 213/52/1
f 271/49/1 272/50/1 217/51/1 214/52/1
f 272/49/1 273/50/1 219/51/1 217/52/1
f 273/49/1 274/50/1 221/51/1 219/52/1
f 274/49/1 275/50/1 223/51/1 221/52/1
f 275/49/1 276/50/1 277/51/1 223/52/1
f 276/49/1 278/50/1 279/51/1 277/52/1
f 278/49/1 280/50/1 225/51/1 279/52/1
f 280/49/1 281/50/1 226/51/1 225/52/1
f 281/49/1 282/50/1 227/51/1 226/52/1
f 283/1/1 284/2/1 285/3/1 286/4/1
f 284/5/1 287/6/1 288/7/1 285/8/1
f 289/17/1 290/18/1 284/19/1 283/20/1
f 290/21/1 291/22/1 287/23/1 284/24/1
f 292/25/1 293/26/1 294/27/1 295/28/1
f 293/25/1 296/26/1 297/27/1 294/28/1
f 296/25/1 298/26/1 299/27/1 297/28/1
f 300/33/1 301/34/1 302/35/1 303/36/1
f 301/33/1 304/34/1 305/35/1 302/36/1
f 306/25/1 307/26/1 308/27/1 309/28/1
f 310/25/1 311/26/1 312/27/1 313/28/1
f 314/45/1 315/46/1 316/47/1 317/48/1
f 318/25/1 319/26/1 320/27/1 321/28/1
f 322/25/1 323/26/1 324/27/1 325/28/1
f 323/25/1 326/26/1 327/27/1 324/28/1
f 326/25/1 328/26/1 329/27/1 327/28/1
f 330/29/1 331/30/1 332/31/1 333/32/1
f 331/29/1 334/30/1 335/31/1 332/32/1
f 334/29/1 336/30/1 337/31/1 335/32/1
f 338/25/1 339/26/1 340/27/1 341/28/1
f 339/25/1 342/26/1 343/27/1 340/28/1
f 344/37/1 345/38/1 346/39/1 347/40/1
f 345/37/1 348/38/1 349/39/1 346/40/1
f 350/25/1 351/26/1 352/27/1 353/28/1
f 351/25/1 354/26/1 355/27/1 352/28/1
f 356/33/1 357/34/1 358/35/1 359/36/1
f 360/49/1 361/50/1 290/51/1 289/52/1
f 361/49/1 362/50/1 291/51/1 290/52/1
f 362/49/1 363/50/1 292/51/1 291/52/1
f 363/49/1 364/50/1 293/51/1 292/52/1
f 364/49/1 365/50/1 296/51/1 293/52/1
f 365/49/1 366/50/1 298/51/1 296/52/1
f 366/49/1 367/50/1 368/51/1 298/52/1
f 367/49/1 369/50/1 300/51/1 368/52/1
f 369/49/1 370/50/1 301/51/1 300/52/1
f 370/49/1 371/50/1 304/51/1 301/52/1
f 371/49/1 372/50/1 306/51/1 304/52/1
f 372/49/1 373/50/1 307/51/1 306/52/1
f 373/49/1 374/50/1 375/51/1 307/52/1
f 376/49/1 377/50/1 310/51/1 378/52/1
f 377/49/1 379/50/1 311/51/1 310/52/1
f 379/49/1 380/50/1 314/51/1 311/52/1
f 380/49/1 381/50/1 315/51/1 314/52/1
f 381/49/1 382/50/1 318/51/1 315/52/1
f 382/49/1 383/50/1 319/51/1 318/52/1
f 383/49/1 384/50/1 385/51/1 319/52/1
f 386/25/1 387/26/1 388/27/1 389/28/1
f 387/25/1 390/26/1 391/27/1 388/28/1
f 392/49/1 393/50/1 322/51/1 394/52/1
f 393/49/1 395/50/1 323/51/1 322/52/1
f 395/49/1 396/50/1 326/51/1 323/52/1
f 396/49/1 397/50/1 328/51/1 326/52/1
f 397/49/1 398/50/1 330/51/1 328/52/1
f 398/49/1 399/50/1 331/51/1 330/52/1
f 399/49/1 400/50/1 334/51/1 331/52/1
f 400/49/1 401/50/1 336/51/1 334/52/1
f 401/49/1 402/50/1 338/51/1 336/52/1
f 402/49/1 403/50/1 339/51/1 338/52/1
f 403/49/1 404/50/1 342/51/1 339/52/1
f 404/49/1 405/50/1 344/51/1 342/52/1
f 405/49/1 406/50/1 345/51/1 344/52/1
f 406/49/1 407/50/1 348/51/1 345/52/1
f 407/49/1 408/50/1 350/51/1 348/52/1
f 408/49/1 409/50/1 351/51/1 350/52/1
f 409/49/1 410/50/1 354/51/1 351/52/1
f 410/49/1 411/50/1 356/51/1 354/52/1
f 411/49/1 412/50/1 357/51/1 356/52/1
f 413/77/1 414/78/1 415/79/1 384/80/1
f 414/77/1 416/78/1 417/79/1 415/80/1
f 416/77/1 418/78/1 419/79/1 417/80/1
f 418/77/1 420/78/1 386/79/1 419/80/1
f 420/49/1 421/50/1 387/51/1 386/52/1
f 421/49/1 422/50/1 390/51/1 387/52/1
f 422/77/1 423/78/1 424/79/1 390/80/1
f 423/77/1 425/78/1 426/79/1 424/80/1
f 425/77/1 427/78/1 392/79/1 426/80/1
f 428/57/1 429/58/1 430/59/1 431/60/1
f 429/61/1 432/62/1 433/63/1 430/64/1
f 434/25/1 435/26/1 436/27/1 437/28/1
f 435/25/1 438/26/1 439/27/1 436/28/1
f 438/25/1 440/26/1 441/27/1 439/28/1
f 440/25/1 442/26/1 443/27/1 441/28/1
f 442/25/1 444/26/1 445/27/1 443/28/1
f 446/69/1 447/70/1 429/71/1 428/72/1
f 447/73/1 448/74/1 432/75/1 429/76/1
f 449/25/1 450/26/1 451/27/1 452/28/1
f 450/25/1 453/26/1 454/27/1 451/28/1
f 455/49/1 456/50/1 457/51/1 458/52/1
f 456/49/1 459/50/1 460/51/1 457/52/1
f 459/49/1 461/50/1 434/51/1 460/52/1
f 461/49/1 462/50/1 435/51/1 434/52/1
f 462/49/1 463/50/1 438/51/1 435/52/1
f 463/49/1 464/50/1 440/51/1 438/52/1
f 464/49/1 465/50/1 442/51/1 440/52/1
f 465/49/1 466/50/1 444/51/1 442/52/1
f 466/49/1 467/50/1 446/51/1 444/52/1
f 467/49/1 468/50/1 447/51/1 446/52/1
f 468/49/1 469/50/1 448/51/1 447/52/1
f 470/81/1 471/82/1 472/83/1 473/84/1
f 474/25/1 475/26/1 476/27/1 477/28/1
f 478/29/1 479/30/1 480/31/1 481/32/1
f 479/49/1 482/50/1 449/51/1 480/52/1
f 482/49/1 483/50/1 450/51/1 449/52/1
f 483/49/1 484/50/1 453/51/1 450/52/1
f 484/49/1 485/50/1 455/51/1 453/52/1
f 486/85/1 487/86/1 471/87/1 470/88/1
f 488/49/1 489/50/1 474/51/1 490/52/1
f 489/49/1 491/50/1 475/51/1 474/52/1
f 491/49/1 492/50/1 478/51/1 475/52/1
f 492/49/1 493/50/1 479/51/1 478/52/1
f 494/53/1 495/54/1 496/55/1 497/56/1
f 498/25/1 499/26/1 500/27/1 501/28/1
f 499/25/1 502/26/1 503/27/1 500/28/1
f 502/25/1 504/26/1 505/27/1 503/28/1
f 506/29/1 507/30/1 508/31/1 509/32/1
f 507/45/1 510/46/1 511/47/1 508/48/1
f 510/45/1 512/46/1 513/47/1 511/48/1
f 512/45/1 514/46/1 515/47/1 513/48/1
f 514/45/1 516/46/1 517/47/1 515/48/1
f 516/29/1 518/30/1 519/31/1 517/32/1
f 520/25/1 521/26/1 522/27/1 523/28/1
f 521/25/1 524/26/1 525/27/1 522/28/1
f 526/49/1 527/50/1 528/51/1 529/52/1
f 527/49/1 530/50/1 486/51/1 528/52/1
f 530/49/1 531/50/1 487/51/1 486/52/1
f 531/49/1 532/50/1 488/51/1 487/52/1
f 533/65/1 534/66/1 495/67/1 494/68/1
f 535/49/1 536/50/1 498/51/1 537/52/1
f 536/49/1 538/50/1 499/51/1 498/52/1
f 538/49/1 539/50/1 502/51/1 499/52/1
f 539/49/1 540/50/1 504/51/1 502/52/1
f 540/49/1 541/50/1 506/51/1 504/52/1
f 541/49/1 542/50/1 507/51/1 506/52/1
f 542/49/1 543/50/1 510/51/1 507/52/1
f 543/49/1 544/50/1 512/51/1 510/52/1
f 544/49/1 545/50/1 514/51/1 512/52/1
f 545/49/1 546/50/1 516/51/1 514/52/1
f 546/49/1 547/50/1 518/51/1 516/52/1
f 547/49/1 548/50/1 520/51/1 518/52/1
f 548/49/1 549/50/1 521/51/1 520/52/1
f 549/49/1 550/50/1 524/51/1 521/52/1
f 550/49/1 551/50/1 526/51/1 524/52/1
f 552/49/1 553/50/1 533/51/1 554/52/1
f 553/49/1 555/50/1 534/51/1 533/52/1
f 555/49/1 556/50/1 557/51/1 534/52/1
f 556/49/1 558/50/1 535/51/1 557/52/1
f 559/37/1 560/38/1 561/39/1 562/40/1
f 560/37/1 563/38/1 564/39/1 561/40/1
f 565/25/1 566/26/1 567/27/1 568/28/1
f 566/25/1 569/26/1 570/27/1 567/28/1
f 569/25/1 571/26/1 572/27/1 570/28/1
f 573/25/1 574/26/1 575/27/1 576/28/1
f 577/37/1 578/38/1 579/39/1 580/40/1
f 578/37/1 581/38/1 582/39/1 579/40/1
f 583/25/1 584/26/1 585/27/1 586/28/1
f 584/25/1 587/26/1 588/27/1 585/28/1
f 589/29/1 590/30/1 559/31/1 591/32/1
f 590/49/1 592/50/1 560/51/1 559/52/1
f 592/49/1 593/50/1 563/51/1 560/52/1
f 593/49/1 594/50/1 565/51/1 563/52/1
f 594/49/1 595/50/1 566/51/1 565/52/1
f 595/49/1 596/50/1 569/51/1 566/52/1
f 596/49/1 597/50/1 571/51/1 569/52/1
f 597/49/1 598/50/1 599/51/1 571/52/1
f 600/49/1 601/50/1 573/51/1 602/52/1
f 601/49/1 603/50/1 574/51/1 573/52/1
f 603/49/1 604/50/1 577/51/1 574/52/1
f 604/49/1 605/50/1 578/51/1 577/52/1
f 605/49/1 606/50/1 581/51/1 578/52/1
f 606/49/1 607/50/1 583/51/1 581/52/1
f 607/49/1 608/50/1 584/51/1 583/52/1
f 608/49/1 609/50/1 587/51/1 584/52/1
f 609/49/1 610/50/1 589/51/1 587/52/1
f 610/49/1 611/50/1 590/51/1 589/52/1

