# Wavefront OBJ file automatically generated by Tiled2Unity

# Vertices (Count = 387)
v -80 -320 0
v -160 -320 0
v -160 -240 0
v -80 -240 0
v -240 -320 0
v -320 -320 0
v -320 -240 0
v -240 -240 0
v -400 -320 0
v -480 -320 0
v -480 -240 0
v -400 -240 0
v -560 -320 0
v -640 -320 0
v -640 -240 0
v -560 -240 0
v -720 -320 0
v -800 -320 0
v -800 -240 0
v -720 -240 0
v 0 -400 0
v -80 -400 0
v 0 -320 0
v -160 -400 0
v -240 -400 0
v -320 -400 0
v -400 -400 0
v -480 -400 0
v -560 -400 0
v -640 -400 0
v -720 -400 0
v -800 -400 0
v -880 -400 0
v -880 -320 0
v -1040 -400 0
v -1120 -400 0
v -1120 -320 0
v -1040 -320 0
v -1200 -400 0
v -1280 -400 0
v -1280 -320 0
v -1200 -320 0
v -1360 -400 0
v -1360 -320 0
v -1440 -400 0
v -1520 -400 0
v -1520 -320 0
v -1440 -320 0
v -960 -480 0
v -1040 -480 0
v -960 -400 0
v -1120 -480 0
v -1200 -480 0
v -1280 -480 0
v -1360 -480 0
v -1440 -480 0
v -1520 -480 0
v -1600 -480 0
v -1600 -400 0
v -1760 -560 0
v -1840 -560 0
v -1840 -480 0
v -1760 -480 0
v -2240 -560 0
v -2320 -560 0
v -2320 -480 0
v -2240 -480 0
v -2400 -560 0
v -2400 -480 0
v -80 -640 0
v -160 -640 0
v -160 -560 0
v -80 -560 0
v -240 -640 0
v -240 -560 0
v -1680 -640 0
v -1760 -640 0
v -1680 -560 0
v -1840 -640 0
v -1920 -640 0
v -1920 -560 0
v -2000 -640 0
v -2000 -560 0
v -2080 -640 0
v -2080 -560 0
v -2160 -640 0
v -2160 -560 0
v -2240 -640 0
v -2320 -640 0
v -2400 -640 0
v -2480 -640 0
v -2480 -560 0
v 0 -720 0
v -80 -720 0
v 0 -640 0
v -160 -720 0
v -240 -720 0
v -320 -720 0
v -400 -720 0
v -400 -640 0
v -320 -640 0
v -480 -720 0
v -480 -640 0
v -560 -720 0
v -560 -640 0
v -640 -720 0
v -640 -640 0
v -720 -720 0
v -720 -640 0
v 0 -800 0
v -80 -800 0
v -160 -800 0
v -240 -800 0
v -320 -800 0
v -400 -800 0
v -480 -800 0
v -560 -800 0
v -640 -800 0
v -720 -800 0
v -800 -800 0
v -800 -720 0
v -880 -800 0
v -880 -720 0
v -960 -800 0
v -1040 -800 0
v -1040 -720 0
v -960 -720 0
v -2640 -800 0
v -2720 -800 0
v -2720 -720 0
v -2640 -720 0
v -2800 -800 0
v -2880 -800 0
v -2880 -720 0
v -2800 -720 0
v -2960 -800 0
v -3040 -800 0
v -3040 -720 0
v -2960 -720 0
v -3440 -800 0
v -3520 -800 0
v -3520 -720 0
v -3440 -720 0
v -3600 -800 0
v -3680 -800 0
v -3680 -720 0
v -3600 -720 0
v -3760 -800 0
v -3840 -800 0
v -3840 -720 0
v -3760 -720 0
v -880 -880 0
v -960 -880 0
v -1040 -880 0
v -1120 -880 0
v -1120 -800 0
v -1200 -880 0
v -1200 -800 0
v -1280 -880 0
v -1280 -800 0
v -1360 -880 0
v -1360 -800 0
v -2560 -880 0
v -2640 -880 0
v -2560 -800 0
v -2720 -880 0
v -2800 -880 0
v -2880 -880 0
v -2960 -880 0
v -3040 -880 0
v -3120 -880 0
v -3120 -800 0
v -3200 -880 0
v -3200 -800 0
v -3280 -880 0
v -3280 -800 0
v -3360 -880 0
v -3360 -800 0
v -3440 -880 0
v -3520 -880 0
v -3600 -880 0
v -3680 -880 0
v -3760 -880 0
v -3840 -880 0
v -3920 -880 0
v -3920 -800 0
v -1120 -960 0
v -1200 -960 0
v -1280 -960 0
v -1360 -960 0
v -1440 -960 0
v -1520 -960 0
v -1520 -880 0
v -1440 -880 0
v -1600 -960 0
v -1600 -880 0
v -4080 -960 0
v -4160 -960 0
v -4160 -880 0
v -4080 -880 0
v -4240 -960 0
v -4320 -960 0
v -4320 -880 0
v -4240 -880 0
v -4400 -960 0
v -4480 -960 0
v -4480 -880 0
v -4400 -880 0
v -1360 -1040 0
v -1440 -1040 0
v -1520 -1040 0
v -1600 -1040 0
v -1680 -1040 0
v -1760 -1040 0
v -1760 -960 0
v -1680 -960 0
v -4000 -1040 0
v -4080 -1040 0
v -4000 -960 0
v -4160 -1040 0
v -4240 -1040 0
v -4320 -1040 0
v -4400 -1040 0
v -4480 -1040 0
v -4560 -1040 0
v -4560 -960 0
v -5840 -1040 0
v -5920 -1040 0
v -5920 -960 0
v -5840 -960 0
v -6000 -1040 0
v -6000 -960 0
v -1600 -1120 0
v -1680 -1120 0
v -1760 -1120 0
v -1840 -1120 0
v -1840 -1040 0
v -1920 -1120 0
v -1920 -1040 0
v -2000 -1120 0
v -2000 -1040 0
v -4720 -1120 0
v -4800 -1120 0
v -4800 -1040 0
v -4720 -1040 0
v -4880 -1120 0
v -4960 -1120 0
v -4960 -1040 0
v -4880 -1040 0
v -5040 -1120 0
v -5040 -1040 0
v -5120 -1120 0
v -5200 -1120 0
v -5200 -1040 0
v -5120 -1040 0
v -5600 -1120 0
v -5680 -1120 0
v -5680 -1040 0
v -5600 -1040 0
v -5760 -1120 0
v -5760 -1040 0
v -5840 -1120 0
v -5920 -1120 0
v -6000 -1120 0
v -1840 -1200 0
v -1920 -1200 0
v -2000 -1200 0
v -2080 -1200 0
v -2080 -1120 0
v -2160 -1200 0
v -2240 -1200 0
v -2240 -1120 0
v -2160 -1120 0
v -4640 -1200 0
v -4720 -1200 0
v -4640 -1120 0
v -4800 -1200 0
v -4880 -1200 0
v -4960 -1200 0
v -5040 -1200 0
v -5120 -1200 0
v -5200 -1200 0
v -5280 -1200 0
v -5280 -1120 0
v -5520 -1200 0
v -5600 -1200 0
v -5520 -1120 0
v -5680 -1200 0
v -5760 -1200 0
v -5840 -1200 0
v -5920 -1200 0
v -6000 -1200 0
v -2080 -1280 0
v -2160 -1280 0
v -2240 -1280 0
v -2320 -1280 0
v -2320 -1200 0
v -2400 -1280 0
v -2480 -1280 0
v -2480 -1200 0
v -2400 -1200 0
v -2320 -1360 0
v -2400 -1360 0
v -2480 -1360 0
v -2560 -1360 0
v -2560 -1280 0
v -2560 -1440 0
v -2640 -1440 0
v -2640 -1360 0
v -2720 -1440 0
v -2720 -1360 0
v -2800 -1440 0
v -2800 -1360 0
v -2880 -1440 0
v -2960 -1440 0
v -2960 -1360 0
v -2880 -1360 0
v -2800 -1520 0
v -2880 -1520 0
v -2960 -1520 0
v -3040 -1520 0
v -3040 -1440 0
v -3120 -1520 0
v -3200 -1520 0
v -3200 -1440 0
v -3120 -1440 0
v -3520 -1520 0
v -3600 -1520 0
v -3600 -1440 0
v -3520 -1440 0
v -3680 -1520 0
v -3680 -1440 0
v -4080 -1520 0
v -4160 -1520 0
v -4160 -1440 0
v -4080 -1440 0
v -4480 -1520 0
v -4560 -1520 0
v -4560 -1440 0
v -4480 -1440 0
v -4640 -1520 0
v -4640 -1440 0
v -4800 -1520 0
v -4880 -1520 0
v -4880 -1440 0
v -4800 -1440 0
v -4960 -1520 0
v -4960 -1440 0
v -5200 -1520 0
v -5280 -1520 0
v -5280 -1440 0
v -5200 -1440 0
v -5360 -1520 0
v -5360 -1440 0
v -3040 -1600 0
v -3120 -1600 0
v -3200 -1600 0
v -3280 -1600 0
v -3280 -1520 0
v -3440 -1600 0
v -3520 -1600 0
v -3440 -1520 0
v -3600 -1600 0
v -3680 -1600 0
v -3760 -1600 0
v -3760 -1520 0
v -3840 -1600 0
v -3840 -1520 0
v -3920 -1600 0
v -3920 -1520 0
v -4000 -1600 0
v -4000 -1520 0
v -4080 -1600 0
v -4160 -1600 0
v -4240 -1600 0
v -4240 -1520 0
v -4480 -1600 0
v -4560 -1600 0
v -4640 -1600 0
v -4800 -1600 0
v -4880 -1600 0
v -4960 -1600 0
v -5200 -1600 0
v -5280 -1600 0
v -5360 -1600 0
v -5440 -1600 0
v -5440 -1520 0

# Texture cooridinates (Count = 68)
vt 0.2501221 0.7501221
vt 0.3748779 0.7501221
vt 0.3748779 0.9998779
vt 0.2501221 0.9998779
vt 0.7501221 0.7501221
vt 0.8748779 0.7501221
vt 0.8748779 0.9998779
vt 0.7501221 0.9998779
vt 0.6251221 0.7501221
vt 0.7498779 0.7501221
vt 0.7498779 0.9998779
vt 0.6251221 0.9998779
vt 0.1251221 0.7501221
vt 0.2498779 0.7501221
vt 0.2498779 0.9998779
vt 0.1251221 0.9998779
vt 0.3751221 0.7501221
vt 0.4998779 0.7501221
vt 0.4998779 0.9998779
vt 0.3751221 0.9998779
vt 0.5001221 0.7501221
vt 0.6248779 0.7501221
vt 0.6248779 0.9998779
vt 0.5001221 0.9998779
vt 0.2501221 0.2501221
vt 0.3748779 0.2501221
vt 0.3748779 0.4998779
vt 0.2501221 0.4998779
vt 0.3751221 0.2501221
vt 0.4998779 0.2501221
vt 0.4998779 0.4998779
vt 0.3751221 0.4998779
vt 0.2501221 0.5001221
vt 0.3748779 0.5001221
vt 0.3748779 0.7498779
vt 0.2501221 0.7498779
vt 0.0001220703 0.7501221
vt 0.1248779 0.7501221
vt 0.1248779 0.9998779
vt 0.0001220703 0.9998779
vt 0.2501221 0.0001220703
vt 0.3748779 0.0001220703
vt 0.3748779 0.2498779
vt 0.2501221 0.2498779
vt 0.3751221 0.0001220703
vt 0.4998779 0.0001220703
vt 0.4998779 0.2498779
vt 0.3751221 0.2498779
vt 0.8751221 0.7501221
vt 0.9998779 0.7501221
vt 0.9998779 0.9998779
vt 0.8751221 0.9998779
vt 0.0001220703 0.2501221
vt 0.1248779 0.2501221
vt 0.1248779 0.4998779
vt 0.0001220703 0.4998779
vt 0.1251221 0.2501221
vt 0.2498779 0.2501221
vt 0.2498779 0.4998779
vt 0.1251221 0.4998779
vt 0.0001220703 0.0001220703
vt 0.1248779 0.0001220703
vt 0.1248779 0.2498779
vt 0.0001220703 0.2498779
vt 0.1251221 0.0001220703
vt 0.2498779 0.0001220703
vt 0.2498779 0.2498779
vt 0.1251221 0.2498779

# Normal
vn 0 0 -1

# Groups (Count = 1)

g mesh_0001
f 1/1/1 2/2/1 3/3/1 4/4/1
f 5/5/1 6/6/1 7/7/1 8/8/1
f 9/1/1 10/2/1 11/3/1 12/4/1
f 13/9/1 14/10/1 15/11/1 16/12/1
f 17/1/1 18/2/1 19/3/1 20/4/1
f 21/13/1 22/14/1 1/15/1 23/16/1
f 22/13/1 24/14/1 2/15/1 1/16/1
f 24/13/1 25/14/1 5/15/1 2/16/1
f 25/13/1 26/14/1 6/15/1 5/16/1
f 26/13/1 27/14/1 9/15/1 6/16/1
f 27/13/1 28/14/1 10/15/1 9/16/1
f 28/13/1 29/14/1 13/15/1 10/16/1
f 29/13/1 30/14/1 14/15/1 13/16/1
f 30/13/1 31/14/1 17/15/1 14/16/1
f 31/13/1 32/14/1 18/15/1 17/16/1
f 32/13/1 33/14/1 34/15/1 18/16/1
f 35/1/1 36/2/1 37/3/1 38/4/1
f 39/17/1 40/18/1 41/19/1 42/20/1
f 40/21/1 43/22/1 44/23/1 41/24/1
f 45/1/1 46/2/1 47/3/1 48/4/1
f 49/13/1 50/14/1 35/15/1 51/16/1
f 50/13/1 52/14/1 36/15/1 35/16/1
f 52/13/1 53/14/1 39/15/1 36/16/1
f 53/13/1 54/14/1 40/15/1 39/16/1
f 54/13/1 55/14/1 43/15/1 40/16/1
f 55/13/1 56/14/1 45/15/1 43/16/1
f 56/13/1 57/14/1 46/15/1 45/16/1
f 57/13/1 58/14/1 59/15/1 46/16/1
f 60/1/1 61/2/1 62/3/1 63/4/1
f 64/1/1 65/2/1 66/3/1 67/4/1
f 65/1/1 68/2/1 69/3/1 66/4/1
f 70/25/1 71/26/1 72/27/1 73/28/1
f 71/29/1 74/30/1 75/31/1 72/32/1
f 76/13/1 77/14/1 60/15/1 78/16/1
f 77/13/1 79/14/1 61/15/1 60/16/1
f 79/13/1 80/14/1 81/15/1 61/16/1
f 80/33/1 82/34/1 83/35/1 81/36/1
f 82/33/1 84/34/1 85/35/1 83/36/1
f 84/33/1 86/34/1 87/35/1 85/36/1
f 86/13/1 88/14/1 64/15/1 87/16/1
f 88/13/1 89/14/1 65/15/1 64/16/1
f 89/13/1 90/14/1 68/15/1 65/16/1
f 90/13/1 91/14/1 92/15/1 68/16/1
f 93/37/1 94/38/1 70/39/1 95/40/1
f 94/41/1 96/42/1 71/43/1 70/44/1
f 96/45/1 97/46/1 74/47/1 71/48/1
f 98/1/1 99/2/1 100/3/1 101/4/1
f 99/1/1 102/2/1 103/3/1 100/4/1
f 102/1/1 104/2/1 105/3/1 103/4/1
f 104/1/1 106/2/1 107/3/1 105/4/1
f 106/1/1 108/2/1 109/3/1 107/4/1
f 110/13/1 111/14/1 94/15/1 93/16/1
f 111/13/1 112/14/1 96/15/1 94/16/1
f 112/13/1 113/14/1 97/15/1 96/16/1
f 113/13/1 114/14/1 98/15/1 97/16/1
f 114/13/1 115/14/1 99/15/1 98/16/1
f 115/13/1 116/14/1 102/15/1 99/16/1
f 116/13/1 117/14/1 104/15/1 102/16/1
f 117/13/1 118/14/1 106/15/1 104/16/1
f 118/13/1 119/14/1 108/15/1 106/16/1
f 119/13/1 120/14/1 121/15/1 108/16/1
f 120/13/1 122/14/1 123/15/1 121/16/1
f 124/1/1 125/2/1 126/3/1 127/4/1
f 128/1/1 129/2/1 130/3/1 131/4/1
f 132/21/1 133/22/1 134/23/1 135/24/1
f 136/1/1 137/2/1 138/3/1 139/4/1
f 140/1/1 141/2/1 142/3/1 143/4/1
f 144/21/1 145/22/1 146/23/1 147/24/1
f 148/1/1 149/2/1 150/3/1 151/4/1
f 152/13/1 153/14/1 124/15/1 122/16/1
f 153/13/1 154/14/1 125/15/1 124/16/1
f 154/13/1 155/14/1 156/15/1 125/16/1
f 155/9/1 157/10/1 158/11/1 156/12/1
f 157/1/1 159/2/1 160/3/1 158/4/1
f 159/1/1 161/2/1 162/3/1 160/4/1
f 163/49/1 164/50/1 128/51/1 165/52/1
f 164/13/1 166/14/1 129/15/1 128/16/1
f 166/13/1 167/14/1 132/15/1 129/16/1
f 167/13/1 168/14/1 133/15/1 132/16/1
f 168/13/1 169/14/1 136/15/1 133/16/1
f 169/13/1 170/14/1 137/15/1 136/16/1
f 170/13/1 171/14/1 172/15/1 137/16/1
f 171/33/1 173/34/1 174/35/1 172/36/1
f 173/33/1 175/34/1 176/35/1 174/36/1
f 175/33/1 177/34/1 178/35/1 176/36/1
f 177/13/1 179/14/1 140/15/1 178/16/1
f 179/13/1 180/14/1 141/15/1 140/16/1
f 180/13/1 181/14/1 144/15/1 141/16/1
f 181/13/1 182/14/1 145/15/1 144/16/1
f 182/13/1 183/14/1 148/15/1 145/16/1
f 183/13/1 184/14/1 149/15/1 148/16/1
f 184/13/1 185/14/1 186/15/1 149/16/1
f 187/13/1 188/14/1 157/15/1 155/16/1
f 188/13/1 189/14/1 159/15/1 157/16/1
f 189/13/1 190/14/1 161/15/1 159/16/1
f 191/1/1 192/2/1 193/3/1 194/4/1
f 192/1/1 195/2/1 196/3/1 193/4/1
f 197/1/1 198/2/1 199/3/1 200/4/1
f 201/17/1 202/18/1 203/19/1 204/20/1
f 205/1/1 206/2/1 207/3/1 208/4/1
f 209/33/1 210/34/1 191/35/1 190/36/1
f 210/13/1 211/14/1 192/15/1 191/16/1
f 211/13/1 212/14/1 195/15/1 192/16/1
f 213/1/1 214/2/1 215/3/1 216/4/1
f 217/13/1 218/14/1 197/15/1 219/16/1
f 218/13/1 220/14/1 198/15/1 197/16/1
f 220/13/1 221/14/1 201/15/1 198/16/1
f 221/13/1 222/14/1 202/15/1 201/16/1
f 222/13/1 223/14/1 205/15/1 202/16/1
f 223/13/1 224/14/1 206/15/1 205/16/1
f 224/13/1 225/14/1 226/15/1 206/16/1
f 227/53/1 228/54/1 229/55/1 230/56/1
f 228/57/1 231/58/1 232/59/1 229/60/1
f 233/13/1 234/14/1 213/15/1 212/16/1
f 234/13/1 235/14/1 214/15/1 213/16/1
f 235/13/1 236/14/1 237/15/1 214/16/1
f 236/5/1 238/6/1 239/7/1 237/8/1
f 238/5/1 240/6/1 241/7/1 239/8/1
f 242/1/1 243/2/1 244/3/1 245/4/1
f 246/9/1 247/10/1 248/11/1 249/12/1
f 247/9/1 250/10/1 251/11/1 248/12/1
f 252/1/1 253/2/1 254/3/1 255/4/1
f 256/1/1 257/2/1 258/3/1 259/4/1
f 257/1/1 260/2/1 261/3/1 258/4/1
f 260/1/1 262/2/1 227/3/1 261/4/1
f 262/61/1 263/62/1 228/63/1 227/64/1
f 263/65/1 264/66/1 231/67/1 228/68/1
f 265/13/1 266/14/1 238/15/1 236/16/1
f 266/13/1 267/14/1 240/15/1 238/16/1
f 267/13/1 268/14/1 269/15/1 240/16/1
f 270/1/1 271/2/1 272/3/1 273/4/1
f 274/13/1 275/14/1 242/15/1 276/16/1
f 275/13/1 277/14/1 243/15/1 242/16/1
f 277/13/1 278/14/1 246/15/1 243/16/1
f 278/13/1 279/14/1 247/15/1 246/16/1
f 279/13/1 280/14/1 250/15/1 247/16/1
f 280/13/1 281/14/1 252/15/1 250/16/1
f 281/13/1 282/14/1 253/15/1 252/16/1
f 282/13/1 283/14/1 284/15/1 253/16/1
f 285/13/1 286/14/1 256/15/1 287/16/1
f 286/13/1 288/14/1 257/15/1 256/16/1
f 288/13/1 289/14/1 260/15/1 257/16/1
f 289/13/1 290/14/1 262/15/1 260/16/1
f 290/13/1 291/14/1 263/15/1 262/16/1
f 291/13/1 292/14/1 264/15/1 263/16/1
f 293/13/1 294/14/1 270/15/1 268/16/1
f 294/13/1 295/14/1 271/15/1 270/16/1
f 295/13/1 296/14/1 297/15/1 271/16/1
f 298/1/1 299/2/1 300/3/1 301/4/1
f 302/13/1 303/14/1 298/15/1 296/16/1
f 303/13/1 304/14/1 299/15/1 298/16/1
f 304/13/1 305/14/1 306/15/1 299/16/1
f 307/13/1 308/14/1 309/15/1 305/16/1
f 308/33/1 310/34/1 311/35/1 309/36/1
f 310/33/1 312/34/1 313/35/1 311/36/1
f 314/1/1 315/2/1 316/3/1 317/4/1
f 318/13/1 319/14/1 314/15/1 312/16/1
f 319/13/1 320/14/1 315/15/1 314/16/1
f 320/13/1 321/14/1 322/15/1 315/16/1
f 323/1/1 324/2/1 325/3/1 326/4/1
f 327/1/1 328/2/1 329/3/1 330/4/1
f 328/1/1 331/2/1 332/3/1 329/4/1
f 333/1/1 334/2/1 335/3/1 336/4/1
f 337/1/1 338/2/1 339/3/1 340/4/1
f 338/1/1 341/2/1 342/3/1 339/4/1
f 343/1/1 344/2/1 345/3/1 346/4/1
f 344/1/1 347/2/1 348/3/1 345/4/1
f 349/1/1 350/2/1 351/3/1 352/4/1
f 350/1/1 353/2/1 354/3/1 351/4/1
f 355/13/1 356/14/1 323/15/1 321/16/1
f 356/13/1 357/14/1 324/15/1 323/16/1
f 357/13/1 358/14/1 359/15/1 324/16/1
f 360/13/1 361/14/1 327/15/1 362/16/1
f 361/13/1 363/14/1 328/15/1 327/16/1
f 363/13/1 364/14/1 331/15/1 328/16/1
f 364/13/1 365/14/1 366/15/1 331/16/1
f 365/33/1 367/34/1 368/35/1 366/36/1
f 367/33/1 369/34/1 370/35/1 368/36/1
f 369/33/1 371/34/1 372/35/1 370/36/1
f 371/13/1 373/14/1 333/15/1 372/16/1
f 373/13/1 374/14/1 334/15/1 333/16/1
f 374/13/1 375/14/1 376/15/1 334/16/1
f 377/13/1 378/14/1 338/15/1 337/16/1
f 378/13/1 379/14/1 341/15/1 338/16/1
f 380/13/1 381/14/1 344/15/1 343/16/1
f 381/13/1 382/14/1 347/15/1 344/16/1
f 383/13/1 384/14/1 350/15/1 349/16/1
f 384/13/1 385/14/1 353/15/1 350/16/1
f 385/49/1 386/50/1 387/51/1 353/52/1

