# Wavefront OBJ file automatically generated by Tiled2Unity

# Vertices (Count = 369)
v -5120 -400 0
v -5200 -400 0
v -5200 -320 0
v -5120 -320 0
v -5280 -400 0
v -5280 -320 0
v -5360 -400 0
v -5360 -320 0
v -5440 -400 0
v -5440 -320 0
v -6000 -400 0
v -6080 -400 0
v -6080 -320 0
v -6000 -320 0
v -6160 -400 0
v -6160 -320 0
v -6720 -400 0
v -6800 -400 0
v -6800 -320 0
v -6720 -320 0
v -6880 -400 0
v -6880 -320 0
v -6960 -400 0
v -6960 -320 0
v -7040 -400 0
v -7040 -320 0
v -7120 -400 0
v -7200 -400 0
v -7200 -320 0
v -7120 -320 0
v -7280 -400 0
v -7280 -320 0
v -7360 -400 0
v -7360 -320 0
v -7440 -400 0
v -7440 -320 0
v -7520 -400 0
v -7520 -320 0
v -7600 -400 0
v -7600 -320 0
v -7760 -400 0
v -7840 -400 0
v -7840 -320 0
v -7760 -320 0
v -7920 -400 0
v -7920 -320 0
v -8000 -400 0
v -8000 -320 0
v -80 -480 0
v -160 -480 0
v -160 -400 0
v -80 -400 0
v -2800 -480 0
v -2880 -480 0
v -2880 -400 0
v -2800 -400 0
v -2960 -480 0
v -2960 -400 0
v -3040 -480 0
v -3040 -400 0
v -3200 -480 0
v -3280 -480 0
v -3280 -400 0
v -3200 -400 0
v -3360 -480 0
v -3360 -400 0
v -3440 -480 0
v -3440 -400 0
v -3520 -480 0
v -3520 -400 0
v -3600 -480 0
v -3600 -400 0
v -3760 -480 0
v -3840 -480 0
v -3840 -400 0
v -3760 -400 0
v -3920 -480 0
v -3920 -400 0
v -4000 -480 0
v -4000 -400 0
v -4160 -480 0
v -4240 -480 0
v -4240 -400 0
v -4160 -400 0
v -4320 -480 0
v -4320 -400 0
v -4400 -480 0
v -4400 -400 0
v -4480 -480 0
v -4480 -400 0
v -4640 -480 0
v -4720 -480 0
v -4720 -400 0
v -4640 -400 0
v -4800 -480 0
v -4800 -400 0
v -4880 -480 0
v -4880 -400 0
v -5040 -480 0
v -5120 -480 0
v -5040 -400 0
v -5200 -480 0
v -5280 -480 0
v -5360 -480 0
v -5440 -480 0
v -5520 -480 0
v -5520 -400 0
v -5600 -480 0
v -5600 -400 0
v -5680 -480 0
v -5680 -400 0
v -5760 -480 0
v -5760 -400 0
v -5840 -480 0
v -5840 -400 0
v -5920 -480 0
v -5920 -400 0
v -6000 -480 0
v -6080 -480 0
v -6160 -480 0
v -6240 -480 0
v -6240 -400 0
v -6320 -480 0
v -6320 -400 0
v -6400 -480 0
v -6400 -400 0
v -6480 -480 0
v -6480 -400 0
v -6560 -480 0
v -6560 -400 0
v -6640 -480 0
v -6640 -400 0
v -6720 -480 0
v -6800 -480 0
v -6880 -480 0
v -6960 -480 0
v -7040 -480 0
v -7120 -480 0
v -7200 -480 0
v -7280 -480 0
v -7360 -480 0
v -7440 -480 0
v -7520 -480 0
v -7600 -480 0
v -7680 -480 0
v -7680 -400 0
v -7760 -480 0
v -7840 -480 0
v -7920 -480 0
v -8000 -480 0
v -8080 -480 0
v -8080 -400 0
v -8160 -480 0
v -8160 -400 0
v -8720 -480 0
v -8800 -480 0
v -8800 -400 0
v -8720 -400 0
v -8880 -480 0
v -8880 -400 0
v -8960 -480 0
v -8960 -400 0
v -9040 -480 0
v -9040 -400 0
v -9120 -480 0
v -9120 -400 0
v 0 -560 0
v -80 -560 0
v 0 -480 0
v -160 -560 0
v -400 -560 0
v -480 -560 0
v -480 -480 0
v -400 -480 0
v -560 -560 0
v -560 -480 0
v -640 -560 0
v -640 -480 0
v -720 -560 0
v -720 -480 0
v -800 -560 0
v -800 -480 0
v -960 -560 0
v -1040 -560 0
v -1040 -480 0
v -960 -480 0
v -1120 -560 0
v -1120 -480 0
v -1200 -560 0
v -1200 -480 0
v -1280 -560 0
v -1280 -480 0
v -1440 -560 0
v -1520 -560 0
v -1520 -480 0
v -1440 -480 0
v -1600 -560 0
v -1600 -480 0
v -1680 -560 0
v -1680 -480 0
v -1840 -560 0
v -1920 -560 0
v -1920 -480 0
v -1840 -480 0
v -2000 -560 0
v -2000 -480 0
v -2080 -560 0
v -2080 -480 0
v -2160 -560 0
v -2160 -480 0
v -2240 -560 0
v -2320 -560 0
v -2320 -480 0
v -2240 -480 0
v -2400 -560 0
v -2400 -480 0
v -2480 -560 0
v -2480 -480 0
v -2560 -560 0
v -2560 -480 0
v -2640 -560 0
v -2720 -560 0
v -2720 -480 0
v -2640 -480 0
v -2800 -560 0
v -2880 -560 0
v -2960 -560 0
v -3040 -560 0
v -3120 -560 0
v -3120 -480 0
v -3200 -560 0
v -3280 -560 0
v -3360 -560 0
v -3440 -560 0
v -3520 -560 0
v -3600 -560 0
v -3680 -560 0
v -3680 -480 0
v -3760 -560 0
v -3840 -560 0
v -3920 -560 0
v -4000 -560 0
v -4080 -560 0
v -4080 -480 0
v -4160 -560 0
v -4240 -560 0
v -4320 -560 0
v -4400 -560 0
v -4480 -560 0
v -4560 -560 0
v -4560 -480 0
v -4640 -560 0
v -4720 -560 0
v -4800 -560 0
v -4880 -560 0
v -4960 -560 0
v -4960 -480 0
v -5040 -560 0
v -8160 -560 0
v -8240 -560 0
v -8240 -480 0
v -8320 -560 0
v -8320 -480 0
v -8400 -560 0
v -8400 -480 0
v -8480 -560 0
v -8480 -480 0
v -8560 -560 0
v -8560 -480 0
v -8640 -560 0
v -8640 -480 0
v -8720 -560 0
v -8800 -560 0
v -8880 -560 0
v -8960 -560 0
v -9040 -560 0
v -9120 -560 0
v -9200 -560 0
v -9200 -480 0
v -9920 -560 0
v -10000 -560 0
v -10000 -480 0
v -9920 -480 0
v -10080 -560 0
v -10080 -480 0
v -10160 -560 0
v -10160 -480 0
v -10240 -560 0
v -10240 -480 0
v -10320 -560 0
v -10320 -480 0
v -10560 -560 0
v -10640 -560 0
v -10640 -480 0
v -10560 -480 0
v -10720 -560 0
v -10720 -480 0
v -10800 -560 0
v -10800 -480 0
v 0 -640 0
v -80 -640 0
v -160 -640 0
v -240 -640 0
v -240 -560 0
v -320 -640 0
v -320 -560 0
v -400 -640 0
v -480 -640 0
v -560 -640 0
v -640 -640 0
v -720 -640 0
v -800 -640 0
v -880 -640 0
v -880 -560 0
v -960 -640 0
v -1040 -640 0
v -1120 -640 0
v -1200 -640 0
v -1280 -640 0
v -1360 -640 0
v -1360 -560 0
v -1440 -640 0
v -1520 -640 0
v -1600 -640 0
v -1680 -640 0
v -1760 -640 0
v -1760 -560 0
v -1840 -640 0
v -1920 -640 0
v -2000 -640 0
v -2080 -640 0
v -2160 -640 0
v -2240 -640 0
v -2320 -640 0
v -2400 -640 0
v -2480 -640 0
v -2560 -640 0
v -2640 -640 0
v -9200 -640 0
v -9280 -640 0
v -9280 -560 0
v -9360 -640 0
v -9360 -560 0
v -9440 -640 0
v -9440 -560 0
v -9520 -640 0
v -9520 -560 0
v -9600 -640 0
v -9600 -560 0
v -9680 -640 0
v -9680 -560 0
v -9760 -640 0
v -9760 -560 0
v -9840 -640 0
v -9840 -560 0
v -9920 -640 0
v -10000 -640 0
v -10080 -640 0
v -10160 -640 0
v -10240 -640 0
v -10320 -640 0
v -10400 -640 0
v -10400 -560 0
v -10480 -640 0
v -10480 -560 0
v -10560 -640 0
v -10640 -640 0
v -10720 -640 0
v -10800 -640 0

# Texture cooridinates (Count = 40)
vt 0.2501221 0.7501221
vt 0.3748779 0.7501221
vt 0.3748779 0.9998779
vt 0.2501221 0.9998779
vt 0.3751221 0.7501221
vt 0.4998779 0.7501221
vt 0.4998779 0.9998779
vt 0.3751221 0.9998779
vt 0.6251221 0.7501221
vt 0.7498779 0.7501221
vt 0.7498779 0.9998779
vt 0.6251221 0.9998779
vt 0.5001221 0.7501221
vt 0.6248779 0.7501221
vt 0.6248779 0.9998779
vt 0.5001221 0.9998779
vt 0.6251221 0.2501221
vt 0.7498779 0.2501221
vt 0.7498779 0.4998779
vt 0.6251221 0.4998779
vt 0.1251221 0.7501221
vt 0.2498779 0.7501221
vt 0.2498779 0.9998779
vt 0.1251221 0.9998779
vt 0.2501221 0.5001221
vt 0.3748779 0.5001221
vt 0.3748779 0.7498779
vt 0.2501221 0.7498779
vt 0.0001220703 0.7501221
vt 0.1248779 0.7501221
vt 0.1248779 0.9998779
vt 0.0001220703 0.9998779
vt 0.6251221 0.0001220703
vt 0.7498779 0.0001220703
vt 0.7498779 0.2498779
vt 0.6251221 0.2498779
vt 0.7501221 0.7501221
vt 0.8748779 0.7501221
vt 0.8748779 0.9998779
vt 0.7501221 0.9998779

# Normal
vn 0 0 -1

# Groups (Count = 1)

g mesh_0001
f 1/1/1 2/2/1 3/3/1 4/4/1
f 2/1/1 5/2/1 6/3/1 3/4/1
f 5/1/1 7/2/1 8/3/1 6/4/1
f 7/1/1 9/2/1 10/3/1 8/4/1
f 11/1/1 12/2/1 13/3/1 14/4/1
f 12/1/1 15/2/1 16/3/1 13/4/1
f 17/1/1 18/2/1 19/3/1 20/4/1
f 18/1/1 21/2/1 22/3/1 19/4/1
f 21/1/1 23/2/1 24/3/1 22/4/1
f 23/1/1 25/2/1 26/3/1 24/4/1
f 27/5/1 28/6/1 29/7/1 30/8/1
f 28/9/1 31/10/1 32/11/1 29/12/1
f 31/13/1 33/14/1 34/15/1 32/16/1
f 33/13/1 35/14/1 36/15/1 34/16/1
f 35/9/1 37/10/1 38/11/1 36/12/1
f 37/5/1 39/6/1 40/7/1 38/8/1
f 41/1/1 42/2/1 43/3/1 44/4/1
f 42/1/1 45/2/1 46/3/1 43/4/1
f 45/1/1 47/2/1 48/3/1 46/4/1
f 49/17/1 50/18/1 51/19/1 52/20/1
f 53/1/1 54/2/1 55/3/1 56/4/1
f 54/1/1 57/2/1 58/3/1 55/4/1
f 57/1/1 59/2/1 60/3/1 58/4/1
f 61/13/1 62/14/1 63/15/1 64/16/1
f 62/13/1 65/14/1 66/15/1 63/16/1
f 65/13/1 67/14/1 68/15/1 66/16/1
f 67/13/1 69/14/1 70/15/1 68/16/1
f 69/13/1 71/14/1 72/15/1 70/16/1
f 73/1/1 74/2/1 75/3/1 76/4/1
f 74/1/1 77/2/1 78/3/1 75/4/1
f 77/1/1 79/2/1 80/3/1 78/4/1
f 81/5/1 82/6/1 83/7/1 84/8/1
f 82/5/1 85/6/1 86/7/1 83/8/1
f 85/5/1 87/6/1 88/7/1 86/8/1
f 87/5/1 89/6/1 90/7/1 88/8/1
f 91/1/1 92/2/1 93/3/1 94/4/1
f 92/1/1 95/2/1 96/3/1 93/4/1
f 95/1/1 97/2/1 98/3/1 96/4/1
f 99/21/1 100/22/1 1/23/1 101/24/1
f 100/21/1 102/22/1 2/23/1 1/24/1
f 102/21/1 103/22/1 5/23/1 2/24/1
f 103/21/1 104/22/1 7/23/1 5/24/1
f 104/21/1 105/22/1 9/23/1 7/24/1
f 105/21/1 106/22/1 107/23/1 9/24/1
f 106/25/1 108/26/1 109/27/1 107/28/1
f 108/25/1 110/26/1 111/27/1 109/28/1
f 110/25/1 112/26/1 113/27/1 111/28/1
f 112/25/1 114/26/1 115/27/1 113/28/1
f 114/25/1 116/26/1 117/27/1 115/28/1
f 116/21/1 118/22/1 11/23/1 117/24/1
f 118/21/1 119/22/1 12/23/1 11/24/1
f 119/21/1 120/22/1 15/23/1 12/24/1
f 120/21/1 121/22/1 122/23/1 15/24/1
f 121/25/1 123/26/1 124/27/1 122/28/1
f 123/25/1 125/26/1 126/27/1 124/28/1
f 125/25/1 127/26/1 128/27/1 126/28/1
f 127/25/1 129/26/1 130/27/1 128/28/1
f 129/25/1 131/26/1 132/27/1 130/28/1
f 131/21/1 133/22/1 17/23/1 132/24/1
f 133/21/1 134/22/1 18/23/1 17/24/1
f 134/21/1 135/22/1 21/23/1 18/24/1
f 135/21/1 136/22/1 23/23/1 21/24/1
f 136/21/1 137/22/1 25/23/1 23/24/1
f 137/21/1 138/22/1 27/23/1 25/24/1
f 138/21/1 139/22/1 28/23/1 27/24/1
f 139/21/1 140/22/1 31/23/1 28/24/1
f 140/21/1 141/22/1 33/23/1 31/24/1
f 141/21/1 142/22/1 35/23/1 33/24/1
f 142/21/1 143/22/1 37/23/1 35/24/1
f 143/21/1 144/22/1 39/23/1 37/24/1
f 144/21/1 145/22/1 146/23/1 39/24/1
f 145/21/1 147/22/1 41/23/1 146/24/1
f 147/21/1 148/22/1 42/23/1 41/24/1
f 148/21/1 149/22/1 45/23/1 42/24/1
f 149/21/1 150/22/1 47/23/1 45/24/1
f 150/21/1 151/22/1 152/23/1 47/24/1
f 151/21/1 153/22/1 154/23/1 152/24/1
f 155/1/1 156/2/1 157/3/1 158/4/1
f 156/1/1 159/2/1 160/3/1 157/4/1
f 159/1/1 161/2/1 162/3/1 160/4/1
f 161/1/1 163/2/1 164/3/1 162/4/1
f 163/1/1 165/2/1 166/3/1 164/4/1
f 167/29/1 168/30/1 49/31/1 169/32/1
f 168/33/1 170/34/1 50/35/1 49/36/1
f 171/1/1 172/2/1 173/3/1 174/4/1
f 172/1/1 175/2/1 176/3/1 173/4/1
f 175/1/1 177/2/1 178/3/1 176/4/1
f 177/1/1 179/2/1 180/3/1 178/4/1
f 179/1/1 181/2/1 182/3/1 180/4/1
f 183/9/1 184/10/1 185/11/1 186/12/1
f 184/9/1 187/10/1 188/11/1 185/12/1
f 187/9/1 189/10/1 190/11/1 188/12/1
f 189/9/1 191/10/1 192/11/1 190/12/1
f 193/1/1 194/2/1 195/3/1 196/4/1
f 194/1/1 197/2/1 198/3/1 195/4/1
f 197/1/1 199/2/1 200/3/1 198/4/1
f 201/37/1 202/38/1 203/39/1 204/40/1
f 202/37/1 205/38/1 206/39/1 203/40/1
f 205/37/1 207/38/1 208/39/1 206/40/1
f 207/37/1 209/38/1 210/39/1 208/40/1
f 211/1/1 212/2/1 213/3/1 214/4/1
f 212/1/1 215/2/1 216/3/1 213/4/1
f 215/1/1 217/2/1 218/3/1 216/4/1
f 217/1/1 219/2/1 220/3/1 218/4/1
f 221/21/1 222/22/1 223/23/1 224/24/1
f 222/21/1 225/22/1 53/23/1 223/24/1
f 225/21/1 226/22/1 54/23/1 53/24/1
f 226/21/1 227/22/1 57/23/1 54/24/1
f 227/21/1 228/22/1 59/23/1 57/24/1
f 228/21/1 229/22/1 230/23/1 59/24/1
f 229/21/1 231/22/1 61/23/1 230/24/1
f 231/21/1 232/22/1 62/23/1 61/24/1
f 232/21/1 233/22/1 65/23/1 62/24/1
f 233/21/1 234/22/1 67/23/1 65/24/1
f 234/21/1 235/22/1 69/23/1 67/24/1
f 235/21/1 236/22/1 71/23/1 69/24/1
f 236/21/1 237/22/1 238/23/1 71/24/1
f 237/21/1 239/22/1 73/23/1 238/24/1
f 239/21/1 240/22/1 74/23/1 73/24/1
f 240/21/1 241/22/1 77/23/1 74/24/1
f 241/21/1 242/22/1 79/23/1 77/24/1
f 242/21/1 243/22/1 244/23/1 79/24/1
f 243/21/1 245/22/1 81/23/1 244/24/1
f 245/21/1 246/22/1 82/23/1 81/24/1
f 246/21/1 247/22/1 85/23/1 82/24/1
f 247/21/1 248/22/1 87/23/1 85/24/1
f 248/21/1 249/22/1 89/23/1 87/24/1
f 249/21/1 250/22/1 251/23/1 89/24/1
f 250/21/1 252/22/1 91/23/1 251/24/1
f 252/21/1 253/22/1 92/23/1 91/24/1
f 253/21/1 254/22/1 95/23/1 92/24/1
f 254/21/1 255/22/1 97/23/1 95/24/1
f 255/21/1 256/22/1 257/23/1 97/24/1
f 256/21/1 258/22/1 99/23/1 257/24/1
f 259/25/1 260/26/1 261/27/1 153/28/1
f 260/25/1 262/26/1 263/27/1 261/28/1
f 262/25/1 264/26/1 265/27/1 263/28/1
f 264/25/1 266/26/1 267/27/1 265/28/1
f 266/25/1 268/26/1 269/27/1 267/28/1
f 268/25/1 270/26/1 271/27/1 269/28/1
f 270/21/1 272/22/1 155/23/1 271/24/1
f 272/21/1 273/22/1 156/23/1 155/24/1
f 273/21/1 274/22/1 159/23/1 156/24/1
f 274/21/1 275/22/1 161/23/1 159/24/1
f 275/21/1 276/22/1 163/23/1 161/24/1
f 276/21/1 277/22/1 165/23/1 163/24/1
f 277/21/1 278/22/1 279/23/1 165/24/1
f 280/1/1 281/2/1 282/3/1 283/4/1
f 281/1/1 284/2/1 285/3/1 282/4/1
f 284/1/1 286/2/1 287/3/1 285/4/1
f 286/1/1 288/2/1 289/3/1 287/4/1
f 288/1/1 290/2/1 291/3/1 289/4/1
f 292/37/1 293/38/1 294/39/1 295/40/1
f 293/37/1 296/38/1 297/39/1 294/40/1
f 296/37/1 298/38/1 299/39/1 297/40/1
f 300/21/1 301/22/1 168/23/1 167/24/1
f 301/21/1 302/22/1 170/23/1 168/24/1
f 302/21/1 303/22/1 304/23/1 170/24/1
f 303/21/1 305/22/1 306/23/1 304/24/1
f 305/21/1 307/22/1 171/23/1 306/24/1
f 307/21/1 308/22/1 172/23/1 171/24/1
f 308/21/1 309/22/1 175/23/1 172/24/1
f 309/21/1 310/22/1 177/23/1 175/24/1
f 310/21/1 311/22/1 179/23/1 177/24/1
f 311/21/1 312/22/1 181/23/1 179/24/1
f 312/21/1 313/22/1 314/23/1 181/24/1
f 313/21/1 315/22/1 183/23/1 314/24/1
f 315/21/1 316/22/1 184/23/1 183/24/1
f 316/21/1 317/22/1 187/23/1 184/24/1
f 317/21/1 318/22/1 189/23/1 187/24/1
f 318/21/1 319/22/1 191/23/1 189/24/1
f 319/21/1 320/22/1 321/23/1 191/24/1
f 320/21/1 322/22/1 193/23/1 321/24/1
f 322/21/1 323/22/1 194/23/1 193/24/1
f 323/21/1 324/22/1 197/23/1 194/24/1
f 324/21/1 325/22/1 199/23/1 197/24/1
f 325/21/1 326/22/1 327/23/1 199/24/1
f 326/21/1 328/22/1 201/23/1 327/24/1
f 328/21/1 329/22/1 202/23/1 201/24/1
f 329/21/1 330/22/1 205/23/1 202/24/1
f 330/21/1 331/22/1 207/23/1 205/24/1
f 331/21/1 332/22/1 209/23/1 207/24/1
f 332/21/1 333/22/1 211/23/1 209/24/1
f 333/21/1 334/22/1 212/23/1 211/24/1
f 334/21/1 335/22/1 215/23/1 212/24/1
f 335/21/1 336/22/1 217/23/1 215/24/1
f 336/21/1 337/22/1 219/23/1 217/24/1
f 337/21/1 338/22/1 221/23/1 219/24/1
f 339/25/1 340/26/1 341/27/1 278/28/1
f 340/25/1 342/26/1 343/27/1 341/28/1
f 342/25/1 344/26/1 345/27/1 343/28/1
f 344/25/1 346/26/1 347/27/1 345/28/1
f 346/25/1 348/26/1 349/27/1 347/28/1
f 348/25/1 350/26/1 351/27/1 349/28/1
f 350/21/1 352/22/1 353/23/1 351/24/1
f 352/21/1 354/22/1 355/23/1 353/24/1
f 354/21/1 356/22/1 280/23/1 355/24/1
f 356/21/1 357/22/1 281/23/1 280/24/1
f 357/21/1 358/22/1 284/23/1 281/24/1
f 358/21/1 359/22/1 286/23/1 284/24/1
f 359/21/1 360/22/1 288/23/1 286/24/1
f 360/21/1 361/22/1 290/23/1 288/24/1
f 361/21/1 362/22/1 363/23/1 290/24/1
f 362/21/1 364/22/1 365/23/1 363/24/1
f 364/21/1 366/22/1 292/23/1 365/24/1
f 366/21/1 367/22/1 293/23/1 292/24/1
f 367/21/1 368/22/1 296/23/1 293/24/1
f 368/21/1 369/22/1 298/23/1 296/24/1

