# Wavefront OBJ file automatically generated by Tiled2Unity

# Vertices (Count = 328)
v -9360 -240 0
v -9440 -240 0
v -9440 -160 0
v -9360 -160 0
v -9520 -240 0
v -9520 -160 0
v -80 -320 0
v -160 -320 0
v -160 -240 0
v -80 -240 0
v -240 -320 0
v -320 -320 0
v -320 -240 0
v -240 -240 0
v -400 -320 0
v -400 -240 0
v -480 -320 0
v -560 -320 0
v -560 -240 0
v -480 -240 0
v -640 -320 0
v -720 -320 0
v -720 -240 0
v -640 -240 0
v -800 -320 0
v -800 -240 0
v -880 -320 0
v -880 -240 0
v -960 -320 0
v -1040 -320 0
v -1040 -240 0
v -960 -240 0
v -1120 -320 0
v -1120 -240 0
v -1200 -320 0
v -1280 -320 0
v -1280 -240 0
v -1200 -240 0
v -1360 -320 0
v -1360 -240 0
v -1440 -320 0
v -1520 -320 0
v -1520 -240 0
v -1440 -240 0
v -1600 -320 0
v -1600 -240 0
v -1680 -320 0
v -1760 -320 0
v -1760 -240 0
v -1680 -240 0
v -1840 -320 0
v -1840 -240 0
v -1920 -320 0
v -2000 -320 0
v -2000 -240 0
v -1920 -240 0
v -2080 -320 0
v -2080 -240 0
v -2160 -320 0
v -2240 -320 0
v -2240 -240 0
v -2160 -240 0
v -2320 -320 0
v -2320 -240 0
v -2640 -320 0
v -2720 -320 0
v -2720 -240 0
v -2640 -240 0
v -2800 -320 0
v -2800 -240 0
v -3040 -320 0
v -3120 -320 0
v -3120 -240 0
v -3040 -240 0
v -3200 -320 0
v -3200 -240 0
v -3440 -320 0
v -3520 -320 0
v -3520 -240 0
v -3440 -240 0
v -3760 -320 0
v -3840 -320 0
v -3840 -240 0
v -3760 -240 0
v -3920 -320 0
v -3920 -240 0
v -4160 -320 0
v -4240 -320 0
v -4240 -240 0
v -4160 -240 0
v -4560 -320 0
v -4640 -320 0
v -4640 -240 0
v -4560 -240 0
v -4720 -320 0
v -4800 -320 0
v -4800 -240 0
v -4720 -240 0
v -4880 -320 0
v -4880 -240 0
v -4960 -320 0
v -4960 -240 0
v -5120 -320 0
v -5200 -320 0
v -5200 -240 0
v -5120 -240 0
v -5280 -320 0
v -5280 -240 0
v -5360 -320 0
v -5360 -240 0
v -5520 -320 0
v -5600 -320 0
v -5600 -240 0
v -5520 -240 0
v -5680 -320 0
v -5680 -240 0
v -5760 -320 0
v -5760 -240 0
v -5840 -320 0
v -5920 -320 0
v -5920 -240 0
v -5840 -240 0
v -6000 -320 0
v -6000 -240 0
v -6080 -320 0
v -6080 -240 0
v -6160 -320 0
v -6240 -320 0
v -6240 -240 0
v -6160 -240 0
v -6320 -320 0
v -6400 -320 0
v -6400 -240 0
v -6320 -240 0
v -6480 -320 0
v -6560 -320 0
v -6560 -240 0
v -6480 -240 0
v -6640 -320 0
v -6720 -320 0
v -6720 -240 0
v -6640 -240 0
v -7200 -320 0
v -7280 -320 0
v -7280 -240 0
v -7200 -240 0
v -7360 -320 0
v -7440 -320 0
v -7440 -240 0
v -7360 -240 0
v -7520 -320 0
v -7520 -240 0
v -7600 -320 0
v -7680 -320 0
v -7680 -240 0
v -7600 -240 0
v -7760 -320 0
v -7760 -240 0
v -7840 -320 0
v -7920 -320 0
v -7920 -240 0
v -7840 -240 0
v -8000 -320 0
v -8000 -240 0
v -8080 -320 0
v -8160 -320 0
v -8160 -240 0
v -8080 -240 0
v -8240 -320 0
v -8320 -320 0
v -8320 -240 0
v -8240 -240 0
v -8400 -320 0
v -8480 -320 0
v -8480 -240 0
v -8400 -240 0
v -8560 -320 0
v -8560 -240 0
v -8640 -320 0
v -8720 -320 0
v -8720 -240 0
v -8640 -240 0
v -8800 -320 0
v -8880 -320 0
v -8880 -240 0
v -8800 -240 0
v -8960 -320 0
v -8960 -240 0
v -9040 -320 0
v -9120 -320 0
v -9120 -240 0
v -9040 -240 0
v -9200 -320 0
v -9280 -320 0
v -9280 -240 0
v -9200 -240 0
v -9360 -320 0
v -9440 -320 0
v -9520 -320 0
v -9600 -320 0
v -9600 -240 0
v 0 -400 0
v -80 -400 0
v 0 -320 0
v -160 -400 0
v -240 -400 0
v -320 -400 0
v -400 -400 0
v -480 -400 0
v -560 -400 0
v -640 -400 0
v -720 -400 0
v -800 -400 0
v -880 -400 0
v -960 -400 0
v -1040 -400 0
v -1120 -400 0
v -1200 -400 0
v -1280 -400 0
v -1360 -400 0
v -1440 -400 0
v -1520 -400 0
v -1600 -400 0
v -1680 -400 0
v -1760 -400 0
v -1840 -400 0
v -1920 -400 0
v -2000 -400 0
v -2080 -400 0
v -2160 -400 0
v -2240 -400 0
v -2320 -400 0
v -2400 -400 0
v -2400 -320 0
v -2480 -400 0
v -2480 -320 0
v -2560 -400 0
v -2560 -320 0
v -2640 -400 0
v -2720 -400 0
v -2800 -400 0
v -2880 -400 0
v -2880 -320 0
v -2960 -400 0
v -2960 -320 0
v -3040 -400 0
v -3120 -400 0
v -3200 -400 0
v -3440 -400 0
v -3520 -400 0
v -3760 -400 0
v -3840 -400 0
v -3920 -400 0
v -4160 -400 0
v -4240 -400 0
v -4480 -400 0
v -4560 -400 0
v -4480 -320 0
v -4640 -400 0
v -4720 -400 0
v -4800 -400 0
v -4880 -400 0
v -4960 -400 0
v -5040 -400 0
v -5040 -320 0
v -5120 -400 0
v -5200 -400 0
v -5280 -400 0
v -5360 -400 0
v -5440 -400 0
v -5440 -320 0
v -5520 -400 0
v -5600 -400 0
v -5680 -400 0
v -5760 -400 0
v -5840 -400 0
v -5920 -400 0
v -6000 -400 0
v -6080 -400 0
v -6160 -400 0
v -6240 -400 0
v -6320 -400 0
v -6400 -400 0
v -6480 -400 0
v -6560 -400 0
v -6640 -400 0
v -6720 -400 0
v -6800 -400 0
v -6800 -320 0
v -6880 -400 0
v -6880 -320 0
v -6960 -400 0
v -6960 -320 0
v -7040 -400 0
v -7040 -320 0
v -7120 -400 0
v -7120 -320 0
v -7200 -400 0
v -7280 -400 0
v -7360 -400 0
v -7440 -400 0
v -7520 -400 0
v -7600 -400 0
v -7680 -400 0
v -7760 -400 0
v -7840 -400 0
v -7920 -400 0
v -8000 -400 0
v -8080 -400 0
v -8160 -400 0
v -8240 -400 0
v -8320 -400 0
v -8400 -400 0
v -8480 -400 0
v -8560 -400 0
v -8640 -400 0
v -8720 -400 0
v -8800 -400 0
v -8880 -400 0
v -8960 -400 0
v -9040 -400 0
v -9120 -400 0
v -9200 -400 0
v -9280 -400 0
v -9360 -400 0
v -9440 -400 0
v -9520 -400 0
v -9600 -400 0

# Texture cooridinates (Count = 48)
vt 0.0001220703 0.2501221
vt 0.1248779 0.2501221
vt 0.1248779 0.4998779
vt 0.0001220703 0.4998779
vt 0.1251221 0.2501221
vt 0.2498779 0.2501221
vt 0.2498779 0.4998779
vt 0.1251221 0.4998779
vt 0.6251221 0.7501221
vt 0.7498779 0.7501221
vt 0.7498779 0.9998779
vt 0.6251221 0.9998779
vt 0.2501221 0.7501221
vt 0.3748779 0.7501221
vt 0.3748779 0.9998779
vt 0.2501221 0.9998779
vt 0.3751221 0.7501221
vt 0.4998779 0.7501221
vt 0.4998779 0.9998779
vt 0.3751221 0.9998779
vt 0.5001221 0.7501221
vt 0.6248779 0.7501221
vt 0.6248779 0.9998779
vt 0.5001221 0.9998779
vt 0.7501221 0.7501221
vt 0.8748779 0.7501221
vt 0.8748779 0.9998779
vt 0.7501221 0.9998779
vt 0.0001220703 0.0001220703
vt 0.1248779 0.0001220703
vt 0.1248779 0.2498779
vt 0.0001220703 0.2498779
vt 0.1251221 0.0001220703
vt 0.2498779 0.0001220703
vt 0.2498779 0.2498779
vt 0.1251221 0.2498779
vt 0.0001220703 0.7501221
vt 0.1248779 0.7501221
vt 0.1248779 0.9998779
vt 0.0001220703 0.9998779
vt 0.1251221 0.7501221
vt 0.2498779 0.7501221
vt 0.2498779 0.9998779
vt 0.1251221 0.9998779
vt 0.2501221 0.5001221
vt 0.3748779 0.5001221
vt 0.3748779 0.7498779
vt 0.2501221 0.7498779

# Normal
vn 0 0 -1

# Groups (Count = 1)

g mesh_0001
f 1/1/1 2/2/1 3/3/1 4/4/1
f 2/5/1 5/6/1 6/7/1 3/8/1
f 7/9/1 8/10/1 9/11/1 10/12/1
f 11/13/1 12/14/1 13/15/1 14/16/1
f 12/13/1 15/14/1 16/15/1 13/16/1
f 17/17/1 18/18/1 19/19/1 20/20/1
f 21/13/1 22/14/1 23/15/1 24/16/1
f 22/13/1 25/14/1 26/15/1 23/16/1
f 25/13/1 27/14/1 28/15/1 26/16/1
f 29/21/1 30/22/1 31/23/1 32/24/1
f 30/21/1 33/22/1 34/23/1 31/24/1
f 35/13/1 36/14/1 37/15/1 38/16/1
f 36/13/1 39/14/1 40/15/1 37/16/1
f 41/25/1 42/26/1 43/27/1 44/28/1
f 42/25/1 45/26/1 46/27/1 43/28/1
f 47/13/1 48/14/1 49/15/1 50/16/1
f 48/13/1 51/14/1 52/15/1 49/16/1
f 53/9/1 54/10/1 55/11/1 56/12/1
f 54/9/1 57/10/1 58/11/1 55/12/1
f 59/13/1 60/14/1 61/15/1 62/16/1
f 60/13/1 63/14/1 64/15/1 61/16/1
f 65/13/1 66/14/1 67/15/1 68/16/1
f 66/13/1 69/14/1 70/15/1 67/16/1
f 71/13/1 72/14/1 73/15/1 74/16/1
f 72/13/1 75/14/1 76/15/1 73/16/1
f 77/13/1 78/14/1 79/15/1 80/16/1
f 81/13/1 82/14/1 83/15/1 84/16/1
f 82/13/1 85/14/1 86/15/1 83/16/1
f 87/13/1 88/14/1 89/15/1 90/16/1
f 91/13/1 92/14/1 93/15/1 94/16/1
f 95/9/1 96/10/1 97/11/1 98/12/1
f 96/9/1 99/10/1 100/11/1 97/12/1
f 99/9/1 101/10/1 102/11/1 100/12/1
f 103/13/1 104/14/1 105/15/1 106/16/1
f 104/13/1 107/14/1 108/15/1 105/16/1
f 107/13/1 109/14/1 110/15/1 108/16/1
f 111/17/1 112/18/1 113/19/1 114/20/1
f 112/25/1 115/26/1 116/27/1 113/28/1
f 115/17/1 117/18/1 118/19/1 116/20/1
f 119/13/1 120/14/1 121/15/1 122/16/1
f 120/13/1 123/14/1 124/15/1 121/16/1
f 123/13/1 125/14/1 126/15/1 124/16/1
f 127/21/1 128/22/1 129/23/1 130/24/1
f 131/13/1 132/14/1 133/15/1 134/16/1
f 135/21/1 136/22/1 137/23/1 138/24/1
f 139/13/1 140/14/1 141/15/1 142/16/1
f 143/13/1 144/14/1 145/15/1 146/16/1
f 147/25/1 148/26/1 149/27/1 150/28/1
f 148/25/1 151/26/1 152/27/1 149/28/1
f 153/13/1 154/14/1 155/15/1 156/16/1
f 154/13/1 157/14/1 158/15/1 155/16/1
f 159/9/1 160/10/1 161/11/1 162/12/1
f 160/9/1 163/10/1 164/11/1 161/12/1
f 165/13/1 166/14/1 167/15/1 168/16/1
f 169/25/1 170/26/1 171/27/1 172/28/1
f 173/13/1 174/14/1 175/15/1 176/16/1
f 174/13/1 177/14/1 178/15/1 175/16/1
f 179/25/1 180/26/1 181/27/1 182/28/1
f 183/13/1 184/14/1 185/15/1 186/16/1
f 184/13/1 187/14/1 188/15/1 185/16/1
f 189/9/1 190/10/1 191/11/1 192/12/1
f 193/13/1 194/14/1 195/15/1 196/16/1
f 197/29/1 198/30/1 2/31/1 1/32/1
f 198/33/1 199/34/1 5/35/1 2/36/1
f 199/37/1 200/38/1 201/39/1 5/40/1
f 202/41/1 203/42/1 7/43/1 204/44/1
f 203/41/1 205/42/1 8/43/1 7/44/1
f 205/41/1 206/42/1 11/43/1 8/44/1
f 206/41/1 207/42/1 12/43/1 11/44/1
f 207/41/1 208/42/1 15/43/1 12/44/1
f 208/41/1 209/42/1 17/43/1 15/44/1
f 209/41/1 210/42/1 18/43/1 17/44/1
f 210/41/1 211/42/1 21/43/1 18/44/1
f 211/41/1 212/42/1 22/43/1 21/44/1
f 212/41/1 213/42/1 25/43/1 22/44/1
f 213/41/1 214/42/1 27/43/1 25/44/1
f 214/41/1 215/42/1 29/43/1 27/44/1
f 215/41/1 216/42/1 30/43/1 29/44/1
f 216/41/1 217/42/1 33/43/1 30/44/1
f 217/41/1 218/42/1 35/43/1 33/44/1
f 218/41/1 219/42/1 36/43/1 35/44/1
f 219/41/1 220/42/1 39/43/1 36/44/1
f 220/41/1 221/42/1 41/43/1 39/44/1
f 221/41/1 222/42/1 42/43/1 41/44/1
f 222/41/1 223/42/1 45/43/1 42/44/1
f 223/41/1 224/42/1 47/43/1 45/44/1
f 224/41/1 225/42/1 48/43/1 47/44/1
f 225/41/1 226/42/1 51/43/1 48/44/1
f 226/41/1 227/42/1 53/43/1 51/44/1
f 227/41/1 228/42/1 54/43/1 53/44/1
f 228/41/1 229/42/1 57/43/1 54/44/1
f 229/41/1 230/42/1 59/43/1 57/44/1
f 230/41/1 231/42/1 60/43/1 59/44/1
f 231/41/1 232/42/1 63/43/1 60/44/1
f 232/41/1 233/42/1 234/43/1 63/44/1
f 233/45/1 235/46/1 236/47/1 234/48/1
f 235/45/1 237/46/1 238/47/1 236/48/1
f 237/45/1 239/46/1 65/47/1 238/48/1
f 239/41/1 240/42/1 66/43/1 65/44/1
f 240/41/1 241/42/1 69/43/1 66/44/1
f 241/45/1 242/46/1 243/47/1 69/48/1
f 242/45/1 244/46/1 245/47/1 243/48/1
f 244/45/1 246/46/1 71/47/1 245/48/1
f 246/41/1 247/42/1 72/43/1 71/44/1
f 247/41/1 248/42/1 75/43/1 72/44/1
f 249/41/1 250/42/1 78/43/1 77/44/1
f 251/41/1 252/42/1 82/43/1 81/44/1
f 252/41/1 253/42/1 85/43/1 82/44/1
f 254/41/1 255/42/1 88/43/1 87/44/1
f 256/41/1 257/42/1 91/43/1 258/44/1
f 257/41/1 259/42/1 92/43/1 91/44/1
f 259/41/1 260/42/1 95/43/1 92/44/1
f 260/41/1 261/42/1 96/43/1 95/44/1
f 261/41/1 262/42/1 99/43/1 96/44/1
f 262/41/1 263/42/1 101/43/1 99/44/1
f 263/41/1 264/42/1 265/43/1 101/44/1
f 264/41/1 266/42/1 103/43/1 265/44/1
f 266/41/1 267/42/1 104/43/1 103/44/1
f 267/41/1 268/42/1 107/43/1 104/44/1
f 268/41/1 269/42/1 109/43/1 107/44/1
f 269/41/1 270/42/1 271/43/1 109/44/1
f 270/41/1 272/42/1 111/43/1 271/44/1
f 272/41/1 273/42/1 112/43/1 111/44/1
f 273/41/1 274/42/1 115/43/1 112/44/1
f 274/41/1 275/42/1 117/43/1 115/44/1
f 275/41/1 276/42/1 119/43/1 117/44/1
f 276/41/1 277/42/1 120/43/1 119/44/1
f 277/41/1 278/42/1 123/43/1 120/44/1
f 278/41/1 279/42/1 125/43/1 123/44/1
f 279/41/1 280/42/1 127/43/1 125/44/1
f 280/41/1 281/42/1 128/43/1 127/44/1
f 281/41/1 282/42/1 131/43/1 128/44/1
f 282/41/1 283/42/1 132/43/1 131/44/1
f 283/41/1 284/42/1 135/43/1 132/44/1
f 284/41/1 285/42/1 136/43/1 135/44/1
f 285/41/1 286/42/1 139/43/1 136/44/1
f 286/41/1 287/42/1 140/43/1 139/44/1
f 287/41/1 288/42/1 289/43/1 140/44/1
f 288/45/1 290/46/1 291/47/1 289/48/1
f 290/45/1 292/46/1 293/47/1 291/48/1
f 292/45/1 294/46/1 295/47/1 293/48/1
f 294/45/1 296/46/1 297/47/1 295/48/1
f 296/41/1 298/42/1 143/43/1 297/44/1
f 298/41/1 299/42/1 144/43/1 143/44/1
f 299/41/1 300/42/1 147/43/1 144/44/1
f 300/41/1 301/42/1 148/43/1 147/44/1
f 301/41/1 302/42/1 151/43/1 148/44/1
f 302/41/1 303/42/1 153/43/1 151/44/1
f 303/41/1 304/42/1 154/43/1 153/44/1
f 304/41/1 305/42/1 157/43/1 154/44/1
f 305/41/1 306/42/1 159/43/1 157/44/1
f 306/41/1 307/42/1 160/43/1 159/44/1
f 307/41/1 308/42/1 163/43/1 160/44/1
f 308/41/1 309/42/1 165/43/1 163/44/1
f 309/41/1 310/42/1 166/43/1 165/44/1
f 310/41/1 311/42/1 169/43/1 166/44/1
f 311/41/1 312/42/1 170/43/1 169/44/1
f 312/41/1 313/42/1 173/43/1 170/44/1
f 313/41/1 314/42/1 174/43/1 173/44/1
f 314/41/1 315/42/1 177/43/1 174/44/1
f 315/41/1 316/42/1 179/43/1 177/44/1
f 316/41/1 317/42/1 180/43/1 179/44/1
f 317/41/1 318/42/1 183/43/1 180/44/1
f 318/41/1 319/42/1 184/43/1 183/44/1
f 319/41/1 320/42/1 187/43/1 184/44/1
f 320/41/1 321/42/1 189/43/1 187/44/1
f 321/41/1 322/42/1 190/43/1 189/44/1
f 322/41/1 323/42/1 193/43/1 190/44/1
f 323/41/1 324/42/1 194/43/1 193/44/1
f 324/41/1 325/42/1 197/43/1 194/44/1
f 325/41/1 326/42/1 198/43/1 197/44/1
f 326/41/1 327/42/1 199/43/1 198/44/1
f 327/41/1 328/42/1 200/43/1 199/44/1

