# Wavefront OBJ file automatically generated by Tiled2Unity

# Vertices (Count = 300)
v -5520 -400 0
v -5600 -400 0
v -5600 -320 0
v -5520 -320 0
v -5680 -400 0
v -5680 -320 0
v -5760 -400 0
v -5760 -320 0
v -5840 -400 0
v -5920 -400 0
v -5920 -320 0
v -5840 -320 0
v -6000 -400 0
v -6000 -320 0
v -6080 -400 0
v -6160 -400 0
v -6160 -320 0
v -6080 -320 0
v -6240 -400 0
v -6240 -320 0
v -6560 -400 0
v -6640 -400 0
v -6640 -320 0
v -6560 -320 0
v -6720 -400 0
v -6720 -320 0
v -6800 -400 0
v -6800 -320 0
v -7120 -400 0
v -7200 -400 0
v -7200 -320 0
v -7120 -320 0
v -7280 -400 0
v -7360 -400 0
v -7360 -320 0
v -7280 -320 0
v -7440 -400 0
v -7520 -400 0
v -7520 -320 0
v -7440 -320 0
v -7600 -400 0
v -7680 -400 0
v -7680 -320 0
v -7600 -320 0
v -7760 -400 0
v -7840 -400 0
v -7840 -320 0
v -7760 -320 0
v -7920 -400 0
v -7920 -320 0
v -8000 -400 0
v -8080 -400 0
v -8080 -320 0
v -8000 -320 0
v -8160 -400 0
v -8240 -400 0
v -8240 -320 0
v -8160 -320 0
v -8320 -400 0
v -8320 -320 0
v -5360 -480 0
v -5440 -480 0
v -5440 -400 0
v -5360 -400 0
v -5520 -480 0
v -5600 -480 0
v -5680 -480 0
v -5760 -480 0
v -5840 -480 0
v -5920 -480 0
v -6000 -480 0
v -6080 -480 0
v -6160 -480 0
v -6240 -480 0
v -6320 -480 0
v -6320 -400 0
v -6400 -480 0
v -6400 -400 0
v -6480 -480 0
v -6480 -400 0
v -6560 -480 0
v -6640 -480 0
v -6720 -480 0
v -6800 -480 0
v -6880 -480 0
v -6880 -400 0
v -6960 -480 0
v -6960 -400 0
v -7040 -480 0
v -7040 -400 0
v -7120 -480 0
v -7200 -480 0
v -7280 -480 0
v -7360 -480 0
v -7440 -480 0
v -7520 -480 0
v -7600 -480 0
v -7680 -480 0
v -7760 -480 0
v -7840 -480 0
v -7920 -480 0
v -8000 -480 0
v -8080 -480 0
v -8160 -480 0
v -8240 -480 0
v -8320 -480 0
v -8400 -480 0
v -8400 -400 0
v -2720 -560 0
v -2800 -560 0
v -2800 -480 0
v -2720 -480 0
v -2880 -560 0
v -2880 -480 0
v -2960 -560 0
v -2960 -480 0
v -3040 -560 0
v -3120 -560 0
v -3120 -480 0
v -3040 -480 0
v -3200 -560 0
v -3280 -560 0
v -3280 -480 0
v -3200 -480 0
v -3360 -560 0
v -3440 -560 0
v -3440 -480 0
v -3360 -480 0
v -3520 -560 0
v -3600 -560 0
v -3600 -480 0
v -3520 -480 0
v -3920 -560 0
v -4000 -560 0
v -4000 -480 0
v -3920 -480 0
v -4400 -560 0
v -4480 -560 0
v -4480 -480 0
v -4400 -480 0
v -4560 -560 0
v -4560 -480 0
v -4640 -560 0
v -4640 -480 0
v -4720 -560 0
v -4800 -560 0
v -4800 -480 0
v -4720 -480 0
v -4880 -560 0
v -4880 -480 0
v -4960 -560 0
v -5040 -560 0
v -5040 -480 0
v -4960 -480 0
v -5120 -560 0
v -5120 -480 0
v -5200 -560 0
v -5200 -480 0
v -80 -640 0
v -160 -640 0
v -160 -560 0
v -80 -560 0
v -240 -640 0
v -240 -560 0
v -2560 -640 0
v -2640 -640 0
v -2640 -560 0
v -2560 -560 0
v -2720 -640 0
v -2800 -640 0
v -2880 -640 0
v -2960 -640 0
v -3040 -640 0
v -3120 -640 0
v -3200 -640 0
v -3280 -640 0
v -3360 -640 0
v -3440 -640 0
v -3520 -640 0
v -3600 -640 0
v -3680 -640 0
v -3680 -560 0
v -3760 -640 0
v -3760 -560 0
v -3840 -640 0
v -3840 -560 0
v -3920 -640 0
v -4000 -640 0
v -4080 -640 0
v -4080 -560 0
v -4160 -640 0
v -4160 -560 0
v -4240 -640 0
v -4240 -560 0
v -4320 -640 0
v -4320 -560 0
v -4400 -640 0
v -4480 -640 0
v -4560 -640 0
v -4640 -640 0
v -4720 -640 0
v -4800 -640 0
v -4880 -640 0
v -4960 -640 0
v -5040 -640 0
v -5120 -640 0
v -5200 -640 0
v -5280 -640 0
v -5280 -560 0
v 0 -720 0
v -80 -720 0
v 0 -640 0
v -160 -720 0
v -240 -720 0
v -320 -720 0
v -400 -720 0
v -400 -640 0
v -320 -640 0
v -480 -720 0
v -480 -640 0
v -560 -720 0
v -560 -640 0
v -640 -720 0
v -720 -720 0
v -720 -640 0
v -640 -640 0
v -800 -720 0
v -880 -720 0
v -880 -640 0
v -800 -640 0
v -960 -720 0
v -1040 -720 0
v -1040 -640 0
v -960 -640 0
v -1120 -720 0
v -1200 -720 0
v -1200 -640 0
v -1120 -640 0
v -1280 -720 0
v -1280 -640 0
v -1360 -720 0
v -1440 -720 0
v -1440 -640 0
v -1360 -640 0
v -1600 -720 0
v -1680 -720 0
v -1680 -640 0
v -1600 -640 0
v -1760 -720 0
v -1760 -640 0
v -1840 -720 0
v -1840 -640 0
v -1920 -720 0
v -2000 -720 0
v -2000 -640 0
v -1920 -640 0
v -2080 -720 0
v -2080 -640 0
v -2160 -720 0
v -2240 -720 0
v -2240 -640 0
v -2160 -640 0
v -2320 -720 0
v -2320 -640 0
v -2400 -720 0
v -2400 -640 0
v 0 -800 0
v -80 -800 0
v -160 -800 0
v -240 -800 0
v -320 -800 0
v -400 -800 0
v -480 -800 0
v -560 -800 0
v -640 -800 0
v -720 -800 0
v -800 -800 0
v -880 -800 0
v -960 -800 0
v -1040 -800 0
v -1120 -800 0
v -1200 -800 0
v -1280 -800 0
v -1360 -800 0
v -1440 -800 0
v -1520 -800 0
v -1520 -720 0
v -1600 -800 0
v -1680 -800 0
v -1760 -800 0
v -1840 -800 0
v -1920 -800 0
v -2000 -800 0
v -2080 -800 0
v -2160 -800 0
v -2240 -800 0
v -2320 -800 0
v -2400 -800 0
v -2480 -800 0
v -2480 -720 0

# Texture cooridinates (Count = 48)
vt 0.2501221 0.7501221
vt 0.3748779 0.7501221
vt 0.3748779 0.9998779
vt 0.2501221 0.9998779
vt 0.7501221 0.7501221
vt 0.8748779 0.7501221
vt 0.8748779 0.9998779
vt 0.7501221 0.9998779
vt 0.6251221 0.7501221
vt 0.7498779 0.7501221
vt 0.7498779 0.9998779
vt 0.6251221 0.9998779
vt 0.3751221 0.7501221
vt 0.4998779 0.7501221
vt 0.4998779 0.9998779
vt 0.3751221 0.9998779
vt 0.1251221 0.7501221
vt 0.2498779 0.7501221
vt 0.2498779 0.9998779
vt 0.1251221 0.9998779
vt 0.2501221 0.5001221
vt 0.3748779 0.5001221
vt 0.3748779 0.7498779
vt 0.2501221 0.7498779
vt 0.5001221 0.7501221
vt 0.6248779 0.7501221
vt 0.6248779 0.9998779
vt 0.5001221 0.9998779
vt 0.2501221 0.2501221
vt 0.3748779 0.2501221
vt 0.3748779 0.4998779
vt 0.2501221 0.4998779
vt 0.3751221 0.2501221
vt 0.4998779 0.2501221
vt 0.4998779 0.4998779
vt 0.3751221 0.4998779
vt 0.0001220703 0.7501221
vt 0.1248779 0.7501221
vt 0.1248779 0.9998779
vt 0.0001220703 0.9998779
vt 0.2501221 0.0001220703
vt 0.3748779 0.0001220703
vt 0.3748779 0.2498779
vt 0.2501221 0.2498779
vt 0.3751221 0.0001220703
vt 0.4998779 0.0001220703
vt 0.4998779 0.2498779
vt 0.3751221 0.2498779

# Normal
vn 0 0 -1

# Groups (Count = 1)

g mesh_0001
f 1/1/1 2/2/1 3/3/1 4/4/1
f 2/1/1 5/2/1 6/3/1 3/4/1
f 5/1/1 7/2/1 8/3/1 6/4/1
f 9/5/1 10/6/1 11/7/1 12/8/1
f 10/5/1 13/6/1 14/7/1 11/8/1
f 15/1/1 16/2/1 17/3/1 18/4/1
f 16/1/1 19/2/1 20/3/1 17/4/1
f 21/1/1 22/2/1 23/3/1 24/4/1
f 22/1/1 25/2/1 26/3/1 23/4/1
f 25/1/1 27/2/1 28/3/1 26/4/1
f 29/1/1 30/2/1 31/3/1 32/4/1
f 33/9/1 34/10/1 35/11/1 36/12/1
f 37/1/1 38/2/1 39/3/1 40/4/1
f 41/13/1 42/14/1 43/15/1 44/16/1
f 45/1/1 46/2/1 47/3/1 48/4/1
f 46/1/1 49/2/1 50/3/1 47/4/1
f 51/13/1 52/14/1 53/15/1 54/16/1
f 55/1/1 56/2/1 57/3/1 58/4/1
f 56/1/1 59/2/1 60/3/1 57/4/1
f 61/17/1 62/18/1 63/19/1 64/20/1
f 62/17/1 65/18/1 1/19/1 63/20/1
f 65/17/1 66/18/1 2/19/1 1/20/1
f 66/17/1 67/18/1 5/19/1 2/20/1
f 67/17/1 68/18/1 7/19/1 5/20/1
f 68/17/1 69/18/1 9/19/1 7/20/1
f 69/17/1 70/18/1 10/19/1 9/20/1
f 70/17/1 71/18/1 13/19/1 10/20/1
f 71/17/1 72/18/1 15/19/1 13/20/1
f 72/17/1 73/18/1 16/19/1 15/20/1
f 73/17/1 74/18/1 19/19/1 16/20/1
f 74/17/1 75/18/1 76/19/1 19/20/1
f 75/21/1 77/22/1 78/23/1 76/24/1
f 77/21/1 79/22/1 80/23/1 78/24/1
f 79/17/1 81/18/1 21/19/1 80/20/1
f 81/17/1 82/18/1 22/19/1 21/20/1
f 82/17/1 83/18/1 25/19/1 22/20/1
f 83/17/1 84/18/1 27/19/1 25/20/1
f 84/17/1 85/18/1 86/19/1 27/20/1
f 85/21/1 87/22/1 88/23/1 86/24/1
f 87/21/1 89/22/1 90/23/1 88/24/1
f 89/17/1 91/18/1 29/19/1 90/20/1
f 91/17/1 92/18/1 30/19/1 29/20/1
f 92/17/1 93/18/1 33/19/1 30/20/1
f 93/17/1 94/18/1 34/19/1 33/20/1
f 94/17/1 95/18/1 37/19/1 34/20/1
f 95/17/1 96/18/1 38/19/1 37/20/1
f 96/17/1 97/18/1 41/19/1 38/20/1
f 97/17/1 98/18/1 42/19/1 41/20/1
f 98/17/1 99/18/1 45/19/1 42/20/1
f 99/17/1 100/18/1 46/19/1 45/20/1
f 100/17/1 101/18/1 49/19/1 46/20/1
f 101/17/1 102/18/1 51/19/1 49/20/1
f 102/17/1 103/18/1 52/19/1 51/20/1
f 103/17/1 104/18/1 55/19/1 52/20/1
f 104/17/1 105/18/1 56/19/1 55/20/1
f 105/17/1 106/18/1 59/19/1 56/20/1
f 106/17/1 107/18/1 108/19/1 59/20/1
f 109/1/1 110/2/1 111/3/1 112/4/1
f 110/1/1 113/2/1 114/3/1 111/4/1
f 113/1/1 115/2/1 116/3/1 114/4/1
f 117/9/1 118/10/1 119/11/1 120/12/1
f 121/1/1 122/2/1 123/3/1 124/4/1
f 125/9/1 126/10/1 127/11/1 128/12/1
f 129/1/1 130/2/1 131/3/1 132/4/1
f 133/1/1 134/2/1 135/3/1 136/4/1
f 137/1/1 138/2/1 139/3/1 140/4/1
f 138/1/1 141/2/1 142/3/1 139/4/1
f 141/1/1 143/2/1 144/3/1 142/4/1
f 145/25/1 146/26/1 147/27/1 148/28/1
f 146/25/1 149/26/1 150/27/1 147/28/1
f 151/1/1 152/2/1 153/3/1 154/4/1
f 152/1/1 155/2/1 156/3/1 153/4/1
f 155/1/1 157/2/1 158/3/1 156/4/1
f 159/29/1 160/30/1 161/31/1 162/32/1
f 160/33/1 163/34/1 164/35/1 161/36/1
f 165/17/1 166/18/1 167/19/1 168/20/1
f 166/17/1 169/18/1 109/19/1 167/20/1
f 169/17/1 170/18/1 110/19/1 109/20/1
f 170/17/1 171/18/1 113/19/1 110/20/1
f 171/17/1 172/18/1 115/19/1 113/20/1
f 172/17/1 173/18/1 117/19/1 115/20/1
f 173/17/1 174/18/1 118/19/1 117/20/1
f 174/17/1 175/18/1 121/19/1 118/20/1
f 175/17/1 176/18/1 122/19/1 121/20/1
f 176/17/1 177/18/1 125/19/1 122/20/1
f 177/17/1 178/18/1 126/19/1 125/20/1
f 178/17/1 179/18/1 129/19/1 126/20/1
f 179/17/1 180/18/1 130/19/1 129/20/1
f 180/17/1 181/18/1 182/19/1 130/20/1
f 181/21/1 183/22/1 184/23/1 182/24/1
f 183/21/1 185/22/1 186/23/1 184/24/1
f 185/17/1 187/18/1 133/19/1 186/20/1
f 187/17/1 188/18/1 134/19/1 133/20/1
f 188/17/1 189/18/1 190/19/1 134/20/1
f 189/21/1 191/22/1 192/23/1 190/24/1
f 191/21/1 193/22/1 194/23/1 192/24/1
f 193/21/1 195/22/1 196/23/1 194/24/1
f 195/17/1 197/18/1 137/19/1 196/20/1
f 197/17/1 198/18/1 138/19/1 137/20/1
f 198/17/1 199/18/1 141/19/1 138/20/1
f 199/17/1 200/18/1 143/19/1 141/20/1
f 200/17/1 201/18/1 145/19/1 143/20/1
f 201/17/1 202/18/1 146/19/1 145/20/1
f 202/17/1 203/18/1 149/19/1 146/20/1
f 203/17/1 204/18/1 151/19/1 149/20/1
f 204/17/1 205/18/1 152/19/1 151/20/1
f 205/17/1 206/18/1 155/19/1 152/20/1
f 206/17/1 207/18/1 157/19/1 155/20/1
f 207/17/1 208/18/1 209/19/1 157/20/1
f 210/37/1 211/38/1 159/39/1 212/40/1
f 211/41/1 213/42/1 160/43/1 159/44/1
f 213/45/1 214/46/1 163/47/1 160/48/1
f 215/1/1 216/2/1 217/3/1 218/4/1
f 216/1/1 219/2/1 220/3/1 217/4/1
f 219/1/1 221/2/1 222/3/1 220/4/1
f 223/9/1 224/10/1 225/11/1 226/12/1
f 227/1/1 228/2/1 229/3/1 230/4/1
f 231/5/1 232/6/1 233/7/1 234/8/1
f 235/1/1 236/2/1 237/3/1 238/4/1
f 236/1/1 239/2/1 240/3/1 237/4/1
f 241/9/1 242/10/1 243/11/1 244/12/1
f 245/1/1 246/2/1 247/3/1 248/4/1
f 246/1/1 249/2/1 250/3/1 247/4/1
f 249/1/1 251/2/1 252/3/1 250/4/1
f 253/25/1 254/26/1 255/27/1 256/28/1
f 254/25/1 257/26/1 258/27/1 255/28/1
f 259/1/1 260/2/1 261/3/1 262/4/1
f 260/1/1 263/2/1 264/3/1 261/4/1
f 263/1/1 265/2/1 266/3/1 264/4/1
f 267/17/1 268/18/1 211/19/1 210/20/1
f 268/17/1 269/18/1 213/19/1 211/20/1
f 269/17/1 270/18/1 214/19/1 213/20/1
f 270/17/1 271/18/1 215/19/1 214/20/1
f 271/17/1 272/18/1 216/19/1 215/20/1
f 272/17/1 273/18/1 219/19/1 216/20/1
f 273/17/1 274/18/1 221/19/1 219/20/1
f 274/17/1 275/18/1 223/19/1 221/20/1
f 275/17/1 276/18/1 224/19/1 223/20/1
f 276/17/1 277/18/1 227/19/1 224/20/1
f 277/17/1 278/18/1 228/19/1 227/20/1
f 278/17/1 279/18/1 231/19/1 228/20/1
f 279/17/1 280/18/1 232/19/1 231/20/1
f 280/17/1 281/18/1 235/19/1 232/20/1
f 281/17/1 282/18/1 236/19/1 235/20/1
f 282/17/1 283/18/1 239/19/1 236/20/1
f 283/17/1 284/18/1 241/19/1 239/20/1
f 284/17/1 285/18/1 242/19/1 241/20/1
f 285/17/1 286/18/1 287/19/1 242/20/1
f 286/17/1 288/18/1 245/19/1 287/20/1
f 288/17/1 289/18/1 246/19/1 245/20/1
f 289/17/1 290/18/1 249/19/1 246/20/1
f 290/17/1 291/18/1 251/19/1 249/20/1
f 291/17/1 292/18/1 253/19/1 251/20/1
f 292/17/1 293/18/1 254/19/1 253/20/1
f 293/17/1 294/18/1 257/19/1 254/20/1
f 294/17/1 295/18/1 259/19/1 257/20/1
f 295/17/1 296/18/1 260/19/1 259/20/1
f 296/17/1 297/18/1 263/19/1 260/20/1
f 297/17/1 298/18/1 265/19/1 263/20/1
f 298/17/1 299/18/1 300/19/1 265/20/1

