# Wavefront OBJ file automatically generated by Tiled2Unity

# Vertices (Count = 211)
v 0 -320 0
v -80 -320 0
v -80 -240 0
v 0 -240 0
v -160 -320 0
v -160 -240 0
v -400 -320 0
v -480 -320 0
v -480 -240 0
v -400 -240 0
v -560 -320 0
v -560 -240 0
v -880 -320 0
v -960 -320 0
v -960 -240 0
v -880 -240 0
v -2880 -320 0
v -2960 -320 0
v -2960 -240 0
v -2880 -240 0
v -3280 -320 0
v -3360 -320 0
v -3360 -240 0
v -3280 -240 0
v -4800 -320 0
v -4880 -320 0
v -4880 -240 0
v -4800 -240 0
v -4960 -320 0
v -4960 -240 0
v -5120 -320 0
v -5200 -320 0
v -5200 -240 0
v -5120 -240 0
v -5280 -320 0
v -5280 -240 0
v -5360 -320 0
v -5360 -240 0
v 0 -400 0
v -80 -400 0
v -160 -400 0
v -240 -400 0
v -240 -320 0
v -320 -400 0
v -320 -320 0
v -400 -400 0
v -480 -400 0
v -560 -400 0
v -640 -400 0
v -640 -320 0
v -720 -400 0
v -720 -320 0
v -800 -400 0
v -800 -320 0
v -880 -400 0
v -960 -400 0
v -1040 -400 0
v -1040 -320 0
v -1200 -400 0
v -1280 -400 0
v -1280 -320 0
v -1200 -320 0
v -1360 -400 0
v -1360 -320 0
v -1680 -400 0
v -1760 -400 0
v -1760 -320 0
v -1680 -320 0
v -2800 -400 0
v -2880 -400 0
v -2800 -320 0
v -2960 -400 0
v -3040 -400 0
v -3040 -320 0
v -3120 -400 0
v -3120 -320 0
v -3200 -400 0
v -3200 -320 0
v -3280 -400 0
v -3360 -400 0
v -3440 -400 0
v -3440 -320 0
v -4800 -400 0
v -4880 -400 0
v -4960 -400 0
v -5040 -400 0
v -5040 -320 0
v -5120 -400 0
v -5200 -400 0
v -5280 -400 0
v -5360 -400 0
v -5760 -400 0
v -5840 -400 0
v -5840 -320 0
v -5760 -320 0
v -5920 -400 0
v -5920 -320 0
v -1120 -480 0
v -1200 -480 0
v -1120 -400 0
v -1280 -480 0
v -1360 -480 0
v -1440 -480 0
v -1440 -400 0
v -1520 -480 0
v -1520 -400 0
v -1600 -480 0
v -1600 -400 0
v -1680 -480 0
v -1760 -480 0
v -1840 -480 0
v -1840 -400 0
v -2000 -480 0
v -2080 -480 0
v -2080 -400 0
v -2000 -400 0
v -2160 -480 0
v -2160 -400 0
v -2560 -480 0
v -2640 -480 0
v -2640 -400 0
v -2560 -400 0
v -2720 -480 0
v -2720 -400 0
v -3600 -480 0
v -3680 -480 0
v -3680 -400 0
v -3600 -400 0
v -3760 -480 0
v -3760 -400 0
v -3840 -480 0
v -3920 -480 0
v -3920 -400 0
v -3840 -400 0
v -4000 -480 0
v -4000 -400 0
v -4080 -480 0
v -4160 -480 0
v -4160 -400 0
v -4080 -400 0
v -4240 -480 0
v -4240 -400 0
v -4320 -480 0
v -4320 -400 0
v -4400 -480 0
v -4480 -480 0
v -4480 -400 0
v -4400 -400 0
v -4560 -480 0
v -4640 -480 0
v -4640 -400 0
v -4560 -400 0
v -4720 -480 0
v -4720 -400 0
v -5520 -480 0
v -5600 -480 0
v -5600 -400 0
v -5520 -400 0
v -5680 -480 0
v -5680 -400 0
v -5760 -480 0
v -5840 -480 0
v -5920 -480 0
v -6000 -480 0
v -6000 -400 0
v -1920 -560 0
v -2000 -560 0
v -1920 -480 0
v -2080 -560 0
v -2160 -560 0
v -2240 -560 0
v -2240 -480 0
v -2320 -560 0
v -2320 -480 0
v -2400 -560 0
v -2400 -480 0
v -2480 -560 0
v -2480 -480 0
v -2560 -560 0
v -2640 -560 0
v -2720 -560 0
v -2800 -560 0
v -2800 -480 0
v -3520 -560 0
v -3600 -560 0
v -3520 -480 0
v -3680 -560 0
v -3760 -560 0
v -3840 -560 0
v -3920 -560 0
v -4000 -560 0
v -4080 -560 0
v -4160 -560 0
v -4240 -560 0
v -4320 -560 0
v -4400 -560 0
v -4480 -560 0
v -4560 -560 0
v -4640 -560 0
v -4720 -560 0
v -4800 -560 0
v -4800 -480 0
v -5440 -560 0
v -5520 -560 0
v -5440 -480 0
v -5600 -560 0
v -5680 -560 0
v -5760 -560 0
v -5840 -560 0
v -5920 -560 0
v -6000 -560 0

# Texture cooridinates (Count = 40)
vt 0.2501221 0.7501221
vt 0.3748779 0.7501221
vt 0.3748779 0.9998779
vt 0.2501221 0.9998779
vt 0.1251221 0.7501221
vt 0.2498779 0.7501221
vt 0.2498779 0.9998779
vt 0.1251221 0.9998779
vt 0.2501221 0.5001221
vt 0.3748779 0.5001221
vt 0.3748779 0.7498779
vt 0.2501221 0.7498779
vt 0.0001220703 0.2501221
vt 0.1248779 0.2501221
vt 0.1248779 0.4998779
vt 0.0001220703 0.4998779
vt 0.1251221 0.2501221
vt 0.2498779 0.2501221
vt 0.2498779 0.4998779
vt 0.1251221 0.4998779
vt 0.6251221 0.7501221
vt 0.7498779 0.7501221
vt 0.7498779 0.9998779
vt 0.6251221 0.9998779
vt 0.5001221 0.7501221
vt 0.6248779 0.7501221
vt 0.6248779 0.9998779
vt 0.5001221 0.9998779
vt 0.0001220703 0.0001220703
vt 0.1248779 0.0001220703
vt 0.1248779 0.2498779
vt 0.0001220703 0.2498779
vt 0.1251221 0.0001220703
vt 0.2498779 0.0001220703
vt 0.2498779 0.2498779
vt 0.1251221 0.2498779
vt 0.0001220703 0.7501221
vt 0.1248779 0.7501221
vt 0.1248779 0.9998779
vt 0.0001220703 0.9998779

# Normal
vn 0 0 -1

# Groups (Count = 1)

g mesh_0001
f 1/1/1 2/2/1 3/3/1 4/4/1
f 2/1/1 5/2/1 6/3/1 3/4/1
f 7/1/1 8/2/1 9/3/1 10/4/1
f 8/1/1 11/2/1 12/3/1 9/4/1
f 13/1/1 14/2/1 15/3/1 16/4/1
f 17/1/1 18/2/1 19/3/1 20/4/1
f 21/1/1 22/2/1 23/3/1 24/4/1
f 25/1/1 26/2/1 27/3/1 28/4/1
f 26/1/1 29/2/1 30/3/1 27/4/1
f 31/1/1 32/2/1 33/3/1 34/4/1
f 32/1/1 35/2/1 36/3/1 33/4/1
f 35/1/1 37/2/1 38/3/1 36/4/1
f 39/5/1 40/6/1 2/7/1 1/8/1
f 40/5/1 41/6/1 5/7/1 2/8/1
f 41/9/1 42/10/1 43/11/1 5/12/1
f 42/9/1 44/10/1 45/11/1 43/12/1
f 44/5/1 46/6/1 7/7/1 45/8/1
f 46/5/1 47/6/1 8/7/1 7/8/1
f 47/5/1 48/6/1 11/7/1 8/8/1
f 48/5/1 49/6/1 50/7/1 11/8/1
f 49/9/1 51/10/1 52/11/1 50/12/1
f 51/9/1 53/10/1 54/11/1 52/12/1
f 53/5/1 55/6/1 13/7/1 54/8/1
f 55/5/1 56/6/1 14/7/1 13/8/1
f 56/5/1 57/6/1 58/7/1 14/8/1
f 59/1/1 60/2/1 61/3/1 62/4/1
f 60/1/1 63/2/1 64/3/1 61/4/1
f 65/1/1 66/2/1 67/3/1 68/4/1
f 69/5/1 70/6/1 17/7/1 71/8/1
f 70/5/1 72/6/1 18/7/1 17/8/1
f 72/5/1 73/6/1 74/7/1 18/8/1
f 73/9/1 75/10/1 76/11/1 74/12/1
f 75/9/1 77/10/1 78/11/1 76/12/1
f 77/5/1 79/6/1 21/7/1 78/8/1
f 79/5/1 80/6/1 22/7/1 21/8/1
f 80/5/1 81/6/1 82/7/1 22/8/1
f 83/5/1 84/6/1 26/7/1 25/8/1
f 84/5/1 85/6/1 29/7/1 26/8/1
f 85/9/1 86/10/1 87/11/1 29/12/1
f 86/9/1 88/10/1 31/11/1 87/12/1
f 88/5/1 89/6/1 32/7/1 31/8/1
f 89/5/1 90/6/1 35/7/1 32/8/1
f 90/5/1 91/6/1 37/7/1 35/8/1
f 92/13/1 93/14/1 94/15/1 95/16/1
f 93/17/1 96/18/1 97/19/1 94/20/1
f 98/5/1 99/6/1 59/7/1 100/8/1
f 99/5/1 101/6/1 60/7/1 59/8/1
f 101/5/1 102/6/1 63/7/1 60/8/1
f 102/5/1 103/6/1 104/7/1 63/8/1
f 103/9/1 105/10/1 106/11/1 104/12/1
f 105/9/1 107/10/1 108/11/1 106/12/1
f 107/5/1 109/6/1 65/7/1 108/8/1
f 109/5/1 110/6/1 66/7/1 65/8/1
f 110/5/1 111/6/1 112/7/1 66/8/1
f 113/1/1 114/2/1 115/3/1 116/4/1
f 114/1/1 117/2/1 118/3/1 115/4/1
f 119/1/1 120/2/1 121/3/1 122/4/1
f 120/1/1 123/2/1 124/3/1 121/4/1
f 125/1/1 126/2/1 127/3/1 128/4/1
f 126/1/1 129/2/1 130/3/1 127/4/1
f 131/21/1 132/22/1 133/23/1 134/24/1
f 132/21/1 135/22/1 136/23/1 133/24/1
f 137/1/1 138/2/1 139/3/1 140/4/1
f 138/1/1 141/2/1 142/3/1 139/4/1
f 141/1/1 143/2/1 144/3/1 142/4/1
f 145/25/1 146/26/1 147/27/1 148/28/1
f 149/1/1 150/2/1 151/3/1 152/4/1
f 150/1/1 153/2/1 154/3/1 151/4/1
f 155/1/1 156/2/1 157/3/1 158/4/1
f 156/1/1 159/2/1 160/3/1 157/4/1
f 161/29/1 162/30/1 93/31/1 92/32/1
f 162/33/1 163/34/1 96/35/1 93/36/1
f 163/37/1 164/38/1 165/39/1 96/40/1
f 166/5/1 167/6/1 113/7/1 168/8/1
f 167/5/1 169/6/1 114/7/1 113/8/1
f 169/5/1 170/6/1 117/7/1 114/8/1
f 170/5/1 171/6/1 172/7/1 117/8/1
f 171/9/1 173/10/1 174/11/1 172/12/1
f 173/9/1 175/10/1 176/11/1 174/12/1
f 175/9/1 177/10/1 178/11/1 176/12/1
f 177/5/1 179/6/1 119/7/1 178/8/1
f 179/5/1 180/6/1 120/7/1 119/8/1
f 180/5/1 181/6/1 123/7/1 120/8/1
f 181/5/1 182/6/1 183/7/1 123/8/1
f 184/5/1 185/6/1 125/7/1 186/8/1
f 185/5/1 187/6/1 126/7/1 125/8/1
f 187/5/1 188/6/1 129/7/1 126/8/1
f 188/5/1 189/6/1 131/7/1 129/8/1
f 189/5/1 190/6/1 132/7/1 131/8/1
f 190/5/1 191/6/1 135/7/1 132/8/1
f 191/5/1 192/6/1 137/7/1 135/8/1
f 192/5/1 193/6/1 138/7/1 137/8/1
f 193/5/1 194/6/1 141/7/1 138/8/1
f 194/5/1 195/6/1 143/7/1 141/8/1
f 195/5/1 196/6/1 145/7/1 143/8/1
f 196/5/1 197/6/1 146/7/1 145/8/1
f 197/5/1 198/6/1 149/7/1 146/8/1
f 198/5/1 199/6/1 150/7/1 149/8/1
f 199/5/1 200/6/1 153/7/1 150/8/1
f 200/5/1 201/6/1 202/7/1 153/8/1
f 203/5/1 204/6/1 155/7/1 205/8/1
f 204/5/1 206/6/1 156/7/1 155/8/1
f 206/5/1 207/6/1 159/7/1 156/8/1
f 207/5/1 208/6/1 161/7/1 159/8/1
f 208/5/1 209/6/1 162/7/1 161/8/1
f 209/5/1 210/6/1 163/7/1 162/8/1
f 210/5/1 211/6/1 164/7/1 163/8/1

