# Wavefront OBJ file automatically generated by Tiled2Unity

# Vertices (Count = 614)
v -1280 -320 0
v -1360 -320 0
v -1360 -240 0
v -1280 -240 0
v -1440 -320 0
v -1440 -240 0
v -1520 -320 0
v -1600 -320 0
v -1600 -240 0
v -1520 -240 0
v -1680 -320 0
v -1760 -320 0
v -1760 -240 0
v -1680 -240 0
v -2640 -320 0
v -2720 -320 0
v -2720 -240 0
v -2640 -240 0
v -2800 -320 0
v -2880 -320 0
v -2880 -240 0
v -2800 -240 0
v -2960 -320 0
v -2960 -240 0
v -3040 -320 0
v -3120 -320 0
v -3120 -240 0
v -3040 -240 0
v -5120 -320 0
v -5200 -320 0
v -5200 -240 0
v -5120 -240 0
v -5280 -320 0
v -5280 -240 0
v -5360 -320 0
v -5360 -240 0
v -5440 -320 0
v -5520 -320 0
v -5520 -240 0
v -5440 -240 0
v -5600 -320 0
v -5600 -240 0
v -5680 -320 0
v -5760 -320 0
v -5760 -240 0
v -5680 -240 0
v -5840 -320 0
v -5840 -240 0
v -5920 -320 0
v -5920 -240 0
v -6000 -320 0
v -6080 -320 0
v -6080 -240 0
v -6000 -240 0
v -6160 -320 0
v -6240 -320 0
v -6240 -240 0
v -6160 -240 0
v -6320 -320 0
v -6400 -320 0
v -6400 -240 0
v -6320 -240 0
v -6480 -320 0
v -6560 -320 0
v -6560 -240 0
v -6480 -240 0
v -6640 -320 0
v -6640 -240 0
v -6720 -320 0
v -6800 -320 0
v -6800 -240 0
v -6720 -240 0
v -6880 -320 0
v -6960 -320 0
v -6960 -240 0
v -6880 -240 0
v -7040 -320 0
v -7120 -320 0
v -7120 -240 0
v -7040 -240 0
v -7680 -320 0
v -7760 -320 0
v -7760 -240 0
v -7680 -240 0
v -7840 -320 0
v -7840 -240 0
v -7920 -320 0
v -7920 -240 0
v -8000 -320 0
v -8000 -240 0
v -8400 -320 0
v -8480 -320 0
v -8480 -240 0
v -8400 -240 0
v -8560 -320 0
v -8560 -240 0
v -8640 -320 0
v -8640 -240 0
v -8720 -320 0
v -8720 -240 0
v -9200 -320 0
v -9280 -320 0
v -9280 -240 0
v -9200 -240 0
v -9360 -320 0
v -9360 -240 0
v -9440 -320 0
v -9440 -240 0
v -9520 -320 0
v -9520 -240 0
v -1200 -400 0
v -1280 -400 0
v -1200 -320 0
v -1360 -400 0
v -1440 -400 0
v -1520 -400 0
v -1600 -400 0
v -1680 -400 0
v -1760 -400 0
v -1840 -400 0
v -1840 -320 0
v -1920 -400 0
v -2000 -400 0
v -2000 -320 0
v -1920 -320 0
v -2400 -400 0
v -2480 -400 0
v -2480 -320 0
v -2400 -320 0
v -2560 -400 0
v -2640 -400 0
v -2560 -320 0
v -2720 -400 0
v -2800 -400 0
v -2880 -400 0
v -2960 -400 0
v -3040 -400 0
v -3120 -400 0
v -3200 -400 0
v -3200 -320 0
v -3520 -400 0
v -3600 -400 0
v -3600 -320 0
v -3520 -320 0
v -3680 -400 0
v -3680 -320 0
v -4080 -400 0
v -4160 -400 0
v -4160 -320 0
v -4080 -320 0
v -4240 -400 0
v -4240 -320 0
v -4640 -400 0
v -4720 -400 0
v -4720 -320 0
v -4640 -320 0
v -4800 -400 0
v -4800 -320 0
v -4880 -400 0
v -4960 -400 0
v -4960 -320 0
v -4880 -320 0
v -5040 -400 0
v -5040 -320 0
v -5120 -400 0
v -5200 -400 0
v -5280 -400 0
v -5360 -400 0
v -5440 -400 0
v -5520 -400 0
v -5600 -400 0
v -5680 -400 0
v -5760 -400 0
v -5840 -400 0
v -5920 -400 0
v -6000 -400 0
v -6080 -400 0
v -6160 -400 0
v -6240 -400 0
v -6320 -400 0
v -6400 -400 0
v -6480 -400 0
v -6560 -400 0
v -6640 -400 0
v -6720 -400 0
v -6800 -400 0
v -6880 -400 0
v -6960 -400 0
v -7040 -400 0
v -7120 -400 0
v -7200 -400 0
v -7200 -320 0
v -7280 -400 0
v -7280 -320 0
v -7360 -400 0
v -7360 -320 0
v -7440 -400 0
v -7440 -320 0
v -7520 -400 0
v -7520 -320 0
v -7600 -400 0
v -7600 -320 0
v -7680 -400 0
v -7760 -400 0
v -7840 -400 0
v -7920 -400 0
v -8000 -400 0
v -8080 -400 0
v -8080 -320 0
v -8160 -400 0
v -8160 -320 0
v -8240 -400 0
v -8240 -320 0
v -8320 -400 0
v -8320 -320 0
v -8400 -400 0
v -8480 -400 0
v -8560 -400 0
v -8640 -400 0
v -8720 -400 0
v -8800 -400 0
v -8800 -320 0
v -8880 -400 0
v -8880 -320 0
v -8960 -400 0
v -8960 -320 0
v -9040 -400 0
v -9040 -320 0
v -9120 -400 0
v -9120 -320 0
v -9200 -400 0
v -9280 -400 0
v -9360 -400 0
v -9440 -400 0
v -9520 -400 0
v -9600 -400 0
v -9600 -320 0
v -1840 -480 0
v -1920 -480 0
v -2000 -480 0
v -2080 -480 0
v -2080 -400 0
v -2160 -480 0
v -2160 -400 0
v -2240 -480 0
v -2240 -400 0
v -2320 -480 0
v -2320 -400 0
v -2400 -480 0
v -2480 -480 0
v -2560 -480 0
v -3440 -480 0
v -3520 -480 0
v -3440 -400 0
v -3600 -480 0
v -3680 -480 0
v -3760 -480 0
v -3760 -400 0
v -3840 -480 0
v -3840 -400 0
v -3920 -480 0
v -3920 -400 0
v -4000 -480 0
v -4000 -400 0
v -4080 -480 0
v -4160 -480 0
v -4240 -480 0
v -4320 -480 0
v -4320 -400 0
v -4560 -480 0
v -4640 -480 0
v -4560 -400 0
v -4720 -480 0
v -4800 -480 0
v -4880 -480 0
v -4960 -480 0
v -7280 -480 0
v -7360 -480 0
v -7440 -480 0
v -7520 -480 0
v -7600 -480 0
v -80 -560 0
v -160 -560 0
v -160 -480 0
v -80 -480 0
v -240 -560 0
v -240 -480 0
v 0 -640 0
v -80 -640 0
v 0 -560 0
v -160 -640 0
v -240 -640 0
v -320 -640 0
v -320 -560 0
v -400 -640 0
v -400 -560 0
v -480 -640 0
v -480 -560 0
v -560 -640 0
v -560 -560 0
v -640 -640 0
v -720 -640 0
v -720 -560 0
v -640 -560 0
v -800 -640 0
v -880 -640 0
v -880 -560 0
v -800 -560 0
v -960 -640 0
v -960 -560 0
v 0 -720 0
v -80 -720 0
v -160 -720 0
v -240 -720 0
v -320 -720 0
v -400 -720 0
v -480 -720 0
v -560 -720 0
v -640 -720 0
v -720 -720 0
v -800 -720 0
v -880 -720 0
v -960 -720 0
v -1040 -720 0
v -1040 -640 0
v -1120 -720 0
v -1120 -640 0
v -1280 -880 0
v -1360 -880 0
v -1360 -800 0
v -1280 -800 0
v -1440 -880 0
v -1440 -800 0
v -1520 -880 0
v -1520 -800 0
v -1600 -880 0
v -1680 -880 0
v -1680 -800 0
v -1600 -800 0
v -1760 -880 0
v -1760 -800 0
v -1920 -880 0
v -2000 -880 0
v -2000 -800 0
v -1920 -800 0
v -2080 -880 0
v -2080 -800 0
v -2160 -880 0
v -2160 -800 0
v -2320 -880 0
v -2400 -880 0
v -2400 -800 0
v -2320 -800 0
v -2480 -880 0
v -2480 -800 0
v -2640 -880 0
v -2720 -880 0
v -2720 -800 0
v -2640 -800 0
v -2800 -880 0
v -2800 -800 0
v -2880 -880 0
v -2880 -800 0
v -2960 -880 0
v -2960 -800 0
v -4080 -880 0
v -4160 -880 0
v -4160 -800 0
v -4080 -800 0
v -4240 -880 0
v -4240 -800 0
v -4560 -880 0
v -4640 -880 0
v -4640 -800 0
v -4560 -800 0
v -4720 -880 0
v -4720 -800 0
v -4960 -880 0
v -5040 -880 0
v -5040 -800 0
v -4960 -800 0
v -5120 -880 0
v -5120 -800 0
v -5360 -880 0
v -5440 -880 0
v -5440 -800 0
v -5360 -800 0
v -5520 -880 0
v -5520 -800 0
v -5760 -880 0
v -5840 -880 0
v -5840 -800 0
v -5760 -800 0
v -5920 -880 0
v -6000 -880 0
v -6000 -800 0
v -5920 -800 0
v -6080 -880 0
v -6160 -880 0
v -6160 -800 0
v -6080 -800 0
v -6240 -880 0
v -6320 -880 0
v -6320 -800 0
v -6240 -800 0
v -6400 -880 0
v -6480 -880 0
v -6480 -800 0
v -6400 -800 0
v -6560 -880 0
v -6560 -800 0
v -6640 -880 0
v -6720 -880 0
v -6720 -800 0
v -6640 -800 0
v -1200 -960 0
v -1280 -960 0
v -1200 -880 0
v -1360 -960 0
v -1440 -960 0
v -1520 -960 0
v -1600 -960 0
v -1680 -960 0
v -1760 -960 0
v -1840 -960 0
v -1840 -880 0
v -1920 -960 0
v -2000 -960 0
v -2080 -960 0
v -2160 -960 0
v -2240 -960 0
v -2240 -880 0
v -2320 -960 0
v -2400 -960 0
v -2480 -960 0
v -2560 -960 0
v -2560 -880 0
v -2640 -960 0
v -2720 -960 0
v -2800 -960 0
v -2880 -960 0
v -2960 -960 0
v -3040 -960 0
v -3040 -880 0
v -3120 -960 0
v -3120 -880 0
v -3760 -960 0
v -3840 -960 0
v -3840 -880 0
v -3760 -880 0
v -3920 -960 0
v -4000 -960 0
v -4000 -880 0
v -3920 -880 0
v -4080 -960 0
v -4160 -960 0
v -4240 -960 0
v -4320 -960 0
v -4320 -880 0
v -4560 -960 0
v -4640 -960 0
v -4720 -960 0
v -4960 -960 0
v -5040 -960 0
v -5120 -960 0
v -5360 -960 0
v -5440 -960 0
v -5520 -960 0
v -5600 -960 0
v -5600 -880 0
v -5680 -960 0
v -5680 -880 0
v -5760 -960 0
v -5840 -960 0
v -5920 -960 0
v -6000 -960 0
v -6080 -960 0
v -6160 -960 0
v -6240 -960 0
v -6320 -960 0
v -6400 -960 0
v -6480 -960 0
v -6560 -960 0
v -6640 -960 0
v -6720 -960 0
v -6800 -960 0
v -6800 -880 0
v -6880 -960 0
v -6880 -880 0
v -6960 -960 0
v -7040 -960 0
v -7040 -880 0
v -6960 -880 0
v -3200 -1040 0
v -3280 -1040 0
v -3280 -960 0
v -3200 -960 0
v -3360 -1040 0
v -3440 -1040 0
v -3440 -960 0
v -3360 -960 0
v -3520 -1040 0
v -3520 -960 0
v -3600 -1040 0
v -3600 -960 0
v -3680 -1040 0
v -3760 -1040 0
v -3680 -960 0
v -3840 -1040 0
v -3920 -1040 0
v -4000 -1040 0
v -5440 -1040 0
v -5520 -1040 0
v -5600 -1040 0
v -5680 -1040 0
v -5760 -1040 0
v -6880 -1040 0
v -6960 -1040 0
v -7040 -1040 0
v -7120 -1040 0
v -7120 -960 0
v -7200 -1040 0
v -7200 -960 0
v -7280 -1040 0
v -7280 -960 0
v -7360 -1040 0
v -7440 -1040 0
v -7440 -960 0
v -7360 -960 0
v -3120 -1120 0
v -3200 -1120 0
v -3120 -1040 0
v -3280 -1120 0
v -3360 -1120 0
v -3440 -1120 0
v -3520 -1120 0
v -3600 -1120 0
v -3680 -1120 0
v -7280 -1120 0
v -7360 -1120 0
v -7440 -1120 0
v -7520 -1120 0
v -7520 -1040 0
v -7600 -1120 0
v -7600 -1040 0
v -7680 -1120 0
v -7680 -1040 0
v -7840 -1120 0
v -7920 -1120 0
v -7920 -1040 0
v -7840 -1040 0
v -8000 -1120 0
v -8000 -1040 0
v -8080 -1120 0
v -8080 -1040 0
v -8160 -1120 0
v -8160 -1040 0
v -8240 -1120 0
v -8320 -1120 0
v -8320 -1040 0
v -8240 -1040 0
v -8400 -1120 0
v -8400 -1040 0
v -8480 -1120 0
v -8560 -1120 0
v -8560 -1040 0
v -8480 -1040 0
v -8640 -1120 0
v -8640 -1040 0
v -8720 -1120 0
v -8720 -1040 0
v -8800 -1120 0
v -8800 -1040 0
v -9200 -1120 0
v -9280 -1120 0
v -9280 -1040 0
v -9200 -1040 0
v -9360 -1120 0
v -9360 -1040 0
v -9440 -1120 0
v -9440 -1040 0
v -9520 -1120 0
v -9520 -1040 0
v -7680 -1200 0
v -7760 -1200 0
v -7760 -1120 0
v -7840 -1200 0
v -7920 -1200 0
v -8000 -1200 0
v -8080 -1200 0
v -8160 -1200 0
v -8240 -1200 0
v -8320 -1200 0
v -8400 -1200 0
v -8480 -1200 0
v -8560 -1200 0
v -8640 -1200 0
v -8720 -1200 0
v -8800 -1200 0
v -8880 -1200 0
v -8880 -1120 0
v -8960 -1200 0
v -8960 -1120 0
v -9040 -1200 0
v -9040 -1120 0
v -9120 -1200 0
v -9120 -1120 0
v -9200 -1200 0
v -9280 -1200 0
v -9360 -1200 0
v -9440 -1200 0
v -9520 -1200 0
v -9600 -1200 0
v -9600 -1120 0

# Texture cooridinates (Count = 52)
vt 0.2501221 0.7501221
vt 0.3748779 0.7501221
vt 0.3748779 0.9998779
vt 0.2501221 0.9998779
vt 0.6251221 0.7501221
vt 0.7498779 0.7501221
vt 0.7498779 0.9998779
vt 0.6251221 0.9998779
vt 0.5001221 0.7501221
vt 0.6248779 0.7501221
vt 0.6248779 0.9998779
vt 0.5001221 0.9998779
vt 0.7501221 0.7501221
vt 0.8748779 0.7501221
vt 0.8748779 0.9998779
vt 0.7501221 0.9998779
vt 0.1251221 0.7501221
vt 0.2498779 0.7501221
vt 0.2498779 0.9998779
vt 0.1251221 0.9998779
vt 0.3751221 0.7501221
vt 0.4998779 0.7501221
vt 0.4998779 0.9998779
vt 0.3751221 0.9998779
vt 0.2501221 0.5001221
vt 0.3748779 0.5001221
vt 0.3748779 0.7498779
vt 0.2501221 0.7498779
vt 0.2501221 0.2501221
vt 0.3748779 0.2501221
vt 0.3748779 0.4998779
vt 0.2501221 0.4998779
vt 0.3751221 0.2501221
vt 0.4998779 0.2501221
vt 0.4998779 0.4998779
vt 0.3751221 0.4998779
vt 0.0001220703 0.7501221
vt 0.1248779 0.7501221
vt 0.1248779 0.9998779
vt 0.0001220703 0.9998779
vt 0.2501221 0.0001220703
vt 0.3748779 0.0001220703
vt 0.3748779 0.2498779
vt 0.2501221 0.2498779
vt 0.3751221 0.0001220703
vt 0.4998779 0.0001220703
vt 0.4998779 0.2498779
vt 0.3751221 0.2498779
vt 0.8751221 0.7501221
vt 0.9998779 0.7501221
vt 0.9998779 0.9998779
vt 0.8751221 0.9998779

# Normal
vn 0 0 -1

# Groups (Count = 1)

g mesh_0001
f 1/1/1 2/2/1 3/3/1 4/4/1
f 2/1/1 5/2/1 6/3/1 3/4/1
f 7/5/1 8/6/1 9/7/1 10/8/1
f 11/1/1 12/2/1 13/3/1 14/4/1
f 15/1/1 16/2/1 17/3/1 18/4/1
f 19/9/1 20/10/1 21/11/1 22/12/1
f 20/9/1 23/10/1 24/11/1 21/12/1
f 25/1/1 26/2/1 27/3/1 28/4/1
f 29/1/1 30/2/1 31/3/1 32/4/1
f 30/1/1 33/2/1 34/3/1 31/4/1
f 33/1/1 35/2/1 36/3/1 34/4/1
f 37/13/1 38/14/1 39/15/1 40/16/1
f 38/13/1 41/14/1 42/15/1 39/16/1
f 43/1/1 44/2/1 45/3/1 46/4/1
f 44/1/1 47/2/1 48/3/1 45/4/1
f 47/1/1 49/2/1 50/3/1 48/4/1
f 51/5/1 52/6/1 53/7/1 54/8/1
f 55/1/1 56/2/1 57/3/1 58/4/1
f 59/9/1 60/10/1 61/11/1 62/12/1
f 63/1/1 64/2/1 65/3/1 66/4/1
f 64/1/1 67/2/1 68/3/1 65/4/1
f 69/5/1 70/6/1 71/7/1 72/8/1
f 73/1/1 74/2/1 75/3/1 76/4/1
f 77/9/1 78/10/1 79/11/1 80/12/1
f 81/1/1 82/2/1 83/3/1 84/4/1
f 82/1/1 85/2/1 86/3/1 83/4/1
f 85/1/1 87/2/1 88/3/1 86/4/1
f 87/1/1 89/2/1 90/3/1 88/4/1
f 91/1/1 92/2/1 93/3/1 94/4/1
f 92/1/1 95/2/1 96/3/1 93/4/1
f 95/1/1 97/2/1 98/3/1 96/4/1
f 97/1/1 99/2/1 100/3/1 98/4/1
f 101/1/1 102/2/1 103/3/1 104/4/1
f 102/1/1 105/2/1 106/3/1 103/4/1
f 105/1/1 107/2/1 108/3/1 106/4/1
f 107/1/1 109/2/1 110/3/1 108/4/1
f 111/17/1 112/18/1 1/19/1 113/20/1
f 112/17/1 114/18/1 2/19/1 1/20/1
f 114/17/1 115/18/1 5/19/1 2/20/1
f 115/17/1 116/18/1 7/19/1 5/20/1
f 116/17/1 117/18/1 8/19/1 7/20/1
f 117/17/1 118/18/1 11/19/1 8/20/1
f 118/17/1 119/18/1 12/19/1 11/20/1
f 119/17/1 120/18/1 121/19/1 12/20/1
f 122/1/1 123/2/1 124/3/1 125/4/1
f 126/1/1 127/2/1 128/3/1 129/4/1
f 130/17/1 131/18/1 15/19/1 132/20/1
f 131/17/1 133/18/1 16/19/1 15/20/1
f 133/17/1 134/18/1 19/19/1 16/20/1
f 134/17/1 135/18/1 20/19/1 19/20/1
f 135/17/1 136/18/1 23/19/1 20/20/1
f 136/17/1 137/18/1 25/19/1 23/20/1
f 137/17/1 138/18/1 26/19/1 25/20/1
f 138/17/1 139/18/1 140/19/1 26/20/1
f 141/1/1 142/2/1 143/3/1 144/4/1
f 142/1/1 145/2/1 146/3/1 143/4/1
f 147/1/1 148/2/1 149/3/1 150/4/1
f 148/1/1 151/2/1 152/3/1 149/4/1
f 153/1/1 154/2/1 155/3/1 156/4/1
f 154/1/1 157/2/1 158/3/1 155/4/1
f 159/21/1 160/22/1 161/23/1 162/24/1
f 160/17/1 163/18/1 164/19/1 161/20/1
f 163/17/1 165/18/1 29/19/1 164/20/1
f 165/17/1 166/18/1 30/19/1 29/20/1
f 166/17/1 167/18/1 33/19/1 30/20/1
f 167/17/1 168/18/1 35/19/1 33/20/1
f 168/17/1 169/18/1 37/19/1 35/20/1
f 169/17/1 170/18/1 38/19/1 37/20/1
f 170/17/1 171/18/1 41/19/1 38/20/1
f 171/17/1 172/18/1 43/19/1 41/20/1
f 172/17/1 173/18/1 44/19/1 43/20/1
f 173/17/1 174/18/1 47/19/1 44/20/1
f 174/17/1 175/18/1 49/19/1 47/20/1
f 175/17/1 176/18/1 51/19/1 49/20/1
f 176/17/1 177/18/1 52/19/1 51/20/1
f 177/17/1 178/18/1 55/19/1 52/20/1
f 178/17/1 179/18/1 56/19/1 55/20/1
f 179/17/1 180/18/1 59/19/1 56/20/1
f 180/17/1 181/18/1 60/19/1 59/20/1
f 181/17/1 182/18/1 63/19/1 60/20/1
f 182/17/1 183/18/1 64/19/1 63/20/1
f 183/17/1 184/18/1 67/19/1 64/20/1
f 184/17/1 185/18/1 69/19/1 67/20/1
f 185/17/1 186/18/1 70/19/1 69/20/1
f 186/17/1 187/18/1 73/19/1 70/20/1
f 187/17/1 188/18/1 74/19/1 73/20/1
f 188/17/1 189/18/1 77/19/1 74/20/1
f 189/17/1 190/18/1 78/19/1 77/20/1
f 190/17/1 191/18/1 192/19/1 78/20/1
f 191/17/1 193/18/1 194/19/1 192/20/1
f 193/17/1 195/18/1 196/19/1 194/20/1
f 195/1/1 197/2/1 198/3/1 196/4/1
f 197/1/1 199/2/1 200/3/1 198/4/1
f 199/17/1 201/18/1 202/19/1 200/20/1
f 201/17/1 203/18/1 81/19/1 202/20/1
f 203/17/1 204/18/1 82/19/1 81/20/1
f 204/17/1 205/18/1 85/19/1 82/20/1
f 205/17/1 206/18/1 87/19/1 85/20/1
f 206/17/1 207/18/1 89/19/1 87/20/1
f 207/17/1 208/18/1 209/19/1 89/20/1
f 208/25/1 210/26/1 211/27/1 209/28/1
f 210/25/1 212/26/1 213/27/1 211/28/1
f 212/25/1 214/26/1 215/27/1 213/28/1
f 214/17/1 216/18/1 91/19/1 215/20/1
f 216/17/1 217/18/1 92/19/1 91/20/1
f 217/17/1 218/18/1 95/19/1 92/20/1
f 218/17/1 219/18/1 97/19/1 95/20/1
f 219/17/1 220/18/1 99/19/1 97/20/1
f 220/17/1 221/18/1 222/19/1 99/20/1
f 221/25/1 223/26/1 224/27/1 222/28/1
f 223/25/1 225/26/1 226/27/1 224/28/1
f 225/25/1 227/26/1 228/27/1 226/28/1
f 227/17/1 229/18/1 230/19/1 228/20/1
f 229/17/1 231/18/1 101/19/1 230/20/1
f 231/17/1 232/18/1 102/19/1 101/20/1
f 232/17/1 233/18/1 105/19/1 102/20/1
f 233/17/1 234/18/1 107/19/1 105/20/1
f 234/17/1 235/18/1 109/19/1 107/20/1
f 235/17/1 236/18/1 237/19/1 109/20/1
f 238/17/1 239/18/1 122/19/1 120/20/1
f 239/17/1 240/18/1 123/19/1 122/20/1
f 240/17/1 241/18/1 242/19/1 123/20/1
f 241/25/1 243/26/1 244/27/1 242/28/1
f 243/25/1 245/26/1 246/27/1 244/28/1
f 245/25/1 247/26/1 248/27/1 246/28/1
f 247/17/1 249/18/1 126/19/1 248/20/1
f 249/17/1 250/18/1 127/19/1 126/20/1
f 250/17/1 251/18/1 130/19/1 127/20/1
f 252/17/1 253/18/1 141/19/1 254/20/1
f 253/17/1 255/18/1 142/19/1 141/20/1
f 255/17/1 256/18/1 145/19/1 142/20/1
f 256/17/1 257/18/1 258/19/1 145/20/1
f 257/25/1 259/26/1 260/27/1 258/28/1
f 259/25/1 261/26/1 262/27/1 260/28/1
f 261/25/1 263/26/1 264/27/1 262/28/1
f 263/17/1 265/18/1 147/19/1 264/20/1
f 265/17/1 266/18/1 148/19/1 147/20/1
f 266/17/1 267/18/1 151/19/1 148/20/1
f 267/17/1 268/18/1 269/19/1 151/20/1
f 270/17/1 271/18/1 153/19/1 272/20/1
f 271/17/1 273/18/1 154/19/1 153/20/1
f 273/17/1 274/18/1 157/19/1 154/20/1
f 274/17/1 275/18/1 159/19/1 157/20/1
f 275/17/1 276/18/1 160/19/1 159/20/1
f 277/17/1 278/18/1 195/19/1 193/20/1
f 278/17/1 279/18/1 197/19/1 195/20/1
f 279/17/1 280/18/1 199/19/1 197/20/1
f 280/17/1 281/18/1 201/19/1 199/20/1
f 282/29/1 283/30/1 284/31/1 285/32/1
f 283/33/1 286/34/1 287/35/1 284/36/1
f 288/37/1 289/38/1 282/39/1 290/40/1
f 289/41/1 291/42/1 283/43/1 282/44/1
f 291/45/1 292/46/1 286/47/1 283/48/1
f 292/1/1 293/2/1 294/3/1 286/4/1
f 293/1/1 295/2/1 296/3/1 294/4/1
f 295/1/1 297/2/1 298/3/1 296/4/1
f 297/1/1 299/2/1 300/3/1 298/4/1
f 301/5/1 302/6/1 303/7/1 304/8/1
f 305/1/1 306/2/1 307/3/1 308/4/1
f 306/1/1 309/2/1 310/3/1 307/4/1
f 311/17/1 312/18/1 289/19/1 288/20/1
f 312/17/1 313/18/1 291/19/1 289/20/1
f 313/17/1 314/18/1 292/19/1 291/20/1
f 314/17/1 315/18/1 293/19/1 292/20/1
f 315/17/1 316/18/1 295/19/1 293/20/1
f 316/17/1 317/18/1 297/19/1 295/20/1
f 317/17/1 318/18/1 299/19/1 297/20/1
f 318/17/1 319/18/1 301/19/1 299/20/1
f 319/17/1 320/18/1 302/19/1 301/20/1
f 320/17/1 321/18/1 305/19/1 302/20/1
f 321/17/1 322/18/1 306/19/1 305/20/1
f 322/17/1 323/18/1 309/19/1 306/20/1
f 323/17/1 324/18/1 325/19/1 309/20/1
f 324/49/1 326/50/1 327/51/1 325/52/1
f 328/1/1 329/2/1 330/3/1 331/4/1
f 329/1/1 332/2/1 333/3/1 330/4/1
f 332/1/1 334/2/1 335/3/1 333/4/1
f 336/21/1 337/22/1 338/23/1 339/24/1
f 337/9/1 340/10/1 341/11/1 338/12/1
f 342/1/1 343/2/1 344/3/1 345/4/1
f 343/1/1 346/2/1 347/3/1 344/4/1
f 346/1/1 348/2/1 349/3/1 347/4/1
f 350/5/1 351/6/1 352/7/1 353/8/1
f 351/5/1 354/6/1 355/7/1 352/8/1
f 356/1/1 357/2/1 358/3/1 359/4/1
f 357/1/1 360/2/1 361/3/1 358/4/1
f 360/1/1 362/2/1 363/3/1 361/4/1
f 362/1/1 364/2/1 365/3/1 363/4/1
f 366/1/1 367/2/1 368/3/1 369/4/1
f 367/1/1 370/2/1 371/3/1 368/4/1
f 372/1/1 373/2/1 374/3/1 375/4/1
f 373/1/1 376/2/1 377/3/1 374/4/1
f 378/1/1 379/2/1 380/3/1 381/4/1
f 379/1/1 382/2/1 383/3/1 380/4/1
f 384/1/1 385/2/1 386/3/1 387/4/1
f 385/1/1 388/2/1 389/3/1 386/4/1
f 390/1/1 391/2/1 392/3/1 393/4/1
f 394/5/1 395/6/1 396/7/1 397/8/1
f 398/1/1 399/2/1 400/3/1 401/4/1
f 402/21/1 403/22/1 404/23/1 405/24/1
f 406/1/1 407/2/1 408/3/1 409/4/1
f 407/1/1 410/2/1 411/3/1 408/4/1
f 412/5/1 413/6/1 414/7/1 415/8/1
f 416/17/1 417/18/1 328/19/1 418/20/1
f 417/17/1 419/18/1 329/19/1 328/20/1
f 419/17/1 420/18/1 332/19/1 329/20/1
f 420/17/1 421/18/1 334/19/1 332/20/1
f 421/17/1 422/18/1 336/19/1 334/20/1
f 422/17/1 423/18/1 337/19/1 336/20/1
f 423/17/1 424/18/1 340/19/1 337/20/1
f 424/17/1 425/18/1 426/19/1 340/20/1
f 425/17/1 427/18/1 342/19/1 426/20/1
f 427/17/1 428/18/1 343/19/1 342/20/1
f 428/17/1 429/18/1 346/19/1 343/20/1
f 429/17/1 430/18/1 348/19/1 346/20/1
f 430/17/1 431/18/1 432/19/1 348/20/1
f 431/17/1 433/18/1 350/19/1 432/20/1
f 433/17/1 434/18/1 351/19/1 350/20/1
f 434/17/1 435/18/1 354/19/1 351/20/1
f 435/17/1 436/18/1 437/19/1 354/20/1
f 436/17/1 438/18/1 356/19/1 437/20/1
f 438/17/1 439/18/1 357/19/1 356/20/1
f 439/17/1 440/18/1 360/19/1 357/20/1
f 440/17/1 441/18/1 362/19/1 360/20/1
f 441/17/1 442/18/1 364/19/1 362/20/1
f 442/17/1 443/18/1 444/19/1 364/20/1
f 443/17/1 445/18/1 446/19/1 444/20/1
f 447/1/1 448/2/1 449/3/1 450/4/1
f 451/21/1 452/22/1 453/23/1 454/24/1
f 452/17/1 455/18/1 366/19/1 453/20/1
f 455/17/1 456/18/1 367/19/1 366/20/1
f 456/17/1 457/18/1 370/19/1 367/20/1
f 457/17/1 458/18/1 459/19/1 370/20/1
f 460/17/1 461/18/1 373/19/1 372/20/1
f 461/17/1 462/18/1 376/19/1 373/20/1
f 463/17/1 464/18/1 379/19/1 378/20/1
f 464/17/1 465/18/1 382/19/1 379/20/1
f 466/17/1 467/18/1 385/19/1 384/20/1
f 467/17/1 468/18/1 388/19/1 385/20/1
f 468/1/1 469/2/1 470/3/1 388/4/1
f 469/1/1 471/2/1 472/3/1 470/4/1
f 471/17/1 473/18/1 390/19/1 472/20/1
f 473/17/1 474/18/1 391/19/1 390/20/1
f 474/17/1 475/18/1 394/19/1 391/20/1
f 475/17/1 476/18/1 395/19/1 394/20/1
f 476/17/1 477/18/1 398/19/1 395/20/1
f 477/17/1 478/18/1 399/19/1 398/20/1
f 478/17/1 479/18/1 402/19/1 399/20/1
f 479/17/1 480/18/1 403/19/1 402/20/1
f 480/17/1 481/18/1 406/19/1 403/20/1
f 481/17/1 482/18/1 407/19/1 406/20/1
f 482/17/1 483/18/1 410/19/1 407/20/1
f 483/17/1 484/18/1 412/19/1 410/20/1
f 484/17/1 485/18/1 413/19/1 412/20/1
f 485/17/1 486/18/1 487/19/1 413/20/1
f 486/17/1 488/18/1 489/19/1 487/20/1
f 490/1/1 491/2/1 492/3/1 493/4/1
f 494/13/1 495/14/1 496/15/1 497/16/1
f 498/1/1 499/2/1 500/3/1 501/4/1
f 499/1/1 502/2/1 503/3/1 500/4/1
f 502/1/1 504/2/1 505/3/1 503/4/1
f 506/17/1 507/18/1 447/19/1 508/20/1
f 507/17/1 509/18/1 448/19/1 447/20/1
f 509/17/1 510/18/1 451/19/1 448/20/1
f 510/17/1 511/18/1 452/19/1 451/20/1
f 512/17/1 513/18/1 468/19/1 467/20/1
f 513/17/1 514/18/1 469/19/1 468/20/1
f 514/17/1 515/18/1 471/19/1 469/20/1
f 515/17/1 516/18/1 473/19/1 471/20/1
f 517/17/1 518/18/1 490/19/1 488/20/1
f 518/17/1 519/18/1 491/19/1 490/20/1
f 519/17/1 520/18/1 521/19/1 491/20/1
f 520/25/1 522/26/1 523/27/1 521/28/1
f 522/25/1 524/26/1 525/27/1 523/28/1
f 526/1/1 527/2/1 528/3/1 529/4/1
f 530/17/1 531/18/1 494/19/1 532/20/1
f 531/17/1 533/18/1 495/19/1 494/20/1
f 533/17/1 534/18/1 498/19/1 495/20/1
f 534/17/1 535/18/1 499/19/1 498/20/1
f 535/17/1 536/18/1 502/19/1 499/20/1
f 536/17/1 537/18/1 504/19/1 502/20/1
f 537/17/1 538/18/1 506/19/1 504/20/1
f 539/17/1 540/18/1 526/19/1 524/20/1
f 540/17/1 541/18/1 527/19/1 526/20/1
f 541/17/1 542/18/1 543/19/1 527/20/1
f 542/25/1 544/26/1 545/27/1 543/28/1
f 544/25/1 546/26/1 547/27/1 545/28/1
f 548/1/1 549/2/1 550/3/1 551/4/1
f 549/1/1 552/2/1 553/3/1 550/4/1
f 552/1/1 554/2/1 555/3/1 553/4/1
f 554/1/1 556/2/1 557/3/1 555/4/1
f 558/21/1 559/22/1 560/23/1 561/24/1
f 559/9/1 562/10/1 563/11/1 560/12/1
f 564/1/1 565/2/1 566/3/1 567/4/1
f 565/1/1 568/2/1 569/3/1 566/4/1
f 568/1/1 570/2/1 571/3/1 569/4/1
f 570/1/1 572/2/1 573/3/1 571/4/1
f 574/1/1 575/2/1 576/3/1 577/4/1
f 575/1/1 578/2/1 579/3/1 576/4/1
f 578/1/1 580/2/1 581/3/1 579/4/1
f 580/1/1 582/2/1 583/3/1 581/4/1
f 584/17/1 585/18/1 586/19/1 546/20/1
f 585/17/1 587/18/1 548/19/1 586/20/1
f 587/17/1 588/18/1 549/19/1 548/20/1
f 588/17/1 589/18/1 552/19/1 549/20/1
f 589/17/1 590/18/1 554/19/1 552/20/1
f 590/17/1 591/18/1 556/19/1 554/20/1
f 591/17/1 592/18/1 558/19/1 556/20/1
f 592/17/1 593/18/1 559/19/1 558/20/1
f 593/17/1 594/18/1 562/19/1 559/20/1
f 594/17/1 595/18/1 564/19/1 562/20/1
f 595/17/1 596/18/1 565/19/1 564/20/1
f 596/17/1 597/18/1 568/19/1 565/20/1
f 597/17/1 598/18/1 570/19/1 568/20/1
f 598/17/1 599/18/1 572/19/1 570/20/1
f 599/17/1 600/18/1 601/19/1 572/20/1
f 600/25/1 602/26/1 603/27/1 601/28/1
f 602/25/1 604/26/1 605/27/1 603/28/1
f 604/25/1 606/26/1 607/27/1 605/28/1
f 606/17/1 608/18/1 574/19/1 607/20/1
f 608/17/1 609/18/1 575/19/1 574/20/1
f 609/17/1 610/18/1 578/19/1 575/20/1
f 610/17/1 611/18/1 580/19/1 578/20/1
f 611/17/1 612/18/1 582/19/1 580/20/1
f 612/17/1 613/18/1 614/19/1 582/20/1

