# Wavefront OBJ file automatically generated by Tiled2Unity

# Vertices (Count = 258)
v -80 -240 0
v -160 -240 0
v -160 -160 0
v -80 -160 0
v -240 -240 0
v -240 -160 0
v 0 -320 0
v -80 -320 0
v 0 -240 0
v -160 -320 0
v -240 -320 0
v -320 -320 0
v -400 -320 0
v -400 -240 0
v -320 -240 0
v -480 -320 0
v -480 -240 0
v -560 -320 0
v -560 -240 0
v -640 -320 0
v -720 -320 0
v -720 -240 0
v -640 -240 0
v -800 -320 0
v -880 -320 0
v -880 -240 0
v -800 -240 0
v -960 -320 0
v -960 -240 0
v -1040 -320 0
v -1040 -240 0
v -1120 -320 0
v -1120 -240 0
v -1200 -320 0
v -1280 -320 0
v -1280 -240 0
v -1200 -240 0
v 0 -400 0
v -80 -400 0
v -160 -400 0
v -240 -400 0
v -320 -400 0
v -400 -400 0
v -480 -400 0
v -560 -400 0
v -640 -400 0
v -720 -400 0
v -800 -400 0
v -880 -400 0
v -960 -400 0
v -1040 -400 0
v -1120 -400 0
v -1200 -400 0
v -1280 -400 0
v -1360 -400 0
v -1360 -320 0
v -1520 -480 0
v -1600 -480 0
v -1600 -400 0
v -1520 -400 0
v -1680 -480 0
v -1680 -400 0
v -1760 -480 0
v -1760 -400 0
v -1840 -480 0
v -1920 -480 0
v -1920 -400 0
v -1840 -400 0
v -2080 -480 0
v -2160 -480 0
v -2160 -400 0
v -2080 -400 0
v -2240 -480 0
v -2240 -400 0
v -2320 -480 0
v -2320 -400 0
v -2400 -480 0
v -2480 -480 0
v -2480 -400 0
v -2400 -400 0
v -2560 -480 0
v -2560 -400 0
v -2640 -480 0
v -2720 -480 0
v -2720 -400 0
v -2640 -400 0
v -2800 -480 0
v -2800 -400 0
v -4880 -480 0
v -4960 -480 0
v -4960 -400 0
v -4880 -400 0
v -5040 -480 0
v -5120 -480 0
v -5120 -400 0
v -5040 -400 0
v -5200 -480 0
v -5200 -400 0
v -5280 -480 0
v -5360 -480 0
v -5360 -400 0
v -5280 -400 0
v -6080 -480 0
v -6160 -480 0
v -6160 -400 0
v -6080 -400 0
v -6240 -480 0
v -6320 -480 0
v -6320 -400 0
v -6240 -400 0
v -6400 -480 0
v -6400 -400 0
v -6480 -480 0
v -6560 -480 0
v -6560 -400 0
v -6480 -400 0
v -1440 -560 0
v -1520 -560 0
v -1440 -480 0
v -1600 -560 0
v -1680 -560 0
v -1760 -560 0
v -1840 -560 0
v -1920 -560 0
v -2000 -560 0
v -2000 -480 0
v -2080 -560 0
v -2160 -560 0
v -2240 -560 0
v -2320 -560 0
v -2400 -560 0
v -2480 -560 0
v -2560 -560 0
v -2640 -560 0
v -2720 -560 0
v -2800 -560 0
v -4480 -560 0
v -4560 -560 0
v -4560 -480 0
v -4480 -480 0
v -4640 -560 0
v -4640 -480 0
v -4720 -560 0
v -4720 -480 0
v -4800 -560 0
v -4800 -480 0
v -4880 -560 0
v -4960 -560 0
v -5040 -560 0
v -5120 -560 0
v -5200 -560 0
v -5280 -560 0
v -5360 -560 0
v -5440 -560 0
v -5440 -480 0
v -5520 -560 0
v -5520 -480 0
v -5600 -560 0
v -5600 -480 0
v -5760 -560 0
v -5840 -560 0
v -5840 -480 0
v -5760 -480 0
v -5920 -560 0
v -5920 -480 0
v -6000 -560 0
v -6000 -480 0
v -6080 -560 0
v -6160 -560 0
v -6240 -560 0
v -6320 -560 0
v -6400 -560 0
v -6480 -560 0
v -6560 -560 0
v -6640 -560 0
v -6640 -480 0
v -6720 -560 0
v -6720 -480 0
v -6800 -560 0
v -6800 -480 0
v -6880 -560 0
v -6960 -560 0
v -6960 -480 0
v -6880 -480 0
v -7040 -560 0
v -7040 -480 0
v -7120 -560 0
v -7120 -480 0
v -4400 -640 0
v -4480 -640 0
v -4400 -560 0
v -4560 -640 0
v -4640 -640 0
v -4720 -640 0
v -4800 -640 0
v -5600 -640 0
v -5680 -640 0
v -5680 -560 0
v -5760 -640 0
v -5840 -640 0
v -5920 -640 0
v -6000 -640 0
v -6800 -640 0
v -6880 -640 0
v -6960 -640 0
v -7040 -640 0
v -7120 -640 0
v -7200 -640 0
v -7200 -560 0
v -2960 -720 0
v -3040 -720 0
v -3040 -640 0
v -2960 -640 0
v -3120 -720 0
v -3120 -640 0
v -3440 -720 0
v -3520 -720 0
v -3520 -640 0
v -3440 -640 0
v -3600 -720 0
v -3600 -640 0
v -3920 -720 0
v -4000 -720 0
v -4000 -640 0
v -3920 -640 0
v -4080 -720 0
v -4080 -640 0
v -4160 -720 0
v -4160 -640 0
v -4240 -720 0
v -4240 -640 0
v -2880 -800 0
v -2960 -800 0
v -2880 -720 0
v -3040 -800 0
v -3120 -800 0
v -3200 -800 0
v -3200 -720 0
v -3280 -800 0
v -3280 -720 0
v -3360 -800 0
v -3360 -720 0
v -3440 -800 0
v -3520 -800 0
v -3600 -800 0
v -3680 -800 0
v -3680 -720 0
v -3760 -800 0
v -3760 -720 0
v -3840 -800 0
v -3840 -720 0
v -3920 -800 0
v -4000 -800 0
v -4080 -800 0
v -4160 -800 0
v -4240 -800 0
v -4320 -800 0
v -4320 -720 0

# Texture cooridinates (Count = 48)
vt 0.2501221 0.2501221
vt 0.3748779 0.2501221
vt 0.3748779 0.4998779
vt 0.2501221 0.4998779
vt 0.3751221 0.2501221
vt 0.4998779 0.2501221
vt 0.4998779 0.4998779
vt 0.3751221 0.4998779
vt 0.0001220703 0.7501221
vt 0.1248779 0.7501221
vt 0.1248779 0.9998779
vt 0.0001220703 0.9998779
vt 0.2501221 0.0001220703
vt 0.3748779 0.0001220703
vt 0.3748779 0.2498779
vt 0.2501221 0.2498779
vt 0.3751221 0.0001220703
vt 0.4998779 0.0001220703
vt 0.4998779 0.2498779
vt 0.3751221 0.2498779
vt 0.2501221 0.7501221
vt 0.3748779 0.7501221
vt 0.3748779 0.9998779
vt 0.2501221 0.9998779
vt 0.6251221 0.7501221
vt 0.7498779 0.7501221
vt 0.7498779 0.9998779
vt 0.6251221 0.9998779
vt 0.1251221 0.7501221
vt 0.2498779 0.7501221
vt 0.2498779 0.9998779
vt 0.1251221 0.9998779
vt 0.5001221 0.7501221
vt 0.6248779 0.7501221
vt 0.6248779 0.9998779
vt 0.5001221 0.9998779
vt 0.3751221 0.7501221
vt 0.4998779 0.7501221
vt 0.4998779 0.9998779
vt 0.3751221 0.9998779
vt 0.7501221 0.7501221
vt 0.8748779 0.7501221
vt 0.8748779 0.9998779
vt 0.7501221 0.9998779
vt 0.2501221 0.5001221
vt 0.3748779 0.5001221
vt 0.3748779 0.7498779
vt 0.2501221 0.7498779

# Normal
vn 0 0 -1

# Groups (Count = 1)

g mesh_0001
f 1/1/1 2/2/1 3/3/1 4/4/1
f 2/5/1 5/6/1 6/7/1 3/8/1
f 7/9/1 8/10/1 1/11/1 9/12/1
f 8/13/1 10/14/1 2/15/1 1/16/1
f 10/17/1 11/18/1 5/19/1 2/20/1
f 12/21/1 13/22/1 14/23/1 15/24/1
f 13/21/1 16/22/1 17/23/1 14/24/1
f 16/21/1 18/22/1 19/23/1 17/24/1
f 20/25/1 21/26/1 22/27/1 23/28/1
f 24/21/1 25/22/1 26/23/1 27/24/1
f 25/21/1 28/22/1 29/23/1 26/24/1
f 28/21/1 30/22/1 31/23/1 29/24/1
f 30/21/1 32/22/1 33/23/1 31/24/1
f 34/25/1 35/26/1 36/27/1 37/28/1
f 38/29/1 39/30/1 8/31/1 7/32/1
f 39/29/1 40/30/1 10/31/1 8/32/1
f 40/29/1 41/30/1 11/31/1 10/32/1
f 41/29/1 42/30/1 12/31/1 11/32/1
f 42/29/1 43/30/1 13/31/1 12/32/1
f 43/29/1 44/30/1 16/31/1 13/32/1
f 44/29/1 45/30/1 18/31/1 16/32/1
f 45/29/1 46/30/1 20/31/1 18/32/1
f 46/29/1 47/30/1 21/31/1 20/32/1
f 47/29/1 48/30/1 24/31/1 21/32/1
f 48/29/1 49/30/1 25/31/1 24/32/1
f 49/29/1 50/30/1 28/31/1 25/32/1
f 50/29/1 51/30/1 30/31/1 28/32/1
f 51/29/1 52/30/1 32/31/1 30/32/1
f 52/29/1 53/30/1 34/31/1 32/32/1
f 53/29/1 54/30/1 35/31/1 34/32/1
f 54/29/1 55/30/1 56/31/1 35/32/1
f 57/21/1 58/22/1 59/23/1 60/24/1
f 58/21/1 61/22/1 62/23/1 59/24/1
f 61/21/1 63/22/1 64/23/1 62/24/1
f 65/33/1 66/34/1 67/35/1 68/36/1
f 69/21/1 70/22/1 71/23/1 72/24/1
f 70/21/1 73/22/1 74/23/1 71/24/1
f 73/21/1 75/22/1 76/23/1 74/24/1
f 77/33/1 78/34/1 79/35/1 80/36/1
f 78/33/1 81/34/1 82/35/1 79/36/1
f 83/21/1 84/22/1 85/23/1 86/24/1
f 84/21/1 87/22/1 88/23/1 85/24/1
f 89/21/1 90/22/1 91/23/1 92/24/1
f 93/37/1 94/38/1 95/39/1 96/40/1
f 94/37/1 97/38/1 98/39/1 95/40/1
f 99/21/1 100/22/1 101/23/1 102/24/1
f 103/21/1 104/22/1 105/23/1 106/24/1
f 107/41/1 108/42/1 109/43/1 110/44/1
f 108/41/1 111/42/1 112/43/1 109/44/1
f 113/21/1 114/22/1 115/23/1 116/24/1
f 117/29/1 118/30/1 57/31/1 119/32/1
f 118/29/1 120/30/1 58/31/1 57/32/1
f 120/29/1 121/30/1 61/31/1 58/32/1
f 121/29/1 122/30/1 63/31/1 61/32/1
f 122/29/1 123/30/1 65/31/1 63/32/1
f 123/29/1 124/30/1 66/31/1 65/32/1
f 124/29/1 125/30/1 126/31/1 66/32/1
f 125/29/1 127/30/1 69/31/1 126/32/1
f 127/29/1 128/30/1 70/31/1 69/32/1
f 128/29/1 129/30/1 73/31/1 70/32/1
f 129/29/1 130/30/1 75/31/1 73/32/1
f 130/29/1 131/30/1 77/31/1 75/32/1
f 131/29/1 132/30/1 78/31/1 77/32/1
f 132/29/1 133/30/1 81/31/1 78/32/1
f 133/29/1 134/30/1 83/31/1 81/32/1
f 134/29/1 135/30/1 84/31/1 83/32/1
f 135/29/1 136/30/1 87/31/1 84/32/1
f 137/21/1 138/22/1 139/23/1 140/24/1
f 138/21/1 141/22/1 142/23/1 139/24/1
f 141/21/1 143/22/1 144/23/1 142/24/1
f 143/25/1 145/26/1 146/27/1 144/28/1
f 145/29/1 147/30/1 89/31/1 146/32/1
f 147/29/1 148/30/1 90/31/1 89/32/1
f 148/29/1 149/30/1 93/31/1 90/32/1
f 149/29/1 150/30/1 94/31/1 93/32/1
f 150/29/1 151/30/1 97/31/1 94/32/1
f 151/29/1 152/30/1 99/31/1 97/32/1
f 152/29/1 153/30/1 100/31/1 99/32/1
f 153/29/1 154/30/1 155/31/1 100/32/1
f 154/45/1 156/46/1 157/47/1 155/48/1
f 156/45/1 158/46/1 159/47/1 157/48/1
f 160/21/1 161/22/1 162/23/1 163/24/1
f 161/21/1 164/22/1 165/23/1 162/24/1
f 164/21/1 166/22/1 167/23/1 165/24/1
f 166/29/1 168/30/1 103/31/1 167/32/1
f 168/29/1 169/30/1 104/31/1 103/32/1
f 169/29/1 170/30/1 107/31/1 104/32/1
f 170/29/1 171/30/1 108/31/1 107/32/1
f 171/29/1 172/30/1 111/31/1 108/32/1
f 172/29/1 173/30/1 113/31/1 111/32/1
f 173/29/1 174/30/1 114/31/1 113/32/1
f 174/29/1 175/30/1 176/31/1 114/32/1
f 175/45/1 177/46/1 178/47/1 176/48/1
f 177/45/1 179/46/1 180/47/1 178/48/1
f 181/21/1 182/22/1 183/23/1 184/24/1
f 182/21/1 185/22/1 186/23/1 183/24/1
f 185/21/1 187/22/1 188/23/1 186/24/1
f 189/29/1 190/30/1 137/31/1 191/32/1
f 190/29/1 192/30/1 138/31/1 137/32/1
f 192/29/1 193/30/1 141/31/1 138/32/1
f 193/29/1 194/30/1 143/31/1 141/32/1
f 194/29/1 195/30/1 145/31/1 143/32/1
f 196/29/1 197/30/1 198/31/1 158/32/1
f 197/29/1 199/30/1 160/31/1 198/32/1
f 199/29/1 200/30/1 161/31/1 160/32/1
f 200/29/1 201/30/1 164/31/1 161/32/1
f 201/29/1 202/30/1 166/31/1 164/32/1
f 203/29/1 204/30/1 181/31/1 179/32/1
f 204/29/1 205/30/1 182/31/1 181/32/1
f 205/29/1 206/30/1 185/31/1 182/32/1
f 206/29/1 207/30/1 187/31/1 185/32/1
f 207/29/1 208/30/1 209/31/1 187/32/1
f 210/21/1 211/22/1 212/23/1 213/24/1
f 211/21/1 214/22/1 215/23/1 212/24/1
f 216/21/1 217/22/1 218/23/1 219/24/1
f 217/21/1 220/22/1 221/23/1 218/24/1
f 222/21/1 223/22/1 224/23/1 225/24/1
f 223/21/1 226/22/1 227/23/1 224/24/1
f 226/21/1 228/22/1 229/23/1 227/24/1
f 228/21/1 230/22/1 231/23/1 229/24/1
f 232/29/1 233/30/1 210/31/1 234/32/1
f 233/29/1 235/30/1 211/31/1 210/32/1
f 235/29/1 236/30/1 214/31/1 211/32/1
f 236/29/1 237/30/1 238/31/1 214/32/1
f 237/45/1 239/46/1 240/47/1 238/48/1
f 239/45/1 241/46/1 242/47/1 240/48/1
f 241/45/1 243/46/1 216/47/1 242/48/1
f 243/29/1 244/30/1 217/31/1 216/32/1
f 244/29/1 245/30/1 220/31/1 217/32/1
f 245/45/1 246/46/1 247/47/1 220/48/1
f 246/45/1 248/46/1 249/47/1 247/48/1
f 248/45/1 250/46/1 251/47/1 249/48/1
f 250/29/1 252/30/1 222/31/1 251/32/1
f 252/29/1 253/30/1 223/31/1 222/32/1
f 253/29/1 254/30/1 226/31/1 223/32/1
f 254/29/1 255/30/1 228/31/1 226/32/1
f 255/29/1 256/30/1 230/31/1 228/32/1
f 256/29/1 257/30/1 258/31/1 230/32/1

