# Wavefront OBJ file automatically generated by Tiled2Unity

# Vertices (Count = 405)
v -80 -240 0
v -160 -240 0
v -160 -160 0
v -80 -160 0
v -240 -240 0
v -240 -160 0
v 0 -320 0
v -80 -320 0
v 0 -240 0
v -160 -320 0
v -240 -320 0
v -320 -320 0
v -320 -240 0
v -400 -320 0
v -400 -240 0
v -480 -320 0
v -480 -240 0
v -560 -320 0
v -640 -320 0
v -640 -240 0
v -560 -240 0
v -720 -320 0
v -720 -240 0
v -800 -320 0
v -880 -320 0
v -880 -240 0
v -800 -240 0
v -1840 -320 0
v -1920 -320 0
v -1920 -240 0
v -1840 -240 0
v -2000 -320 0
v -2080 -320 0
v -2080 -240 0
v -2000 -240 0
v -2160 -320 0
v -2240 -320 0
v -2240 -240 0
v -2160 -240 0
v -2320 -320 0
v -2400 -320 0
v -2400 -240 0
v -2320 -240 0
v -2480 -320 0
v -2560 -320 0
v -2560 -240 0
v -2480 -240 0
v -2640 -320 0
v -2640 -240 0
v -2720 -320 0
v -2800 -320 0
v -2800 -240 0
v -2720 -240 0
v -2880 -320 0
v -2960 -320 0
v -2960 -240 0
v -2880 -240 0
v -3040 -320 0
v -3040 -240 0
v -3840 -320 0
v -3920 -320 0
v -3920 -240 0
v -3840 -240 0
v -4000 -320 0
v -4000 -240 0
v -4320 -320 0
v -4400 -320 0
v -4400 -240 0
v -4320 -240 0
v -4480 -320 0
v -4480 -240 0
v -4560 -320 0
v -4640 -320 0
v -4640 -240 0
v -4560 -240 0
v -4720 -320 0
v -4720 -240 0
v -4800 -320 0
v -4800 -240 0
v -4880 -320 0
v -4960 -320 0
v -4960 -240 0
v -4880 -240 0
v 0 -400 0
v -80 -400 0
v -160 -400 0
v -240 -400 0
v -320 -400 0
v -400 -400 0
v -480 -400 0
v -560 -400 0
v -640 -400 0
v -720 -400 0
v -800 -400 0
v -880 -400 0
v -960 -400 0
v -960 -320 0
v -1040 -400 0
v -1120 -400 0
v -1120 -320 0
v -1040 -320 0
v -1520 -400 0
v -1600 -400 0
v -1600 -320 0
v -1520 -320 0
v -1680 -400 0
v -1760 -400 0
v -1760 -320 0
v -1680 -320 0
v -1840 -400 0
v -1920 -400 0
v -2000 -400 0
v -2080 -400 0
v -2160 -400 0
v -2240 -400 0
v -2320 -400 0
v -2400 -400 0
v -2480 -400 0
v -2560 -400 0
v -2640 -400 0
v -2720 -400 0
v -2800 -400 0
v -2880 -400 0
v -2960 -400 0
v -3040 -400 0
v -3120 -400 0
v -3120 -320 0
v -3600 -400 0
v -3680 -400 0
v -3680 -320 0
v -3600 -320 0
v -3760 -400 0
v -3840 -400 0
v -3760 -320 0
v -3920 -400 0
v -4000 -400 0
v -4080 -400 0
v -4080 -320 0
v -4240 -400 0
v -4320 -400 0
v -4240 -320 0
v -4400 -400 0
v -4480 -400 0
v -4560 -400 0
v -4640 -400 0
v -4720 -400 0
v -4800 -400 0
v -4880 -400 0
v -4960 -400 0
v -5040 -400 0
v -5040 -320 0
v -960 -480 0
v -1040 -480 0
v -1120 -480 0
v -1200 -480 0
v -1200 -400 0
v -1280 -480 0
v -1280 -400 0
v -1360 -480 0
v -1360 -400 0
v -1440 -480 0
v -1440 -400 0
v -1520 -480 0
v -1600 -480 0
v -1680 -480 0
v -1760 -480 0
v -3280 -480 0
v -3360 -480 0
v -3360 -400 0
v -3280 -400 0
v -3440 -480 0
v -3440 -400 0
v -3520 -480 0
v -3600 -480 0
v -3520 -400 0
v -3680 -480 0
v -3760 -480 0
v -3200 -560 0
v -3280 -560 0
v -3200 -480 0
v -3360 -560 0
v -3440 -560 0
v -3520 -560 0
v -5840 -800 0
v -5920 -800 0
v -5920 -720 0
v -5840 -720 0
v -6000 -800 0
v -6000 -720 0
v -3840 -880 0
v -3920 -880 0
v -3920 -800 0
v -3840 -800 0
v -4000 -880 0
v -4080 -880 0
v -4080 -800 0
v -4000 -800 0
v -4160 -880 0
v -4240 -880 0
v -4240 -800 0
v -4160 -800 0
v -4320 -880 0
v -4320 -800 0
v -4400 -880 0
v -4480 -880 0
v -4480 -800 0
v -4400 -800 0
v -4560 -880 0
v -4640 -880 0
v -4640 -800 0
v -4560 -800 0
v -4720 -880 0
v -4800 -880 0
v -4800 -800 0
v -4720 -800 0
v -4880 -880 0
v -4960 -880 0
v -4960 -800 0
v -4880 -800 0
v -5040 -880 0
v -5040 -800 0
v -5120 -880 0
v -5200 -880 0
v -5200 -800 0
v -5120 -800 0
v -5280 -880 0
v -5280 -800 0
v -5360 -880 0
v -5440 -880 0
v -5440 -800 0
v -5360 -800 0
v -5520 -880 0
v -5520 -800 0
v -5600 -880 0
v -5600 -800 0
v -5680 -880 0
v -5680 -800 0
v -5760 -880 0
v -5760 -800 0
v -5840 -880 0
v -5920 -880 0
v -6000 -880 0
v -3760 -960 0
v -3840 -960 0
v -3760 -880 0
v -3920 -960 0
v -4000 -960 0
v -4080 -960 0
v -4160 -960 0
v -4240 -960 0
v -4320 -960 0
v -4400 -960 0
v -4480 -960 0
v -4560 -960 0
v -4640 -960 0
v -4720 -960 0
v -4800 -960 0
v -4880 -960 0
v -4960 -960 0
v -5040 -960 0
v -5120 -960 0
v -5200 -960 0
v -5280 -960 0
v -5360 -960 0
v -5440 -960 0
v -5520 -960 0
v -5600 -960 0
v -5680 -960 0
v -5760 -960 0
v -5840 -960 0
v -5920 -960 0
v -6000 -960 0
v -2000 -1040 0
v -2080 -1040 0
v -2080 -960 0
v -2000 -960 0
v -2640 -1040 0
v -2720 -1040 0
v -2720 -960 0
v -2640 -960 0
v -3200 -1040 0
v -3280 -1040 0
v -3280 -960 0
v -3200 -960 0
v -3360 -1040 0
v -3360 -960 0
v -3440 -1040 0
v -3520 -1040 0
v -3520 -960 0
v -3440 -960 0
v -3600 -1040 0
v -3600 -960 0
v -3680 -1040 0
v -3680 -960 0
v -1920 -1120 0
v -2000 -1120 0
v -1920 -1040 0
v -2080 -1120 0
v -2160 -1120 0
v -2160 -1040 0
v -2560 -1120 0
v -2640 -1120 0
v -2560 -1040 0
v -2720 -1120 0
v -2800 -1120 0
v -2800 -1040 0
v -3200 -1120 0
v -3280 -1120 0
v -3360 -1120 0
v -3440 -1120 0
v -3520 -1120 0
v -3600 -1120 0
v -3680 -1120 0
v -3760 -1120 0
v -3760 -1040 0
v -80 -1200 0
v -160 -1200 0
v -160 -1120 0
v -80 -1120 0
v -240 -1200 0
v -240 -1120 0
v -320 -1200 0
v -400 -1200 0
v -400 -1120 0
v -320 -1120 0
v -480 -1200 0
v -480 -1120 0
v -560 -1200 0
v -640 -1200 0
v -640 -1120 0
v -560 -1120 0
v -720 -1200 0
v -720 -1120 0
v -800 -1200 0
v -800 -1120 0
v -880 -1200 0
v -960 -1200 0
v -960 -1120 0
v -880 -1120 0
v -1040 -1200 0
v -1120 -1200 0
v -1120 -1120 0
v -1040 -1120 0
v -1200 -1200 0
v -1200 -1120 0
v -1280 -1200 0
v -1280 -1120 0
v -1360 -1200 0
v -1440 -1200 0
v -1440 -1120 0
v -1360 -1120 0
v -1520 -1200 0
v -1600 -1200 0
v -1600 -1120 0
v -1520 -1120 0
v -1680 -1200 0
v -1680 -1120 0
v -1760 -1200 0
v -1760 -1120 0
v -2320 -1200 0
v -2400 -1200 0
v -2400 -1120 0
v -2320 -1120 0
v -2960 -1200 0
v -3040 -1200 0
v -3040 -1120 0
v -2960 -1120 0
v 0 -1280 0
v -80 -1280 0
v 0 -1200 0
v -160 -1280 0
v -240 -1280 0
v -320 -1280 0
v -400 -1280 0
v -480 -1280 0
v -560 -1280 0
v -640 -1280 0
v -720 -1280 0
v -800 -1280 0
v -880 -1280 0
v -960 -1280 0
v -1040 -1280 0
v -1120 -1280 0
v -1200 -1280 0
v -1280 -1280 0
v -1360 -1280 0
v -1440 -1280 0
v -1520 -1280 0
v -1600 -1280 0
v -1680 -1280 0
v -1760 -1280 0
v -1840 -1280 0
v -1840 -1200 0
v -2240 -1280 0
v -2320 -1280 0
v -2240 -1200 0
v -2400 -1280 0
v -2480 -1280 0
v -2480 -1200 0
v -2880 -1280 0
v -2960 -1280 0
v -2880 -1200 0
v -3040 -1280 0
v -3120 -1280 0
v -3120 -1200 0

# Texture cooridinates (Count = 64)
vt 0.2501221 0.2501221
vt 0.3748779 0.2501221
vt 0.3748779 0.4998779
vt 0.2501221 0.4998779
vt 0.3751221 0.2501221
vt 0.4998779 0.2501221
vt 0.4998779 0.4998779
vt 0.3751221 0.4998779
vt 0.0001220703 0.7501221
vt 0.1248779 0.7501221
vt 0.1248779 0.9998779
vt 0.0001220703 0.9998779
vt 0.2501221 0.0001220703
vt 0.3748779 0.0001220703
vt 0.3748779 0.2498779
vt 0.2501221 0.2498779
vt 0.3751221 0.0001220703
vt 0.4998779 0.0001220703
vt 0.4998779 0.2498779
vt 0.3751221 0.2498779
vt 0.2501221 0.7501221
vt 0.3748779 0.7501221
vt 0.3748779 0.9998779
vt 0.2501221 0.9998779
vt 0.3751221 0.7501221
vt 0.4998779 0.7501221
vt 0.4998779 0.9998779
vt 0.3751221 0.9998779
vt 0.5001221 0.7501221
vt 0.6248779 0.7501221
vt 0.6248779 0.9998779
vt 0.5001221 0.9998779
vt 0.6251221 0.7501221
vt 0.7498779 0.7501221
vt 0.7498779 0.9998779
vt 0.6251221 0.9998779
vt 0.7501221 0.7501221
vt 0.8748779 0.7501221
vt 0.8748779 0.9998779
vt 0.7501221 0.9998779
vt 0.1251221 0.7501221
vt 0.2498779 0.7501221
vt 0.2498779 0.9998779
vt 0.1251221 0.9998779
vt 0.2501221 0.5001221
vt 0.3748779 0.5001221
vt 0.3748779 0.7498779
vt 0.2501221 0.7498779
vt 0.0001220703 0.2501221
vt 0.1248779 0.2501221
vt 0.1248779 0.4998779
vt 0.0001220703 0.4998779
vt 0.1251221 0.2501221
vt 0.2498779 0.2501221
vt 0.2498779 0.4998779
vt 0.1251221 0.4998779
vt 0.0001220703 0.0001220703
vt 0.1248779 0.0001220703
vt 0.1248779 0.2498779
vt 0.0001220703 0.2498779
vt 0.1251221 0.0001220703
vt 0.2498779 0.0001220703
vt 0.2498779 0.2498779
vt 0.1251221 0.2498779

# Normal
vn 0 0 -1

# Groups (Count = 1)

g mesh_0001
f 1/1/1 2/2/1 3/3/1 4/4/1
f 2/5/1 5/6/1 6/7/1 3/8/1
f 7/9/1 8/10/1 1/11/1 9/12/1
f 8/13/1 10/14/1 2/15/1 1/16/1
f 10/17/1 11/18/1 5/19/1 2/20/1
f 11/21/1 12/22/1 13/23/1 5/24/1
f 12/21/1 14/22/1 15/23/1 13/24/1
f 14/21/1 16/22/1 17/23/1 15/24/1
f 18/25/1 19/26/1 20/27/1 21/28/1
f 19/29/1 22/30/1 23/31/1 20/32/1
f 24/21/1 25/22/1 26/23/1 27/24/1
f 28/21/1 29/22/1 30/23/1 31/24/1
f 32/33/1 33/34/1 34/35/1 35/36/1
f 36/21/1 37/22/1 38/23/1 39/24/1
f 40/37/1 41/38/1 42/39/1 43/40/1
f 44/21/1 45/22/1 46/23/1 47/24/1
f 45/21/1 48/22/1 49/23/1 46/24/1
f 50/29/1 51/30/1 52/31/1 53/32/1
f 54/21/1 55/22/1 56/23/1 57/24/1
f 55/21/1 58/22/1 59/23/1 56/24/1
f 60/21/1 61/22/1 62/23/1 63/24/1
f 61/21/1 64/22/1 65/23/1 62/24/1
f 66/21/1 67/22/1 68/23/1 69/24/1
f 67/21/1 70/22/1 71/23/1 68/24/1
f 72/29/1 73/30/1 74/31/1 75/32/1
f 73/37/1 76/38/1 77/39/1 74/40/1
f 76/29/1 78/30/1 79/31/1 77/32/1
f 80/21/1 81/22/1 82/23/1 83/24/1
f 84/41/1 85/42/1 8/43/1 7/44/1
f 85/41/1 86/42/1 10/43/1 8/44/1
f 86/41/1 87/42/1 11/43/1 10/44/1
f 87/41/1 88/42/1 12/43/1 11/44/1
f 88/41/1 89/42/1 14/43/1 12/44/1
f 89/41/1 90/42/1 16/43/1 14/44/1
f 90/41/1 91/42/1 18/43/1 16/44/1
f 91/41/1 92/42/1 19/43/1 18/44/1
f 92/41/1 93/42/1 22/43/1 19/44/1
f 93/41/1 94/42/1 24/43/1 22/44/1
f 94/41/1 95/42/1 25/43/1 24/44/1
f 95/41/1 96/42/1 97/43/1 25/44/1
f 98/21/1 99/22/1 100/23/1 101/24/1
f 102/21/1 103/22/1 104/23/1 105/24/1
f 106/25/1 107/26/1 108/27/1 109/28/1
f 107/41/1 110/42/1 28/43/1 108/44/1
f 110/41/1 111/42/1 29/43/1 28/44/1
f 111/41/1 112/42/1 32/43/1 29/44/1
f 112/41/1 113/42/1 33/43/1 32/44/1
f 113/41/1 114/42/1 36/43/1 33/44/1
f 114/41/1 115/42/1 37/43/1 36/44/1
f 115/41/1 116/42/1 40/43/1 37/44/1
f 116/41/1 117/42/1 41/43/1 40/44/1
f 117/41/1 118/42/1 44/43/1 41/44/1
f 118/41/1 119/42/1 45/43/1 44/44/1
f 119/41/1 120/42/1 48/43/1 45/44/1
f 120/41/1 121/42/1 50/43/1 48/44/1
f 121/41/1 122/42/1 51/43/1 50/44/1
f 122/41/1 123/42/1 54/43/1 51/44/1
f 123/41/1 124/42/1 55/43/1 54/44/1
f 124/41/1 125/42/1 58/43/1 55/44/1
f 125/41/1 126/42/1 127/43/1 58/44/1
f 128/21/1 129/22/1 130/23/1 131/24/1
f 132/41/1 133/42/1 60/43/1 134/44/1
f 133/41/1 135/42/1 61/43/1 60/44/1
f 135/41/1 136/42/1 64/43/1 61/44/1
f 136/41/1 137/42/1 138/43/1 64/44/1
f 139/41/1 140/42/1 66/43/1 141/44/1
f 140/41/1 142/42/1 67/43/1 66/44/1
f 142/41/1 143/42/1 70/43/1 67/44/1
f 143/41/1 144/42/1 72/43/1 70/44/1
f 144/41/1 145/42/1 73/43/1 72/44/1
f 145/41/1 146/42/1 76/43/1 73/44/1
f 146/41/1 147/42/1 78/43/1 76/44/1
f 147/41/1 148/42/1 80/43/1 78/44/1
f 148/41/1 149/42/1 81/43/1 80/44/1
f 149/41/1 150/42/1 151/43/1 81/44/1
f 152/41/1 153/42/1 98/43/1 96/44/1
f 153/41/1 154/42/1 99/43/1 98/44/1
f 154/41/1 155/42/1 156/43/1 99/44/1
f 155/45/1 157/46/1 158/47/1 156/48/1
f 157/45/1 159/46/1 160/47/1 158/48/1
f 159/45/1 161/46/1 162/47/1 160/48/1
f 161/41/1 163/42/1 102/43/1 162/44/1
f 163/41/1 164/42/1 103/43/1 102/44/1
f 164/41/1 165/42/1 106/43/1 103/44/1
f 165/41/1 166/42/1 107/43/1 106/44/1
f 167/21/1 168/22/1 169/23/1 170/24/1
f 168/21/1 171/22/1 172/23/1 169/24/1
f 173/41/1 174/42/1 128/43/1 175/44/1
f 174/41/1 176/42/1 129/43/1 128/44/1
f 176/41/1 177/42/1 132/43/1 129/44/1
f 178/41/1 179/42/1 167/43/1 180/44/1
f 179/41/1 181/42/1 168/43/1 167/44/1
f 181/41/1 182/42/1 171/43/1 168/44/1
f 182/41/1 183/42/1 173/43/1 171/44/1
f 184/49/1 185/50/1 186/51/1 187/52/1
f 185/53/1 188/54/1 189/55/1 186/56/1
f 190/21/1 191/22/1 192/23/1 193/24/1
f 194/37/1 195/38/1 196/39/1 197/40/1
f 198/21/1 199/22/1 200/23/1 201/24/1
f 199/21/1 202/22/1 203/23/1 200/24/1
f 204/33/1 205/34/1 206/35/1 207/36/1
f 208/21/1 209/22/1 210/23/1 211/24/1
f 212/33/1 213/34/1 214/35/1 215/36/1
f 216/21/1 217/22/1 218/23/1 219/24/1
f 217/21/1 220/22/1 221/23/1 218/24/1
f 222/37/1 223/38/1 224/39/1 225/40/1
f 223/37/1 226/38/1 227/39/1 224/40/1
f 228/21/1 229/22/1 230/23/1 231/24/1
f 229/21/1 232/22/1 233/23/1 230/24/1
f 232/21/1 234/22/1 235/23/1 233/24/1
f 234/21/1 236/22/1 237/23/1 235/24/1
f 236/21/1 238/22/1 239/23/1 237/24/1
f 240/57/1 241/58/1 185/59/1 184/60/1
f 241/61/1 242/62/1 188/63/1 185/64/1
f 243/41/1 244/42/1 190/43/1 245/44/1
f 244/41/1 246/42/1 191/43/1 190/44/1
f 246/41/1 247/42/1 194/43/1 191/44/1
f 247/41/1 248/42/1 195/43/1 194/44/1
f 248/41/1 249/42/1 198/43/1 195/44/1
f 249/41/1 250/42/1 199/43/1 198/44/1
f 250/41/1 251/42/1 202/43/1 199/44/1
f 251/41/1 252/42/1 204/43/1 202/44/1
f 252/41/1 253/42/1 205/43/1 204/44/1
f 253/41/1 254/42/1 208/43/1 205/44/1
f 254/41/1 255/42/1 209/43/1 208/44/1
f 255/41/1 256/42/1 212/43/1 209/44/1
f 256/41/1 257/42/1 213/43/1 212/44/1
f 257/41/1 258/42/1 216/43/1 213/44/1
f 258/41/1 259/42/1 217/43/1 216/44/1
f 259/41/1 260/42/1 220/43/1 217/44/1
f 260/41/1 261/42/1 222/43/1 220/44/1
f 261/41/1 262/42/1 223/43/1 222/44/1
f 262/41/1 263/42/1 226/43/1 223/44/1
f 263/41/1 264/42/1 228/43/1 226/44/1
f 264/41/1 265/42/1 229/43/1 228/44/1
f 265/41/1 266/42/1 232/43/1 229/44/1
f 266/41/1 267/42/1 234/43/1 232/44/1
f 267/41/1 268/42/1 236/43/1 234/44/1
f 268/41/1 269/42/1 238/43/1 236/44/1
f 269/41/1 270/42/1 240/43/1 238/44/1
f 270/41/1 271/42/1 241/43/1 240/44/1
f 271/41/1 272/42/1 242/43/1 241/44/1
f 273/21/1 274/22/1 275/23/1 276/24/1
f 277/21/1 278/22/1 279/23/1 280/24/1
f 281/25/1 282/26/1 283/27/1 284/28/1
f 282/25/1 285/26/1 286/27/1 283/28/1
f 287/21/1 288/22/1 289/23/1 290/24/1
f 288/21/1 291/22/1 292/23/1 289/24/1
f 291/21/1 293/22/1 294/23/1 292/24/1
f 295/41/1 296/42/1 273/43/1 297/44/1
f 296/41/1 298/42/1 274/43/1 273/44/1
f 298/41/1 299/42/1 300/43/1 274/44/1
f 301/41/1 302/42/1 277/43/1 303/44/1
f 302/41/1 304/42/1 278/43/1 277/44/1
f 304/41/1 305/42/1 306/43/1 278/44/1
f 307/41/1 308/42/1 282/43/1 281/44/1
f 308/41/1 309/42/1 285/43/1 282/44/1
f 309/41/1 310/42/1 287/43/1 285/44/1
f 310/41/1 311/42/1 288/43/1 287/44/1
f 311/41/1 312/42/1 291/43/1 288/44/1
f 312/41/1 313/42/1 293/43/1 291/44/1
f 313/41/1 314/42/1 315/43/1 293/44/1
f 316/21/1 317/22/1 318/23/1 319/24/1
f 317/21/1 320/22/1 321/23/1 318/24/1
f 322/25/1 323/26/1 324/27/1 325/28/1
f 323/29/1 326/30/1 327/31/1 324/32/1
f 328/21/1 329/22/1 330/23/1 331/24/1
f 329/21/1 332/22/1 333/23/1 330/24/1
f 332/21/1 334/22/1 335/23/1 333/24/1
f 336/37/1 337/38/1 338/39/1 339/40/1
f 340/21/1 341/22/1 342/23/1 343/24/1
f 341/21/1 344/22/1 345/23/1 342/24/1
f 344/21/1 346/22/1 347/23/1 345/24/1
f 348/33/1 349/34/1 350/35/1 351/36/1
f 352/21/1 353/22/1 354/23/1 355/24/1
f 353/21/1 356/22/1 357/23/1 354/24/1
f 356/21/1 358/22/1 359/23/1 357/24/1
f 360/21/1 361/22/1 362/23/1 363/24/1
f 364/21/1 365/22/1 366/23/1 367/24/1
f 368/41/1 369/42/1 316/43/1 370/44/1
f 369/41/1 371/42/1 317/43/1 316/44/1
f 371/41/1 372/42/1 320/43/1 317/44/1
f 372/41/1 373/42/1 322/43/1 320/44/1
f 373/41/1 374/42/1 323/43/1 322/44/1
f 374/41/1 375/42/1 326/43/1 323/44/1
f 375/41/1 376/42/1 328/43/1 326/44/1
f 376/41/1 377/42/1 329/43/1 328/44/1
f 377/41/1 378/42/1 332/43/1 329/44/1
f 378/41/1 379/42/1 334/43/1 332/44/1
f 379/41/1 380/42/1 336/43/1 334/44/1
f 380/41/1 381/42/1 337/43/1 336/44/1
f 381/41/1 382/42/1 340/43/1 337/44/1
f 382/41/1 383/42/1 341/43/1 340/44/1
f 383/41/1 384/42/1 344/43/1 341/44/1
f 384/41/1 385/42/1 346/43/1 344/44/1
f 385/41/1 386/42/1 348/43/1 346/44/1
f 386/41/1 387/42/1 349/43/1 348/44/1
f 387/41/1 388/42/1 352/43/1 349/44/1
f 388/41/1 389/42/1 353/43/1 352/44/1
f 389/41/1 390/42/1 356/43/1 353/44/1
f 390/41/1 391/42/1 358/43/1 356/44/1
f 391/41/1 392/42/1 393/43/1 358/44/1
f 394/41/1 395/42/1 360/43/1 396/44/1
f 395/41/1 397/42/1 361/43/1 360/44/1
f 397/41/1 398/42/1 399/43/1 361/44/1
f 400/41/1 401/42/1 364/43/1 402/44/1
f 401/41/1 403/42/1 365/43/1 364/44/1
f 403/41/1 404/42/1 405/43/1 365/44/1

