# Wavefront OBJ file automatically generated by Tiled2Unity

# Vertices (Count = 425)
v -80 -240 0
v -160 -240 0
v -160 -160 0
v -80 -160 0
v -240 -240 0
v -240 -160 0
v -480 -240 0
v -560 -240 0
v -560 -160 0
v -480 -160 0
v -2720 -240 0
v -2800 -240 0
v -2800 -160 0
v -2720 -160 0
v 0 -320 0
v -80 -320 0
v 0 -240 0
v -160 -320 0
v -240 -320 0
v -320 -320 0
v -320 -240 0
v -400 -320 0
v -400 -240 0
v -480 -320 0
v -560 -320 0
v -720 -320 0
v -800 -320 0
v -800 -240 0
v -720 -240 0
v -880 -320 0
v -880 -240 0
v -960 -320 0
v -960 -240 0
v -1040 -320 0
v -1040 -240 0
v -1120 -320 0
v -1200 -320 0
v -1200 -240 0
v -1120 -240 0
v -1280 -320 0
v -1280 -240 0
v -1440 -320 0
v -1520 -320 0
v -1520 -240 0
v -1440 -240 0
v -1600 -320 0
v -1600 -240 0
v -1680 -320 0
v -1680 -240 0
v -1760 -320 0
v -1760 -240 0
v -1840 -320 0
v -1840 -240 0
v -1920 -320 0
v -1920 -240 0
v -2560 -320 0
v -2640 -320 0
v -2640 -240 0
v -2560 -240 0
v -2720 -320 0
v -2800 -320 0
v -7360 -320 0
v -7440 -320 0
v -7440 -240 0
v -7360 -240 0
v -10720 -320 0
v -10800 -320 0
v -10800 -240 0
v -10720 -240 0
v 0 -400 0
v -80 -400 0
v -160 -400 0
v -240 -400 0
v -320 -400 0
v -400 -400 0
v -480 -400 0
v -560 -400 0
v -640 -400 0
v -640 -320 0
v -720 -400 0
v -800 -400 0
v -880 -400 0
v -960 -400 0
v -1040 -400 0
v -1120 -400 0
v -1200 -400 0
v -1280 -400 0
v -1360 -400 0
v -1360 -320 0
v -1440 -400 0
v -1520 -400 0
v -1600 -400 0
v -1680 -400 0
v -1760 -400 0
v -1840 -400 0
v -1920 -400 0
v -2000 -400 0
v -2000 -320 0
v -2080 -400 0
v -2080 -320 0
v -2160 -400 0
v -2160 -320 0
v -2240 -400 0
v -2240 -320 0
v -2320 -400 0
v -2320 -320 0
v -2400 -400 0
v -2400 -320 0
v -2480 -400 0
v -2480 -320 0
v -2560 -400 0
v -2640 -400 0
v -2720 -400 0
v -2800 -400 0
v -2880 -400 0
v -2880 -320 0
v -2960 -400 0
v -2960 -320 0
v -7360 -400 0
v -7440 -400 0
v -7600 -400 0
v -7680 -400 0
v -7680 -320 0
v -7600 -320 0
v -7760 -400 0
v -7760 -320 0
v -7840 -400 0
v -7840 -320 0
v -7920 -400 0
v -7920 -320 0
v -8560 -400 0
v -8640 -400 0
v -8640 -320 0
v -8560 -320 0
v -8720 -400 0
v -8720 -320 0
v -8800 -400 0
v -8800 -320 0
v -8880 -400 0
v -8880 -320 0
v -8960 -400 0
v -8960 -320 0
v -9040 -400 0
v -9040 -320 0
v -9600 -400 0
v -9680 -400 0
v -9680 -320 0
v -9600 -320 0
v -9760 -400 0
v -9760 -320 0
v -9840 -400 0
v -9840 -320 0
v -9920 -400 0
v -9920 -320 0
v -10000 -400 0
v -10000 -320 0
v -10080 -400 0
v -10080 -320 0
v -10640 -400 0
v -10720 -400 0
v -10640 -320 0
v -10800 -400 0
v -10960 -400 0
v -11040 -400 0
v -11040 -320 0
v -10960 -320 0
v -11120 -400 0
v -11200 -400 0
v -11200 -320 0
v -11120 -320 0
v -11280 -400 0
v -11280 -320 0
v -11360 -400 0
v -11440 -400 0
v -11440 -320 0
v -11360 -320 0
v -11520 -400 0
v -11520 -320 0
v -11600 -400 0
v -11680 -400 0
v -11680 -320 0
v -11600 -320 0
v -11760 -400 0
v -11760 -320 0
v -11840 -400 0
v -11920 -400 0
v -11920 -320 0
v -11840 -320 0
v -3120 -480 0
v -3200 -480 0
v -3200 -400 0
v -3120 -400 0
v -3280 -480 0
v -3280 -400 0
v -3600 -480 0
v -3680 -480 0
v -3680 -400 0
v -3600 -400 0
v -3760 -480 0
v -3760 -400 0
v -3840 -480 0
v -3840 -400 0
v -3920 -480 0
v -4000 -480 0
v -4000 -400 0
v -3920 -400 0
v -4080 -480 0
v -4080 -400 0
v -4160 -480 0
v -4240 -480 0
v -4240 -400 0
v -4160 -400 0
v -4320 -480 0
v -4320 -400 0
v -4400 -480 0
v -4400 -400 0
v -4480 -480 0
v -4560 -480 0
v -4560 -400 0
v -4480 -400 0
v -4640 -480 0
v -4640 -400 0
v -4720 -480 0
v -4800 -480 0
v -4800 -400 0
v -4720 -400 0
v -6160 -480 0
v -6240 -480 0
v -6240 -400 0
v -6160 -400 0
v -6320 -480 0
v -6320 -400 0
v -6400 -480 0
v -6400 -400 0
v -6720 -480 0
v -6800 -480 0
v -6800 -400 0
v -6720 -400 0
v -6880 -480 0
v -6960 -480 0
v -6960 -400 0
v -6880 -400 0
v -7040 -480 0
v -7040 -400 0
v -7120 -480 0
v -7200 -480 0
v -7200 -400 0
v -7120 -400 0
v -7360 -480 0
v -7440 -480 0
v -7520 -480 0
v -7520 -400 0
v -7600 -480 0
v -7680 -480 0
v -7760 -480 0
v -7840 -480 0
v -7920 -480 0
v -8000 -480 0
v -8000 -400 0
v -8080 -480 0
v -8080 -400 0
v -8160 -480 0
v -8160 -400 0
v -8240 -480 0
v -8240 -400 0
v -8320 -480 0
v -8320 -400 0
v -8400 -480 0
v -8400 -400 0
v -8480 -480 0
v -8480 -400 0
v -8560 -480 0
v -8640 -480 0
v -8720 -480 0
v -8800 -480 0
v -8880 -480 0
v -8960 -480 0
v -9040 -480 0
v -9120 -480 0
v -9120 -400 0
v -9200 -480 0
v -9200 -400 0
v -9280 -480 0
v -9280 -400 0
v -9360 -480 0
v -9360 -400 0
v -9440 -480 0
v -9440 -400 0
v -9520 -480 0
v -9520 -400 0
v -9600 -480 0
v -9680 -480 0
v -9760 -480 0
v -9840 -480 0
v -9920 -480 0
v -10000 -480 0
v -10080 -480 0
v -10160 -480 0
v -10160 -400 0
v -10240 -480 0
v -10240 -400 0
v -10320 -480 0
v -10320 -400 0
v -10400 -480 0
v -10400 -400 0
v -10480 -480 0
v -10480 -400 0
v -10560 -480 0
v -10560 -400 0
v -10640 -480 0
v -10720 -480 0
v -10800 -480 0
v -10880 -480 0
v -10880 -400 0
v -10960 -480 0
v -11040 -480 0
v -11120 -480 0
v -11200 -480 0
v -11280 -480 0
v -11360 -480 0
v -11440 -480 0
v -11520 -480 0
v -11600 -480 0
v -11680 -480 0
v -11760 -480 0
v -11840 -480 0
v -11920 -480 0
v -12000 -480 0
v -12000 -400 0
v -3040 -560 0
v -3120 -560 0
v -3040 -480 0
v -3200 -560 0
v -3280 -560 0
v -3360 -560 0
v -3360 -480 0
v -3440 -560 0
v -3440 -480 0
v -3520 -560 0
v -3520 -480 0
v -3600 -560 0
v -3680 -560 0
v -3760 -560 0
v -3840 -560 0
v -3920 -560 0
v -4000 -560 0
v -4080 -560 0
v -4160 -560 0
v -4240 -560 0
v -4320 -560 0
v -4400 -560 0
v -4480 -560 0
v -4560 -560 0
v -4640 -560 0
v -4720 -560 0
v -4800 -560 0
v -4880 -560 0
v -4880 -480 0
v -4960 -560 0
v -5040 -560 0
v -5040 -480 0
v -4960 -480 0
v -5440 -560 0
v -5520 -560 0
v -5520 -480 0
v -5440 -480 0
v -5920 -560 0
v -6000 -560 0
v -6000 -480 0
v -5920 -480 0
v -6080 -560 0
v -6160 -560 0
v -6080 -480 0
v -6240 -560 0
v -6320 -560 0
v -6400 -560 0
v -6480 -560 0
v -6480 -480 0
v -6560 -560 0
v -6560 -480 0
v -6640 -560 0
v -6640 -480 0
v -6720 -560 0
v -6800 -560 0
v -6880 -560 0
v -6960 -560 0
v -7040 -560 0
v -7120 -560 0
v -7200 -560 0
v -7280 -560 0
v -7280 -480 0
v -3280 -640 0
v -3360 -640 0
v -3440 -640 0
v -3520 -640 0
v -3600 -640 0
v -4880 -640 0
v -4960 -640 0
v -5040 -640 0
v -5120 -640 0
v -5120 -560 0
v -5200 -640 0
v -5200 -560 0
v -5280 -640 0
v -5280 -560 0
v -5360 -640 0
v -5360 -560 0
v -5440 -640 0
v -5520 -640 0
v -5600 -640 0
v -5600 -560 0
v -5680 -640 0
v -5680 -560 0
v -5760 -640 0
v -5760 -560 0
v -5840 -640 0
v -5840 -560 0
v -5920 -640 0
v -6000 -640 0
v -6080 -640 0
v -6400 -640 0
v -6480 -640 0
v -6560 -640 0
v -6640 -640 0
v -6720 -640 0

# Texture cooridinates (Count = 64)
vt 0.2501221 0.2501221
vt 0.3748779 0.2501221
vt 0.3748779 0.4998779
vt 0.2501221 0.4998779
vt 0.3751221 0.2501221
vt 0.4998779 0.2501221
vt 0.4998779 0.4998779
vt 0.3751221 0.4998779
vt 0.6251221 0.2501221
vt 0.7498779 0.2501221
vt 0.7498779 0.4998779
vt 0.6251221 0.4998779
vt 0.5001221 0.2501221
vt 0.6248779 0.2501221
vt 0.6248779 0.4998779
vt 0.5001221 0.4998779
vt 0.0001220703 0.7501221
vt 0.1248779 0.7501221
vt 0.1248779 0.9998779
vt 0.0001220703 0.9998779
vt 0.2501221 0.0001220703
vt 0.3748779 0.0001220703
vt 0.3748779 0.2498779
vt 0.2501221 0.2498779
vt 0.3751221 0.0001220703
vt 0.4998779 0.0001220703
vt 0.4998779 0.2498779
vt 0.3751221 0.2498779
vt 0.2501221 0.7501221
vt 0.3748779 0.7501221
vt 0.3748779 0.9998779
vt 0.2501221 0.9998779
vt 0.6251221 0.0001220703
vt 0.7498779 0.0001220703
vt 0.7498779 0.2498779
vt 0.6251221 0.2498779
vt 0.3751221 0.7501221
vt 0.4998779 0.7501221
vt 0.4998779 0.9998779
vt 0.3751221 0.9998779
vt 0.5001221 0.7501221
vt 0.6248779 0.7501221
vt 0.6248779 0.9998779
vt 0.5001221 0.9998779
vt 0.5001221 0.0001220703
vt 0.6248779 0.0001220703
vt 0.6248779 0.2498779
vt 0.5001221 0.2498779
vt 0.1251221 0.7501221
vt 0.2498779 0.7501221
vt 0.2498779 0.9998779
vt 0.1251221 0.9998779
vt 0.2501221 0.5001221
vt 0.3748779 0.5001221
vt 0.3748779 0.7498779
vt 0.2501221 0.7498779
vt 0.6251221 0.7501221
vt 0.7498779 0.7501221
vt 0.7498779 0.9998779
vt 0.6251221 0.9998779
vt 0.7501221 0.7501221
vt 0.8748779 0.7501221
vt 0.8748779 0.9998779
vt 0.7501221 0.9998779

# Normal
vn 0 0 -1

# Groups (Count = 1)

g mesh_0001
f 1/1/1 2/2/1 3/3/1 4/4/1
f 2/5/1 5/6/1 6/7/1 3/8/1
f 7/9/1 8/10/1 9/11/1 10/12/1
f 11/13/1 12/14/1 13/15/1 14/16/1
f 15/17/1 16/18/1 1/19/1 17/20/1
f 16/21/1 18/22/1 2/23/1 1/24/1
f 18/25/1 19/26/1 5/27/1 2/28/1
f 19/29/1 20/30/1 21/31/1 5/32/1
f 20/29/1 22/30/1 23/31/1 21/32/1
f 22/29/1 24/30/1 7/31/1 23/32/1
f 24/33/1 25/34/1 8/35/1 7/36/1
f 26/29/1 27/30/1 28/31/1 29/32/1
f 27/29/1 30/30/1 31/31/1 28/32/1
f 30/29/1 32/30/1 33/31/1 31/32/1
f 32/29/1 34/30/1 35/31/1 33/32/1
f 36/37/1 37/38/1 38/39/1 39/40/1
f 37/41/1 40/42/1 41/43/1 38/44/1
f 42/29/1 43/30/1 44/31/1 45/32/1
f 43/29/1 46/30/1 47/31/1 44/32/1
f 46/29/1 48/30/1 49/31/1 47/32/1
f 48/29/1 50/30/1 51/31/1 49/32/1
f 50/29/1 52/30/1 53/31/1 51/32/1
f 52/29/1 54/30/1 55/31/1 53/32/1
f 56/29/1 57/30/1 58/31/1 59/32/1
f 60/45/1 61/46/1 12/47/1 11/48/1
f 62/9/1 63/10/1 64/11/1 65/12/1
f 66/13/1 67/14/1 68/15/1 69/16/1
f 70/49/1 71/50/1 16/51/1 15/52/1
f 71/49/1 72/50/1 18/51/1 16/52/1
f 72/49/1 73/50/1 19/51/1 18/52/1
f 73/49/1 74/50/1 20/51/1 19/52/1
f 74/49/1 75/50/1 22/51/1 20/52/1
f 75/49/1 76/50/1 24/51/1 22/52/1
f 76/49/1 77/50/1 25/51/1 24/52/1
f 77/49/1 78/50/1 79/51/1 25/52/1
f 78/49/1 80/50/1 26/51/1 79/52/1
f 80/49/1 81/50/1 27/51/1 26/52/1
f 81/49/1 82/50/1 30/51/1 27/52/1
f 82/49/1 83/50/1 32/51/1 30/52/1
f 83/49/1 84/50/1 34/51/1 32/52/1
f 84/49/1 85/50/1 36/51/1 34/52/1
f 85/49/1 86/50/1 37/51/1 36/52/1
f 86/49/1 87/50/1 40/51/1 37/52/1
f 87/49/1 88/50/1 89/51/1 40/52/1
f 88/49/1 90/50/1 42/51/1 89/52/1
f 90/49/1 91/50/1 43/51/1 42/52/1
f 91/49/1 92/50/1 46/51/1 43/52/1
f 92/49/1 93/50/1 48/51/1 46/52/1
f 93/49/1 94/50/1 50/51/1 48/52/1
f 94/49/1 95/50/1 52/51/1 50/52/1
f 95/49/1 96/50/1 54/51/1 52/52/1
f 96/49/1 97/50/1 98/51/1 54/52/1
f 97/49/1 99/50/1 100/51/1 98/52/1
f 99/53/1 101/54/1 102/55/1 100/56/1
f 101/53/1 103/54/1 104/55/1 102/56/1
f 103/53/1 105/54/1 106/55/1 104/56/1
f 105/53/1 107/54/1 108/55/1 106/56/1
f 107/53/1 109/54/1 110/55/1 108/56/1
f 109/49/1 111/50/1 56/51/1 110/52/1
f 111/49/1 112/50/1 57/51/1 56/52/1
f 112/49/1 113/50/1 60/51/1 57/52/1
f 113/49/1 114/50/1 61/51/1 60/52/1
f 114/49/1 115/50/1 116/51/1 61/52/1
f 115/49/1 117/50/1 118/51/1 116/52/1
f 119/33/1 120/34/1 63/35/1 62/36/1
f 121/29/1 122/30/1 123/31/1 124/32/1
f 122/29/1 125/30/1 126/31/1 123/32/1
f 125/29/1 127/30/1 128/31/1 126/32/1
f 127/29/1 129/30/1 130/31/1 128/32/1
f 131/29/1 132/30/1 133/31/1 134/32/1
f 132/29/1 135/30/1 136/31/1 133/32/1
f 135/29/1 137/30/1 138/31/1 136/32/1
f 137/29/1 139/30/1 140/31/1 138/32/1
f 139/29/1 141/30/1 142/31/1 140/32/1
f 141/29/1 143/30/1 144/31/1 142/32/1
f 145/29/1 146/30/1 147/31/1 148/32/1
f 146/29/1 149/30/1 150/31/1 147/32/1
f 149/29/1 151/30/1 152/31/1 150/32/1
f 151/29/1 153/30/1 154/31/1 152/32/1
f 153/29/1 155/30/1 156/31/1 154/32/1
f 155/29/1 157/30/1 158/31/1 156/32/1
f 159/29/1 160/30/1 66/31/1 161/32/1
f 160/45/1 162/46/1 67/47/1 66/48/1
f 163/29/1 164/30/1 165/31/1 166/32/1
f 167/57/1 168/58/1 169/59/1 170/60/1
f 168/57/1 171/58/1 172/59/1 169/60/1
f 173/29/1 174/30/1 175/31/1 176/32/1
f 174/29/1 177/30/1 178/31/1 175/32/1
f 179/37/1 180/38/1 181/39/1 182/40/1
f 180/41/1 183/42/1 184/43/1 181/44/1
f 185/29/1 186/30/1 187/31/1 188/32/1
f 189/29/1 190/30/1 191/31/1 192/32/1
f 190/29/1 193/30/1 194/31/1 191/32/1
f 195/29/1 196/30/1 197/31/1 198/32/1
f 196/29/1 199/30/1 200/31/1 197/32/1
f 199/29/1 201/30/1 202/31/1 200/32/1
f 203/57/1 204/58/1 205/59/1 206/60/1
f 204/57/1 207/58/1 208/59/1 205/60/1
f 209/29/1 210/30/1 211/31/1 212/32/1
f 210/29/1 213/30/1 214/31/1 211/32/1
f 213/29/1 215/30/1 216/31/1 214/32/1
f 217/61/1 218/62/1 219/63/1 220/64/1
f 218/61/1 221/62/1 222/63/1 219/64/1
f 223/29/1 224/30/1 225/31/1 226/32/1
f 227/29/1 228/30/1 229/31/1 230/32/1
f 228/29/1 231/30/1 232/31/1 229/32/1
f 231/29/1 233/30/1 234/31/1 232/32/1
f 235/29/1 236/30/1 237/31/1 238/32/1
f 239/41/1 240/42/1 241/43/1 242/44/1
f 240/41/1 243/42/1 244/43/1 241/44/1
f 245/29/1 246/30/1 247/31/1 248/32/1
f 249/49/1 250/50/1 120/51/1 119/52/1
f 250/49/1 251/50/1 252/51/1 120/52/1
f 251/49/1 253/50/1 121/51/1 252/52/1
f 253/49/1 254/50/1 122/51/1 121/52/1
f 254/49/1 255/50/1 125/51/1 122/52/1
f 255/49/1 256/50/1 127/51/1 125/52/1
f 256/49/1 257/50/1 129/51/1 127/52/1
f 257/49/1 258/50/1 259/51/1 129/52/1
f 258/53/1 260/54/1 261/55/1 259/56/1
f 260/53/1 262/54/1 263/55/1 261/56/1
f 262/53/1 264/54/1 265/55/1 263/56/1
f 264/53/1 266/54/1 267/55/1 265/56/1
f 266/53/1 268/54/1 269/55/1 267/56/1
f 268/49/1 270/50/1 271/51/1 269/52/1
f 270/49/1 272/50/1 131/51/1 271/52/1
f 272/49/1 273/50/1 132/51/1 131/52/1
f 273/49/1 274/50/1 135/51/1 132/52/1
f 274/49/1 275/50/1 137/51/1 135/52/1
f 275/49/1 276/50/1 139/51/1 137/52/1
f 276/49/1 277/50/1 141/51/1 139/52/1
f 277/49/1 278/50/1 143/51/1 141/52/1
f 278/49/1 279/50/1 280/51/1 143/52/1
f 279/53/1 281/54/1 282/55/1 280/56/1
f 281/53/1 283/54/1 284/55/1 282/56/1
f 283/53/1 285/54/1 286/55/1 284/56/1
f 285/53/1 287/54/1 288/55/1 286/56/1
f 287/53/1 289/54/1 290/55/1 288/56/1
f 289/49/1 291/50/1 145/51/1 290/52/1
f 291/49/1 292/50/1 146/51/1 145/52/1
f 292/49/1 293/50/1 149/51/1 146/52/1
f 293/49/1 294/50/1 151/51/1 149/52/1
f 294/49/1 295/50/1 153/51/1 151/52/1
f 295/49/1 296/50/1 155/51/1 153/52/1
f 296/49/1 297/50/1 157/51/1 155/52/1
f 297/49/1 298/50/1 299/51/1 157/52/1
f 298/53/1 300/54/1 301/55/1 299/56/1
f 300/53/1 302/54/1 303/55/1 301/56/1
f 302/53/1 304/54/1 305/55/1 303/56/1
f 304/53/1 306/54/1 307/55/1 305/56/1
f 306/53/1 308/54/1 309/55/1 307/56/1
f 308/49/1 310/50/1 159/51/1 309/52/1
f 310/49/1 311/50/1 160/51/1 159/52/1
f 311/49/1 312/50/1 162/51/1 160/52/1
f 312/49/1 313/50/1 314/51/1 162/52/1
f 313/49/1 315/50/1 163/51/1 314/52/1
f 315/49/1 316/50/1 164/51/1 163/52/1
f 316/49/1 317/50/1 167/51/1 164/52/1
f 317/49/1 318/50/1 168/51/1 167/52/1
f 318/49/1 319/50/1 171/51/1 168/52/1
f 319/49/1 320/50/1 173/51/1 171/52/1
f 320/49/1 321/50/1 174/51/1 173/52/1
f 321/49/1 322/50/1 177/51/1 174/52/1
f 322/49/1 323/50/1 179/51/1 177/52/1
f 323/49/1 324/50/1 180/51/1 179/52/1
f 324/49/1 325/50/1 183/51/1 180/52/1
f 325/49/1 326/50/1 185/51/1 183/52/1
f 326/49/1 327/50/1 186/51/1 185/52/1
f 327/49/1 328/50/1 329/51/1 186/52/1
f 330/49/1 331/50/1 189/51/1 332/52/1
f 331/49/1 333/50/1 190/51/1 189/52/1
f 333/49/1 334/50/1 193/51/1 190/52/1
f 334/49/1 335/50/1 336/51/1 193/52/1
f 335/29/1 337/30/1 338/31/1 336/32/1
f 337/29/1 339/30/1 340/31/1 338/32/1
f 339/49/1 341/50/1 195/51/1 340/52/1
f 341/49/1 342/50/1 196/51/1 195/52/1
f 342/49/1 343/50/1 199/51/1 196/52/1
f 343/49/1 344/50/1 201/51/1 199/52/1
f 344/49/1 345/50/1 203/51/1 201/52/1
f 345/49/1 346/50/1 204/51/1 203/52/1
f 346/49/1 347/50/1 207/51/1 204/52/1
f 347/49/1 348/50/1 209/51/1 207/52/1
f 348/49/1 349/50/1 210/51/1 209/52/1
f 349/49/1 350/50/1 213/51/1 210/52/1
f 350/49/1 351/50/1 215/51/1 213/52/1
f 351/49/1 352/50/1 217/51/1 215/52/1
f 352/49/1 353/50/1 218/51/1 217/52/1
f 353/49/1 354/50/1 221/51/1 218/52/1
f 354/49/1 355/50/1 223/51/1 221/52/1
f 355/49/1 356/50/1 224/51/1 223/52/1
f 356/49/1 357/50/1 358/51/1 224/52/1
f 359/29/1 360/30/1 361/31/1 362/32/1
f 363/29/1 364/30/1 365/31/1 366/32/1
f 367/29/1 368/30/1 369/31/1 370/32/1
f 371/49/1 372/50/1 227/51/1 373/52/1
f 372/49/1 374/50/1 228/51/1 227/52/1
f 374/49/1 375/50/1 231/51/1 228/52/1
f 375/49/1 376/50/1 233/51/1 231/52/1
f 376/49/1 377/50/1 378/51/1 233/52/1
f 377/29/1 379/30/1 380/31/1 378/32/1
f 379/29/1 381/30/1 382/31/1 380/32/1
f 381/49/1 383/50/1 235/51/1 382/52/1
f 383/49/1 384/50/1 236/51/1 235/52/1
f 384/49/1 385/50/1 239/51/1 236/52/1
f 385/49/1 386/50/1 240/51/1 239/52/1
f 386/49/1 387/50/1 243/51/1 240/52/1
f 387/49/1 388/50/1 245/51/1 243/52/1
f 388/49/1 389/50/1 246/51/1 245/52/1
f 389/49/1 390/50/1 391/51/1 246/52/1
f 392/49/1 393/50/1 335/51/1 334/52/1
f 393/49/1 394/50/1 337/51/1 335/52/1
f 394/49/1 395/50/1 339/51/1 337/52/1
f 395/49/1 396/50/1 341/51/1 339/52/1
f 397/49/1 398/50/1 359/51/1 357/52/1
f 398/49/1 399/50/1 360/51/1 359/52/1
f 399/49/1 400/50/1 401/51/1 360/52/1
f 400/53/1 402/54/1 403/55/1 401/56/1
f 402/53/1 404/54/1 405/55/1 403/56/1
f 404/53/1 406/54/1 407/55/1 405/56/1
f 406/49/1 408/50/1 363/51/1 407/52/1
f 408/49/1 409/50/1 364/51/1 363/52/1
f 409/49/1 410/50/1 411/51/1 364/52/1
f 410/53/1 412/54/1 413/55/1 411/56/1
f 412/53/1 414/54/1 415/55/1 413/56/1
f 414/53/1 416/54/1 417/55/1 415/56/1
f 416/49/1 418/50/1 367/51/1 417/52/1
f 418/49/1 419/50/1 368/51/1 367/52/1
f 419/49/1 420/50/1 371/51/1 368/52/1
f 421/49/1 422/50/1 377/51/1 376/52/1
f 422/49/1 423/50/1 379/51/1 377/52/1
f 423/49/1 424/50/1 381/51/1 379/52/1
f 424/49/1 425/50/1 383/51/1 381/52/1

