# Wavefront OBJ file automatically generated by Tiled2Unity

# Vertices (Count = 191)
v -4560 -240 0
v -4640 -240 0
v -4640 -160 0
v -4560 -160 0
v -4720 -240 0
v -4720 -160 0
v -80 -320 0
v -160 -320 0
v -160 -240 0
v -80 -240 0
v -240 -320 0
v -240 -240 0
v -320 -320 0
v -400 -320 0
v -400 -240 0
v -320 -240 0
v -4240 -320 0
v -4320 -320 0
v -4320 -240 0
v -4240 -240 0
v -4400 -320 0
v -4480 -320 0
v -4480 -240 0
v -4400 -240 0
v -4560 -320 0
v -4640 -320 0
v -4720 -320 0
v -4800 -320 0
v -4800 -240 0
v 0 -400 0
v -80 -400 0
v 0 -320 0
v -160 -400 0
v -240 -400 0
v -320 -400 0
v -400 -400 0
v -480 -400 0
v -480 -320 0
v -640 -400 0
v -720 -400 0
v -720 -320 0
v -640 -320 0
v -800 -400 0
v -800 -320 0
v -3760 -400 0
v -3840 -400 0
v -3840 -320 0
v -3760 -320 0
v -3920 -400 0
v -3920 -320 0
v -4000 -400 0
v -4080 -400 0
v -4080 -320 0
v -4000 -320 0
v -4160 -400 0
v -4240 -400 0
v -4160 -320 0
v -4320 -400 0
v -4400 -400 0
v -4480 -400 0
v -4560 -400 0
v -4640 -400 0
v -4720 -400 0
v -4800 -400 0
v -480 -480 0
v -560 -480 0
v -560 -400 0
v -640 -480 0
v -720 -480 0
v -800 -480 0
v -880 -480 0
v -960 -480 0
v -960 -400 0
v -880 -400 0
v -1040 -480 0
v -1040 -400 0
v -2960 -480 0
v -3040 -480 0
v -3040 -400 0
v -2960 -400 0
v -3120 -480 0
v -3120 -400 0
v -3200 -480 0
v -3200 -400 0
v -3360 -480 0
v -3440 -480 0
v -3440 -400 0
v -3360 -400 0
v -3520 -480 0
v -3520 -400 0
v -3600 -480 0
v -3600 -400 0
v -3680 -480 0
v -3680 -400 0
v -3760 -480 0
v -3840 -480 0
v -3920 -480 0
v -4000 -480 0
v -4080 -480 0
v -4160 -480 0
v -800 -560 0
v -880 -560 0
v -960 -560 0
v -1040 -560 0
v -1120 -560 0
v -1120 -480 0
v -1200 -560 0
v -1200 -480 0
v -1280 -560 0
v -1360 -560 0
v -1360 -480 0
v -1280 -480 0
v -1440 -560 0
v -1440 -480 0
v -3280 -560 0
v -3360 -560 0
v -3280 -480 0
v -3440 -560 0
v -3520 -560 0
v -3600 -560 0
v -3680 -560 0
v -3760 -560 0
v -1120 -640 0
v -1200 -640 0
v -1280 -640 0
v -1360 -640 0
v -1440 -640 0
v -1520 -640 0
v -1520 -560 0
v -1600 -640 0
v -1680 -640 0
v -1680 -560 0
v -1600 -560 0
v -2560 -640 0
v -2640 -640 0
v -2640 -560 0
v -2560 -560 0
v -2720 -640 0
v -2720 -560 0
v -2800 -640 0
v -2800 -560 0
v -2880 -640 0
v -2960 -640 0
v -2960 -560 0
v -2880 -560 0
v -3040 -640 0
v -3040 -560 0
v -3120 -640 0
v -3120 -560 0
v -3200 -640 0
v -3200 -560 0
v -3280 -640 0
v -1440 -720 0
v -1520 -720 0
v -1600 -720 0
v -1680 -720 0
v -1760 -720 0
v -1760 -640 0
v -1840 -720 0
v -1920 -720 0
v -1920 -640 0
v -1840 -640 0
v -2000 -720 0
v -2080 -720 0
v -2080 -640 0
v -2000 -640 0
v -2160 -720 0
v -2160 -640 0
v -2240 -720 0
v -2240 -640 0
v -2320 -720 0
v -2400 -720 0
v -2400 -640 0
v -2320 -640 0
v -2480 -720 0
v -2560 -720 0
v -2480 -640 0
v -2640 -720 0
v -2720 -720 0
v -2800 -720 0
v -2880 -720 0
v -1760 -800 0
v -1840 -800 0
v -1920 -800 0
v -2000 -800 0
v -2080 -800 0
v -2160 -800 0
v -2240 -800 0
v -2320 -800 0
v -2400 -800 0
v -2480 -800 0

# Texture cooridinates (Count = 48)
vt 0.0001220703 0.2501221
vt 0.1248779 0.2501221
vt 0.1248779 0.4998779
vt 0.0001220703 0.4998779
vt 0.1251221 0.2501221
vt 0.2498779 0.2501221
vt 0.2498779 0.4998779
vt 0.1251221 0.4998779
vt 0.6251221 0.7501221
vt 0.7498779 0.7501221
vt 0.7498779 0.9998779
vt 0.6251221 0.9998779
vt 0.2501221 0.7501221
vt 0.3748779 0.7501221
vt 0.3748779 0.9998779
vt 0.2501221 0.9998779
vt 0.7501221 0.7501221
vt 0.8748779 0.7501221
vt 0.8748779 0.9998779
vt 0.7501221 0.9998779
vt 0.0001220703 0.0001220703
vt 0.1248779 0.0001220703
vt 0.1248779 0.2498779
vt 0.0001220703 0.2498779
vt 0.1251221 0.0001220703
vt 0.2498779 0.0001220703
vt 0.2498779 0.2498779
vt 0.1251221 0.2498779
vt 0.0001220703 0.7501221
vt 0.1248779 0.7501221
vt 0.1248779 0.9998779
vt 0.0001220703 0.9998779
vt 0.1251221 0.7501221
vt 0.2498779 0.7501221
vt 0.2498779 0.9998779
vt 0.1251221 0.9998779
vt 0.3751221 0.7501221
vt 0.4998779 0.7501221
vt 0.4998779 0.9998779
vt 0.3751221 0.9998779
vt 0.5001221 0.7501221
vt 0.6248779 0.7501221
vt 0.6248779 0.9998779
vt 0.5001221 0.9998779
vt 0.2501221 0.5001221
vt 0.3748779 0.5001221
vt 0.3748779 0.7498779
vt 0.2501221 0.7498779

# Normal
vn 0 0 -1

# Groups (Count = 1)

g mesh_0001
f 1/1/1 2/2/1 3/3/1 4/4/1
f 2/5/1 5/6/1 6/7/1 3/8/1
f 7/9/1 8/10/1 9/11/1 10/12/1
f 8/9/1 11/10/1 12/11/1 9/12/1
f 13/13/1 14/14/1 15/15/1 16/16/1
f 17/17/1 18/18/1 19/19/1 20/20/1
f 21/13/1 22/14/1 23/15/1 24/16/1
f 22/13/1 25/14/1 1/15/1 23/16/1
f 25/21/1 26/22/1 2/23/1 1/24/1
f 26/25/1 27/26/1 5/27/1 2/28/1
f 27/29/1 28/30/1 29/31/1 5/32/1
f 30/33/1 31/34/1 7/35/1 32/36/1
f 31/33/1 33/34/1 8/35/1 7/36/1
f 33/33/1 34/34/1 11/35/1 8/36/1
f 34/33/1 35/34/1 13/35/1 11/36/1
f 35/33/1 36/34/1 14/35/1 13/36/1
f 36/33/1 37/34/1 38/35/1 14/36/1
f 39/13/1 40/14/1 41/15/1 42/16/1
f 40/13/1 43/14/1 44/15/1 41/16/1
f 45/37/1 46/38/1 47/39/1 48/40/1
f 46/41/1 49/42/1 50/43/1 47/44/1
f 51/13/1 52/14/1 53/15/1 54/16/1
f 55/33/1 56/34/1 17/35/1 57/36/1
f 56/33/1 58/34/1 18/35/1 17/36/1
f 58/33/1 59/34/1 21/35/1 18/36/1
f 59/33/1 60/34/1 22/35/1 21/36/1
f 60/33/1 61/34/1 25/35/1 22/36/1
f 61/33/1 62/34/1 26/35/1 25/36/1
f 62/33/1 63/34/1 27/35/1 26/36/1
f 63/33/1 64/34/1 28/35/1 27/36/1
f 65/45/1 66/46/1 67/47/1 37/48/1
f 66/45/1 68/46/1 39/47/1 67/48/1
f 68/33/1 69/34/1 40/35/1 39/36/1
f 69/33/1 70/34/1 43/35/1 40/36/1
f 71/13/1 72/14/1 73/15/1 74/16/1
f 72/13/1 75/14/1 76/15/1 73/16/1
f 77/13/1 78/14/1 79/15/1 80/16/1
f 78/13/1 81/14/1 82/15/1 79/16/1
f 81/13/1 83/14/1 84/15/1 82/16/1
f 85/13/1 86/14/1 87/15/1 88/16/1
f 86/13/1 89/14/1 90/15/1 87/16/1
f 89/13/1 91/14/1 92/15/1 90/16/1
f 91/13/1 93/14/1 94/15/1 92/16/1
f 95/33/1 96/34/1 46/35/1 45/36/1
f 96/33/1 97/34/1 49/35/1 46/36/1
f 97/33/1 98/34/1 51/35/1 49/36/1
f 98/33/1 99/34/1 52/35/1 51/36/1
f 99/33/1 100/34/1 55/35/1 52/36/1
f 101/33/1 102/34/1 71/35/1 70/36/1
f 102/33/1 103/34/1 72/35/1 71/36/1
f 103/33/1 104/34/1 75/35/1 72/36/1
f 104/33/1 105/34/1 106/35/1 75/36/1
f 105/9/1 107/10/1 108/11/1 106/12/1
f 109/13/1 110/14/1 111/15/1 112/16/1
f 110/13/1 113/14/1 114/15/1 111/16/1
f 115/33/1 116/34/1 85/35/1 117/36/1
f 116/33/1 118/34/1 86/35/1 85/36/1
f 118/33/1 119/34/1 89/35/1 86/36/1
f 119/33/1 120/34/1 91/35/1 89/36/1
f 120/33/1 121/34/1 93/35/1 91/36/1
f 121/33/1 122/34/1 95/35/1 93/36/1
f 123/33/1 124/34/1 107/35/1 105/36/1
f 124/33/1 125/34/1 109/35/1 107/36/1
f 125/33/1 126/34/1 110/35/1 109/36/1
f 126/33/1 127/34/1 113/35/1 110/36/1
f 127/17/1 128/18/1 129/19/1 113/20/1
f 130/13/1 131/14/1 132/15/1 133/16/1
f 134/13/1 135/14/1 136/15/1 137/16/1
f 135/13/1 138/14/1 139/15/1 136/16/1
f 138/13/1 140/14/1 141/15/1 139/16/1
f 142/33/1 143/34/1 144/35/1 145/36/1
f 143/45/1 146/46/1 147/47/1 144/48/1
f 146/45/1 148/46/1 149/47/1 147/48/1
f 148/45/1 150/46/1 151/47/1 149/48/1
f 150/33/1 152/34/1 115/35/1 151/36/1
f 153/33/1 154/34/1 128/35/1 127/36/1
f 154/33/1 155/34/1 130/35/1 128/36/1
f 155/33/1 156/34/1 131/35/1 130/36/1
f 156/33/1 157/34/1 158/35/1 131/36/1
f 159/13/1 160/14/1 161/15/1 162/16/1
f 163/37/1 164/38/1 165/39/1 166/40/1
f 164/9/1 167/10/1 168/11/1 165/12/1
f 167/41/1 169/42/1 170/43/1 168/44/1
f 171/13/1 172/14/1 173/15/1 174/16/1
f 175/33/1 176/34/1 134/35/1 177/36/1
f 176/33/1 178/34/1 135/35/1 134/36/1
f 178/33/1 179/34/1 138/35/1 135/36/1
f 179/33/1 180/34/1 140/35/1 138/36/1
f 180/33/1 181/34/1 142/35/1 140/36/1
f 182/33/1 183/34/1 159/35/1 157/36/1
f 183/33/1 184/34/1 160/35/1 159/36/1
f 184/33/1 185/34/1 163/35/1 160/36/1
f 185/33/1 186/34/1 164/35/1 163/36/1
f 186/33/1 187/34/1 167/35/1 164/36/1
f 187/33/1 188/34/1 169/35/1 167/36/1
f 188/33/1 189/34/1 171/35/1 169/36/1
f 189/33/1 190/34/1 172/35/1 171/36/1
f 190/33/1 191/34/1 175/35/1 172/36/1

