# Wavefront OBJ file automatically generated by Tiled2Unity

# Vertices (Count = 129)
v -80 -640 0
v -160 -640 0
v -160 -560 0
v -80 -560 0
v -240 -640 0
v -240 -560 0
v 0 -720 0
v -80 -720 0
v 0 -640 0
v -160 -720 0
v -240 -720 0
v -320 -720 0
v -400 -720 0
v -400 -640 0
v -320 -640 0
v -480 -720 0
v -480 -640 0
v -800 -720 0
v -880 -720 0
v -880 -640 0
v -800 -640 0
v -960 -720 0
v -1040 -720 0
v -1040 -640 0
v -960 -640 0
v -1120 -720 0
v -1120 -640 0
v -1200 -720 0
v -1280 -720 0
v -1280 -640 0
v -1200 -640 0
v -1680 -720 0
v -1760 -720 0
v -1760 -640 0
v -1680 -640 0
v -1840 -720 0
v -1840 -640 0
v -1920 -720 0
v -1920 -640 0
v -2000 -720 0
v -2080 -720 0
v -2080 -640 0
v -2000 -640 0
v -2160 -720 0
v -2160 -640 0
v -2240 -720 0
v -2240 -640 0
v -2320 -720 0
v -2400 -720 0
v -2400 -640 0
v -2320 -640 0
v -2480 -720 0
v -2480 -640 0
v -2560 -720 0
v -2560 -640 0
v -2640 -720 0
v -2640 -640 0
v -3040 -720 0
v -3120 -720 0
v -3120 -640 0
v -3040 -640 0
v -3200 -720 0
v -3280 -720 0
v -3280 -640 0
v -3200 -640 0
v -3360 -720 0
v -3440 -720 0
v -3440 -640 0
v -3360 -640 0
v -3520 -720 0
v -3520 -640 0
v 0 -800 0
v -80 -800 0
v -160 -800 0
v -240 -800 0
v -320 -800 0
v -400 -800 0
v -480 -800 0
v -560 -800 0
v -560 -720 0
v -640 -800 0
v -640 -720 0
v -720 -800 0
v -720 -720 0
v -800 -800 0
v -880 -800 0
v -960 -800 0
v -1040 -800 0
v -1120 -800 0
v -1200 -800 0
v -1280 -800 0
v -1360 -800 0
v -1360 -720 0
v -1440 -800 0
v -1440 -720 0
v -1520 -800 0
v -1520 -720 0
v -1600 -800 0
v -1600 -720 0
v -1680 -800 0
v -1760 -800 0
v -1840 -800 0
v -1920 -800 0
v -2000 -800 0
v -2080 -800 0
v -2160 -800 0
v -2240 -800 0
v -2320 -800 0
v -2400 -800 0
v -2480 -800 0
v -2560 -800 0
v -2640 -800 0
v -2720 -800 0
v -2720 -720 0
v -2800 -800 0
v -2800 -720 0
v -2880 -800 0
v -2880 -720 0
v -2960 -800 0
v -2960 -720 0
v -3040 -800 0
v -3120 -800 0
v -3200 -800 0
v -3280 -800 0
v -3360 -800 0
v -3440 -800 0
v -3520 -800 0
v -3600 -800 0
v -3600 -720 0

# Texture cooridinates (Count = 44)
vt 0.2501221 0.2501221
vt 0.3748779 0.2501221
vt 0.3748779 0.4998779
vt 0.2501221 0.4998779
vt 0.3751221 0.2501221
vt 0.4998779 0.2501221
vt 0.4998779 0.4998779
vt 0.3751221 0.4998779
vt 0.0001220703 0.7501221
vt 0.1248779 0.7501221
vt 0.1248779 0.9998779
vt 0.0001220703 0.9998779
vt 0.2501221 0.0001220703
vt 0.3748779 0.0001220703
vt 0.3748779 0.2498779
vt 0.2501221 0.2498779
vt 0.3751221 0.0001220703
vt 0.4998779 0.0001220703
vt 0.4998779 0.2498779
vt 0.3751221 0.2498779
vt 0.2501221 0.7501221
vt 0.3748779 0.7501221
vt 0.3748779 0.9998779
vt 0.2501221 0.9998779
vt 0.6251221 0.7501221
vt 0.7498779 0.7501221
vt 0.7498779 0.9998779
vt 0.6251221 0.9998779
vt 0.3751221 0.7501221
vt 0.4998779 0.7501221
vt 0.4998779 0.9998779
vt 0.3751221 0.9998779
vt 0.5001221 0.7501221
vt 0.6248779 0.7501221
vt 0.6248779 0.9998779
vt 0.5001221 0.9998779
vt 0.1251221 0.7501221
vt 0.2498779 0.7501221
vt 0.2498779 0.9998779
vt 0.1251221 0.9998779
vt 0.2501221 0.5001221
vt 0.3748779 0.5001221
vt 0.3748779 0.7498779
vt 0.2501221 0.7498779

# Normal
vn 0 0 -1

# Groups (Count = 1)

g mesh_0001
f 1/1/1 2/2/1 3/3/1 4/4/1
f 2/5/1 5/6/1 6/7/1 3/8/1
f 7/9/1 8/10/1 1/11/1 9/12/1
f 8/13/1 10/14/1 2/15/1 1/16/1
f 10/17/1 11/18/1 5/19/1 2/20/1
f 12/21/1 13/22/1 14/23/1 15/24/1
f 13/21/1 16/22/1 17/23/1 14/24/1
f 18/21/1 19/22/1 20/23/1 21/24/1
f 22/25/1 23/26/1 24/27/1 25/28/1
f 23/25/1 26/26/1 27/27/1 24/28/1
f 28/21/1 29/22/1 30/23/1 31/24/1
f 32/21/1 33/22/1 34/23/1 35/24/1
f 33/21/1 36/22/1 37/23/1 34/24/1
f 36/21/1 38/22/1 39/23/1 37/24/1
f 40/29/1 41/30/1 42/31/1 43/32/1
f 41/25/1 44/26/1 45/27/1 42/28/1
f 44/33/1 46/34/1 47/35/1 45/36/1
f 48/21/1 49/22/1 50/23/1 51/24/1
f 49/21/1 52/22/1 53/23/1 50/24/1
f 52/21/1 54/22/1 55/23/1 53/24/1
f 54/21/1 56/22/1 57/23/1 55/24/1
f 58/21/1 59/22/1 60/23/1 61/24/1
f 62/33/1 63/34/1 64/35/1 65/36/1
f 66/21/1 67/22/1 68/23/1 69/24/1
f 67/21/1 70/22/1 71/23/1 68/24/1
f 72/37/1 73/38/1 8/39/1 7/40/1
f 73/37/1 74/38/1 10/39/1 8/40/1
f 74/37/1 75/38/1 11/39/1 10/40/1
f 75/37/1 76/38/1 12/39/1 11/40/1
f 76/37/1 77/38/1 13/39/1 12/40/1
f 77/37/1 78/38/1 16/39/1 13/40/1
f 78/37/1 79/38/1 80/39/1 16/40/1
f 79/37/1 81/38/1 82/39/1 80/40/1
f 81/41/1 83/42/1 84/43/1 82/44/1
f 83/37/1 85/38/1 18/39/1 84/40/1
f 85/37/1 86/38/1 19/39/1 18/40/1
f 86/37/1 87/38/1 22/39/1 19/40/1
f 87/37/1 88/38/1 23/39/1 22/40/1
f 88/37/1 89/38/1 26/39/1 23/40/1
f 89/37/1 90/38/1 28/39/1 26/40/1
f 90/37/1 91/38/1 29/39/1 28/40/1
f 91/37/1 92/38/1 93/39/1 29/40/1
f 92/41/1 94/42/1 95/43/1 93/44/1
f 94/41/1 96/42/1 97/43/1 95/44/1
f 96/41/1 98/42/1 99/43/1 97/44/1
f 98/37/1 100/38/1 32/39/1 99/40/1
f 100/37/1 101/38/1 33/39/1 32/40/1
f 101/37/1 102/38/1 36/39/1 33/40/1
f 102/37/1 103/38/1 38/39/1 36/40/1
f 103/37/1 104/38/1 40/39/1 38/40/1
f 104/37/1 105/38/1 41/39/1 40/40/1
f 105/37/1 106/38/1 44/39/1 41/40/1
f 106/37/1 107/38/1 46/39/1 44/40/1
f 107/37/1 108/38/1 48/39/1 46/40/1
f 108/37/1 109/38/1 49/39/1 48/40/1
f 109/37/1 110/38/1 52/39/1 49/40/1
f 110/37/1 111/38/1 54/39/1 52/40/1
f 111/37/1 112/38/1 56/39/1 54/40/1
f 112/37/1 113/38/1 114/39/1 56/40/1
f 113/41/1 115/42/1 116/43/1 114/44/1
f 115/41/1 117/42/1 118/43/1 116/44/1
f 117/41/1 119/42/1 120/43/1 118/44/1
f 119/37/1 121/38/1 58/39/1 120/40/1
f 121/37/1 122/38/1 59/39/1 58/40/1
f 122/37/1 123/38/1 62/39/1 59/40/1
f 123/37/1 124/38/1 63/39/1 62/40/1
f 124/37/1 125/38/1 66/39/1 63/40/1
f 125/37/1 126/38/1 67/39/1 66/40/1
f 126/37/1 127/38/1 70/39/1 67/40/1
f 127/37/1 128/38/1 129/39/1 70/40/1

