# Wavefront OBJ file automatically generated by Tiled2Unity

# Vertices (Count = 309)
v -80 -240 0
v -160 -240 0
v -160 -160 0
v -80 -160 0
v -240 -240 0
v -240 -160 0
v 0 -320 0
v -80 -320 0
v 0 -240 0
v -160 -320 0
v -240 -320 0
v -320 -320 0
v -400 -320 0
v -400 -240 0
v -320 -240 0
v -480 -320 0
v -480 -240 0
v 0 -400 0
v -80 -400 0
v -160 -400 0
v -240 -400 0
v -320 -400 0
v -400 -400 0
v -480 -400 0
v -6880 -400 0
v -6960 -400 0
v -6960 -320 0
v -6880 -320 0
v -7040 -400 0
v -7040 -320 0
v -7120 -400 0
v -7200 -400 0
v -7200 -320 0
v -7120 -320 0
v -7280 -400 0
v -7360 -400 0
v -7360 -320 0
v -7280 -320 0
v -7440 -400 0
v -7520 -400 0
v -7520 -320 0
v -7440 -320 0
v -7600 -400 0
v -7680 -400 0
v -7680 -320 0
v -7600 -320 0
v -7760 -400 0
v -7760 -320 0
v -7840 -400 0
v -7920 -400 0
v -7920 -320 0
v -7840 -320 0
v -8000 -400 0
v -8080 -400 0
v -8080 -320 0
v -8000 -320 0
v -8160 -400 0
v -8240 -400 0
v -8240 -320 0
v -8160 -320 0
v -640 -480 0
v -720 -480 0
v -720 -400 0
v -640 -400 0
v -6560 -480 0
v -6640 -480 0
v -6640 -400 0
v -6560 -400 0
v -6720 -480 0
v -6720 -400 0
v -6800 -480 0
v -6880 -480 0
v -6800 -400 0
v -6960 -480 0
v -7040 -480 0
v -7120 -480 0
v -7200 -480 0
v -7280 -480 0
v -7360 -480 0
v -7440 -480 0
v -7520 -480 0
v -7600 -480 0
v -7680 -480 0
v -7760 -480 0
v -7840 -480 0
v -7920 -480 0
v -8000 -480 0
v -8080 -480 0
v -8160 -480 0
v -8240 -480 0
v -8320 -480 0
v -8320 -400 0
v -8400 -480 0
v -8400 -400 0
v -560 -560 0
v -640 -560 0
v -560 -480 0
v -720 -560 0
v -800 -560 0
v -800 -480 0
v -880 -560 0
v -880 -480 0
v -960 -560 0
v -960 -480 0
v -1120 -560 0
v -1200 -560 0
v -1200 -480 0
v -1120 -480 0
v -1280 -560 0
v -1280 -480 0
v -1360 -560 0
v -1360 -480 0
v -1440 -560 0
v -1520 -560 0
v -1520 -480 0
v -1440 -480 0
v -1600 -560 0
v -1600 -480 0
v -1680 -560 0
v -1760 -560 0
v -1760 -480 0
v -1680 -480 0
v -1840 -560 0
v -1840 -480 0
v -1920 -560 0
v -1920 -480 0
v -6240 -560 0
v -6320 -560 0
v -6320 -480 0
v -6240 -480 0
v -6400 -560 0
v -6400 -480 0
v -6480 -560 0
v -6560 -560 0
v -6480 -480 0
v -6640 -560 0
v -6720 -560 0
v -6800 -560 0
v -1040 -640 0
v -1120 -640 0
v -1040 -560 0
v -1200 -640 0
v -1280 -640 0
v -1360 -640 0
v -1440 -640 0
v -1520 -640 0
v -1600 -640 0
v -1680 -640 0
v -1760 -640 0
v -1840 -640 0
v -1920 -640 0
v -2000 -640 0
v -2000 -560 0
v -2080 -640 0
v -2160 -640 0
v -2160 -560 0
v -2080 -560 0
v -2240 -640 0
v -2240 -560 0
v -2320 -640 0
v -2400 -640 0
v -2400 -560 0
v -2320 -560 0
v -5920 -640 0
v -6000 -640 0
v -6000 -560 0
v -5920 -560 0
v -6160 -640 0
v -6240 -640 0
v -6160 -560 0
v -6320 -640 0
v -6400 -640 0
v -6480 -640 0
v -2000 -720 0
v -2080 -720 0
v -2160 -720 0
v -2240 -720 0
v -2320 -720 0
v -2400 -720 0
v -5520 -720 0
v -5600 -720 0
v -5600 -640 0
v -5520 -640 0
v -5680 -720 0
v -5760 -720 0
v -5760 -640 0
v -5680 -640 0
v -5840 -720 0
v -5840 -640 0
v -5920 -720 0
v -6000 -720 0
v -6080 -720 0
v -6080 -640 0
v -6160 -720 0
v -2560 -800 0
v -2640 -800 0
v -2640 -720 0
v -2560 -720 0
v -2720 -800 0
v -2720 -720 0
v -2800 -800 0
v -2880 -800 0
v -2880 -720 0
v -2800 -720 0
v -2960 -800 0
v -3040 -800 0
v -3040 -720 0
v -2960 -720 0
v -3120 -800 0
v -3200 -800 0
v -3200 -720 0
v -3120 -720 0
v -3280 -800 0
v -3360 -800 0
v -3360 -720 0
v -3280 -720 0
v -3440 -800 0
v -3440 -720 0
v -3520 -800 0
v -3600 -800 0
v -3600 -720 0
v -3520 -720 0
v -3680 -800 0
v -3760 -800 0
v -3760 -720 0
v -3680 -720 0
v -4560 -800 0
v -4640 -800 0
v -4640 -720 0
v -4560 -720 0
v -4720 -800 0
v -4720 -720 0
v -4800 -800 0
v -4800 -720 0
v -4880 -800 0
v -4960 -800 0
v -4960 -720 0
v -4880 -720 0
v -5040 -800 0
v -5040 -720 0
v -5120 -800 0
v -5200 -800 0
v -5200 -720 0
v -5120 -720 0
v -5280 -800 0
v -5280 -720 0
v -5360 -800 0
v -5360 -720 0
v -5440 -800 0
v -5520 -800 0
v -5440 -720 0
v -5600 -800 0
v -5680 -800 0
v -5760 -800 0
v -5840 -800 0
v -2480 -880 0
v -2560 -880 0
v -2480 -800 0
v -2640 -880 0
v -2720 -880 0
v -2800 -880 0
v -2880 -880 0
v -2960 -880 0
v -3040 -880 0
v -3120 -880 0
v -3200 -880 0
v -3280 -880 0
v -3360 -880 0
v -3440 -880 0
v -3520 -880 0
v -3600 -880 0
v -3680 -880 0
v -3760 -880 0
v -3840 -880 0
v -3840 -800 0
v -3920 -880 0
v -4000 -880 0
v -4000 -800 0
v -3920 -800 0
v -4320 -880 0
v -4400 -880 0
v -4400 -800 0
v -4320 -800 0
v -4480 -880 0
v -4560 -880 0
v -4480 -800 0
v -4640 -880 0
v -4720 -880 0
v -4800 -880 0
v -4880 -880 0
v -4960 -880 0
v -5040 -880 0
v -5120 -880 0
v -5200 -880 0
v -5280 -880 0
v -5360 -880 0
v -5440 -880 0
v -3840 -960 0
v -3920 -960 0
v -4000 -960 0
v -4080 -960 0
v -4080 -880 0
v -4160 -960 0
v -4160 -880 0
v -4240 -960 0
v -4240 -880 0
v -4320 -960 0
v -4400 -960 0
v -4480 -960 0

# Texture cooridinates (Count = 48)
vt 0.2501221 0.2501221
vt 0.3748779 0.2501221
vt 0.3748779 0.4998779
vt 0.2501221 0.4998779
vt 0.3751221 0.2501221
vt 0.4998779 0.2501221
vt 0.4998779 0.4998779
vt 0.3751221 0.4998779
vt 0.0001220703 0.7501221
vt 0.1248779 0.7501221
vt 0.1248779 0.9998779
vt 0.0001220703 0.9998779
vt 0.2501221 0.0001220703
vt 0.3748779 0.0001220703
vt 0.3748779 0.2498779
vt 0.2501221 0.2498779
vt 0.3751221 0.0001220703
vt 0.4998779 0.0001220703
vt 0.4998779 0.2498779
vt 0.3751221 0.2498779
vt 0.2501221 0.7501221
vt 0.3748779 0.7501221
vt 0.3748779 0.9998779
vt 0.2501221 0.9998779
vt 0.1251221 0.7501221
vt 0.2498779 0.7501221
vt 0.2498779 0.9998779
vt 0.1251221 0.9998779
vt 0.7501221 0.7501221
vt 0.8748779 0.7501221
vt 0.8748779 0.9998779
vt 0.7501221 0.9998779
vt 0.3751221 0.7501221
vt 0.4998779 0.7501221
vt 0.4998779 0.9998779
vt 0.3751221 0.9998779
vt 0.6251221 0.7501221
vt 0.7498779 0.7501221
vt 0.7498779 0.9998779
vt 0.6251221 0.9998779
vt 0.2501221 0.5001221
vt 0.3748779 0.5001221
vt 0.3748779 0.7498779
vt 0.2501221 0.7498779
vt 0.5001221 0.7501221
vt 0.6248779 0.7501221
vt 0.6248779 0.9998779
vt 0.5001221 0.9998779

# Normal
vn 0 0 -1

# Groups (Count = 1)

g mesh_0001
f 1/1/1 2/2/1 3/3/1 4/4/1
f 2/5/1 5/6/1 6/7/1 3/8/1
f 7/9/1 8/10/1 1/11/1 9/12/1
f 8/13/1 10/14/1 2/15/1 1/16/1
f 10/17/1 11/18/1 5/19/1 2/20/1
f 12/21/1 13/22/1 14/23/1 15/24/1
f 13/21/1 16/22/1 17/23/1 14/24/1
f 18/25/1 19/26/1 8/27/1 7/28/1
f 19/25/1 20/26/1 10/27/1 8/28/1
f 20/25/1 21/26/1 11/27/1 10/28/1
f 21/25/1 22/26/1 12/27/1 11/28/1
f 22/25/1 23/26/1 13/27/1 12/28/1
f 23/25/1 24/26/1 16/27/1 13/28/1
f 25/21/1 26/22/1 27/23/1 28/24/1
f 26/21/1 29/22/1 30/23/1 27/24/1
f 31/29/1 32/30/1 33/31/1 34/32/1
f 35/21/1 36/22/1 37/23/1 38/24/1
f 39/33/1 40/34/1 41/35/1 42/36/1
f 43/21/1 44/22/1 45/23/1 46/24/1
f 44/21/1 47/22/1 48/23/1 45/24/1
f 49/37/1 50/38/1 51/39/1 52/40/1
f 53/21/1 54/22/1 55/23/1 56/24/1
f 57/33/1 58/34/1 59/35/1 60/36/1
f 61/21/1 62/22/1 63/23/1 64/24/1
f 65/21/1 66/22/1 67/23/1 68/24/1
f 66/21/1 69/22/1 70/23/1 67/24/1
f 71/25/1 72/26/1 25/27/1 73/28/1
f 72/25/1 74/26/1 26/27/1 25/28/1
f 74/25/1 75/26/1 29/27/1 26/28/1
f 75/25/1 76/26/1 31/27/1 29/28/1
f 76/25/1 77/26/1 32/27/1 31/28/1
f 77/25/1 78/26/1 35/27/1 32/28/1
f 78/25/1 79/26/1 36/27/1 35/28/1
f 79/25/1 80/26/1 39/27/1 36/28/1
f 80/25/1 81/26/1 40/27/1 39/28/1
f 81/25/1 82/26/1 43/27/1 40/28/1
f 82/25/1 83/26/1 44/27/1 43/28/1
f 83/25/1 84/26/1 47/27/1 44/28/1
f 84/25/1 85/26/1 49/27/1 47/28/1
f 85/25/1 86/26/1 50/27/1 49/28/1
f 86/25/1 87/26/1 53/27/1 50/28/1
f 87/25/1 88/26/1 54/27/1 53/28/1
f 88/25/1 89/26/1 57/27/1 54/28/1
f 89/25/1 90/26/1 58/27/1 57/28/1
f 90/25/1 91/26/1 92/27/1 58/28/1
f 91/25/1 93/26/1 94/27/1 92/28/1
f 95/25/1 96/26/1 61/27/1 97/28/1
f 96/25/1 98/26/1 62/27/1 61/28/1
f 98/25/1 99/26/1 100/27/1 62/28/1
f 99/41/1 101/42/1 102/43/1 100/44/1
f 101/41/1 103/42/1 104/43/1 102/44/1
f 105/21/1 106/22/1 107/23/1 108/24/1
f 106/21/1 109/22/1 110/23/1 107/24/1
f 109/21/1 111/22/1 112/23/1 110/24/1
f 113/37/1 114/38/1 115/39/1 116/40/1
f 114/37/1 117/38/1 118/39/1 115/40/1
f 119/21/1 120/22/1 121/23/1 122/24/1
f 120/21/1 123/22/1 124/23/1 121/24/1
f 123/21/1 125/22/1 126/23/1 124/24/1
f 127/21/1 128/22/1 129/23/1 130/24/1
f 128/21/1 131/22/1 132/23/1 129/24/1
f 133/25/1 134/26/1 65/27/1 135/28/1
f 134/25/1 136/26/1 66/27/1 65/28/1
f 136/25/1 137/26/1 69/27/1 66/28/1
f 137/25/1 138/26/1 71/27/1 69/28/1
f 139/25/1 140/26/1 105/27/1 141/28/1
f 140/25/1 142/26/1 106/27/1 105/28/1
f 142/25/1 143/26/1 109/27/1 106/28/1
f 143/25/1 144/26/1 111/27/1 109/28/1
f 144/25/1 145/26/1 113/27/1 111/28/1
f 145/25/1 146/26/1 114/27/1 113/28/1
f 146/25/1 147/26/1 117/27/1 114/28/1
f 147/25/1 148/26/1 119/27/1 117/28/1
f 148/25/1 149/26/1 120/27/1 119/28/1
f 149/25/1 150/26/1 123/27/1 120/28/1
f 150/25/1 151/26/1 125/27/1 123/28/1
f 151/25/1 152/26/1 153/27/1 125/28/1
f 154/21/1 155/22/1 156/23/1 157/24/1
f 155/21/1 158/22/1 159/23/1 156/24/1
f 160/33/1 161/34/1 162/35/1 163/36/1
f 164/21/1 165/22/1 166/23/1 167/24/1
f 168/25/1 169/26/1 127/27/1 170/28/1
f 169/25/1 171/26/1 128/27/1 127/28/1
f 171/25/1 172/26/1 131/27/1 128/28/1
f 172/25/1 173/26/1 133/27/1 131/28/1
f 174/25/1 175/26/1 154/27/1 152/28/1
f 175/25/1 176/26/1 155/27/1 154/28/1
f 176/25/1 177/26/1 158/27/1 155/28/1
f 177/25/1 178/26/1 160/27/1 158/28/1
f 178/25/1 179/26/1 161/27/1 160/28/1
f 180/21/1 181/22/1 182/23/1 183/24/1
f 184/37/1 185/38/1 186/39/1 187/40/1
f 185/37/1 188/38/1 189/39/1 186/40/1
f 188/25/1 190/26/1 164/27/1 189/28/1
f 190/25/1 191/26/1 165/27/1 164/28/1
f 191/25/1 192/26/1 193/27/1 165/28/1
f 192/41/1 194/42/1 168/43/1 193/44/1
f 195/21/1 196/22/1 197/23/1 198/24/1
f 196/21/1 199/22/1 200/23/1 197/24/1
f 201/37/1 202/38/1 203/39/1 204/40/1
f 205/21/1 206/22/1 207/23/1 208/24/1
f 209/29/1 210/30/1 211/31/1 212/32/1
f 213/21/1 214/22/1 215/23/1 216/24/1
f 214/21/1 217/22/1 218/23/1 215/24/1
f 219/45/1 220/46/1 221/47/1 222/48/1
f 223/21/1 224/22/1 225/23/1 226/24/1
f 227/21/1 228/22/1 229/23/1 230/24/1
f 228/21/1 231/22/1 232/23/1 229/24/1
f 231/21/1 233/22/1 234/23/1 232/24/1
f 235/45/1 236/46/1 237/47/1 238/48/1
f 236/45/1 239/46/1 240/47/1 237/48/1
f 241/21/1 242/22/1 243/23/1 244/24/1
f 242/21/1 245/22/1 246/23/1 243/24/1
f 245/21/1 247/22/1 248/23/1 246/24/1
f 249/25/1 250/26/1 180/27/1 251/28/1
f 250/25/1 252/26/1 181/27/1 180/28/1
f 252/25/1 253/26/1 184/27/1 181/28/1
f 253/25/1 254/26/1 185/27/1 184/28/1
f 254/25/1 255/26/1 188/27/1 185/28/1
f 256/25/1 257/26/1 195/27/1 258/28/1
f 257/25/1 259/26/1 196/27/1 195/28/1
f 259/25/1 260/26/1 199/27/1 196/28/1
f 260/25/1 261/26/1 201/27/1 199/28/1
f 261/25/1 262/26/1 202/27/1 201/28/1
f 262/25/1 263/26/1 205/27/1 202/28/1
f 263/25/1 264/26/1 206/27/1 205/28/1
f 264/25/1 265/26/1 209/27/1 206/28/1
f 265/25/1 266/26/1 210/27/1 209/28/1
f 266/25/1 267/26/1 213/27/1 210/28/1
f 267/25/1 268/26/1 214/27/1 213/28/1
f 268/25/1 269/26/1 217/27/1 214/28/1
f 269/25/1 270/26/1 219/27/1 217/28/1
f 270/25/1 271/26/1 220/27/1 219/28/1
f 271/25/1 272/26/1 223/27/1 220/28/1
f 272/25/1 273/26/1 224/27/1 223/28/1
f 273/25/1 274/26/1 275/27/1 224/28/1
f 276/21/1 277/22/1 278/23/1 279/24/1
f 280/21/1 281/22/1 282/23/1 283/24/1
f 284/25/1 285/26/1 227/27/1 286/28/1
f 285/25/1 287/26/1 228/27/1 227/28/1
f 287/25/1 288/26/1 231/27/1 228/28/1
f 288/25/1 289/26/1 233/27/1 231/28/1
f 289/25/1 290/26/1 235/27/1 233/28/1
f 290/25/1 291/26/1 236/27/1 235/28/1
f 291/25/1 292/26/1 239/27/1 236/28/1
f 292/25/1 293/26/1 241/27/1 239/28/1
f 293/25/1 294/26/1 242/27/1 241/28/1
f 294/25/1 295/26/1 245/27/1 242/28/1
f 295/25/1 296/26/1 247/27/1 245/28/1
f 296/25/1 297/26/1 249/27/1 247/28/1
f 298/25/1 299/26/1 276/27/1 274/28/1
f 299/25/1 300/26/1 277/27/1 276/28/1
f 300/41/1 301/42/1 302/43/1 277/44/1
f 301/41/1 303/42/1 304/43/1 302/44/1
f 303/41/1 305/42/1 306/43/1 304/44/1
f 305/25/1 307/26/1 280/27/1 306/28/1
f 307/25/1 308/26/1 281/27/1 280/28/1
f 308/25/1 309/26/1 284/27/1 281/28/1

