# Wavefront OBJ file automatically generated by Tiled2Unity

# Vertices (Count = 171)
v -4560 -240 0
v -4640 -240 0
v -4640 -160 0
v -4560 -160 0
v -4720 -240 0
v -4720 -160 0
v -240 -320 0
v -320 -320 0
v -320 -240 0
v -240 -240 0
v -400 -320 0
v -400 -240 0
v -480 -320 0
v -480 -240 0
v -560 -320 0
v -560 -240 0
v -640 -320 0
v -640 -240 0
v -880 -320 0
v -960 -320 0
v -960 -240 0
v -880 -240 0
v -1040 -320 0
v -1120 -320 0
v -1120 -240 0
v -1040 -240 0
v -1200 -320 0
v -1200 -240 0
v -1280 -320 0
v -1360 -320 0
v -1360 -240 0
v -1280 -240 0
v -1440 -320 0
v -1520 -320 0
v -1520 -240 0
v -1440 -240 0
v -1600 -320 0
v -1600 -240 0
v -1680 -320 0
v -1760 -320 0
v -1760 -240 0
v -1680 -240 0
v -1840 -320 0
v -1920 -320 0
v -1920 -240 0
v -1840 -240 0
v -2000 -320 0
v -2000 -240 0
v -2080 -320 0
v -2160 -320 0
v -2160 -240 0
v -2080 -240 0
v -2240 -320 0
v -2320 -320 0
v -2320 -240 0
v -2240 -240 0
v -2400 -320 0
v -2400 -240 0
v -2480 -320 0
v -2480 -240 0
v -2560 -320 0
v -2560 -240 0
v -2960 -320 0
v -3040 -320 0
v -3040 -240 0
v -2960 -240 0
v -3120 -320 0
v -3120 -240 0
v -3200 -320 0
v -3200 -240 0
v -3600 -320 0
v -3680 -320 0
v -3680 -240 0
v -3600 -240 0
v -3760 -320 0
v -3760 -240 0
v -3840 -320 0
v -3920 -320 0
v -3920 -240 0
v -3840 -240 0
v -4000 -320 0
v -4080 -320 0
v -4080 -240 0
v -4000 -240 0
v -4160 -320 0
v -4160 -240 0
v -4240 -320 0
v -4320 -320 0
v -4320 -240 0
v -4240 -240 0
v -4560 -320 0
v -4640 -320 0
v -4720 -320 0
v -4800 -320 0
v -4800 -240 0
v 0 -400 0
v -80 -400 0
v -80 -320 0
v 0 -320 0
v -160 -400 0
v -160 -320 0
v -240 -400 0
v -320 -400 0
v -400 -400 0
v -480 -400 0
v -560 -400 0
v -640 -400 0
v -720 -400 0
v -720 -320 0
v -800 -400 0
v -800 -320 0
v -880 -400 0
v -960 -400 0
v -1040 -400 0
v -1120 -400 0
v -1200 -400 0
v -1280 -400 0
v -1360 -400 0
v -1440 -400 0
v -1520 -400 0
v -1600 -400 0
v -1680 -400 0
v -1760 -400 0
v -1840 -400 0
v -1920 -400 0
v -2000 -400 0
v -2080 -400 0
v -2160 -400 0
v -2240 -400 0
v -2320 -400 0
v -2400 -400 0
v -2480 -400 0
v -2560 -400 0
v -2640 -400 0
v -2640 -320 0
v -2720 -400 0
v -2720 -320 0
v -2800 -400 0
v -2800 -320 0
v -2880 -400 0
v -2880 -320 0
v -2960 -400 0
v -3040 -400 0
v -3120 -400 0
v -3200 -400 0
v -3280 -400 0
v -3280 -320 0
v -3360 -400 0
v -3360 -320 0
v -3440 -400 0
v -3440 -320 0
v -3520 -400 0
v -3520 -320 0
v -3600 -400 0
v -3680 -400 0
v -3760 -400 0
v -3840 -400 0
v -3920 -400 0
v -4000 -400 0
v -4080 -400 0
v -4160 -400 0
v -4240 -400 0
v -4320 -400 0
v -4400 -400 0
v -4400 -320 0
v -4480 -400 0
v -4480 -320 0
v -4560 -400 0
v -4640 -400 0
v -4720 -400 0
v -4800 -400 0

# Texture cooridinates (Count = 48)
vt 0.0001220703 0.2501221
vt 0.1248779 0.2501221
vt 0.1248779 0.4998779
vt 0.0001220703 0.4998779
vt 0.1251221 0.2501221
vt 0.2498779 0.2501221
vt 0.2498779 0.4998779
vt 0.1251221 0.4998779
vt 0.2501221 0.7501221
vt 0.3748779 0.7501221
vt 0.3748779 0.9998779
vt 0.2501221 0.9998779
vt 0.6251221 0.7501221
vt 0.7498779 0.7501221
vt 0.7498779 0.9998779
vt 0.6251221 0.9998779
vt 0.7501221 0.7501221
vt 0.8748779 0.7501221
vt 0.8748779 0.9998779
vt 0.7501221 0.9998779
vt 0.5001221 0.7501221
vt 0.6248779 0.7501221
vt 0.6248779 0.9998779
vt 0.5001221 0.9998779
vt 0.3751221 0.7501221
vt 0.4998779 0.7501221
vt 0.4998779 0.9998779
vt 0.3751221 0.9998779
vt 0.0001220703 0.0001220703
vt 0.1248779 0.0001220703
vt 0.1248779 0.2498779
vt 0.0001220703 0.2498779
vt 0.1251221 0.0001220703
vt 0.2498779 0.0001220703
vt 0.2498779 0.2498779
vt 0.1251221 0.2498779
vt 0.0001220703 0.7501221
vt 0.1248779 0.7501221
vt 0.1248779 0.9998779
vt 0.0001220703 0.9998779
vt 0.1251221 0.7501221
vt 0.2498779 0.7501221
vt 0.2498779 0.9998779
vt 0.1251221 0.9998779
vt 0.2501221 0.5001221
vt 0.3748779 0.5001221
vt 0.3748779 0.7498779
vt 0.2501221 0.7498779

# Normal
vn 0 0 -1

# Groups (Count = 1)

g mesh_0001
f 1/1/1 2/2/1 3/3/1 4/4/1
f 2/5/1 5/6/1 6/7/1 3/8/1
f 7/9/1 8/10/1 9/11/1 10/12/1
f 8/9/1 11/10/1 12/11/1 9/12/1
f 11/9/1 13/10/1 14/11/1 12/12/1
f 13/9/1 15/10/1 16/11/1 14/12/1
f 15/9/1 17/10/1 18/11/1 16/12/1
f 19/13/1 20/14/1 21/15/1 22/16/1
f 23/9/1 24/10/1 25/11/1 26/12/1
f 24/9/1 27/10/1 28/11/1 25/12/1
f 29/13/1 30/14/1 31/15/1 32/16/1
f 33/9/1 34/10/1 35/11/1 36/12/1
f 34/9/1 37/10/1 38/11/1 35/12/1
f 39/17/1 40/18/1 41/19/1 42/20/1
f 43/9/1 44/10/1 45/11/1 46/12/1
f 44/9/1 47/10/1 48/11/1 45/12/1
f 49/21/1 50/22/1 51/23/1 52/24/1
f 53/9/1 54/10/1 55/11/1 56/12/1
f 54/9/1 57/10/1 58/11/1 55/12/1
f 57/9/1 59/10/1 60/11/1 58/12/1
f 59/9/1 61/10/1 62/11/1 60/12/1
f 63/9/1 64/10/1 65/11/1 66/12/1
f 64/9/1 67/10/1 68/11/1 65/12/1
f 67/9/1 69/10/1 70/11/1 68/12/1
f 71/9/1 72/10/1 73/11/1 74/12/1
f 72/9/1 75/10/1 76/11/1 73/12/1
f 77/25/1 78/26/1 79/27/1 80/28/1
f 81/9/1 82/10/1 83/11/1 84/12/1
f 82/9/1 85/10/1 86/11/1 83/12/1
f 87/13/1 88/14/1 89/15/1 90/16/1
f 91/29/1 92/30/1 2/31/1 1/32/1
f 92/33/1 93/34/1 5/35/1 2/36/1
f 93/37/1 94/38/1 95/39/1 5/40/1
f 96/41/1 97/42/1 98/43/1 99/44/1
f 97/41/1 100/42/1 101/43/1 98/44/1
f 100/41/1 102/42/1 7/43/1 101/44/1
f 102/41/1 103/42/1 8/43/1 7/44/1
f 103/41/1 104/42/1 11/43/1 8/44/1
f 104/41/1 105/42/1 13/43/1 11/44/1
f 105/41/1 106/42/1 15/43/1 13/44/1
f 106/41/1 107/42/1 17/43/1 15/44/1
f 107/41/1 108/42/1 109/43/1 17/44/1
f 108/41/1 110/42/1 111/43/1 109/44/1
f 110/41/1 112/42/1 19/43/1 111/44/1
f 112/41/1 113/42/1 20/43/1 19/44/1
f 113/41/1 114/42/1 23/43/1 20/44/1
f 114/41/1 115/42/1 24/43/1 23/44/1
f 115/41/1 116/42/1 27/43/1 24/44/1
f 116/41/1 117/42/1 29/43/1 27/44/1
f 117/41/1 118/42/1 30/43/1 29/44/1
f 118/41/1 119/42/1 33/43/1 30/44/1
f 119/41/1 120/42/1 34/43/1 33/44/1
f 120/41/1 121/42/1 37/43/1 34/44/1
f 121/41/1 122/42/1 39/43/1 37/44/1
f 122/41/1 123/42/1 40/43/1 39/44/1
f 123/41/1 124/42/1 43/43/1 40/44/1
f 124/41/1 125/42/1 44/43/1 43/44/1
f 125/41/1 126/42/1 47/43/1 44/44/1
f 126/41/1 127/42/1 49/43/1 47/44/1
f 127/41/1 128/42/1 50/43/1 49/44/1
f 128/41/1 129/42/1 53/43/1 50/44/1
f 129/41/1 130/42/1 54/43/1 53/44/1
f 130/41/1 131/42/1 57/43/1 54/44/1
f 131/41/1 132/42/1 59/43/1 57/44/1
f 132/41/1 133/42/1 61/43/1 59/44/1
f 133/41/1 134/42/1 135/43/1 61/44/1
f 134/45/1 136/46/1 137/47/1 135/48/1
f 136/45/1 138/46/1 139/47/1 137/48/1
f 138/41/1 140/42/1 141/43/1 139/44/1
f 140/41/1 142/42/1 63/43/1 141/44/1
f 142/41/1 143/42/1 64/43/1 63/44/1
f 143/41/1 144/42/1 67/43/1 64/44/1
f 144/41/1 145/42/1 69/43/1 67/44/1
f 145/41/1 146/42/1 147/43/1 69/44/1
f 146/41/1 148/42/1 149/43/1 147/44/1
f 148/45/1 150/46/1 151/47/1 149/48/1
f 150/45/1 152/46/1 153/47/1 151/48/1
f 152/41/1 154/42/1 71/43/1 153/44/1
f 154/41/1 155/42/1 72/43/1 71/44/1
f 155/41/1 156/42/1 75/43/1 72/44/1
f 156/41/1 157/42/1 77/43/1 75/44/1
f 157/41/1 158/42/1 78/43/1 77/44/1
f 158/41/1 159/42/1 81/43/1 78/44/1
f 159/41/1 160/42/1 82/43/1 81/44/1
f 160/41/1 161/42/1 85/43/1 82/44/1
f 161/41/1 162/42/1 87/43/1 85/44/1
f 162/41/1 163/42/1 88/43/1 87/44/1
f 163/41/1 164/42/1 165/43/1 88/44/1
f 164/41/1 166/42/1 167/43/1 165/44/1
f 166/41/1 168/42/1 91/43/1 167/44/1
f 168/41/1 169/42/1 92/43/1 91/44/1
f 169/41/1 170/42/1 93/43/1 92/44/1
f 170/41/1 171/42/1 94/43/1 93/44/1

