# Wavefront OBJ file automatically generated by Tiled2Unity

# Vertices (Count = 471)
v -1520 -320 0
v -1600 -320 0
v -1600 -240 0
v -1520 -240 0
v -1680 -320 0
v -1680 -240 0
v -1760 -320 0
v -1760 -240 0
v -1840 -320 0
v -1920 -320 0
v -1920 -240 0
v -1840 -240 0
v -2000 -320 0
v -2000 -240 0
v -2080 -320 0
v -2160 -320 0
v -2160 -240 0
v -2080 -240 0
v -2240 -320 0
v -2240 -240 0
v -2320 -320 0
v -2320 -240 0
v -2640 -320 0
v -2720 -320 0
v -2720 -240 0
v -2640 -240 0
v -2800 -320 0
v -2880 -320 0
v -2880 -240 0
v -2800 -240 0
v -2960 -320 0
v -3040 -320 0
v -3040 -240 0
v -2960 -240 0
v -3120 -320 0
v -3120 -240 0
v -3200 -320 0
v -3280 -320 0
v -3280 -240 0
v -3200 -240 0
v -3360 -320 0
v -3440 -320 0
v -3440 -240 0
v -3360 -240 0
v -3520 -320 0
v -3520 -240 0
v -3840 -320 0
v -3920 -320 0
v -3920 -240 0
v -3840 -240 0
v -4000 -320 0
v -4000 -240 0
v -4080 -320 0
v -4080 -240 0
v -4160 -320 0
v -4240 -320 0
v -4240 -240 0
v -4160 -240 0
v -4320 -320 0
v -4320 -240 0
v -4400 -320 0
v -4480 -320 0
v -4480 -240 0
v -4400 -240 0
v -4560 -320 0
v -4560 -240 0
v -4640 -320 0
v -4640 -240 0
v -5040 -320 0
v -5120 -320 0
v -5120 -240 0
v -5040 -240 0
v -5200 -320 0
v -5200 -240 0
v -5600 -320 0
v -5680 -320 0
v -5680 -240 0
v -5600 -240 0
v -5920 -320 0
v -6000 -320 0
v -6000 -240 0
v -5920 -240 0
v -6080 -320 0
v -6080 -240 0
v -6320 -320 0
v -6400 -320 0
v -6400 -240 0
v -6320 -240 0
v -6480 -320 0
v -6480 -240 0
v -6720 -320 0
v -6800 -320 0
v -6800 -240 0
v -6720 -240 0
v -6880 -320 0
v -6880 -240 0
v -6960 -320 0
v -7040 -320 0
v -7040 -240 0
v -6960 -240 0
v -7120 -320 0
v -7200 -320 0
v -7200 -240 0
v -7120 -240 0
v -7280 -320 0
v -7280 -240 0
v -7440 -320 0
v -7520 -320 0
v -7520 -240 0
v -7440 -240 0
v -7840 -320 0
v -7920 -320 0
v -7920 -240 0
v -7840 -240 0
v -8240 -320 0
v -8320 -320 0
v -8320 -240 0
v -8240 -240 0
v -1440 -400 0
v -1520 -400 0
v -1440 -320 0
v -1600 -400 0
v -1680 -400 0
v -1760 -400 0
v -1840 -400 0
v -1920 -400 0
v -2000 -400 0
v -2080 -400 0
v -2160 -400 0
v -2240 -400 0
v -2320 -400 0
v -2400 -400 0
v -2400 -320 0
v -2560 -400 0
v -2640 -400 0
v -2560 -320 0
v -2720 -400 0
v -2800 -400 0
v -2880 -400 0
v -2960 -400 0
v -3040 -400 0
v -3120 -400 0
v -3200 -400 0
v -3280 -400 0
v -3360 -400 0
v -3440 -400 0
v -3520 -400 0
v -3600 -400 0
v -3600 -320 0
v -3760 -400 0
v -3840 -400 0
v -3760 -320 0
v -3920 -400 0
v -4000 -400 0
v -4080 -400 0
v -4160 -400 0
v -4240 -400 0
v -4320 -400 0
v -4400 -400 0
v -4480 -400 0
v -4560 -400 0
v -4640 -400 0
v -4720 -400 0
v -4720 -320 0
v -4960 -400 0
v -5040 -400 0
v -4960 -320 0
v -5120 -400 0
v -5200 -400 0
v -5280 -400 0
v -5280 -320 0
v -5520 -400 0
v -5600 -400 0
v -5520 -320 0
v -5680 -400 0
v -5760 -400 0
v -5760 -320 0
v -5920 -400 0
v -6000 -400 0
v -6080 -400 0
v -6320 -400 0
v -6400 -400 0
v -6480 -400 0
v -6640 -400 0
v -6720 -400 0
v -6640 -320 0
v -6800 -400 0
v -6880 -400 0
v -6960 -400 0
v -7040 -400 0
v -7120 -400 0
v -7200 -400 0
v -7280 -400 0
v -7360 -400 0
v -7360 -320 0
v -7440 -400 0
v -7520 -400 0
v -7600 -400 0
v -7600 -320 0
v -7680 -400 0
v -7680 -320 0
v -7760 -400 0
v -7760 -320 0
v -7840 -400 0
v -7920 -400 0
v -8000 -400 0
v -8000 -320 0
v -8080 -400 0
v -8080 -320 0
v -8160 -400 0
v -8160 -320 0
v -8240 -400 0
v -8320 -400 0
v -8400 -400 0
v -8400 -320 0
v -80 -640 0
v -160 -640 0
v -160 -560 0
v -80 -560 0
v -240 -640 0
v -240 -560 0
v 0 -720 0
v -80 -720 0
v 0 -640 0
v -160 -720 0
v -240 -720 0
v -320 -720 0
v -400 -720 0
v -400 -640 0
v -320 -640 0
v -480 -720 0
v -480 -640 0
v -560 -720 0
v -640 -720 0
v -640 -640 0
v -560 -640 0
v -720 -720 0
v -800 -720 0
v -800 -640 0
v -720 -640 0
v -880 -720 0
v -880 -640 0
v -960 -720 0
v -1040 -720 0
v -1040 -640 0
v -960 -640 0
v -1680 -720 0
v -1760 -720 0
v -1760 -640 0
v -1680 -640 0
v -1840 -720 0
v -1840 -640 0
v -1920 -720 0
v -1920 -640 0
v -2000 -720 0
v -2000 -640 0
v -2080 -720 0
v -2080 -640 0
v -2160 -720 0
v -2160 -640 0
v -2240 -720 0
v -2240 -640 0
v -2640 -720 0
v -2720 -720 0
v -2720 -640 0
v -2640 -640 0
v -2800 -720 0
v -2880 -720 0
v -2880 -640 0
v -2800 -640 0
v -2960 -720 0
v -3040 -720 0
v -3040 -640 0
v -2960 -640 0
v -3120 -720 0
v -3120 -640 0
v -3200 -720 0
v -3280 -720 0
v -3280 -640 0
v -3200 -640 0
v -3360 -720 0
v -3440 -720 0
v -3440 -640 0
v -3360 -640 0
v -4000 -720 0
v -4080 -720 0
v -4080 -640 0
v -4000 -640 0
v -4160 -720 0
v -4160 -640 0
v -4240 -720 0
v -4240 -640 0
v -4320 -720 0
v -4320 -640 0
v -4400 -720 0
v -4400 -640 0
v -4480 -720 0
v -4480 -640 0
v -4880 -720 0
v -4960 -720 0
v -4960 -640 0
v -4880 -640 0
v -5040 -720 0
v -5040 -640 0
v -5440 -720 0
v -5520 -720 0
v -5520 -640 0
v -5440 -640 0
v -5840 -720 0
v -5920 -720 0
v -5920 -640 0
v -5840 -640 0
v -6000 -720 0
v -6000 -640 0
v -6240 -720 0
v -6320 -720 0
v -6320 -640 0
v -6240 -640 0
v -6400 -720 0
v -6400 -640 0
v -6720 -720 0
v -6800 -720 0
v -6800 -640 0
v -6720 -640 0
v -6880 -720 0
v -6880 -640 0
v -6960 -720 0
v -7040 -720 0
v -7040 -640 0
v -6960 -640 0
v -7120 -720 0
v -7200 -720 0
v -7200 -640 0
v -7120 -640 0
v -7280 -720 0
v -7280 -640 0
v -7440 -720 0
v -7520 -720 0
v -7520 -640 0
v -7440 -640 0
v -7840 -720 0
v -7920 -720 0
v -7920 -640 0
v -7840 -640 0
v -8240 -720 0
v -8320 -720 0
v -8320 -640 0
v -8240 -640 0
v 0 -800 0
v -80 -800 0
v -160 -800 0
v -240 -800 0
v -320 -800 0
v -400 -800 0
v -480 -800 0
v -560 -800 0
v -640 -800 0
v -720 -800 0
v -800 -800 0
v -880 -800 0
v -960 -800 0
v -1040 -800 0
v -1120 -800 0
v -1120 -720 0
v -1200 -800 0
v -1200 -720 0
v -1280 -800 0
v -1280 -720 0
v -1360 -800 0
v -1360 -720 0
v -1520 -800 0
v -1600 -800 0
v -1600 -720 0
v -1520 -720 0
v -1680 -800 0
v -1760 -800 0
v -1840 -800 0
v -1920 -800 0
v -2000 -800 0
v -2080 -800 0
v -2160 -800 0
v -2240 -800 0
v -2320 -800 0
v -2320 -720 0
v -2400 -800 0
v -2400 -720 0
v -2560 -800 0
v -2640 -800 0
v -2560 -720 0
v -2720 -800 0
v -2800 -800 0
v -2880 -800 0
v -2960 -800 0
v -3040 -800 0
v -3120 -800 0
v -3200 -800 0
v -3280 -800 0
v -3360 -800 0
v -3440 -800 0
v -3520 -800 0
v -3520 -720 0
v -3600 -800 0
v -3600 -720 0
v -3680 -800 0
v -3680 -720 0
v -3840 -800 0
v -3920 -800 0
v -3920 -720 0
v -3840 -720 0
v -4000 -800 0
v -4080 -800 0
v -4160 -800 0
v -4240 -800 0
v -4320 -800 0
v -4400 -800 0
v -4480 -800 0
v -4560 -800 0
v -4560 -720 0
v -4640 -800 0
v -4640 -720 0
v -4800 -800 0
v -4880 -800 0
v -4800 -720 0
v -4960 -800 0
v -5040 -800 0
v -5120 -800 0
v -5120 -720 0
v -5360 -800 0
v -5440 -800 0
v -5360 -720 0
v -5520 -800 0
v -5600 -800 0
v -5600 -720 0
v -5840 -800 0
v -5920 -800 0
v -6000 -800 0
v -6240 -800 0
v -6320 -800 0
v -6400 -800 0
v -6640 -800 0
v -6720 -800 0
v -6640 -720 0
v -6800 -800 0
v -6880 -800 0
v -6960 -800 0
v -7040 -800 0
v -7120 -800 0
v -7200 -800 0
v -7280 -800 0
v -7360 -800 0
v -7360 -720 0
v -7440 -800 0
v -7520 -800 0
v -7600 -800 0
v -7600 -720 0
v -7680 -800 0
v -7680 -720 0
v -7760 -800 0
v -7760 -720 0
v -7840 -800 0
v -7920 -800 0
v -8000 -800 0
v -8000 -720 0
v -8080 -800 0
v -8080 -720 0
v -8160 -800 0
v -8160 -720 0
v -8240 -800 0
v -8320 -800 0
v -8400 -800 0
v -8400 -720 0

# Texture cooridinates (Count = 52)
vt 0.2501221 0.7501221
vt 0.3748779 0.7501221
vt 0.3748779 0.9998779
vt 0.2501221 0.9998779
vt 0.3751221 0.7501221
vt 0.4998779 0.7501221
vt 0.4998779 0.9998779
vt 0.3751221 0.9998779
vt 0.5001221 0.7501221
vt 0.6248779 0.7501221
vt 0.6248779 0.9998779
vt 0.5001221 0.9998779
vt 0.6251221 0.7501221
vt 0.7498779 0.7501221
vt 0.7498779 0.9998779
vt 0.6251221 0.9998779
vt 0.7501221 0.7501221
vt 0.8748779 0.7501221
vt 0.8748779 0.9998779
vt 0.7501221 0.9998779
vt 0.1251221 0.7501221
vt 0.2498779 0.7501221
vt 0.2498779 0.9998779
vt 0.1251221 0.9998779
vt 0.2501221 0.5001221
vt 0.3748779 0.5001221
vt 0.3748779 0.7498779
vt 0.2501221 0.7498779
vt 0.2501221 0.2501221
vt 0.3748779 0.2501221
vt 0.3748779 0.4998779
vt 0.2501221 0.4998779
vt 0.3751221 0.2501221
vt 0.4998779 0.2501221
vt 0.4998779 0.4998779
vt 0.3751221 0.4998779
vt 0.0001220703 0.7501221
vt 0.1248779 0.7501221
vt 0.1248779 0.9998779
vt 0.0001220703 0.9998779
vt 0.2501221 0.0001220703
vt 0.3748779 0.0001220703
vt 0.3748779 0.2498779
vt 0.2501221 0.2498779
vt 0.3751221 0.0001220703
vt 0.4998779 0.0001220703
vt 0.4998779 0.2498779
vt 0.3751221 0.2498779
vt 0.8751221 0.7501221
vt 0.9998779 0.7501221
vt 0.9998779 0.9998779
vt 0.8751221 0.9998779

# Normal
vn 0 0 -1

# Groups (Count = 1)

g mesh_0001
f 1/1/1 2/2/1 3/3/1 4/4/1
f 2/1/1 5/2/1 6/3/1 3/4/1
f 5/1/1 7/2/1 8/3/1 6/4/1
f 9/5/1 10/6/1 11/7/1 12/8/1
f 10/9/1 13/10/1 14/11/1 11/12/1
f 15/1/1 16/2/1 17/3/1 18/4/1
f 16/1/1 19/2/1 20/3/1 17/4/1
f 19/1/1 21/2/1 22/3/1 20/4/1
f 23/1/1 24/2/1 25/3/1 26/4/1
f 27/13/1 28/14/1 29/15/1 30/16/1
f 31/1/1 32/2/1 33/3/1 34/4/1
f 32/1/1 35/2/1 36/3/1 33/4/1
f 37/17/1 38/18/1 39/19/1 40/20/1
f 41/1/1 42/2/1 43/3/1 44/4/1
f 42/1/1 45/2/1 46/3/1 43/4/1
f 47/1/1 48/2/1 49/3/1 50/4/1
f 48/1/1 51/2/1 52/3/1 49/4/1
f 51/1/1 53/2/1 54/3/1 52/4/1
f 55/9/1 56/10/1 57/11/1 58/12/1
f 56/9/1 59/10/1 60/11/1 57/12/1
f 61/1/1 62/2/1 63/3/1 64/4/1
f 62/1/1 65/2/1 66/3/1 63/4/1
f 65/1/1 67/2/1 68/3/1 66/4/1
f 69/1/1 70/2/1 71/3/1 72/4/1
f 70/1/1 73/2/1 74/3/1 71/4/1
f 75/1/1 76/2/1 77/3/1 78/4/1
f 79/1/1 80/2/1 81/3/1 82/4/1
f 80/1/1 83/2/1 84/3/1 81/4/1
f 85/1/1 86/2/1 87/3/1 88/4/1
f 86/1/1 89/2/1 90/3/1 87/4/1
f 91/1/1 92/2/1 93/3/1 94/4/1
f 92/1/1 95/2/1 96/3/1 93/4/1
f 97/13/1 98/14/1 99/15/1 100/16/1
f 101/1/1 102/2/1 103/3/1 104/4/1
f 102/1/1 105/2/1 106/3/1 103/4/1
f 107/1/1 108/2/1 109/3/1 110/4/1
f 111/1/1 112/2/1 113/3/1 114/4/1
f 115/1/1 116/2/1 117/3/1 118/4/1
f 119/21/1 120/22/1 1/23/1 121/24/1
f 120/21/1 122/22/1 2/23/1 1/24/1
f 122/21/1 123/22/1 5/23/1 2/24/1
f 123/21/1 124/22/1 7/23/1 5/24/1
f 124/21/1 125/22/1 9/23/1 7/24/1
f 125/21/1 126/22/1 10/23/1 9/24/1
f 126/21/1 127/22/1 13/23/1 10/24/1
f 127/21/1 128/22/1 15/23/1 13/24/1
f 128/21/1 129/22/1 16/23/1 15/24/1
f 129/21/1 130/22/1 19/23/1 16/24/1
f 130/21/1 131/22/1 21/23/1 19/24/1
f 131/21/1 132/22/1 133/23/1 21/24/1
f 134/21/1 135/22/1 23/23/1 136/24/1
f 135/21/1 137/22/1 24/23/1 23/24/1
f 137/21/1 138/22/1 27/23/1 24/24/1
f 138/21/1 139/22/1 28/23/1 27/24/1
f 139/21/1 140/22/1 31/23/1 28/24/1
f 140/21/1 141/22/1 32/23/1 31/24/1
f 141/21/1 142/22/1 35/23/1 32/24/1
f 142/21/1 143/22/1 37/23/1 35/24/1
f 143/21/1 144/22/1 38/23/1 37/24/1
f 144/21/1 145/22/1 41/23/1 38/24/1
f 145/21/1 146/22/1 42/23/1 41/24/1
f 146/21/1 147/22/1 45/23/1 42/24/1
f 147/21/1 148/22/1 149/23/1 45/24/1
f 150/21/1 151/22/1 47/23/1 152/24/1
f 151/21/1 153/22/1 48/23/1 47/24/1
f 153/21/1 154/22/1 51/23/1 48/24/1
f 154/21/1 155/22/1 53/23/1 51/24/1
f 155/21/1 156/22/1 55/23/1 53/24/1
f 156/21/1 157/22/1 56/23/1 55/24/1
f 157/21/1 158/22/1 59/23/1 56/24/1
f 158/21/1 159/22/1 61/23/1 59/24/1
f 159/21/1 160/22/1 62/23/1 61/24/1
f 160/21/1 161/22/1 65/23/1 62/24/1
f 161/21/1 162/22/1 67/23/1 65/24/1
f 162/21/1 163/22/1 164/23/1 67/24/1
f 165/21/1 166/22/1 69/23/1 167/24/1
f 166/21/1 168/22/1 70/23/1 69/24/1
f 168/21/1 169/22/1 73/23/1 70/24/1
f 169/21/1 170/22/1 171/23/1 73/24/1
f 172/21/1 173/22/1 75/23/1 174/24/1
f 173/21/1 175/22/1 76/23/1 75/24/1
f 175/21/1 176/22/1 177/23/1 76/24/1
f 178/21/1 179/22/1 80/23/1 79/24/1
f 179/21/1 180/22/1 83/23/1 80/24/1
f 181/21/1 182/22/1 86/23/1 85/24/1
f 182/21/1 183/22/1 89/23/1 86/24/1
f 184/21/1 185/22/1 91/23/1 186/24/1
f 185/21/1 187/22/1 92/23/1 91/24/1
f 187/21/1 188/22/1 95/23/1 92/24/1
f 188/21/1 189/22/1 97/23/1 95/24/1
f 189/21/1 190/22/1 98/23/1 97/24/1
f 190/21/1 191/22/1 101/23/1 98/24/1
f 191/21/1 192/22/1 102/23/1 101/24/1
f 192/21/1 193/22/1 105/23/1 102/24/1
f 193/21/1 194/22/1 195/23/1 105/24/1
f 194/21/1 196/22/1 107/23/1 195/24/1
f 196/21/1 197/22/1 108/23/1 107/24/1
f 197/21/1 198/22/1 199/23/1 108/24/1
f 198/25/1 200/26/1 201/27/1 199/28/1
f 200/25/1 202/26/1 203/27/1 201/28/1
f 202/21/1 204/22/1 111/23/1 203/24/1
f 204/21/1 205/22/1 112/23/1 111/24/1
f 205/21/1 206/22/1 207/23/1 112/24/1
f 206/25/1 208/26/1 209/27/1 207/28/1
f 208/25/1 210/26/1 211/27/1 209/28/1
f 210/21/1 212/22/1 115/23/1 211/24/1
f 212/21/1 213/22/1 116/23/1 115/24/1
f 213/21/1 214/22/1 215/23/1 116/24/1
f 216/29/1 217/30/1 218/31/1 219/32/1
f 217/33/1 220/34/1 221/35/1 218/36/1
f 222/37/1 223/38/1 216/39/1 224/40/1
f 223/41/1 225/42/1 217/43/1 216/44/1
f 225/45/1 226/46/1 220/47/1 217/48/1
f 227/1/1 228/2/1 229/3/1 230/4/1
f 228/1/1 231/2/1 232/3/1 229/4/1
f 233/13/1 234/14/1 235/15/1 236/16/1
f 237/1/1 238/2/1 239/3/1 240/4/1
f 238/1/1 241/2/1 242/3/1 239/4/1
f 243/17/1 244/18/1 245/19/1 246/20/1
f 247/1/1 248/2/1 249/3/1 250/4/1
f 248/1/1 251/2/1 252/3/1 249/4/1
f 251/1/1 253/2/1 254/3/1 252/4/1
f 253/1/1 255/2/1 256/3/1 254/4/1
f 255/1/1 257/2/1 258/3/1 256/4/1
f 257/1/1 259/2/1 260/3/1 258/4/1
f 259/1/1 261/2/1 262/3/1 260/4/1
f 263/1/1 264/2/1 265/3/1 266/4/1
f 267/13/1 268/14/1 269/15/1 270/16/1
f 271/1/1 272/2/1 273/3/1 274/4/1
f 272/1/1 275/2/1 276/3/1 273/4/1
f 277/17/1 278/18/1 279/19/1 280/20/1
f 281/1/1 282/2/1 283/3/1 284/4/1
f 285/1/1 286/2/1 287/3/1 288/4/1
f 286/1/1 289/2/1 290/3/1 287/4/1
f 289/1/1 291/2/1 292/3/1 290/4/1
f 291/1/1 293/2/1 294/3/1 292/4/1
f 293/1/1 295/2/1 296/3/1 294/4/1
f 295/1/1 297/2/1 298/3/1 296/4/1
f 299/1/1 300/2/1 301/3/1 302/4/1
f 300/1/1 303/2/1 304/3/1 301/4/1
f 305/1/1 306/2/1 307/3/1 308/4/1
f 309/1/1 310/2/1 311/3/1 312/4/1
f 310/1/1 313/2/1 314/3/1 311/4/1
f 315/1/1 316/2/1 317/3/1 318/4/1
f 316/1/1 319/2/1 320/3/1 317/4/1
f 321/1/1 322/2/1 323/3/1 324/4/1
f 322/1/1 325/2/1 326/3/1 323/4/1
f 327/9/1 328/10/1 329/11/1 330/12/1
f 331/1/1 332/2/1 333/3/1 334/4/1
f 332/1/1 335/2/1 336/3/1 333/4/1
f 337/1/1 338/2/1 339/3/1 340/4/1
f 341/1/1 342/2/1 343/3/1 344/4/1
f 345/1/1 346/2/1 347/3/1 348/4/1
f 349/21/1 350/22/1 223/23/1 222/24/1
f 350/21/1 351/22/1 225/23/1 223/24/1
f 351/21/1 352/22/1 226/23/1 225/24/1
f 352/21/1 353/22/1 227/23/1 226/24/1
f 353/21/1 354/22/1 228/23/1 227/24/1
f 354/21/1 355/22/1 231/23/1 228/24/1
f 355/21/1 356/22/1 233/23/1 231/24/1
f 356/21/1 357/22/1 234/23/1 233/24/1
f 357/21/1 358/22/1 237/23/1 234/24/1
f 358/21/1 359/22/1 238/23/1 237/24/1
f 359/21/1 360/22/1 241/23/1 238/24/1
f 360/21/1 361/22/1 243/23/1 241/24/1
f 361/21/1 362/22/1 244/23/1 243/24/1
f 362/21/1 363/22/1 364/23/1 244/24/1
f 363/21/1 365/22/1 366/23/1 364/24/1
f 365/21/1 367/22/1 368/23/1 366/24/1
f 367/49/1 369/50/1 370/51/1 368/52/1
f 371/21/1 372/22/1 373/23/1 374/24/1
f 372/21/1 375/22/1 247/23/1 373/24/1
f 375/21/1 376/22/1 248/23/1 247/24/1
f 376/21/1 377/22/1 251/23/1 248/24/1
f 377/21/1 378/22/1 253/23/1 251/24/1
f 378/21/1 379/22/1 255/23/1 253/24/1
f 379/21/1 380/22/1 257/23/1 255/24/1
f 380/21/1 381/22/1 259/23/1 257/24/1
f 381/21/1 382/22/1 261/23/1 259/24/1
f 382/21/1 383/22/1 384/23/1 261/24/1
f 383/21/1 385/22/1 386/23/1 384/24/1
f 387/21/1 388/22/1 263/23/1 389/24/1
f 388/21/1 390/22/1 264/23/1 263/24/1
f 390/21/1 391/22/1 267/23/1 264/24/1
f 391/21/1 392/22/1 268/23/1 267/24/1
f 392/21/1 393/22/1 271/23/1 268/24/1
f 393/21/1 394/22/1 272/23/1 271/24/1
f 394/21/1 395/22/1 275/23/1 272/24/1
f 395/21/1 396/22/1 277/23/1 275/24/1
f 396/21/1 397/22/1 278/23/1 277/24/1
f 397/21/1 398/22/1 281/23/1 278/24/1
f 398/21/1 399/22/1 282/23/1 281/24/1
f 399/21/1 400/22/1 401/23/1 282/24/1
f 400/21/1 402/22/1 403/23/1 401/24/1
f 402/49/1 404/50/1 405/51/1 403/52/1
f 406/21/1 407/22/1 408/23/1 409/24/1
f 407/21/1 410/22/1 285/23/1 408/24/1
f 410/21/1 411/22/1 286/23/1 285/24/1
f 411/21/1 412/22/1 289/23/1 286/24/1
f 412/21/1 413/22/1 291/23/1 289/24/1
f 413/21/1 414/22/1 293/23/1 291/24/1
f 414/21/1 415/22/1 295/23/1 293/24/1
f 415/21/1 416/22/1 297/23/1 295/24/1
f 416/21/1 417/22/1 418/23/1 297/24/1
f 417/21/1 419/22/1 420/23/1 418/24/1
f 421/21/1 422/22/1 299/23/1 423/24/1
f 422/21/1 424/22/1 300/23/1 299/24/1
f 424/21/1 425/22/1 303/23/1 300/24/1
f 425/21/1 426/22/1 427/23/1 303/24/1
f 428/21/1 429/22/1 305/23/1 430/24/1
f 429/21/1 431/22/1 306/23/1 305/24/1
f 431/21/1 432/22/1 433/23/1 306/24/1
f 434/21/1 435/22/1 310/23/1 309/24/1
f 435/21/1 436/22/1 313/23/1 310/24/1
f 437/21/1 438/22/1 316/23/1 315/24/1
f 438/21/1 439/22/1 319/23/1 316/24/1
f 440/21/1 441/22/1 321/23/1 442/24/1
f 441/21/1 443/22/1 322/23/1 321/24/1
f 443/21/1 444/22/1 325/23/1 322/24/1
f 444/21/1 445/22/1 327/23/1 325/24/1
f 445/21/1 446/22/1 328/23/1 327/24/1
f 446/21/1 447/22/1 331/23/1 328/24/1
f 447/21/1 448/22/1 332/23/1 331/24/1
f 448/21/1 449/22/1 335/23/1 332/24/1
f 449/21/1 450/22/1 451/23/1 335/24/1
f 450/21/1 452/22/1 337/23/1 451/24/1
f 452/21/1 453/22/1 338/23/1 337/24/1
f 453/21/1 454/22/1 455/23/1 338/24/1
f 454/25/1 456/26/1 457/27/1 455/28/1
f 456/25/1 458/26/1 459/27/1 457/28/1
f 458/21/1 460/22/1 341/23/1 459/24/1
f 460/21/1 461/22/1 342/23/1 341/24/1
f 461/21/1 462/22/1 463/23/1 342/24/1
f 462/25/1 464/26/1 465/27/1 463/28/1
f 464/25/1 466/26/1 467/27/1 465/28/1
f 466/21/1 468/22/1 345/23/1 467/24/1
f 468/21/1 469/22/1 346/23/1 345/24/1
f 469/21/1 470/22/1 471/23/1 346/24/1

