# Wavefront OBJ file automatically generated by Tiled2Unity

# Vertices (Count = 348)
v -8240 -240 0
v -8320 -240 0
v -8320 -160 0
v -8240 -160 0
v -3760 -320 0
v -3840 -320 0
v -3840 -240 0
v -3760 -240 0
v -5600 -320 0
v -5680 -320 0
v -5680 -240 0
v -5600 -240 0
v -7440 -320 0
v -7520 -320 0
v -7520 -240 0
v -7440 -240 0
v -7600 -320 0
v -7600 -240 0
v -7680 -320 0
v -7680 -240 0
v -7760 -320 0
v -7760 -240 0
v -7920 -320 0
v -8000 -320 0
v -8000 -240 0
v -7920 -240 0
v -8080 -320 0
v -8080 -240 0
v -8160 -320 0
v -8160 -240 0
v -8240 -320 0
v -8320 -320 0
v -8480 -320 0
v -8560 -320 0
v -8560 -240 0
v -8480 -240 0
v -8640 -320 0
v -8640 -240 0
v -8720 -320 0
v -8800 -320 0
v -8800 -240 0
v -8720 -240 0
v -8880 -320 0
v -8960 -320 0
v -8960 -240 0
v -8880 -240 0
v -9040 -320 0
v -9040 -240 0
v -9120 -320 0
v -9200 -320 0
v -9200 -240 0
v -9120 -240 0
v -9280 -320 0
v -9280 -240 0
v -9360 -320 0
v -9440 -320 0
v -9440 -240 0
v -9360 -240 0
v -80 -400 0
v -160 -400 0
v -160 -320 0
v -80 -320 0
v -240 -400 0
v -240 -320 0
v -640 -400 0
v -720 -400 0
v -720 -320 0
v -640 -320 0
v -3760 -400 0
v -3840 -400 0
v -4080 -400 0
v -4160 -400 0
v -4160 -320 0
v -4080 -320 0
v -4240 -400 0
v -4240 -320 0
v -4320 -400 0
v -4400 -400 0
v -4400 -320 0
v -4320 -320 0
v -4480 -400 0
v -4560 -400 0
v -4560 -320 0
v -4480 -320 0
v -4640 -400 0
v -4720 -400 0
v -4720 -320 0
v -4640 -320 0
v -4800 -400 0
v -4880 -400 0
v -4880 -320 0
v -4800 -320 0
v -4960 -400 0
v -4960 -320 0
v -5040 -400 0
v -5120 -400 0
v -5120 -320 0
v -5040 -320 0
v -5200 -400 0
v -5200 -320 0
v -5280 -400 0
v -5360 -400 0
v -5360 -320 0
v -5280 -320 0
v -5440 -400 0
v -5440 -320 0
v -5520 -400 0
v -5520 -320 0
v -5600 -400 0
v -5680 -400 0
v -5920 -400 0
v -6000 -400 0
v -6000 -320 0
v -5920 -320 0
v -6080 -400 0
v -6080 -320 0
v -6160 -400 0
v -6160 -320 0
v -6240 -400 0
v -6320 -400 0
v -6320 -320 0
v -6240 -320 0
v -6400 -400 0
v -6400 -320 0
v -6480 -400 0
v -6480 -320 0
v -6960 -400 0
v -7040 -400 0
v -7040 -320 0
v -6960 -320 0
v -7120 -400 0
v -7120 -320 0
v -7200 -400 0
v -7200 -320 0
v -7280 -400 0
v -7360 -400 0
v -7360 -320 0
v -7280 -320 0
v -7440 -400 0
v -7520 -400 0
v -7600 -400 0
v -7680 -400 0
v -7760 -400 0
v -7840 -400 0
v -7840 -320 0
v -7920 -400 0
v -8000 -400 0
v -8080 -400 0
v -8160 -400 0
v -8240 -400 0
v -8320 -400 0
v -8400 -400 0
v -8400 -320 0
v -8480 -400 0
v -8560 -400 0
v -8640 -400 0
v -8720 -400 0
v -8800 -400 0
v -8880 -400 0
v -8960 -400 0
v -9040 -400 0
v -9120 -400 0
v -9200 -400 0
v -9280 -400 0
v -9360 -400 0
v -9440 -400 0
v -9520 -400 0
v -9520 -320 0
v -9600 -400 0
v -9600 -320 0
v 0 -480 0
v -80 -480 0
v 0 -400 0
v -160 -480 0
v -240 -480 0
v -320 -480 0
v -400 -480 0
v -400 -400 0
v -320 -400 0
v -480 -480 0
v -560 -480 0
v -560 -400 0
v -480 -400 0
v -640 -480 0
v -720 -480 0
v -880 -480 0
v -960 -480 0
v -960 -400 0
v -880 -400 0
v -1040 -480 0
v -1120 -480 0
v -1120 -400 0
v -1040 -400 0
v -1200 -480 0
v -1200 -400 0
v -1280 -480 0
v -1280 -400 0
v -1440 -480 0
v -1520 -480 0
v -1520 -400 0
v -1440 -400 0
v -1600 -480 0
v -1600 -400 0
v -1680 -480 0
v -1680 -400 0
v -1840 -480 0
v -1920 -480 0
v -1920 -400 0
v -1840 -400 0
v -2000 -480 0
v -2000 -400 0
v -2080 -480 0
v -2080 -400 0
v -2160 -480 0
v -2160 -400 0
v -2320 -480 0
v -2400 -480 0
v -2400 -400 0
v -2320 -400 0
v -2480 -480 0
v -2480 -400 0
v -2560 -480 0
v -2560 -400 0
v -2640 -480 0
v -2640 -400 0
v -3360 -480 0
v -3440 -480 0
v -3440 -400 0
v -3360 -400 0
v -3520 -480 0
v -3520 -400 0
v -3600 -480 0
v -3600 -400 0
v -3760 -480 0
v -3840 -480 0
v -3920 -480 0
v -3920 -400 0
v -4000 -480 0
v -4000 -400 0
v -4080 -480 0
v -4160 -480 0
v -4240 -480 0
v -4320 -480 0
v -4400 -480 0
v -4480 -480 0
v -4560 -480 0
v -4640 -480 0
v -4720 -480 0
v -4800 -480 0
v -4880 -480 0
v -4960 -480 0
v -5040 -480 0
v -5120 -480 0
v -5200 -480 0
v -5280 -480 0
v -5360 -480 0
v -5440 -480 0
v -5520 -480 0
v -5600 -480 0
v -5680 -480 0
v -5760 -480 0
v -5760 -400 0
v -5840 -480 0
v -5840 -400 0
v -5920 -480 0
v -6000 -480 0
v -6080 -480 0
v -6160 -480 0
v -6240 -480 0
v -6320 -480 0
v -6400 -480 0
v -6480 -480 0
v -6560 -480 0
v -6560 -400 0
v -6640 -480 0
v -6640 -400 0
v -6720 -480 0
v -6720 -400 0
v -6800 -480 0
v -6800 -400 0
v -6880 -480 0
v -6880 -400 0
v -6960 -480 0
v -7040 -480 0
v -7120 -480 0
v -7200 -480 0
v -7280 -480 0
v 0 -560 0
v -80 -560 0
v -160 -560 0
v -240 -560 0
v -320 -560 0
v -400 -560 0
v -480 -560 0
v -560 -560 0
v -640 -560 0
v -720 -560 0
v -800 -560 0
v -800 -480 0
v -880 -560 0
v -960 -560 0
v -1040 -560 0
v -1120 -560 0
v -1200 -560 0
v -1280 -560 0
v -1360 -560 0
v -1360 -480 0
v -1440 -560 0
v -1520 -560 0
v -1600 -560 0
v -1680 -560 0
v -1760 -560 0
v -1760 -480 0
v -1840 -560 0
v -1920 -560 0
v -2000 -560 0
v -2080 -560 0
v -2160 -560 0
v -2240 -560 0
v -2240 -480 0
v -2320 -560 0
v -2400 -560 0
v -2480 -560 0
v -2560 -560 0
v -2640 -560 0
v -2720 -560 0
v -2720 -480 0
v -2800 -560 0
v -2800 -480 0
v -2880 -560 0
v -2880 -480 0
v -2960 -560 0
v -2960 -480 0
v -3040 -560 0
v -3040 -480 0
v -3120 -560 0
v -3120 -480 0
v -3200 -560 0
v -3200 -480 0
v -3280 -560 0
v -3280 -480 0
v -3360 -560 0
v -3440 -560 0
v -3520 -560 0
v -3600 -560 0
v -3680 -560 0
v -3680 -480 0
v -3760 -560 0

# Texture cooridinates (Count = 64)
vt 0.5001221 0.2501221
vt 0.6248779 0.2501221
vt 0.6248779 0.4998779
vt 0.5001221 0.4998779
vt 0.6251221 0.2501221
vt 0.7498779 0.2501221
vt 0.7498779 0.4998779
vt 0.6251221 0.4998779
vt 0.2501221 0.7501221
vt 0.3748779 0.7501221
vt 0.3748779 0.9998779
vt 0.2501221 0.9998779
vt 0.3751221 0.7501221
vt 0.4998779 0.7501221
vt 0.4998779 0.9998779
vt 0.3751221 0.9998779
vt 0.5001221 0.0001220703
vt 0.6248779 0.0001220703
vt 0.6248779 0.2498779
vt 0.5001221 0.2498779
vt 0.5001221 0.7501221
vt 0.6248779 0.7501221
vt 0.6248779 0.9998779
vt 0.5001221 0.9998779
vt 0.7501221 0.7501221
vt 0.8748779 0.7501221
vt 0.8748779 0.9998779
vt 0.7501221 0.9998779
vt 0.6251221 0.7501221
vt 0.7498779 0.7501221
vt 0.7498779 0.9998779
vt 0.6251221 0.9998779
vt 0.2501221 0.2501221
vt 0.3748779 0.2501221
vt 0.3748779 0.4998779
vt 0.2501221 0.4998779
vt 0.3751221 0.2501221
vt 0.4998779 0.2501221
vt 0.4998779 0.4998779
vt 0.3751221 0.4998779
vt 0.6251221 0.0001220703
vt 0.7498779 0.0001220703
vt 0.7498779 0.2498779
vt 0.6251221 0.2498779
vt 0.1251221 0.7501221
vt 0.2498779 0.7501221
vt 0.2498779 0.9998779
vt 0.1251221 0.9998779
vt 0.0001220703 0.7501221
vt 0.1248779 0.7501221
vt 0.1248779 0.9998779
vt 0.0001220703 0.9998779
vt 0.2501221 0.0001220703
vt 0.3748779 0.0001220703
vt 0.3748779 0.2498779
vt 0.2501221 0.2498779
vt 0.3751221 0.0001220703
vt 0.4998779 0.0001220703
vt 0.4998779 0.2498779
vt 0.3751221 0.2498779
vt 0.2501221 0.5001221
vt 0.3748779 0.5001221
vt 0.3748779 0.7498779
vt 0.2501221 0.7498779

# Normal
vn 0 0 -1

# Groups (Count = 1)

g mesh_0001
f 1/1/1 2/2/1 3/3/1 4/4/1
f 5/1/1 6/2/1 7/3/1 8/4/1
f 9/5/1 10/6/1 11/7/1 12/8/1
f 13/9/1 14/10/1 15/11/1 16/12/1
f 14/9/1 17/10/1 18/11/1 15/12/1
f 17/9/1 19/10/1 20/11/1 18/12/1
f 19/9/1 21/10/1 22/11/1 20/12/1
f 23/13/1 24/14/1 25/15/1 26/16/1
f 24/13/1 27/14/1 28/15/1 25/16/1
f 27/13/1 29/14/1 30/15/1 28/16/1
f 31/17/1 32/18/1 2/19/1 1/20/1
f 33/21/1 34/22/1 35/23/1 36/24/1
f 34/21/1 37/22/1 38/23/1 35/24/1
f 39/9/1 40/10/1 41/11/1 42/12/1
f 43/25/1 44/26/1 45/27/1 46/28/1
f 44/25/1 47/26/1 48/27/1 45/28/1
f 49/9/1 50/10/1 51/11/1 52/12/1
f 50/9/1 53/10/1 54/11/1 51/12/1
f 55/29/1 56/30/1 57/31/1 58/32/1
f 59/33/1 60/34/1 61/35/1 62/36/1
f 60/37/1 63/38/1 64/39/1 61/40/1
f 65/5/1 66/6/1 67/7/1 68/8/1
f 69/17/1 70/18/1 6/19/1 5/20/1
f 71/13/1 72/14/1 73/15/1 74/16/1
f 72/13/1 75/14/1 76/15/1 73/16/1
f 77/9/1 78/10/1 79/11/1 80/12/1
f 81/29/1 82/30/1 83/31/1 84/32/1
f 85/9/1 86/10/1 87/11/1 88/12/1
f 89/21/1 90/22/1 91/23/1 92/24/1
f 90/21/1 93/22/1 94/23/1 91/24/1
f 95/9/1 96/10/1 97/11/1 98/12/1
f 96/9/1 99/10/1 100/11/1 97/12/1
f 101/13/1 102/14/1 103/15/1 104/16/1
f 102/29/1 105/30/1 106/31/1 103/32/1
f 105/13/1 107/14/1 108/15/1 106/16/1
f 109/41/1 110/42/1 10/43/1 9/44/1
f 111/21/1 112/22/1 113/23/1 114/24/1
f 112/21/1 115/22/1 116/23/1 113/24/1
f 115/21/1 117/22/1 118/23/1 116/24/1
f 119/9/1 120/10/1 121/11/1 122/12/1
f 120/9/1 123/10/1 124/11/1 121/12/1
f 123/9/1 125/10/1 126/11/1 124/12/1
f 127/9/1 128/10/1 129/11/1 130/12/1
f 128/9/1 131/10/1 132/11/1 129/12/1
f 131/9/1 133/10/1 134/11/1 132/12/1
f 135/45/1 136/46/1 137/47/1 138/48/1
f 136/45/1 139/46/1 13/47/1 137/48/1
f 139/45/1 140/46/1 14/47/1 13/48/1
f 140/45/1 141/46/1 17/47/1 14/48/1
f 141/45/1 142/46/1 19/47/1 17/48/1
f 142/45/1 143/46/1 21/47/1 19/48/1
f 143/45/1 144/46/1 145/47/1 21/48/1
f 144/45/1 146/46/1 23/47/1 145/48/1
f 146/45/1 147/46/1 24/47/1 23/48/1
f 147/45/1 148/46/1 27/47/1 24/48/1
f 148/45/1 149/46/1 29/47/1 27/48/1
f 149/45/1 150/46/1 31/47/1 29/48/1
f 150/45/1 151/46/1 32/47/1 31/48/1
f 151/45/1 152/46/1 153/47/1 32/48/1
f 152/45/1 154/46/1 33/47/1 153/48/1
f 154/45/1 155/46/1 34/47/1 33/48/1
f 155/45/1 156/46/1 37/47/1 34/48/1
f 156/45/1 157/46/1 39/47/1 37/48/1
f 157/45/1 158/46/1 40/47/1 39/48/1
f 158/45/1 159/46/1 43/47/1 40/48/1
f 159/45/1 160/46/1 44/47/1 43/48/1
f 160/45/1 161/46/1 47/47/1 44/48/1
f 161/45/1 162/46/1 49/47/1 47/48/1
f 162/45/1 163/46/1 50/47/1 49/48/1
f 163/45/1 164/46/1 53/47/1 50/48/1
f 164/45/1 165/46/1 55/47/1 53/48/1
f 165/45/1 166/46/1 56/47/1 55/48/1
f 166/45/1 167/46/1 168/47/1 56/48/1
f 167/45/1 169/46/1 170/47/1 168/48/1
f 171/49/1 172/50/1 59/51/1 173/52/1
f 172/53/1 174/54/1 60/55/1 59/56/1
f 174/57/1 175/58/1 63/59/1 60/60/1
f 176/9/1 177/10/1 178/11/1 179/12/1
f 180/29/1 181/30/1 182/31/1 183/32/1
f 181/29/1 184/30/1 65/31/1 182/32/1
f 184/41/1 185/42/1 66/43/1 65/44/1
f 186/9/1 187/10/1 188/11/1 189/12/1
f 190/25/1 191/26/1 192/27/1 193/28/1
f 191/25/1 194/26/1 195/27/1 192/28/1
f 194/25/1 196/26/1 197/27/1 195/28/1
f 198/9/1 199/10/1 200/11/1 201/12/1
f 199/9/1 202/10/1 203/11/1 200/12/1
f 202/9/1 204/10/1 205/11/1 203/12/1
f 206/29/1 207/30/1 208/31/1 209/32/1
f 207/29/1 210/30/1 211/31/1 208/32/1
f 210/29/1 212/30/1 213/31/1 211/32/1
f 212/29/1 214/30/1 215/31/1 213/32/1
f 216/9/1 217/10/1 218/11/1 219/12/1
f 217/9/1 220/10/1 221/11/1 218/12/1
f 220/9/1 222/10/1 223/11/1 221/12/1
f 222/9/1 224/10/1 225/11/1 223/12/1
f 226/9/1 227/10/1 228/11/1 229/12/1
f 227/9/1 230/10/1 231/11/1 228/12/1
f 230/9/1 232/10/1 233/11/1 231/12/1
f 234/45/1 235/46/1 70/47/1 69/48/1
f 235/45/1 236/46/1 237/47/1 70/48/1
f 236/45/1 238/46/1 239/47/1 237/48/1
f 238/45/1 240/46/1 71/47/1 239/48/1
f 240/45/1 241/46/1 72/47/1 71/48/1
f 241/45/1 242/46/1 75/47/1 72/48/1
f 242/45/1 243/46/1 77/47/1 75/48/1
f 243/45/1 244/46/1 78/47/1 77/48/1
f 244/45/1 245/46/1 81/47/1 78/48/1
f 245/45/1 246/46/1 82/47/1 81/48/1
f 246/45/1 247/46/1 85/47/1 82/48/1
f 247/45/1 248/46/1 86/47/1 85/48/1
f 248/45/1 249/46/1 89/47/1 86/48/1
f 249/45/1 250/46/1 90/47/1 89/48/1
f 250/45/1 251/46/1 93/47/1 90/48/1
f 251/45/1 252/46/1 95/47/1 93/48/1
f 252/45/1 253/46/1 96/47/1 95/48/1
f 253/45/1 254/46/1 99/47/1 96/48/1
f 254/45/1 255/46/1 101/47/1 99/48/1
f 255/45/1 256/46/1 102/47/1 101/48/1
f 256/45/1 257/46/1 105/47/1 102/48/1
f 257/45/1 258/46/1 107/47/1 105/48/1
f 258/45/1 259/46/1 109/47/1 107/48/1
f 259/45/1 260/46/1 110/47/1 109/48/1
f 260/45/1 261/46/1 262/47/1 110/48/1
f 261/45/1 263/46/1 264/47/1 262/48/1
f 263/45/1 265/46/1 111/47/1 264/48/1
f 265/45/1 266/46/1 112/47/1 111/48/1
f 266/45/1 267/46/1 115/47/1 112/48/1
f 267/45/1 268/46/1 117/47/1 115/48/1
f 268/45/1 269/46/1 119/47/1 117/48/1
f 269/45/1 270/46/1 120/47/1 119/48/1
f 270/45/1 271/46/1 123/47/1 120/48/1
f 271/45/1 272/46/1 125/47/1 123/48/1
f 272/45/1 273/46/1 274/47/1 125/48/1
f 273/61/1 275/62/1 276/63/1 274/64/1
f 275/61/1 277/62/1 278/63/1 276/64/1
f 277/61/1 279/62/1 280/63/1 278/64/1
f 279/61/1 281/62/1 282/63/1 280/64/1
f 281/45/1 283/46/1 127/47/1 282/48/1
f 283/45/1 284/46/1 128/47/1 127/48/1
f 284/45/1 285/46/1 131/47/1 128/48/1
f 285/45/1 286/46/1 133/47/1 131/48/1
f 286/45/1 287/46/1 135/47/1 133/48/1
f 288/45/1 289/46/1 172/47/1 171/48/1
f 289/45/1 290/46/1 174/47/1 172/48/1
f 290/45/1 291/46/1 175/47/1 174/48/1
f 291/45/1 292/46/1 176/47/1 175/48/1
f 292/45/1 293/46/1 177/47/1 176/48/1
f 293/45/1 294/46/1 180/47/1 177/48/1
f 294/45/1 295/46/1 181/47/1 180/48/1
f 295/45/1 296/46/1 184/47/1 181/48/1
f 296/45/1 297/46/1 185/47/1 184/48/1
f 297/45/1 298/46/1 299/47/1 185/48/1
f 298/45/1 300/46/1 186/47/1 299/48/1
f 300/45/1 301/46/1 187/47/1 186/48/1
f 301/45/1 302/46/1 190/47/1 187/48/1
f 302/45/1 303/46/1 191/47/1 190/48/1
f 303/45/1 304/46/1 194/47/1 191/48/1
f 304/45/1 305/46/1 196/47/1 194/48/1
f 305/45/1 306/46/1 307/47/1 196/48/1
f 306/45/1 308/46/1 198/47/1 307/48/1
f 308/45/1 309/46/1 199/47/1 198/48/1
f 309/45/1 310/46/1 202/47/1 199/48/1
f 310/45/1 311/46/1 204/47/1 202/48/1
f 311/45/1 312/46/1 313/47/1 204/48/1
f 312/45/1 314/46/1 206/47/1 313/48/1
f 314/45/1 315/46/1 207/47/1 206/48/1
f 315/45/1 316/46/1 210/47/1 207/48/1
f 316/45/1 317/46/1 212/47/1 210/48/1
f 317/45/1 318/46/1 214/47/1 212/48/1
f 318/45/1 319/46/1 320/47/1 214/48/1
f 319/45/1 321/46/1 216/47/1 320/48/1
f 321/45/1 322/46/1 217/47/1 216/48/1
f 322/45/1 323/46/1 220/47/1 217/48/1
f 323/45/1 324/46/1 222/47/1 220/48/1
f 324/45/1 325/46/1 224/47/1 222/48/1
f 325/45/1 326/46/1 327/47/1 224/48/1
f 326/45/1 328/46/1 329/47/1 327/48/1
f 328/61/1 330/62/1 331/63/1 329/64/1
f 330/61/1 332/62/1 333/63/1 331/64/1
f 332/61/1 334/62/1 335/63/1 333/64/1
f 334/61/1 336/62/1 337/63/1 335/64/1
f 336/61/1 338/62/1 339/63/1 337/64/1
f 338/45/1 340/46/1 341/47/1 339/48/1
f 340/45/1 342/46/1 226/47/1 341/48/1
f 342/45/1 343/46/1 227/47/1 226/48/1
f 343/45/1 344/46/1 230/47/1 227/48/1
f 344/45/1 345/46/1 232/47/1 230/48/1
f 345/45/1 346/46/1 347/47/1 232/48/1
f 346/45/1 348/46/1 234/47/1 347/48/1

