# Wavefront OBJ file automatically generated by Tiled2Unity

# Vertices (Count = 360)
v -80 -240 0
v -160 -240 0
v -160 -160 0
v -80 -160 0
v -240 -240 0
v -240 -160 0
v -560 -240 0
v -640 -240 0
v -640 -160 0
v -560 -160 0
v 0 -320 0
v -80 -320 0
v 0 -240 0
v -160 -320 0
v -240 -320 0
v -320 -320 0
v -400 -320 0
v -400 -240 0
v -320 -240 0
v -480 -320 0
v -480 -240 0
v -560 -320 0
v -640 -320 0
v -800 -320 0
v -880 -320 0
v -880 -240 0
v -800 -240 0
v -960 -320 0
v -960 -240 0
v -1040 -320 0
v -1040 -240 0
v -1760 -320 0
v -1840 -320 0
v -1840 -240 0
v -1760 -240 0
v -1920 -320 0
v -1920 -240 0
v -2000 -320 0
v -2000 -240 0
v -2080 -320 0
v -2080 -240 0
v -2160 -320 0
v -2160 -240 0
v -2240 -320 0
v -2240 -240 0
v -2320 -320 0
v -2320 -240 0
v -2400 -320 0
v -2480 -320 0
v -2480 -240 0
v -2400 -240 0
v -2560 -320 0
v -2560 -240 0
v -2640 -320 0
v -2640 -240 0
v -2720 -320 0
v -2720 -240 0
v -2800 -320 0
v -2800 -240 0
v -2880 -320 0
v -2960 -320 0
v -2960 -240 0
v -2880 -240 0
v -3040 -320 0
v -3040 -240 0
v -3120 -320 0
v -3120 -240 0
v -3200 -320 0
v -3200 -240 0
v -3280 -320 0
v -3280 -240 0
v -3360 -320 0
v -3360 -240 0
v -3440 -320 0
v -3440 -240 0
v -3520 -320 0
v -3520 -240 0
v -3600 -320 0
v -3600 -240 0
v -3680 -320 0
v -3680 -240 0
v -4320 -320 0
v -4400 -320 0
v -4400 -240 0
v -4320 -240 0
v -4480 -320 0
v -4480 -240 0
v -4560 -320 0
v -4560 -240 0
v -5120 -320 0
v -5200 -320 0
v -5200 -240 0
v -5120 -240 0
v -5280 -320 0
v -5280 -240 0
v -5360 -320 0
v -5360 -240 0
v -5920 -320 0
v -6000 -320 0
v -6000 -240 0
v -5920 -240 0
v -6080 -320 0
v -6080 -240 0
v -6160 -320 0
v -6160 -240 0
v -6240 -320 0
v -6240 -240 0
v -6320 -320 0
v -6320 -240 0
v -6400 -320 0
v -6400 -240 0
v -6480 -320 0
v -6560 -320 0
v -6560 -240 0
v -6480 -240 0
v -6640 -320 0
v -6640 -240 0
v -6720 -320 0
v -6720 -240 0
v -6800 -320 0
v -6800 -240 0
v -6880 -320 0
v -6880 -240 0
v -6960 -320 0
v -7040 -320 0
v -7040 -240 0
v -6960 -240 0
v -7120 -320 0
v -7120 -240 0
v -7200 -320 0
v -7200 -240 0
v -7280 -320 0
v -7280 -240 0
v -7360 -320 0
v -7360 -240 0
v -7440 -320 0
v -7440 -240 0
v -7520 -320 0
v -7520 -240 0
v -7600 -320 0
v -7600 -240 0
v -7680 -320 0
v -7680 -240 0
v -7760 -320 0
v -7760 -240 0
v -7840 -320 0
v -7840 -240 0
v -8000 -320 0
v -8080 -320 0
v -8080 -240 0
v -8000 -240 0
v -8160 -320 0
v -8160 -240 0
v -8240 -320 0
v -8240 -240 0
v -8320 -320 0
v -8400 -320 0
v -8400 -240 0
v -8320 -240 0
v -8480 -320 0
v -8480 -240 0
v -8560 -320 0
v -8560 -240 0
v -8640 -320 0
v -8640 -240 0
v -8720 -320 0
v -8720 -240 0
v -8800 -320 0
v -8880 -320 0
v -8880 -240 0
v -8800 -240 0
v -8960 -320 0
v -8960 -240 0
v -9040 -320 0
v -9040 -240 0
v -9120 -320 0
v -9200 -320 0
v -9200 -240 0
v -9120 -240 0
v -9280 -320 0
v -9280 -240 0
v -9360 -320 0
v -9360 -240 0
v -9440 -320 0
v -9440 -240 0
v -9520 -320 0
v -9520 -240 0
v -9600 -320 0
v -9600 -240 0
v -9680 -320 0
v -9760 -320 0
v -9760 -240 0
v -9680 -240 0
v -9840 -320 0
v -9840 -240 0
v -9920 -320 0
v -9920 -240 0
v -10000 -320 0
v -10000 -240 0
v -10080 -320 0
v -10080 -240 0
v -10160 -320 0
v -10240 -320 0
v -10240 -240 0
v -10160 -240 0
v -10320 -320 0
v -10320 -240 0
v -10400 -320 0
v -10400 -240 0
v -10480 -320 0
v -10480 -240 0
v -10560 -320 0
v -10560 -240 0
v -10640 -320 0
v -10640 -240 0
v -10720 -320 0
v -10720 -240 0
v -10800 -320 0
v -10800 -240 0
v 0 -400 0
v -80 -400 0
v -160 -400 0
v -240 -400 0
v -320 -400 0
v -400 -400 0
v -480 -400 0
v -560 -400 0
v -640 -400 0
v -720 -400 0
v -720 -320 0
v -800 -400 0
v -880 -400 0
v -960 -400 0
v -1040 -400 0
v -1120 -400 0
v -1120 -320 0
v -1200 -400 0
v -1200 -320 0
v -1280 -400 0
v -1280 -320 0
v -1360 -400 0
v -1360 -320 0
v -1440 -400 0
v -1440 -320 0
v -1520 -400 0
v -1520 -320 0
v -1600 -400 0
v -1600 -320 0
v -1680 -400 0
v -1680 -320 0
v -1760 -400 0
v -1840 -400 0
v -1920 -400 0
v -2000 -400 0
v -2080 -400 0
v -2160 -400 0
v -2240 -400 0
v -2320 -400 0
v -2400 -400 0
v -2480 -400 0
v -2560 -400 0
v -2640 -400 0
v -2720 -400 0
v -2800 -400 0
v -2880 -400 0
v -2960 -400 0
v -3040 -400 0
v -3120 -400 0
v -3200 -400 0
v -3280 -400 0
v -3360 -400 0
v -3440 -400 0
v -3520 -400 0
v -3600 -400 0
v -3680 -400 0
v -3760 -400 0
v -3760 -320 0
v -3840 -400 0
v -3840 -320 0
v -4240 -400 0
v -4320 -400 0
v -4240 -320 0
v -4400 -400 0
v -4480 -400 0
v -4560 -400 0
v -4640 -400 0
v -4640 -320 0
v -5040 -400 0
v -5120 -400 0
v -5040 -320 0
v -5200 -400 0
v -5280 -400 0
v -5360 -400 0
v -5440 -400 0
v -5440 -320 0
v -5840 -400 0
v -5920 -400 0
v -5840 -320 0
v -6000 -400 0
v -6080 -400 0
v -6160 -400 0
v -6240 -400 0
v -6320 -400 0
v -6400 -400 0
v -6480 -400 0
v -6560 -400 0
v -6640 -400 0
v -6720 -400 0
v -6800 -400 0
v -6880 -400 0
v -6960 -400 0
v -7040 -400 0
v -7120 -400 0
v -7200 -400 0
v -7280 -400 0
v -7360 -400 0
v -7440 -400 0
v -7520 -400 0
v -7600 -400 0
v -7680 -400 0
v -7760 -400 0
v -7840 -400 0
v -7920 -400 0
v -7920 -320 0
v -8000 -400 0
v -8080 -400 0
v -8160 -400 0
v -8240 -400 0
v -8320 -400 0
v -8400 -400 0
v -8480 -400 0
v -8560 -400 0
v -8640 -400 0
v -8720 -400 0
v -8800 -400 0
v -8880 -400 0
v -8960 -400 0
v -9040 -400 0
v -9120 -400 0
v -9200 -400 0
v -9280 -400 0
v -9360 -400 0
v -9440 -400 0
v -9520 -400 0
v -9600 -400 0
v -9680 -400 0
v -9760 -400 0
v -9840 -400 0
v -9920 -400 0
v -10000 -400 0
v -10080 -400 0
v -10160 -400 0
v -10240 -400 0
v -10320 -400 0
v -10400 -400 0
v -10480 -400 0
v -10560 -400 0
v -10640 -400 0
v -10720 -400 0
v -10800 -400 0

# Texture cooridinates (Count = 52)
vt 0.2501221 0.2501221
vt 0.3748779 0.2501221
vt 0.3748779 0.4998779
vt 0.2501221 0.4998779
vt 0.3751221 0.2501221
vt 0.4998779 0.2501221
vt 0.4998779 0.4998779
vt 0.3751221 0.4998779
vt 0.6251221 0.2501221
vt 0.7498779 0.2501221
vt 0.7498779 0.4998779
vt 0.6251221 0.4998779
vt 0.0001220703 0.7501221
vt 0.1248779 0.7501221
vt 0.1248779 0.9998779
vt 0.0001220703 0.9998779
vt 0.2501221 0.0001220703
vt 0.3748779 0.0001220703
vt 0.3748779 0.2498779
vt 0.2501221 0.2498779
vt 0.3751221 0.0001220703
vt 0.4998779 0.0001220703
vt 0.4998779 0.2498779
vt 0.3751221 0.2498779
vt 0.2501221 0.7501221
vt 0.3748779 0.7501221
vt 0.3748779 0.9998779
vt 0.2501221 0.9998779
vt 0.6251221 0.0001220703
vt 0.7498779 0.0001220703
vt 0.7498779 0.2498779
vt 0.6251221 0.2498779
vt 0.6251221 0.7501221
vt 0.7498779 0.7501221
vt 0.7498779 0.9998779
vt 0.6251221 0.9998779
vt 0.7501221 0.7501221
vt 0.8748779 0.7501221
vt 0.8748779 0.9998779
vt 0.7501221 0.9998779
vt 0.5001221 0.7501221
vt 0.6248779 0.7501221
vt 0.6248779 0.9998779
vt 0.5001221 0.9998779
vt 0.1251221 0.7501221
vt 0.2498779 0.7501221
vt 0.2498779 0.9998779
vt 0.1251221 0.9998779
vt 0.2501221 0.5001221
vt 0.3748779 0.5001221
vt 0.3748779 0.7498779
vt 0.2501221 0.7498779

# Normal
vn 0 0 -1

# Groups (Count = 1)

g mesh_0001
f 1/1/1 2/2/1 3/3/1 4/4/1
f 2/5/1 5/6/1 6/7/1 3/8/1
f 7/9/1 8/10/1 9/11/1 10/12/1
f 11/13/1 12/14/1 1/15/1 13/16/1
f 12/17/1 14/18/1 2/19/1 1/20/1
f 14/21/1 15/22/1 5/23/1 2/24/1
f 16/25/1 17/26/1 18/27/1 19/28/1
f 17/25/1 20/26/1 21/27/1 18/28/1
f 22/29/1 23/30/1 8/31/1 7/32/1
f 24/25/1 25/26/1 26/27/1 27/28/1
f 25/25/1 28/26/1 29/27/1 26/28/1
f 28/25/1 30/26/1 31/27/1 29/28/1
f 32/25/1 33/26/1 34/27/1 35/28/1
f 33/25/1 36/26/1 37/27/1 34/28/1
f 36/25/1 38/26/1 39/27/1 37/28/1
f 38/25/1 40/26/1 41/27/1 39/28/1
f 40/25/1 42/26/1 43/27/1 41/28/1
f 42/25/1 44/26/1 45/27/1 43/28/1
f 44/25/1 46/26/1 47/27/1 45/28/1
f 48/33/1 49/34/1 50/35/1 51/36/1
f 49/33/1 52/34/1 53/35/1 50/36/1
f 52/33/1 54/34/1 55/35/1 53/36/1
f 54/33/1 56/34/1 57/35/1 55/36/1
f 56/33/1 58/34/1 59/35/1 57/36/1
f 60/25/1 61/26/1 62/27/1 63/28/1
f 61/25/1 64/26/1 65/27/1 62/28/1
f 64/25/1 66/26/1 67/27/1 65/28/1
f 66/25/1 68/26/1 69/27/1 67/28/1
f 68/25/1 70/26/1 71/27/1 69/28/1
f 70/25/1 72/26/1 73/27/1 71/28/1
f 72/25/1 74/26/1 75/27/1 73/28/1
f 74/25/1 76/26/1 77/27/1 75/28/1
f 76/25/1 78/26/1 79/27/1 77/28/1
f 78/25/1 80/26/1 81/27/1 79/28/1
f 82/25/1 83/26/1 84/27/1 85/28/1
f 83/25/1 86/26/1 87/27/1 84/28/1
f 86/25/1 88/26/1 89/27/1 87/28/1
f 90/25/1 91/26/1 92/27/1 93/28/1
f 91/25/1 94/26/1 95/27/1 92/28/1
f 94/25/1 96/26/1 97/27/1 95/28/1
f 98/25/1 99/26/1 100/27/1 101/28/1
f 99/25/1 102/26/1 103/27/1 100/28/1
f 102/25/1 104/26/1 105/27/1 103/28/1
f 104/25/1 106/26/1 107/27/1 105/28/1
f 106/25/1 108/26/1 109/27/1 107/28/1
f 108/25/1 110/26/1 111/27/1 109/28/1
f 112/37/1 113/38/1 114/39/1 115/40/1
f 113/37/1 116/38/1 117/39/1 114/40/1
f 116/37/1 118/38/1 119/39/1 117/40/1
f 118/37/1 120/38/1 121/39/1 119/40/1
f 120/37/1 122/38/1 123/39/1 121/40/1
f 124/25/1 125/26/1 126/27/1 127/28/1
f 125/25/1 128/26/1 129/27/1 126/28/1
f 128/25/1 130/26/1 131/27/1 129/28/1
f 130/25/1 132/26/1 133/27/1 131/28/1
f 132/25/1 134/26/1 135/27/1 133/28/1
f 134/25/1 136/26/1 137/27/1 135/28/1
f 136/25/1 138/26/1 139/27/1 137/28/1
f 138/25/1 140/26/1 141/27/1 139/28/1
f 140/25/1 142/26/1 143/27/1 141/28/1
f 142/25/1 144/26/1 145/27/1 143/28/1
f 144/25/1 146/26/1 147/27/1 145/28/1
f 148/33/1 149/34/1 150/35/1 151/36/1
f 149/33/1 152/34/1 153/35/1 150/36/1
f 152/33/1 154/34/1 155/35/1 153/36/1
f 156/25/1 157/26/1 158/27/1 159/28/1
f 157/25/1 160/26/1 161/27/1 158/28/1
f 160/25/1 162/26/1 163/27/1 161/28/1
f 162/25/1 164/26/1 165/27/1 163/28/1
f 164/25/1 166/26/1 167/27/1 165/28/1
f 168/41/1 169/42/1 170/43/1 171/44/1
f 169/41/1 172/42/1 173/43/1 170/44/1
f 172/41/1 174/42/1 175/43/1 173/44/1
f 176/25/1 177/26/1 178/27/1 179/28/1
f 177/25/1 180/26/1 181/27/1 178/28/1
f 180/25/1 182/26/1 183/27/1 181/28/1
f 182/25/1 184/26/1 185/27/1 183/28/1
f 184/25/1 186/26/1 187/27/1 185/28/1
f 186/25/1 188/26/1 189/27/1 187/28/1
f 190/41/1 191/42/1 192/43/1 193/44/1
f 191/33/1 194/34/1 195/35/1 192/36/1
f 194/41/1 196/42/1 197/43/1 195/44/1
f 196/33/1 198/34/1 199/35/1 197/36/1
f 198/41/1 200/42/1 201/43/1 199/44/1
f 202/25/1 203/26/1 204/27/1 205/28/1
f 203/25/1 206/26/1 207/27/1 204/28/1
f 206/25/1 208/26/1 209/27/1 207/28/1
f 208/25/1 210/26/1 211/27/1 209/28/1
f 210/25/1 212/26/1 213/27/1 211/28/1
f 212/25/1 214/26/1 215/27/1 213/28/1
f 214/25/1 216/26/1 217/27/1 215/28/1
f 216/25/1 218/26/1 219/27/1 217/28/1
f 220/45/1 221/46/1 12/47/1 11/48/1
f 221/45/1 222/46/1 14/47/1 12/48/1
f 222/45/1 223/46/1 15/47/1 14/48/1
f 223/45/1 224/46/1 16/47/1 15/48/1
f 224/45/1 225/46/1 17/47/1 16/48/1
f 225/45/1 226/46/1 20/47/1 17/48/1
f 226/45/1 227/46/1 22/47/1 20/48/1
f 227/45/1 228/46/1 23/47/1 22/48/1
f 228/45/1 229/46/1 230/47/1 23/48/1
f 229/45/1 231/46/1 24/47/1 230/48/1
f 231/45/1 232/46/1 25/47/1 24/48/1
f 232/45/1 233/46/1 28/47/1 25/48/1
f 233/45/1 234/46/1 30/47/1 28/48/1
f 234/45/1 235/46/1 236/47/1 30/48/1
f 235/49/1 237/50/1 238/51/1 236/52/1
f 237/49/1 239/50/1 240/51/1 238/52/1
f 239/49/1 241/50/1 242/51/1 240/52/1
f 241/49/1 243/50/1 244/51/1 242/52/1
f 243/49/1 245/50/1 246/51/1 244/52/1
f 245/49/1 247/50/1 248/51/1 246/52/1
f 247/49/1 249/50/1 250/51/1 248/52/1
f 249/45/1 251/46/1 32/47/1 250/48/1
f 251/45/1 252/46/1 33/47/1 32/48/1
f 252/45/1 253/46/1 36/47/1 33/48/1
f 253/45/1 254/46/1 38/47/1 36/48/1
f 254/45/1 255/46/1 40/47/1 38/48/1
f 255/45/1 256/46/1 42/47/1 40/48/1
f 256/45/1 257/46/1 44/47/1 42/48/1
f 257/45/1 258/46/1 46/47/1 44/48/1
f 258/45/1 259/46/1 48/47/1 46/48/1
f 259/45/1 260/46/1 49/47/1 48/48/1
f 260/45/1 261/46/1 52/47/1 49/48/1
f 261/45/1 262/46/1 54/47/1 52/48/1
f 262/45/1 263/46/1 56/47/1 54/48/1
f 263/45/1 264/46/1 58/47/1 56/48/1
f 264/45/1 265/46/1 60/47/1 58/48/1
f 265/45/1 266/46/1 61/47/1 60/48/1
f 266/45/1 267/46/1 64/47/1 61/48/1
f 267/45/1 268/46/1 66/47/1 64/48/1
f 268/45/1 269/46/1 68/47/1 66/48/1
f 269/45/1 270/46/1 70/47/1 68/48/1
f 270/45/1 271/46/1 72/47/1 70/48/1
f 271/45/1 272/46/1 74/47/1 72/48/1
f 272/45/1 273/46/1 76/47/1 74/48/1
f 273/45/1 274/46/1 78/47/1 76/48/1
f 274/45/1 275/46/1 80/47/1 78/48/1
f 275/45/1 276/46/1 277/47/1 80/48/1
f 276/45/1 278/46/1 279/47/1 277/48/1
f 280/45/1 281/46/1 82/47/1 282/48/1
f 281/45/1 283/46/1 83/47/1 82/48/1
f 283/45/1 284/46/1 86/47/1 83/48/1
f 284/45/1 285/46/1 88/47/1 86/48/1
f 285/45/1 286/46/1 287/47/1 88/48/1
f 288/45/1 289/46/1 90/47/1 290/48/1
f 289/45/1 291/46/1 91/47/1 90/48/1
f 291/45/1 292/46/1 94/47/1 91/48/1
f 292/45/1 293/46/1 96/47/1 94/48/1
f 293/45/1 294/46/1 295/47/1 96/48/1
f 296/45/1 297/46/1 98/47/1 298/48/1
f 297/45/1 299/46/1 99/47/1 98/48/1
f 299/45/1 300/46/1 102/47/1 99/48/1
f 300/45/1 301/46/1 104/47/1 102/48/1
f 301/45/1 302/46/1 106/47/1 104/48/1
f 302/45/1 303/46/1 108/47/1 106/48/1
f 303/45/1 304/46/1 110/47/1 108/48/1
f 304/45/1 305/46/1 112/47/1 110/48/1
f 305/45/1 306/46/1 113/47/1 112/48/1
f 306/45/1 307/46/1 116/47/1 113/48/1
f 307/45/1 308/46/1 118/47/1 116/48/1
f 308/45/1 309/46/1 120/47/1 118/48/1
f 309/45/1 310/46/1 122/47/1 120/48/1
f 310/45/1 311/46/1 124/47/1 122/48/1
f 311/45/1 312/46/1 125/47/1 124/48/1
f 312/45/1 313/46/1 128/47/1 125/48/1
f 313/45/1 314/46/1 130/47/1 128/48/1
f 314/45/1 315/46/1 132/47/1 130/48/1
f 315/45/1 316/46/1 134/47/1 132/48/1
f 316/45/1 317/46/1 136/47/1 134/48/1
f 317/45/1 318/46/1 138/47/1 136/48/1
f 318/45/1 319/46/1 140/47/1 138/48/1
f 319/45/1 320/46/1 142/47/1 140/48/1
f 320/45/1 321/46/1 144/47/1 142/48/1
f 321/45/1 322/46/1 146/47/1 144/48/1
f 322/45/1 323/46/1 324/47/1 146/48/1
f 323/45/1 325/46/1 148/47/1 324/48/1
f 325/45/1 326/46/1 149/47/1 148/48/1
f 326/45/1 327/46/1 152/47/1 149/48/1
f 327/45/1 328/46/1 154/47/1 152/48/1
f 328/45/1 329/46/1 156/47/1 154/48/1
f 329/45/1 330/46/1 157/47/1 156/48/1
f 330/45/1 331/46/1 160/47/1 157/48/1
f 331/45/1 332/46/1 162/47/1 160/48/1
f 332/45/1 333/46/1 164/47/1 162/48/1
f 333/45/1 334/46/1 166/47/1 164/48/1
f 334/45/1 335/46/1 168/47/1 166/48/1
f 335/45/1 336/46/1 169/47/1 168/48/1
f 336/45/1 337/46/1 172/47/1 169/48/1
f 337/45/1 338/46/1 174/47/1 172/48/1
f 338/45/1 339/46/1 176/47/1 174/48/1
f 339/45/1 340/46/1 177/47/1 176/48/1
f 340/45/1 341/46/1 180/47/1 177/48/1
f 341/45/1 342/46/1 182/47/1 180/48/1
f 342/45/1 343/46/1 184/47/1 182/48/1
f 343/45/1 344/46/1 186/47/1 184/48/1
f 344/45/1 345/46/1 188/47/1 186/48/1
f 345/45/1 346/46/1 190/47/1 188/48/1
f 346/45/1 347/46/1 191/47/1 190/48/1
f 347/45/1 348/46/1 194/47/1 191/48/1
f 348/45/1 349/46/1 196/47/1 194/48/1
f 349/45/1 350/46/1 198/47/1 196/48/1
f 350/45/1 351/46/1 200/47/1 198/48/1
f 351/45/1 352/46/1 202/47/1 200/48/1
f 352/45/1 353/46/1 203/47/1 202/48/1
f 353/45/1 354/46/1 206/47/1 203/48/1
f 354/45/1 355/46/1 208/47/1 206/48/1
f 355/45/1 356/46/1 210/47/1 208/48/1
f 356/45/1 357/46/1 212/47/1 210/48/1
f 357/45/1 358/46/1 214/47/1 212/48/1
f 358/45/1 359/46/1 216/47/1 214/48/1
f 359/45/1 360/46/1 218/47/1 216/48/1

