# Wavefront OBJ file automatically generated by Tiled2Unity

# Vertices (Count = 361)
v -80 -240 0
v -160 -240 0
v -160 -160 0
v -80 -160 0
v -240 -240 0
v -240 -160 0
v 0 -320 0
v -80 -320 0
v 0 -240 0
v -160 -320 0
v -240 -320 0
v -400 -320 0
v -480 -320 0
v -480 -240 0
v -400 -240 0
v -560 -320 0
v -560 -240 0
v -640 -320 0
v -640 -240 0
v -720 -320 0
v -720 -240 0
v 0 -400 0
v -80 -400 0
v -160 -400 0
v -240 -400 0
v -320 -400 0
v -320 -320 0
v -400 -400 0
v -480 -400 0
v -560 -400 0
v -640 -400 0
v -720 -400 0
v -800 -400 0
v -800 -320 0
v -1200 -400 0
v -1280 -400 0
v -1280 -320 0
v -1200 -320 0
v -1360 -400 0
v -1360 -320 0
v -1440 -400 0
v -1520 -400 0
v -1520 -320 0
v -1440 -320 0
v -9440 -400 0
v -9520 -400 0
v -9520 -320 0
v -9440 -320 0
v -10080 -400 0
v -10160 -400 0
v -10160 -320 0
v -10080 -320 0
v -800 -480 0
v -880 -480 0
v -880 -400 0
v -960 -480 0
v -960 -400 0
v -1040 -480 0
v -1040 -400 0
v -1120 -480 0
v -1120 -400 0
v -1200 -480 0
v -1280 -480 0
v -1360 -480 0
v -1440 -480 0
v -1520 -480 0
v -1600 -480 0
v -1680 -480 0
v -1680 -400 0
v -1600 -400 0
v -1760 -480 0
v -1760 -400 0
v -2080 -480 0
v -2160 -480 0
v -2160 -400 0
v -2080 -400 0
v -2240 -480 0
v -2240 -400 0
v -9360 -480 0
v -9440 -480 0
v -9360 -400 0
v -9520 -480 0
v -9600 -480 0
v -9600 -400 0
v -10000 -480 0
v -10080 -480 0
v -10000 -400 0
v -10160 -480 0
v -10240 -480 0
v -10240 -400 0
v -1520 -560 0
v -1600 -560 0
v -1680 -560 0
v -1760 -560 0
v -1840 -560 0
v -1840 -480 0
v -1920 -560 0
v -1920 -480 0
v -2000 -560 0
v -2000 -480 0
v -2080 -560 0
v -2160 -560 0
v -2240 -560 0
v -2320 -560 0
v -2320 -480 0
v -2400 -560 0
v -2480 -560 0
v -2480 -480 0
v -2400 -480 0
v -2560 -560 0
v -2560 -480 0
v -2640 -560 0
v -2640 -480 0
v -2720 -560 0
v -2720 -480 0
v -2800 -560 0
v -2880 -560 0
v -2880 -480 0
v -2800 -480 0
v -2960 -560 0
v -2960 -480 0
v -9120 -560 0
v -9200 -560 0
v -9200 -480 0
v -9120 -480 0
v -9760 -560 0
v -9840 -560 0
v -9840 -480 0
v -9760 -480 0
v -10400 -560 0
v -10480 -560 0
v -10480 -480 0
v -10400 -480 0
v -10560 -560 0
v -10560 -480 0
v -10640 -560 0
v -10720 -560 0
v -10720 -480 0
v -10640 -480 0
v -10800 -560 0
v -10800 -480 0
v -2240 -640 0
v -2320 -640 0
v -2400 -640 0
v -2480 -640 0
v -2560 -640 0
v -2640 -640 0
v -2720 -640 0
v -2800 -640 0
v -2880 -640 0
v -2960 -640 0
v -3040 -640 0
v -3040 -560 0
v -3120 -640 0
v -3200 -640 0
v -3200 -560 0
v -3120 -560 0
v -3280 -640 0
v -3280 -560 0
v -3360 -640 0
v -3360 -560 0
v -3440 -640 0
v -3440 -560 0
v -3520 -640 0
v -3600 -640 0
v -3600 -560 0
v -3520 -560 0
v -3680 -640 0
v -3680 -560 0
v -3840 -640 0
v -3920 -640 0
v -3920 -560 0
v -3840 -560 0
v -4000 -640 0
v -4000 -560 0
v -4080 -640 0
v -4080 -560 0
v -4240 -640 0
v -4320 -640 0
v -4320 -560 0
v -4240 -560 0
v -4400 -640 0
v -4400 -560 0
v -4480 -640 0
v -4480 -560 0
v -4560 -640 0
v -4640 -640 0
v -4640 -560 0
v -4560 -560 0
v -7920 -640 0
v -8000 -640 0
v -8000 -560 0
v -7920 -560 0
v -8080 -640 0
v -8080 -560 0
v -8160 -640 0
v -8240 -640 0
v -8240 -560 0
v -8160 -560 0
v -8320 -640 0
v -8320 -560 0
v -8400 -640 0
v -8480 -640 0
v -8480 -560 0
v -8400 -560 0
v -8560 -640 0
v -8560 -560 0
v -9040 -640 0
v -9120 -640 0
v -9040 -560 0
v -9200 -640 0
v -9280 -640 0
v -9280 -560 0
v -9680 -640 0
v -9760 -640 0
v -9680 -560 0
v -9840 -640 0
v -9920 -640 0
v -9920 -560 0
v -10320 -640 0
v -10400 -640 0
v -10320 -560 0
v -10480 -640 0
v -10560 -640 0
v -10640 -640 0
v -10720 -640 0
v -10800 -640 0
v -3040 -720 0
v -3120 -720 0
v -3200 -720 0
v -3280 -720 0
v -3360 -720 0
v -3440 -720 0
v -3520 -720 0
v -3600 -720 0
v -3680 -720 0
v -3760 -720 0
v -3760 -640 0
v -3840 -720 0
v -3920 -720 0
v -4000 -720 0
v -4080 -720 0
v -4160 -720 0
v -4160 -640 0
v -4240 -720 0
v -4320 -720 0
v -4400 -720 0
v -4480 -720 0
v -4560 -720 0
v -4640 -720 0
v -4720 -720 0
v -4720 -640 0
v -4800 -720 0
v -4880 -720 0
v -4880 -640 0
v -4800 -640 0
v -4960 -720 0
v -4960 -640 0
v -5040 -720 0
v -5040 -640 0
v -5360 -720 0
v -5440 -720 0
v -5440 -640 0
v -5360 -640 0
v -5520 -720 0
v -5520 -640 0
v -5760 -720 0
v -5840 -720 0
v -5840 -640 0
v -5760 -640 0
v -5920 -720 0
v -5920 -640 0
v -6160 -720 0
v -6240 -720 0
v -6240 -640 0
v -6160 -640 0
v -6480 -720 0
v -6560 -720 0
v -6560 -640 0
v -6480 -640 0
v -6880 -720 0
v -6960 -720 0
v -6960 -640 0
v -6880 -640 0
v -7040 -720 0
v -7040 -640 0
v -7280 -720 0
v -7360 -720 0
v -7360 -640 0
v -7280 -640 0
v -7440 -720 0
v -7440 -640 0
v -7680 -720 0
v -7760 -720 0
v -7760 -640 0
v -7680 -640 0
v -7840 -720 0
v -7920 -720 0
v -7840 -640 0
v -8000 -720 0
v -8080 -720 0
v -8160 -720 0
v -8240 -720 0
v -8320 -720 0
v -8400 -720 0
v -8480 -720 0
v -8560 -720 0
v -8640 -720 0
v -8640 -640 0
v -8720 -720 0
v -8800 -720 0
v -8800 -640 0
v -8720 -640 0
v -8880 -720 0
v -8880 -640 0
v -4720 -800 0
v -4800 -800 0
v -4880 -800 0
v -4960 -800 0
v -5040 -800 0
v -5120 -800 0
v -5120 -720 0
v -5200 -800 0
v -5200 -720 0
v -5280 -800 0
v -5280 -720 0
v -5360 -800 0
v -5440 -800 0
v -5520 -800 0
v -5760 -800 0
v -5840 -800 0
v -5920 -800 0
v -6160 -800 0
v -6240 -800 0
v -6480 -800 0
v -6560 -800 0
v -6800 -800 0
v -6880 -800 0
v -6800 -720 0
v -6960 -800 0
v -7040 -800 0
v -7120 -800 0
v -7120 -720 0
v -7200 -800 0
v -7200 -720 0
v -7280 -800 0
v -7360 -800 0
v -7440 -800 0
v -7520 -800 0
v -7520 -720 0
v -7600 -800 0
v -7600 -720 0
v -7680 -800 0
v -7760 -800 0
v -7840 -800 0
v -8640 -800 0
v -8720 -800 0
v -8800 -800 0
v -8880 -800 0
v -8960 -800 0
v -8960 -720 0

# Texture cooridinates (Count = 48)
vt 0.2501221 0.2501221
vt 0.3748779 0.2501221
vt 0.3748779 0.4998779
vt 0.2501221 0.4998779
vt 0.3751221 0.2501221
vt 0.4998779 0.2501221
vt 0.4998779 0.4998779
vt 0.3751221 0.4998779
vt 0.0001220703 0.7501221
vt 0.1248779 0.7501221
vt 0.1248779 0.9998779
vt 0.0001220703 0.9998779
vt 0.2501221 0.0001220703
vt 0.3748779 0.0001220703
vt 0.3748779 0.2498779
vt 0.2501221 0.2498779
vt 0.3751221 0.0001220703
vt 0.4998779 0.0001220703
vt 0.4998779 0.2498779
vt 0.3751221 0.2498779
vt 0.2501221 0.7501221
vt 0.3748779 0.7501221
vt 0.3748779 0.9998779
vt 0.2501221 0.9998779
vt 0.1251221 0.7501221
vt 0.2498779 0.7501221
vt 0.2498779 0.9998779
vt 0.1251221 0.9998779
vt 0.3751221 0.7501221
vt 0.4998779 0.7501221
vt 0.4998779 0.9998779
vt 0.3751221 0.9998779
vt 0.2501221 0.5001221
vt 0.3748779 0.5001221
vt 0.3748779 0.7498779
vt 0.2501221 0.7498779
vt 0.6251221 0.7501221
vt 0.7498779 0.7501221
vt 0.7498779 0.9998779
vt 0.6251221 0.9998779
vt 0.7501221 0.7501221
vt 0.8748779 0.7501221
vt 0.8748779 0.9998779
vt 0.7501221 0.9998779
vt 0.5001221 0.7501221
vt 0.6248779 0.7501221
vt 0.6248779 0.9998779
vt 0.5001221 0.9998779

# Normal
vn 0 0 -1

# Groups (Count = 1)

g mesh_0001
f 1/1/1 2/2/1 3/3/1 4/4/1
f 2/5/1 5/6/1 6/7/1 3/8/1
f 7/9/1 8/10/1 1/11/1 9/12/1
f 8/13/1 10/14/1 2/15/1 1/16/1
f 10/17/1 11/18/1 5/19/1 2/20/1
f 12/21/1 13/22/1 14/23/1 15/24/1
f 13/21/1 16/22/1 17/23/1 14/24/1
f 16/21/1 18/22/1 19/23/1 17/24/1
f 18/21/1 20/22/1 21/23/1 19/24/1
f 22/25/1 23/26/1 8/27/1 7/28/1
f 23/25/1 24/26/1 10/27/1 8/28/1
f 24/25/1 25/26/1 11/27/1 10/28/1
f 25/25/1 26/26/1 27/27/1 11/28/1
f 26/25/1 28/26/1 12/27/1 27/28/1
f 28/25/1 29/26/1 13/27/1 12/28/1
f 29/25/1 30/26/1 16/27/1 13/28/1
f 30/25/1 31/26/1 18/27/1 16/28/1
f 31/25/1 32/26/1 20/27/1 18/28/1
f 32/25/1 33/26/1 34/27/1 20/28/1
f 35/21/1 36/22/1 37/23/1 38/24/1
f 36/21/1 39/22/1 40/23/1 37/24/1
f 41/29/1 42/30/1 43/31/1 44/32/1
f 45/21/1 46/22/1 47/23/1 48/24/1
f 49/21/1 50/22/1 51/23/1 52/24/1
f 53/33/1 54/34/1 55/35/1 33/36/1
f 54/33/1 56/34/1 57/35/1 55/36/1
f 56/33/1 58/34/1 59/35/1 57/36/1
f 58/33/1 60/34/1 61/35/1 59/36/1
f 60/25/1 62/26/1 35/27/1 61/28/1
f 62/25/1 63/26/1 36/27/1 35/28/1
f 63/25/1 64/26/1 39/27/1 36/28/1
f 64/25/1 65/26/1 41/27/1 39/28/1
f 65/25/1 66/26/1 42/27/1 41/28/1
f 67/21/1 68/22/1 69/23/1 70/24/1
f 68/21/1 71/22/1 72/23/1 69/24/1
f 73/21/1 74/22/1 75/23/1 76/24/1
f 74/21/1 77/22/1 78/23/1 75/24/1
f 79/25/1 80/26/1 45/27/1 81/28/1
f 80/25/1 82/26/1 46/27/1 45/28/1
f 82/25/1 83/26/1 84/27/1 46/28/1
f 85/25/1 86/26/1 49/27/1 87/28/1
f 86/25/1 88/26/1 50/27/1 49/28/1
f 88/25/1 89/26/1 90/27/1 50/28/1
f 91/25/1 92/26/1 67/27/1 66/28/1
f 92/25/1 93/26/1 68/27/1 67/28/1
f 93/25/1 94/26/1 71/27/1 68/28/1
f 94/25/1 95/26/1 96/27/1 71/28/1
f 95/33/1 97/34/1 98/35/1 96/36/1
f 97/33/1 99/34/1 100/35/1 98/36/1
f 99/33/1 101/34/1 73/35/1 100/36/1
f 101/25/1 102/26/1 74/27/1 73/28/1
f 102/25/1 103/26/1 77/27/1 74/28/1
f 103/37/1 104/38/1 105/39/1 77/40/1
f 106/21/1 107/22/1 108/23/1 109/24/1
f 107/21/1 110/22/1 111/23/1 108/24/1
f 110/21/1 112/22/1 113/23/1 111/24/1
f 112/21/1 114/22/1 115/23/1 113/24/1
f 116/41/1 117/42/1 118/43/1 119/44/1
f 117/41/1 120/42/1 121/43/1 118/44/1
f 122/21/1 123/22/1 124/23/1 125/24/1
f 126/21/1 127/22/1 128/23/1 129/24/1
f 130/21/1 131/22/1 132/23/1 133/24/1
f 131/21/1 134/22/1 135/23/1 132/24/1
f 136/37/1 137/38/1 138/39/1 139/40/1
f 137/37/1 140/38/1 141/39/1 138/40/1
f 142/25/1 143/26/1 104/27/1 103/28/1
f 143/25/1 144/26/1 106/27/1 104/28/1
f 144/25/1 145/26/1 107/27/1 106/28/1
f 145/25/1 146/26/1 110/27/1 107/28/1
f 146/25/1 147/26/1 112/27/1 110/28/1
f 147/25/1 148/26/1 114/27/1 112/28/1
f 148/25/1 149/26/1 116/27/1 114/28/1
f 149/25/1 150/26/1 117/27/1 116/28/1
f 150/25/1 151/26/1 120/27/1 117/28/1
f 151/25/1 152/26/1 153/27/1 120/28/1
f 154/21/1 155/22/1 156/23/1 157/24/1
f 155/21/1 158/22/1 159/23/1 156/24/1
f 158/21/1 160/22/1 161/23/1 159/24/1
f 160/21/1 162/22/1 163/23/1 161/24/1
f 164/37/1 165/38/1 166/39/1 167/40/1
f 165/37/1 168/38/1 169/39/1 166/40/1
f 170/21/1 171/22/1 172/23/1 173/24/1
f 171/21/1 174/22/1 175/23/1 172/24/1
f 174/21/1 176/22/1 177/23/1 175/24/1
f 178/29/1 179/30/1 180/31/1 181/32/1
f 179/37/1 182/38/1 183/39/1 180/40/1
f 182/29/1 184/30/1 185/31/1 183/32/1
f 186/21/1 187/22/1 188/23/1 189/24/1
f 190/21/1 191/22/1 192/23/1 193/24/1
f 191/21/1 194/22/1 195/23/1 192/24/1
f 196/45/1 197/46/1 198/47/1 199/48/1
f 197/45/1 200/46/1 201/47/1 198/48/1
f 202/21/1 203/22/1 204/23/1 205/24/1
f 203/21/1 206/22/1 207/23/1 204/24/1
f 208/25/1 209/26/1 122/27/1 210/28/1
f 209/25/1 211/26/1 123/27/1 122/28/1
f 211/25/1 212/26/1 213/27/1 123/28/1
f 214/25/1 215/26/1 126/27/1 216/28/1
f 215/25/1 217/26/1 127/27/1 126/28/1
f 217/25/1 218/26/1 219/27/1 127/28/1
f 220/25/1 221/26/1 130/27/1 222/28/1
f 221/25/1 223/26/1 131/27/1 130/28/1
f 223/25/1 224/26/1 134/27/1 131/28/1
f 224/25/1 225/26/1 136/27/1 134/28/1
f 225/25/1 226/26/1 137/27/1 136/28/1
f 226/25/1 227/26/1 140/27/1 137/28/1
f 228/25/1 229/26/1 154/27/1 152/28/1
f 229/25/1 230/26/1 155/27/1 154/28/1
f 230/25/1 231/26/1 158/27/1 155/28/1
f 231/25/1 232/26/1 160/27/1 158/28/1
f 232/25/1 233/26/1 162/27/1 160/28/1
f 233/25/1 234/26/1 164/27/1 162/28/1
f 234/25/1 235/26/1 165/27/1 164/28/1
f 235/25/1 236/26/1 168/27/1 165/28/1
f 236/25/1 237/26/1 238/27/1 168/28/1
f 237/25/1 239/26/1 170/27/1 238/28/1
f 239/25/1 240/26/1 171/27/1 170/28/1
f 240/25/1 241/26/1 174/27/1 171/28/1
f 241/25/1 242/26/1 176/27/1 174/28/1
f 242/25/1 243/26/1 244/27/1 176/28/1
f 243/25/1 245/26/1 178/27/1 244/28/1
f 245/25/1 246/26/1 179/27/1 178/28/1
f 246/25/1 247/26/1 182/27/1 179/28/1
f 247/25/1 248/26/1 184/27/1 182/28/1
f 248/25/1 249/26/1 186/27/1 184/28/1
f 249/25/1 250/26/1 187/27/1 186/28/1
f 250/25/1 251/26/1 252/27/1 187/28/1
f 253/21/1 254/22/1 255/23/1 256/24/1
f 254/21/1 257/22/1 258/23/1 255/24/1
f 257/21/1 259/22/1 260/23/1 258/24/1
f 261/21/1 262/22/1 263/23/1 264/24/1
f 262/21/1 265/22/1 266/23/1 263/24/1
f 267/21/1 268/22/1 269/23/1 270/24/1
f 268/21/1 271/22/1 272/23/1 269/24/1
f 273/21/1 274/22/1 275/23/1 276/24/1
f 277/21/1 278/22/1 279/23/1 280/24/1
f 281/21/1 282/22/1 283/23/1 284/24/1
f 282/21/1 285/22/1 286/23/1 283/24/1
f 287/21/1 288/22/1 289/23/1 290/24/1
f 288/21/1 291/22/1 292/23/1 289/24/1
f 293/21/1 294/22/1 295/23/1 296/24/1
f 297/25/1 298/26/1 190/27/1 299/28/1
f 298/25/1 300/26/1 191/27/1 190/28/1
f 300/25/1 301/26/1 194/27/1 191/28/1
f 301/25/1 302/26/1 196/27/1 194/28/1
f 302/25/1 303/26/1 197/27/1 196/28/1
f 303/25/1 304/26/1 200/27/1 197/28/1
f 304/25/1 305/26/1 202/27/1 200/28/1
f 305/25/1 306/26/1 203/27/1 202/28/1
f 306/25/1 307/26/1 206/27/1 203/28/1
f 307/25/1 308/26/1 309/27/1 206/28/1
f 310/21/1 311/22/1 312/23/1 313/24/1
f 311/21/1 314/22/1 315/23/1 312/24/1
f 316/25/1 317/26/1 253/27/1 251/28/1
f 317/25/1 318/26/1 254/27/1 253/28/1
f 318/25/1 319/26/1 257/27/1 254/28/1
f 319/25/1 320/26/1 259/27/1 257/28/1
f 320/25/1 321/26/1 322/27/1 259/28/1
f 321/33/1 323/34/1 324/35/1 322/36/1
f 323/33/1 325/34/1 326/35/1 324/36/1
f 325/33/1 327/34/1 261/35/1 326/36/1
f 327/25/1 328/26/1 262/27/1 261/28/1
f 328/25/1 329/26/1 265/27/1 262/28/1
f 330/25/1 331/26/1 268/27/1 267/28/1
f 331/25/1 332/26/1 271/27/1 268/28/1
f 333/25/1 334/26/1 274/27/1 273/28/1
f 335/25/1 336/26/1 278/27/1 277/28/1
f 337/25/1 338/26/1 281/27/1 339/28/1
f 338/25/1 340/26/1 282/27/1 281/28/1
f 340/25/1 341/26/1 285/27/1 282/28/1
f 341/25/1 342/26/1 343/27/1 285/28/1
f 342/33/1 344/34/1 345/35/1 343/36/1
f 344/33/1 346/34/1 287/35/1 345/36/1
f 346/25/1 347/26/1 288/27/1 287/28/1
f 347/25/1 348/26/1 291/27/1 288/28/1
f 348/33/1 349/34/1 350/35/1 291/36/1
f 349/33/1 351/34/1 352/35/1 350/36/1
f 351/25/1 353/26/1 293/27/1 352/28/1
f 353/25/1 354/26/1 294/27/1 293/28/1
f 354/25/1 355/26/1 297/27/1 294/28/1
f 356/25/1 357/26/1 310/27/1 308/28/1
f 357/25/1 358/26/1 311/27/1 310/28/1
f 358/25/1 359/26/1 314/27/1 311/28/1
f 359/25/1 360/26/1 361/27/1 314/28/1

