# Wavefront OBJ file automatically generated by Tiled2Unity

# Vertices (Count = 314)
v -1680 -400 0
v -1760 -400 0
v -1760 -320 0
v -1680 -320 0
v -1840 -400 0
v -1840 -320 0
v -1920 -400 0
v -1920 -320 0
v -2000 -400 0
v -2080 -400 0
v -2080 -320 0
v -2000 -320 0
v -3040 -400 0
v -3120 -400 0
v -3120 -320 0
v -3040 -320 0
v -3200 -400 0
v -3280 -400 0
v -3280 -320 0
v -3200 -320 0
v -3360 -400 0
v -3440 -400 0
v -3440 -320 0
v -3360 -320 0
v -3520 -400 0
v -3600 -400 0
v -3600 -320 0
v -3520 -320 0
v -80 -480 0
v -160 -480 0
v -160 -400 0
v -80 -400 0
v -240 -480 0
v -240 -400 0
v -1600 -480 0
v -1680 -480 0
v -1600 -400 0
v -1760 -480 0
v -1840 -480 0
v -1920 -480 0
v -2000 -480 0
v -2080 -480 0
v -2160 -480 0
v -2240 -480 0
v -2240 -400 0
v -2160 -400 0
v -2320 -480 0
v -2320 -400 0
v -2720 -480 0
v -2800 -480 0
v -2800 -400 0
v -2720 -400 0
v -2880 -480 0
v -2880 -400 0
v -2960 -480 0
v -2960 -400 0
v -3040 -480 0
v -3120 -480 0
v -3200 -480 0
v -3280 -480 0
v -3360 -480 0
v -3440 -480 0
v -3520 -480 0
v -3600 -480 0
v -3680 -480 0
v -3680 -400 0
v 0 -560 0
v -80 -560 0
v 0 -480 0
v -160 -560 0
v -240 -560 0
v -320 -560 0
v -400 -560 0
v -400 -480 0
v -320 -480 0
v -480 -560 0
v -560 -560 0
v -560 -480 0
v -480 -480 0
v -640 -560 0
v -720 -560 0
v -720 -480 0
v -640 -480 0
v -800 -560 0
v -880 -560 0
v -880 -480 0
v -800 -480 0
v -960 -560 0
v -1040 -560 0
v -1040 -480 0
v -960 -480 0
v -1120 -560 0
v -1120 -480 0
v -1200 -560 0
v -1280 -560 0
v -1280 -480 0
v -1200 -480 0
v -1360 -560 0
v -1440 -560 0
v -1440 -480 0
v -1360 -480 0
v -2080 -560 0
v -2160 -560 0
v -2240 -560 0
v -2320 -560 0
v -2400 -560 0
v -2400 -480 0
v -2480 -560 0
v -2480 -480 0
v -2560 -560 0
v -2560 -480 0
v -2640 -560 0
v -2640 -480 0
v -2720 -560 0
v -2800 -560 0
v -2880 -560 0
v -2960 -560 0
v 0 -640 0
v -80 -640 0
v -160 -640 0
v -240 -640 0
v -320 -640 0
v -400 -640 0
v -480 -640 0
v -560 -640 0
v -640 -640 0
v -720 -640 0
v -800 -640 0
v -880 -640 0
v -960 -640 0
v -1040 -640 0
v -1120 -640 0
v -1200 -640 0
v -1280 -640 0
v -1360 -640 0
v -1440 -640 0
v -1520 -640 0
v -1520 -560 0
v -4640 -800 0
v -4720 -800 0
v -4720 -720 0
v -4640 -720 0
v -4800 -800 0
v -4800 -720 0
v -3840 -880 0
v -3920 -880 0
v -3920 -800 0
v -3840 -800 0
v -4000 -880 0
v -4000 -800 0
v -4080 -880 0
v -4080 -800 0
v -4160 -880 0
v -4160 -800 0
v -4320 -880 0
v -4400 -880 0
v -4400 -800 0
v -4320 -800 0
v -4480 -880 0
v -4480 -800 0
v -4560 -880 0
v -4640 -880 0
v -4560 -800 0
v -4720 -880 0
v -4800 -880 0
v -3680 -960 0
v -3760 -960 0
v -3760 -880 0
v -3680 -880 0
v -3840 -960 0
v -3920 -960 0
v -4000 -960 0
v -4080 -960 0
v -4160 -960 0
v -4240 -960 0
v -4240 -880 0
v -4320 -960 0
v -4400 -960 0
v -4480 -960 0
v -4560 -960 0
v -4640 -960 0
v -4720 -960 0
v -4800 -960 0
v -160 -1040 0
v -240 -1040 0
v -240 -960 0
v -160 -960 0
v -320 -1040 0
v -400 -1040 0
v -400 -960 0
v -320 -960 0
v -480 -1040 0
v -560 -1040 0
v -560 -960 0
v -480 -960 0
v -640 -1040 0
v -720 -1040 0
v -720 -960 0
v -640 -960 0
v -800 -1040 0
v -880 -1040 0
v -880 -960 0
v -800 -960 0
v -960 -1040 0
v -960 -960 0
v -1040 -1040 0
v -1120 -1040 0
v -1120 -960 0
v -1040 -960 0
v -1200 -1040 0
v -1200 -960 0
v -1280 -1040 0
v -1360 -1040 0
v -1360 -960 0
v -1280 -960 0
v -1440 -1040 0
v -1440 -960 0
v -1520 -1040 0
v -1600 -1040 0
v -1600 -960 0
v -1520 -960 0
v -1680 -1040 0
v -1680 -960 0
v 0 -1120 0
v -80 -1120 0
v -80 -1040 0
v 0 -1040 0
v -160 -1120 0
v -240 -1120 0
v -320 -1120 0
v -400 -1120 0
v -480 -1120 0
v -560 -1120 0
v -640 -1120 0
v -720 -1120 0
v -800 -1120 0
v -880 -1120 0
v -960 -1120 0
v -1040 -1120 0
v -1120 -1120 0
v -1200 -1120 0
v -1280 -1120 0
v -1360 -1120 0
v -1440 -1120 0
v -1520 -1120 0
v -1600 -1120 0
v -1680 -1120 0
v -1760 -1120 0
v -1760 -1040 0
v -3040 -1120 0
v -3120 -1120 0
v -3120 -1040 0
v -3040 -1040 0
v -3200 -1120 0
v -3200 -1040 0
v -3280 -1120 0
v -3280 -1040 0
v -3440 -1120 0
v -3520 -1120 0
v -3520 -1040 0
v -3440 -1040 0
v -3600 -1120 0
v -3600 -1040 0
v -3680 -1120 0
v -3680 -1040 0
v -2880 -1200 0
v -2960 -1200 0
v -2960 -1120 0
v -2880 -1120 0
v -3040 -1200 0
v -3120 -1200 0
v -3200 -1200 0
v -3280 -1200 0
v -3360 -1200 0
v -3360 -1120 0
v -3440 -1200 0
v -3520 -1200 0
v -3600 -1200 0
v -3680 -1200 0
v -2000 -1360 0
v -2080 -1360 0
v -2080 -1280 0
v -2000 -1280 0
v -2160 -1360 0
v -2240 -1360 0
v -2240 -1280 0
v -2160 -1280 0
v -2320 -1360 0
v -2320 -1280 0
v -2400 -1360 0
v -2480 -1360 0
v -2480 -1280 0
v -2400 -1280 0
v -1840 -1440 0
v -1920 -1440 0
v -1920 -1360 0
v -1840 -1360 0
v -2000 -1440 0
v -2080 -1440 0
v -2160 -1440 0
v -2240 -1440 0
v -2320 -1440 0
v -2400 -1440 0
v -2480 -1440 0
v -2560 -1440 0
v -2560 -1360 0
v -2640 -1440 0
v -2640 -1360 0
v -2720 -1440 0
v -2720 -1360 0
v -2800 -1440 0
v -2800 -1360 0
v -2880 -1440 0
v -2880 -1360 0

# Texture cooridinates (Count = 68)
vt 0.2501221 0.7501221
vt 0.3748779 0.7501221
vt 0.3748779 0.9998779
vt 0.2501221 0.9998779
vt 0.3751221 0.7501221
vt 0.4998779 0.7501221
vt 0.4998779 0.9998779
vt 0.3751221 0.9998779
vt 0.7501221 0.7501221
vt 0.8748779 0.7501221
vt 0.8748779 0.9998779
vt 0.7501221 0.9998779
vt 0.2501221 0.2501221
vt 0.3748779 0.2501221
vt 0.3748779 0.4998779
vt 0.2501221 0.4998779
vt 0.3751221 0.2501221
vt 0.4998779 0.2501221
vt 0.4998779 0.4998779
vt 0.3751221 0.4998779
vt 0.1251221 0.7501221
vt 0.2498779 0.7501221
vt 0.2498779 0.9998779
vt 0.1251221 0.9998779
vt 0.6251221 0.7501221
vt 0.7498779 0.7501221
vt 0.7498779 0.9998779
vt 0.6251221 0.9998779
vt 0.0001220703 0.7501221
vt 0.1248779 0.7501221
vt 0.1248779 0.9998779
vt 0.0001220703 0.9998779
vt 0.2501221 0.0001220703
vt 0.3748779 0.0001220703
vt 0.3748779 0.2498779
vt 0.2501221 0.2498779
vt 0.3751221 0.0001220703
vt 0.4998779 0.0001220703
vt 0.4998779 0.2498779
vt 0.3751221 0.2498779
vt 0.2501221 0.5001221
vt 0.3748779 0.5001221
vt 0.3748779 0.7498779
vt 0.2501221 0.7498779
vt 0.0001220703 0.2501221
vt 0.1248779 0.2501221
vt 0.1248779 0.4998779
vt 0.0001220703 0.4998779
vt 0.1251221 0.2501221
vt 0.2498779 0.2501221
vt 0.2498779 0.4998779
vt 0.1251221 0.4998779
vt 0.5001221 0.7501221
vt 0.6248779 0.7501221
vt 0.6248779 0.9998779
vt 0.5001221 0.9998779
vt 0.0001220703 0.0001220703
vt 0.1248779 0.0001220703
vt 0.1248779 0.2498779
vt 0.0001220703 0.2498779
vt 0.1251221 0.0001220703
vt 0.2498779 0.0001220703
vt 0.2498779 0.2498779
vt 0.1251221 0.2498779
vt 0.8751221 0.7501221
vt 0.9998779 0.7501221
vt 0.9998779 0.9998779
vt 0.8751221 0.9998779

# Normal
vn 0 0 -1

# Groups (Count = 1)

g mesh_0001
f 1/1/1 2/2/1 3/3/1 4/4/1
f 2/1/1 5/2/1 6/3/1 3/4/1
f 5/1/1 7/2/1 8/3/1 6/4/1
f 9/5/1 10/6/1 11/7/1 12/8/1
f 13/1/1 14/2/1 15/3/1 16/4/1
f 17/9/1 18/10/1 19/11/1 20/12/1
f 21/1/1 22/2/1 23/3/1 24/4/1
f 25/5/1 26/6/1 27/7/1 28/8/1
f 29/13/1 30/14/1 31/15/1 32/16/1
f 30/17/1 33/18/1 34/19/1 31/20/1
f 35/21/1 36/22/1 1/23/1 37/24/1
f 36/21/1 38/22/1 2/23/1 1/24/1
f 38/21/1 39/22/1 5/23/1 2/24/1
f 39/21/1 40/22/1 7/23/1 5/24/1
f 40/21/1 41/22/1 9/23/1 7/24/1
f 41/21/1 42/22/1 10/23/1 9/24/1
f 43/1/1 44/2/1 45/3/1 46/4/1
f 44/1/1 47/2/1 48/3/1 45/4/1
f 49/1/1 50/2/1 51/3/1 52/4/1
f 50/1/1 53/2/1 54/3/1 51/4/1
f 53/25/1 55/26/1 56/27/1 54/28/1
f 55/21/1 57/22/1 13/23/1 56/24/1
f 57/21/1 58/22/1 14/23/1 13/24/1
f 58/21/1 59/22/1 17/23/1 14/24/1
f 59/21/1 60/22/1 18/23/1 17/24/1
f 60/21/1 61/22/1 21/23/1 18/24/1
f 61/21/1 62/22/1 22/23/1 21/24/1
f 62/21/1 63/22/1 25/23/1 22/24/1
f 63/21/1 64/22/1 26/23/1 25/24/1
f 64/21/1 65/22/1 66/23/1 26/24/1
f 67/29/1 68/30/1 29/31/1 69/32/1
f 68/33/1 70/34/1 30/35/1 29/36/1
f 70/37/1 71/38/1 33/39/1 30/40/1
f 72/1/1 73/2/1 74/3/1 75/4/1
f 76/25/1 77/26/1 78/27/1 79/28/1
f 80/1/1 81/2/1 82/3/1 83/4/1
f 84/9/1 85/10/1 86/11/1 87/12/1
f 88/1/1 89/2/1 90/3/1 91/4/1
f 89/1/1 92/2/1 93/3/1 90/4/1
f 94/5/1 95/6/1 96/7/1 97/8/1
f 98/1/1 99/2/1 100/3/1 101/4/1
f 102/21/1 103/22/1 43/23/1 42/24/1
f 103/21/1 104/22/1 44/23/1 43/24/1
f 104/21/1 105/22/1 47/23/1 44/24/1
f 105/21/1 106/22/1 107/23/1 47/24/1
f 106/41/1 108/42/1 109/43/1 107/44/1
f 108/41/1 110/42/1 111/43/1 109/44/1
f 110/41/1 112/42/1 113/43/1 111/44/1
f 112/21/1 114/22/1 49/23/1 113/24/1
f 114/21/1 115/22/1 50/23/1 49/24/1
f 115/21/1 116/22/1 53/23/1 50/24/1
f 116/21/1 117/22/1 55/23/1 53/24/1
f 118/21/1 119/22/1 68/23/1 67/24/1
f 119/21/1 120/22/1 70/23/1 68/24/1
f 120/21/1 121/22/1 71/23/1 70/24/1
f 121/21/1 122/22/1 72/23/1 71/24/1
f 122/21/1 123/22/1 73/23/1 72/24/1
f 123/21/1 124/22/1 76/23/1 73/24/1
f 124/21/1 125/22/1 77/23/1 76/24/1
f 125/21/1 126/22/1 80/23/1 77/24/1
f 126/21/1 127/22/1 81/23/1 80/24/1
f 127/21/1 128/22/1 84/23/1 81/24/1
f 128/21/1 129/22/1 85/23/1 84/24/1
f 129/21/1 130/22/1 88/23/1 85/24/1
f 130/21/1 131/22/1 89/23/1 88/24/1
f 131/21/1 132/22/1 92/23/1 89/24/1
f 132/21/1 133/22/1 94/23/1 92/24/1
f 133/21/1 134/22/1 95/23/1 94/24/1
f 134/21/1 135/22/1 98/23/1 95/24/1
f 135/21/1 136/22/1 99/23/1 98/24/1
f 136/21/1 137/22/1 138/23/1 99/24/1
f 139/45/1 140/46/1 141/47/1 142/48/1
f 140/49/1 143/50/1 144/51/1 141/52/1
f 145/1/1 146/2/1 147/3/1 148/4/1
f 146/1/1 149/2/1 150/3/1 147/4/1
f 149/1/1 151/2/1 152/3/1 150/4/1
f 151/1/1 153/2/1 154/3/1 152/4/1
f 155/5/1 156/6/1 157/7/1 158/8/1
f 156/53/1 159/54/1 160/55/1 157/56/1
f 161/1/1 162/2/1 139/3/1 163/4/1
f 162/57/1 164/58/1 140/59/1 139/60/1
f 164/61/1 165/62/1 143/63/1 140/64/1
f 166/21/1 167/22/1 168/23/1 169/24/1
f 167/21/1 170/22/1 145/23/1 168/24/1
f 170/21/1 171/22/1 146/23/1 145/24/1
f 171/21/1 172/22/1 149/23/1 146/24/1
f 172/21/1 173/22/1 151/23/1 149/24/1
f 173/21/1 174/22/1 153/23/1 151/24/1
f 174/21/1 175/22/1 176/23/1 153/24/1
f 175/21/1 177/22/1 155/23/1 176/24/1
f 177/21/1 178/22/1 156/23/1 155/24/1
f 178/21/1 179/22/1 159/23/1 156/24/1
f 179/21/1 180/22/1 161/23/1 159/24/1
f 180/21/1 181/22/1 162/23/1 161/24/1
f 181/21/1 182/22/1 164/23/1 162/24/1
f 182/21/1 183/22/1 165/23/1 164/24/1
f 184/25/1 185/26/1 186/27/1 187/28/1
f 188/1/1 189/2/1 190/3/1 191/4/1
f 192/25/1 193/26/1 194/27/1 195/28/1
f 196/1/1 197/2/1 198/3/1 199/4/1
f 200/53/1 201/54/1 202/55/1 203/56/1
f 201/53/1 204/54/1 205/55/1 202/56/1
f 206/1/1 207/2/1 208/3/1 209/4/1
f 207/1/1 210/2/1 211/3/1 208/4/1
f 212/9/1 213/10/1 214/11/1 215/12/1
f 213/9/1 216/10/1 217/11/1 214/12/1
f 218/1/1 219/2/1 220/3/1 221/4/1
f 219/1/1 222/2/1 223/3/1 220/4/1
f 224/21/1 225/22/1 226/23/1 227/24/1
f 225/21/1 228/22/1 184/23/1 226/24/1
f 228/21/1 229/22/1 185/23/1 184/24/1
f 229/21/1 230/22/1 188/23/1 185/24/1
f 230/21/1 231/22/1 189/23/1 188/24/1
f 231/21/1 232/22/1 192/23/1 189/24/1
f 232/21/1 233/22/1 193/23/1 192/24/1
f 233/21/1 234/22/1 196/23/1 193/24/1
f 234/21/1 235/22/1 197/23/1 196/24/1
f 235/21/1 236/22/1 200/23/1 197/24/1
f 236/21/1 237/22/1 201/23/1 200/24/1
f 237/21/1 238/22/1 204/23/1 201/24/1
f 238/21/1 239/22/1 206/23/1 204/24/1
f 239/21/1 240/22/1 207/23/1 206/24/1
f 240/21/1 241/22/1 210/23/1 207/24/1
f 241/21/1 242/22/1 212/23/1 210/24/1
f 242/21/1 243/22/1 213/23/1 212/24/1
f 243/21/1 244/22/1 216/23/1 213/24/1
f 244/21/1 245/22/1 218/23/1 216/24/1
f 245/21/1 246/22/1 219/23/1 218/24/1
f 246/21/1 247/22/1 222/23/1 219/24/1
f 247/21/1 248/22/1 249/23/1 222/24/1
f 250/1/1 251/2/1 252/3/1 253/4/1
f 251/1/1 254/2/1 255/3/1 252/4/1
f 254/1/1 256/2/1 257/3/1 255/4/1
f 258/5/1 259/6/1 260/7/1 261/8/1
f 259/25/1 262/26/1 263/27/1 260/28/1
f 262/53/1 264/54/1 265/55/1 263/56/1
f 266/21/1 267/22/1 268/23/1 269/24/1
f 267/21/1 270/22/1 250/23/1 268/24/1
f 270/21/1 271/22/1 251/23/1 250/24/1
f 271/21/1 272/22/1 254/23/1 251/24/1
f 272/21/1 273/22/1 256/23/1 254/24/1
f 273/21/1 274/22/1 275/23/1 256/24/1
f 274/21/1 276/22/1 258/23/1 275/24/1
f 276/21/1 277/22/1 259/23/1 258/24/1
f 277/21/1 278/22/1 262/23/1 259/24/1
f 278/21/1 279/22/1 264/23/1 262/24/1
f 280/1/1 281/2/1 282/3/1 283/4/1
f 284/25/1 285/26/1 286/27/1 287/28/1
f 285/25/1 288/26/1 289/27/1 286/28/1
f 290/1/1 291/2/1 292/3/1 293/4/1
f 294/65/1 295/66/1 296/67/1 297/68/1
f 295/21/1 298/22/1 280/23/1 296/24/1
f 298/21/1 299/22/1 281/23/1 280/24/1
f 299/21/1 300/22/1 284/23/1 281/24/1
f 300/21/1 301/22/1 285/23/1 284/24/1
f 301/21/1 302/22/1 288/23/1 285/24/1
f 302/21/1 303/22/1 290/23/1 288/24/1
f 303/21/1 304/22/1 291/23/1 290/24/1
f 304/21/1 305/22/1 306/23/1 291/24/1
f 305/41/1 307/42/1 308/43/1 306/44/1
f 307/41/1 309/42/1 310/43/1 308/44/1
f 309/41/1 311/42/1 312/43/1 310/44/1
f 311/41/1 313/42/1 314/43/1 312/44/1

