# Wavefront OBJ file automatically generated by Tiled2Unity

# Vertices (Count = 482)
v -80 -240 0
v -160 -240 0
v -160 -160 0
v -80 -160 0
v -240 -240 0
v -240 -160 0
v 0 -320 0
v -80 -320 0
v 0 -240 0
v -160 -320 0
v -240 -320 0
v -320 -320 0
v -400 -320 0
v -400 -240 0
v -320 -240 0
v -480 -320 0
v -480 -240 0
v -560 -320 0
v -640 -320 0
v -640 -240 0
v -560 -240 0
v -720 -320 0
v -800 -320 0
v -800 -240 0
v -720 -240 0
v -880 -320 0
v -880 -240 0
v -960 -320 0
v -1040 -320 0
v -1040 -240 0
v -960 -240 0
v -1120 -320 0
v -1200 -320 0
v -1200 -240 0
v -1120 -240 0
v -1280 -320 0
v -1280 -240 0
v -1360 -320 0
v -1440 -320 0
v -1440 -240 0
v -1360 -240 0
v -1520 -320 0
v -1600 -320 0
v -1600 -240 0
v -1520 -240 0
v -1680 -320 0
v -1680 -240 0
v -1760 -320 0
v -1760 -240 0
v -1840 -320 0
v -1920 -320 0
v -1920 -240 0
v -1840 -240 0
v -2000 -320 0
v -2000 -240 0
v -2080 -320 0
v -2160 -320 0
v -2160 -240 0
v -2080 -240 0
v -2560 -320 0
v -2640 -320 0
v -2640 -240 0
v -2560 -240 0
v -2720 -320 0
v -2720 -240 0
v -3120 -320 0
v -3200 -320 0
v -3200 -240 0
v -3120 -240 0
v -3280 -320 0
v -3280 -240 0
v -3360 -320 0
v -3440 -320 0
v -3440 -240 0
v -3360 -240 0
v -3520 -320 0
v -3520 -240 0
v -3600 -320 0
v -3680 -320 0
v -3680 -240 0
v -3600 -240 0
v -3760 -320 0
v -3840 -320 0
v -3840 -240 0
v -3760 -240 0
v -3920 -320 0
v -3920 -240 0
v -4000 -320 0
v -4080 -320 0
v -4080 -240 0
v -4000 -240 0
v -4160 -320 0
v -4160 -240 0
v -4240 -320 0
v -4320 -320 0
v -4320 -240 0
v -4240 -240 0
v -4400 -320 0
v -4400 -240 0
v -4480 -320 0
v -4560 -320 0
v -4560 -240 0
v -4480 -240 0
v -6160 -320 0
v -6240 -320 0
v -6240 -240 0
v -6160 -240 0
v -6320 -320 0
v -6320 -240 0
v -6400 -320 0
v -6480 -320 0
v -6480 -240 0
v -6400 -240 0
v 0 -400 0
v -80 -400 0
v -160 -400 0
v -240 -400 0
v -320 -400 0
v -400 -400 0
v -480 -400 0
v -560 -400 0
v -640 -400 0
v -720 -400 0
v -800 -400 0
v -880 -400 0
v -960 -400 0
v -1040 -400 0
v -1120 -400 0
v -1200 -400 0
v -1280 -400 0
v -1360 -400 0
v -1440 -400 0
v -1520 -400 0
v -1600 -400 0
v -1680 -400 0
v -1760 -400 0
v -1840 -400 0
v -1920 -400 0
v -2000 -400 0
v -2080 -400 0
v -2160 -400 0
v -2240 -400 0
v -2240 -320 0
v -2320 -400 0
v -2400 -400 0
v -2400 -320 0
v -2320 -320 0
v -2880 -400 0
v -2960 -400 0
v -2960 -320 0
v -2880 -320 0
v -3040 -400 0
v -3120 -400 0
v -3040 -320 0
v -3200 -400 0
v -3280 -400 0
v -3360 -400 0
v -3440 -400 0
v -3520 -400 0
v -3600 -400 0
v -3680 -400 0
v -3760 -400 0
v -3840 -400 0
v -3920 -400 0
v -4000 -400 0
v -4080 -400 0
v -4160 -400 0
v -4240 -400 0
v -4320 -400 0
v -4400 -400 0
v -4480 -400 0
v -4560 -400 0
v -4640 -400 0
v -4640 -320 0
v -4720 -400 0
v -4720 -320 0
v -4800 -400 0
v -4800 -320 0
v -4880 -400 0
v -4880 -320 0
v -4960 -400 0
v -5040 -400 0
v -5040 -320 0
v -4960 -320 0
v -5120 -400 0
v -5120 -320 0
v -5440 -400 0
v -5520 -400 0
v -5520 -320 0
v -5440 -320 0
v -5600 -400 0
v -5600 -320 0
v -5920 -400 0
v -6000 -400 0
v -6000 -320 0
v -5920 -320 0
v -6080 -400 0
v -6160 -400 0
v -6080 -320 0
v -6240 -400 0
v -6320 -400 0
v -6400 -400 0
v -6480 -400 0
v -2240 -480 0
v -2320 -480 0
v -2400 -480 0
v -2480 -480 0
v -2480 -400 0
v -2560 -480 0
v -2560 -400 0
v -2640 -480 0
v -2640 -400 0
v -2720 -480 0
v -2720 -400 0
v -2800 -480 0
v -2800 -400 0
v -2880 -480 0
v -2960 -480 0
v -3040 -480 0
v -4640 -480 0
v -4720 -480 0
v -4800 -480 0
v -4880 -480 0
v -4960 -480 0
v -5040 -480 0
v -5120 -480 0
v -5200 -480 0
v -5200 -400 0
v -5280 -480 0
v -5280 -400 0
v -5360 -480 0
v -5360 -400 0
v -5440 -480 0
v -5520 -480 0
v -5600 -480 0
v -5680 -480 0
v -5680 -400 0
v -5760 -480 0
v -5760 -400 0
v -5840 -480 0
v -5840 -400 0
v -5920 -480 0
v -6000 -480 0
v -6080 -480 0
v -7040 -720 0
v -7120 -720 0
v -7120 -640 0
v -7040 -640 0
v -7200 -720 0
v -7200 -640 0
v -1120 -800 0
v -1200 -800 0
v -1200 -720 0
v -1120 -720 0
v -1280 -800 0
v -1360 -800 0
v -1360 -720 0
v -1280 -720 0
v -1440 -800 0
v -1520 -800 0
v -1520 -720 0
v -1440 -720 0
v -1600 -800 0
v -1600 -720 0
v -1680 -800 0
v -1760 -800 0
v -1760 -720 0
v -1680 -720 0
v -1840 -800 0
v -1920 -800 0
v -1920 -720 0
v -1840 -720 0
v -2000 -800 0
v -2000 -720 0
v -2080 -800 0
v -2160 -800 0
v -2160 -720 0
v -2080 -720 0
v -2240 -800 0
v -2320 -800 0
v -2320 -720 0
v -2240 -720 0
v -2400 -800 0
v -2400 -720 0
v -3760 -800 0
v -3840 -800 0
v -3840 -720 0
v -3760 -720 0
v -3920 -800 0
v -4000 -800 0
v -4000 -720 0
v -3920 -720 0
v -4080 -800 0
v -4160 -800 0
v -4160 -720 0
v -4080 -720 0
v -4240 -800 0
v -4240 -720 0
v -4320 -800 0
v -4400 -800 0
v -4400 -720 0
v -4320 -720 0
v -4480 -800 0
v -4560 -800 0
v -4560 -720 0
v -4480 -720 0
v -4880 -800 0
v -4960 -800 0
v -4960 -720 0
v -4880 -720 0
v -5280 -800 0
v -5360 -800 0
v -5360 -720 0
v -5280 -720 0
v -5680 -800 0
v -5760 -800 0
v -5760 -720 0
v -5680 -720 0
v -5840 -800 0
v -5840 -720 0
v -6160 -800 0
v -6240 -800 0
v -6240 -720 0
v -6160 -720 0
v -6320 -800 0
v -6400 -800 0
v -6400 -720 0
v -6320 -720 0
v -6480 -800 0
v -6480 -720 0
v -6640 -800 0
v -6720 -800 0
v -6720 -720 0
v -6640 -720 0
v -6800 -800 0
v -6800 -720 0
v -6880 -800 0
v -6880 -720 0
v -6960 -800 0
v -6960 -720 0
v -7040 -800 0
v -7120 -800 0
v -7200 -800 0
v -80 -880 0
v -160 -880 0
v -160 -800 0
v -80 -800 0
v -240 -880 0
v -320 -880 0
v -320 -800 0
v -240 -800 0
v -400 -880 0
v -400 -800 0
v -480 -880 0
v -560 -880 0
v -560 -800 0
v -480 -800 0
v -640 -880 0
v -640 -800 0
v -720 -880 0
v -720 -800 0
v -800 -880 0
v -880 -880 0
v -880 -800 0
v -800 -800 0
v -960 -880 0
v -960 -800 0
v -1040 -880 0
v -1040 -800 0
v -1120 -880 0
v -1200 -880 0
v -1280 -880 0
v -1360 -880 0
v -1440 -880 0
v -1520 -880 0
v -1600 -880 0
v -1680 -880 0
v -1760 -880 0
v -1840 -880 0
v -1920 -880 0
v -2000 -880 0
v -2080 -880 0
v -2160 -880 0
v -2240 -880 0
v -2320 -880 0
v -2400 -880 0
v -2480 -880 0
v -2480 -800 0
v -2560 -880 0
v -2640 -880 0
v -2640 -800 0
v -2560 -800 0
v -3040 -880 0
v -3120 -880 0
v -3120 -800 0
v -3040 -800 0
v -3520 -880 0
v -3600 -880 0
v -3600 -800 0
v -3520 -800 0
v -3680 -880 0
v -3760 -880 0
v -3680 -800 0
v -3840 -880 0
v -3920 -880 0
v -4000 -880 0
v -4080 -880 0
v -4160 -880 0
v -4240 -880 0
v -4320 -880 0
v -4400 -880 0
v -4480 -880 0
v -4560 -880 0
v -4640 -880 0
v -4640 -800 0
v -4880 -880 0
v -4960 -880 0
v -5200 -880 0
v -5280 -880 0
v -5200 -800 0
v -5360 -880 0
v -5440 -880 0
v -5440 -800 0
v -5680 -880 0
v -5760 -880 0
v -5840 -880 0
v -6080 -880 0
v -6160 -880 0
v -6080 -800 0
v -6240 -880 0
v -6320 -880 0
v -6400 -880 0
v -6480 -880 0
v -6560 -880 0
v -6560 -800 0
v -6640 -880 0
v -6720 -880 0
v -6800 -880 0
v -6880 -880 0
v -6960 -880 0
v -7040 -880 0
v -7120 -880 0
v -7200 -880 0
v 0 -960 0
v -80 -960 0
v 0 -880 0
v -160 -960 0
v -240 -960 0
v -320 -960 0
v -400 -960 0
v -480 -960 0
v -560 -960 0
v -640 -960 0
v -720 -960 0
v -800 -960 0
v -880 -960 0
v -960 -960 0
v -1040 -960 0
v -2480 -960 0
v -2560 -960 0
v -2640 -960 0
v -2720 -960 0
v -2720 -880 0
v -2800 -960 0
v -2800 -880 0
v -2880 -960 0
v -2880 -880 0
v -2960 -960 0
v -2960 -880 0
v -3040 -960 0
v -3120 -960 0
v -3200 -960 0
v -3200 -880 0
v -3280 -960 0
v -3280 -880 0
v -3360 -960 0
v -3360 -880 0
v -3440 -960 0
v -3440 -880 0
v -3520 -960 0
v -3600 -960 0
v -3680 -960 0

# Texture cooridinates (Count = 64)
vt 0.2501221 0.2501221
vt 0.3748779 0.2501221
vt 0.3748779 0.4998779
vt 0.2501221 0.4998779
vt 0.3751221 0.2501221
vt 0.4998779 0.2501221
vt 0.4998779 0.4998779
vt 0.3751221 0.4998779
vt 0.0001220703 0.7501221
vt 0.1248779 0.7501221
vt 0.1248779 0.9998779
vt 0.0001220703 0.9998779
vt 0.2501221 0.0001220703
vt 0.3748779 0.0001220703
vt 0.3748779 0.2498779
vt 0.2501221 0.2498779
vt 0.3751221 0.0001220703
vt 0.4998779 0.0001220703
vt 0.4998779 0.2498779
vt 0.3751221 0.2498779
vt 0.2501221 0.7501221
vt 0.3748779 0.7501221
vt 0.3748779 0.9998779
vt 0.2501221 0.9998779
vt 0.6251221 0.7501221
vt 0.7498779 0.7501221
vt 0.7498779 0.9998779
vt 0.6251221 0.9998779
vt 0.7501221 0.7501221
vt 0.8748779 0.7501221
vt 0.8748779 0.9998779
vt 0.7501221 0.9998779
vt 0.5001221 0.7501221
vt 0.6248779 0.7501221
vt 0.6248779 0.9998779
vt 0.5001221 0.9998779
vt 0.3751221 0.7501221
vt 0.4998779 0.7501221
vt 0.4998779 0.9998779
vt 0.3751221 0.9998779
vt 0.1251221 0.7501221
vt 0.2498779 0.7501221
vt 0.2498779 0.9998779
vt 0.1251221 0.9998779
vt 0.2501221 0.5001221
vt 0.3748779 0.5001221
vt 0.3748779 0.7498779
vt 0.2501221 0.7498779
vt 0.0001220703 0.2501221
vt 0.1248779 0.2501221
vt 0.1248779 0.4998779
vt 0.0001220703 0.4998779
vt 0.1251221 0.2501221
vt 0.2498779 0.2501221
vt 0.2498779 0.4998779
vt 0.1251221 0.4998779
vt 0.0001220703 0.0001220703
vt 0.1248779 0.0001220703
vt 0.1248779 0.2498779
vt 0.0001220703 0.2498779
vt 0.1251221 0.0001220703
vt 0.2498779 0.0001220703
vt 0.2498779 0.2498779
vt 0.1251221 0.2498779

# Normal
vn 0 0 -1

# Groups (Count = 1)

g mesh_0001
f 1/1/1 2/2/1 3/3/1 4/4/1
f 2/5/1 5/6/1 6/7/1 3/8/1
f 7/9/1 8/10/1 1/11/1 9/12/1
f 8/13/1 10/14/1 2/15/1 1/16/1
f 10/17/1 11/18/1 5/19/1 2/20/1
f 12/21/1 13/22/1 14/23/1 15/24/1
f 13/21/1 16/22/1 17/23/1 14/24/1
f 18/25/1 19/26/1 20/27/1 21/28/1
f 22/21/1 23/22/1 24/23/1 25/24/1
f 23/21/1 26/22/1 27/23/1 24/24/1
f 28/29/1 29/30/1 30/31/1 31/32/1
f 32/21/1 33/22/1 34/23/1 35/24/1
f 33/21/1 36/22/1 37/23/1 34/24/1
f 38/25/1 39/26/1 40/27/1 41/28/1
f 42/21/1 43/22/1 44/23/1 45/24/1
f 43/21/1 46/22/1 47/23/1 44/24/1
f 46/21/1 48/22/1 49/23/1 47/24/1
f 50/33/1 51/34/1 52/35/1 53/36/1
f 51/33/1 54/34/1 55/35/1 52/36/1
f 56/21/1 57/22/1 58/23/1 59/24/1
f 60/21/1 61/22/1 62/23/1 63/24/1
f 61/21/1 64/22/1 65/23/1 62/24/1
f 66/21/1 67/22/1 68/23/1 69/24/1
f 67/21/1 70/22/1 71/23/1 68/24/1
f 72/37/1 73/38/1 74/39/1 75/40/1
f 73/25/1 76/26/1 77/27/1 74/28/1
f 78/21/1 79/22/1 80/23/1 81/24/1
f 82/33/1 83/34/1 84/35/1 85/36/1
f 83/33/1 86/34/1 87/35/1 84/36/1
f 88/21/1 89/22/1 90/23/1 91/24/1
f 89/21/1 92/22/1 93/23/1 90/24/1
f 94/25/1 95/26/1 96/27/1 97/28/1
f 95/37/1 98/38/1 99/39/1 96/40/1
f 100/21/1 101/22/1 102/23/1 103/24/1
f 104/21/1 105/22/1 106/23/1 107/24/1
f 105/21/1 108/22/1 109/23/1 106/24/1
f 110/29/1 111/30/1 112/31/1 113/32/1
f 114/41/1 115/42/1 8/43/1 7/44/1
f 115/41/1 116/42/1 10/43/1 8/44/1
f 116/41/1 117/42/1 11/43/1 10/44/1
f 117/41/1 118/42/1 12/43/1 11/44/1
f 118/41/1 119/42/1 13/43/1 12/44/1
f 119/41/1 120/42/1 16/43/1 13/44/1
f 120/41/1 121/42/1 18/43/1 16/44/1
f 121/41/1 122/42/1 19/43/1 18/44/1
f 122/41/1 123/42/1 22/43/1 19/44/1
f 123/41/1 124/42/1 23/43/1 22/44/1
f 124/41/1 125/42/1 26/43/1 23/44/1
f 125/41/1 126/42/1 28/43/1 26/44/1
f 126/41/1 127/42/1 29/43/1 28/44/1
f 127/41/1 128/42/1 32/43/1 29/44/1
f 128/41/1 129/42/1 33/43/1 32/44/1
f 129/41/1 130/42/1 36/43/1 33/44/1
f 130/41/1 131/42/1 38/43/1 36/44/1
f 131/41/1 132/42/1 39/43/1 38/44/1
f 132/41/1 133/42/1 42/43/1 39/44/1
f 133/41/1 134/42/1 43/43/1 42/44/1
f 134/41/1 135/42/1 46/43/1 43/44/1
f 135/41/1 136/42/1 48/43/1 46/44/1
f 136/41/1 137/42/1 50/43/1 48/44/1
f 137/41/1 138/42/1 51/43/1 50/44/1
f 138/41/1 139/42/1 54/43/1 51/44/1
f 139/41/1 140/42/1 56/43/1 54/44/1
f 140/41/1 141/42/1 57/43/1 56/44/1
f 141/41/1 142/42/1 143/43/1 57/44/1
f 144/21/1 145/22/1 146/23/1 147/24/1
f 148/21/1 149/22/1 150/23/1 151/24/1
f 152/41/1 153/42/1 66/43/1 154/44/1
f 153/41/1 155/42/1 67/43/1 66/44/1
f 155/41/1 156/42/1 70/43/1 67/44/1
f 156/41/1 157/42/1 72/43/1 70/44/1
f 157/41/1 158/42/1 73/43/1 72/44/1
f 158/41/1 159/42/1 76/43/1 73/44/1
f 159/41/1 160/42/1 78/43/1 76/44/1
f 160/41/1 161/42/1 79/43/1 78/44/1
f 161/41/1 162/42/1 82/43/1 79/44/1
f 162/41/1 163/42/1 83/43/1 82/44/1
f 163/41/1 164/42/1 86/43/1 83/44/1
f 164/41/1 165/42/1 88/43/1 86/44/1
f 165/41/1 166/42/1 89/43/1 88/44/1
f 166/41/1 167/42/1 92/43/1 89/44/1
f 167/41/1 168/42/1 94/43/1 92/44/1
f 168/41/1 169/42/1 95/43/1 94/44/1
f 169/41/1 170/42/1 98/43/1 95/44/1
f 170/41/1 171/42/1 100/43/1 98/44/1
f 171/41/1 172/42/1 101/43/1 100/44/1
f 172/41/1 173/42/1 174/43/1 101/44/1
f 173/37/1 175/38/1 176/39/1 174/40/1
f 175/25/1 177/26/1 178/27/1 176/28/1
f 177/33/1 179/34/1 180/35/1 178/36/1
f 181/21/1 182/22/1 183/23/1 184/24/1
f 182/21/1 185/22/1 186/23/1 183/24/1
f 187/21/1 188/22/1 189/23/1 190/24/1
f 188/21/1 191/22/1 192/23/1 189/24/1
f 193/21/1 194/22/1 195/23/1 196/24/1
f 197/41/1 198/42/1 104/43/1 199/44/1
f 198/41/1 200/42/1 105/43/1 104/44/1
f 200/41/1 201/42/1 108/43/1 105/44/1
f 201/41/1 202/42/1 110/43/1 108/44/1
f 202/41/1 203/42/1 111/43/1 110/44/1
f 204/41/1 205/42/1 144/43/1 142/44/1
f 205/41/1 206/42/1 145/43/1 144/44/1
f 206/41/1 207/42/1 208/43/1 145/44/1
f 207/45/1 209/46/1 210/47/1 208/48/1
f 209/45/1 211/46/1 212/47/1 210/48/1
f 211/45/1 213/46/1 214/47/1 212/48/1
f 213/45/1 215/46/1 216/47/1 214/48/1
f 215/41/1 217/42/1 148/43/1 216/44/1
f 217/41/1 218/42/1 149/43/1 148/44/1
f 218/41/1 219/42/1 152/43/1 149/44/1
f 220/41/1 221/42/1 175/43/1 173/44/1
f 221/41/1 222/42/1 177/43/1 175/44/1
f 222/41/1 223/42/1 179/43/1 177/44/1
f 223/41/1 224/42/1 181/43/1 179/44/1
f 224/41/1 225/42/1 182/43/1 181/44/1
f 225/41/1 226/42/1 185/43/1 182/44/1
f 226/41/1 227/42/1 228/43/1 185/44/1
f 227/45/1 229/46/1 230/47/1 228/48/1
f 229/45/1 231/46/1 232/47/1 230/48/1
f 231/45/1 233/46/1 187/47/1 232/48/1
f 233/41/1 234/42/1 188/43/1 187/44/1
f 234/41/1 235/42/1 191/43/1 188/44/1
f 235/45/1 236/46/1 237/47/1 191/48/1
f 236/45/1 238/46/1 239/47/1 237/48/1
f 238/45/1 240/46/1 241/47/1 239/48/1
f 240/41/1 242/42/1 193/43/1 241/44/1
f 242/41/1 243/42/1 194/43/1 193/44/1
f 243/41/1 244/42/1 197/43/1 194/44/1
f 245/49/1 246/50/1 247/51/1 248/52/1
f 246/53/1 249/54/1 250/55/1 247/56/1
f 251/21/1 252/22/1 253/23/1 254/24/1
f 255/25/1 256/26/1 257/27/1 258/28/1
f 259/21/1 260/22/1 261/23/1 262/24/1
f 260/21/1 263/22/1 264/23/1 261/24/1
f 265/37/1 266/38/1 267/39/1 268/40/1
f 269/21/1 270/22/1 271/23/1 272/24/1
f 270/21/1 273/22/1 274/23/1 271/24/1
f 275/25/1 276/26/1 277/27/1 278/28/1
f 279/21/1 280/22/1 281/23/1 282/24/1
f 280/21/1 283/22/1 284/23/1 281/24/1
f 285/21/1 286/22/1 287/23/1 288/24/1
f 289/33/1 290/34/1 291/35/1 292/36/1
f 293/21/1 294/22/1 295/23/1 296/24/1
f 294/21/1 297/22/1 298/23/1 295/24/1
f 299/33/1 300/34/1 301/35/1 302/36/1
f 303/21/1 304/22/1 305/23/1 306/24/1
f 307/21/1 308/22/1 309/23/1 310/24/1
f 311/21/1 312/22/1 313/23/1 314/24/1
f 315/21/1 316/22/1 317/23/1 318/24/1
f 316/21/1 319/22/1 320/23/1 317/24/1
f 321/21/1 322/22/1 323/23/1 324/24/1
f 325/29/1 326/30/1 327/31/1 328/32/1
f 326/29/1 329/30/1 330/31/1 327/32/1
f 331/21/1 332/22/1 333/23/1 334/24/1
f 332/21/1 335/22/1 336/23/1 333/24/1
f 335/21/1 337/22/1 338/23/1 336/24/1
f 337/21/1 339/22/1 340/23/1 338/24/1
f 341/57/1 342/58/1 246/59/1 245/60/1
f 342/61/1 343/62/1 249/63/1 246/64/1
f 344/21/1 345/22/1 346/23/1 347/24/1
f 348/37/1 349/38/1 350/39/1 351/40/1
f 349/33/1 352/34/1 353/35/1 350/36/1
f 354/21/1 355/22/1 356/23/1 357/24/1
f 355/21/1 358/22/1 359/23/1 356/24/1
f 358/21/1 360/22/1 361/23/1 359/24/1
f 362/37/1 363/38/1 364/39/1 365/40/1
f 363/25/1 366/26/1 367/27/1 364/28/1
f 366/33/1 368/34/1 369/35/1 367/36/1
f 368/41/1 370/42/1 251/43/1 369/44/1
f 370/41/1 371/42/1 252/43/1 251/44/1
f 371/41/1 372/42/1 255/43/1 252/44/1
f 372/41/1 373/42/1 256/43/1 255/44/1
f 373/41/1 374/42/1 259/43/1 256/44/1
f 374/41/1 375/42/1 260/43/1 259/44/1
f 375/41/1 376/42/1 263/43/1 260/44/1
f 376/41/1 377/42/1 265/43/1 263/44/1
f 377/41/1 378/42/1 266/43/1 265/44/1
f 378/41/1 379/42/1 269/43/1 266/44/1
f 379/41/1 380/42/1 270/43/1 269/44/1
f 380/41/1 381/42/1 273/43/1 270/44/1
f 381/41/1 382/42/1 275/43/1 273/44/1
f 382/41/1 383/42/1 276/43/1 275/44/1
f 383/41/1 384/42/1 279/43/1 276/44/1
f 384/41/1 385/42/1 280/43/1 279/44/1
f 385/41/1 386/42/1 283/43/1 280/44/1
f 386/41/1 387/42/1 388/43/1 283/44/1
f 389/21/1 390/22/1 391/23/1 392/24/1
f 393/21/1 394/22/1 395/23/1 396/24/1
f 397/21/1 398/22/1 399/23/1 400/24/1
f 401/41/1 402/42/1 285/43/1 403/44/1
f 402/41/1 404/42/1 286/43/1 285/44/1
f 404/41/1 405/42/1 289/43/1 286/44/1
f 405/41/1 406/42/1 290/43/1 289/44/1
f 406/41/1 407/42/1 293/43/1 290/44/1
f 407/41/1 408/42/1 294/43/1 293/44/1
f 408/41/1 409/42/1 297/43/1 294/44/1
f 409/41/1 410/42/1 299/43/1 297/44/1
f 410/41/1 411/42/1 300/43/1 299/44/1
f 411/41/1 412/42/1 303/43/1 300/44/1
f 412/41/1 413/42/1 304/43/1 303/44/1
f 413/41/1 414/42/1 415/43/1 304/44/1
f 416/41/1 417/42/1 308/43/1 307/44/1
f 418/41/1 419/42/1 311/43/1 420/44/1
f 419/41/1 421/42/1 312/43/1 311/44/1
f 421/41/1 422/42/1 423/43/1 312/44/1
f 424/41/1 425/42/1 316/43/1 315/44/1
f 425/41/1 426/42/1 319/43/1 316/44/1
f 427/41/1 428/42/1 321/43/1 429/44/1
f 428/41/1 430/42/1 322/43/1 321/44/1
f 430/41/1 431/42/1 325/43/1 322/44/1
f 431/41/1 432/42/1 326/43/1 325/44/1
f 432/41/1 433/42/1 329/43/1 326/44/1
f 433/41/1 434/42/1 435/43/1 329/44/1
f 434/41/1 436/42/1 331/43/1 435/44/1
f 436/41/1 437/42/1 332/43/1 331/44/1
f 437/41/1 438/42/1 335/43/1 332/44/1
f 438/41/1 439/42/1 337/43/1 335/44/1
f 439/41/1 440/42/1 339/43/1 337/44/1
f 440/41/1 441/42/1 341/43/1 339/44/1
f 441/41/1 442/42/1 342/43/1 341/44/1
f 442/41/1 443/42/1 343/43/1 342/44/1
f 444/41/1 445/42/1 344/43/1 446/44/1
f 445/41/1 447/42/1 345/43/1 344/44/1
f 447/41/1 448/42/1 348/43/1 345/44/1
f 448/41/1 449/42/1 349/43/1 348/44/1
f 449/41/1 450/42/1 352/43/1 349/44/1
f 450/41/1 451/42/1 354/43/1 352/44/1
f 451/41/1 452/42/1 355/43/1 354/44/1
f 452/41/1 453/42/1 358/43/1 355/44/1
f 453/41/1 454/42/1 360/43/1 358/44/1
f 454/41/1 455/42/1 362/43/1 360/44/1
f 455/41/1 456/42/1 363/43/1 362/44/1
f 456/41/1 457/42/1 366/43/1 363/44/1
f 457/41/1 458/42/1 368/43/1 366/44/1
f 459/41/1 460/42/1 389/43/1 387/44/1
f 460/41/1 461/42/1 390/43/1 389/44/1
f 461/41/1 462/42/1 463/43/1 390/44/1
f 462/45/1 464/46/1 465/47/1 463/48/1
f 464/45/1 466/46/1 467/47/1 465/48/1
f 466/45/1 468/46/1 469/47/1 467/48/1
f 468/41/1 470/42/1 393/43/1 469/44/1
f 470/41/1 471/42/1 394/43/1 393/44/1
f 471/41/1 472/42/1 473/43/1 394/44/1
f 472/45/1 474/46/1 475/47/1 473/48/1
f 474/45/1 476/46/1 477/47/1 475/48/1
f 476/45/1 478/46/1 479/47/1 477/48/1
f 478/41/1 480/42/1 397/43/1 479/44/1
f 480/41/1 481/42/1 398/43/1 397/44/1
f 481/41/1 482/42/1 401/43/1 398/44/1

