# Wavefront OBJ file automatically generated by Tiled2Unity

# Vertices (Count = 364)
v -80 -240 0
v -160 -240 0
v -160 -160 0
v -80 -160 0
v -240 -240 0
v -240 -160 0
v 0 -320 0
v -80 -320 0
v 0 -240 0
v -160 -320 0
v -240 -320 0
v -320 -320 0
v -400 -320 0
v -400 -240 0
v -320 -240 0
v -480 -320 0
v -480 -240 0
v -560 -320 0
v -560 -240 0
v -960 -320 0
v -1040 -320 0
v -1040 -240 0
v -960 -240 0
v -1120 -320 0
v -1120 -240 0
v -1520 -320 0
v -1600 -320 0
v -1600 -240 0
v -1520 -240 0
v -1680 -320 0
v -1680 -240 0
v -2000 -320 0
v -2080 -320 0
v -2080 -240 0
v -2000 -240 0
v -2400 -320 0
v -2480 -320 0
v -2480 -240 0
v -2400 -240 0
v -2560 -320 0
v -2560 -240 0
v -2800 -320 0
v -2880 -320 0
v -2880 -240 0
v -2800 -240 0
v -3280 -320 0
v -3360 -320 0
v -3360 -240 0
v -3280 -240 0
v -3440 -320 0
v -3440 -240 0
v -3520 -320 0
v -3600 -320 0
v -3600 -240 0
v -3520 -240 0
v -3680 -320 0
v -3760 -320 0
v -3760 -240 0
v -3680 -240 0
v -3840 -320 0
v -3920 -320 0
v -3920 -240 0
v -3840 -240 0
v -4000 -320 0
v -4080 -320 0
v -4080 -240 0
v -4000 -240 0
v -4160 -320 0
v -4160 -240 0
v -4240 -320 0
v -4320 -320 0
v -4320 -240 0
v -4240 -240 0
v -4400 -320 0
v -4400 -240 0
v -4480 -320 0
v -4560 -320 0
v -4560 -240 0
v -4480 -240 0
v -4640 -320 0
v -4640 -240 0
v 0 -400 0
v -80 -400 0
v -160 -400 0
v -240 -400 0
v -320 -400 0
v -400 -400 0
v -480 -400 0
v -560 -400 0
v -640 -400 0
v -640 -320 0
v -880 -400 0
v -960 -400 0
v -880 -320 0
v -1040 -400 0
v -1120 -400 0
v -1200 -400 0
v -1200 -320 0
v -1280 -400 0
v -1280 -320 0
v -1360 -400 0
v -1360 -320 0
v -1440 -400 0
v -1440 -320 0
v -1520 -400 0
v -1600 -400 0
v -1680 -400 0
v -1760 -400 0
v -1760 -320 0
v -1920 -400 0
v -2000 -400 0
v -1920 -320 0
v -2080 -400 0
v -2160 -400 0
v -2160 -320 0
v -2400 -400 0
v -2480 -400 0
v -2560 -400 0
v -2720 -400 0
v -2800 -400 0
v -2720 -320 0
v -2880 -400 0
v -2960 -400 0
v -2960 -320 0
v -3200 -400 0
v -3280 -400 0
v -3200 -320 0
v -3360 -400 0
v -3440 -400 0
v -3520 -400 0
v -3600 -400 0
v -3680 -400 0
v -3760 -400 0
v -3840 -400 0
v -3920 -400 0
v -4000 -400 0
v -4080 -400 0
v -4160 -400 0
v -4240 -400 0
v -4320 -400 0
v -4400 -400 0
v -4480 -400 0
v -4560 -400 0
v -4640 -400 0
v -4720 -400 0
v -4720 -320 0
v -4800 -400 0
v -4880 -400 0
v -4880 -320 0
v -4800 -320 0
v -8320 -400 0
v -8400 -400 0
v -8400 -320 0
v -8320 -320 0
v -8480 -400 0
v -8560 -400 0
v -8560 -320 0
v -8480 -320 0
v -8640 -400 0
v -8720 -400 0
v -8720 -320 0
v -8640 -320 0
v -8800 -400 0
v -8800 -320 0
v -8880 -400 0
v -8880 -320 0
v -8960 -400 0
v -9040 -400 0
v -9040 -320 0
v -8960 -320 0
v -9120 -400 0
v -9120 -320 0
v -9200 -400 0
v -9280 -400 0
v -9280 -320 0
v -9200 -320 0
v -9360 -400 0
v -9360 -320 0
v -9440 -400 0
v -9440 -320 0
v -9520 -400 0
v -9600 -400 0
v -9600 -320 0
v -9520 -320 0
v -9680 -400 0
v -9760 -400 0
v -9760 -320 0
v -9680 -320 0
v -9840 -400 0
v -9840 -320 0
v -9920 -400 0
v -9920 -320 0
v -10000 -400 0
v -10000 -320 0
v -10080 -400 0
v -10160 -400 0
v -10160 -320 0
v -10080 -320 0
v -10240 -400 0
v -10240 -320 0
v -10320 -400 0
v -10400 -400 0
v -10400 -320 0
v -10320 -320 0
v -10480 -400 0
v -10480 -320 0
v -10560 -400 0
v -10560 -320 0
v -10640 -400 0
v -10640 -320 0
v -10720 -400 0
v -10720 -320 0
v -4720 -480 0
v -4800 -480 0
v -4880 -480 0
v -4960 -480 0
v -4960 -400 0
v -5040 -480 0
v -5120 -480 0
v -5120 -400 0
v -5040 -400 0
v -8000 -480 0
v -8080 -480 0
v -8080 -400 0
v -8000 -400 0
v -8160 -480 0
v -8160 -400 0
v -8240 -480 0
v -8320 -480 0
v -8240 -400 0
v -8400 -480 0
v -8480 -480 0
v -8560 -480 0
v -8640 -480 0
v -8720 -480 0
v -8800 -480 0
v -8880 -480 0
v -8960 -480 0
v -9040 -480 0
v -9120 -480 0
v -9200 -480 0
v -9280 -480 0
v -9360 -480 0
v -9440 -480 0
v -9520 -480 0
v -9600 -480 0
v -9680 -480 0
v -9760 -480 0
v -9840 -480 0
v -9920 -480 0
v -10000 -480 0
v -10080 -480 0
v -10160 -480 0
v -10240 -480 0
v -10320 -480 0
v -10400 -480 0
v -10480 -480 0
v -10560 -480 0
v -10640 -480 0
v -10720 -480 0
v -10800 -480 0
v -10800 -400 0
v -4960 -560 0
v -5040 -560 0
v -5120 -560 0
v -5200 -560 0
v -5200 -480 0
v -5280 -560 0
v -5280 -480 0
v -5360 -560 0
v -5360 -480 0
v -7200 -560 0
v -7280 -560 0
v -7280 -480 0
v -7200 -480 0
v -7360 -560 0
v -7360 -480 0
v -7760 -560 0
v -7840 -560 0
v -7840 -480 0
v -7760 -480 0
v -7920 -560 0
v -8000 -560 0
v -7920 -480 0
v -8080 -560 0
v -8160 -560 0
v -8240 -560 0
v -5200 -640 0
v -5280 -640 0
v -5360 -640 0
v -5440 -640 0
v -5440 -560 0
v -5520 -640 0
v -5600 -640 0
v -5600 -560 0
v -5520 -560 0
v -5680 -640 0
v -5680 -560 0
v -6880 -640 0
v -6960 -640 0
v -6960 -560 0
v -6880 -560 0
v -7040 -640 0
v -7040 -560 0
v -7120 -640 0
v -7200 -640 0
v -7120 -560 0
v -7280 -640 0
v -7360 -640 0
v -7440 -640 0
v -7440 -560 0
v -7520 -640 0
v -7520 -560 0
v -7600 -640 0
v -7600 -560 0
v -7680 -640 0
v -7680 -560 0
v -7760 -640 0
v -7840 -640 0
v -7920 -640 0
v -5440 -720 0
v -5520 -720 0
v -5600 -720 0
v -5680 -720 0
v -5760 -720 0
v -5760 -640 0
v -6000 -720 0
v -6080 -720 0
v -6080 -640 0
v -6000 -640 0
v -6160 -720 0
v -6160 -640 0
v -6240 -720 0
v -6240 -640 0
v -6640 -720 0
v -6720 -720 0
v -6720 -640 0
v -6640 -640 0
v -6800 -720 0
v -6880 -720 0
v -6800 -640 0
v -6960 -720 0
v -7040 -720 0
v -7120 -720 0
v -5760 -800 0
v -5840 -800 0
v -5840 -720 0
v -5920 -800 0
v -5920 -720 0
v -6000 -800 0
v -6080 -800 0
v -6160 -800 0
v -6240 -800 0
v -6320 -800 0
v -6320 -720 0
v -6400 -800 0
v -6400 -720 0
v -6480 -800 0
v -6480 -720 0
v -6560 -800 0
v -6560 -720 0
v -6640 -800 0
v -6720 -800 0
v -6800 -800 0

# Texture cooridinates (Count = 48)
vt 0.2501221 0.2501221
vt 0.3748779 0.2501221
vt 0.3748779 0.4998779
vt 0.2501221 0.4998779
vt 0.3751221 0.2501221
vt 0.4998779 0.2501221
vt 0.4998779 0.4998779
vt 0.3751221 0.4998779
vt 0.0001220703 0.7501221
vt 0.1248779 0.7501221
vt 0.1248779 0.9998779
vt 0.0001220703 0.9998779
vt 0.2501221 0.0001220703
vt 0.3748779 0.0001220703
vt 0.3748779 0.2498779
vt 0.2501221 0.2498779
vt 0.3751221 0.0001220703
vt 0.4998779 0.0001220703
vt 0.4998779 0.2498779
vt 0.3751221 0.2498779
vt 0.2501221 0.7501221
vt 0.3748779 0.7501221
vt 0.3748779 0.9998779
vt 0.2501221 0.9998779
vt 0.6251221 0.7501221
vt 0.7498779 0.7501221
vt 0.7498779 0.9998779
vt 0.6251221 0.9998779
vt 0.7501221 0.7501221
vt 0.8748779 0.7501221
vt 0.8748779 0.9998779
vt 0.7501221 0.9998779
vt 0.1251221 0.7501221
vt 0.2498779 0.7501221
vt 0.2498779 0.9998779
vt 0.1251221 0.9998779
vt 0.2501221 0.5001221
vt 0.3748779 0.5001221
vt 0.3748779 0.7498779
vt 0.2501221 0.7498779
vt 0.3751221 0.7501221
vt 0.4998779 0.7501221
vt 0.4998779 0.9998779
vt 0.3751221 0.9998779
vt 0.5001221 0.7501221
vt 0.6248779 0.7501221
vt 0.6248779 0.9998779
vt 0.5001221 0.9998779

# Normal
vn 0 0 -1

# Groups (Count = 1)

g mesh_0001
f 1/1/1 2/2/1 3/3/1 4/4/1
f 2/5/1 5/6/1 6/7/1 3/8/1
f 7/9/1 8/10/1 1/11/1 9/12/1
f 8/13/1 10/14/1 2/15/1 1/16/1
f 10/17/1 11/18/1 5/19/1 2/20/1
f 12/21/1 13/22/1 14/23/1 15/24/1
f 13/21/1 16/22/1 17/23/1 14/24/1
f 16/21/1 18/22/1 19/23/1 17/24/1
f 20/21/1 21/22/1 22/23/1 23/24/1
f 21/21/1 24/22/1 25/23/1 22/24/1
f 26/21/1 27/22/1 28/23/1 29/24/1
f 27/21/1 30/22/1 31/23/1 28/24/1
f 32/21/1 33/22/1 34/23/1 35/24/1
f 36/21/1 37/22/1 38/23/1 39/24/1
f 37/21/1 40/22/1 41/23/1 38/24/1
f 42/21/1 43/22/1 44/23/1 45/24/1
f 46/21/1 47/22/1 48/23/1 49/24/1
f 47/21/1 50/22/1 51/23/1 48/24/1
f 52/25/1 53/26/1 54/27/1 55/28/1
f 56/21/1 57/22/1 58/23/1 59/24/1
f 60/29/1 61/30/1 62/31/1 63/32/1
f 64/21/1 65/22/1 66/23/1 67/24/1
f 65/21/1 68/22/1 69/23/1 66/24/1
f 70/25/1 71/26/1 72/27/1 73/28/1
f 71/25/1 74/26/1 75/27/1 72/28/1
f 76/21/1 77/22/1 78/23/1 79/24/1
f 77/21/1 80/22/1 81/23/1 78/24/1
f 82/33/1 83/34/1 8/35/1 7/36/1
f 83/33/1 84/34/1 10/35/1 8/36/1
f 84/33/1 85/34/1 11/35/1 10/36/1
f 85/33/1 86/34/1 12/35/1 11/36/1
f 86/33/1 87/34/1 13/35/1 12/36/1
f 87/33/1 88/34/1 16/35/1 13/36/1
f 88/33/1 89/34/1 18/35/1 16/36/1
f 89/33/1 90/34/1 91/35/1 18/36/1
f 92/33/1 93/34/1 20/35/1 94/36/1
f 93/33/1 95/34/1 21/35/1 20/36/1
f 95/33/1 96/34/1 24/35/1 21/36/1
f 96/33/1 97/34/1 98/35/1 24/36/1
f 97/37/1 99/38/1 100/39/1 98/40/1
f 99/37/1 101/38/1 102/39/1 100/40/1
f 101/37/1 103/38/1 104/39/1 102/40/1
f 103/33/1 105/34/1 26/35/1 104/36/1
f 105/33/1 106/34/1 27/35/1 26/36/1
f 106/33/1 107/34/1 30/35/1 27/36/1
f 107/33/1 108/34/1 109/35/1 30/36/1
f 110/33/1 111/34/1 32/35/1 112/36/1
f 111/33/1 113/34/1 33/35/1 32/36/1
f 113/33/1 114/34/1 115/35/1 33/36/1
f 116/33/1 117/34/1 37/35/1 36/36/1
f 117/33/1 118/34/1 40/35/1 37/36/1
f 119/33/1 120/34/1 42/35/1 121/36/1
f 120/33/1 122/34/1 43/35/1 42/36/1
f 122/33/1 123/34/1 124/35/1 43/36/1
f 125/33/1 126/34/1 46/35/1 127/36/1
f 126/33/1 128/34/1 47/35/1 46/36/1
f 128/33/1 129/34/1 50/35/1 47/36/1
f 129/33/1 130/34/1 52/35/1 50/36/1
f 130/33/1 131/34/1 53/35/1 52/36/1
f 131/33/1 132/34/1 56/35/1 53/36/1
f 132/33/1 133/34/1 57/35/1 56/36/1
f 133/33/1 134/34/1 60/35/1 57/36/1
f 134/33/1 135/34/1 61/35/1 60/36/1
f 135/33/1 136/34/1 64/35/1 61/36/1
f 136/33/1 137/34/1 65/35/1 64/36/1
f 137/33/1 138/34/1 68/35/1 65/36/1
f 138/33/1 139/34/1 70/35/1 68/36/1
f 139/33/1 140/34/1 71/35/1 70/36/1
f 140/33/1 141/34/1 74/35/1 71/36/1
f 141/33/1 142/34/1 76/35/1 74/36/1
f 142/33/1 143/34/1 77/35/1 76/36/1
f 143/33/1 144/34/1 80/35/1 77/36/1
f 144/33/1 145/34/1 146/35/1 80/36/1
f 147/21/1 148/22/1 149/23/1 150/24/1
f 151/21/1 152/22/1 153/23/1 154/24/1
f 155/29/1 156/30/1 157/31/1 158/32/1
f 159/21/1 160/22/1 161/23/1 162/24/1
f 160/21/1 163/22/1 164/23/1 161/24/1
f 163/21/1 165/22/1 166/23/1 164/24/1
f 167/41/1 168/42/1 169/43/1 170/44/1
f 168/45/1 171/46/1 172/47/1 169/48/1
f 173/21/1 174/22/1 175/23/1 176/24/1
f 174/21/1 177/22/1 178/23/1 175/24/1
f 177/21/1 179/22/1 180/23/1 178/24/1
f 181/29/1 182/30/1 183/31/1 184/32/1
f 185/21/1 186/22/1 187/23/1 188/24/1
f 186/21/1 189/22/1 190/23/1 187/24/1
f 189/21/1 191/22/1 192/23/1 190/24/1
f 191/21/1 193/22/1 194/23/1 192/24/1
f 195/25/1 196/26/1 197/27/1 198/28/1
f 196/25/1 199/26/1 200/27/1 197/28/1
f 201/21/1 202/22/1 203/23/1 204/24/1
f 202/21/1 205/22/1 206/23/1 203/24/1
f 205/21/1 207/22/1 208/23/1 206/24/1
f 207/21/1 209/22/1 210/23/1 208/24/1
f 209/21/1 211/22/1 212/23/1 210/24/1
f 213/33/1 214/34/1 147/35/1 145/36/1
f 214/33/1 215/34/1 148/35/1 147/36/1
f 215/33/1 216/34/1 217/35/1 148/36/1
f 218/21/1 219/22/1 220/23/1 221/24/1
f 222/21/1 223/22/1 224/23/1 225/24/1
f 223/21/1 226/22/1 227/23/1 224/24/1
f 228/33/1 229/34/1 151/35/1 230/36/1
f 229/33/1 231/34/1 152/35/1 151/36/1
f 231/33/1 232/34/1 155/35/1 152/36/1
f 232/33/1 233/34/1 156/35/1 155/36/1
f 233/33/1 234/34/1 159/35/1 156/36/1
f 234/33/1 235/34/1 160/35/1 159/36/1
f 235/33/1 236/34/1 163/35/1 160/36/1
f 236/33/1 237/34/1 165/35/1 163/36/1
f 237/33/1 238/34/1 167/35/1 165/36/1
f 238/33/1 239/34/1 168/35/1 167/36/1
f 239/33/1 240/34/1 171/35/1 168/36/1
f 240/33/1 241/34/1 173/35/1 171/36/1
f 241/33/1 242/34/1 174/35/1 173/36/1
f 242/33/1 243/34/1 177/35/1 174/36/1
f 243/33/1 244/34/1 179/35/1 177/36/1
f 244/33/1 245/34/1 181/35/1 179/36/1
f 245/33/1 246/34/1 182/35/1 181/36/1
f 246/33/1 247/34/1 185/35/1 182/36/1
f 247/33/1 248/34/1 186/35/1 185/36/1
f 248/33/1 249/34/1 189/35/1 186/36/1
f 249/33/1 250/34/1 191/35/1 189/36/1
f 250/33/1 251/34/1 193/35/1 191/36/1
f 251/33/1 252/34/1 195/35/1 193/36/1
f 252/33/1 253/34/1 196/35/1 195/36/1
f 253/33/1 254/34/1 199/35/1 196/36/1
f 254/33/1 255/34/1 201/35/1 199/36/1
f 255/33/1 256/34/1 202/35/1 201/36/1
f 256/33/1 257/34/1 205/35/1 202/36/1
f 257/33/1 258/34/1 207/35/1 205/36/1
f 258/33/1 259/34/1 209/35/1 207/36/1
f 259/33/1 260/34/1 211/35/1 209/36/1
f 260/33/1 261/34/1 262/35/1 211/36/1
f 263/33/1 264/34/1 218/35/1 216/36/1
f 264/33/1 265/34/1 219/35/1 218/36/1
f 265/33/1 266/34/1 267/35/1 219/36/1
f 266/29/1 268/30/1 269/31/1 267/32/1
f 268/45/1 270/46/1 271/47/1 269/48/1
f 272/21/1 273/22/1 274/23/1 275/24/1
f 273/21/1 276/22/1 277/23/1 274/24/1
f 278/21/1 279/22/1 280/23/1 281/24/1
f 282/33/1 283/34/1 222/35/1 284/36/1
f 283/33/1 285/34/1 223/35/1 222/36/1
f 285/33/1 286/34/1 226/35/1 223/36/1
f 286/33/1 287/34/1 228/35/1 226/36/1
f 288/33/1 289/34/1 268/35/1 266/36/1
f 289/33/1 290/34/1 270/35/1 268/36/1
f 290/33/1 291/34/1 292/35/1 270/36/1
f 293/21/1 294/22/1 295/23/1 296/24/1
f 294/21/1 297/22/1 298/23/1 295/24/1
f 299/21/1 300/22/1 301/23/1 302/24/1
f 300/21/1 303/22/1 304/23/1 301/24/1
f 305/33/1 306/34/1 272/35/1 307/36/1
f 306/33/1 308/34/1 273/35/1 272/36/1
f 308/33/1 309/34/1 276/35/1 273/36/1
f 309/33/1 310/34/1 311/35/1 276/36/1
f 310/37/1 312/38/1 313/39/1 311/40/1
f 312/37/1 314/38/1 315/39/1 313/40/1
f 314/37/1 316/38/1 317/39/1 315/40/1
f 316/33/1 318/34/1 278/35/1 317/36/1
f 318/33/1 319/34/1 279/35/1 278/36/1
f 319/33/1 320/34/1 282/35/1 279/36/1
f 321/33/1 322/34/1 293/35/1 291/36/1
f 322/33/1 323/34/1 294/35/1 293/36/1
f 323/33/1 324/34/1 297/35/1 294/36/1
f 324/33/1 325/34/1 326/35/1 297/36/1
f 327/21/1 328/22/1 329/23/1 330/24/1
f 328/21/1 331/22/1 332/23/1 329/24/1
f 331/21/1 333/22/1 334/23/1 332/24/1
f 335/21/1 336/22/1 337/23/1 338/24/1
f 339/33/1 340/34/1 299/35/1 341/36/1
f 340/33/1 342/34/1 300/35/1 299/36/1
f 342/33/1 343/34/1 303/35/1 300/36/1
f 343/33/1 344/34/1 305/35/1 303/36/1
f 345/37/1 346/38/1 347/39/1 325/40/1
f 346/37/1 348/38/1 349/39/1 347/40/1
f 348/33/1 350/34/1 327/35/1 349/36/1
f 350/33/1 351/34/1 328/35/1 327/36/1
f 351/33/1 352/34/1 331/35/1 328/36/1
f 352/33/1 353/34/1 333/35/1 331/36/1
f 353/33/1 354/34/1 355/35/1 333/36/1
f 354/37/1 356/38/1 357/39/1 355/40/1
f 356/37/1 358/38/1 359/39/1 357/40/1
f 358/37/1 360/38/1 361/39/1 359/40/1
f 360/33/1 362/34/1 335/35/1 361/36/1
f 362/33/1 363/34/1 336/35/1 335/36/1
f 363/33/1 364/34/1 339/35/1 336/36/1

