# Wavefront OBJ file automatically generated by Tiled2Unity

# Vertices (Count = 327)
v -9360 -240 0
v -9440 -240 0
v -9440 -160 0
v -9360 -160 0
v -9520 -240 0
v -9520 -160 0
v -80 -320 0
v -160 -320 0
v -160 -240 0
v -80 -240 0
v -8560 -320 0
v -8640 -320 0
v -8640 -240 0
v -8560 -240 0
v -8720 -320 0
v -8800 -320 0
v -8800 -240 0
v -8720 -240 0
v -8880 -320 0
v -8960 -320 0
v -8960 -240 0
v -8880 -240 0
v -9040 -320 0
v -9120 -320 0
v -9120 -240 0
v -9040 -240 0
v -9200 -320 0
v -9280 -320 0
v -9280 -240 0
v -9200 -240 0
v -9360 -320 0
v -9440 -320 0
v -9520 -320 0
v -9600 -320 0
v -9600 -240 0
v 0 -400 0
v -80 -400 0
v 0 -320 0
v -160 -400 0
v -240 -400 0
v -240 -320 0
v -320 -400 0
v -320 -320 0
v -400 -400 0
v -480 -400 0
v -480 -320 0
v -400 -320 0
v -3120 -400 0
v -3200 -400 0
v -3200 -320 0
v -3120 -320 0
v -3280 -400 0
v -3280 -320 0
v -3680 -400 0
v -3760 -400 0
v -3760 -320 0
v -3680 -320 0
v -4160 -400 0
v -4240 -400 0
v -4240 -320 0
v -4160 -320 0
v -8480 -400 0
v -8560 -400 0
v -8480 -320 0
v -8640 -400 0
v -8720 -400 0
v -8800 -400 0
v -8880 -400 0
v -8960 -400 0
v -9040 -400 0
v -9120 -400 0
v -9200 -400 0
v -9280 -400 0
v -9360 -400 0
v -9440 -400 0
v -9520 -400 0
v -9600 -400 0
v -240 -480 0
v -320 -480 0
v -400 -480 0
v -480 -480 0
v -560 -480 0
v -560 -400 0
v -640 -480 0
v -720 -480 0
v -720 -400 0
v -640 -400 0
v -800 -480 0
v -800 -400 0
v -2800 -480 0
v -2880 -480 0
v -2880 -400 0
v -2800 -400 0
v -2960 -480 0
v -3040 -480 0
v -3040 -400 0
v -2960 -400 0
v -3120 -480 0
v -3200 -480 0
v -3280 -480 0
v -3360 -480 0
v -3360 -400 0
v -3600 -480 0
v -3680 -480 0
v -3600 -400 0
v -3760 -480 0
v -3840 -480 0
v -3840 -400 0
v -4080 -480 0
v -4160 -480 0
v -4080 -400 0
v -4240 -480 0
v -4320 -480 0
v -4320 -400 0
v -7120 -480 0
v -7200 -480 0
v -7200 -400 0
v -7120 -400 0
v -7280 -480 0
v -7280 -400 0
v -7360 -480 0
v -7440 -480 0
v -7440 -400 0
v -7360 -400 0
v -7520 -480 0
v -7520 -400 0
v -7600 -480 0
v -7680 -480 0
v -7680 -400 0
v -7600 -400 0
v -7760 -480 0
v -7760 -400 0
v -7840 -480 0
v -7920 -480 0
v -7920 -400 0
v -7840 -400 0
v -8000 -480 0
v -8000 -400 0
v -8080 -480 0
v -8160 -480 0
v -8160 -400 0
v -8080 -400 0
v -8240 -480 0
v -8240 -400 0
v -8320 -480 0
v -8320 -400 0
v -560 -560 0
v -640 -560 0
v -720 -560 0
v -800 -560 0
v -880 -560 0
v -880 -480 0
v -960 -560 0
v -960 -480 0
v -1040 -560 0
v -1120 -560 0
v -1120 -480 0
v -1040 -480 0
v -2640 -560 0
v -2720 -560 0
v -2720 -480 0
v -2640 -480 0
v -2800 -560 0
v -2880 -560 0
v -2960 -560 0
v -3040 -560 0
v -4480 -560 0
v -4560 -560 0
v -4560 -480 0
v -4480 -480 0
v -7040 -560 0
v -7120 -560 0
v -7040 -480 0
v -7200 -560 0
v -7280 -560 0
v -7360 -560 0
v -7440 -560 0
v -7520 -560 0
v -7600 -560 0
v -7680 -560 0
v -7760 -560 0
v -7840 -560 0
v -7920 -560 0
v -8000 -560 0
v -8080 -560 0
v -8160 -560 0
v -8240 -560 0
v -8320 -560 0
v -8400 -560 0
v -8400 -480 0
v -880 -640 0
v -960 -640 0
v -1040 -640 0
v -1120 -640 0
v -1200 -640 0
v -1200 -560 0
v -1280 -640 0
v -1360 -640 0
v -1360 -560 0
v -1280 -560 0
v -1440 -640 0
v -1440 -560 0
v -2320 -640 0
v -2400 -640 0
v -2400 -560 0
v -2320 -560 0
v -2480 -640 0
v -2560 -640 0
v -2560 -560 0
v -2480 -560 0
v -2640 -640 0
v -2720 -640 0
v -2800 -640 0
v -4400 -640 0
v -4480 -640 0
v -4400 -560 0
v -4560 -640 0
v -4640 -640 0
v -4640 -560 0
v -5760 -640 0
v -5840 -640 0
v -5840 -560 0
v -5760 -560 0
v -5920 -640 0
v -5920 -560 0
v -6000 -640 0
v -6080 -640 0
v -6080 -560 0
v -6000 -560 0
v -6160 -640 0
v -6160 -560 0
v -6240 -640 0
v -6240 -560 0
v -6320 -640 0
v -6400 -640 0
v -6400 -560 0
v -6320 -560 0
v -6480 -640 0
v -6480 -560 0
v -6560 -640 0
v -6560 -560 0
v -1200 -720 0
v -1280 -720 0
v -1360 -720 0
v -1440 -720 0
v -1520 -720 0
v -1520 -640 0
v -1600 -720 0
v -1680 -720 0
v -1680 -640 0
v -1600 -640 0
v -1760 -720 0
v -1760 -640 0
v -2160 -720 0
v -2240 -720 0
v -2240 -640 0
v -2160 -640 0
v -2320 -720 0
v -2400 -720 0
v -2480 -720 0
v -2560 -720 0
v -4800 -720 0
v -4880 -720 0
v -4880 -640 0
v -4800 -640 0
v -4960 -720 0
v -5040 -720 0
v -5040 -640 0
v -4960 -640 0
v -5120 -720 0
v -5120 -640 0
v -5200 -720 0
v -5280 -720 0
v -5280 -640 0
v -5200 -640 0
v -5360 -720 0
v -5360 -640 0
v -5680 -720 0
v -5760 -720 0
v -5680 -640 0
v -5840 -720 0
v -5920 -720 0
v -6000 -720 0
v -6080 -720 0
v -6160 -720 0
v -6240 -720 0
v -6320 -720 0
v -6400 -720 0
v -6480 -720 0
v -6560 -720 0
v -6640 -720 0
v -6640 -640 0
v -6720 -720 0
v -6720 -640 0
v -6800 -720 0
v -6800 -640 0
v -6880 -720 0
v -6880 -640 0
v -6960 -720 0
v -6960 -640 0
v -1520 -800 0
v -1600 -800 0
v -1680 -800 0
v -1760 -800 0
v -1840 -800 0
v -1840 -720 0
v -1920 -800 0
v -1920 -720 0
v -2000 -800 0
v -2000 -720 0
v -2080 -800 0
v -2080 -720 0
v -2160 -800 0
v -2240 -800 0
v -2320 -800 0
v -4720 -800 0
v -4800 -800 0
v -4720 -720 0
v -4880 -800 0
v -4960 -800 0
v -5040 -800 0
v -5120 -800 0
v -5200 -800 0
v -5280 -800 0
v -5360 -800 0
v -5440 -800 0
v -5440 -720 0

# Texture cooridinates (Count = 48)
vt 0.0001220703 0.2501221
vt 0.1248779 0.2501221
vt 0.1248779 0.4998779
vt 0.0001220703 0.4998779
vt 0.1251221 0.2501221
vt 0.2498779 0.2501221
vt 0.2498779 0.4998779
vt 0.1251221 0.4998779
vt 0.2501221 0.7501221
vt 0.3748779 0.7501221
vt 0.3748779 0.9998779
vt 0.2501221 0.9998779
vt 0.6251221 0.7501221
vt 0.7498779 0.7501221
vt 0.7498779 0.9998779
vt 0.6251221 0.9998779
vt 0.7501221 0.7501221
vt 0.8748779 0.7501221
vt 0.8748779 0.9998779
vt 0.7501221 0.9998779
vt 0.0001220703 0.0001220703
vt 0.1248779 0.0001220703
vt 0.1248779 0.2498779
vt 0.0001220703 0.2498779
vt 0.1251221 0.0001220703
vt 0.2498779 0.0001220703
vt 0.2498779 0.2498779
vt 0.1251221 0.2498779
vt 0.0001220703 0.7501221
vt 0.1248779 0.7501221
vt 0.1248779 0.9998779
vt 0.0001220703 0.9998779
vt 0.1251221 0.7501221
vt 0.2498779 0.7501221
vt 0.2498779 0.9998779
vt 0.1251221 0.9998779
vt 0.5001221 0.7501221
vt 0.6248779 0.7501221
vt 0.6248779 0.9998779
vt 0.5001221 0.9998779
vt 0.3751221 0.7501221
vt 0.4998779 0.7501221
vt 0.4998779 0.9998779
vt 0.3751221 0.9998779
vt 0.2501221 0.5001221
vt 0.3748779 0.5001221
vt 0.3748779 0.7498779
vt 0.2501221 0.7498779

# Normal
vn 0 0 -1

# Groups (Count = 1)

g mesh_0001
f 1/1/1 2/2/1 3/3/1 4/4/1
f 2/5/1 5/6/1 6/7/1 3/8/1
f 7/9/1 8/10/1 9/11/1 10/12/1
f 11/9/1 12/10/1 13/11/1 14/12/1
f 15/13/1 16/14/1 17/15/1 18/16/1
f 19/9/1 20/10/1 21/11/1 22/12/1
f 23/17/1 24/18/1 25/19/1 26/20/1
f 27/9/1 28/10/1 29/11/1 30/12/1
f 31/21/1 32/22/1 2/23/1 1/24/1
f 32/25/1 33/26/1 5/27/1 2/28/1
f 33/29/1 34/30/1 35/31/1 5/32/1
f 36/33/1 37/34/1 7/35/1 38/36/1
f 37/33/1 39/34/1 8/35/1 7/36/1
f 39/33/1 40/34/1 41/35/1 8/36/1
f 40/13/1 42/14/1 43/15/1 41/16/1
f 44/9/1 45/10/1 46/11/1 47/12/1
f 48/9/1 49/10/1 50/11/1 51/12/1
f 49/9/1 52/10/1 53/11/1 50/12/1
f 54/9/1 55/10/1 56/11/1 57/12/1
f 58/9/1 59/10/1 60/11/1 61/12/1
f 62/33/1 63/34/1 11/35/1 64/36/1
f 63/33/1 65/34/1 12/35/1 11/36/1
f 65/33/1 66/34/1 15/35/1 12/36/1
f 66/33/1 67/34/1 16/35/1 15/36/1
f 67/33/1 68/34/1 19/35/1 16/36/1
f 68/33/1 69/34/1 20/35/1 19/36/1
f 69/33/1 70/34/1 23/35/1 20/36/1
f 70/33/1 71/34/1 24/35/1 23/36/1
f 71/33/1 72/34/1 27/35/1 24/36/1
f 72/33/1 73/34/1 28/35/1 27/36/1
f 73/33/1 74/34/1 31/35/1 28/36/1
f 74/33/1 75/34/1 32/35/1 31/36/1
f 75/33/1 76/34/1 33/35/1 32/36/1
f 76/33/1 77/34/1 34/35/1 33/36/1
f 78/33/1 79/34/1 42/35/1 40/36/1
f 79/33/1 80/34/1 44/35/1 42/36/1
f 80/33/1 81/34/1 45/35/1 44/36/1
f 81/33/1 82/34/1 83/35/1 45/36/1
f 84/9/1 85/10/1 86/11/1 87/12/1
f 85/9/1 88/10/1 89/11/1 86/12/1
f 90/13/1 91/14/1 92/15/1 93/16/1
f 94/9/1 95/10/1 96/11/1 97/12/1
f 95/33/1 98/34/1 48/35/1 96/36/1
f 98/33/1 99/34/1 49/35/1 48/36/1
f 99/33/1 100/34/1 52/35/1 49/36/1
f 100/33/1 101/34/1 102/35/1 52/36/1
f 103/33/1 104/34/1 54/35/1 105/36/1
f 104/33/1 106/34/1 55/35/1 54/36/1
f 106/33/1 107/34/1 108/35/1 55/36/1
f 109/33/1 110/34/1 58/35/1 111/36/1
f 110/33/1 112/34/1 59/35/1 58/36/1
f 112/33/1 113/34/1 114/35/1 59/36/1
f 115/9/1 116/10/1 117/11/1 118/12/1
f 116/9/1 119/10/1 120/11/1 117/12/1
f 121/13/1 122/14/1 123/15/1 124/16/1
f 122/13/1 125/14/1 126/15/1 123/16/1
f 127/9/1 128/10/1 129/11/1 130/12/1
f 128/9/1 131/10/1 132/11/1 129/12/1
f 133/37/1 134/38/1 135/39/1 136/40/1
f 134/37/1 137/38/1 138/39/1 135/40/1
f 139/9/1 140/10/1 141/11/1 142/12/1
f 140/9/1 143/10/1 144/11/1 141/12/1
f 143/9/1 145/10/1 146/11/1 144/12/1
f 147/33/1 148/34/1 84/35/1 82/36/1
f 148/33/1 149/34/1 85/35/1 84/36/1
f 149/33/1 150/34/1 88/35/1 85/36/1
f 150/33/1 151/34/1 152/35/1 88/36/1
f 151/37/1 153/38/1 154/39/1 152/40/1
f 155/9/1 156/10/1 157/11/1 158/12/1
f 159/9/1 160/10/1 161/11/1 162/12/1
f 163/33/1 164/34/1 91/35/1 90/36/1
f 164/33/1 165/34/1 94/35/1 91/36/1
f 165/33/1 166/34/1 95/35/1 94/36/1
f 167/9/1 168/10/1 169/11/1 170/12/1
f 171/33/1 172/34/1 115/35/1 173/36/1
f 172/33/1 174/34/1 116/35/1 115/36/1
f 174/33/1 175/34/1 119/35/1 116/36/1
f 175/33/1 176/34/1 121/35/1 119/36/1
f 176/33/1 177/34/1 122/35/1 121/36/1
f 177/33/1 178/34/1 125/35/1 122/36/1
f 178/33/1 179/34/1 127/35/1 125/36/1
f 179/33/1 180/34/1 128/35/1 127/36/1
f 180/33/1 181/34/1 131/35/1 128/36/1
f 181/33/1 182/34/1 133/35/1 131/36/1
f 182/33/1 183/34/1 134/35/1 133/36/1
f 183/33/1 184/34/1 137/35/1 134/36/1
f 184/33/1 185/34/1 139/35/1 137/36/1
f 185/33/1 186/34/1 140/35/1 139/36/1
f 186/33/1 187/34/1 143/35/1 140/36/1
f 187/33/1 188/34/1 145/35/1 143/36/1
f 188/33/1 189/34/1 190/35/1 145/36/1
f 191/33/1 192/34/1 153/35/1 151/36/1
f 192/33/1 193/34/1 155/35/1 153/36/1
f 193/33/1 194/34/1 156/35/1 155/36/1
f 194/33/1 195/34/1 196/35/1 156/36/1
f 197/9/1 198/10/1 199/11/1 200/12/1
f 198/9/1 201/10/1 202/11/1 199/12/1
f 203/9/1 204/10/1 205/11/1 206/12/1
f 207/41/1 208/42/1 209/43/1 210/44/1
f 208/33/1 211/34/1 159/35/1 209/36/1
f 211/33/1 212/34/1 160/35/1 159/36/1
f 212/33/1 213/34/1 163/35/1 160/36/1
f 214/33/1 215/34/1 167/35/1 216/36/1
f 215/33/1 217/34/1 168/35/1 167/36/1
f 217/33/1 218/34/1 219/35/1 168/36/1
f 220/9/1 221/10/1 222/11/1 223/12/1
f 221/9/1 224/10/1 225/11/1 222/12/1
f 226/41/1 227/42/1 228/43/1 229/44/1
f 227/17/1 230/18/1 231/19/1 228/20/1
f 230/37/1 232/38/1 233/39/1 231/40/1
f 234/9/1 235/10/1 236/11/1 237/12/1
f 235/9/1 238/10/1 239/11/1 236/12/1
f 238/9/1 240/10/1 241/11/1 239/12/1
f 242/33/1 243/34/1 197/35/1 195/36/1
f 243/33/1 244/34/1 198/35/1 197/36/1
f 244/33/1 245/34/1 201/35/1 198/36/1
f 245/33/1 246/34/1 247/35/1 201/36/1
f 248/9/1 249/10/1 250/11/1 251/12/1
f 249/9/1 252/10/1 253/11/1 250/12/1
f 254/9/1 255/10/1 256/11/1 257/12/1
f 258/33/1 259/34/1 204/35/1 203/36/1
f 259/33/1 260/34/1 207/35/1 204/36/1
f 260/33/1 261/34/1 208/35/1 207/36/1
f 262/9/1 263/10/1 264/11/1 265/12/1
f 266/13/1 267/14/1 268/15/1 269/16/1
f 267/13/1 270/14/1 271/15/1 268/16/1
f 272/9/1 273/10/1 274/11/1 275/12/1
f 273/9/1 276/10/1 277/11/1 274/12/1
f 278/33/1 279/34/1 220/35/1 280/36/1
f 279/33/1 281/34/1 221/35/1 220/36/1
f 281/33/1 282/34/1 224/35/1 221/36/1
f 282/33/1 283/34/1 226/35/1 224/36/1
f 283/33/1 284/34/1 227/35/1 226/36/1
f 284/33/1 285/34/1 230/35/1 227/36/1
f 285/33/1 286/34/1 232/35/1 230/36/1
f 286/33/1 287/34/1 234/35/1 232/36/1
f 287/33/1 288/34/1 235/35/1 234/36/1
f 288/33/1 289/34/1 238/35/1 235/36/1
f 289/33/1 290/34/1 240/35/1 238/36/1
f 290/33/1 291/34/1 292/35/1 240/36/1
f 291/45/1 293/46/1 294/47/1 292/48/1
f 293/45/1 295/46/1 296/47/1 294/48/1
f 295/45/1 297/46/1 298/47/1 296/48/1
f 297/45/1 299/46/1 300/47/1 298/48/1
f 301/33/1 302/34/1 248/35/1 246/36/1
f 302/33/1 303/34/1 249/35/1 248/36/1
f 303/33/1 304/34/1 252/35/1 249/36/1
f 304/33/1 305/34/1 306/35/1 252/36/1
f 305/45/1 307/46/1 308/47/1 306/48/1
f 307/45/1 309/46/1 310/47/1 308/48/1
f 309/45/1 311/46/1 312/47/1 310/48/1
f 311/33/1 313/34/1 254/35/1 312/36/1
f 313/33/1 314/34/1 255/35/1 254/36/1
f 314/33/1 315/34/1 258/35/1 255/36/1
f 316/33/1 317/34/1 262/35/1 318/36/1
f 317/33/1 319/34/1 263/35/1 262/36/1
f 319/33/1 320/34/1 266/35/1 263/36/1
f 320/33/1 321/34/1 267/35/1 266/36/1
f 321/33/1 322/34/1 270/35/1 267/36/1
f 322/33/1 323/34/1 272/35/1 270/36/1
f 323/33/1 324/34/1 273/35/1 272/36/1
f 324/33/1 325/34/1 276/35/1 273/36/1
f 325/33/1 326/34/1 327/35/1 276/36/1

