# Wavefront OBJ file automatically generated by Tiled2Unity

# Vertices (Count = 400)
v -80 -240 0
v -160 -240 0
v -160 -160 0
v -80 -160 0
v -240 -240 0
v -240 -160 0
v -1840 -240 0
v -1920 -240 0
v -1920 -160 0
v -1840 -160 0
v 0 -320 0
v -80 -320 0
v 0 -240 0
v -160 -320 0
v -240 -320 0
v -320 -320 0
v -400 -320 0
v -400 -240 0
v -320 -240 0
v -480 -320 0
v -480 -240 0
v -560 -320 0
v -560 -240 0
v -640 -320 0
v -720 -320 0
v -720 -240 0
v -640 -240 0
v -800 -320 0
v -800 -240 0
v -880 -320 0
v -960 -320 0
v -960 -240 0
v -880 -240 0
v -1840 -320 0
v -1920 -320 0
v -2080 -320 0
v -2160 -320 0
v -2160 -240 0
v -2080 -240 0
v -2240 -320 0
v -2320 -320 0
v -2320 -240 0
v -2240 -240 0
v -2400 -320 0
v -2400 -240 0
v -2480 -320 0
v -2480 -240 0
v -2560 -320 0
v -2560 -240 0
v -2640 -320 0
v -2640 -240 0
v -2720 -320 0
v -2800 -320 0
v -2800 -240 0
v -2720 -240 0
v -2880 -320 0
v -2880 -240 0
v -3600 -320 0
v -3680 -320 0
v -3680 -240 0
v -3600 -240 0
v -8640 -320 0
v -8720 -320 0
v -8720 -240 0
v -8640 -240 0
v 0 -400 0
v -80 -400 0
v -160 -400 0
v -240 -400 0
v -320 -400 0
v -400 -400 0
v -480 -400 0
v -560 -400 0
v -640 -400 0
v -720 -400 0
v -800 -400 0
v -880 -400 0
v -960 -400 0
v -1040 -400 0
v -1040 -320 0
v -1360 -400 0
v -1440 -400 0
v -1440 -320 0
v -1360 -320 0
v -1520 -400 0
v -1520 -320 0
v -1760 -400 0
v -1840 -400 0
v -1760 -320 0
v -1920 -400 0
v -2000 -400 0
v -2000 -320 0
v -2080 -400 0
v -2160 -400 0
v -2240 -400 0
v -2320 -400 0
v -2400 -400 0
v -2480 -400 0
v -2560 -400 0
v -2640 -400 0
v -2720 -400 0
v -2800 -400 0
v -2880 -400 0
v -2960 -400 0
v -2960 -320 0
v -3520 -400 0
v -3600 -400 0
v -3520 -320 0
v -3680 -400 0
v -3840 -400 0
v -3920 -400 0
v -3920 -320 0
v -3840 -320 0
v -4000 -400 0
v -4080 -400 0
v -4080 -320 0
v -4000 -320 0
v -4160 -400 0
v -4160 -320 0
v -4240 -400 0
v -4320 -400 0
v -4320 -320 0
v -4240 -320 0
v -8480 -400 0
v -8560 -400 0
v -8560 -320 0
v -8480 -320 0
v -8640 -400 0
v -8720 -400 0
v -8880 -400 0
v -8960 -400 0
v -8960 -320 0
v -8880 -320 0
v -9040 -400 0
v -9040 -320 0
v -9120 -400 0
v -9120 -320 0
v -1040 -480 0
v -1120 -480 0
v -1120 -400 0
v -1200 -480 0
v -1200 -400 0
v -1280 -480 0
v -1280 -400 0
v -1360 -480 0
v -1440 -480 0
v -1520 -480 0
v -1600 -480 0
v -1600 -400 0
v -1680 -480 0
v -1680 -400 0
v -1760 -480 0
v -2960 -480 0
v -3040 -480 0
v -3040 -400 0
v -3120 -480 0
v -3120 -400 0
v -3200 -480 0
v -3200 -400 0
v -3280 -480 0
v -3280 -400 0
v -3360 -480 0
v -3360 -400 0
v -3440 -480 0
v -3440 -400 0
v -3520 -480 0
v -3600 -480 0
v -3680 -480 0
v -3760 -480 0
v -3760 -400 0
v -3840 -480 0
v -3920 -480 0
v -4000 -480 0
v -4080 -480 0
v -4160 -480 0
v -4240 -480 0
v -4320 -480 0
v -4400 -480 0
v -4400 -400 0
v -4480 -480 0
v -4560 -480 0
v -4560 -400 0
v -4480 -400 0
v -6720 -480 0
v -6800 -480 0
v -6800 -400 0
v -6720 -400 0
v -7760 -480 0
v -7840 -480 0
v -7840 -400 0
v -7760 -400 0
v -7920 -480 0
v -7920 -400 0
v -8000 -480 0
v -8000 -400 0
v -8080 -480 0
v -8080 -400 0
v -8160 -480 0
v -8240 -480 0
v -8240 -400 0
v -8160 -400 0
v -8320 -480 0
v -8320 -400 0
v -8400 -480 0
v -8400 -400 0
v -8480 -480 0
v -8560 -480 0
v -8640 -480 0
v -8720 -480 0
v -8800 -480 0
v -8800 -400 0
v -8880 -480 0
v -8960 -480 0
v -9040 -480 0
v -9120 -480 0
v -9200 -480 0
v -9200 -400 0
v -9520 -480 0
v -9600 -480 0
v -9600 -400 0
v -9520 -400 0
v -9680 -480 0
v -9760 -480 0
v -9760 -400 0
v -9680 -400 0
v -9840 -480 0
v -9840 -400 0
v -9920 -480 0
v -10000 -480 0
v -10000 -400 0
v -9920 -400 0
v -4400 -560 0
v -4480 -560 0
v -4560 -560 0
v -4640 -560 0
v -4640 -480 0
v -4720 -560 0
v -4720 -480 0
v -4800 -560 0
v -4800 -480 0
v -4880 -560 0
v -4960 -560 0
v -4960 -480 0
v -4880 -480 0
v -5040 -560 0
v -5040 -480 0
v -5120 -560 0
v -5120 -480 0
v -5200 -560 0
v -5280 -560 0
v -5280 -480 0
v -5200 -480 0
v -5360 -560 0
v -5440 -560 0
v -5440 -480 0
v -5360 -480 0
v -5520 -560 0
v -5520 -480 0
v -5600 -560 0
v -5680 -560 0
v -5680 -480 0
v -5600 -480 0
v -5760 -560 0
v -5840 -560 0
v -5840 -480 0
v -5760 -480 0
v -5920 -560 0
v -6000 -560 0
v -6000 -480 0
v -5920 -480 0
v -6080 -560 0
v -6160 -560 0
v -6160 -480 0
v -6080 -480 0
v -6240 -560 0
v -6240 -480 0
v -6320 -560 0
v -6320 -480 0
v -6400 -560 0
v -6480 -560 0
v -6480 -480 0
v -6400 -480 0
v -6560 -560 0
v -6640 -560 0
v -6640 -480 0
v -6560 -480 0
v -6720 -560 0
v -6800 -560 0
v -6960 -560 0
v -7040 -560 0
v -7040 -480 0
v -6960 -480 0
v -7120 -560 0
v -7120 -480 0
v -7200 -560 0
v -7200 -480 0
v -7360 -560 0
v -7440 -560 0
v -7440 -480 0
v -7360 -480 0
v -7520 -560 0
v -7520 -480 0
v -7600 -560 0
v -7600 -480 0
v -7680 -560 0
v -7680 -480 0
v -7760 -560 0
v -7840 -560 0
v -7920 -560 0
v -8000 -560 0
v -8080 -560 0
v -8160 -560 0
v -8240 -560 0
v -8320 -560 0
v -8400 -560 0
v -8480 -560 0
v -8560 -560 0
v -9200 -560 0
v -9280 -560 0
v -9280 -480 0
v -9360 -560 0
v -9360 -480 0
v -9440 -560 0
v -9440 -480 0
v -9520 -560 0
v -9600 -560 0
v -9680 -560 0
v -9760 -560 0
v -9840 -560 0
v -9920 -560 0
v -10000 -560 0
v -10080 -560 0
v -10080 -480 0
v -10400 -560 0
v -10480 -560 0
v -10480 -480 0
v -10400 -480 0
v -10560 -560 0
v -10560 -480 0
v -10640 -560 0
v -10720 -560 0
v -10720 -480 0
v -10640 -480 0
v -10800 -560 0
v -10800 -480 0
v -4640 -640 0
v -4720 -640 0
v -4800 -640 0
v -4880 -640 0
v -4960 -640 0
v -5040 -640 0
v -5120 -640 0
v -5200 -640 0
v -5280 -640 0
v -5360 -640 0
v -5440 -640 0
v -5520 -640 0
v -5600 -640 0
v -5680 -640 0
v -5760 -640 0
v -5840 -640 0
v -5920 -640 0
v -6000 -640 0
v -6080 -640 0
v -6160 -640 0
v -6240 -640 0
v -6320 -640 0
v -6400 -640 0
v -6480 -640 0
v -6560 -640 0
v -6640 -640 0
v -6720 -640 0
v -6800 -640 0
v -6880 -640 0
v -6880 -560 0
v -6960 -640 0
v -7040 -640 0
v -7120 -640 0
v -7200 -640 0
v -7280 -640 0
v -7280 -560 0
v -7360 -640 0
v -7440 -640 0
v -7520 -640 0
v -7600 -640 0
v -7680 -640 0
v -7760 -640 0
v -10080 -640 0
v -10160 -640 0
v -10160 -560 0
v -10240 -640 0
v -10240 -560 0
v -10320 -640 0
v -10320 -560 0
v -10400 -640 0
v -10480 -640 0
v -10560 -640 0
v -10640 -640 0
v -10720 -640 0
v -10800 -640 0

# Texture cooridinates (Count = 64)
vt 0.2501221 0.2501221
vt 0.3748779 0.2501221
vt 0.3748779 0.4998779
vt 0.2501221 0.4998779
vt 0.3751221 0.2501221
vt 0.4998779 0.2501221
vt 0.4998779 0.4998779
vt 0.3751221 0.4998779
vt 0.6251221 0.2501221
vt 0.7498779 0.2501221
vt 0.7498779 0.4998779
vt 0.6251221 0.4998779
vt 0.0001220703 0.7501221
vt 0.1248779 0.7501221
vt 0.1248779 0.9998779
vt 0.0001220703 0.9998779
vt 0.2501221 0.0001220703
vt 0.3748779 0.0001220703
vt 0.3748779 0.2498779
vt 0.2501221 0.2498779
vt 0.3751221 0.0001220703
vt 0.4998779 0.0001220703
vt 0.4998779 0.2498779
vt 0.3751221 0.2498779
vt 0.2501221 0.7501221
vt 0.3748779 0.7501221
vt 0.3748779 0.9998779
vt 0.2501221 0.9998779
vt 0.6251221 0.7501221
vt 0.7498779 0.7501221
vt 0.7498779 0.9998779
vt 0.6251221 0.9998779
vt 0.6251221 0.0001220703
vt 0.7498779 0.0001220703
vt 0.7498779 0.2498779
vt 0.6251221 0.2498779
vt 0.5001221 0.7501221
vt 0.6248779 0.7501221
vt 0.6248779 0.9998779
vt 0.5001221 0.9998779
vt 0.5001221 0.2501221
vt 0.6248779 0.2501221
vt 0.6248779 0.4998779
vt 0.5001221 0.4998779
vt 0.1251221 0.7501221
vt 0.2498779 0.7501221
vt 0.2498779 0.9998779
vt 0.1251221 0.9998779
vt 0.5001221 0.0001220703
vt 0.6248779 0.0001220703
vt 0.6248779 0.2498779
vt 0.5001221 0.2498779
vt 0.3751221 0.7501221
vt 0.4998779 0.7501221
vt 0.4998779 0.9998779
vt 0.3751221 0.9998779
vt 0.2501221 0.5001221
vt 0.3748779 0.5001221
vt 0.3748779 0.7498779
vt 0.2501221 0.7498779
vt 0.7501221 0.7501221
vt 0.8748779 0.7501221
vt 0.8748779 0.9998779
vt 0.7501221 0.9998779

# Normal
vn 0 0 -1

# Groups (Count = 1)

g mesh_0001
f 1/1/1 2/2/1 3/3/1 4/4/1
f 2/5/1 5/6/1 6/7/1 3/8/1
f 7/9/1 8/10/1 9/11/1 10/12/1
f 11/13/1 12/14/1 1/15/1 13/16/1
f 12/17/1 14/18/1 2/19/1 1/20/1
f 14/21/1 15/22/1 5/23/1 2/24/1
f 16/25/1 17/26/1 18/27/1 19/28/1
f 17/25/1 20/26/1 21/27/1 18/28/1
f 20/25/1 22/26/1 23/27/1 21/28/1
f 24/29/1 25/30/1 26/31/1 27/32/1
f 25/29/1 28/30/1 29/31/1 26/32/1
f 30/25/1 31/26/1 32/27/1 33/28/1
f 34/33/1 35/34/1 8/35/1 7/36/1
f 36/25/1 37/26/1 38/27/1 39/28/1
f 40/37/1 41/38/1 42/39/1 43/40/1
f 41/37/1 44/38/1 45/39/1 42/40/1
f 44/37/1 46/38/1 47/39/1 45/40/1
f 46/37/1 48/38/1 49/39/1 47/40/1
f 48/37/1 50/38/1 51/39/1 49/40/1
f 52/25/1 53/26/1 54/27/1 55/28/1
f 53/25/1 56/26/1 57/27/1 54/28/1
f 58/41/1 59/42/1 60/43/1 61/44/1
f 62/41/1 63/42/1 64/43/1 65/44/1
f 66/45/1 67/46/1 12/47/1 11/48/1
f 67/45/1 68/46/1 14/47/1 12/48/1
f 68/45/1 69/46/1 15/47/1 14/48/1
f 69/45/1 70/46/1 16/47/1 15/48/1
f 70/45/1 71/46/1 17/47/1 16/48/1
f 71/45/1 72/46/1 20/47/1 17/48/1
f 72/45/1 73/46/1 22/47/1 20/48/1
f 73/45/1 74/46/1 24/47/1 22/48/1
f 74/45/1 75/46/1 25/47/1 24/48/1
f 75/45/1 76/46/1 28/47/1 25/48/1
f 76/45/1 77/46/1 30/47/1 28/48/1
f 77/45/1 78/46/1 31/47/1 30/48/1
f 78/45/1 79/46/1 80/47/1 31/48/1
f 81/25/1 82/26/1 83/27/1 84/28/1
f 82/25/1 85/26/1 86/27/1 83/28/1
f 87/45/1 88/46/1 34/47/1 89/48/1
f 88/45/1 90/46/1 35/47/1 34/48/1
f 90/45/1 91/46/1 92/47/1 35/48/1
f 91/45/1 93/46/1 36/47/1 92/48/1
f 93/45/1 94/46/1 37/47/1 36/48/1
f 94/45/1 95/46/1 40/47/1 37/48/1
f 95/45/1 96/46/1 41/47/1 40/48/1
f 96/45/1 97/46/1 44/47/1 41/48/1
f 97/45/1 98/46/1 46/47/1 44/48/1
f 98/45/1 99/46/1 48/47/1 46/48/1
f 99/45/1 100/46/1 50/47/1 48/48/1
f 100/45/1 101/46/1 52/47/1 50/48/1
f 101/45/1 102/46/1 53/47/1 52/48/1
f 102/45/1 103/46/1 56/47/1 53/48/1
f 103/45/1 104/46/1 105/47/1 56/48/1
f 106/25/1 107/26/1 58/27/1 108/28/1
f 107/49/1 109/50/1 59/51/1 58/52/1
f 110/25/1 111/26/1 112/27/1 113/28/1
f 114/53/1 115/54/1 116/55/1 117/56/1
f 115/37/1 118/38/1 119/39/1 116/40/1
f 120/25/1 121/26/1 122/27/1 123/28/1
f 124/25/1 125/26/1 126/27/1 127/28/1
f 125/25/1 128/26/1 62/27/1 126/28/1
f 128/49/1 129/50/1 63/51/1 62/52/1
f 130/25/1 131/26/1 132/27/1 133/28/1
f 131/25/1 134/26/1 135/27/1 132/28/1
f 134/25/1 136/26/1 137/27/1 135/28/1
f 138/57/1 139/58/1 140/59/1 79/60/1
f 139/57/1 141/58/1 142/59/1 140/60/1
f 141/57/1 143/58/1 144/59/1 142/60/1
f 143/57/1 145/58/1 81/59/1 144/60/1
f 145/45/1 146/46/1 82/47/1 81/48/1
f 146/45/1 147/46/1 85/47/1 82/48/1
f 147/57/1 148/58/1 149/59/1 85/60/1
f 148/57/1 150/58/1 151/59/1 149/60/1
f 150/57/1 152/58/1 87/59/1 151/60/1
f 153/57/1 154/58/1 155/59/1 104/60/1
f 154/57/1 156/58/1 157/59/1 155/60/1
f 156/57/1 158/58/1 159/59/1 157/60/1
f 158/57/1 160/58/1 161/59/1 159/60/1
f 160/57/1 162/58/1 163/59/1 161/60/1
f 162/57/1 164/58/1 165/59/1 163/60/1
f 164/45/1 166/46/1 106/47/1 165/48/1
f 166/45/1 167/46/1 107/47/1 106/48/1
f 167/45/1 168/46/1 109/47/1 107/48/1
f 168/45/1 169/46/1 170/47/1 109/48/1
f 169/45/1 171/46/1 110/47/1 170/48/1
f 171/45/1 172/46/1 111/47/1 110/48/1
f 172/45/1 173/46/1 114/47/1 111/48/1
f 173/45/1 174/46/1 115/47/1 114/48/1
f 174/45/1 175/46/1 118/47/1 115/48/1
f 175/45/1 176/46/1 120/47/1 118/48/1
f 176/45/1 177/46/1 121/47/1 120/48/1
f 177/45/1 178/46/1 179/47/1 121/48/1
f 180/25/1 181/26/1 182/27/1 183/28/1
f 184/9/1 185/10/1 186/11/1 187/12/1
f 188/25/1 189/26/1 190/27/1 191/28/1
f 189/25/1 192/26/1 193/27/1 190/28/1
f 192/25/1 194/26/1 195/27/1 193/28/1
f 194/25/1 196/26/1 197/27/1 195/28/1
f 198/61/1 199/62/1 200/63/1 201/64/1
f 199/61/1 202/62/1 203/63/1 200/64/1
f 202/61/1 204/62/1 205/63/1 203/64/1
f 204/61/1 206/62/1 124/63/1 205/64/1
f 206/45/1 207/46/1 125/47/1 124/48/1
f 207/45/1 208/46/1 128/47/1 125/48/1
f 208/45/1 209/46/1 129/47/1 128/48/1
f 209/45/1 210/46/1 211/47/1 129/48/1
f 210/45/1 212/46/1 130/47/1 211/48/1
f 212/45/1 213/46/1 131/47/1 130/48/1
f 213/45/1 214/46/1 134/47/1 131/48/1
f 214/45/1 215/46/1 136/47/1 134/48/1
f 215/45/1 216/46/1 217/47/1 136/48/1
f 218/25/1 219/26/1 220/27/1 221/28/1
f 222/61/1 223/62/1 224/63/1 225/64/1
f 223/61/1 226/62/1 227/63/1 224/64/1
f 228/25/1 229/26/1 230/27/1 231/28/1
f 232/45/1 233/46/1 180/47/1 178/48/1
f 233/45/1 234/46/1 181/47/1 180/48/1
f 234/45/1 235/46/1 236/47/1 181/48/1
f 235/29/1 237/30/1 238/31/1 236/32/1
f 237/29/1 239/30/1 240/31/1 238/32/1
f 241/25/1 242/26/1 243/27/1 244/28/1
f 242/25/1 245/26/1 246/27/1 243/28/1
f 245/25/1 247/26/1 248/27/1 246/28/1
f 249/29/1 250/30/1 251/31/1 252/32/1
f 253/25/1 254/26/1 255/27/1 256/28/1
f 254/25/1 257/26/1 258/27/1 255/28/1
f 259/53/1 260/54/1 261/55/1 262/56/1
f 263/25/1 264/26/1 265/27/1 266/28/1
f 267/53/1 268/54/1 269/55/1 270/56/1
f 271/25/1 272/26/1 273/27/1 274/28/1
f 272/25/1 275/26/1 276/27/1 273/28/1
f 275/25/1 277/26/1 278/27/1 276/28/1
f 279/53/1 280/54/1 281/55/1 282/56/1
f 283/25/1 284/26/1 285/27/1 286/28/1
f 287/33/1 288/34/1 185/35/1 184/36/1
f 289/25/1 290/26/1 291/27/1 292/28/1
f 290/25/1 293/26/1 294/27/1 291/28/1
f 293/25/1 295/26/1 296/27/1 294/28/1
f 297/29/1 298/30/1 299/31/1 300/32/1
f 298/29/1 301/30/1 302/31/1 299/32/1
f 301/29/1 303/30/1 304/31/1 302/32/1
f 303/29/1 305/30/1 306/31/1 304/32/1
f 305/45/1 307/46/1 188/47/1 306/48/1
f 307/45/1 308/46/1 189/47/1 188/48/1
f 308/45/1 309/46/1 192/47/1 189/48/1
f 309/45/1 310/46/1 194/47/1 192/48/1
f 310/45/1 311/46/1 196/47/1 194/48/1
f 311/45/1 312/46/1 198/47/1 196/48/1
f 312/45/1 313/46/1 199/47/1 198/48/1
f 313/45/1 314/46/1 202/47/1 199/48/1
f 314/45/1 315/46/1 204/47/1 202/48/1
f 315/45/1 316/46/1 206/47/1 204/48/1
f 316/45/1 317/46/1 207/47/1 206/48/1
f 318/57/1 319/58/1 320/59/1 216/60/1
f 319/57/1 321/58/1 322/59/1 320/60/1
f 321/57/1 323/58/1 324/59/1 322/60/1
f 323/45/1 325/46/1 218/47/1 324/48/1
f 325/45/1 326/46/1 219/47/1 218/48/1
f 326/45/1 327/46/1 222/47/1 219/48/1
f 327/45/1 328/46/1 223/47/1 222/48/1
f 328/45/1 329/46/1 226/47/1 223/48/1
f 329/45/1 330/46/1 228/47/1 226/48/1
f 330/45/1 331/46/1 229/47/1 228/48/1
f 331/45/1 332/46/1 333/47/1 229/48/1
f 334/25/1 335/26/1 336/27/1 337/28/1
f 335/25/1 338/26/1 339/27/1 336/28/1
f 340/53/1 341/54/1 342/55/1 343/56/1
f 341/37/1 344/38/1 345/39/1 342/40/1
f 346/45/1 347/46/1 237/47/1 235/48/1
f 347/45/1 348/46/1 239/47/1 237/48/1
f 348/45/1 349/46/1 241/47/1 239/48/1
f 349/45/1 350/46/1 242/47/1 241/48/1
f 350/45/1 351/46/1 245/47/1 242/48/1
f 351/45/1 352/46/1 247/47/1 245/48/1
f 352/45/1 353/46/1 249/47/1 247/48/1
f 353/45/1 354/46/1 250/47/1 249/48/1
f 354/45/1 355/46/1 253/47/1 250/48/1
f 355/45/1 356/46/1 254/47/1 253/48/1
f 356/45/1 357/46/1 257/47/1 254/48/1
f 357/45/1 358/46/1 259/47/1 257/48/1
f 358/45/1 359/46/1 260/47/1 259/48/1
f 359/45/1 360/46/1 263/47/1 260/48/1
f 360/45/1 361/46/1 264/47/1 263/48/1
f 361/45/1 362/46/1 267/47/1 264/48/1
f 362/45/1 363/46/1 268/47/1 267/48/1
f 363/45/1 364/46/1 271/47/1 268/48/1
f 364/45/1 365/46/1 272/47/1 271/48/1
f 365/45/1 366/46/1 275/47/1 272/48/1
f 366/45/1 367/46/1 277/47/1 275/48/1
f 367/45/1 368/46/1 279/47/1 277/48/1
f 368/45/1 369/46/1 280/47/1 279/48/1
f 369/45/1 370/46/1 283/47/1 280/48/1
f 370/45/1 371/46/1 284/47/1 283/48/1
f 371/45/1 372/46/1 287/47/1 284/48/1
f 372/45/1 373/46/1 288/47/1 287/48/1
f 373/45/1 374/46/1 375/47/1 288/48/1
f 374/45/1 376/46/1 289/47/1 375/48/1
f 376/45/1 377/46/1 290/47/1 289/48/1
f 377/45/1 378/46/1 293/47/1 290/48/1
f 378/45/1 379/46/1 295/47/1 293/48/1
f 379/45/1 380/46/1 381/47/1 295/48/1
f 380/45/1 382/46/1 297/47/1 381/48/1
f 382/45/1 383/46/1 298/47/1 297/48/1
f 383/45/1 384/46/1 301/47/1 298/48/1
f 384/45/1 385/46/1 303/47/1 301/48/1
f 385/45/1 386/46/1 305/47/1 303/48/1
f 386/45/1 387/46/1 307/47/1 305/48/1
f 388/57/1 389/58/1 390/59/1 332/60/1
f 389/57/1 391/58/1 392/59/1 390/60/1
f 391/57/1 393/58/1 394/59/1 392/60/1
f 393/45/1 395/46/1 334/47/1 394/48/1
f 395/45/1 396/46/1 335/47/1 334/48/1
f 396/45/1 397/46/1 338/47/1 335/48/1
f 397/45/1 398/46/1 340/47/1 338/48/1
f 398/45/1 399/46/1 341/47/1 340/48/1
f 399/45/1 400/46/1 344/47/1 341/48/1

