# Wavefront OBJ file automatically generated by Tiled2Unity

# Vertices (Count = 460)
v -10160 -320 0
v -10240 -320 0
v -10240 -240 0
v -10160 -240 0
v -10320 -320 0
v -10320 -240 0
v -10400 -320 0
v -10400 -240 0
v -10480 -320 0
v -10480 -240 0
v -10560 -320 0
v -10560 -240 0
v -10640 -320 0
v -10640 -240 0
v -10000 -400 0
v -10080 -400 0
v -10080 -320 0
v -10000 -320 0
v -10160 -400 0
v -10240 -400 0
v -10320 -400 0
v -10400 -400 0
v -10480 -400 0
v -10560 -400 0
v -10640 -400 0
v -10720 -400 0
v -10720 -320 0
v -10800 -400 0
v -10800 -320 0
v 0 -560 0
v -80 -560 0
v -80 -480 0
v 0 -480 0
v -160 -560 0
v -160 -480 0
v -4160 -560 0
v -4240 -560 0
v -4240 -480 0
v -4160 -480 0
v -4320 -560 0
v -4400 -560 0
v -4400 -480 0
v -4320 -480 0
v -4960 -560 0
v -5040 -560 0
v -5040 -480 0
v -4960 -480 0
v -5120 -560 0
v -5120 -480 0
v -5200 -560 0
v -5280 -560 0
v -5280 -480 0
v -5200 -480 0
v -5360 -560 0
v -5360 -480 0
v -5440 -560 0
v -5440 -480 0
v -5520 -560 0
v -5600 -560 0
v -5600 -480 0
v -5520 -480 0
v -5680 -560 0
v -5680 -480 0
v -5760 -560 0
v -5760 -480 0
v -5840 -560 0
v -5920 -560 0
v -5920 -480 0
v -5840 -480 0
v -6000 -560 0
v -6000 -480 0
v -6080 -560 0
v -6160 -560 0
v -6160 -480 0
v -6080 -480 0
v -6240 -560 0
v -6240 -480 0
v -6320 -560 0
v -6320 -480 0
v -7040 -560 0
v -7120 -560 0
v -7120 -480 0
v -7040 -480 0
v -7200 -560 0
v -7280 -560 0
v -7280 -480 0
v -7200 -480 0
v -7360 -560 0
v -7440 -560 0
v -7440 -480 0
v -7360 -480 0
v -7520 -560 0
v -7520 -480 0
v -7600 -560 0
v -7680 -560 0
v -7680 -480 0
v -7600 -480 0
v -7760 -560 0
v -7840 -560 0
v -7840 -480 0
v -7760 -480 0
v -7920 -560 0
v -7920 -480 0
v 0 -640 0
v -80 -640 0
v -160 -640 0
v -240 -640 0
v -320 -640 0
v -320 -560 0
v -240 -560 0
v -400 -640 0
v -400 -560 0
v -480 -640 0
v -480 -560 0
v -560 -640 0
v -560 -560 0
v -640 -640 0
v -640 -560 0
v -720 -640 0
v -800 -640 0
v -800 -560 0
v -720 -560 0
v -880 -640 0
v -880 -560 0
v -960 -640 0
v -960 -560 0
v -1040 -640 0
v -1040 -560 0
v -1120 -640 0
v -1120 -560 0
v -1280 -640 0
v -1360 -640 0
v -1360 -560 0
v -1280 -560 0
v -1440 -640 0
v -1440 -560 0
v -1520 -640 0
v -1520 -560 0
v -1600 -640 0
v -1600 -560 0
v -1760 -640 0
v -1840 -640 0
v -1840 -560 0
v -1760 -560 0
v -1920 -640 0
v -1920 -560 0
v -2000 -640 0
v -2000 -560 0
v -2080 -640 0
v -2080 -560 0
v -2160 -640 0
v -2160 -560 0
v -2240 -640 0
v -2240 -560 0
v -2400 -640 0
v -2480 -640 0
v -2480 -560 0
v -2400 -560 0
v -2560 -640 0
v -2560 -560 0
v -2640 -640 0
v -2640 -560 0
v -2800 -640 0
v -2880 -640 0
v -2880 -560 0
v -2800 -560 0
v -2960 -640 0
v -2960 -560 0
v -3040 -640 0
v -3040 -560 0
v -3200 -640 0
v -3280 -640 0
v -3280 -560 0
v -3200 -560 0
v -3360 -640 0
v -3360 -560 0
v -3440 -640 0
v -3440 -560 0
v -3600 -640 0
v -3680 -640 0
v -3680 -560 0
v -3600 -560 0
v -3760 -640 0
v -3760 -560 0
v -3840 -640 0
v -3840 -560 0
v -3920 -640 0
v -4000 -640 0
v -4000 -560 0
v -3920 -560 0
v -4080 -640 0
v -4080 -560 0
v -4160 -640 0
v -4240 -640 0
v -4320 -640 0
v -4400 -640 0
v -4480 -640 0
v -4560 -640 0
v -4560 -560 0
v -4480 -560 0
v -4640 -640 0
v -4640 -560 0
v -4880 -640 0
v -4960 -640 0
v -4880 -560 0
v -5040 -640 0
v -5120 -640 0
v -5200 -640 0
v -5280 -640 0
v -5360 -640 0
v -5440 -640 0
v -5520 -640 0
v -5600 -640 0
v -5680 -640 0
v -5760 -640 0
v -5840 -640 0
v -5920 -640 0
v -6000 -640 0
v -6080 -640 0
v -6160 -640 0
v -6240 -640 0
v -6320 -640 0
v -6400 -640 0
v -6400 -560 0
v -6960 -640 0
v -7040 -640 0
v -6960 -560 0
v -7120 -640 0
v -7200 -640 0
v -7280 -640 0
v -7360 -640 0
v -7440 -640 0
v -7520 -640 0
v -7600 -640 0
v -7680 -640 0
v -7760 -640 0
v -7840 -640 0
v -7920 -640 0
v -8000 -640 0
v -8000 -560 0
v -10560 -640 0
v -10640 -640 0
v -10640 -560 0
v -10560 -560 0
v -10720 -640 0
v -10720 -560 0
v 0 -720 0
v -80 -720 0
v -160 -720 0
v -240 -720 0
v -320 -720 0
v -400 -720 0
v -480 -720 0
v -560 -720 0
v -640 -720 0
v -720 -720 0
v -800 -720 0
v -880 -720 0
v -960 -720 0
v -1040 -720 0
v -1120 -720 0
v -1200 -720 0
v -1200 -640 0
v -1280 -720 0
v -1360 -720 0
v -1440 -720 0
v -1520 -720 0
v -1600 -720 0
v -1680 -720 0
v -1680 -640 0
v -1760 -720 0
v -1840 -720 0
v -1920 -720 0
v -2000 -720 0
v -2080 -720 0
v -2160 -720 0
v -2240 -720 0
v -2320 -720 0
v -2320 -640 0
v -2400 -720 0
v -2480 -720 0
v -2560 -720 0
v -2640 -720 0
v -2720 -720 0
v -2720 -640 0
v -2800 -720 0
v -2880 -720 0
v -2960 -720 0
v -3040 -720 0
v -3120 -720 0
v -3120 -640 0
v -3200 -720 0
v -3280 -720 0
v -3360 -720 0
v -3440 -720 0
v -3520 -720 0
v -3520 -640 0
v -3600 -720 0
v -3680 -720 0
v -3760 -720 0
v -3840 -720 0
v -3920 -720 0
v -4000 -720 0
v -4080 -720 0
v -4160 -720 0
v -4240 -720 0
v -4320 -720 0
v -4400 -720 0
v -4480 -720 0
v -4560 -720 0
v -4640 -720 0
v -4720 -720 0
v -4720 -640 0
v -4800 -720 0
v -4800 -640 0
v -4880 -720 0
v -6320 -720 0
v -6400 -720 0
v -6480 -720 0
v -6560 -720 0
v -6560 -640 0
v -6480 -640 0
v -6640 -720 0
v -6640 -640 0
v -6720 -720 0
v -6720 -640 0
v -6800 -720 0
v -6800 -640 0
v -6880 -720 0
v -6880 -640 0
v -8080 -720 0
v -8160 -720 0
v -8160 -640 0
v -8080 -640 0
v -8240 -720 0
v -8240 -640 0
v -8320 -720 0
v -8320 -640 0
v -8400 -720 0
v -8400 -640 0
v -8720 -720 0
v -8800 -720 0
v -8800 -640 0
v -8720 -640 0
v -8880 -720 0
v -8880 -640 0
v -8960 -720 0
v -8960 -640 0
v -9040 -720 0
v -9040 -640 0
v -9120 -720 0
v -9120 -640 0
v -9200 -720 0
v -9200 -640 0
v -9520 -720 0
v -9600 -720 0
v -9600 -640 0
v -9520 -640 0
v -9680 -720 0
v -9680 -640 0
v -9760 -720 0
v -9760 -640 0
v -10000 -720 0
v -10080 -720 0
v -10080 -640 0
v -10000 -640 0
v -10160 -720 0
v -10240 -720 0
v -10240 -640 0
v -10160 -640 0
v -10320 -720 0
v -10320 -640 0
v -10400 -720 0
v -10480 -720 0
v -10480 -640 0
v -10400 -640 0
v -10560 -720 0
v -10640 -720 0
v -10720 -720 0
v -10800 -720 0
v -10800 -640 0
v -6320 -800 0
v -6400 -800 0
v -6480 -800 0
v -6560 -800 0
v -6640 -800 0
v -6720 -800 0
v -6800 -800 0
v -6880 -800 0
v -6960 -800 0
v -6960 -720 0
v -7040 -800 0
v -7040 -720 0
v -7120 -800 0
v -7120 -720 0
v -7200 -800 0
v -7200 -720 0
v -7280 -800 0
v -7280 -720 0
v -7360 -800 0
v -7360 -720 0
v -7440 -800 0
v -7440 -720 0
v -7520 -800 0
v -7520 -720 0
v -7600 -800 0
v -7600 -720 0
v -7680 -800 0
v -7680 -720 0
v -7760 -800 0
v -7760 -720 0
v -7840 -800 0
v -7840 -720 0
v -7920 -800 0
v -7920 -720 0
v -8000 -800 0
v -8000 -720 0
v -8080 -800 0
v -8160 -800 0
v -8240 -800 0
v -8320 -800 0
v -8400 -800 0
v -8480 -800 0
v -8480 -720 0
v -8560 -800 0
v -8560 -720 0
v -8640 -800 0
v -8640 -720 0
v -8720 -800 0
v -8800 -800 0
v -8880 -800 0
v -8960 -800 0
v -9040 -800 0
v -9120 -800 0
v -9200 -800 0
v -9280 -800 0
v -9280 -720 0
v -9360 -800 0
v -9360 -720 0
v -9440 -800 0
v -9440 -720 0
v -9520 -800 0
v -9600 -800 0
v -9680 -800 0
v -9760 -800 0
v -9840 -800 0
v -9840 -720 0
v -9920 -800 0
v -9920 -720 0
v -10000 -800 0
v -10080 -800 0
v -10160 -800 0
v -10240 -800 0
v -10320 -800 0
v -10400 -800 0
v -10480 -800 0
v -10560 -800 0
v -10640 -800 0
v -10720 -800 0
v -10800 -800 0

# Texture cooridinates (Count = 84)
vt 0.2501221 0.7501221
vt 0.3748779 0.7501221
vt 0.3748779 0.9998779
vt 0.2501221 0.9998779
vt 0.1251221 0.7501221
vt 0.2498779 0.7501221
vt 0.2498779 0.9998779
vt 0.1251221 0.9998779
vt 0.2501221 0.2501221
vt 0.3748779 0.2501221
vt 0.3748779 0.4998779
vt 0.2501221 0.4998779
vt 0.3751221 0.2501221
vt 0.4998779 0.2501221
vt 0.4998779 0.4998779
vt 0.3751221 0.4998779
vt 0.8751221 0.2501221
vt 0.9998779 0.2501221
vt 0.9998779 0.4998779
vt 0.8751221 0.4998779
vt 0.5001221 0.2501221
vt 0.6248779 0.2501221
vt 0.6248779 0.4998779
vt 0.5001221 0.4998779
vt 0.3751221 0.7501221
vt 0.4998779 0.7501221
vt 0.4998779 0.9998779
vt 0.3751221 0.9998779
vt 0.7501221 0.7501221
vt 0.8748779 0.7501221
vt 0.8748779 0.9998779
vt 0.7501221 0.9998779
vt 0.5001221 0.7501221
vt 0.6248779 0.7501221
vt 0.6248779 0.9998779
vt 0.5001221 0.9998779
vt 0.6251221 0.7501221
vt 0.7498779 0.7501221
vt 0.7498779 0.9998779
vt 0.6251221 0.9998779
vt 0.2501221 0.0001220703
vt 0.3748779 0.0001220703
vt 0.3748779 0.2498779
vt 0.2501221 0.2498779
vt 0.3751221 0.0001220703
vt 0.4998779 0.0001220703
vt 0.4998779 0.2498779
vt 0.3751221 0.2498779
vt 0.8751221 0.0001220703
vt 0.9998779 0.0001220703
vt 0.9998779 0.2498779
vt 0.8751221 0.2498779
vt 0.5001221 0.0001220703
vt 0.6248779 0.0001220703
vt 0.6248779 0.2498779
vt 0.5001221 0.2498779
vt 0.0001220703 0.2501221
vt 0.1248779 0.2501221
vt 0.1248779 0.4998779
vt 0.0001220703 0.4998779
vt 0.1251221 0.2501221
vt 0.2498779 0.2501221
vt 0.2498779 0.4998779
vt 0.1251221 0.4998779
vt 0.2501221 0.5001221
vt 0.3748779 0.5001221
vt 0.3748779 0.7498779
vt 0.2501221 0.7498779
vt 0.0001220703 0.0001220703
vt 0.1248779 0.0001220703
vt 0.1248779 0.2498779
vt 0.0001220703 0.2498779
vt 0.1251221 0.0001220703
vt 0.2498779 0.0001220703
vt 0.2498779 0.2498779
vt 0.1251221 0.2498779
vt 0.0001220703 0.7501221
vt 0.1248779 0.7501221
vt 0.1248779 0.9998779
vt 0.0001220703 0.9998779
vt 0.8751221 0.7501221
vt 0.9998779 0.7501221
vt 0.9998779 0.9998779
vt 0.8751221 0.9998779

# Normal
vn 0 0 -1

# Groups (Count = 1)

g mesh_0001
f 1/1/1 2/2/1 3/3/1 4/4/1
f 2/1/1 5/2/1 6/3/1 3/4/1
f 5/1/1 7/2/1 8/3/1 6/4/1
f 7/1/1 9/2/1 10/3/1 8/4/1
f 9/1/1 11/2/1 12/3/1 10/4/1
f 11/1/1 13/2/1 14/3/1 12/4/1
f 15/5/1 16/6/1 17/7/1 18/8/1
f 16/5/1 19/6/1 1/7/1 17/8/1
f 19/5/1 20/6/1 2/7/1 1/8/1
f 20/5/1 21/6/1 5/7/1 2/8/1
f 21/5/1 22/6/1 7/7/1 5/8/1
f 22/5/1 23/6/1 9/7/1 7/8/1
f 23/5/1 24/6/1 11/7/1 9/8/1
f 24/5/1 25/6/1 13/7/1 11/8/1
f 25/5/1 26/6/1 27/7/1 13/8/1
f 26/5/1 28/6/1 29/7/1 27/8/1
f 30/9/1 31/10/1 32/11/1 33/12/1
f 31/13/1 34/14/1 35/15/1 32/16/1
f 36/17/1 37/18/1 38/19/1 39/20/1
f 40/21/1 41/22/1 42/23/1 43/24/1
f 44/1/1 45/2/1 46/3/1 47/4/1
f 45/1/1 48/2/1 49/3/1 46/4/1
f 50/25/1 51/26/1 52/27/1 53/28/1
f 51/29/1 54/30/1 55/31/1 52/32/1
f 54/33/1 56/34/1 57/35/1 55/36/1
f 58/1/1 59/2/1 60/3/1 61/4/1
f 59/1/1 62/2/1 63/3/1 60/4/1
f 62/1/1 64/2/1 65/3/1 63/4/1
f 66/37/1 67/38/1 68/39/1 69/40/1
f 67/37/1 70/38/1 71/39/1 68/40/1
f 72/1/1 73/2/1 74/3/1 75/4/1
f 73/1/1 76/2/1 77/3/1 74/4/1
f 76/1/1 78/2/1 79/3/1 77/4/1
f 80/1/1 81/2/1 82/3/1 83/4/1
f 84/29/1 85/30/1 86/31/1 87/32/1
f 88/1/1 89/2/1 90/3/1 91/4/1
f 89/1/1 92/2/1 93/3/1 90/4/1
f 94/37/1 95/38/1 96/39/1 97/40/1
f 98/1/1 99/2/1 100/3/1 101/4/1
f 99/1/1 102/2/1 103/3/1 100/4/1
f 104/41/1 105/42/1 31/43/1 30/44/1
f 105/45/1 106/46/1 34/47/1 31/48/1
f 107/1/1 108/2/1 109/3/1 110/4/1
f 108/1/1 111/2/1 112/3/1 109/4/1
f 111/1/1 113/2/1 114/3/1 112/4/1
f 113/1/1 115/2/1 116/3/1 114/4/1
f 115/1/1 117/2/1 118/3/1 116/4/1
f 119/25/1 120/26/1 121/27/1 122/28/1
f 120/25/1 123/26/1 124/27/1 121/28/1
f 123/25/1 125/26/1 126/27/1 124/28/1
f 125/25/1 127/26/1 128/27/1 126/28/1
f 127/25/1 129/26/1 130/27/1 128/28/1
f 131/1/1 132/2/1 133/3/1 134/4/1
f 132/1/1 135/2/1 136/3/1 133/4/1
f 135/1/1 137/2/1 138/3/1 136/4/1
f 137/1/1 139/2/1 140/3/1 138/4/1
f 141/33/1 142/34/1 143/35/1 144/36/1
f 142/37/1 145/38/1 146/39/1 143/40/1
f 145/37/1 147/38/1 148/39/1 146/40/1
f 147/37/1 149/38/1 150/39/1 148/40/1
f 149/37/1 151/38/1 152/39/1 150/40/1
f 151/33/1 153/34/1 154/35/1 152/36/1
f 155/1/1 156/2/1 157/3/1 158/4/1
f 156/1/1 159/2/1 160/3/1 157/4/1
f 159/1/1 161/2/1 162/3/1 160/4/1
f 163/29/1 164/30/1 165/31/1 166/32/1
f 164/29/1 167/30/1 168/31/1 165/32/1
f 167/29/1 169/30/1 170/31/1 168/32/1
f 171/1/1 172/2/1 173/3/1 174/4/1
f 172/1/1 175/2/1 176/3/1 173/4/1
f 175/1/1 177/2/1 178/3/1 176/4/1
f 179/37/1 180/38/1 181/39/1 182/40/1
f 180/37/1 183/38/1 184/39/1 181/40/1
f 183/37/1 185/38/1 186/39/1 184/40/1
f 187/1/1 188/2/1 189/3/1 190/4/1
f 188/1/1 191/2/1 192/3/1 189/4/1
f 193/49/1 194/50/1 37/51/1 36/52/1
f 195/53/1 196/54/1 41/55/1 40/56/1
f 197/1/1 198/2/1 199/3/1 200/4/1
f 198/1/1 201/2/1 202/3/1 199/4/1
f 203/5/1 204/6/1 44/7/1 205/8/1
f 204/5/1 206/6/1 45/7/1 44/8/1
f 206/5/1 207/6/1 48/7/1 45/8/1
f 207/5/1 208/6/1 50/7/1 48/8/1
f 208/5/1 209/6/1 51/7/1 50/8/1
f 209/5/1 210/6/1 54/7/1 51/8/1
f 210/5/1 211/6/1 56/7/1 54/8/1
f 211/5/1 212/6/1 58/7/1 56/8/1
f 212/5/1 213/6/1 59/7/1 58/8/1
f 213/5/1 214/6/1 62/7/1 59/8/1
f 214/5/1 215/6/1 64/7/1 62/8/1
f 215/5/1 216/6/1 66/7/1 64/8/1
f 216/5/1 217/6/1 67/7/1 66/8/1
f 217/5/1 218/6/1 70/7/1 67/8/1
f 218/5/1 219/6/1 72/7/1 70/8/1
f 219/5/1 220/6/1 73/7/1 72/8/1
f 220/5/1 221/6/1 76/7/1 73/8/1
f 221/5/1 222/6/1 78/7/1 76/8/1
f 222/5/1 223/6/1 224/7/1 78/8/1
f 225/5/1 226/6/1 80/7/1 227/8/1
f 226/5/1 228/6/1 81/7/1 80/8/1
f 228/5/1 229/6/1 84/7/1 81/8/1
f 229/5/1 230/6/1 85/7/1 84/8/1
f 230/5/1 231/6/1 88/7/1 85/8/1
f 231/5/1 232/6/1 89/7/1 88/8/1
f 232/5/1 233/6/1 92/7/1 89/8/1
f 233/5/1 234/6/1 94/7/1 92/8/1
f 234/5/1 235/6/1 95/7/1 94/8/1
f 235/5/1 236/6/1 98/7/1 95/8/1
f 236/5/1 237/6/1 99/7/1 98/8/1
f 237/5/1 238/6/1 102/7/1 99/8/1
f 238/5/1 239/6/1 240/7/1 102/8/1
f 241/57/1 242/58/1 243/59/1 244/60/1
f 242/61/1 245/62/1 246/63/1 243/64/1
f 247/5/1 248/6/1 105/7/1 104/8/1
f 248/5/1 249/6/1 106/7/1 105/8/1
f 249/5/1 250/6/1 107/7/1 106/8/1
f 250/5/1 251/6/1 108/7/1 107/8/1
f 251/5/1 252/6/1 111/7/1 108/8/1
f 252/5/1 253/6/1 113/7/1 111/8/1
f 253/5/1 254/6/1 115/7/1 113/8/1
f 254/5/1 255/6/1 117/7/1 115/8/1
f 255/5/1 256/6/1 119/7/1 117/8/1
f 256/5/1 257/6/1 120/7/1 119/8/1
f 257/5/1 258/6/1 123/7/1 120/8/1
f 258/5/1 259/6/1 125/7/1 123/8/1
f 259/5/1 260/6/1 127/7/1 125/8/1
f 260/5/1 261/6/1 129/7/1 127/8/1
f 261/5/1 262/6/1 263/7/1 129/8/1
f 262/5/1 264/6/1 131/7/1 263/8/1
f 264/5/1 265/6/1 132/7/1 131/8/1
f 265/5/1 266/6/1 135/7/1 132/8/1
f 266/5/1 267/6/1 137/7/1 135/8/1
f 267/5/1 268/6/1 139/7/1 137/8/1
f 268/5/1 269/6/1 270/7/1 139/8/1
f 269/5/1 271/6/1 141/7/1 270/8/1
f 271/5/1 272/6/1 142/7/1 141/8/1
f 272/5/1 273/6/1 145/7/1 142/8/1
f 273/5/1 274/6/1 147/7/1 145/8/1
f 274/5/1 275/6/1 149/7/1 147/8/1
f 275/5/1 276/6/1 151/7/1 149/8/1
f 276/5/1 277/6/1 153/7/1 151/8/1
f 277/5/1 278/6/1 279/7/1 153/8/1
f 278/5/1 280/6/1 155/7/1 279/8/1
f 280/5/1 281/6/1 156/7/1 155/8/1
f 281/5/1 282/6/1 159/7/1 156/8/1
f 282/5/1 283/6/1 161/7/1 159/8/1
f 283/5/1 284/6/1 285/7/1 161/8/1
f 284/5/1 286/6/1 163/7/1 285/8/1
f 286/5/1 287/6/1 164/7/1 163/8/1
f 287/5/1 288/6/1 167/7/1 164/8/1
f 288/5/1 289/6/1 169/7/1 167/8/1
f 289/5/1 290/6/1 291/7/1 169/8/1
f 290/5/1 292/6/1 171/7/1 291/8/1
f 292/5/1 293/6/1 172/7/1 171/8/1
f 293/5/1 294/6/1 175/7/1 172/8/1
f 294/5/1 295/6/1 177/7/1 175/8/1
f 295/5/1 296/6/1 297/7/1 177/8/1
f 296/5/1 298/6/1 179/7/1 297/8/1
f 298/5/1 299/6/1 180/7/1 179/8/1
f 299/5/1 300/6/1 183/7/1 180/8/1
f 300/5/1 301/6/1 185/7/1 183/8/1
f 301/5/1 302/6/1 187/7/1 185/8/1
f 302/5/1 303/6/1 188/7/1 187/8/1
f 303/5/1 304/6/1 191/7/1 188/8/1
f 304/5/1 305/6/1 193/7/1 191/8/1
f 305/5/1 306/6/1 194/7/1 193/8/1
f 306/5/1 307/6/1 195/7/1 194/8/1
f 307/5/1 308/6/1 196/7/1 195/8/1
f 308/5/1 309/6/1 197/7/1 196/8/1
f 309/5/1 310/6/1 198/7/1 197/8/1
f 310/5/1 311/6/1 201/7/1 198/8/1
f 311/65/1 312/66/1 313/67/1 201/68/1
f 312/65/1 314/66/1 315/67/1 313/68/1
f 314/65/1 316/66/1 203/67/1 315/68/1
f 317/5/1 318/6/1 223/7/1 222/8/1
f 319/1/1 320/2/1 321/3/1 322/4/1
f 320/1/1 323/2/1 324/3/1 321/4/1
f 323/1/1 325/2/1 326/3/1 324/4/1
f 325/1/1 327/2/1 328/3/1 326/4/1
f 327/1/1 329/2/1 330/3/1 328/4/1
f 331/1/1 332/2/1 333/3/1 334/4/1
f 332/1/1 335/2/1 336/3/1 333/4/1
f 335/1/1 337/2/1 338/3/1 336/4/1
f 337/1/1 339/2/1 340/3/1 338/4/1
f 341/1/1 342/2/1 343/3/1 344/4/1
f 342/1/1 345/2/1 346/3/1 343/4/1
f 345/25/1 347/26/1 348/27/1 346/28/1
f 347/33/1 349/34/1 350/35/1 348/36/1
f 349/1/1 351/2/1 352/3/1 350/4/1
f 351/1/1 353/2/1 354/3/1 352/4/1
f 355/1/1 356/2/1 357/3/1 358/4/1
f 356/1/1 359/2/1 360/3/1 357/4/1
f 359/1/1 361/2/1 362/3/1 360/4/1
f 363/1/1 364/2/1 365/3/1 366/4/1
f 367/29/1 368/30/1 369/31/1 370/32/1
f 368/29/1 371/30/1 372/31/1 369/32/1
f 373/1/1 374/2/1 375/3/1 376/4/1
f 377/69/1 378/70/1 242/71/1 241/72/1
f 378/73/1 379/74/1 245/75/1 242/76/1
f 379/77/1 380/78/1 381/79/1 245/80/1
f 382/5/1 383/6/1 318/7/1 317/8/1
f 383/5/1 384/6/1 319/7/1 318/8/1
f 384/5/1 385/6/1 320/7/1 319/8/1
f 385/5/1 386/6/1 323/7/1 320/8/1
f 386/5/1 387/6/1 325/7/1 323/8/1
f 387/5/1 388/6/1 327/7/1 325/8/1
f 388/5/1 389/6/1 329/7/1 327/8/1
f 389/5/1 390/6/1 391/7/1 329/8/1
f 390/5/1 392/6/1 393/7/1 391/8/1
f 392/5/1 394/6/1 395/7/1 393/8/1
f 394/5/1 396/6/1 397/7/1 395/8/1
f 396/5/1 398/6/1 399/7/1 397/8/1
f 398/5/1 400/6/1 401/7/1 399/8/1
f 400/5/1 402/6/1 403/7/1 401/8/1
f 402/5/1 404/6/1 405/7/1 403/8/1
f 404/5/1 406/6/1 407/7/1 405/8/1
f 406/5/1 408/6/1 409/7/1 407/8/1
f 408/5/1 410/6/1 411/7/1 409/8/1
f 410/5/1 412/6/1 413/7/1 411/8/1
f 412/5/1 414/6/1 415/7/1 413/8/1
f 414/5/1 416/6/1 417/7/1 415/8/1
f 416/5/1 418/6/1 331/7/1 417/8/1
f 418/5/1 419/6/1 332/7/1 331/8/1
f 419/5/1 420/6/1 335/7/1 332/8/1
f 420/5/1 421/6/1 337/7/1 335/8/1
f 421/5/1 422/6/1 339/7/1 337/8/1
f 422/5/1 423/6/1 424/7/1 339/8/1
f 423/65/1 425/66/1 426/67/1 424/68/1
f 425/65/1 427/66/1 428/67/1 426/68/1
f 427/65/1 429/66/1 341/67/1 428/68/1
f 429/5/1 430/6/1 342/7/1 341/8/1
f 430/5/1 431/6/1 345/7/1 342/8/1
f 431/5/1 432/6/1 347/7/1 345/8/1
f 432/5/1 433/6/1 349/7/1 347/8/1
f 433/5/1 434/6/1 351/7/1 349/8/1
f 434/5/1 435/6/1 353/7/1 351/8/1
f 435/65/1 436/66/1 437/67/1 353/68/1
f 436/65/1 438/66/1 439/67/1 437/68/1
f 438/65/1 440/66/1 441/67/1 439/68/1
f 440/5/1 442/6/1 355/7/1 441/8/1
f 442/5/1 443/6/1 356/7/1 355/8/1
f 443/5/1 444/6/1 359/7/1 356/8/1
f 444/5/1 445/6/1 361/7/1 359/8/1
f 445/5/1 446/6/1 447/7/1 361/8/1
f 446/81/1 448/82/1 449/83/1 447/84/1
f 448/5/1 450/6/1 363/7/1 449/8/1
f 450/5/1 451/6/1 364/7/1 363/8/1
f 451/5/1 452/6/1 367/7/1 364/8/1
f 452/5/1 453/6/1 368/7/1 367/8/1
f 453/5/1 454/6/1 371/7/1 368/8/1
f 454/5/1 455/6/1 373/7/1 371/8/1
f 455/5/1 456/6/1 374/7/1 373/8/1
f 456/5/1 457/6/1 377/7/1 374/8/1
f 457/5/1 458/6/1 378/7/1 377/8/1
f 458/5/1 459/6/1 379/7/1 378/8/1
f 459/5/1 460/6/1 380/7/1 379/8/1

