# Wavefront OBJ file automatically generated by Tiled2Unity

# Vertices (Count = 331)
v -4960 -560 0
v -5040 -560 0
v -5040 -480 0
v -4960 -480 0
v -5120 -560 0
v -5120 -480 0
v -5200 -560 0
v -5200 -480 0
v -5280 -560 0
v -5280 -480 0
v -5680 -560 0
v -5760 -560 0
v -5760 -480 0
v -5680 -480 0
v -5840 -560 0
v -5840 -480 0
v -5920 -560 0
v -5920 -480 0
v -6320 -560 0
v -6400 -560 0
v -6400 -480 0
v -6320 -480 0
v -6480 -560 0
v -6480 -480 0
v -6560 -560 0
v -6560 -480 0
v -6960 -560 0
v -7040 -560 0
v -7040 -480 0
v -6960 -480 0
v -7120 -560 0
v -7120 -480 0
v -7200 -560 0
v -7280 -560 0
v -7280 -480 0
v -7200 -480 0
v -7360 -560 0
v -7440 -560 0
v -7440 -480 0
v -7360 -480 0
v -7520 -560 0
v -7600 -560 0
v -7600 -480 0
v -7520 -480 0
v -7680 -560 0
v -7760 -560 0
v -7760 -480 0
v -7680 -480 0
v -7840 -560 0
v -7840 -480 0
v -7920 -560 0
v -8000 -560 0
v -8000 -480 0
v -7920 -480 0
v -8080 -560 0
v -8160 -560 0
v -8160 -480 0
v -8080 -480 0
v -8240 -560 0
v -8320 -560 0
v -8320 -480 0
v -8240 -480 0
v -8400 -560 0
v -8480 -560 0
v -8480 -480 0
v -8400 -480 0
v -8560 -560 0
v -8560 -480 0
v -8960 -560 0
v -9040 -560 0
v -9040 -480 0
v -8960 -480 0
v -9120 -560 0
v -9120 -480 0
v -9200 -560 0
v -9280 -560 0
v -9280 -480 0
v -9200 -480 0
v -9360 -560 0
v -9360 -480 0
v -9440 -560 0
v -9520 -560 0
v -9520 -480 0
v -9440 -480 0
v -4640 -640 0
v -4720 -640 0
v -4720 -560 0
v -4640 -560 0
v -4800 -640 0
v -4800 -560 0
v -4880 -640 0
v -4960 -640 0
v -4880 -560 0
v -5040 -640 0
v -5120 -640 0
v -5200 -640 0
v -5280 -640 0
v -5360 -640 0
v -5360 -560 0
v -5600 -640 0
v -5680 -640 0
v -5600 -560 0
v -5760 -640 0
v -5840 -640 0
v -5920 -640 0
v -6000 -640 0
v -6000 -560 0
v -6080 -640 0
v -6080 -560 0
v -6160 -640 0
v -6160 -560 0
v -6240 -640 0
v -6240 -560 0
v -6320 -640 0
v -6400 -640 0
v -6480 -640 0
v -6560 -640 0
v -6640 -640 0
v -6640 -560 0
v -6880 -640 0
v -6960 -640 0
v -6880 -560 0
v -7040 -640 0
v -7120 -640 0
v -7200 -640 0
v -7280 -640 0
v -7360 -640 0
v -7440 -640 0
v -7520 -640 0
v -7600 -640 0
v -7680 -640 0
v -7760 -640 0
v -7840 -640 0
v -7920 -640 0
v -8000 -640 0
v -8080 -640 0
v -8160 -640 0
v -8240 -640 0
v -8320 -640 0
v -8400 -640 0
v -8480 -640 0
v -8560 -640 0
v -8640 -640 0
v -8640 -560 0
v -8880 -640 0
v -8960 -640 0
v -8880 -560 0
v -9040 -640 0
v -9120 -640 0
v -9200 -640 0
v -9280 -640 0
v -9360 -640 0
v -9440 -640 0
v -9520 -640 0
v -9600 -640 0
v -9600 -560 0
v -4320 -720 0
v -4400 -720 0
v -4400 -640 0
v -4320 -640 0
v -4480 -720 0
v -4480 -640 0
v -4560 -720 0
v -4640 -720 0
v -4560 -640 0
v -4720 -720 0
v -4800 -720 0
v -4880 -720 0
v -4080 -800 0
v -4160 -800 0
v -4160 -720 0
v -4080 -720 0
v -4240 -800 0
v -4320 -800 0
v -4240 -720 0
v -4400 -800 0
v -4480 -800 0
v -4560 -800 0
v -1440 -880 0
v -1520 -880 0
v -1520 -800 0
v -1440 -800 0
v -1600 -880 0
v -1600 -800 0
v -1680 -880 0
v -1680 -800 0
v -2080 -880 0
v -2160 -880 0
v -2160 -800 0
v -2080 -800 0
v -2240 -880 0
v -2240 -800 0
v -2320 -880 0
v -2320 -800 0
v -2400 -880 0
v -2480 -880 0
v -2480 -800 0
v -2400 -800 0
v -2560 -880 0
v -2560 -800 0
v -2640 -880 0
v -2720 -880 0
v -2720 -800 0
v -2640 -800 0
v -2800 -880 0
v -2800 -800 0
v -2880 -880 0
v -2960 -880 0
v -2960 -800 0
v -2880 -800 0
v -3040 -880 0
v -3120 -880 0
v -3120 -800 0
v -3040 -800 0
v -3200 -880 0
v -3280 -880 0
v -3280 -800 0
v -3200 -800 0
v -3360 -880 0
v -3440 -880 0
v -3440 -800 0
v -3360 -800 0
v -3520 -880 0
v -3520 -800 0
v -3600 -880 0
v -3680 -880 0
v -3680 -800 0
v -3600 -800 0
v -3760 -880 0
v -3840 -880 0
v -3840 -800 0
v -3760 -800 0
v -3920 -880 0
v -3920 -800 0
v -4000 -880 0
v -4080 -880 0
v -4000 -800 0
v -4160 -880 0
v -4240 -880 0
v -1120 -960 0
v -1200 -960 0
v -1200 -880 0
v -1120 -880 0
v -1280 -960 0
v -1280 -880 0
v -1360 -960 0
v -1440 -960 0
v -1360 -880 0
v -1520 -960 0
v -1600 -960 0
v -1680 -960 0
v -1760 -960 0
v -1760 -880 0
v -1840 -960 0
v -1840 -880 0
v -1920 -960 0
v -1920 -880 0
v -2000 -960 0
v -2000 -880 0
v -2080 -960 0
v -2160 -960 0
v -2240 -960 0
v -2320 -960 0
v -2400 -960 0
v -2480 -960 0
v -2560 -960 0
v -2640 -960 0
v -2720 -960 0
v -2800 -960 0
v -2880 -960 0
v -2960 -960 0
v -3040 -960 0
v -3120 -960 0
v -3200 -960 0
v -3280 -960 0
v -3360 -960 0
v -3440 -960 0
v -3520 -960 0
v -3600 -960 0
v -3680 -960 0
v -3760 -960 0
v -3840 -960 0
v -3920 -960 0
v -4000 -960 0
v -80 -1040 0
v -160 -1040 0
v -160 -960 0
v -80 -960 0
v -240 -1040 0
v -240 -960 0
v -880 -1040 0
v -960 -1040 0
v -960 -960 0
v -880 -960 0
v -1040 -1040 0
v -1120 -1040 0
v -1040 -960 0
v -1200 -1040 0
v -1280 -1040 0
v -1360 -1040 0
v 0 -1120 0
v -80 -1120 0
v 0 -1040 0
v -160 -1120 0
v -240 -1120 0
v -400 -1120 0
v -480 -1120 0
v -480 -1040 0
v -400 -1040 0
v -560 -1120 0
v -560 -1040 0
v -640 -1120 0
v -640 -1040 0
v -800 -1120 0
v -880 -1120 0
v -800 -1040 0
v -960 -1120 0
v -1040 -1120 0
v 0 -1200 0
v -80 -1200 0
v -160 -1200 0
v -240 -1200 0
v -320 -1200 0
v -320 -1120 0
v -400 -1200 0
v -480 -1200 0
v -560 -1200 0
v -640 -1200 0
v -720 -1200 0
v -720 -1120 0
v -800 -1200 0

# Texture cooridinates (Count = 48)
vt 0.2501221 0.7501221
vt 0.3748779 0.7501221
vt 0.3748779 0.9998779
vt 0.2501221 0.9998779
vt 0.6251221 0.7501221
vt 0.7498779 0.7501221
vt 0.7498779 0.9998779
vt 0.6251221 0.9998779
vt 0.3751221 0.7501221
vt 0.4998779 0.7501221
vt 0.4998779 0.9998779
vt 0.3751221 0.9998779
vt 0.7501221 0.7501221
vt 0.8748779 0.7501221
vt 0.8748779 0.9998779
vt 0.7501221 0.9998779
vt 0.1251221 0.7501221
vt 0.2498779 0.7501221
vt 0.2498779 0.9998779
vt 0.1251221 0.9998779
vt 0.2501221 0.5001221
vt 0.3748779 0.5001221
vt 0.3748779 0.7498779
vt 0.2501221 0.7498779
vt 0.5001221 0.7501221
vt 0.6248779 0.7501221
vt 0.6248779 0.9998779
vt 0.5001221 0.9998779
vt 0.2501221 0.2501221
vt 0.3748779 0.2501221
vt 0.3748779 0.4998779
vt 0.2501221 0.4998779
vt 0.3751221 0.2501221
vt 0.4998779 0.2501221
vt 0.4998779 0.4998779
vt 0.3751221 0.4998779
vt 0.0001220703 0.7501221
vt 0.1248779 0.7501221
vt 0.1248779 0.9998779
vt 0.0001220703 0.9998779
vt 0.2501221 0.0001220703
vt 0.3748779 0.0001220703
vt 0.3748779 0.2498779
vt 0.2501221 0.2498779
vt 0.3751221 0.0001220703
vt 0.4998779 0.0001220703
vt 0.4998779 0.2498779
vt 0.3751221 0.2498779

# Normal
vn 0 0 -1

# Groups (Count = 1)

g mesh_0001
f 1/1/1 2/2/1 3/3/1 4/4/1
f 2/1/1 5/2/1 6/3/1 3/4/1
f 5/1/1 7/2/1 8/3/1 6/4/1
f 7/1/1 9/2/1 10/3/1 8/4/1
f 11/1/1 12/2/1 13/3/1 14/4/1
f 12/1/1 15/2/1 16/3/1 13/4/1
f 15/1/1 17/2/1 18/3/1 16/4/1
f 19/1/1 20/2/1 21/3/1 22/4/1
f 20/1/1 23/2/1 24/3/1 21/4/1
f 23/1/1 25/2/1 26/3/1 24/4/1
f 27/1/1 28/2/1 29/3/1 30/4/1
f 28/1/1 31/2/1 32/3/1 29/4/1
f 33/5/1 34/6/1 35/7/1 36/8/1
f 37/1/1 38/2/1 39/3/1 40/4/1
f 41/9/1 42/10/1 43/11/1 44/12/1
f 45/1/1 46/2/1 47/3/1 48/4/1
f 46/1/1 49/2/1 50/3/1 47/4/1
f 51/5/1 52/6/1 53/7/1 54/8/1
f 55/1/1 56/2/1 57/3/1 58/4/1
f 59/9/1 60/10/1 61/11/1 62/12/1
f 63/1/1 64/2/1 65/3/1 66/4/1
f 64/1/1 67/2/1 68/3/1 65/4/1
f 69/1/1 70/2/1 71/3/1 72/4/1
f 70/1/1 73/2/1 74/3/1 71/4/1
f 75/13/1 76/14/1 77/15/1 78/16/1
f 76/13/1 79/14/1 80/15/1 77/16/1
f 81/1/1 82/2/1 83/3/1 84/4/1
f 85/1/1 86/2/1 87/3/1 88/4/1
f 86/1/1 89/2/1 90/3/1 87/4/1
f 91/17/1 92/18/1 1/19/1 93/20/1
f 92/17/1 94/18/1 2/19/1 1/20/1
f 94/17/1 95/18/1 5/19/1 2/20/1
f 95/17/1 96/18/1 7/19/1 5/20/1
f 96/17/1 97/18/1 9/19/1 7/20/1
f 97/17/1 98/18/1 99/19/1 9/20/1
f 100/17/1 101/18/1 11/19/1 102/20/1
f 101/17/1 103/18/1 12/19/1 11/20/1
f 103/17/1 104/18/1 15/19/1 12/20/1
f 104/17/1 105/18/1 17/19/1 15/20/1
f 105/17/1 106/18/1 107/19/1 17/20/1
f 106/21/1 108/22/1 109/23/1 107/24/1
f 108/21/1 110/22/1 111/23/1 109/24/1
f 110/21/1 112/22/1 113/23/1 111/24/1
f 112/17/1 114/18/1 19/19/1 113/20/1
f 114/17/1 115/18/1 20/19/1 19/20/1
f 115/17/1 116/18/1 23/19/1 20/20/1
f 116/17/1 117/18/1 25/19/1 23/20/1
f 117/17/1 118/18/1 119/19/1 25/20/1
f 120/17/1 121/18/1 27/19/1 122/20/1
f 121/17/1 123/18/1 28/19/1 27/20/1
f 123/17/1 124/18/1 31/19/1 28/20/1
f 124/17/1 125/18/1 33/19/1 31/20/1
f 125/17/1 126/18/1 34/19/1 33/20/1
f 126/17/1 127/18/1 37/19/1 34/20/1
f 127/17/1 128/18/1 38/19/1 37/20/1
f 128/17/1 129/18/1 41/19/1 38/20/1
f 129/17/1 130/18/1 42/19/1 41/20/1
f 130/17/1 131/18/1 45/19/1 42/20/1
f 131/17/1 132/18/1 46/19/1 45/20/1
f 132/17/1 133/18/1 49/19/1 46/20/1
f 133/17/1 134/18/1 51/19/1 49/20/1
f 134/17/1 135/18/1 52/19/1 51/20/1
f 135/17/1 136/18/1 55/19/1 52/20/1
f 136/17/1 137/18/1 56/19/1 55/20/1
f 137/17/1 138/18/1 59/19/1 56/20/1
f 138/17/1 139/18/1 60/19/1 59/20/1
f 139/17/1 140/18/1 63/19/1 60/20/1
f 140/17/1 141/18/1 64/19/1 63/20/1
f 141/17/1 142/18/1 67/19/1 64/20/1
f 142/17/1 143/18/1 144/19/1 67/20/1
f 145/17/1 146/18/1 69/19/1 147/20/1
f 146/17/1 148/18/1 70/19/1 69/20/1
f 148/17/1 149/18/1 73/19/1 70/20/1
f 149/17/1 150/18/1 75/19/1 73/20/1
f 150/17/1 151/18/1 76/19/1 75/20/1
f 151/17/1 152/18/1 79/19/1 76/20/1
f 152/17/1 153/18/1 81/19/1 79/20/1
f 153/17/1 154/18/1 82/19/1 81/20/1
f 154/17/1 155/18/1 156/19/1 82/20/1
f 157/1/1 158/2/1 159/3/1 160/4/1
f 158/1/1 161/2/1 162/3/1 159/4/1
f 163/17/1 164/18/1 85/19/1 165/20/1
f 164/17/1 166/18/1 86/19/1 85/20/1
f 166/17/1 167/18/1 89/19/1 86/20/1
f 167/17/1 168/18/1 91/19/1 89/20/1
f 169/1/1 170/2/1 171/3/1 172/4/1
f 173/17/1 174/18/1 157/19/1 175/20/1
f 174/17/1 176/18/1 158/19/1 157/20/1
f 176/17/1 177/18/1 161/19/1 158/20/1
f 177/17/1 178/18/1 163/19/1 161/20/1
f 179/1/1 180/2/1 181/3/1 182/4/1
f 180/1/1 183/2/1 184/3/1 181/4/1
f 183/1/1 185/2/1 186/3/1 184/4/1
f 187/1/1 188/2/1 189/3/1 190/4/1
f 188/1/1 191/2/1 192/3/1 189/4/1
f 191/1/1 193/2/1 194/3/1 192/4/1
f 195/9/1 196/10/1 197/11/1 198/12/1
f 196/9/1 199/10/1 200/11/1 197/12/1
f 201/1/1 202/2/1 203/3/1 204/4/1
f 202/1/1 205/2/1 206/3/1 203/4/1
f 207/5/1 208/6/1 209/7/1 210/8/1
f 211/1/1 212/2/1 213/3/1 214/4/1
f 215/13/1 216/14/1 217/15/1 218/16/1
f 219/1/1 220/2/1 221/3/1 222/4/1
f 220/1/1 223/2/1 224/3/1 221/4/1
f 225/25/1 226/26/1 227/27/1 228/28/1
f 229/1/1 230/2/1 231/3/1 232/4/1
f 230/1/1 233/2/1 234/3/1 231/4/1
f 235/17/1 236/18/1 169/19/1 237/20/1
f 236/17/1 238/18/1 170/19/1 169/20/1
f 238/17/1 239/18/1 173/19/1 170/20/1
f 240/1/1 241/2/1 242/3/1 243/4/1
f 241/1/1 244/2/1 245/3/1 242/4/1
f 246/17/1 247/18/1 179/19/1 248/20/1
f 247/17/1 249/18/1 180/19/1 179/20/1
f 249/17/1 250/18/1 183/19/1 180/20/1
f 250/17/1 251/18/1 185/19/1 183/20/1
f 251/17/1 252/18/1 253/19/1 185/20/1
f 252/21/1 254/22/1 255/23/1 253/24/1
f 254/21/1 256/22/1 257/23/1 255/24/1
f 256/21/1 258/22/1 259/23/1 257/24/1
f 258/17/1 260/18/1 187/19/1 259/20/1
f 260/17/1 261/18/1 188/19/1 187/20/1
f 261/17/1 262/18/1 191/19/1 188/20/1
f 262/17/1 263/18/1 193/19/1 191/20/1
f 263/17/1 264/18/1 195/19/1 193/20/1
f 264/17/1 265/18/1 196/19/1 195/20/1
f 265/17/1 266/18/1 199/19/1 196/20/1
f 266/17/1 267/18/1 201/19/1 199/20/1
f 267/17/1 268/18/1 202/19/1 201/20/1
f 268/17/1 269/18/1 205/19/1 202/20/1
f 269/17/1 270/18/1 207/19/1 205/20/1
f 270/17/1 271/18/1 208/19/1 207/20/1
f 271/17/1 272/18/1 211/19/1 208/20/1
f 272/17/1 273/18/1 212/19/1 211/20/1
f 273/17/1 274/18/1 215/19/1 212/20/1
f 274/17/1 275/18/1 216/19/1 215/20/1
f 275/17/1 276/18/1 219/19/1 216/20/1
f 276/17/1 277/18/1 220/19/1 219/20/1
f 277/17/1 278/18/1 223/19/1 220/20/1
f 278/17/1 279/18/1 225/19/1 223/20/1
f 279/17/1 280/18/1 226/19/1 225/20/1
f 280/17/1 281/18/1 229/19/1 226/20/1
f 281/17/1 282/18/1 230/19/1 229/20/1
f 282/17/1 283/18/1 233/19/1 230/20/1
f 283/17/1 284/18/1 235/19/1 233/20/1
f 285/29/1 286/30/1 287/31/1 288/32/1
f 286/33/1 289/34/1 290/35/1 287/36/1
f 291/1/1 292/2/1 293/3/1 294/4/1
f 295/17/1 296/18/1 240/19/1 297/20/1
f 296/17/1 298/18/1 241/19/1 240/20/1
f 298/17/1 299/18/1 244/19/1 241/20/1
f 299/17/1 300/18/1 246/19/1 244/20/1
f 301/37/1 302/38/1 285/39/1 303/40/1
f 302/41/1 304/42/1 286/43/1 285/44/1
f 304/45/1 305/46/1 289/47/1 286/48/1
f 306/1/1 307/2/1 308/3/1 309/4/1
f 307/1/1 310/2/1 311/3/1 308/4/1
f 310/1/1 312/2/1 313/3/1 311/4/1
f 314/17/1 315/18/1 291/19/1 316/20/1
f 315/17/1 317/18/1 292/19/1 291/20/1
f 317/17/1 318/18/1 295/19/1 292/20/1
f 319/17/1 320/18/1 302/19/1 301/20/1
f 320/17/1 321/18/1 304/19/1 302/20/1
f 321/17/1 322/18/1 305/19/1 304/20/1
f 322/17/1 323/18/1 324/19/1 305/20/1
f 323/17/1 325/18/1 306/19/1 324/20/1
f 325/17/1 326/18/1 307/19/1 306/20/1
f 326/17/1 327/18/1 310/19/1 307/20/1
f 327/17/1 328/18/1 312/19/1 310/20/1
f 328/17/1 329/18/1 330/19/1 312/20/1
f 329/17/1 331/18/1 314/19/1 330/20/1

