# Wavefront OBJ file automatically generated by Tiled2Unity

# Vertices (Count = 222)
v -80 -320 0
v -160 -320 0
v -160 -240 0
v -80 -240 0
v -240 -320 0
v -320 -320 0
v -320 -240 0
v -240 -240 0
v -400 -320 0
v -480 -320 0
v -480 -240 0
v -400 -240 0
v -880 -320 0
v -960 -320 0
v -960 -240 0
v -880 -240 0
v -1040 -320 0
v -1120 -320 0
v -1120 -240 0
v -1040 -240 0
v -1200 -320 0
v -1200 -240 0
v -1280 -320 0
v -1360 -320 0
v -1360 -240 0
v -1280 -240 0
v -1680 -320 0
v -1760 -320 0
v -1760 -240 0
v -1680 -240 0
v -1840 -320 0
v -1840 -240 0
v 0 -400 0
v -80 -400 0
v 0 -320 0
v -160 -400 0
v -240 -400 0
v -320 -400 0
v -400 -400 0
v -480 -400 0
v -560 -400 0
v -560 -320 0
v -800 -400 0
v -880 -400 0
v -800 -320 0
v -960 -400 0
v -1040 -400 0
v -1120 -400 0
v -1200 -400 0
v -1280 -400 0
v -1360 -400 0
v -1440 -400 0
v -1440 -320 0
v -1600 -400 0
v -1680 -400 0
v -1600 -320 0
v -1760 -400 0
v -1840 -400 0
v -1920 -400 0
v -1920 -320 0
v -2000 -400 0
v -2080 -400 0
v -2080 -320 0
v -2000 -320 0
v -2160 -400 0
v -2160 -320 0
v -1920 -480 0
v -2000 -480 0
v -2080 -480 0
v -2160 -480 0
v -2240 -480 0
v -2240 -400 0
v -2320 -480 0
v -2400 -480 0
v -2400 -400 0
v -2320 -400 0
v -2480 -480 0
v -2480 -400 0
v -2240 -560 0
v -2320 -560 0
v -2400 -560 0
v -2480 -560 0
v -2560 -560 0
v -2560 -480 0
v -3440 -640 0
v -3520 -640 0
v -3520 -560 0
v -3440 -560 0
v -3600 -640 0
v -3600 -560 0
v -2640 -720 0
v -2720 -720 0
v -2720 -640 0
v -2640 -640 0
v -2800 -720 0
v -2800 -640 0
v -2880 -720 0
v -2960 -720 0
v -2960 -640 0
v -2880 -640 0
v -3040 -720 0
v -3120 -720 0
v -3120 -640 0
v -3040 -640 0
v -3200 -720 0
v -3200 -640 0
v -3280 -720 0
v -3280 -640 0
v -3360 -720 0
v -3360 -640 0
v -3440 -720 0
v -3520 -720 0
v -3600 -720 0
v -2640 -800 0
v -2720 -800 0
v -2800 -800 0
v -2880 -800 0
v -2960 -800 0
v -3040 -800 0
v -3120 -800 0
v -3200 -800 0
v -3280 -800 0
v -3360 -800 0
v -3440 -800 0
v -3520 -800 0
v -3600 -800 0
v -1520 -880 0
v -1600 -880 0
v -1600 -800 0
v -1520 -800 0
v -1680 -880 0
v -1680 -800 0
v -2000 -880 0
v -2080 -880 0
v -2080 -800 0
v -2000 -800 0
v -2160 -880 0
v -2240 -880 0
v -2240 -800 0
v -2160 -800 0
v -2320 -880 0
v -2320 -800 0
v -2400 -880 0
v -2480 -880 0
v -2480 -800 0
v -2400 -800 0
v -1200 -960 0
v -1280 -960 0
v -1280 -880 0
v -1200 -880 0
v -1360 -960 0
v -1360 -880 0
v -1440 -960 0
v -1520 -960 0
v -1440 -880 0
v -1600 -960 0
v -1680 -960 0
v -1760 -960 0
v -1760 -880 0
v -1920 -960 0
v -2000 -960 0
v -1920 -880 0
v -2080 -960 0
v -2160 -960 0
v -2240 -960 0
v -2320 -960 0
v -2400 -960 0
v -2480 -960 0
v -2560 -960 0
v -2560 -880 0
v -80 -1040 0
v -160 -1040 0
v -160 -960 0
v -80 -960 0
v -240 -1040 0
v -240 -960 0
v -880 -1040 0
v -960 -1040 0
v -960 -960 0
v -880 -960 0
v -1040 -1040 0
v -1040 -960 0
v -1120 -1040 0
v -1200 -1040 0
v -1120 -960 0
v -1280 -1040 0
v -1360 -1040 0
v -1440 -1040 0
v 0 -1120 0
v -80 -1120 0
v 0 -1040 0
v -160 -1120 0
v -240 -1120 0
v -320 -1120 0
v -320 -1040 0
v -400 -1120 0
v -480 -1120 0
v -480 -1040 0
v -400 -1040 0
v -560 -1120 0
v -640 -1120 0
v -640 -1040 0
v -560 -1040 0
v -720 -1120 0
v -720 -1040 0
v -800 -1120 0
v -880 -1120 0
v -800 -1040 0
v -960 -1120 0
v -1040 -1120 0
v -1120 -1120 0
v 0 -1200 0
v -80 -1200 0
v -160 -1200 0
v -240 -1200 0
v -320 -1200 0
v -400 -1200 0
v -480 -1200 0
v -560 -1200 0
v -640 -1200 0
v -720 -1200 0
v -800 -1200 0

# Texture cooridinates (Count = 64)
vt 0.2501221 0.7501221
vt 0.3748779 0.7501221
vt 0.3748779 0.9998779
vt 0.2501221 0.9998779
vt 0.7501221 0.7501221
vt 0.8748779 0.7501221
vt 0.8748779 0.9998779
vt 0.7501221 0.9998779
vt 0.6251221 0.7501221
vt 0.7498779 0.7501221
vt 0.7498779 0.9998779
vt 0.6251221 0.9998779
vt 0.1251221 0.7501221
vt 0.2498779 0.7501221
vt 0.2498779 0.9998779
vt 0.1251221 0.9998779
vt 0.0001220703 0.2501221
vt 0.1248779 0.2501221
vt 0.1248779 0.4998779
vt 0.0001220703 0.4998779
vt 0.1251221 0.2501221
vt 0.2498779 0.2501221
vt 0.2498779 0.4998779
vt 0.1251221 0.4998779
vt 0.3751221 0.7501221
vt 0.4998779 0.7501221
vt 0.4998779 0.9998779
vt 0.3751221 0.9998779
vt 0.0001220703 0.0001220703
vt 0.1248779 0.0001220703
vt 0.1248779 0.2498779
vt 0.0001220703 0.2498779
vt 0.1251221 0.0001220703
vt 0.2498779 0.0001220703
vt 0.2498779 0.2498779
vt 0.1251221 0.2498779
vt 0.8751221 0.7501221
vt 0.9998779 0.7501221
vt 0.9998779 0.9998779
vt 0.8751221 0.9998779
vt 0.5001221 0.7501221
vt 0.6248779 0.7501221
vt 0.6248779 0.9998779
vt 0.5001221 0.9998779
vt 0.2501221 0.2501221
vt 0.3748779 0.2501221
vt 0.3748779 0.4998779
vt 0.2501221 0.4998779
vt 0.3751221 0.2501221
vt 0.4998779 0.2501221
vt 0.4998779 0.4998779
vt 0.3751221 0.4998779
vt 0.0001220703 0.7501221
vt 0.1248779 0.7501221
vt 0.1248779 0.9998779
vt 0.0001220703 0.9998779
vt 0.2501221 0.0001220703
vt 0.3748779 0.0001220703
vt 0.3748779 0.2498779
vt 0.2501221 0.2498779
vt 0.3751221 0.0001220703
vt 0.4998779 0.0001220703
vt 0.4998779 0.2498779
vt 0.3751221 0.2498779

# Normal
vn 0 0 -1

# Groups (Count = 1)

g mesh_0001
f 1/1/1 2/2/1 3/3/1 4/4/1
f 5/5/1 6/6/1 7/7/1 8/8/1
f 9/1/1 10/2/1 11/3/1 12/4/1
f 13/1/1 14/2/1 15/3/1 16/4/1
f 17/9/1 18/10/1 19/11/1 20/12/1
f 18/9/1 21/10/1 22/11/1 19/12/1
f 23/1/1 24/2/1 25/3/1 26/4/1
f 27/1/1 28/2/1 29/3/1 30/4/1
f 28/1/1 31/2/1 32/3/1 29/4/1
f 33/13/1 34/14/1 1/15/1 35/16/1
f 34/13/1 36/14/1 2/15/1 1/16/1
f 36/13/1 37/14/1 5/15/1 2/16/1
f 37/13/1 38/14/1 6/15/1 5/16/1
f 38/13/1 39/14/1 9/15/1 6/16/1
f 39/13/1 40/14/1 10/15/1 9/16/1
f 40/13/1 41/14/1 42/15/1 10/16/1
f 43/13/1 44/14/1 13/15/1 45/16/1
f 44/13/1 46/14/1 14/15/1 13/16/1
f 46/13/1 47/14/1 17/15/1 14/16/1
f 47/13/1 48/14/1 18/15/1 17/16/1
f 48/13/1 49/14/1 21/15/1 18/16/1
f 49/13/1 50/14/1 23/15/1 21/16/1
f 50/13/1 51/14/1 24/15/1 23/16/1
f 51/13/1 52/14/1 53/15/1 24/16/1
f 54/13/1 55/14/1 27/15/1 56/16/1
f 55/13/1 57/14/1 28/15/1 27/16/1
f 57/13/1 58/14/1 31/15/1 28/16/1
f 58/13/1 59/14/1 60/15/1 31/16/1
f 61/1/1 62/2/1 63/3/1 64/4/1
f 62/1/1 65/2/1 66/3/1 63/4/1
f 67/13/1 68/14/1 61/15/1 59/16/1
f 68/13/1 69/14/1 62/15/1 61/16/1
f 69/13/1 70/14/1 65/15/1 62/16/1
f 70/13/1 71/14/1 72/15/1 65/16/1
f 73/1/1 74/2/1 75/3/1 76/4/1
f 74/1/1 77/2/1 78/3/1 75/4/1
f 79/13/1 80/14/1 73/15/1 71/16/1
f 80/13/1 81/14/1 74/15/1 73/16/1
f 81/13/1 82/14/1 77/15/1 74/16/1
f 82/13/1 83/14/1 84/15/1 77/16/1
f 85/17/1 86/18/1 87/19/1 88/20/1
f 86/21/1 89/22/1 90/23/1 87/24/1
f 91/1/1 92/2/1 93/3/1 94/4/1
f 92/1/1 95/2/1 96/3/1 93/4/1
f 97/25/1 98/26/1 99/27/1 100/28/1
f 101/1/1 102/2/1 103/3/1 104/4/1
f 102/1/1 105/2/1 106/3/1 103/4/1
f 105/1/1 107/2/1 108/3/1 106/4/1
f 107/1/1 109/2/1 110/3/1 108/4/1
f 109/1/1 111/2/1 85/3/1 110/4/1
f 111/29/1 112/30/1 86/31/1 85/32/1
f 112/33/1 113/34/1 89/35/1 86/36/1
f 114/37/1 115/38/1 92/39/1 91/40/1
f 115/37/1 116/38/1 95/39/1 92/40/1
f 116/13/1 117/14/1 97/15/1 95/16/1
f 117/13/1 118/14/1 98/15/1 97/16/1
f 118/13/1 119/14/1 101/15/1 98/16/1
f 119/13/1 120/14/1 102/15/1 101/16/1
f 120/13/1 121/14/1 105/15/1 102/16/1
f 121/13/1 122/14/1 107/15/1 105/16/1
f 122/13/1 123/14/1 109/15/1 107/16/1
f 123/13/1 124/14/1 111/15/1 109/16/1
f 124/13/1 125/14/1 112/15/1 111/16/1
f 125/13/1 126/14/1 113/15/1 112/16/1
f 127/1/1 128/2/1 129/3/1 130/4/1
f 128/1/1 131/2/1 132/3/1 129/4/1
f 133/1/1 134/2/1 135/3/1 136/4/1
f 137/41/1 138/42/1 139/43/1 140/44/1
f 138/41/1 141/42/1 142/43/1 139/44/1
f 143/1/1 144/2/1 145/3/1 146/4/1
f 147/1/1 148/2/1 149/3/1 150/4/1
f 148/1/1 151/2/1 152/3/1 149/4/1
f 153/13/1 154/14/1 127/15/1 155/16/1
f 154/13/1 156/14/1 128/15/1 127/16/1
f 156/13/1 157/14/1 131/15/1 128/16/1
f 157/13/1 158/14/1 159/15/1 131/16/1
f 160/13/1 161/14/1 133/15/1 162/16/1
f 161/13/1 163/14/1 134/15/1 133/16/1
f 163/13/1 164/14/1 137/15/1 134/16/1
f 164/13/1 165/14/1 138/15/1 137/16/1
f 165/13/1 166/14/1 141/15/1 138/16/1
f 166/13/1 167/14/1 143/15/1 141/16/1
f 167/13/1 168/14/1 144/15/1 143/16/1
f 168/13/1 169/14/1 170/15/1 144/16/1
f 171/45/1 172/46/1 173/47/1 174/48/1
f 172/49/1 175/50/1 176/51/1 173/52/1
f 177/1/1 178/2/1 179/3/1 180/4/1
f 178/1/1 181/2/1 182/3/1 179/4/1
f 183/13/1 184/14/1 147/15/1 185/16/1
f 184/13/1 186/14/1 148/15/1 147/16/1
f 186/13/1 187/14/1 151/15/1 148/16/1
f 187/13/1 188/14/1 153/15/1 151/16/1
f 189/53/1 190/54/1 171/55/1 191/56/1
f 190/57/1 192/58/1 172/59/1 171/60/1
f 192/61/1 193/62/1 175/63/1 172/64/1
f 193/1/1 194/2/1 195/3/1 175/4/1
f 196/9/1 197/10/1 198/11/1 199/12/1
f 200/1/1 201/2/1 202/3/1 203/4/1
f 201/1/1 204/2/1 205/3/1 202/4/1
f 206/13/1 207/14/1 177/15/1 208/16/1
f 207/13/1 209/14/1 178/15/1 177/16/1
f 209/13/1 210/14/1 181/15/1 178/16/1
f 210/13/1 211/14/1 183/15/1 181/16/1
f 212/13/1 213/14/1 190/15/1 189/16/1
f 213/13/1 214/14/1 192/15/1 190/16/1
f 214/13/1 215/14/1 193/15/1 192/16/1
f 215/13/1 216/14/1 194/15/1 193/16/1
f 216/13/1 217/14/1 196/15/1 194/16/1
f 217/13/1 218/14/1 197/15/1 196/16/1
f 218/13/1 219/14/1 200/15/1 197/16/1
f 219/13/1 220/14/1 201/15/1 200/16/1
f 220/13/1 221/14/1 204/15/1 201/16/1
f 221/13/1 222/14/1 206/15/1 204/16/1

