# Wavefront OBJ file automatically generated by Tiled2Unity

# Vertices (Count = 335)
v -4240 -480 0
v -4320 -480 0
v -4320 -400 0
v -4240 -400 0
v -4560 -480 0
v -4640 -480 0
v -4640 -400 0
v -4560 -400 0
v -4720 -480 0
v -4720 -400 0
v -5040 -480 0
v -5120 -480 0
v -5120 -400 0
v -5040 -400 0
v -5200 -480 0
v -5200 -400 0
v -5280 -480 0
v -5360 -480 0
v -5360 -400 0
v -5280 -400 0
v -5440 -480 0
v -5440 -400 0
v -5520 -480 0
v -5520 -400 0
v -5600 -480 0
v -5680 -480 0
v -5680 -400 0
v -5600 -400 0
v -5760 -480 0
v -5760 -400 0
v -3920 -560 0
v -4000 -560 0
v -4000 -480 0
v -3920 -480 0
v -4160 -560 0
v -4240 -560 0
v -4160 -480 0
v -4320 -560 0
v -4400 -560 0
v -4400 -480 0
v -4560 -560 0
v -4640 -560 0
v -4720 -560 0
v -4960 -560 0
v -5040 -560 0
v -4960 -480 0
v -5120 -560 0
v -5200 -560 0
v -5280 -560 0
v -5360 -560 0
v -5440 -560 0
v -5520 -560 0
v -5600 -560 0
v -5680 -560 0
v -5760 -560 0
v -5840 -560 0
v -5840 -480 0
v -5920 -560 0
v -6000 -560 0
v -6000 -480 0
v -5920 -480 0
v -6080 -560 0
v -6160 -560 0
v -6160 -480 0
v -6080 -480 0
v -1680 -640 0
v -1760 -640 0
v -1760 -560 0
v -1680 -560 0
v -2320 -640 0
v -2400 -640 0
v -2400 -560 0
v -2320 -560 0
v -2480 -640 0
v -2560 -640 0
v -2560 -560 0
v -2480 -560 0
v -2640 -640 0
v -2640 -560 0
v -2720 -640 0
v -2800 -640 0
v -2800 -560 0
v -2720 -560 0
v -3600 -640 0
v -3680 -640 0
v -3680 -560 0
v -3600 -560 0
v -3840 -640 0
v -3920 -640 0
v -3840 -560 0
v -4000 -640 0
v -4080 -640 0
v -4080 -560 0
v -5840 -640 0
v -5920 -640 0
v -6000 -640 0
v -6080 -640 0
v -6160 -640 0
v -6240 -640 0
v -6320 -640 0
v -6320 -560 0
v -6240 -560 0
v -6400 -640 0
v -6400 -560 0
v -6800 -640 0
v -6880 -640 0
v -6880 -560 0
v -6800 -560 0
v -6960 -640 0
v -6960 -560 0
v -7040 -640 0
v -7120 -640 0
v -7120 -560 0
v -7040 -560 0
v -7200 -640 0
v -7280 -640 0
v -7280 -560 0
v -7200 -560 0
v -7360 -640 0
v -7360 -560 0
v -7440 -640 0
v -7440 -560 0
v -7520 -640 0
v -7600 -640 0
v -7600 -560 0
v -7520 -560 0
v -7680 -640 0
v -7760 -640 0
v -7760 -560 0
v -7680 -560 0
v -7840 -640 0
v -7840 -560 0
v -7920 -640 0
v -8000 -640 0
v -8000 -560 0
v -7920 -560 0
v -8080 -640 0
v -8160 -640 0
v -8160 -560 0
v -8080 -560 0
v -8240 -640 0
v -8320 -640 0
v -8320 -560 0
v -8240 -560 0
v -8400 -640 0
v -8480 -640 0
v -8480 -560 0
v -8400 -560 0
v -8560 -640 0
v -8640 -640 0
v -8640 -560 0
v -8560 -560 0
v -8720 -640 0
v -8800 -640 0
v -8800 -560 0
v -8720 -560 0
v -8880 -640 0
v -8880 -560 0
v -8960 -640 0
v -8960 -560 0
v -9040 -640 0
v -9120 -640 0
v -9120 -560 0
v -9040 -560 0
v -9200 -640 0
v -9200 -560 0
v -9280 -640 0
v -9360 -640 0
v -9360 -560 0
v -9280 -560 0
v -9440 -640 0
v -9440 -560 0
v -1360 -720 0
v -1440 -720 0
v -1440 -640 0
v -1360 -640 0
v -1600 -720 0
v -1680 -720 0
v -1600 -640 0
v -1760 -720 0
v -1840 -720 0
v -1840 -640 0
v -1920 -720 0
v -2000 -720 0
v -2000 -640 0
v -1920 -640 0
v -2080 -720 0
v -2080 -640 0
v -2240 -720 0
v -2320 -720 0
v -2240 -640 0
v -2400 -720 0
v -2480 -720 0
v -2560 -720 0
v -2640 -720 0
v -2720 -720 0
v -2800 -720 0
v -2880 -720 0
v -2880 -640 0
v -3120 -720 0
v -3200 -720 0
v -3200 -640 0
v -3120 -640 0
v -3280 -720 0
v -3280 -640 0
v -3520 -720 0
v -3600 -720 0
v -3520 -640 0
v -3680 -720 0
v -3760 -720 0
v -3760 -640 0
v -6160 -720 0
v -6240 -720 0
v -6320 -720 0
v -6400 -720 0
v -6480 -720 0
v -6480 -640 0
v -6560 -720 0
v -6560 -640 0
v -6640 -720 0
v -6640 -640 0
v -6720 -720 0
v -6720 -640 0
v -6800 -720 0
v -6880 -720 0
v -6960 -720 0
v -7040 -720 0
v -7120 -720 0
v -7200 -720 0
v -7280 -720 0
v -7360 -720 0
v -7440 -720 0
v -7520 -720 0
v -7600 -720 0
v -7680 -720 0
v -7760 -720 0
v -7840 -720 0
v -7920 -720 0
v -8000 -720 0
v -8080 -720 0
v -8160 -720 0
v -8240 -720 0
v -8320 -720 0
v -8400 -720 0
v -8480 -720 0
v -8560 -720 0
v -8640 -720 0
v -8720 -720 0
v -8800 -720 0
v -8880 -720 0
v -8960 -720 0
v -9040 -720 0
v -9120 -720 0
v -9200 -720 0
v -9280 -720 0
v -9360 -720 0
v -9440 -720 0
v -9520 -720 0
v -9520 -640 0
v -9600 -720 0
v -9600 -640 0
v -80 -800 0
v -160 -800 0
v -160 -720 0
v -80 -720 0
v -240 -800 0
v -240 -720 0
v -1040 -800 0
v -1120 -800 0
v -1120 -720 0
v -1040 -720 0
v -1280 -800 0
v -1360 -800 0
v -1280 -720 0
v -1440 -800 0
v -1520 -800 0
v -1520 -720 0
v -1840 -800 0
v -1920 -800 0
v -2000 -800 0
v -2080 -800 0
v -2160 -800 0
v -2160 -720 0
v -2880 -800 0
v -2960 -800 0
v -2960 -720 0
v -3040 -800 0
v -3040 -720 0
v -3120 -800 0
v -3200 -800 0
v -3280 -800 0
v -3360 -800 0
v -3360 -720 0
v -3440 -800 0
v -3440 -720 0
v -3520 -800 0
v 0 -880 0
v -80 -880 0
v 0 -800 0
v -160 -880 0
v -240 -880 0
v -320 -880 0
v -400 -880 0
v -400 -800 0
v -320 -800 0
v -480 -880 0
v -480 -800 0
v -560 -880 0
v -640 -880 0
v -640 -800 0
v -560 -800 0
v -720 -880 0
v -720 -800 0
v -800 -880 0
v -880 -880 0
v -880 -800 0
v -800 -800 0
v -960 -880 0
v -1040 -880 0
v -960 -800 0
v -1120 -880 0
v -1200 -880 0
v -1200 -800 0
v 0 -960 0
v -80 -960 0
v -160 -960 0
v -240 -960 0
v -320 -960 0
v -400 -960 0
v -480 -960 0
v -560 -960 0
v -640 -960 0
v -720 -960 0
v -800 -960 0
v -880 -960 0

# Texture cooridinates (Count = 48)
vt 0.2501221 0.7501221
vt 0.3748779 0.7501221
vt 0.3748779 0.9998779
vt 0.2501221 0.9998779
vt 0.3751221 0.7501221
vt 0.4998779 0.7501221
vt 0.4998779 0.9998779
vt 0.3751221 0.9998779
vt 0.6251221 0.7501221
vt 0.7498779 0.7501221
vt 0.7498779 0.9998779
vt 0.6251221 0.9998779
vt 0.5001221 0.7501221
vt 0.6248779 0.7501221
vt 0.6248779 0.9998779
vt 0.5001221 0.9998779
vt 0.1251221 0.7501221
vt 0.2498779 0.7501221
vt 0.2498779 0.9998779
vt 0.1251221 0.9998779
vt 0.7501221 0.7501221
vt 0.8748779 0.7501221
vt 0.8748779 0.9998779
vt 0.7501221 0.9998779
vt 0.2501221 0.5001221
vt 0.3748779 0.5001221
vt 0.3748779 0.7498779
vt 0.2501221 0.7498779
vt 0.2501221 0.2501221
vt 0.3748779 0.2501221
vt 0.3748779 0.4998779
vt 0.2501221 0.4998779
vt 0.3751221 0.2501221
vt 0.4998779 0.2501221
vt 0.4998779 0.4998779
vt 0.3751221 0.4998779
vt 0.0001220703 0.7501221
vt 0.1248779 0.7501221
vt 0.1248779 0.9998779
vt 0.0001220703 0.9998779
vt 0.2501221 0.0001220703
vt 0.3748779 0.0001220703
vt 0.3748779 0.2498779
vt 0.2501221 0.2498779
vt 0.3751221 0.0001220703
vt 0.4998779 0.0001220703
vt 0.4998779 0.2498779
vt 0.3751221 0.2498779

# Normal
vn 0 0 -1

# Groups (Count = 1)

g mesh_0001
f 1/1/1 2/2/1 3/3/1 4/4/1
f 5/1/1 6/2/1 7/3/1 8/4/1
f 6/1/1 9/2/1 10/3/1 7/4/1
f 11/1/1 12/2/1 13/3/1 14/4/1
f 12/1/1 15/2/1 16/3/1 13/4/1
f 17/5/1 18/6/1 19/7/1 20/8/1
f 18/9/1 21/10/1 22/11/1 19/12/1
f 21/13/1 23/14/1 24/15/1 22/16/1
f 25/1/1 26/2/1 27/3/1 28/4/1
f 26/1/1 29/2/1 30/3/1 27/4/1
f 31/1/1 32/2/1 33/3/1 34/4/1
f 35/17/1 36/18/1 1/19/1 37/20/1
f 36/17/1 38/18/1 2/19/1 1/20/1
f 38/17/1 39/18/1 40/19/1 2/20/1
f 41/17/1 42/18/1 6/19/1 5/20/1
f 42/17/1 43/18/1 9/19/1 6/20/1
f 44/17/1 45/18/1 11/19/1 46/20/1
f 45/17/1 47/18/1 12/19/1 11/20/1
f 47/17/1 48/18/1 15/19/1 12/20/1
f 48/17/1 49/18/1 17/19/1 15/20/1
f 49/17/1 50/18/1 18/19/1 17/20/1
f 50/17/1 51/18/1 21/19/1 18/20/1
f 51/17/1 52/18/1 23/19/1 21/20/1
f 52/17/1 53/18/1 25/19/1 23/20/1
f 53/17/1 54/18/1 26/19/1 25/20/1
f 54/17/1 55/18/1 29/19/1 26/20/1
f 55/17/1 56/18/1 57/19/1 29/20/1
f 58/1/1 59/2/1 60/3/1 61/4/1
f 62/5/1 63/6/1 64/7/1 65/8/1
f 66/1/1 67/2/1 68/3/1 69/4/1
f 70/1/1 71/2/1 72/3/1 73/4/1
f 74/5/1 75/6/1 76/7/1 77/8/1
f 75/13/1 78/14/1 79/15/1 76/16/1
f 80/1/1 81/2/1 82/3/1 83/4/1
f 84/1/1 85/2/1 86/3/1 87/4/1
f 88/17/1 89/18/1 31/19/1 90/20/1
f 89/17/1 91/18/1 32/19/1 31/20/1
f 91/17/1 92/18/1 93/19/1 32/20/1
f 94/17/1 95/18/1 58/19/1 56/20/1
f 95/17/1 96/18/1 59/19/1 58/20/1
f 96/17/1 97/18/1 62/19/1 59/20/1
f 97/17/1 98/18/1 63/19/1 62/20/1
f 99/1/1 100/2/1 101/3/1 102/4/1
f 100/1/1 103/2/1 104/3/1 101/4/1
f 105/1/1 106/2/1 107/3/1 108/4/1
f 106/1/1 109/2/1 110/3/1 107/4/1
f 111/9/1 112/10/1 113/11/1 114/12/1
f 115/1/1 116/2/1 117/3/1 118/4/1
f 116/1/1 119/2/1 120/3/1 117/4/1
f 119/1/1 121/2/1 122/3/1 120/4/1
f 123/13/1 124/14/1 125/15/1 126/16/1
f 127/1/1 128/2/1 129/3/1 130/4/1
f 128/1/1 131/2/1 132/3/1 129/4/1
f 133/9/1 134/10/1 135/11/1 136/12/1
f 137/1/1 138/2/1 139/3/1 140/4/1
f 141/21/1 142/22/1 143/23/1 144/24/1
f 145/1/1 146/2/1 147/3/1 148/4/1
f 149/9/1 150/10/1 151/11/1 152/12/1
f 153/1/1 154/2/1 155/3/1 156/4/1
f 154/1/1 157/2/1 158/3/1 155/4/1
f 157/1/1 159/2/1 160/3/1 158/4/1
f 161/5/1 162/6/1 163/7/1 164/8/1
f 162/5/1 165/6/1 166/7/1 163/8/1
f 167/1/1 168/2/1 169/3/1 170/4/1
f 168/1/1 171/2/1 172/3/1 169/4/1
f 173/1/1 174/2/1 175/3/1 176/4/1
f 177/17/1 178/18/1 66/19/1 179/20/1
f 178/17/1 180/18/1 67/19/1 66/20/1
f 180/17/1 181/18/1 182/19/1 67/20/1
f 183/1/1 184/2/1 185/3/1 186/4/1
f 184/1/1 187/2/1 188/3/1 185/4/1
f 189/17/1 190/18/1 70/19/1 191/20/1
f 190/17/1 192/18/1 71/19/1 70/20/1
f 192/17/1 193/18/1 74/19/1 71/20/1
f 193/17/1 194/18/1 75/19/1 74/20/1
f 194/17/1 195/18/1 78/19/1 75/20/1
f 195/17/1 196/18/1 80/19/1 78/20/1
f 196/17/1 197/18/1 81/19/1 80/20/1
f 197/17/1 198/18/1 199/19/1 81/20/1
f 200/1/1 201/2/1 202/3/1 203/4/1
f 201/1/1 204/2/1 205/3/1 202/4/1
f 206/17/1 207/18/1 84/19/1 208/20/1
f 207/17/1 209/18/1 85/19/1 84/20/1
f 209/17/1 210/18/1 211/19/1 85/20/1
f 212/17/1 213/18/1 99/19/1 98/20/1
f 213/17/1 214/18/1 100/19/1 99/20/1
f 214/17/1 215/18/1 103/19/1 100/20/1
f 215/17/1 216/18/1 217/19/1 103/20/1
f 216/25/1 218/26/1 219/27/1 217/28/1
f 218/25/1 220/26/1 221/27/1 219/28/1
f 220/25/1 222/26/1 223/27/1 221/28/1
f 222/17/1 224/18/1 105/19/1 223/20/1
f 224/17/1 225/18/1 106/19/1 105/20/1
f 225/17/1 226/18/1 109/19/1 106/20/1
f 226/17/1 227/18/1 111/19/1 109/20/1
f 227/17/1 228/18/1 112/19/1 111/20/1
f 228/17/1 229/18/1 115/19/1 112/20/1
f 229/17/1 230/18/1 116/19/1 115/20/1
f 230/17/1 231/18/1 119/19/1 116/20/1
f 231/17/1 232/18/1 121/19/1 119/20/1
f 232/17/1 233/18/1 123/19/1 121/20/1
f 233/17/1 234/18/1 124/19/1 123/20/1
f 234/17/1 235/18/1 127/19/1 124/20/1
f 235/17/1 236/18/1 128/19/1 127/20/1
f 236/17/1 237/18/1 131/19/1 128/20/1
f 237/17/1 238/18/1 133/19/1 131/20/1
f 238/17/1 239/18/1 134/19/1 133/20/1
f 239/17/1 240/18/1 137/19/1 134/20/1
f 240/17/1 241/18/1 138/19/1 137/20/1
f 241/17/1 242/18/1 141/19/1 138/20/1
f 242/17/1 243/18/1 142/19/1 141/20/1
f 243/17/1 244/18/1 145/19/1 142/20/1
f 244/17/1 245/18/1 146/19/1 145/20/1
f 245/17/1 246/18/1 149/19/1 146/20/1
f 246/17/1 247/18/1 150/19/1 149/20/1
f 247/17/1 248/18/1 153/19/1 150/20/1
f 248/17/1 249/18/1 154/19/1 153/20/1
f 249/17/1 250/18/1 157/19/1 154/20/1
f 250/17/1 251/18/1 159/19/1 157/20/1
f 251/17/1 252/18/1 161/19/1 159/20/1
f 252/17/1 253/18/1 162/19/1 161/20/1
f 253/17/1 254/18/1 165/19/1 162/20/1
f 254/17/1 255/18/1 167/19/1 165/20/1
f 255/17/1 256/18/1 168/19/1 167/20/1
f 256/17/1 257/18/1 171/19/1 168/20/1
f 257/17/1 258/18/1 259/19/1 171/20/1
f 258/17/1 260/18/1 261/19/1 259/20/1
f 262/29/1 263/30/1 264/31/1 265/32/1
f 263/33/1 266/34/1 267/35/1 264/36/1
f 268/1/1 269/2/1 270/3/1 271/4/1
f 272/17/1 273/18/1 173/19/1 274/20/1
f 273/17/1 275/18/1 174/19/1 173/20/1
f 275/17/1 276/18/1 277/19/1 174/20/1
f 278/17/1 279/18/1 183/19/1 181/20/1
f 279/17/1 280/18/1 184/19/1 183/20/1
f 280/17/1 281/18/1 187/19/1 184/20/1
f 281/17/1 282/18/1 283/19/1 187/20/1
f 284/25/1 285/26/1 286/27/1 198/28/1
f 285/25/1 287/26/1 288/27/1 286/28/1
f 287/25/1 289/26/1 200/27/1 288/28/1
f 289/17/1 290/18/1 201/19/1 200/20/1
f 290/17/1 291/18/1 204/19/1 201/20/1
f 291/25/1 292/26/1 293/27/1 204/28/1
f 292/25/1 294/26/1 295/27/1 293/28/1
f 294/25/1 296/26/1 206/27/1 295/28/1
f 297/37/1 298/38/1 262/39/1 299/40/1
f 298/41/1 300/42/1 263/43/1 262/44/1
f 300/45/1 301/46/1 266/47/1 263/48/1
f 302/1/1 303/2/1 304/3/1 305/4/1
f 303/1/1 306/2/1 307/3/1 304/4/1
f 308/9/1 309/10/1 310/11/1 311/12/1
f 309/9/1 312/10/1 313/11/1 310/12/1
f 314/1/1 315/2/1 316/3/1 317/4/1
f 318/17/1 319/18/1 268/19/1 320/20/1
f 319/17/1 321/18/1 269/19/1 268/20/1
f 321/17/1 322/18/1 323/19/1 269/20/1
f 324/17/1 325/18/1 298/19/1 297/20/1
f 325/17/1 326/18/1 300/19/1 298/20/1
f 326/17/1 327/18/1 301/19/1 300/20/1
f 327/17/1 328/18/1 302/19/1 301/20/1
f 328/17/1 329/18/1 303/19/1 302/20/1
f 329/17/1 330/18/1 306/19/1 303/20/1
f 330/17/1 331/18/1 308/19/1 306/20/1
f 331/17/1 332/18/1 309/19/1 308/20/1
f 332/17/1 333/18/1 312/19/1 309/20/1
f 333/17/1 334/18/1 314/19/1 312/20/1
f 334/17/1 335/18/1 315/19/1 314/20/1

