# Wavefront OBJ file automatically generated by Tiled2Unity

# Vertices (Count = 534)
v -880 -320 0
v -960 -320 0
v -960 -240 0
v -880 -240 0
v -1040 -320 0
v -1120 -320 0
v -1120 -240 0
v -1040 -240 0
v -2000 -320 0
v -2080 -320 0
v -2080 -240 0
v -2000 -240 0
v -2160 -320 0
v -2240 -320 0
v -2240 -240 0
v -2160 -240 0
v -2320 -320 0
v -2320 -240 0
v -2400 -320 0
v -2480 -320 0
v -2480 -240 0
v -2400 -240 0
v -2800 -320 0
v -2880 -320 0
v -2880 -240 0
v -2800 -240 0
v -2960 -320 0
v -2960 -240 0
v -3200 -320 0
v -3280 -320 0
v -3280 -240 0
v -3200 -240 0
v -3360 -320 0
v -3360 -240 0
v -3680 -320 0
v -3760 -320 0
v -3760 -240 0
v -3680 -240 0
v -3840 -320 0
v -3840 -240 0
v -3920 -320 0
v -4000 -320 0
v -4000 -240 0
v -3920 -240 0
v -4080 -320 0
v -4080 -240 0
v -4160 -320 0
v -4240 -320 0
v -4240 -240 0
v -4160 -240 0
v -4320 -320 0
v -4320 -240 0
v -4400 -320 0
v -4400 -240 0
v -4480 -320 0
v -4560 -320 0
v -4560 -240 0
v -4480 -240 0
v -4640 -320 0
v -4640 -240 0
v -4720 -320 0
v -4800 -320 0
v -4800 -240 0
v -4720 -240 0
v -4880 -320 0
v -4880 -240 0
v -4960 -320 0
v -4960 -240 0
v -5040 -320 0
v -5040 -240 0
v -5120 -320 0
v -5200 -320 0
v -5200 -240 0
v -5120 -240 0
v -5280 -320 0
v -5280 -240 0
v -5360 -320 0
v -5440 -320 0
v -5440 -240 0
v -5360 -240 0
v -8240 -320 0
v -8320 -320 0
v -8320 -240 0
v -8240 -240 0
v -8400 -320 0
v -8400 -240 0
v -80 -400 0
v -160 -400 0
v -160 -320 0
v -80 -320 0
v -240 -400 0
v -240 -320 0
v -800 -400 0
v -880 -400 0
v -800 -320 0
v -960 -400 0
v -1040 -400 0
v -1120 -400 0
v -1200 -400 0
v -1200 -320 0
v -1280 -400 0
v -1360 -400 0
v -1360 -320 0
v -1280 -320 0
v -1760 -400 0
v -1840 -400 0
v -1840 -320 0
v -1760 -320 0
v -1920 -400 0
v -2000 -400 0
v -1920 -320 0
v -2080 -400 0
v -2160 -400 0
v -2240 -400 0
v -2320 -400 0
v -2400 -400 0
v -2480 -400 0
v -2560 -400 0
v -2560 -320 0
v -2800 -400 0
v -2880 -400 0
v -2960 -400 0
v -3200 -400 0
v -3280 -400 0
v -3360 -400 0
v -3600 -400 0
v -3680 -400 0
v -3600 -320 0
v -3760 -400 0
v -3840 -400 0
v -3920 -400 0
v -4000 -400 0
v -4080 -400 0
v -4160 -400 0
v -4240 -400 0
v -4320 -400 0
v -4400 -400 0
v -4480 -400 0
v -4560 -400 0
v -4640 -400 0
v -4720 -400 0
v -4800 -400 0
v -4880 -400 0
v -4960 -400 0
v -5040 -400 0
v -5120 -400 0
v -5200 -400 0
v -5280 -400 0
v -5360 -400 0
v -5440 -400 0
v -5520 -400 0
v -5520 -320 0
v -8000 -400 0
v -8080 -400 0
v -8080 -320 0
v -8000 -320 0
v -8160 -400 0
v -8240 -400 0
v -8160 -320 0
v -8320 -400 0
v -8400 -400 0
v -8480 -400 0
v -8480 -320 0
v -8560 -400 0
v -8640 -400 0
v -8640 -320 0
v -8560 -320 0
v 0 -480 0
v -80 -480 0
v 0 -400 0
v -160 -480 0
v -240 -480 0
v -320 -480 0
v -400 -480 0
v -400 -400 0
v -320 -400 0
v -480 -480 0
v -480 -400 0
v -560 -480 0
v -560 -400 0
v -640 -480 0
v -640 -400 0
v -1200 -480 0
v -1280 -480 0
v -1360 -480 0
v -1440 -480 0
v -1440 -400 0
v -1520 -480 0
v -1520 -400 0
v -1600 -480 0
v -1600 -400 0
v -1680 -480 0
v -1680 -400 0
v -1760 -480 0
v -1840 -480 0
v -1920 -480 0
v -7920 -480 0
v -8000 -480 0
v -7920 -400 0
v -8080 -480 0
v -8160 -480 0
v -8480 -480 0
v -8560 -480 0
v -8640 -480 0
v -8720 -480 0
v -8720 -400 0
v -8800 -480 0
v -8800 -400 0
v -8880 -480 0
v -8880 -400 0
v -8960 -480 0
v -9040 -480 0
v -9040 -400 0
v -8960 -400 0
v -9120 -480 0
v -9200 -480 0
v -9200 -400 0
v -9120 -400 0
v 0 -560 0
v -80 -560 0
v -160 -560 0
v -240 -560 0
v -320 -560 0
v -400 -560 0
v -480 -560 0
v -560 -560 0
v -640 -560 0
v -720 -560 0
v -720 -480 0
v -6400 -560 0
v -6480 -560 0
v -6480 -480 0
v -6400 -480 0
v -7040 -560 0
v -7120 -560 0
v -7120 -480 0
v -7040 -480 0
v -7680 -560 0
v -7760 -560 0
v -7760 -480 0
v -7680 -480 0
v -8880 -560 0
v -8960 -560 0
v -9040 -560 0
v -9120 -560 0
v -9200 -560 0
v -9280 -560 0
v -9280 -480 0
v -9360 -560 0
v -9440 -560 0
v -9440 -480 0
v -9360 -480 0
v -6320 -640 0
v -6400 -640 0
v -6320 -560 0
v -6480 -640 0
v -6560 -640 0
v -6560 -560 0
v -6960 -640 0
v -7040 -640 0
v -6960 -560 0
v -7120 -640 0
v -7200 -640 0
v -7200 -560 0
v -7600 -640 0
v -7680 -640 0
v -7600 -560 0
v -7760 -640 0
v -7840 -640 0
v -7840 -560 0
v -9280 -640 0
v -9360 -640 0
v -9440 -640 0
v -9520 -640 0
v -9520 -560 0
v -9600 -640 0
v -9600 -560 0
v -9680 -640 0
v -9680 -560 0
v -9760 -640 0
v -9840 -640 0
v -9840 -560 0
v -9760 -560 0
v -5360 -720 0
v -5440 -720 0
v -5440 -640 0
v -5360 -640 0
v -5760 -720 0
v -5840 -720 0
v -5840 -640 0
v -5760 -640 0
v -5920 -720 0
v -5920 -640 0
v -6000 -720 0
v -6000 -640 0
v -6080 -720 0
v -6080 -640 0
v -6160 -720 0
v -6160 -640 0
v -6720 -720 0
v -6800 -720 0
v -6800 -640 0
v -6720 -640 0
v -7360 -720 0
v -7440 -720 0
v -7440 -640 0
v -7360 -640 0
v -9520 -720 0
v -9600 -720 0
v -9680 -720 0
v -9760 -720 0
v -9840 -720 0
v -9920 -720 0
v -9920 -640 0
v -10000 -720 0
v -10080 -720 0
v -10080 -640 0
v -10000 -640 0
v -10160 -720 0
v -10160 -640 0
v -10240 -720 0
v -10240 -640 0
v -10640 -720 0
v -10720 -720 0
v -10720 -640 0
v -10640 -640 0
v -880 -800 0
v -960 -800 0
v -960 -720 0
v -880 -720 0
v -1040 -800 0
v -1040 -720 0
v -1120 -800 0
v -1120 -720 0
v -1200 -800 0
v -1200 -720 0
v -1280 -800 0
v -1280 -720 0
v -1360 -800 0
v -1440 -800 0
v -1440 -720 0
v -1360 -720 0
v -1600 -800 0
v -1680 -800 0
v -1680 -720 0
v -1600 -720 0
v -1760 -800 0
v -1840 -800 0
v -1840 -720 0
v -1760 -720 0
v -1920 -800 0
v -2000 -800 0
v -2000 -720 0
v -1920 -720 0
v -2080 -800 0
v -2080 -720 0
v -2160 -800 0
v -2240 -800 0
v -2240 -720 0
v -2160 -720 0
v -2320 -800 0
v -2320 -720 0
v -5040 -800 0
v -5120 -800 0
v -5120 -720 0
v -5040 -720 0
v -5200 -800 0
v -5280 -800 0
v -5280 -720 0
v -5200 -720 0
v -5360 -800 0
v -5440 -800 0
v -5520 -800 0
v -5520 -720 0
v -5600 -800 0
v -5600 -720 0
v -5680 -800 0
v -5680 -720 0
v -5760 -800 0
v -5840 -800 0
v -5920 -800 0
v -6000 -800 0
v -6080 -800 0
v -6160 -800 0
v -6240 -800 0
v -6240 -720 0
v -6640 -800 0
v -6720 -800 0
v -6640 -720 0
v -6800 -800 0
v -6880 -800 0
v -6880 -720 0
v -7280 -800 0
v -7360 -800 0
v -7280 -720 0
v -7440 -800 0
v -7520 -800 0
v -7520 -720 0
v -9920 -800 0
v -10000 -800 0
v -10080 -800 0
v -10160 -800 0
v -10240 -800 0
v -10320 -800 0
v -10320 -720 0
v -10400 -800 0
v -10400 -720 0
v -10480 -800 0
v -10480 -720 0
v -10560 -800 0
v -10560 -720 0
v -10640 -800 0
v -10720 -800 0
v -10800 -800 0
v -10800 -720 0
v -800 -880 0
v -880 -880 0
v -800 -800 0
v -960 -880 0
v -1040 -880 0
v -1120 -880 0
v -1200 -880 0
v -1280 -880 0
v -1360 -880 0
v -1440 -880 0
v -1520 -880 0
v -1520 -800 0
v -1600 -880 0
v -1680 -880 0
v -1760 -880 0
v -1840 -880 0
v -1920 -880 0
v -2000 -880 0
v -2080 -880 0
v -2160 -880 0
v -2240 -880 0
v -2320 -880 0
v -2400 -880 0
v -2400 -800 0
v -2480 -880 0
v -2480 -800 0
v -2560 -880 0
v -2560 -800 0
v -2640 -880 0
v -2720 -880 0
v -2720 -800 0
v -2640 -800 0
v -3120 -880 0
v -3200 -880 0
v -3200 -800 0
v -3120 -800 0
v -3280 -880 0
v -3360 -880 0
v -3360 -800 0
v -3280 -800 0
v -3440 -880 0
v -3440 -800 0
v -3520 -880 0
v -3600 -880 0
v -3600 -800 0
v -3520 -800 0
v -3680 -880 0
v -3680 -800 0
v -3760 -880 0
v -3840 -880 0
v -3840 -800 0
v -3760 -800 0
v -3920 -880 0
v -4000 -880 0
v -4000 -800 0
v -3920 -800 0
v -4080 -880 0
v -4160 -880 0
v -4160 -800 0
v -4080 -800 0
v -4240 -880 0
v -4320 -880 0
v -4320 -800 0
v -4240 -800 0
v -4400 -880 0
v -4400 -800 0
v -4480 -880 0
v -4560 -880 0
v -4560 -800 0
v -4480 -800 0
v -4640 -880 0
v -4640 -800 0
v -4720 -880 0
v -4800 -880 0
v -4800 -800 0
v -4720 -800 0
v -4880 -880 0
v -4880 -800 0
v -4960 -880 0
v -5040 -880 0
v -4960 -800 0
v -5120 -880 0
v -5200 -880 0
v -5280 -880 0
v -2560 -960 0
v -2640 -960 0
v -2720 -960 0
v -2800 -960 0
v -2800 -880 0
v -2880 -960 0
v -2880 -880 0
v -2960 -960 0
v -2960 -880 0
v -3040 -960 0
v -3040 -880 0
v -3120 -960 0
v -3200 -960 0
v -3280 -960 0
v -3360 -960 0
v -3440 -960 0
v -3520 -960 0
v -3600 -960 0
v -3680 -960 0
v -3760 -960 0
v -3840 -960 0
v -3920 -960 0
v -4000 -960 0
v -4080 -960 0
v -4160 -960 0
v -4240 -960 0
v -4320 -960 0
v -4400 -960 0
v -4480 -960 0
v -4560 -960 0
v -4640 -960 0
v -4720 -960 0
v -4800 -960 0
v -4880 -960 0
v -4960 -960 0

# Texture cooridinates (Count = 48)
vt 0.2501221 0.7501221
vt 0.3748779 0.7501221
vt 0.3748779 0.9998779
vt 0.2501221 0.9998779
vt 0.6251221 0.7501221
vt 0.7498779 0.7501221
vt 0.7498779 0.9998779
vt 0.6251221 0.9998779
vt 0.3751221 0.7501221
vt 0.4998779 0.7501221
vt 0.4998779 0.9998779
vt 0.3751221 0.9998779
vt 0.5001221 0.7501221
vt 0.6248779 0.7501221
vt 0.6248779 0.9998779
vt 0.5001221 0.9998779
vt 0.7501221 0.7501221
vt 0.8748779 0.7501221
vt 0.8748779 0.9998779
vt 0.7501221 0.9998779
vt 0.2501221 0.2501221
vt 0.3748779 0.2501221
vt 0.3748779 0.4998779
vt 0.2501221 0.4998779
vt 0.3751221 0.2501221
vt 0.4998779 0.2501221
vt 0.4998779 0.4998779
vt 0.3751221 0.4998779
vt 0.1251221 0.7501221
vt 0.2498779 0.7501221
vt 0.2498779 0.9998779
vt 0.1251221 0.9998779
vt 0.0001220703 0.7501221
vt 0.1248779 0.7501221
vt 0.1248779 0.9998779
vt 0.0001220703 0.9998779
vt 0.2501221 0.0001220703
vt 0.3748779 0.0001220703
vt 0.3748779 0.2498779
vt 0.2501221 0.2498779
vt 0.3751221 0.0001220703
vt 0.4998779 0.0001220703
vt 0.4998779 0.2498779
vt 0.3751221 0.2498779
vt 0.2501221 0.5001221
vt 0.3748779 0.5001221
vt 0.3748779 0.7498779
vt 0.2501221 0.7498779

# Normal
vn 0 0 -1

# Groups (Count = 1)

g mesh_0001
f 1/1/1 2/2/1 3/3/1 4/4/1
f 5/5/1 6/6/1 7/7/1 8/8/1
f 9/1/1 10/2/1 11/3/1 12/4/1
f 13/9/1 14/10/1 15/11/1 16/12/1
f 14/13/1 17/14/1 18/15/1 15/16/1
f 19/1/1 20/2/1 21/3/1 22/4/1
f 23/1/1 24/2/1 25/3/1 26/4/1
f 24/1/1 27/2/1 28/3/1 25/4/1
f 29/1/1 30/2/1 31/3/1 32/4/1
f 30/1/1 33/2/1 34/3/1 31/4/1
f 35/1/1 36/2/1 37/3/1 38/4/1
f 36/1/1 39/2/1 40/3/1 37/4/1
f 41/5/1 42/6/1 43/7/1 44/8/1
f 42/5/1 45/6/1 46/7/1 43/8/1
f 47/1/1 48/2/1 49/3/1 50/4/1
f 48/1/1 51/2/1 52/3/1 49/4/1
f 51/1/1 53/2/1 54/3/1 52/4/1
f 55/17/1 56/18/1 57/19/1 58/20/1
f 56/17/1 59/18/1 60/19/1 57/20/1
f 61/1/1 62/2/1 63/3/1 64/4/1
f 62/1/1 65/2/1 66/3/1 63/4/1
f 65/1/1 67/2/1 68/3/1 66/4/1
f 67/1/1 69/2/1 70/3/1 68/4/1
f 71/9/1 72/10/1 73/11/1 74/12/1
f 72/9/1 75/10/1 76/11/1 73/12/1
f 77/1/1 78/2/1 79/3/1 80/4/1
f 81/1/1 82/2/1 83/3/1 84/4/1
f 82/1/1 85/2/1 86/3/1 83/4/1
f 87/21/1 88/22/1 89/23/1 90/24/1
f 88/25/1 91/26/1 92/27/1 89/28/1
f 93/29/1 94/30/1 1/31/1 95/32/1
f 94/29/1 96/30/1 2/31/1 1/32/1
f 96/29/1 97/30/1 5/31/1 2/32/1
f 97/29/1 98/30/1 6/31/1 5/32/1
f 98/29/1 99/30/1 100/31/1 6/32/1
f 101/1/1 102/2/1 103/3/1 104/4/1
f 105/1/1 106/2/1 107/3/1 108/4/1
f 109/29/1 110/30/1 9/31/1 111/32/1
f 110/29/1 112/30/1 10/31/1 9/32/1
f 112/29/1 113/30/1 13/31/1 10/32/1
f 113/29/1 114/30/1 14/31/1 13/32/1
f 114/29/1 115/30/1 17/31/1 14/32/1
f 115/29/1 116/30/1 19/31/1 17/32/1
f 116/29/1 117/30/1 20/31/1 19/32/1
f 117/29/1 118/30/1 119/31/1 20/32/1
f 120/29/1 121/30/1 24/31/1 23/32/1
f 121/29/1 122/30/1 27/31/1 24/32/1
f 123/29/1 124/30/1 30/31/1 29/32/1
f 124/29/1 125/30/1 33/31/1 30/32/1
f 126/29/1 127/30/1 35/31/1 128/32/1
f 127/29/1 129/30/1 36/31/1 35/32/1
f 129/29/1 130/30/1 39/31/1 36/32/1
f 130/29/1 131/30/1 41/31/1 39/32/1
f 131/29/1 132/30/1 42/31/1 41/32/1
f 132/29/1 133/30/1 45/31/1 42/32/1
f 133/29/1 134/30/1 47/31/1 45/32/1
f 134/29/1 135/30/1 48/31/1 47/32/1
f 135/29/1 136/30/1 51/31/1 48/32/1
f 136/29/1 137/30/1 53/31/1 51/32/1
f 137/29/1 138/30/1 55/31/1 53/32/1
f 138/29/1 139/30/1 56/31/1 55/32/1
f 139/29/1 140/30/1 59/31/1 56/32/1
f 140/29/1 141/30/1 61/31/1 59/32/1
f 141/29/1 142/30/1 62/31/1 61/32/1
f 142/29/1 143/30/1 65/31/1 62/32/1
f 143/29/1 144/30/1 67/31/1 65/32/1
f 144/29/1 145/30/1 69/31/1 67/32/1
f 145/29/1 146/30/1 71/31/1 69/32/1
f 146/29/1 147/30/1 72/31/1 71/32/1
f 147/29/1 148/30/1 75/31/1 72/32/1
f 148/29/1 149/30/1 77/31/1 75/32/1
f 149/29/1 150/30/1 78/31/1 77/32/1
f 150/29/1 151/30/1 152/31/1 78/32/1
f 153/1/1 154/2/1 155/3/1 156/4/1
f 157/29/1 158/30/1 81/31/1 159/32/1
f 158/29/1 160/30/1 82/31/1 81/32/1
f 160/29/1 161/30/1 85/31/1 82/32/1
f 161/29/1 162/30/1 163/31/1 85/32/1
f 164/1/1 165/2/1 166/3/1 167/4/1
f 168/33/1 169/34/1 87/35/1 170/36/1
f 169/37/1 171/38/1 88/39/1 87/40/1
f 171/41/1 172/42/1 91/43/1 88/44/1
f 173/1/1 174/2/1 175/3/1 176/4/1
f 174/1/1 177/2/1 178/3/1 175/4/1
f 177/1/1 179/2/1 180/3/1 178/4/1
f 179/1/1 181/2/1 182/3/1 180/4/1
f 183/29/1 184/30/1 101/31/1 99/32/1
f 184/29/1 185/30/1 102/31/1 101/32/1
f 185/29/1 186/30/1 187/31/1 102/32/1
f 186/45/1 188/46/1 189/47/1 187/48/1
f 188/45/1 190/46/1 191/47/1 189/48/1
f 190/45/1 192/46/1 193/47/1 191/48/1
f 192/29/1 194/30/1 105/31/1 193/32/1
f 194/29/1 195/30/1 106/31/1 105/32/1
f 195/29/1 196/30/1 109/31/1 106/32/1
f 197/29/1 198/30/1 153/31/1 199/32/1
f 198/29/1 200/30/1 154/31/1 153/32/1
f 200/29/1 201/30/1 157/31/1 154/32/1
f 202/29/1 203/30/1 164/31/1 162/32/1
f 203/29/1 204/30/1 165/31/1 164/32/1
f 204/29/1 205/30/1 206/31/1 165/32/1
f 205/45/1 207/46/1 208/47/1 206/48/1
f 207/45/1 209/46/1 210/47/1 208/48/1
f 211/1/1 212/2/1 213/3/1 214/4/1
f 215/5/1 216/6/1 217/7/1 218/8/1
f 219/29/1 220/30/1 169/31/1 168/32/1
f 220/29/1 221/30/1 171/31/1 169/32/1
f 221/29/1 222/30/1 172/31/1 171/32/1
f 222/29/1 223/30/1 173/31/1 172/32/1
f 223/29/1 224/30/1 174/31/1 173/32/1
f 224/29/1 225/30/1 177/31/1 174/32/1
f 225/29/1 226/30/1 179/31/1 177/32/1
f 226/29/1 227/30/1 181/31/1 179/32/1
f 227/29/1 228/30/1 229/31/1 181/32/1
f 230/1/1 231/2/1 232/3/1 233/4/1
f 234/1/1 235/2/1 236/3/1 237/4/1
f 238/1/1 239/2/1 240/3/1 241/4/1
f 242/29/1 243/30/1 211/31/1 209/32/1
f 243/29/1 244/30/1 212/31/1 211/32/1
f 244/29/1 245/30/1 215/31/1 212/32/1
f 245/29/1 246/30/1 216/31/1 215/32/1
f 246/29/1 247/30/1 248/31/1 216/32/1
f 249/1/1 250/2/1 251/3/1 252/4/1
f 253/29/1 254/30/1 230/31/1 255/32/1
f 254/29/1 256/30/1 231/31/1 230/32/1
f 256/29/1 257/30/1 258/31/1 231/32/1
f 259/29/1 260/30/1 234/31/1 261/32/1
f 260/29/1 262/30/1 235/31/1 234/32/1
f 262/29/1 263/30/1 264/31/1 235/32/1
f 265/29/1 266/30/1 238/31/1 267/32/1
f 266/29/1 268/30/1 239/31/1 238/32/1
f 268/29/1 269/30/1 270/31/1 239/32/1
f 271/29/1 272/30/1 249/31/1 247/32/1
f 272/29/1 273/30/1 250/31/1 249/32/1
f 273/29/1 274/30/1 275/31/1 250/32/1
f 274/9/1 276/10/1 277/11/1 275/12/1
f 276/13/1 278/14/1 279/15/1 277/16/1
f 280/1/1 281/2/1 282/3/1 283/4/1
f 284/1/1 285/2/1 286/3/1 287/4/1
f 288/1/1 289/2/1 290/3/1 291/4/1
f 289/1/1 292/2/1 293/3/1 290/4/1
f 292/1/1 294/2/1 295/3/1 293/4/1
f 294/1/1 296/2/1 297/3/1 295/4/1
f 296/1/1 298/2/1 299/3/1 297/4/1
f 300/1/1 301/2/1 302/3/1 303/4/1
f 304/1/1 305/2/1 306/3/1 307/4/1
f 308/29/1 309/30/1 276/31/1 274/32/1
f 309/29/1 310/30/1 278/31/1 276/32/1
f 310/29/1 311/30/1 280/31/1 278/32/1
f 311/29/1 312/30/1 281/31/1 280/32/1
f 312/29/1 313/30/1 314/31/1 281/32/1
f 315/1/1 316/2/1 317/3/1 318/4/1
f 316/1/1 319/2/1 320/3/1 317/4/1
f 319/1/1 321/2/1 322/3/1 320/4/1
f 323/1/1 324/2/1 325/3/1 326/4/1
f 327/1/1 328/2/1 329/3/1 330/4/1
f 328/1/1 331/2/1 332/3/1 329/4/1
f 331/1/1 333/2/1 334/3/1 332/4/1
f 333/1/1 335/2/1 336/3/1 334/4/1
f 335/1/1 337/2/1 338/3/1 336/4/1
f 339/17/1 340/18/1 341/19/1 342/20/1
f 343/1/1 344/2/1 345/3/1 346/4/1
f 347/9/1 348/10/1 349/11/1 350/12/1
f 351/1/1 352/2/1 353/3/1 354/4/1
f 352/1/1 355/2/1 356/3/1 353/4/1
f 357/5/1 358/6/1 359/7/1 360/8/1
f 358/5/1 361/6/1 362/7/1 359/8/1
f 363/1/1 364/2/1 365/3/1 366/4/1
f 367/13/1 368/14/1 369/15/1 370/16/1
f 368/29/1 371/30/1 284/31/1 369/32/1
f 371/29/1 372/30/1 285/31/1 284/32/1
f 372/29/1 373/30/1 374/31/1 285/32/1
f 373/45/1 375/46/1 376/47/1 374/48/1
f 375/45/1 377/46/1 378/47/1 376/48/1
f 377/29/1 379/30/1 288/31/1 378/32/1
f 379/29/1 380/30/1 289/31/1 288/32/1
f 380/29/1 381/30/1 292/31/1 289/32/1
f 381/29/1 382/30/1 294/31/1 292/32/1
f 382/29/1 383/30/1 296/31/1 294/32/1
f 383/29/1 384/30/1 298/31/1 296/32/1
f 384/29/1 385/30/1 386/31/1 298/32/1
f 387/29/1 388/30/1 300/31/1 389/32/1
f 388/29/1 390/30/1 301/31/1 300/32/1
f 390/29/1 391/30/1 392/31/1 301/32/1
f 393/29/1 394/30/1 304/31/1 395/32/1
f 394/29/1 396/30/1 305/31/1 304/32/1
f 396/29/1 397/30/1 398/31/1 305/32/1
f 399/29/1 400/30/1 315/31/1 313/32/1
f 400/29/1 401/30/1 316/31/1 315/32/1
f 401/29/1 402/30/1 319/31/1 316/32/1
f 402/29/1 403/30/1 321/31/1 319/32/1
f 403/29/1 404/30/1 405/31/1 321/32/1
f 404/45/1 406/46/1 407/47/1 405/48/1
f 406/45/1 408/46/1 409/47/1 407/48/1
f 408/45/1 410/46/1 411/47/1 409/48/1
f 410/29/1 412/30/1 323/31/1 411/32/1
f 412/29/1 413/30/1 324/31/1 323/32/1
f 413/29/1 414/30/1 415/31/1 324/32/1
f 416/29/1 417/30/1 327/31/1 418/32/1
f 417/29/1 419/30/1 328/31/1 327/32/1
f 419/29/1 420/30/1 331/31/1 328/32/1
f 420/29/1 421/30/1 333/31/1 331/32/1
f 421/29/1 422/30/1 335/31/1 333/32/1
f 422/29/1 423/30/1 337/31/1 335/32/1
f 423/29/1 424/30/1 339/31/1 337/32/1
f 424/29/1 425/30/1 340/31/1 339/32/1
f 425/29/1 426/30/1 427/31/1 340/32/1
f 426/29/1 428/30/1 343/31/1 427/32/1
f 428/29/1 429/30/1 344/31/1 343/32/1
f 429/29/1 430/30/1 347/31/1 344/32/1
f 430/29/1 431/30/1 348/31/1 347/32/1
f 431/29/1 432/30/1 351/31/1 348/32/1
f 432/29/1 433/30/1 352/31/1 351/32/1
f 433/29/1 434/30/1 355/31/1 352/32/1
f 434/29/1 435/30/1 357/31/1 355/32/1
f 435/29/1 436/30/1 358/31/1 357/32/1
f 436/29/1 437/30/1 361/31/1 358/32/1
f 437/29/1 438/30/1 439/31/1 361/32/1
f 438/29/1 440/30/1 441/31/1 439/32/1
f 440/29/1 442/30/1 443/31/1 441/32/1
f 444/1/1 445/2/1 446/3/1 447/4/1
f 448/1/1 449/2/1 450/3/1 451/4/1
f 452/13/1 453/14/1 454/15/1 455/16/1
f 453/13/1 456/14/1 457/15/1 454/16/1
f 458/1/1 459/2/1 460/3/1 461/4/1
f 459/1/1 462/2/1 463/3/1 460/4/1
f 464/13/1 465/14/1 466/15/1 467/16/1
f 468/1/1 469/2/1 470/3/1 471/4/1
f 472/13/1 473/14/1 474/15/1 475/16/1
f 476/1/1 477/2/1 478/3/1 479/4/1
f 477/1/1 480/2/1 481/3/1 478/4/1
f 482/9/1 483/10/1 484/11/1 485/12/1
f 483/13/1 486/14/1 487/15/1 484/16/1
f 488/1/1 489/2/1 490/3/1 491/4/1
f 489/1/1 492/2/1 493/3/1 490/4/1
f 494/29/1 495/30/1 363/31/1 496/32/1
f 495/29/1 497/30/1 364/31/1 363/32/1
f 497/29/1 498/30/1 367/31/1 364/32/1
f 498/29/1 499/30/1 368/31/1 367/32/1
f 500/29/1 501/30/1 444/31/1 442/32/1
f 501/29/1 502/30/1 445/31/1 444/32/1
f 502/29/1 503/30/1 504/31/1 445/32/1
f 503/45/1 505/46/1 506/47/1 504/48/1
f 505/45/1 507/46/1 508/47/1 506/48/1
f 507/45/1 509/46/1 510/47/1 508/48/1
f 509/29/1 511/30/1 448/31/1 510/32/1
f 511/29/1 512/30/1 449/31/1 448/32/1
f 512/29/1 513/30/1 452/31/1 449/32/1
f 513/29/1 514/30/1 453/31/1 452/32/1
f 514/29/1 515/30/1 456/31/1 453/32/1
f 515/29/1 516/30/1 458/31/1 456/32/1
f 516/29/1 517/30/1 459/31/1 458/32/1
f 517/29/1 518/30/1 462/31/1 459/32/1
f 518/29/1 519/30/1 464/31/1 462/32/1
f 519/29/1 520/30/1 465/31/1 464/32/1
f 520/29/1 521/30/1 468/31/1 465/32/1
f 521/29/1 522/30/1 469/31/1 468/32/1
f 522/29/1 523/30/1 472/31/1 469/32/1
f 523/29/1 524/30/1 473/31/1 472/32/1
f 524/29/1 525/30/1 476/31/1 473/32/1
f 525/29/1 526/30/1 477/31/1 476/32/1
f 526/29/1 527/30/1 480/31/1 477/32/1
f 527/29/1 528/30/1 482/31/1 480/32/1
f 528/29/1 529/30/1 483/31/1 482/32/1
f 529/29/1 530/30/1 486/31/1 483/32/1
f 530/29/1 531/30/1 488/31/1 486/32/1
f 531/29/1 532/30/1 489/31/1 488/32/1
f 532/29/1 533/30/1 492/31/1 489/32/1
f 533/29/1 534/30/1 494/31/1 492/32/1

